<svg version="1.1" viewBox="0.0 0.0 376.81889763779526 507.21259842519686" fill="none" stroke="none" stroke-linecap="square" stroke-miterlimit="10" xmlns:xlink="http://www.w3.org/1999/xlink" xmlns="http://www.w3.org/2000/svg"><clipPath id="p.0"><path d="m0 0l376.8189 0l0 507.2126l-376.8189 0l0 -507.2126z" clip-rule="nonzero"/></clipPath><g clip-path="url(#p.0)"><path fill="#000000" fill-opacity="0.0" d="m0 0l376.8189 0l0 507.2126l-376.8189 0z" fill-rule="evenodd"/><path fill="#000000" fill-opacity="0.0" d="m56.614174 73.78894l0 433.35434" fill-rule="evenodd"/><path stroke="#000000" stroke-width="1.0" stroke-linejoin="round" stroke-linecap="butt" d="m56.614174 73.78894l0 427.3543" fill-rule="evenodd"/><path fill="#000000" stroke="#000000" stroke-width="1.0" stroke-linecap="butt" d="m54.96244 501.14325l1.6517334 4.538086l1.6517334 -4.538086z" fill-rule="evenodd"/><path fill="#000000" fill-opacity="0.0" d="m320.4013 73.78894l0 429.22833" fill-rule="evenodd"/><path stroke="#000000" stroke-width="1.0" stroke-linejoin="round" stroke-linecap="butt" d="m320.4013 73.78894l0 423.22833" fill-rule="evenodd"/><path fill="#000000" stroke="#000000" stroke-width="1.0" stroke-linecap="butt" d="m318.74957 497.01727l1.6517334 4.538086l1.6517334 -4.538086z" fill-rule="evenodd"/><path fill="#6734ba" d="m37.71576 130.48193l0 0c0 -10.436882 8.460758 -18.897644 18.897636 -18.897644l0 0c5.011963 0 9.818649 1.9909973 13.362648 5.5349884c3.543991 3.5439987 5.5349884 8.350685 5.5349884 13.362656l0 0c0 10.436874 -8.460762 18.897629 -18.897636 18.897629l0 0c-10.436878 0 -18.897636 -8.460754 -18.897636 -18.897629z" fill-rule="evenodd"/><path fill="#ffffff" d="m55.188393 135.62068q-0.703125 0 -1.265625 -0.21875q-0.5625 -0.203125 -0.953125 -0.578125q-0.390625 -0.390625 -0.609375 -0.890625q-0.203125 -0.515625 -0.203125 -1.109375q0 -0.78125 0.328125 -1.359375q0.34375 -0.59375 1.078125 -1.0q0.734375 -0.421875 1.890625 -0.671875q1.15625 -0.25 2.796875 -0.34375q-0.078125 -0.625 -0.546875 -0.984375q-0.46875 -0.359375 -1.421875 -0.359375q-0.671875 0 -1.359375 0.234375q-0.671875 0.234375 -1.46875 0.625l-0.96875 -1.7968826q0.953125 -0.53125 2.046875 -0.890625q1.09375 -0.359375 2.28125 -0.359375q1.953125 0 3.0625 1.03125q1.125 1.03125 1.125 3.1562576l0 5.296875l-2.234375 0l-0.21875 -1.046875l-0.0625 0q-0.71875 0.546875 -1.5625 0.90625q-0.828125 0.359375 -1.734375 0.359375zm0.890625 -2.125q0.609375 0 1.140625 -0.25q0.546875 -0.25 1.03125 -0.625l0 -1.53125q-1.015625 0.0625 -1.6875 0.1875q-0.671875 0.125 -1.078125 0.328125q-0.390625 0.203125 -0.546875 0.46875q-0.15625 0.25 -0.15625 0.546875q0 0.453125 0.34375 0.671875q0.34375 0.203125 0.953125 0.203125z" fill-rule="nonzero"/><path fill="#89c540" d="m339.29895 168.19632l-18.897644 -18.897644l-18.897644 18.897644l18.897644 18.897629z" fill-rule="evenodd"/><path fill="#ffffff" d="m319.35132 168.96005l-0.28125 1.125l2.5625 0l-0.28125 -1.125q-0.234375 -0.921875 -0.5 -1.9375q-0.265625 -1.015625 -0.46875 -1.984375l-0.078125 0q-0.21875 0.96875 -0.46875 1.984375q-0.234375 1.015625 -0.484375 1.9375zm-4.375 6.15625l3.78125 -12.15625l3.28125 0l3.796875 12.15625l-2.921875 0l-0.71875 -2.890625l-3.671875 0l-0.75 2.890625l-2.796875 0z" fill-rule="nonzero"/><path fill="#000000" fill-opacity="0.0" d="m0 0.35586613l113.22835 0l0 37.795277l-113.22835 0z" fill-rule="evenodd"/><path fill="#000000" d="m28.220406 27.275864l0 -7.109375l-3.71875 0l0 -2.140625l6.453125 0l0 9.25l-2.734375 0zm1.40625 -10.703125q-0.796875 0 -1.3125 -0.453125q-0.515625 -0.45312405 -0.515625 -1.218749q0 -0.765625 0.515625 -1.234375q0.515625 -0.46875 1.3125 -0.46875q0.8125 0 1.3125 0.46875q0.515625 0.46875 0.515625 1.234375q0 0.765625 -0.515625 1.218749q-0.5 0.453125 -1.3125 0.453125zm5.943756 10.703125l0 -9.25l2.234375 0l0.203125 1.234375l0.078125 0q0.59375 -0.609375 1.359375 -1.03125q0.78125 -0.4375 1.828125 -0.4375q1.578125 0 2.296875 1.015625q0.734375 1.0 0.734375 2.765625l0 5.703125l-2.75 0l0 -5.359375q0 -0.921875 -0.296875 -1.34375q-0.296875 -0.4375 -1.0625 -0.4375q-0.5625 0 -0.984375 0.25q-0.40625 0.234375 -0.90625 0.71875l0 6.171875l-2.734375 0zm11.193756 3.4375l0 -12.6875l2.234375 0l0.203125 0.921875l0.0625 0q0.5625 -0.5 1.28125 -0.828125q0.734375 -0.328125 1.484375 -0.328125q0.859375 0 1.546875 0.34375q0.6875 0.328125 1.171875 0.953125q0.484375 0.609375 0.734375 1.484375q0.25 0.859375 0.25 1.921875q0 1.203125 -0.34375 2.125q-0.328125 0.921875 -0.890625 1.5625q-0.546875 0.640625 -1.265625 0.984375q-0.71875 0.328125 -1.5 0.328125q-1.28125 0 -2.28125 -1.0l-0.078125 0l0.125 1.515625l0 2.703125l-2.734375 0zm4.328125 -5.453125q0.78125 0 1.296875 -0.640625q0.53125 -0.640625 0.53125 -2.078125q0 -2.5 -1.703125 -2.5q-0.875 0 -1.71875 0.859375l0 3.75q0.40625 0.328125 0.8125 0.46875q0.421875 0.140625 0.78125 0.140625zm9.678131 2.234375q-1.578125 0 -2.296875 -1.0q-0.703125 -1.015625 -0.703125 -2.765625l0 -5.703125l2.75 0l0 5.34375q0 0.9375 0.265625 1.375q0.28125 0.421875 1.078125 0.421875q0.515625 0 0.90625 -0.21875q0.40625 -0.234375 0.890625 -0.84375l0 -6.078125l2.75 0l0 9.25l-2.234375 0l-0.21875 -1.328125l-0.0625 0q-0.625 0.71875 -1.375 1.140625q-0.734375 0.40625 -1.75 0.40625zm14.271881 0q-1.09375 0 -1.859375 -0.296875q-0.765625 -0.296875 -1.25 -0.828125q-0.46875 -0.53125 -0.671875 -1.265625q-0.203125 -0.75 -0.203125 -1.671875l0 -3.265625l-2.328125 0l0 -2.03125l2.453125 -0.109375l0.359375 -2.843749l2.25 0l0 2.843749l3.921875 0l0 2.140625l-3.921875 0l0 3.25q0 1.0625 0.46875 1.5q0.46875 0.4375 1.5 0.4375q0.515625 0 0.953125 -0.09375q0.4375 -0.09375 0.875 -0.234375l0.484375 1.96875q-0.625 0.1875 -1.359375 0.34375q-0.734375 0.15625 -1.671875 0.15625zm5.146881 -2.359375l1.203125 -1.875q0.890625 0.546875 1.6875 0.859375q0.796875 0.296875 1.6875 0.296875q0.671875 0 1.015625 -0.21875q0.359375 -0.21875 0.359375 -0.609375q0 -0.390625 -0.40625 -0.65625q-0.390625 -0.265625 -1.0 -0.5q-0.609375 -0.25 -1.3125 -0.5q-0.703125 -0.265625 -1.3125 -0.65625q-0.609375 -0.40625 -1.015625 -0.984375q-0.390625 -0.578125 -0.390625 -1.421875q0 -1.21875 0.8125 -2.015625q0.828125 -0.8125 2.234375 -1.031249l0 -2.453125l1.828125 0l0 2.4375q0.984375 0.125 1.703125 0.53124905q0.71875 0.390625 1.296875 1.0l-1.375 1.5625q-0.640625 -0.46875 -1.234375 -0.703125q-0.59375 -0.234375 -1.359375 -0.234375q-1.28125 0 -1.28125 0.859375q0 0.34375 0.390625 0.5625q0.40625 0.21875 1.015625 0.453125q0.609375 0.21875 1.3125 0.484375q0.703125 0.25 1.296875 0.65625q0.609375 0.40625 1.0 0.984375q0.40625 0.578125 0.40625 1.40625q0 1.1875 -0.796875 2.0625q-0.796875 0.859375 -2.375 1.109375l0 2.78125l-1.828125 0l0 -2.71875q-0.90625 -0.09375 -1.875 -0.46875q-0.96875 -0.390625 -1.6875 -1.0z" fill-rule="nonzero"/><path fill="#000000" fill-opacity="0.0" d="m263.53778 0.35586613l113.38583 0l0 37.795277l-113.38583 0z" fill-rule="evenodd"/><path fill="#000000" d="m286.6463 27.494614q-0.90625 0 -1.765625 -0.3125q-0.84375 -0.328125 -1.515625 -0.9375q-0.65625 -0.625 -1.046875 -1.53125q-0.390625 -0.90625 -0.390625 -2.0625q0 -1.15625 0.390625 -2.0625q0.390625 -0.90625 1.046875 -1.515625q0.671875 -0.625 1.515625 -0.953125q0.859375 -0.328125 1.765625 -0.328125q0.921875 0 1.765625 0.328125q0.84375 0.328125 1.5 0.953125q0.671875 0.609375 1.0625 1.515625q0.390625 0.90625 0.390625 2.0625q0 1.15625 -0.390625 2.0625q-0.390625 0.90625 -1.0625 1.53125q-0.65625 0.609375 -1.5 0.9375q-0.84375 0.3125 -1.765625 0.3125zm0 -2.21875q0.953125 0 1.421875 -0.703125q0.484375 -0.71875 0.484375 -1.921875q0 -1.21875 -0.484375 -1.921875q-0.46875 -0.703125 -1.421875 -0.703125q-0.953125 0 -1.4375 0.703125q-0.46875 0.703125 -0.46875 1.921875q0 1.203125 0.46875 1.921875q0.484375 0.703125 1.4375 0.703125zm9.756256 2.21875q-1.578125 0 -2.296875 -1.0q-0.703125 -1.015625 -0.703125 -2.765625l0 -5.703125l2.75 0l0 5.34375q0 0.9375 0.265625 1.375q0.28125 0.421875 1.078125 0.421875q0.515625 0 0.90625 -0.21875q0.40625 -0.234375 0.890625 -0.84375l0 -6.078125l2.75 0l0 9.25l-2.234375 0l-0.21875 -1.328125l-0.0625 0q-0.625 0.71875 -1.375 1.140625q-0.734375 0.40625 -1.75 0.40625zm14.271881 0q-1.09375 0 -1.859375 -0.296875q-0.765625 -0.296875 -1.25 -0.828125q-0.46875 -0.53125 -0.671875 -1.265625q-0.203125 -0.75 -0.203125 -1.671875l0 -3.265625l-2.328125 0l0 -2.03125l2.453125 -0.109375l0.359375 -2.843749l2.25 0l0 2.843749l3.921875 0l0 2.140625l-3.921875 0l0 3.25q0 1.0625 0.46875 1.5q0.46875 0.4375 1.5 0.4375q0.515625 0 0.953125 -0.09375q0.4375 -0.09375 0.875 -0.234375l0.484375 1.96875q-0.625 0.1875 -1.359375 0.34375q-0.734375 0.15625 -1.671875 0.15625zm5.303131 3.21875l0 -12.6875l2.234375 0l0.203125 0.921875l0.0625 0q0.5625 -0.5 1.28125 -0.828125q0.734375 -0.328125 1.484375 -0.328125q0.859375 0 1.546875 0.34375q0.6875 0.328125 1.171875 0.953125q0.484375 0.609375 0.734375 1.484375q0.25 0.859375 0.25 1.921875q0 1.203125 -0.34375 2.125q-0.328125 0.921875 -0.890625 1.5625q-0.546875 0.640625 -1.265625 0.984375q-0.71875 0.328125 -1.5 0.328125q-1.28125 0 -2.28125 -1.0l-0.078125 0l0.125 1.515625l0 2.703125l-2.734375 0zm4.328125 -5.453125q0.78125 0 1.296875 -0.640625q0.53125 -0.640625 0.53125 -2.078125q0 -2.5 -1.703125 -2.5q-0.875 0 -1.71875 0.859375l0 3.75q0.40625 0.328125 0.8125 0.46875q0.421875 0.140625 0.78125 0.140625zm9.678131 2.234375q-1.578125 0 -2.296875 -1.0q-0.703125 -1.015625 -0.703125 -2.765625l0 -5.703125l2.75 0l0 5.34375q0 0.9375 0.265625 1.375q0.28125 0.421875 1.078125 0.421875q0.515625 0 0.90625 -0.21875q0.40625 -0.234375 0.890625 -0.84375l0 -6.078125l2.75 0l0 9.25l-2.234375 0l-0.21875 -1.328125l-0.0625 0q-0.625 0.71875 -1.375 1.140625q-0.734375 0.40625 -1.75 0.40625zm14.271881 0q-1.09375 0 -1.859375 -0.296875q-0.765625 -0.296875 -1.25 -0.828125q-0.46875 -0.53125 -0.671875 -1.265625q-0.203125 -0.75 -0.203125 -1.671875l0 -3.265625l-2.328125 0l0 -2.03125l2.453125 -0.109375l0.359375 -2.843749l2.25 0l0 2.843749l3.921875 0l0 2.140625l-3.921875 0l0 3.25q0 1.0625 0.46875 1.5q0.46875 0.4375 1.5 0.4375q0.515625 0 0.953125 -0.09375q0.4375 -0.09375 0.875 -0.234375l0.484375 1.96875q-0.625 0.1875 -1.359375 0.34375q-0.734375 0.15625 -1.671875 0.15625zm5.146881 -2.359375l1.203125 -1.875q0.890625 0.546875 1.6875 0.859375q0.796875 0.296875 1.6875 0.296875q0.671875 0 1.015625 -0.21875q0.359375 -0.21875 0.359375 -0.609375q0 -0.390625 -0.40625 -0.65625q-0.390625 -0.265625 -1.0 -0.5q-0.609375 -0.25 -1.3125 -0.5q-0.703125 -0.265625 -1.3125 -0.65625q-0.609375 -0.40625 -1.015625 -0.984375q-0.390625 -0.578125 -0.390625 -1.421875q0 -1.21875 0.8125 -2.015625q0.828125 -0.8125 2.234375 -1.031249l0 -2.453125l1.828125 0l0 2.4375q0.984375 0.125 1.703125 0.53124905q0.71875 0.390625 1.296875 1.0l-1.375 1.5625q-0.640625 -0.46875 -1.234375 -0.703125q-0.59375 -0.234375 -1.359375 -0.234375q-1.28125 0 -1.28125 0.859375q0 0.34375 0.390625 0.5625q0.40625 0.21875 1.015625 0.453125q0.609375 0.21875 1.3125 0.484375q0.703125 0.25 1.296875 0.65625q0.609375 0.40625 1.0 0.984375q0.40625 0.578125 0.40625 1.40625q0 1.1875 -0.796875 2.0625q-0.796875 0.859375 -2.375 1.109375l0 2.78125l-1.828125 0l0 -2.71875q-0.90625 -0.09375 -1.875 -0.46875q-0.96875 -0.390625 -1.6875 -1.0z" fill-rule="nonzero"/><path fill="#cccccc" d="m339.29895 357.25937l-18.897644 -18.897644l-18.897644 18.897644l18.897644 18.897644z" fill-rule="evenodd"/><path fill="#ffffff" d="m319.35132 358.0231l-0.28125 1.125l2.5625 0l-0.28125 -1.125q-0.234375 -0.921875 -0.5 -1.9375q-0.265625 -1.015625 -0.46875 -1.984375l-0.078125 0q-0.21875 0.96875 -0.46875 1.984375q-0.234375 1.015625 -0.484375 1.9375zm-4.375 6.15625l3.78125 -12.15625l3.28125 0l3.796875 12.15625l-2.921875 0l-0.71875 -2.890625l-3.671875 0l-0.75 2.890625l-2.796875 0z" fill-rule="nonzero"/><path fill="#ffffff" d="m112.91719 73.78894l0 433.35434l151.1811 0l0 -433.35434z" fill-rule="evenodd"/><path stroke="#000000" stroke-width="1.0" stroke-linejoin="round" stroke-linecap="butt" d="m112.91719 73.78894l0 433.35434l151.1811 0l0 -433.35434z" fill-rule="evenodd"/><path fill="#000000" fill-opacity="0.0" d="m75.51103 130.48193l94.645676 0.06298828" fill-rule="evenodd"/><path stroke="#434343" stroke-width="1.0" stroke-linejoin="round" stroke-linecap="butt" stroke-dasharray="4.0,3.0" d="m75.51103 130.48192l88.645676 0.059005737" fill-rule="evenodd"/><path fill="#434343" stroke="#434343" stroke-width="1.0" stroke-linecap="butt" d="m164.15561 132.19266l4.5391846 -1.6487122l-4.5369873 -1.6547546z" fill-rule="evenodd"/><path fill="#000000" fill-opacity="0.0" d="m188.50774 168.27713l113.00789 -0.09449768" fill-rule="evenodd"/><path stroke="#434343" stroke-width="1.0" stroke-linejoin="round" stroke-linecap="butt" stroke-dasharray="4.0,3.0" d="m188.50774 168.27713l107.00786 -0.08947754" fill-rule="evenodd"/><path fill="#434343" stroke="#434343" stroke-width="1.0" stroke-linecap="butt" d="m295.517 169.83939l4.5367126 -1.6555176l-4.5394897 -1.6479492z" fill-rule="evenodd"/><path fill="#000000" fill-opacity="0.0" d="m189.06154 357.2535l112.44096 0" fill-rule="evenodd"/><path stroke="#cccccc" stroke-width="1.0" stroke-linejoin="round" stroke-linecap="butt" stroke-dasharray="4.0,3.0" d="m189.06154 357.25348l106.44093 0" fill-rule="evenodd"/><path fill="#cccccc" stroke="#cccccc" stroke-width="1.0" stroke-linecap="butt" d="m295.50247 358.9052l4.5381165 -1.6517334l-4.5381165 -1.6517334z" fill-rule="evenodd"/><path fill="#6734ba" d="m75.51181 243.86768l0 0c0 -10.436874 -8.460762 -18.897629 -18.897636 -18.897629l0 0c-5.0119667 0 -9.818653 1.990982 -13.362648 5.5349884c-3.543995 3.543991 -5.534992 8.3506775 -5.534992 13.36264l0 0c0 10.436874 8.460762 18.897644 18.89764 18.897644l0 0c10.436874 0 18.897636 -8.46077 18.897636 -18.897644z" fill-rule="evenodd"/><path fill="#ffffff" d="m57.329796 251.00642q-0.65625 0 -1.3125 -0.3125q-0.640625 -0.3125 -1.21875 -0.90625l-0.0625 0l-0.234375 1.0l-2.140625 0l0 -13.078125l2.734375 0l0 3.203125l-0.078125 1.46875l0.046875 0q0.53125 -0.515625 1.1875 -0.796875q0.671875 -0.28125 1.34375 -0.28125q0.859375 0 1.5625 0.34375q0.703125 0.328125 1.171875 0.9375q0.484375 0.609375 0.734375 1.484375q0.265625 0.859375 0.265625 1.921875q0 1.203125 -0.34375 2.140625q-0.328125 0.921875 -0.890625 1.5625q-0.546875 0.640625 -1.265625 0.984375q-0.71875 0.328125 -1.5 0.328125zm-0.625 -2.234375q0.765625 0 1.28125 -0.640625q0.53125 -0.640625 0.53125 -2.078125q0 -2.5 -1.703125 -2.5q-0.875 0 -1.71875 0.859375l0 3.75q0.40625 0.328125 0.8125 0.46875q0.421875 0.140625 0.796875 0.140625z" fill-rule="nonzero"/><path fill="#000000" fill-opacity="0.0" d="m75.51181 243.86768l151.33858 0.12599182" fill-rule="evenodd"/><path stroke="#434343" stroke-width="1.0" stroke-linejoin="round" stroke-linecap="butt" stroke-dasharray="4.0,3.0" d="m75.51181 243.86768l145.33858 0.12098694" fill-rule="evenodd"/><path fill="#434343" stroke="#434343" stroke-width="1.0" stroke-linecap="butt" d="m220.84901 245.6404l4.5394745 -1.6479492l-4.5367126 -1.6555023z" fill-rule="evenodd"/><path fill="#000000" fill-opacity="0.0" d="m151.26627 130.54485l0 245.6693l37.795273 0l0 -245.6693z" fill-rule="evenodd"/><path fill="#000000" fill-opacity="0.0" d="m170.16391 130.54485l0 241.82677" fill-rule="evenodd"/><path stroke="#000000" stroke-width="1.0" stroke-linejoin="round" stroke-linecap="butt" d="m170.16391 130.54485l0 235.82674" fill-rule="evenodd"/><path fill="#000000" stroke="#000000" stroke-width="1.0" stroke-linecap="butt" d="m168.51218 366.37158l1.6517334 4.5381165l1.6517334 -4.5381165z" fill-rule="evenodd"/><path fill="#89c540" d="m188.50774 168.27713l-18.897629 -18.897644l-18.897644 18.897644l18.897644 18.897629z" fill-rule="evenodd"/><path fill="#ffffff" d="m168.5601 169.04088l-0.28125 1.125l2.5625 0l-0.28125 -1.125q-0.234375 -0.921875 -0.5 -1.9375q-0.265625 -1.015625 -0.46875 -1.984375l-0.078125 0q-0.21875 0.96875 -0.46875 1.984375q-0.234375 1.015625 -0.484375 1.9375zm-4.375 6.15625l3.78125 -12.15625l3.28125 0l3.796875 12.15625l-2.921875 0l-0.71875 -2.890625l-3.671875 0l-0.75 2.890625l-2.796875 0z" fill-rule="nonzero"/><path fill="#cccccc" d="m189.06154 357.2535l-18.897629 -18.897644l-18.897644 18.897644l18.897644 18.897644z" fill-rule="evenodd"/><path fill="#ffffff" d="m169.1139 358.01724l-0.28125 1.125l2.5625 0l-0.28125 -1.125q-0.234375 -0.921875 -0.5 -1.9375q-0.265625 -1.015625 -0.46875 -1.984375l-0.078125 0q-0.21875 0.96875 -0.46875 1.984375q-0.234375 1.015625 -0.484375 1.9375zm-4.375 6.15625l3.78125 -12.15625l3.28125 0l3.796875 12.15625l-2.921875 0l-0.71875 -2.890625l-3.671875 0l-0.75 2.890625l-2.796875 0z" fill-rule="nonzero"/><path fill="#cccccc" d="m151.26627 372.3716l0 3.779541l37.795273 0l0 -3.779541z" fill-rule="evenodd"/><path fill="#ffcb21" d="m339.12952 281.66077l-18.897644 -18.897644l-18.897644 18.897644l18.897644 18.897644z" fill-rule="evenodd"/><path fill="#ffffff" d="m316.00998 288.58075l0 -12.15625l4.09375 0q0.953125 0 1.765625 0.140625q0.8125 0.125 1.40625 0.484375q0.59375 0.359375 0.9375 0.9375q0.34375 0.578125 0.34375 1.453125q0 0.40625 -0.125 0.828125q-0.109375 0.40625 -0.375 0.765625q-0.265625 0.34375 -0.65625 0.625q-0.390625 0.28125 -0.9375 0.40625l0 0.078125q1.3125 0.25 1.984375 0.9375q0.671875 0.6875 0.671875 1.921875q0 0.921875 -0.359375 1.59375q-0.34375 0.671875 -0.984375 1.125q-0.640625 0.4375 -1.484375 0.65625q-0.84375 0.203125 -1.828125 0.203125l-4.453125 0zm2.75 -7.28125l1.203125 0q1.015625 0 1.453125 -0.390625q0.453125 -0.390625 0.453125 -1.09375q0 -0.671875 -0.453125 -0.953125q-0.453125 -0.296875 -1.421875 -0.296875l-1.234375 0l0 2.734375zm0 5.140625l1.46875 0q2.203125 0 2.203125 -1.640625q0 -0.8125 -0.53125 -1.15625q-0.53125 -0.359375 -1.671875 -0.359375l-1.46875 0l0 3.15625z" fill-rule="nonzero"/><path fill="#ffcb21" d="m339.12952 470.72382l-18.897644 -18.897644l-18.897644 18.897644l18.897644 18.897644z" fill-rule="evenodd"/><path fill="#ffffff" d="m316.00998 477.6438l0 -12.15625l4.09375 0q0.953125 0 1.765625 0.140625q0.8125 0.125 1.40625 0.484375q0.59375 0.359375 0.9375 0.9375q0.34375 0.578125 0.34375 1.453125q0 0.40625 -0.125 0.828125q-0.109375 0.40625 -0.375 0.765625q-0.265625 0.34375 -0.65625 0.625q-0.390625 0.28125 -0.9375 0.40625l0 0.078125q1.3125 0.25 1.984375 0.9375q0.671875 0.6875 0.671875 1.921875q0 0.921875 -0.359375 1.59375q-0.34375 0.671875 -0.984375 1.125q-0.640625 0.4375 -1.484375 0.65625q-0.84375 0.203125 -1.828125 0.203125l-4.453125 0zm2.75 -7.28125l1.203125 0q1.015625 0 1.453125 -0.390625q0.453125 -0.390625 0.453125 -1.09375q0 -0.671875 -0.453125 -0.953125q-0.453125 -0.296875 -1.421875 -0.296875l-1.234375 0l0 2.734375zm0 5.140625l1.46875 0q2.203125 0 2.203125 -1.640625q0 -0.8125 -0.53125 -1.15625q-0.53125 -0.359375 -1.671875 -0.359375l-1.46875 0l0 3.15625z" fill-rule="nonzero"/><path fill="#000000" fill-opacity="0.0" d="m245.20065 281.74158l56.125977 -0.09448242" fill-rule="evenodd"/><path stroke="#434343" stroke-width="1.0" stroke-linejoin="round" stroke-linecap="butt" stroke-dasharray="4.0,3.0" d="m245.20064 281.74158l50.12599 -0.0843811" fill-rule="evenodd"/><path fill="#434343" stroke="#434343" stroke-width="1.0" stroke-linecap="butt" d="m295.3294 283.30893l4.535309 -1.6593933l-4.540863 -1.6440735z" fill-rule="evenodd"/><path fill="#000000" fill-opacity="0.0" d="m245.75446 470.71796l55.590546 0" fill-rule="evenodd"/><path stroke="#434343" stroke-width="1.0" stroke-linejoin="round" stroke-linecap="butt" stroke-dasharray="4.0,3.0" d="m245.75446 470.71796l49.590546 0" fill-rule="evenodd"/><path fill="#434343" stroke="#434343" stroke-width="1.0" stroke-linecap="butt" d="m295.345 472.3697l4.538086 -1.6517334l-4.538086 -1.6517334z" fill-rule="evenodd"/><path fill="#000000" fill-opacity="0.0" d="m207.95918 244.0093l0 245.6693l37.795273 0l0 -245.6693z" fill-rule="evenodd"/><path fill="#000000" fill-opacity="0.0" d="m226.85683 244.0093l0 241.82677" fill-rule="evenodd"/><path stroke="#000000" stroke-width="1.0" stroke-linejoin="round" stroke-linecap="butt" d="m226.85681 244.0093l0 235.8268" fill-rule="evenodd"/><path fill="#000000" stroke="#000000" stroke-width="1.0" stroke-linecap="butt" d="m225.20508 479.8361l1.6517334 4.538086l1.6517334 -4.538086z" fill-rule="evenodd"/><path fill="#ffcb21" d="m245.20065 281.74158l-18.897644 -18.897644l-18.897629 18.897644l18.897629 18.897644z" fill-rule="evenodd"/><path fill="#ffffff" d="m222.08113 288.66156l0 -12.15625l4.09375 0q0.953125 0 1.765625 0.140625q0.8125 0.125 1.40625 0.484375q0.59375 0.359375 0.9375 0.9375q0.34375 0.578125 0.34375 1.453125q0 0.40625 -0.125 0.828125q-0.109375 0.40625 -0.375 0.765625q-0.265625 0.34375 -0.65625 0.625q-0.390625 0.28125 -0.9375 0.40625l0 0.078125q1.3125 0.25 1.984375 0.9375q0.671875 0.6875 0.671875 1.921875q0 0.921875 -0.359375 1.59375q-0.34375 0.671875 -0.984375 1.125q-0.640625 0.4375 -1.484375 0.65625q-0.84375 0.203125 -1.828125 0.203125l-4.453125 0zm2.75 -7.28125l1.203125 0q1.015625 0 1.453125 -0.390625q0.453125 -0.390625 0.453125 -1.09375q0 -0.671875 -0.453125 -0.953125q-0.453125 -0.296875 -1.421875 -0.296875l-1.234375 0l0 2.734375zm0 5.140625l1.46875 0q2.203125 0 2.203125 -1.640625q0 -0.8125 -0.53125 -1.15625q-0.53125 -0.359375 -1.671875 -0.359375l-1.46875 0l0 3.15625z" fill-rule="nonzero"/><path fill="#ffcb21" d="m245.75446 470.71796l-18.897629 -18.897644l-18.897644 18.897644l18.897644 18.897644z" fill-rule="evenodd"/><path fill="#ffffff" d="m222.63495 477.63794l0 -12.15625l4.09375 0q0.953125 0 1.765625 0.140625q0.8125 0.125 1.40625 0.484375q0.59375 0.359375 0.9375 0.9375q0.34375 0.578125 0.34375 1.453125q0 0.40625 -0.125 0.828125q-0.109375 0.40625 -0.375 0.765625q-0.265625 0.34375 -0.65625 0.625q-0.390625 0.28125 -0.9375 0.40625l0 0.078125q1.3125 0.25 1.984375 0.9375q0.671875 0.6875 0.671875 1.921875q0 0.921875 -0.359375 1.59375q-0.34375 0.671875 -0.984375 1.125q-0.640625 0.4375 -1.484375 0.65625q-0.84375 0.203125 -1.828125 0.203125l-4.453125 0zm2.75 -7.28125l1.203125 0q1.015625 0 1.453125 -0.390625q0.453125 -0.390625 0.453125 -1.09375q0 -0.671875 -0.453125 -0.953125q-0.453125 -0.296875 -1.421875 -0.296875l-1.234375 0l0 2.734375zm0 5.140625l1.46875 0q2.203125 0 2.203125 -1.640625q0 -0.8125 -0.53125 -1.15625q-0.53125 -0.359375 -1.671875 -0.359375l-1.46875 0l0 3.15625z" fill-rule="nonzero"/><path fill="#000000" fill-opacity="0.0" d="m140.71092 35.99366l56.12599 0l0 37.79528l-56.12599 0z" fill-rule="evenodd"/><path fill="#000000" d="m160.86497 60.35366l-1.703125 -7.78125l1.3125 0l0.9375 4.515625q0.109375 0.5625 0.1875 1.078125q0.078125 0.5 0.15625 1.0625l0.0625 0q0.078125 -0.5625 0.203125 -1.078125q0.125 -0.515625 0.25 -1.0625l0.953125 -4.03125l1.3125 0l0.9375 4.03125q0.125 0.5625 0.25 1.078125q0.140625 0.5 0.21875 1.0625l0.0625 0q0.109375 -0.5625 0.171875 -1.0625q0.078125 -0.515625 0.1875 -1.078125l0.921875 -4.515625l1.21875 0l-1.65625 7.78125l-1.703125 0l-0.890625 -3.71875q-0.1875 -0.8125 -0.390625 -2.296875l-0.0625 0q-0.1875 1.484375 -0.375 2.296875l-0.875 3.71875l-1.6875 0zm9.318771 0l0 -1.09375l2.953125 0l0 -7.515625l-2.296875 0l0 -0.84375q0.921875 -0.125 1.53125 -0.296875q0.609375 -0.1875 1.09375 -0.453125l0.984375 0l0 9.109375l2.671875 0l0 1.09375l-6.9375 0zm9.412521 -1.8125l0.625 -0.90625q0.609375 0.4375 1.328125 0.765625q0.734375 0.328125 1.640625 0.328125q0.96875 0 1.453125 -0.390625q0.484375 -0.40625 0.484375 -1.015625q0 -0.484375 -0.375 -0.8125q-0.375 -0.328125 -0.9375 -0.578125q-0.546875 -0.265625 -1.21875 -0.5q-0.65625 -0.25 -1.21875 -0.578125q-0.5625 -0.328125 -0.9375 -0.78125q-0.375 -0.453125 -0.375 -1.15625q0 -1.015625 0.703125 -1.65625q0.71875 -0.640625 1.890625 -0.765625l0 -2.109375l0.953125 0l0 2.09375q0.875 0.078125 1.46875 0.421875q0.59375 0.328125 1.078125 0.796875l-0.703125 0.765625q-0.28125 -0.203125 -0.53125 -0.375q-0.234375 -0.171875 -0.515625 -0.28125q-0.265625 -0.125 -0.59375 -0.1875q-0.3125 -0.0625 -0.71875 -0.0625q-0.8125 0 -1.28125 0.359375q-0.46875 0.359375 -0.46875 0.96875q0 0.4375 0.375 0.734375q0.375 0.28125 0.9375 0.53125q0.5625 0.234375 1.21875 0.484375q0.65625 0.234375 1.21875 0.578125q0.578125 0.328125 0.953125 0.8125q0.375 0.46875 0.375 1.203125q0 0.515625 -0.203125 0.953125q-0.1875 0.4375 -0.5625 0.765625q-0.375 0.328125 -0.90625 0.546875q-0.515625 0.21875 -1.140625 0.28125l0 2.34375l-0.953125 0l0 -2.328125q-0.90625 -0.078125 -1.703125 -0.421875q-0.796875 -0.359375 -1.359375 -0.828125z" fill-rule="nonzero"/><path fill="#000000" fill-opacity="0.0" d="m196.29007 35.820435l48.7874 0l0 37.795273l-48.7874 0z" fill-rule="evenodd"/><path fill="#000000" d="m209.10553 60.180435l-1.703125 -7.78125l1.3125 0l0.9375 4.515625q0.109375 0.5625 0.1875 1.078125q0.078125 0.5 0.15625 1.0625l0.0625 0q0.078125 -0.5625 0.203125 -1.078125q0.125 -0.515625 0.25 -1.0625l0.953125 -4.03125l1.3125 0l0.9375 4.03125q0.125 0.5625 0.25 1.078125q0.140625 0.5 0.21875 1.0625l0.0625 0q0.109375 -0.5625 0.171875 -1.0625q0.078125 -0.515625 0.1875 -1.078125l0.921875 -4.515625l1.21875 0l-1.65625 7.78125l-1.703125 0l-0.890625 -3.71875q-0.1875 -0.8125 -0.390625 -2.296875l-0.0625 0q-0.1875 1.484375 -0.375 2.296875l-0.875 3.71875l-1.6875 0zm8.943771 0l0 -0.78125q1.296875 -1.15625 2.296875 -2.078125q1.0 -0.9375 1.671875 -1.703125q0.6875 -0.78125 1.03125 -1.453125q0.359375 -0.671875 0.359375 -1.3125q0 -0.875 -0.546875 -1.4375q-0.546875 -0.5625 -1.6875 -0.5625q-0.71875 0 -1.328125 0.359375q-0.609375 0.359375 -1.109375 0.875l-0.75 -0.75q0.6875 -0.703125 1.46875 -1.125q0.796875 -0.4375 1.890625 -0.4375q0.765625 0 1.375 0.21875q0.625 0.21875 1.046875 0.609375q0.4375 0.390625 0.671875 0.953125q0.234375 0.5625 0.234375 1.234375q0 0.71875 -0.34375 1.453125q-0.34375 0.71875 -0.96875 1.5q-0.625 0.78125 -1.5 1.625q-0.859375 0.828125 -1.890625 1.765625q0.46875 -0.03125 0.953125 -0.0625q0.484375 -0.03125 0.9375 -0.03125l3.375 0l0 1.140625l-7.1875 0zm9.787521 -1.8125l0.625 -0.90625q0.609375 0.4375 1.328125 0.765625q0.734375 0.328125 1.640625 0.328125q0.96875 0 1.453125 -0.390625q0.484375 -0.40625 0.484375 -1.015625q0 -0.484375 -0.375 -0.8125q-0.375 -0.328125 -0.9375 -0.578125q-0.546875 -0.265625 -1.21875 -0.5q-0.65625 -0.25 -1.21875 -0.578125q-0.5625 -0.328125 -0.9375 -0.78125q-0.375 -0.453125 -0.375 -1.15625q0 -1.015625 0.703125 -1.65625q0.71875 -0.640625 1.890625 -0.765625l0 -2.109375l0.953125 0l0 2.09375q0.875 0.078125 1.46875 0.421875q0.59375 0.328125 1.078125 0.796875l-0.703125 0.765625q-0.28125 -0.203125 -0.53125 -0.375q-0.234375 -0.171875 -0.515625 -0.28125q-0.265625 -0.125 -0.59375 -0.1875q-0.3125 -0.0625 -0.71875 -0.0625q-0.8125 0 -1.28125 0.359375q-0.46875 0.359375 -0.46875 0.96875q0 0.4375 0.375 0.734375q0.375 0.28125 0.9375 0.53125q0.5625 0.234375 1.21875 0.484375q0.65625 0.234375 1.21875 0.578125q0.578125 0.328125 0.953125 0.8125q0.375 0.46875 0.375 1.203125q0 0.515625 -0.203125 0.953125q-0.1875 0.4375 -0.5625 0.765625q-0.375 0.328125 -0.90625 0.546875q-0.515625 0.21875 -1.140625 0.28125l0 2.34375l-0.953125 0l0 -2.328125q-0.90625 -0.078125 -1.703125 -0.421875q-0.796875 -0.359375 -1.359375 -0.828125z" fill-rule="nonzero"/><path fill="#000000" fill-opacity="0.0" d="m103.51562 0l169.98425 0l0 37.795277l-169.98425 0z" fill-rule="evenodd"/><path fill="#000000" d="m124.496666 27.138748q-1.25 0 -2.4375 -0.40625q-1.1875 -0.40625 -2.09375 -1.0l1.1875 -1.71875q0.84375 0.53125 1.78125 0.8125q0.9375 0.28125 1.9375 0.28125q0.765625 0 1.125 -0.21875q0.359375 -0.21875 0.359375 -0.5625q0 -0.1875 -0.109375 -0.328125q-0.109375 -0.15625 -0.359375 -0.28125q-0.25 -0.125 -0.703125 -0.234375q-0.4375 -0.109375 -1.109375 -0.25q-1.890625 -0.421875 -2.71875 -1.109375q-0.8125 -0.703125 -0.8125 -1.78125q0 -0.640625 0.296875 -1.171875q0.3125 -0.546875 0.859375 -0.921875q0.546875 -0.375 1.328125 -0.59375q0.78125 -0.21875 1.78125 -0.21875q1.25 0 2.265625 0.40625q1.0156174 0.40625 1.7343674 0.875l-1.2343674 1.640625q-0.703125 -0.4375 -1.46875 -0.65625q-0.765625 -0.21875 -1.546875 -0.21875q-0.65625 0 -0.96875 0.203125q-0.3125 0.203125 -0.3125 0.515625q0 0.390625 0.484375 0.5625q0.484375 0.171875 1.65625 0.421875q1.0625 0.25 1.765625 0.53125q0.71875 0.28125 1.1249924 0.640625q0.40625 0.34375 0.578125 0.796875q0.171875 0.4375 0.171875 1.0q0 0.640625 -0.296875 1.1875q-0.296875 0.53125 -0.8749924 0.9375q-0.5625 0.390625 -1.421875 0.625q-0.84375 0.234375 -1.96875 0.234375zm7.2562485 -0.21875l-1.5 -9.25l2.640625 0l0.578125 4.28125q0.09375 0.703125 0.140625 1.375q0.0625 0.671875 0.15625 1.375l0.0625 0q0.09375 -0.703125 0.1875 -1.390625q0.09375 -0.703125 0.234375 -1.359375l0.59375 -3.046875l1.984375 0l0.59375 3.046875q0.15625 0.703125 0.265625 1.375q0.109375 0.671875 0.203125 1.375l0.078125 0q0.09375 -0.703125 0.140625 -1.375q0.046875 -0.671875 0.125 -1.375l0.515625 -4.28125l2.546875 0l-1.421875 9.25l-3.234375 0l-0.5 -3.0q-0.09375 -0.59375 -0.171875 -1.265625q-0.0625 -0.671875 -0.15625 -1.484375l-0.078125 0q-0.0625 0.59375 -0.140625 1.234375q-0.0625 0.640625 -0.171875 1.515625l-0.5 3.0l-3.171875 0zm14.803131 0l0 -7.109375l-3.71875 0l0 -2.140625l6.453125 0l0 9.25l-2.734375 0zm1.40625 -10.703125q-0.796875 0 -1.3125 -0.453125q-0.515625 -0.453125 -0.515625 -1.21875q0 -0.765625 0.515625 -1.234375q0.515625 -0.46875 1.3125 -0.46875q0.8125 0 1.3125 0.46875q0.515625 0.46875 0.515625 1.234375q0 0.765625 -0.515625 1.21875q-0.5 0.453125 -1.3125 0.453125zm11.834381 10.921875q-1.09375 0 -1.859375 -0.296875q-0.765625 -0.296875 -1.25 -0.828125q-0.46875 -0.53125 -0.671875 -1.265625q-0.203125 -0.75 -0.203125 -1.671875l0 -3.265625l-2.328125 0l0 -2.03125l2.453125 -0.109375l0.359375 -2.84375l2.25 0l0 2.84375l3.921875 0l0 2.140625l-3.921875 0l0 3.25q0 1.0625 0.46875 1.5q0.46875 0.4375 1.5 0.4375q0.515625 0 0.953125 -0.09375q0.4375 -0.09375 0.875 -0.234375l0.484375 1.96875q-0.625 0.1875 -1.359375 0.34375q-0.734375 0.15625 -1.671875 0.15625zm10.365631 0q-1.109375 0 -2.046875 -0.3125q-0.921875 -0.328125 -1.625 -0.9375q-0.703125 -0.625 -1.09375 -1.53125q-0.390625 -0.90625 -0.390625 -2.0625q0 -1.15625 0.4375 -2.0625q0.4375 -0.90625 1.171875 -1.515625q0.734375 -0.625 1.703125 -0.953125q0.984375 -0.328125 2.046875 -0.328125q1.09375 0 1.984375 0.359375q0.890625 0.359375 1.484375 0.890625l-1.265625 1.703125q-1.03125 -0.71875 -2.0625 -0.71875q-1.1875 0 -1.9375 0.703125q-0.75 0.703125 -0.75 1.921875q0 1.203125 0.71875 1.921875q0.71875 0.703125 1.875 0.703125q0.734375 0 1.328125 -0.25q0.609375 -0.265625 1.125 -0.625l1.09375 1.734375q-0.84375 0.71875 -1.859375 1.046875q-1.0 0.3125 -1.9375 0.3125zm6.131256 -0.21875l0 -13.078125l2.734375 0l0 3.203125l-0.140625 1.78125l0.0625 0q0.515625 -0.546875 1.25 -0.96875q0.75 -0.421875 1.828125 -0.421875q1.5625 0 2.28125 1.015625q0.71875 1.0 0.71875 2.765625l0 5.703125l-2.75 0l0 -5.359375q0 -0.921875 -0.296875 -1.34375q-0.296875 -0.4375 -1.0625 -0.4375q-0.5625 0 -0.984375 0.25q-0.40625 0.234375 -0.90625 0.71875l0 6.171875l-2.734375 0zm10.928131 0l0 -12.15625l2.875 0l1.203125 4.296875l0.40625 1.6875l0.078125 0l0.40625 -1.6875l1.1875 -4.296875l2.875 0l0 12.15625l-2.3125 0l0 -3.765625q0 -0.5 0.03125 -1.265625q0.046875 -0.765625 0.09375 -1.5625q0.0625 -0.8125 0.125 -1.5625q0.0625 -0.765625 0.109375 -1.25l-0.0625 0l-0.9375 3.25l-0.921875 2.921875l-1.34375 0l-0.953125 -2.921875l-0.875 -3.25l-0.0625 0q0.0625 0.484375 0.109375 1.25q0.0625 0.75 0.109375 1.5625q0.0625 0.796875 0.09375 1.5625q0.046875 0.765625 0.046875 1.265625l0 3.765625l-2.28125 0zm14.287506 0.21875q-0.703125 0 -1.265625 -0.21875q-0.5625 -0.203125 -0.953125 -0.578125q-0.390625 -0.390625 -0.609375 -0.890625q-0.203125 -0.515625 -0.203125 -1.109375q0 -0.78125 0.328125 -1.359375q0.34375 -0.59375 1.078125 -1.0q0.734375 -0.421875 1.890625 -0.671875q1.15625 -0.25 2.796875 -0.34375q-0.078125 -0.625 -0.546875 -0.984375q-0.46875 -0.359375 -1.421875 -0.359375q-0.671875 0 -1.359375 0.234375q-0.671875 0.234375 -1.46875 0.625l-0.96875 -1.796875q0.953125 -0.53125 2.046875 -0.890625q1.09375 -0.359375 2.28125 -0.359375q1.953125 0 3.0625 1.03125q1.125 1.03125 1.125 3.15625l0 5.296875l-2.234375 0l-0.21875 -1.046875l-0.0625 0q-0.71875 0.546875 -1.5625 0.90625q-0.828125 0.359375 -1.734375 0.359375zm0.890625 -2.125q0.609375 0 1.140625 -0.25q0.546875 -0.25 1.03125 -0.625l0 -1.53125q-1.015625 0.0625 -1.6875 0.1875q-0.671875 0.125 -1.078125 0.328125q-0.390625 0.203125 -0.546875 0.46875q-0.15625 0.25 -0.15625 0.546875q0 0.453125 0.34375 0.671875q0.34375 0.203125 0.953125 0.203125zm7.475006 5.34375l0 -12.6875l2.234375 0l0.203125 0.921875l0.0625 0q0.5625 -0.5 1.28125 -0.828125q0.734375 -0.328125 1.484375 -0.328125q0.859375 0 1.546875 0.34375q0.6875 0.328125 1.171875 0.953125q0.484375 0.609375 0.734375 1.484375q0.25 0.859375 0.25 1.921875q0 1.203125 -0.34375 2.125q-0.328125 0.921875 -0.890625 1.5625q-0.546875 0.640625 -1.265625 0.984375q-0.71875 0.328125 -1.5 0.328125q-1.28125 0 -2.28125 -1.0l-0.078125 0l0.125 1.515625l0 2.703125l-2.734375 0zm4.328125 -5.453125q0.78125 0 1.296875 -0.640625q0.53125 -0.640625 0.53125 -2.078125q0 -2.5 -1.703125 -2.5q-0.875 0 -1.71875 0.859375l0 3.75q0.40625 0.328125 0.8125 0.46875q0.421875 0.140625 0.78125 0.140625zm12.834381 5.359375q-1.828125 -1.625 -2.890625 -3.75q-1.046875 -2.125 -1.046875 -4.78125q0 -2.640625 1.046875 -4.765625q1.0625 -2.140625 2.890625 -3.765625l1.53125 1.21875q-1.65625 1.625 -2.421875 3.375q-0.75 1.734375 -0.75 3.9375q0 1.109375 0.1875 2.09375q0.1875 0.96875 0.5625 1.875q0.390625 0.890625 0.984375 1.71875q0.59375 0.828125 1.4375 1.625l-1.53125 1.21875zm7.850006 -3.34375l0 -7.109375l-2.4375 0l0 -2.03125l2.4375 -0.109375l0 -0.25q0 -0.796875 0.234375 -1.484375q0.25 -0.6875 0.75 -1.203125q0.515625 -0.515625 1.296875 -0.8125q0.78125 -0.296875 1.859375 -0.296875q0.8125 0 1.5 0.15625q0.703125 0.140625 1.296875 0.34375l-0.515625 2.015625q-0.90625 -0.359375 -1.9375 -0.359375q-0.890625 0 -1.3125 0.390625q-0.421875 0.390625 -0.421875 1.234375l0 0.265625l3.1875 0l0 2.140625l-3.1875 0l0 7.109375l-2.75 0zm8.568756 0l0 -9.25l2.234375 0l0.203125 1.234375l0.078125 0q0.59375 -0.609375 1.359375 -1.03125q0.78125 -0.4375 1.828125 -0.4375q1.578125 0 2.296875 1.015625q0.734375 1.0 0.734375 2.765625l0 5.703125l-2.75 0l0 -5.359375q0 -0.921875 -0.296875 -1.34375q-0.296875 -0.4375 -1.0625 -0.4375q-0.5625 0 -0.984375 0.25q-0.40625 0.234375 -0.90625 0.71875l0 6.171875l-2.734375 0zm13.725021 3.34375l-1.5312653 -1.21875q0.84376526 -0.796875 1.4375153 -1.625q0.609375 -0.828125 0.984375 -1.71875q0.390625 -0.90625 0.5625 -1.875q0.1875 -0.984375 0.1875 -2.09375q0 -2.203125 -0.75 -3.9375q-0.75 -1.75 -2.4218903 -3.375l1.5312653 -1.21875q1.828125 1.625 2.875 3.765625q1.0625 2.125 1.0625 4.765625q0 2.65625 -1.0625 4.78125q-1.046875 2.125 -2.875 3.75z" fill-rule="nonzero"/></g></svg>