<svg version="1.1" viewBox="0.0 0.0 323.90551181102364 84.28346456692914" fill="none" stroke="none" stroke-linecap="square" stroke-miterlimit="10" xmlns:xlink="http://www.w3.org/1999/xlink" xmlns="http://www.w3.org/2000/svg"><clipPath id="p.0"><path d="m0 0l323.90552 0l0 84.28346l-323.90552 0l0 -84.28346z" clip-rule="nonzero"/></clipPath><g clip-path="url(#p.0)"><path fill="#000000" fill-opacity="0.0" d="m0 0l323.90552 0l0 84.28346l-323.90552 0z" fill-rule="evenodd"/><path fill="#000000" fill-opacity="0.0" d="m0 0.55380577l55.086613 0l0 37.795277l-55.086613 0z" fill-rule="evenodd"/><path fill="#000000" d="m14.630344 27.473804l-1.96875 -9.0625l1.515625 0l1.09375 5.25q0.125 0.65625 0.21875 1.265625q0.09375 0.59375 0.1875 1.234375l0.078125 0q0.09375 -0.640625 0.234375 -1.25q0.140625 -0.609375 0.28125 -1.25l1.125 -4.6875l1.53125 0l1.078125 4.6875q0.15625 0.65625 0.3125 1.265625q0.15625 0.59375 0.25 1.234375l0.078125 0q0.109375 -0.640625 0.1875 -1.234375q0.078125 -0.609375 0.21875 -1.265625l1.078125 -5.25l1.421875 0l-1.9375 9.0625l-1.984375 0l-1.046875 -4.328125q-0.21875 -0.953125 -0.4375 -2.6875l-0.078125 0q-0.234375 1.734375 -0.453125 2.6875l-1.0 4.328125l-1.984375 0zm10.646881 -2.109375l0.734375 -1.0625q0.703125 0.5 1.546875 0.890625q0.859375 0.375 1.921875 0.375q1.125 0 1.6875 -0.453125q0.578125 -0.453125 0.578125 -1.171875q0 -0.578125 -0.453125 -0.953125q-0.4375 -0.390625 -1.09375 -0.6875q-0.640625 -0.296875 -1.421875 -0.578125q-0.765625 -0.28125 -1.421875 -0.65625q-0.65625 -0.390625 -1.09375 -0.921875q-0.4375 -0.53125 -0.4375 -1.34375q0 -1.171875 0.828125 -1.921875q0.828125 -0.75 2.203125 -0.90625095l0 -2.453125l1.109375 0l0 2.4375q1.03125 0.09375095 1.71875 0.48437595q0.6875 0.390625 1.25 0.9375l-0.828125 0.890625q-0.3125 -0.234375 -0.609375 -0.421875q-0.28125 -0.203125 -0.59375 -0.34375q-0.3125 -0.140625 -0.6875 -0.21875q-0.375 -0.078125 -0.84375 -0.078125q-0.953125 0 -1.5 0.421875q-0.546875 0.421875 -0.546875 1.125q0 0.53125 0.4375 0.875q0.4375 0.328125 1.09375 0.609375q0.671875 0.28125 1.421875 0.5625q0.765625 0.265625 1.421875 0.671875q0.671875 0.390625 1.109375 0.953125q0.4375 0.546875 0.4375 1.40625q0 0.59375 -0.234375 1.109375q-0.234375 0.515625 -0.671875 0.90625q-0.4375 0.375 -1.046875 0.625q-0.59375 0.25 -1.328125 0.328125l0 2.71875l-1.109375 0l0 -2.703125q-1.046875 -0.09375 -1.984375 -0.5q-0.9375 -0.40625 -1.59375 -0.953125zm15.209381 -4.671875q-0.625 0 -1.078125 -0.421875q-0.4375 -0.4375 -0.4375 -1.140625q0 -0.703125 0.4375 -1.140625q0.453125 -0.4375 1.078125 -0.4375q0.640625 0 1.078125 0.4375q0.4375 0.4375 0.4375 1.140625q0 0.703125 -0.4375 1.140625q-0.4375 0.421875 -1.078125 0.421875zm0 7.0q-0.625 0 -1.078125 -0.421875q-0.4375 -0.4375 -0.4375 -1.140625q0 -0.703125 0.4375 -1.140625q0.453125 -0.4375 1.078125 -0.4375q0.640625 0 1.078125 0.4375q0.4375 0.4375 0.4375 1.140625q0 0.703125 -0.4375 1.140625q-0.4375 0.421875 -1.078125 0.421875z" fill-rule="nonzero"/><path fill="#000000" fill-opacity="0.0" d="m77.96911 0.55380577l245.66928 0l0 37.795277l-245.66928 0z" fill-rule="evenodd"/><path fill="#000000" fill-opacity="0.0" d="m77.96911 19.451443l242.04724 0" fill-rule="evenodd"/><path stroke="#000000" stroke-width="1.0" stroke-linejoin="round" stroke-linecap="butt" d="m77.96911 19.451443l236.04724 0" fill-rule="evenodd"/><path fill="#000000" stroke="#000000" stroke-width="1.0" stroke-linecap="butt" d="m314.01636 21.103176l4.538086 -1.6517334l-4.538086 -1.6517315z" fill-rule="evenodd"/><path fill="#cccccc" d="m96.80376 18.897638l18.897636 -18.897638l18.897636 18.897638l-18.897636 18.897638z" fill-rule="evenodd"/><path fill="#cccccc" d="m285.78012 19.451443l18.897644 -18.897636l18.897644 18.897636l-18.897644 18.89764z" fill-rule="evenodd"/><path fill="#434343" d="m320.01636 0.55380577l3.7795105 0l0 37.795277l-3.7795105 0z" fill-rule="evenodd"/><path fill="#000000" fill-opacity="0.0" d="m1.0488793 46.348816l55.086617 0l0 37.79528l-55.086617 0z" fill-rule="evenodd"/><path fill="#000000" d="m17.522974 73.268814l0 -7.109375l-2.4375 0l0 -2.03125l2.4375 -0.109375l0 -0.25q0 -0.796875 0.234375 -1.484375q0.25 -0.6875 0.75 -1.203125q0.515625 -0.515625 1.296875 -0.8125q0.78125 -0.296875 1.859375 -0.296875q0.8125 0 1.5 0.15625q0.703125 0.140625 1.296875 0.34375l-0.515625 2.015625q-0.90625 -0.359375 -1.9375 -0.359375q-0.890625 0 -1.3125 0.390625q-0.421875 0.390625 -0.421875 1.234375l0 0.265625l3.1875 0l0 2.140625l-3.1875 0l0 7.109375l-2.75 0zm8.568756 0l0 -9.25l2.234375 0l0.203125 1.234375l0.078125 0q0.59375 -0.609375 1.359375 -1.03125q0.78125 -0.4375 1.828125 -0.4375q1.5781231 0 2.296873 1.015625q0.734375 1.0 0.734375 2.765625l0 5.703125l-2.75 0l0 -5.359375q0 -0.921875 -0.2968731 -1.34375q-0.296875 -0.4375 -1.0625 -0.4375q-0.5625 0 -0.984375 0.25q-0.40625 0.234375 -0.90625 0.71875l0 6.171875l-2.734375 0zm15.443754 -5.78125q-0.96875 0 -1.5625 -0.625q-0.59375 -0.625 -0.59375 -1.546875q0 -0.46875 0.15625 -0.875q0.15625 -0.40625 0.4375 -0.703125q0.28125 -0.296875 0.671875 -0.453125q0.40625 -0.171875 0.890625 -0.171875q0.484375 0 0.890625 0.171875q0.40625 0.15625 0.671875 0.453125q0.28125 0.296875 0.4375 0.703125q0.171875 0.40625 0.171875 0.875q0 0.921875 -0.609375 1.546875q-0.59375 0.625 -1.5625 0.625zm0 6.0q-0.96875 0 -1.5625 -0.625q-0.59375 -0.625 -0.59375 -1.546875q0 -0.46875 0.15625 -0.875q0.15625 -0.40625 0.4375 -0.703125q0.28125 -0.296875 0.671875 -0.453125q0.40625 -0.171875 0.890625 -0.171875q0.484375 0 0.890625 0.171875q0.40625 0.15625 0.671875 0.453125q0.28125 0.296875 0.4375 0.703125q0.171875 0.40625 0.171875 0.875q0 0.921875 -0.609375 1.546875q-0.59375 0.625 -1.5625 0.625z" fill-rule="nonzero"/><path fill="#000000" fill-opacity="0.0" d="m56.12541 46.348495l239.27559 0l0 37.79528l-239.27559 0z" fill-rule="evenodd"/><path fill="#000000" d="m73.20354 76.54974q-1.9375 -1.515625 -3.078125 -3.640625q-1.125 -2.125 -1.125 -4.828125q0 -2.703125 1.125 -4.828125q1.140625 -2.125 3.078125 -3.640625l0.84375 0.78125q-1.890625 1.59375 -2.78125 3.453125q-0.875 1.859375 -0.875 4.234375q0 2.375 0.875 4.25q0.890625 1.859375 2.78125 3.4375l-0.84375 0.78125zm4.850006 -3.28125l0 -9.0625l1.265625 0l0.140625 1.546875l0.0625 0q0.71875 -0.765625 1.53125 -1.265625q0.828125 -0.515625 1.890625 -0.515625q1.625 0 2.375 0.9375q0.75 0.921875 0.75 2.71875l0 5.640625l-1.515625 0l0 -5.421875q0 -1.296875 -0.5 -1.921875q-0.484375 -0.625 -1.59375 -0.625q-0.40625 0 -0.765625 0.109375q-0.34375 0.09375 -0.6875 0.3125q-0.328125 0.203125 -0.6875 0.515625q-0.34375 0.296875 -0.734375 0.703125l0 6.328125l-1.53125 0zm12.568756 3.28125l-0.828125 -0.78125q1.875 -1.578125 2.765625 -3.4375q0.890625 -1.875 0.890625 -4.25q0 -2.375 -0.890625 -4.234375q-0.890625 -1.859375 -2.765625 -3.453125l0.828125 -0.78125q1.953125 1.515625 3.078125 3.640625q1.125 2.125 1.125 4.828125q0 2.703125 -1.125 4.828125q-1.125 2.125 -3.078125 3.640625zm20.856262 -10.859375l0 -1.15625l8.03125 0l0 1.15625l-8.03125 0zm0 4.0l0 -1.15625l8.03125 0l0 1.15625l-8.03125 0zm11.615631 2.6875l0 -1.484375l5.609375 -3.78125l0 -0.078125l-5.609375 -3.78125l0 -1.484375l6.953125 4.734375l0 1.15625l-6.953125 4.71875zm22.512512 0.890625l-1.96875 -9.0625l1.515625 0l1.09375 5.25q0.125 0.65625 0.21875 1.265625q0.09375 0.59375 0.1875 1.234375l0.078125 0q0.09375 -0.640625 0.234375 -1.25q0.140625 -0.609375 0.28125 -1.25l1.125 -4.6875l1.53125 0l1.078125 4.6875q0.15625 0.65625 0.3125 1.265625q0.15625 0.59375 0.25 1.234375l0.078125 0q0.109375 -0.640625 0.1875 -1.234375q0.078125 -0.609375 0.21875 -1.265625l1.078125 -5.25l1.421875 0l-1.9375 9.0625l-1.984375 0l-1.046875 -4.328125q-0.21875 -0.953125 -0.4375 -2.6875l-0.078125 0q-0.234375 1.734375 -0.453125 2.6875l-1.0 4.328125l-1.984375 0zm14.850006 0.21875q-1.34375 0 -2.484375 -0.40625q-1.125 -0.421875 -1.96875 -1.0l0.703125 -1.015625q0.78125 0.5625 1.71875 0.90625q0.953125 0.328125 2.21875 0.328125q1.15625 0 1.71875 -0.421875q0.578125 -0.421875 0.578125 -1.0q0 -0.265625 -0.09375 -0.484375q-0.09375 -0.21875 -0.40625 -0.421875q-0.296875 -0.203125 -0.859375 -0.390625q-0.5625 -0.1875 -1.484375 -0.375q-1.765625 -0.375 -2.65625 -1.0q-0.875 -0.625 -0.875 -1.65625q0 -0.53125 0.234375 -1.0q0.25 -0.484375 0.71875 -0.828125q0.484375 -0.359375 1.171875 -0.546875q0.703125 -0.203125 1.640625 -0.203125q1.046875 0 2.015625 0.359375q0.96875 0.34375 1.640625 0.796875l-0.75 1.0q-0.640625 -0.4375 -1.40625 -0.6875q-0.75 -0.265625 -1.640625 -0.265625q-1.15625 0 -1.625 0.390625q-0.453125 0.390625 -0.453125 0.90625q0 0.609375 0.609375 0.921875q0.625 0.296875 2.015625 0.59375q1.140625 0.25 1.859375 0.515625q0.734375 0.265625 1.15625 0.609375q0.421875 0.328125 0.578125 0.75q0.15625 0.40625 0.15625 0.921875q0 0.5625 -0.265625 1.046875q-0.25 0.484375 -0.765625 0.859375q-0.515625 0.375 -1.28125 0.578125q-0.75 0.21875 -1.71875 0.21875zm6.990631 -2.328125l0.734375 -1.0625q0.703125 0.5 1.546875 0.890625q0.859375 0.375 1.921875 0.375q1.125 0 1.6875 -0.453125q0.578125 -0.453125 0.578125 -1.171875q0 -0.578125 -0.453125 -0.953125q-0.4375 -0.390625 -1.09375 -0.6875q-0.640625 -0.296875 -1.421875 -0.578125q-0.765625 -0.28125 -1.421875 -0.65625q-0.65625 -0.390625 -1.09375 -0.921875q-0.4375 -0.53125 -0.4375 -1.34375q0 -1.171875 0.828125 -1.921875q0.828125 -0.75 2.203125 -0.90625l0 -2.453125l1.109375 0l0 2.4375q1.03125 0.09375 1.71875 0.484375q0.6875 0.390625 1.25 0.9375l-0.828125 0.890625q-0.3125 -0.234375 -0.609375 -0.421875q-0.28125 -0.203125 -0.59375 -0.34375q-0.3125 -0.140625 -0.6875 -0.21875q-0.375 -0.078125 -0.84375 -0.078125q-0.953125 0 -1.5 0.421875q-0.546875 0.421875 -0.546875 1.125q0 0.53125 0.4375 0.875q0.4375 0.328125 1.09375 0.609375q0.671875 0.28125 1.421875 0.5625q0.765625 0.265625 1.421875 0.671875q0.671875 0.390625 1.109375 0.953125q0.4375 0.546875 0.4375 1.40625q0 0.59375 -0.234375 1.109375q-0.234375 0.515625 -0.671875 0.90625q-0.4375 0.375 -1.046875 0.625q-0.59375 0.25 -1.328125 0.328125l0 2.71875l-1.109375 0l0 -2.703125q-1.046875 -0.09375 -1.984375 -0.5q-0.9375 -0.40625 -1.59375 -0.953125z" fill-rule="nonzero"/></g></svg>