<svg version="1.1" viewBox="0.0 0.0 302.74015748031496 320.503937007874" fill="none" stroke="none" stroke-linecap="square" stroke-miterlimit="10" xmlns:xlink="http://www.w3.org/1999/xlink" xmlns="http://www.w3.org/2000/svg"><clipPath id="p.0"><path d="m0 0l302.74014 0l0 320.50394l-302.74014 0l0 -320.50394z" clip-rule="nonzero"/></clipPath><g clip-path="url(#p.0)"><path fill="#000000" fill-opacity="0.0" d="m0 0l302.74014 0l0 320.50394l-302.74014 0z" fill-rule="evenodd"/><path fill="#000000" fill-opacity="0.0" d="m94.48819 225.64626l18.897636 0l0 18.897644l-18.897636 0z" fill-rule="evenodd"/><path stroke="#f3f3f3" stroke-width="1.0" stroke-linejoin="round" stroke-linecap="butt" d="m94.48819 225.64626l18.897636 0l0 18.897644l-18.897636 0z" fill-rule="evenodd"/><path fill="#000000" fill-opacity="0.0" d="m113.385826 225.64626l18.897636 0l0 18.897644l-18.897636 0z" fill-rule="evenodd"/><path stroke="#f3f3f3" stroke-width="1.0" stroke-linejoin="round" stroke-linecap="butt" d="m113.385826 225.64626l18.897636 0l0 18.897644l-18.897636 0z" fill-rule="evenodd"/><path fill="#000000" fill-opacity="0.0" d="m189.21785 18.89008l18.897629 0l0 18.897636l-18.897629 0z" fill-rule="evenodd"/><path stroke="#f3f3f3" stroke-width="1.0" stroke-linejoin="round" stroke-linecap="butt" d="m189.21785 18.89008l18.897629 0l0 18.897636l-18.897629 0z" fill-rule="evenodd"/><path fill="#000000" fill-opacity="0.0" d="m189.21785 37.78016l18.897629 0l0 18.897636l-18.897629 0z" fill-rule="evenodd"/><path stroke="#f3f3f3" stroke-width="1.0" stroke-linejoin="round" stroke-linecap="butt" d="m189.21785 37.78016l18.897629 0l0 18.897636l-18.897629 0z" fill-rule="evenodd"/><path fill="#000000" fill-opacity="0.0" d="m170.3202 0l18.897644 0l0 18.897638l-18.897644 0z" fill-rule="evenodd"/><path stroke="#f3f3f3" stroke-width="1.0" stroke-linejoin="round" stroke-linecap="butt" d="m170.3202 0l18.897644 0l0 18.897638l-18.897644 0z" fill-rule="evenodd"/><path fill="#000000" fill-opacity="0.0" d="m170.3202 18.89008l18.897644 0l0 18.897636l-18.897644 0z" fill-rule="evenodd"/><path stroke="#f3f3f3" stroke-width="1.0" stroke-linejoin="round" stroke-linecap="butt" d="m170.3202 18.89008l18.897644 0l0 18.897636l-18.897644 0z" fill-rule="evenodd"/><path fill="#000000" fill-opacity="0.0" d="m170.3202 37.78016l18.897644 0l0 18.897636l-18.897644 0z" fill-rule="evenodd"/><path stroke="#f3f3f3" stroke-width="1.0" stroke-linejoin="round" stroke-linecap="butt" d="m170.3202 37.78016l18.897644 0l0 18.897636l-18.897644 0z" fill-rule="evenodd"/><path fill="#000000" fill-opacity="0.0" d="m170.3202 56.670235l18.897644 0l0 18.897636l-18.897644 0z" fill-rule="evenodd"/><path stroke="#f3f3f3" stroke-width="1.0" stroke-linejoin="round" stroke-linecap="butt" d="m170.3202 56.670235l18.897644 0l0 18.897636l-18.897644 0z" fill-rule="evenodd"/><path fill="#000000" fill-opacity="0.0" d="m189.21785 0l18.897629 0l0 18.897638l-18.897629 0z" fill-rule="evenodd"/><path stroke="#f3f3f3" stroke-width="1.0" stroke-linejoin="round" stroke-linecap="butt" d="m189.21785 0l18.897629 0l0 18.897638l-18.897629 0z" fill-rule="evenodd"/><path fill="#000000" fill-opacity="0.0" d="m189.21785 56.670235l18.897629 0l0 18.897636l-18.897629 0z" fill-rule="evenodd"/><path stroke="#f3f3f3" stroke-width="1.0" stroke-linejoin="round" stroke-linecap="butt" d="m189.21785 56.670235l18.897629 0l0 18.897636l-18.897629 0z" fill-rule="evenodd"/><path fill="#000000" fill-opacity="0.0" d="m208.11548 0l18.897644 0l0 18.897638l-18.897644 0z" fill-rule="evenodd"/><path stroke="#f3f3f3" stroke-width="1.0" stroke-linejoin="round" stroke-linecap="butt" d="m208.11548 0l18.897644 0l0 18.897638l-18.897644 0z" fill-rule="evenodd"/><path fill="#000000" fill-opacity="0.0" d="m208.11548 18.89008l18.897644 0l0 18.897636l-18.897644 0z" fill-rule="evenodd"/><path stroke="#f3f3f3" stroke-width="1.0" stroke-linejoin="round" stroke-linecap="butt" d="m208.11548 18.89008l18.897644 0l0 18.897636l-18.897644 0z" fill-rule="evenodd"/><path fill="#000000" fill-opacity="0.0" d="m208.11548 37.78016l18.897644 0l0 18.897636l-18.897644 0z" fill-rule="evenodd"/><path stroke="#f3f3f3" stroke-width="1.0" stroke-linejoin="round" stroke-linecap="butt" d="m208.11548 37.78016l18.897644 0l0 18.897636l-18.897644 0z" fill-rule="evenodd"/><path fill="#000000" fill-opacity="0.0" d="m208.11548 56.670235l18.897644 0l0 18.897636l-18.897644 0z" fill-rule="evenodd"/><path stroke="#f3f3f3" stroke-width="1.0" stroke-linejoin="round" stroke-linecap="butt" d="m208.11548 56.670235l18.897644 0l0 18.897636l-18.897644 0z" fill-rule="evenodd"/><path fill="#000000" fill-opacity="0.0" d="m227.01312 0l18.897644 0l0 18.897638l-18.897644 0z" fill-rule="evenodd"/><path stroke="#f3f3f3" stroke-width="1.0" stroke-linejoin="round" stroke-linecap="butt" d="m227.01312 0l18.897644 0l0 18.897638l-18.897644 0z" fill-rule="evenodd"/><path fill="#000000" fill-opacity="0.0" d="m227.01312 18.89008l18.897644 0l0 18.897636l-18.897644 0z" fill-rule="evenodd"/><path stroke="#f3f3f3" stroke-width="1.0" stroke-linejoin="round" stroke-linecap="butt" d="m227.01312 18.89008l18.897644 0l0 18.897636l-18.897644 0z" fill-rule="evenodd"/><path fill="#000000" fill-opacity="0.0" d="m227.01312 37.78016l18.897644 0l0 18.897636l-18.897644 0z" fill-rule="evenodd"/><path stroke="#f3f3f3" stroke-width="1.0" stroke-linejoin="round" stroke-linecap="butt" d="m227.01312 37.78016l18.897644 0l0 18.897636l-18.897644 0z" fill-rule="evenodd"/><path fill="#000000" fill-opacity="0.0" d="m227.01312 56.670235l18.897644 0l0 18.897636l-18.897644 0z" fill-rule="evenodd"/><path stroke="#f3f3f3" stroke-width="1.0" stroke-linejoin="round" stroke-linecap="butt" d="m227.01312 56.670235l18.897644 0l0 18.897636l-18.897644 0z" fill-rule="evenodd"/><path fill="#000000" fill-opacity="0.0" d="m245.91077 0l18.897644 0l0 18.897638l-18.897644 0z" fill-rule="evenodd"/><path stroke="#f3f3f3" stroke-width="1.0" stroke-linejoin="round" stroke-linecap="butt" d="m245.91077 0l18.897644 0l0 18.897638l-18.897644 0z" fill-rule="evenodd"/><path fill="#000000" fill-opacity="0.0" d="m245.91077 18.89008l18.897644 0l0 18.897636l-18.897644 0z" fill-rule="evenodd"/><path stroke="#f3f3f3" stroke-width="1.0" stroke-linejoin="round" stroke-linecap="butt" d="m245.91077 18.89008l18.897644 0l0 18.897636l-18.897644 0z" fill-rule="evenodd"/><path fill="#000000" fill-opacity="0.0" d="m245.91077 37.78016l18.897644 0l0 18.897636l-18.897644 0z" fill-rule="evenodd"/><path stroke="#f3f3f3" stroke-width="1.0" stroke-linejoin="round" stroke-linecap="butt" d="m245.91077 37.78016l18.897644 0l0 18.897636l-18.897644 0z" fill-rule="evenodd"/><path fill="#000000" fill-opacity="0.0" d="m245.91077 56.670235l18.897644 0l0 18.897636l-18.897644 0z" fill-rule="evenodd"/><path stroke="#f3f3f3" stroke-width="1.0" stroke-linejoin="round" stroke-linecap="butt" d="m245.91077 56.670235l18.897644 0l0 18.897636l-18.897644 0z" fill-rule="evenodd"/><path fill="#000000" fill-opacity="0.0" d="m264.8084 0l18.897614 0l0 18.897638l-18.897614 0z" fill-rule="evenodd"/><path stroke="#f3f3f3" stroke-width="1.0" stroke-linejoin="round" stroke-linecap="butt" d="m264.8084 0l18.897614 0l0 18.897638l-18.897614 0z" fill-rule="evenodd"/><path fill="#000000" fill-opacity="0.0" d="m264.8084 18.89008l18.897614 0l0 18.897636l-18.897614 0z" fill-rule="evenodd"/><path stroke="#f3f3f3" stroke-width="1.0" stroke-linejoin="round" stroke-linecap="butt" d="m264.8084 18.89008l18.897614 0l0 18.897636l-18.897614 0z" fill-rule="evenodd"/><path fill="#000000" fill-opacity="0.0" d="m264.8084 37.78016l18.897614 0l0 18.897636l-18.897614 0z" fill-rule="evenodd"/><path stroke="#f3f3f3" stroke-width="1.0" stroke-linejoin="round" stroke-linecap="butt" d="m264.8084 37.78016l18.897614 0l0 18.897636l-18.897614 0z" fill-rule="evenodd"/><path fill="#000000" fill-opacity="0.0" d="m264.8084 56.670235l18.897614 0l0 18.897636l-18.897614 0z" fill-rule="evenodd"/><path stroke="#f3f3f3" stroke-width="1.0" stroke-linejoin="round" stroke-linecap="butt" d="m264.8084 56.670235l18.897614 0l0 18.897636l-18.897614 0z" fill-rule="evenodd"/><path fill="#000000" fill-opacity="0.0" d="m283.70602 0l18.897644 0l0 18.897638l-18.897644 0z" fill-rule="evenodd"/><path stroke="#f3f3f3" stroke-width="1.0" stroke-linejoin="round" stroke-linecap="butt" d="m283.70602 0l18.897644 0l0 18.897638l-18.897644 0z" fill-rule="evenodd"/><path fill="#000000" fill-opacity="0.0" d="m283.70602 18.89008l18.897644 0l0 18.897636l-18.897644 0z" fill-rule="evenodd"/><path stroke="#f3f3f3" stroke-width="1.0" stroke-linejoin="round" stroke-linecap="butt" d="m283.70602 18.89008l18.897644 0l0 18.897636l-18.897644 0z" fill-rule="evenodd"/><path fill="#000000" fill-opacity="0.0" d="m283.70602 37.78016l18.897644 0l0 18.897636l-18.897644 0z" fill-rule="evenodd"/><path stroke="#f3f3f3" stroke-width="1.0" stroke-linejoin="round" stroke-linecap="butt" d="m283.70602 37.78016l18.897644 0l0 18.897636l-18.897644 0z" fill-rule="evenodd"/><path fill="#000000" fill-opacity="0.0" d="m170.3202 75.749214l18.897644 0l0 18.897636l-18.897644 0z" fill-rule="evenodd"/><path stroke="#f3f3f3" stroke-width="1.0" stroke-linejoin="round" stroke-linecap="butt" d="m170.3202 75.749214l18.897644 0l0 18.897636l-18.897644 0z" fill-rule="evenodd"/><path fill="#000000" fill-opacity="0.0" d="m189.21785 75.749214l18.897629 0l0 18.897636l-18.897629 0z" fill-rule="evenodd"/><path stroke="#f3f3f3" stroke-width="1.0" stroke-linejoin="round" stroke-linecap="butt" d="m189.21785 75.749214l18.897629 0l0 18.897636l-18.897629 0z" fill-rule="evenodd"/><path fill="#000000" fill-opacity="0.0" d="m208.11548 75.749214l18.897644 0l0 18.897636l-18.897644 0z" fill-rule="evenodd"/><path stroke="#f3f3f3" stroke-width="1.0" stroke-linejoin="round" stroke-linecap="butt" d="m208.11548 75.749214l18.897644 0l0 18.897636l-18.897644 0z" fill-rule="evenodd"/><path fill="#000000" fill-opacity="0.0" d="m227.01312 75.749214l18.897644 0l0 18.897636l-18.897644 0z" fill-rule="evenodd"/><path stroke="#f3f3f3" stroke-width="1.0" stroke-linejoin="round" stroke-linecap="butt" d="m227.01312 75.749214l18.897644 0l0 18.897636l-18.897644 0z" fill-rule="evenodd"/><path fill="#000000" fill-opacity="0.0" d="m245.91077 75.749214l18.897644 0l0 18.897636l-18.897644 0z" fill-rule="evenodd"/><path stroke="#f3f3f3" stroke-width="1.0" stroke-linejoin="round" stroke-linecap="butt" d="m245.91077 75.749214l18.897644 0l0 18.897636l-18.897644 0z" fill-rule="evenodd"/><path fill="#000000" fill-opacity="0.0" d="m264.8084 75.749214l18.897614 0l0 18.897636l-18.897614 0z" fill-rule="evenodd"/><path stroke="#f3f3f3" stroke-width="1.0" stroke-linejoin="round" stroke-linecap="butt" d="m264.8084 75.749214l18.897614 0l0 18.897636l-18.897614 0z" fill-rule="evenodd"/><path fill="#000000" fill-opacity="0.0" d="m283.9613 56.670235l18.897644 0l0 18.897636l-18.897644 0z" fill-rule="evenodd"/><path stroke="#f3f3f3" stroke-width="1.0" stroke-linejoin="round" stroke-linecap="butt" d="m283.9613 56.670235l18.897644 0l0 18.897636l-18.897644 0z" fill-rule="evenodd"/><path fill="#000000" fill-opacity="0.0" d="m283.9613 75.749214l18.897644 0l0 18.897636l-18.897644 0z" fill-rule="evenodd"/><path stroke="#f3f3f3" stroke-width="1.0" stroke-linejoin="round" stroke-linecap="butt" d="m283.9613 75.749214l18.897644 0l0 18.897636l-18.897644 0z" fill-rule="evenodd"/><path fill="#000000" fill-opacity="0.0" d="m189.21785 112.903l18.897629 0l0 18.897644l-18.897629 0z" fill-rule="evenodd"/><path stroke="#f3f3f3" stroke-width="1.0" stroke-linejoin="round" stroke-linecap="butt" d="m189.21785 112.903l18.897629 0l0 18.897644l-18.897629 0z" fill-rule="evenodd"/><path fill="#000000" fill-opacity="0.0" d="m189.21785 131.79308l18.897629 0l0 18.897644l-18.897629 0z" fill-rule="evenodd"/><path stroke="#f3f3f3" stroke-width="1.0" stroke-linejoin="round" stroke-linecap="butt" d="m189.21785 131.79308l18.897629 0l0 18.897644l-18.897629 0z" fill-rule="evenodd"/><path fill="#000000" fill-opacity="0.0" d="m170.3202 94.012924l18.897644 0l0 18.897636l-18.897644 0z" fill-rule="evenodd"/><path stroke="#f3f3f3" stroke-width="1.0" stroke-linejoin="round" stroke-linecap="butt" d="m170.3202 94.012924l18.897644 0l0 18.897636l-18.897644 0z" fill-rule="evenodd"/><path fill="#000000" fill-opacity="0.0" d="m170.3202 112.903l18.897644 0l0 18.897644l-18.897644 0z" fill-rule="evenodd"/><path stroke="#f3f3f3" stroke-width="1.0" stroke-linejoin="round" stroke-linecap="butt" d="m170.3202 112.903l18.897644 0l0 18.897644l-18.897644 0z" fill-rule="evenodd"/><path fill="#000000" fill-opacity="0.0" d="m170.3202 131.79308l18.897644 0l0 18.897644l-18.897644 0z" fill-rule="evenodd"/><path stroke="#f3f3f3" stroke-width="1.0" stroke-linejoin="round" stroke-linecap="butt" d="m170.3202 131.79308l18.897644 0l0 18.897644l-18.897644 0z" fill-rule="evenodd"/><path fill="#000000" fill-opacity="0.0" d="m170.3202 150.68315l18.897644 0l0 18.897644l-18.897644 0z" fill-rule="evenodd"/><path stroke="#f3f3f3" stroke-width="1.0" stroke-linejoin="round" stroke-linecap="butt" d="m170.3202 150.68315l18.897644 0l0 18.897644l-18.897644 0z" fill-rule="evenodd"/><path fill="#000000" fill-opacity="0.0" d="m189.21785 94.012924l18.897629 0l0 18.897636l-18.897629 0z" fill-rule="evenodd"/><path stroke="#f3f3f3" stroke-width="1.0" stroke-linejoin="round" stroke-linecap="butt" d="m189.21785 94.012924l18.897629 0l0 18.897636l-18.897629 0z" fill-rule="evenodd"/><path fill="#000000" fill-opacity="0.0" d="m189.21785 150.68315l18.897629 0l0 18.897644l-18.897629 0z" fill-rule="evenodd"/><path stroke="#f3f3f3" stroke-width="1.0" stroke-linejoin="round" stroke-linecap="butt" d="m189.21785 150.68315l18.897629 0l0 18.897644l-18.897629 0z" fill-rule="evenodd"/><path fill="#000000" fill-opacity="0.0" d="m208.11548 94.012924l18.897644 0l0 18.897636l-18.897644 0z" fill-rule="evenodd"/><path stroke="#f3f3f3" stroke-width="1.0" stroke-linejoin="round" stroke-linecap="butt" d="m208.11548 94.012924l18.897644 0l0 18.897636l-18.897644 0z" fill-rule="evenodd"/><path fill="#000000" fill-opacity="0.0" d="m208.11548 112.903l18.897644 0l0 18.897644l-18.897644 0z" fill-rule="evenodd"/><path stroke="#f3f3f3" stroke-width="1.0" stroke-linejoin="round" stroke-linecap="butt" d="m208.11548 112.903l18.897644 0l0 18.897644l-18.897644 0z" fill-rule="evenodd"/><path fill="#000000" fill-opacity="0.0" d="m208.11548 131.79308l18.897644 0l0 18.897644l-18.897644 0z" fill-rule="evenodd"/><path stroke="#f3f3f3" stroke-width="1.0" stroke-linejoin="round" stroke-linecap="butt" d="m208.11548 131.79308l18.897644 0l0 18.897644l-18.897644 0z" fill-rule="evenodd"/><path fill="#000000" fill-opacity="0.0" d="m208.11548 150.68315l18.897644 0l0 18.897644l-18.897644 0z" fill-rule="evenodd"/><path stroke="#f3f3f3" stroke-width="1.0" stroke-linejoin="round" stroke-linecap="butt" d="m208.11548 150.68315l18.897644 0l0 18.897644l-18.897644 0z" fill-rule="evenodd"/><path fill="#000000" fill-opacity="0.0" d="m227.01312 94.012924l18.897644 0l0 18.897636l-18.897644 0z" fill-rule="evenodd"/><path stroke="#f3f3f3" stroke-width="1.0" stroke-linejoin="round" stroke-linecap="butt" d="m227.01312 94.012924l18.897644 0l0 18.897636l-18.897644 0z" fill-rule="evenodd"/><path fill="#000000" fill-opacity="0.0" d="m227.01312 112.903l18.897644 0l0 18.897644l-18.897644 0z" fill-rule="evenodd"/><path stroke="#f3f3f3" stroke-width="1.0" stroke-linejoin="round" stroke-linecap="butt" d="m227.01312 112.903l18.897644 0l0 18.897644l-18.897644 0z" fill-rule="evenodd"/><path fill="#000000" fill-opacity="0.0" d="m227.01312 131.79308l18.897644 0l0 18.897644l-18.897644 0z" fill-rule="evenodd"/><path stroke="#f3f3f3" stroke-width="1.0" stroke-linejoin="round" stroke-linecap="butt" d="m227.01312 131.79308l18.897644 0l0 18.897644l-18.897644 0z" fill-rule="evenodd"/><path fill="#000000" fill-opacity="0.0" d="m227.01312 150.68315l18.897644 0l0 18.897644l-18.897644 0z" fill-rule="evenodd"/><path stroke="#f3f3f3" stroke-width="1.0" stroke-linejoin="round" stroke-linecap="butt" d="m227.01312 150.68315l18.897644 0l0 18.897644l-18.897644 0z" fill-rule="evenodd"/><path fill="#000000" fill-opacity="0.0" d="m245.91077 94.012924l18.897644 0l0 18.897636l-18.897644 0z" fill-rule="evenodd"/><path stroke="#f3f3f3" stroke-width="1.0" stroke-linejoin="round" stroke-linecap="butt" d="m245.91077 94.012924l18.897644 0l0 18.897636l-18.897644 0z" fill-rule="evenodd"/><path fill="#000000" fill-opacity="0.0" d="m245.91077 112.903l18.897644 0l0 18.897644l-18.897644 0z" fill-rule="evenodd"/><path stroke="#f3f3f3" stroke-width="1.0" stroke-linejoin="round" stroke-linecap="butt" d="m245.91077 112.903l18.897644 0l0 18.897644l-18.897644 0z" fill-rule="evenodd"/><path fill="#000000" fill-opacity="0.0" d="m245.91077 131.79308l18.897644 0l0 18.897644l-18.897644 0z" fill-rule="evenodd"/><path stroke="#f3f3f3" stroke-width="1.0" stroke-linejoin="round" stroke-linecap="butt" d="m245.91077 131.79308l18.897644 0l0 18.897644l-18.897644 0z" fill-rule="evenodd"/><path fill="#000000" fill-opacity="0.0" d="m245.91077 150.68315l18.897644 0l0 18.897644l-18.897644 0z" fill-rule="evenodd"/><path stroke="#f3f3f3" stroke-width="1.0" stroke-linejoin="round" stroke-linecap="butt" d="m245.91077 150.68315l18.897644 0l0 18.897644l-18.897644 0z" fill-rule="evenodd"/><path fill="#000000" fill-opacity="0.0" d="m264.8084 94.012924l18.897614 0l0 18.897636l-18.897614 0z" fill-rule="evenodd"/><path stroke="#f3f3f3" stroke-width="1.0" stroke-linejoin="round" stroke-linecap="butt" d="m264.8084 94.012924l18.897614 0l0 18.897636l-18.897614 0z" fill-rule="evenodd"/><path fill="#000000" fill-opacity="0.0" d="m264.8084 112.903l18.897614 0l0 18.897644l-18.897614 0z" fill-rule="evenodd"/><path stroke="#f3f3f3" stroke-width="1.0" stroke-linejoin="round" stroke-linecap="butt" d="m264.8084 112.903l18.897614 0l0 18.897644l-18.897614 0z" fill-rule="evenodd"/><path fill="#000000" fill-opacity="0.0" d="m264.8084 131.79308l18.897614 0l0 18.897644l-18.897614 0z" fill-rule="evenodd"/><path stroke="#f3f3f3" stroke-width="1.0" stroke-linejoin="round" stroke-linecap="butt" d="m264.8084 131.79308l18.897614 0l0 18.897644l-18.897614 0z" fill-rule="evenodd"/><path fill="#000000" fill-opacity="0.0" d="m264.8084 150.68315l18.897614 0l0 18.897644l-18.897614 0z" fill-rule="evenodd"/><path stroke="#f3f3f3" stroke-width="1.0" stroke-linejoin="round" stroke-linecap="butt" d="m264.8084 150.68315l18.897614 0l0 18.897644l-18.897614 0z" fill-rule="evenodd"/><path fill="#000000" fill-opacity="0.0" d="m283.70602 94.012924l18.897644 0l0 18.897636l-18.897644 0z" fill-rule="evenodd"/><path stroke="#f3f3f3" stroke-width="1.0" stroke-linejoin="round" stroke-linecap="butt" d="m283.70602 94.012924l18.897644 0l0 18.897636l-18.897644 0z" fill-rule="evenodd"/><path fill="#000000" fill-opacity="0.0" d="m283.70602 112.903l18.897644 0l0 18.897644l-18.897644 0z" fill-rule="evenodd"/><path stroke="#f3f3f3" stroke-width="1.0" stroke-linejoin="round" stroke-linecap="butt" d="m283.70602 112.903l18.897644 0l0 18.897644l-18.897644 0z" fill-rule="evenodd"/><path fill="#000000" fill-opacity="0.0" d="m283.70602 131.79308l18.897644 0l0 18.897644l-18.897644 0z" fill-rule="evenodd"/><path stroke="#f3f3f3" stroke-width="1.0" stroke-linejoin="round" stroke-linecap="butt" d="m283.70602 131.79308l18.897644 0l0 18.897644l-18.897644 0z" fill-rule="evenodd"/><path fill="#000000" fill-opacity="0.0" d="m170.3202 169.76213l18.897644 0l0 18.897644l-18.897644 0z" fill-rule="evenodd"/><path stroke="#f3f3f3" stroke-width="1.0" stroke-linejoin="round" stroke-linecap="butt" d="m170.3202 169.76213l18.897644 0l0 18.897644l-18.897644 0z" fill-rule="evenodd"/><path fill="#000000" fill-opacity="0.0" d="m189.21785 169.76213l18.897629 0l0 18.897644l-18.897629 0z" fill-rule="evenodd"/><path stroke="#f3f3f3" stroke-width="1.0" stroke-linejoin="round" stroke-linecap="butt" d="m189.21785 169.76213l18.897629 0l0 18.897644l-18.897629 0z" fill-rule="evenodd"/><path fill="#000000" fill-opacity="0.0" d="m208.11548 169.76213l18.897644 0l0 18.897644l-18.897644 0z" fill-rule="evenodd"/><path stroke="#f3f3f3" stroke-width="1.0" stroke-linejoin="round" stroke-linecap="butt" d="m208.11548 169.76213l18.897644 0l0 18.897644l-18.897644 0z" fill-rule="evenodd"/><path fill="#000000" fill-opacity="0.0" d="m227.01312 169.76213l18.897644 0l0 18.897644l-18.897644 0z" fill-rule="evenodd"/><path stroke="#f3f3f3" stroke-width="1.0" stroke-linejoin="round" stroke-linecap="butt" d="m227.01312 169.76213l18.897644 0l0 18.897644l-18.897644 0z" fill-rule="evenodd"/><path fill="#000000" fill-opacity="0.0" d="m245.91077 169.76213l18.897644 0l0 18.897644l-18.897644 0z" fill-rule="evenodd"/><path stroke="#f3f3f3" stroke-width="1.0" stroke-linejoin="round" stroke-linecap="butt" d="m245.91077 169.76213l18.897644 0l0 18.897644l-18.897644 0z" fill-rule="evenodd"/><path fill="#000000" fill-opacity="0.0" d="m264.8084 169.76213l18.897614 0l0 18.897644l-18.897614 0z" fill-rule="evenodd"/><path stroke="#f3f3f3" stroke-width="1.0" stroke-linejoin="round" stroke-linecap="butt" d="m264.8084 169.76213l18.897614 0l0 18.897644l-18.897614 0z" fill-rule="evenodd"/><path fill="#000000" fill-opacity="0.0" d="m283.9613 150.68315l18.897644 0l0 18.897644l-18.897644 0z" fill-rule="evenodd"/><path stroke="#f3f3f3" stroke-width="1.0" stroke-linejoin="round" stroke-linecap="butt" d="m283.9613 150.68315l18.897644 0l0 18.897644l-18.897644 0z" fill-rule="evenodd"/><path fill="#000000" fill-opacity="0.0" d="m283.9613 169.76213l18.897644 0l0 18.897644l-18.897644 0z" fill-rule="evenodd"/><path stroke="#f3f3f3" stroke-width="1.0" stroke-linejoin="round" stroke-linecap="butt" d="m283.9613 169.76213l18.897644 0l0 18.897644l-18.897644 0z" fill-rule="evenodd"/><path fill="#000000" fill-opacity="0.0" d="m188.97638 206.75618l18.897629 0l0 18.897644l-18.897629 0z" fill-rule="evenodd"/><path stroke="#f3f3f3" stroke-width="1.0" stroke-linejoin="round" stroke-linecap="butt" d="m188.97638 206.75618l18.897629 0l0 18.897644l-18.897629 0z" fill-rule="evenodd"/><path fill="#000000" fill-opacity="0.0" d="m188.97638 225.64626l18.897629 0l0 18.897644l-18.897629 0z" fill-rule="evenodd"/><path stroke="#f3f3f3" stroke-width="1.0" stroke-linejoin="round" stroke-linecap="butt" d="m188.97638 225.64626l18.897629 0l0 18.897644l-18.897629 0z" fill-rule="evenodd"/><path fill="#000000" fill-opacity="0.0" d="m170.07874 187.8661l18.897644 0l0 18.897644l-18.897644 0z" fill-rule="evenodd"/><path stroke="#f3f3f3" stroke-width="1.0" stroke-linejoin="round" stroke-linecap="butt" d="m170.07874 187.8661l18.897644 0l0 18.897644l-18.897644 0z" fill-rule="evenodd"/><path fill="#000000" fill-opacity="0.0" d="m170.07874 206.75618l18.897644 0l0 18.897644l-18.897644 0z" fill-rule="evenodd"/><path stroke="#f3f3f3" stroke-width="1.0" stroke-linejoin="round" stroke-linecap="butt" d="m170.07874 206.75618l18.897644 0l0 18.897644l-18.897644 0z" fill-rule="evenodd"/><path fill="#000000" fill-opacity="0.0" d="m170.07874 225.64626l18.897644 0l0 18.897644l-18.897644 0z" fill-rule="evenodd"/><path stroke="#f3f3f3" stroke-width="1.0" stroke-linejoin="round" stroke-linecap="butt" d="m170.07874 225.64626l18.897644 0l0 18.897644l-18.897644 0z" fill-rule="evenodd"/><path fill="#000000" fill-opacity="0.0" d="m188.97638 187.8661l18.897629 0l0 18.897644l-18.897629 0z" fill-rule="evenodd"/><path stroke="#f3f3f3" stroke-width="1.0" stroke-linejoin="round" stroke-linecap="butt" d="m188.97638 187.8661l18.897629 0l0 18.897644l-18.897629 0z" fill-rule="evenodd"/><path fill="#000000" fill-opacity="0.0" d="m207.87401 187.8661l18.897644 0l0 18.897644l-18.897644 0z" fill-rule="evenodd"/><path stroke="#f3f3f3" stroke-width="1.0" stroke-linejoin="round" stroke-linecap="butt" d="m207.87401 187.8661l18.897644 0l0 18.897644l-18.897644 0z" fill-rule="evenodd"/><path fill="#000000" fill-opacity="0.0" d="m207.87401 206.75618l18.897644 0l0 18.897644l-18.897644 0z" fill-rule="evenodd"/><path stroke="#f3f3f3" stroke-width="1.0" stroke-linejoin="round" stroke-linecap="butt" d="m207.87401 206.75618l18.897644 0l0 18.897644l-18.897644 0z" fill-rule="evenodd"/><path fill="#000000" fill-opacity="0.0" d="m207.87401 225.64626l18.897644 0l0 18.897644l-18.897644 0z" fill-rule="evenodd"/><path stroke="#f3f3f3" stroke-width="1.0" stroke-linejoin="round" stroke-linecap="butt" d="m207.87401 225.64626l18.897644 0l0 18.897644l-18.897644 0z" fill-rule="evenodd"/><path fill="#000000" fill-opacity="0.0" d="m226.77165 187.8661l18.897644 0l0 18.897644l-18.897644 0z" fill-rule="evenodd"/><path stroke="#f3f3f3" stroke-width="1.0" stroke-linejoin="round" stroke-linecap="butt" d="m226.77165 187.8661l18.897644 0l0 18.897644l-18.897644 0z" fill-rule="evenodd"/><path fill="#000000" fill-opacity="0.0" d="m226.77165 206.75618l18.897644 0l0 18.897644l-18.897644 0z" fill-rule="evenodd"/><path stroke="#f3f3f3" stroke-width="1.0" stroke-linejoin="round" stroke-linecap="butt" d="m226.77165 206.75618l18.897644 0l0 18.897644l-18.897644 0z" fill-rule="evenodd"/><path fill="#000000" fill-opacity="0.0" d="m226.77165 225.64626l18.897644 0l0 18.897644l-18.897644 0z" fill-rule="evenodd"/><path stroke="#f3f3f3" stroke-width="1.0" stroke-linejoin="round" stroke-linecap="butt" d="m226.77165 225.64626l18.897644 0l0 18.897644l-18.897644 0z" fill-rule="evenodd"/><path fill="#000000" fill-opacity="0.0" d="m245.6693 187.8661l18.897629 0l0 18.897644l-18.897629 0z" fill-rule="evenodd"/><path stroke="#f3f3f3" stroke-width="1.0" stroke-linejoin="round" stroke-linecap="butt" d="m245.6693 187.8661l18.897629 0l0 18.897644l-18.897629 0z" fill-rule="evenodd"/><path fill="#000000" fill-opacity="0.0" d="m245.6693 206.75618l18.897629 0l0 18.897644l-18.897629 0z" fill-rule="evenodd"/><path stroke="#f3f3f3" stroke-width="1.0" stroke-linejoin="round" stroke-linecap="butt" d="m245.6693 206.75618l18.897629 0l0 18.897644l-18.897629 0z" fill-rule="evenodd"/><path fill="#000000" fill-opacity="0.0" d="m245.6693 225.64626l18.897629 0l0 18.897644l-18.897629 0z" fill-rule="evenodd"/><path stroke="#f3f3f3" stroke-width="1.0" stroke-linejoin="round" stroke-linecap="butt" d="m245.6693 225.64626l18.897629 0l0 18.897644l-18.897629 0z" fill-rule="evenodd"/><path fill="#000000" fill-opacity="0.0" d="m264.56693 187.8661l18.897644 0l0 18.897644l-18.897644 0z" fill-rule="evenodd"/><path stroke="#f3f3f3" stroke-width="1.0" stroke-linejoin="round" stroke-linecap="butt" d="m264.56693 187.8661l18.897644 0l0 18.897644l-18.897644 0z" fill-rule="evenodd"/><path fill="#000000" fill-opacity="0.0" d="m264.56693 206.75618l18.897644 0l0 18.897644l-18.897644 0z" fill-rule="evenodd"/><path stroke="#f3f3f3" stroke-width="1.0" stroke-linejoin="round" stroke-linecap="butt" d="m264.56693 206.75618l18.897644 0l0 18.897644l-18.897644 0z" fill-rule="evenodd"/><path fill="#000000" fill-opacity="0.0" d="m264.56693 225.64626l18.897644 0l0 18.897644l-18.897644 0z" fill-rule="evenodd"/><path stroke="#f3f3f3" stroke-width="1.0" stroke-linejoin="round" stroke-linecap="butt" d="m264.56693 225.64626l18.897644 0l0 18.897644l-18.897644 0z" fill-rule="evenodd"/><path fill="#000000" fill-opacity="0.0" d="m283.46457 187.8661l18.897644 0l0 18.897644l-18.897644 0z" fill-rule="evenodd"/><path stroke="#f3f3f3" stroke-width="1.0" stroke-linejoin="round" stroke-linecap="butt" d="m283.46457 187.8661l18.897644 0l0 18.897644l-18.897644 0z" fill-rule="evenodd"/><path fill="#000000" fill-opacity="0.0" d="m283.46457 206.75618l18.897644 0l0 18.897644l-18.897644 0z" fill-rule="evenodd"/><path stroke="#f3f3f3" stroke-width="1.0" stroke-linejoin="round" stroke-linecap="butt" d="m283.46457 206.75618l18.897644 0l0 18.897644l-18.897644 0z" fill-rule="evenodd"/><path fill="#000000" fill-opacity="0.0" d="m283.46457 225.64626l18.897644 0l0 18.897644l-18.897644 0z" fill-rule="evenodd"/><path stroke="#f3f3f3" stroke-width="1.0" stroke-linejoin="round" stroke-linecap="butt" d="m283.46457 225.64626l18.897644 0l0 18.897644l-18.897644 0z" fill-rule="evenodd"/><path fill="#000000" fill-opacity="0.0" d="m19.139107 18.89008l18.89764 0l0 18.897636l-18.89764 0z" fill-rule="evenodd"/><path stroke="#f3f3f3" stroke-width="1.0" stroke-linejoin="round" stroke-linecap="butt" d="m19.139107 18.89008l18.89764 0l0 18.897636l-18.89764 0z" fill-rule="evenodd"/><path fill="#000000" fill-opacity="0.0" d="m19.139107 37.78016l18.89764 0l0 18.897636l-18.89764 0z" fill-rule="evenodd"/><path stroke="#f3f3f3" stroke-width="1.0" stroke-linejoin="round" stroke-linecap="butt" d="m19.139107 37.78016l18.89764 0l0 18.897636l-18.89764 0z" fill-rule="evenodd"/><path fill="#000000" fill-opacity="0.0" d="m0.24146982 0l18.897636 0l0 18.897638l-18.897636 0z" fill-rule="evenodd"/><path stroke="#f3f3f3" stroke-width="1.0" stroke-linejoin="round" stroke-linecap="butt" d="m0.24146982 0l18.897636 0l0 18.897638l-18.897636 0z" fill-rule="evenodd"/><path fill="#000000" fill-opacity="0.0" d="m0.24146982 18.89008l18.897636 0l0 18.897636l-18.897636 0z" fill-rule="evenodd"/><path stroke="#f3f3f3" stroke-width="1.0" stroke-linejoin="round" stroke-linecap="butt" d="m0.24146982 18.89008l18.897636 0l0 18.897636l-18.897636 0z" fill-rule="evenodd"/><path fill="#000000" fill-opacity="0.0" d="m0.24146982 37.78016l18.897636 0l0 18.897636l-18.897636 0z" fill-rule="evenodd"/><path stroke="#f3f3f3" stroke-width="1.0" stroke-linejoin="round" stroke-linecap="butt" d="m0.24146982 37.78016l18.897636 0l0 18.897636l-18.897636 0z" fill-rule="evenodd"/><path fill="#000000" fill-opacity="0.0" d="m0.24146982 56.670235l18.897636 0l0 18.897636l-18.897636 0z" fill-rule="evenodd"/><path stroke="#f3f3f3" stroke-width="1.0" stroke-linejoin="round" stroke-linecap="butt" d="m0.24146982 56.670235l18.897636 0l0 18.897636l-18.897636 0z" fill-rule="evenodd"/><path fill="#000000" fill-opacity="0.0" d="m19.139107 0l18.89764 0l0 18.897638l-18.89764 0z" fill-rule="evenodd"/><path stroke="#f3f3f3" stroke-width="1.0" stroke-linejoin="round" stroke-linecap="butt" d="m19.139107 0l18.89764 0l0 18.897638l-18.89764 0z" fill-rule="evenodd"/><path fill="#000000" fill-opacity="0.0" d="m19.139107 56.670235l18.89764 0l0 18.897636l-18.89764 0z" fill-rule="evenodd"/><path stroke="#f3f3f3" stroke-width="1.0" stroke-linejoin="round" stroke-linecap="butt" d="m19.139107 56.670235l18.89764 0l0 18.897636l-18.89764 0z" fill-rule="evenodd"/><path fill="#000000" fill-opacity="0.0" d="m38.036747 0l18.897636 0l0 18.897638l-18.897636 0z" fill-rule="evenodd"/><path stroke="#f3f3f3" stroke-width="1.0" stroke-linejoin="round" stroke-linecap="butt" d="m38.036747 0l18.897636 0l0 18.897638l-18.897636 0z" fill-rule="evenodd"/><path fill="#000000" fill-opacity="0.0" d="m38.036747 18.89008l18.897636 0l0 18.897636l-18.897636 0z" fill-rule="evenodd"/><path stroke="#f3f3f3" stroke-width="1.0" stroke-linejoin="round" stroke-linecap="butt" d="m38.036747 18.89008l18.897636 0l0 18.897636l-18.897636 0z" fill-rule="evenodd"/><path fill="#000000" fill-opacity="0.0" d="m38.036747 37.78016l18.897636 0l0 18.897636l-18.897636 0z" fill-rule="evenodd"/><path stroke="#f3f3f3" stroke-width="1.0" stroke-linejoin="round" stroke-linecap="butt" d="m38.036747 37.78016l18.897636 0l0 18.897636l-18.897636 0z" fill-rule="evenodd"/><path fill="#000000" fill-opacity="0.0" d="m38.036747 56.670235l18.897636 0l0 18.897636l-18.897636 0z" fill-rule="evenodd"/><path stroke="#f3f3f3" stroke-width="1.0" stroke-linejoin="round" stroke-linecap="butt" d="m38.036747 56.670235l18.897636 0l0 18.897636l-18.897636 0z" fill-rule="evenodd"/><path fill="#000000" fill-opacity="0.0" d="m56.934383 0l18.89764 0l0 18.897638l-18.89764 0z" fill-rule="evenodd"/><path stroke="#f3f3f3" stroke-width="1.0" stroke-linejoin="round" stroke-linecap="butt" d="m56.934383 0l18.89764 0l0 18.897638l-18.89764 0z" fill-rule="evenodd"/><path fill="#000000" fill-opacity="0.0" d="m56.934383 18.89008l18.89764 0l0 18.897636l-18.89764 0z" fill-rule="evenodd"/><path stroke="#f3f3f3" stroke-width="1.0" stroke-linejoin="round" stroke-linecap="butt" d="m56.934383 18.89008l18.89764 0l0 18.897636l-18.89764 0z" fill-rule="evenodd"/><path fill="#000000" fill-opacity="0.0" d="m56.934383 37.78016l18.89764 0l0 18.897636l-18.89764 0z" fill-rule="evenodd"/><path stroke="#f3f3f3" stroke-width="1.0" stroke-linejoin="round" stroke-linecap="butt" d="m56.934383 37.78016l18.89764 0l0 18.897636l-18.89764 0z" fill-rule="evenodd"/><path fill="#000000" fill-opacity="0.0" d="m56.934383 56.670235l18.89764 0l0 18.897636l-18.89764 0z" fill-rule="evenodd"/><path stroke="#f3f3f3" stroke-width="1.0" stroke-linejoin="round" stroke-linecap="butt" d="m56.934383 56.670235l18.89764 0l0 18.897636l-18.89764 0z" fill-rule="evenodd"/><path fill="#000000" fill-opacity="0.0" d="m75.83202 0l18.897636 0l0 18.897638l-18.897636 0z" fill-rule="evenodd"/><path stroke="#f3f3f3" stroke-width="1.0" stroke-linejoin="round" stroke-linecap="butt" d="m75.83202 0l18.897636 0l0 18.897638l-18.897636 0z" fill-rule="evenodd"/><path fill="#000000" fill-opacity="0.0" d="m75.83202 18.89008l18.897636 0l0 18.897636l-18.897636 0z" fill-rule="evenodd"/><path stroke="#f3f3f3" stroke-width="1.0" stroke-linejoin="round" stroke-linecap="butt" d="m75.83202 18.89008l18.897636 0l0 18.897636l-18.897636 0z" fill-rule="evenodd"/><path fill="#000000" fill-opacity="0.0" d="m75.83202 37.78016l18.897636 0l0 18.897636l-18.897636 0z" fill-rule="evenodd"/><path stroke="#f3f3f3" stroke-width="1.0" stroke-linejoin="round" stroke-linecap="butt" d="m75.83202 37.78016l18.897636 0l0 18.897636l-18.897636 0z" fill-rule="evenodd"/><path fill="#000000" fill-opacity="0.0" d="m75.83202 56.670235l18.897636 0l0 18.897636l-18.897636 0z" fill-rule="evenodd"/><path stroke="#f3f3f3" stroke-width="1.0" stroke-linejoin="round" stroke-linecap="butt" d="m75.83202 56.670235l18.897636 0l0 18.897636l-18.897636 0z" fill-rule="evenodd"/><path fill="#000000" fill-opacity="0.0" d="m94.72966 0l18.897636 0l0 18.897638l-18.897636 0z" fill-rule="evenodd"/><path stroke="#f3f3f3" stroke-width="1.0" stroke-linejoin="round" stroke-linecap="butt" d="m94.72966 0l18.897636 0l0 18.897638l-18.897636 0z" fill-rule="evenodd"/><path fill="#000000" fill-opacity="0.0" d="m94.72966 18.89008l18.897636 0l0 18.897636l-18.897636 0z" fill-rule="evenodd"/><path stroke="#f3f3f3" stroke-width="1.0" stroke-linejoin="round" stroke-linecap="butt" d="m94.72966 18.89008l18.897636 0l0 18.897636l-18.897636 0z" fill-rule="evenodd"/><path fill="#000000" fill-opacity="0.0" d="m94.72966 37.78016l18.897636 0l0 18.897636l-18.897636 0z" fill-rule="evenodd"/><path stroke="#f3f3f3" stroke-width="1.0" stroke-linejoin="round" stroke-linecap="butt" d="m94.72966 37.78016l18.897636 0l0 18.897636l-18.897636 0z" fill-rule="evenodd"/><path fill="#000000" fill-opacity="0.0" d="m94.72966 56.670235l18.897636 0l0 18.897636l-18.897636 0z" fill-rule="evenodd"/><path stroke="#f3f3f3" stroke-width="1.0" stroke-linejoin="round" stroke-linecap="butt" d="m94.72966 56.670235l18.897636 0l0 18.897636l-18.897636 0z" fill-rule="evenodd"/><path fill="#000000" fill-opacity="0.0" d="m113.6273 0l18.897636 0l0 18.897638l-18.897636 0z" fill-rule="evenodd"/><path stroke="#f3f3f3" stroke-width="1.0" stroke-linejoin="round" stroke-linecap="butt" d="m113.6273 0l18.897636 0l0 18.897638l-18.897636 0z" fill-rule="evenodd"/><path fill="#000000" fill-opacity="0.0" d="m113.6273 18.89008l18.897636 0l0 18.897636l-18.897636 0z" fill-rule="evenodd"/><path stroke="#f3f3f3" stroke-width="1.0" stroke-linejoin="round" stroke-linecap="butt" d="m113.6273 18.89008l18.897636 0l0 18.897636l-18.897636 0z" fill-rule="evenodd"/><path fill="#000000" fill-opacity="0.0" d="m113.6273 37.78016l18.897636 0l0 18.897636l-18.897636 0z" fill-rule="evenodd"/><path stroke="#f3f3f3" stroke-width="1.0" stroke-linejoin="round" stroke-linecap="butt" d="m113.6273 37.78016l18.897636 0l0 18.897636l-18.897636 0z" fill-rule="evenodd"/><path fill="#000000" fill-opacity="0.0" d="m0.24146982 75.749214l18.897636 0l0 18.897636l-18.897636 0z" fill-rule="evenodd"/><path stroke="#f3f3f3" stroke-width="1.0" stroke-linejoin="round" stroke-linecap="butt" d="m0.24146982 75.749214l18.897636 0l0 18.897636l-18.897636 0z" fill-rule="evenodd"/><path fill="#000000" fill-opacity="0.0" d="m19.139107 75.749214l18.89764 0l0 18.897636l-18.89764 0z" fill-rule="evenodd"/><path stroke="#f3f3f3" stroke-width="1.0" stroke-linejoin="round" stroke-linecap="butt" d="m19.139107 75.749214l18.89764 0l0 18.897636l-18.89764 0z" fill-rule="evenodd"/><path fill="#000000" fill-opacity="0.0" d="m38.036747 75.749214l18.897636 0l0 18.897636l-18.897636 0z" fill-rule="evenodd"/><path stroke="#f3f3f3" stroke-width="1.0" stroke-linejoin="round" stroke-linecap="butt" d="m38.036747 75.749214l18.897636 0l0 18.897636l-18.897636 0z" fill-rule="evenodd"/><path fill="#000000" fill-opacity="0.0" d="m56.934383 75.749214l18.89764 0l0 18.897636l-18.89764 0z" fill-rule="evenodd"/><path stroke="#f3f3f3" stroke-width="1.0" stroke-linejoin="round" stroke-linecap="butt" d="m56.934383 75.749214l18.89764 0l0 18.897636l-18.89764 0z" fill-rule="evenodd"/><path fill="#000000" fill-opacity="0.0" d="m75.83202 75.749214l18.897636 0l0 18.897636l-18.897636 0z" fill-rule="evenodd"/><path stroke="#f3f3f3" stroke-width="1.0" stroke-linejoin="round" stroke-linecap="butt" d="m75.83202 75.749214l18.897636 0l0 18.897636l-18.897636 0z" fill-rule="evenodd"/><path fill="#000000" fill-opacity="0.0" d="m94.72966 75.749214l18.897636 0l0 18.897636l-18.897636 0z" fill-rule="evenodd"/><path stroke="#f3f3f3" stroke-width="1.0" stroke-linejoin="round" stroke-linecap="butt" d="m94.72966 75.749214l18.897636 0l0 18.897636l-18.897636 0z" fill-rule="evenodd"/><path fill="#000000" fill-opacity="0.0" d="m132.52493 0l18.897644 0l0 18.897638l-18.897644 0z" fill-rule="evenodd"/><path stroke="#f3f3f3" stroke-width="1.0" stroke-linejoin="round" stroke-linecap="butt" d="m132.52493 0l18.897644 0l0 18.897638l-18.897644 0z" fill-rule="evenodd"/><path fill="#000000" fill-opacity="0.0" d="m132.52493 18.89008l18.897644 0l0 18.897636l-18.897644 0z" fill-rule="evenodd"/><path stroke="#f3f3f3" stroke-width="1.0" stroke-linejoin="round" stroke-linecap="butt" d="m132.52493 18.89008l18.897644 0l0 18.897636l-18.897644 0z" fill-rule="evenodd"/><path fill="#000000" fill-opacity="0.0" d="m132.52493 37.78016l18.897644 0l0 18.897636l-18.897644 0z" fill-rule="evenodd"/><path stroke="#f3f3f3" stroke-width="1.0" stroke-linejoin="round" stroke-linecap="butt" d="m132.52493 37.78016l18.897644 0l0 18.897636l-18.897644 0z" fill-rule="evenodd"/><path fill="#000000" fill-opacity="0.0" d="m113.88256 56.670235l18.897636 0l0 18.897636l-18.897636 0z" fill-rule="evenodd"/><path stroke="#f3f3f3" stroke-width="1.0" stroke-linejoin="round" stroke-linecap="butt" d="m113.88256 56.670235l18.897636 0l0 18.897636l-18.897636 0z" fill-rule="evenodd"/><path fill="#000000" fill-opacity="0.0" d="m132.7802 56.670235l18.897644 0l0 18.897636l-18.897644 0z" fill-rule="evenodd"/><path stroke="#f3f3f3" stroke-width="1.0" stroke-linejoin="round" stroke-linecap="butt" d="m132.7802 56.670235l18.897644 0l0 18.897636l-18.897644 0z" fill-rule="evenodd"/><path fill="#000000" fill-opacity="0.0" d="m113.88256 75.749214l18.897636 0l0 18.897636l-18.897636 0z" fill-rule="evenodd"/><path stroke="#f3f3f3" stroke-width="1.0" stroke-linejoin="round" stroke-linecap="butt" d="m113.88256 75.749214l18.897636 0l0 18.897636l-18.897636 0z" fill-rule="evenodd"/><path fill="#000000" fill-opacity="0.0" d="m132.7802 75.749214l18.897644 0l0 18.897636l-18.897644 0z" fill-rule="evenodd"/><path stroke="#f3f3f3" stroke-width="1.0" stroke-linejoin="round" stroke-linecap="butt" d="m132.7802 75.749214l18.897644 0l0 18.897636l-18.897644 0z" fill-rule="evenodd"/><path fill="#000000" fill-opacity="0.0" d="m151.65129 0l18.897629 0l0 18.897638l-18.897629 0z" fill-rule="evenodd"/><path stroke="#f3f3f3" stroke-width="1.0" stroke-linejoin="round" stroke-linecap="butt" d="m151.65129 0l18.897629 0l0 18.897638l-18.897629 0z" fill-rule="evenodd"/><path fill="#000000" fill-opacity="0.0" d="m151.65129 18.89008l18.897629 0l0 18.897636l-18.897629 0z" fill-rule="evenodd"/><path stroke="#f3f3f3" stroke-width="1.0" stroke-linejoin="round" stroke-linecap="butt" d="m151.65129 18.89008l18.897629 0l0 18.897636l-18.897629 0z" fill-rule="evenodd"/><path fill="#000000" fill-opacity="0.0" d="m151.65129 37.78016l18.897629 0l0 18.897636l-18.897629 0z" fill-rule="evenodd"/><path stroke="#f3f3f3" stroke-width="1.0" stroke-linejoin="round" stroke-linecap="butt" d="m151.65129 37.78016l18.897629 0l0 18.897636l-18.897629 0z" fill-rule="evenodd"/><path fill="#000000" fill-opacity="0.0" d="m151.90656 56.670235l18.897644 0l0 18.897636l-18.897644 0z" fill-rule="evenodd"/><path stroke="#f3f3f3" stroke-width="1.0" stroke-linejoin="round" stroke-linecap="butt" d="m151.90656 56.670235l18.897644 0l0 18.897636l-18.897644 0z" fill-rule="evenodd"/><path fill="#000000" fill-opacity="0.0" d="m151.90656 75.749214l18.897644 0l0 18.897636l-18.897644 0z" fill-rule="evenodd"/><path stroke="#f3f3f3" stroke-width="1.0" stroke-linejoin="round" stroke-linecap="butt" d="m151.90656 75.749214l18.897644 0l0 18.897636l-18.897644 0z" fill-rule="evenodd"/><path fill="#000000" fill-opacity="0.0" d="m19.139107 112.903l18.89764 0l0 18.897644l-18.89764 0z" fill-rule="evenodd"/><path stroke="#f3f3f3" stroke-width="1.0" stroke-linejoin="round" stroke-linecap="butt" d="m19.139107 112.903l18.89764 0l0 18.897644l-18.89764 0z" fill-rule="evenodd"/><path fill="#000000" fill-opacity="0.0" d="m19.139107 131.79308l18.89764 0l0 18.897644l-18.89764 0z" fill-rule="evenodd"/><path stroke="#f3f3f3" stroke-width="1.0" stroke-linejoin="round" stroke-linecap="butt" d="m19.139107 131.79308l18.89764 0l0 18.897644l-18.89764 0z" fill-rule="evenodd"/><path fill="#000000" fill-opacity="0.0" d="m0.24146982 94.012924l18.897636 0l0 18.897636l-18.897636 0z" fill-rule="evenodd"/><path stroke="#f3f3f3" stroke-width="1.0" stroke-linejoin="round" stroke-linecap="butt" d="m0.24146982 94.012924l18.897636 0l0 18.897636l-18.897636 0z" fill-rule="evenodd"/><path fill="#000000" fill-opacity="0.0" d="m0.24146982 112.903l18.897636 0l0 18.897644l-18.897636 0z" fill-rule="evenodd"/><path stroke="#f3f3f3" stroke-width="1.0" stroke-linejoin="round" stroke-linecap="butt" d="m0.24146982 112.903l18.897636 0l0 18.897644l-18.897636 0z" fill-rule="evenodd"/><path fill="#000000" fill-opacity="0.0" d="m0.24146982 131.79308l18.897636 0l0 18.897644l-18.897636 0z" fill-rule="evenodd"/><path stroke="#f3f3f3" stroke-width="1.0" stroke-linejoin="round" stroke-linecap="butt" d="m0.24146982 131.79308l18.897636 0l0 18.897644l-18.897636 0z" fill-rule="evenodd"/><path fill="#000000" fill-opacity="0.0" d="m0.24146982 150.68315l18.897636 0l0 18.897644l-18.897636 0z" fill-rule="evenodd"/><path stroke="#f3f3f3" stroke-width="1.0" stroke-linejoin="round" stroke-linecap="butt" d="m0.24146982 150.68315l18.897636 0l0 18.897644l-18.897636 0z" fill-rule="evenodd"/><path fill="#000000" fill-opacity="0.0" d="m19.139107 94.012924l18.89764 0l0 18.897636l-18.89764 0z" fill-rule="evenodd"/><path stroke="#f3f3f3" stroke-width="1.0" stroke-linejoin="round" stroke-linecap="butt" d="m19.139107 94.012924l18.89764 0l0 18.897636l-18.89764 0z" fill-rule="evenodd"/><path fill="#000000" fill-opacity="0.0" d="m19.139107 150.68315l18.89764 0l0 18.897644l-18.89764 0z" fill-rule="evenodd"/><path stroke="#f3f3f3" stroke-width="1.0" stroke-linejoin="round" stroke-linecap="butt" d="m19.139107 150.68315l18.89764 0l0 18.897644l-18.89764 0z" fill-rule="evenodd"/><path fill="#000000" fill-opacity="0.0" d="m38.036747 94.012924l18.897636 0l0 18.897636l-18.897636 0z" fill-rule="evenodd"/><path stroke="#f3f3f3" stroke-width="1.0" stroke-linejoin="round" stroke-linecap="butt" d="m38.036747 94.012924l18.897636 0l0 18.897636l-18.897636 0z" fill-rule="evenodd"/><path fill="#000000" fill-opacity="0.0" d="m38.036747 112.903l18.897636 0l0 18.897644l-18.897636 0z" fill-rule="evenodd"/><path stroke="#f3f3f3" stroke-width="1.0" stroke-linejoin="round" stroke-linecap="butt" d="m38.036747 112.903l18.897636 0l0 18.897644l-18.897636 0z" fill-rule="evenodd"/><path fill="#000000" fill-opacity="0.0" d="m38.036747 131.79308l18.897636 0l0 18.897644l-18.897636 0z" fill-rule="evenodd"/><path stroke="#f3f3f3" stroke-width="1.0" stroke-linejoin="round" stroke-linecap="butt" d="m38.036747 131.79308l18.897636 0l0 18.897644l-18.897636 0z" fill-rule="evenodd"/><path fill="#000000" fill-opacity="0.0" d="m38.036747 150.68315l18.897636 0l0 18.897644l-18.897636 0z" fill-rule="evenodd"/><path stroke="#f3f3f3" stroke-width="1.0" stroke-linejoin="round" stroke-linecap="butt" d="m38.036747 150.68315l18.897636 0l0 18.897644l-18.897636 0z" fill-rule="evenodd"/><path fill="#000000" fill-opacity="0.0" d="m56.934383 94.012924l18.89764 0l0 18.897636l-18.89764 0z" fill-rule="evenodd"/><path stroke="#f3f3f3" stroke-width="1.0" stroke-linejoin="round" stroke-linecap="butt" d="m56.934383 94.012924l18.89764 0l0 18.897636l-18.89764 0z" fill-rule="evenodd"/><path fill="#000000" fill-opacity="0.0" d="m56.934383 112.903l18.89764 0l0 18.897644l-18.89764 0z" fill-rule="evenodd"/><path stroke="#f3f3f3" stroke-width="1.0" stroke-linejoin="round" stroke-linecap="butt" d="m56.934383 112.903l18.89764 0l0 18.897644l-18.89764 0z" fill-rule="evenodd"/><path fill="#000000" fill-opacity="0.0" d="m56.934383 131.79308l18.89764 0l0 18.897644l-18.89764 0z" fill-rule="evenodd"/><path stroke="#f3f3f3" stroke-width="1.0" stroke-linejoin="round" stroke-linecap="butt" d="m56.934383 131.79308l18.89764 0l0 18.897644l-18.89764 0z" fill-rule="evenodd"/><path fill="#000000" fill-opacity="0.0" d="m56.934383 150.68315l18.89764 0l0 18.897644l-18.89764 0z" fill-rule="evenodd"/><path stroke="#f3f3f3" stroke-width="1.0" stroke-linejoin="round" stroke-linecap="butt" d="m56.934383 150.68315l18.89764 0l0 18.897644l-18.89764 0z" fill-rule="evenodd"/><path fill="#000000" fill-opacity="0.0" d="m75.83202 94.012924l18.897636 0l0 18.897636l-18.897636 0z" fill-rule="evenodd"/><path stroke="#f3f3f3" stroke-width="1.0" stroke-linejoin="round" stroke-linecap="butt" d="m75.83202 94.012924l18.897636 0l0 18.897636l-18.897636 0z" fill-rule="evenodd"/><path fill="#000000" fill-opacity="0.0" d="m75.83202 112.903l18.897636 0l0 18.897644l-18.897636 0z" fill-rule="evenodd"/><path stroke="#f3f3f3" stroke-width="1.0" stroke-linejoin="round" stroke-linecap="butt" d="m75.83202 112.903l18.897636 0l0 18.897644l-18.897636 0z" fill-rule="evenodd"/><path fill="#000000" fill-opacity="0.0" d="m75.83202 131.79308l18.897636 0l0 18.897644l-18.897636 0z" fill-rule="evenodd"/><path stroke="#f3f3f3" stroke-width="1.0" stroke-linejoin="round" stroke-linecap="butt" d="m75.83202 131.79308l18.897636 0l0 18.897644l-18.897636 0z" fill-rule="evenodd"/><path fill="#000000" fill-opacity="0.0" d="m75.83202 150.68315l18.897636 0l0 18.897644l-18.897636 0z" fill-rule="evenodd"/><path stroke="#f3f3f3" stroke-width="1.0" stroke-linejoin="round" stroke-linecap="butt" d="m75.83202 150.68315l18.897636 0l0 18.897644l-18.897636 0z" fill-rule="evenodd"/><path fill="#000000" fill-opacity="0.0" d="m94.72966 94.012924l18.897636 0l0 18.897636l-18.897636 0z" fill-rule="evenodd"/><path stroke="#f3f3f3" stroke-width="1.0" stroke-linejoin="round" stroke-linecap="butt" d="m94.72966 94.012924l18.897636 0l0 18.897636l-18.897636 0z" fill-rule="evenodd"/><path fill="#000000" fill-opacity="0.0" d="m94.72966 112.903l18.897636 0l0 18.897644l-18.897636 0z" fill-rule="evenodd"/><path stroke="#f3f3f3" stroke-width="1.0" stroke-linejoin="round" stroke-linecap="butt" d="m94.72966 112.903l18.897636 0l0 18.897644l-18.897636 0z" fill-rule="evenodd"/><path fill="#000000" fill-opacity="0.0" d="m94.72966 131.79308l18.897636 0l0 18.897644l-18.897636 0z" fill-rule="evenodd"/><path stroke="#f3f3f3" stroke-width="1.0" stroke-linejoin="round" stroke-linecap="butt" d="m94.72966 131.79308l18.897636 0l0 18.897644l-18.897636 0z" fill-rule="evenodd"/><path fill="#000000" fill-opacity="0.0" d="m94.72966 150.68315l18.897636 0l0 18.897644l-18.897636 0z" fill-rule="evenodd"/><path stroke="#f3f3f3" stroke-width="1.0" stroke-linejoin="round" stroke-linecap="butt" d="m94.72966 150.68315l18.897636 0l0 18.897644l-18.897636 0z" fill-rule="evenodd"/><path fill="#000000" fill-opacity="0.0" d="m113.6273 94.012924l18.897636 0l0 18.897636l-18.897636 0z" fill-rule="evenodd"/><path stroke="#f3f3f3" stroke-width="1.0" stroke-linejoin="round" stroke-linecap="butt" d="m113.6273 94.012924l18.897636 0l0 18.897636l-18.897636 0z" fill-rule="evenodd"/><path fill="#000000" fill-opacity="0.0" d="m113.6273 112.903l18.897636 0l0 18.897644l-18.897636 0z" fill-rule="evenodd"/><path stroke="#f3f3f3" stroke-width="1.0" stroke-linejoin="round" stroke-linecap="butt" d="m113.6273 112.903l18.897636 0l0 18.897644l-18.897636 0z" fill-rule="evenodd"/><path fill="#000000" fill-opacity="0.0" d="m113.6273 131.79308l18.897636 0l0 18.897644l-18.897636 0z" fill-rule="evenodd"/><path stroke="#f3f3f3" stroke-width="1.0" stroke-linejoin="round" stroke-linecap="butt" d="m113.6273 131.79308l18.897636 0l0 18.897644l-18.897636 0z" fill-rule="evenodd"/><path fill="#000000" fill-opacity="0.0" d="m0.24146982 169.76213l18.897636 0l0 18.897644l-18.897636 0z" fill-rule="evenodd"/><path stroke="#f3f3f3" stroke-width="1.0" stroke-linejoin="round" stroke-linecap="butt" d="m0.24146982 169.76213l18.897636 0l0 18.897644l-18.897636 0z" fill-rule="evenodd"/><path fill="#000000" fill-opacity="0.0" d="m19.139107 169.76213l18.89764 0l0 18.897644l-18.89764 0z" fill-rule="evenodd"/><path stroke="#f3f3f3" stroke-width="1.0" stroke-linejoin="round" stroke-linecap="butt" d="m19.139107 169.76213l18.89764 0l0 18.897644l-18.89764 0z" fill-rule="evenodd"/><path fill="#000000" fill-opacity="0.0" d="m38.036747 169.76213l18.897636 0l0 18.897644l-18.897636 0z" fill-rule="evenodd"/><path stroke="#f3f3f3" stroke-width="1.0" stroke-linejoin="round" stroke-linecap="butt" d="m38.036747 169.76213l18.897636 0l0 18.897644l-18.897636 0z" fill-rule="evenodd"/><path fill="#000000" fill-opacity="0.0" d="m56.934383 169.76213l18.89764 0l0 18.897644l-18.89764 0z" fill-rule="evenodd"/><path stroke="#f3f3f3" stroke-width="1.0" stroke-linejoin="round" stroke-linecap="butt" d="m56.934383 169.76213l18.89764 0l0 18.897644l-18.89764 0z" fill-rule="evenodd"/><path fill="#000000" fill-opacity="0.0" d="m75.83202 169.76213l18.897636 0l0 18.897644l-18.897636 0z" fill-rule="evenodd"/><path stroke="#f3f3f3" stroke-width="1.0" stroke-linejoin="round" stroke-linecap="butt" d="m75.83202 169.76213l18.897636 0l0 18.897644l-18.897636 0z" fill-rule="evenodd"/><path fill="#000000" fill-opacity="0.0" d="m94.72966 169.76213l18.897636 0l0 18.897644l-18.897636 0z" fill-rule="evenodd"/><path stroke="#f3f3f3" stroke-width="1.0" stroke-linejoin="round" stroke-linecap="butt" d="m94.72966 169.76213l18.897636 0l0 18.897644l-18.897636 0z" fill-rule="evenodd"/><path fill="#000000" fill-opacity="0.0" d="m132.52493 94.012924l18.897644 0l0 18.897636l-18.897644 0z" fill-rule="evenodd"/><path stroke="#f3f3f3" stroke-width="1.0" stroke-linejoin="round" stroke-linecap="butt" d="m132.52493 94.012924l18.897644 0l0 18.897636l-18.897644 0z" fill-rule="evenodd"/><path fill="#000000" fill-opacity="0.0" d="m132.52493 112.903l18.897644 0l0 18.897644l-18.897644 0z" fill-rule="evenodd"/><path stroke="#f3f3f3" stroke-width="1.0" stroke-linejoin="round" stroke-linecap="butt" d="m132.52493 112.903l18.897644 0l0 18.897644l-18.897644 0z" fill-rule="evenodd"/><path fill="#000000" fill-opacity="0.0" d="m132.52493 131.79308l18.897644 0l0 18.897644l-18.897644 0z" fill-rule="evenodd"/><path stroke="#f3f3f3" stroke-width="1.0" stroke-linejoin="round" stroke-linecap="butt" d="m132.52493 131.79308l18.897644 0l0 18.897644l-18.897644 0z" fill-rule="evenodd"/><path fill="#000000" fill-opacity="0.0" d="m113.88256 150.68315l18.897636 0l0 18.897644l-18.897636 0z" fill-rule="evenodd"/><path stroke="#f3f3f3" stroke-width="1.0" stroke-linejoin="round" stroke-linecap="butt" d="m113.88256 150.68315l18.897636 0l0 18.897644l-18.897636 0z" fill-rule="evenodd"/><path fill="#000000" fill-opacity="0.0" d="m132.7802 150.68315l18.897644 0l0 18.897644l-18.897644 0z" fill-rule="evenodd"/><path stroke="#f3f3f3" stroke-width="1.0" stroke-linejoin="round" stroke-linecap="butt" d="m132.7802 150.68315l18.897644 0l0 18.897644l-18.897644 0z" fill-rule="evenodd"/><path fill="#000000" fill-opacity="0.0" d="m113.88256 169.76213l18.897636 0l0 18.897644l-18.897636 0z" fill-rule="evenodd"/><path stroke="#f3f3f3" stroke-width="1.0" stroke-linejoin="round" stroke-linecap="butt" d="m113.88256 169.76213l18.897636 0l0 18.897644l-18.897636 0z" fill-rule="evenodd"/><path fill="#000000" fill-opacity="0.0" d="m132.7802 169.76213l18.897644 0l0 18.897644l-18.897644 0z" fill-rule="evenodd"/><path stroke="#f3f3f3" stroke-width="1.0" stroke-linejoin="round" stroke-linecap="butt" d="m132.7802 169.76213l18.897644 0l0 18.897644l-18.897644 0z" fill-rule="evenodd"/><path fill="#000000" fill-opacity="0.0" d="m151.65129 94.012924l18.897629 0l0 18.897636l-18.897629 0z" fill-rule="evenodd"/><path stroke="#f3f3f3" stroke-width="1.0" stroke-linejoin="round" stroke-linecap="butt" d="m151.65129 94.012924l18.897629 0l0 18.897636l-18.897629 0z" fill-rule="evenodd"/><path fill="#000000" fill-opacity="0.0" d="m151.65129 112.903l18.897629 0l0 18.897644l-18.897629 0z" fill-rule="evenodd"/><path stroke="#f3f3f3" stroke-width="1.0" stroke-linejoin="round" stroke-linecap="butt" d="m151.65129 112.903l18.897629 0l0 18.897644l-18.897629 0z" fill-rule="evenodd"/><path fill="#000000" fill-opacity="0.0" d="m151.65129 131.79308l18.897629 0l0 18.897644l-18.897629 0z" fill-rule="evenodd"/><path stroke="#f3f3f3" stroke-width="1.0" stroke-linejoin="round" stroke-linecap="butt" d="m151.65129 131.79308l18.897629 0l0 18.897644l-18.897629 0z" fill-rule="evenodd"/><path fill="#000000" fill-opacity="0.0" d="m151.90656 150.68315l18.897644 0l0 18.897644l-18.897644 0z" fill-rule="evenodd"/><path stroke="#f3f3f3" stroke-width="1.0" stroke-linejoin="round" stroke-linecap="butt" d="m151.90656 150.68315l18.897644 0l0 18.897644l-18.897644 0z" fill-rule="evenodd"/><path fill="#000000" fill-opacity="0.0" d="m151.90656 169.76213l18.897644 0l0 18.897644l-18.897644 0z" fill-rule="evenodd"/><path stroke="#f3f3f3" stroke-width="1.0" stroke-linejoin="round" stroke-linecap="butt" d="m151.90656 169.76213l18.897644 0l0 18.897644l-18.897644 0z" fill-rule="evenodd"/><path fill="#000000" fill-opacity="0.0" d="m18.897638 206.75618l18.897638 0l0 18.897644l-18.897638 0z" fill-rule="evenodd"/><path stroke="#f3f3f3" stroke-width="1.0" stroke-linejoin="round" stroke-linecap="butt" d="m18.897638 206.75618l18.897638 0l0 18.897644l-18.897638 0z" fill-rule="evenodd"/><path fill="#000000" fill-opacity="0.0" d="m18.897638 225.64626l18.897638 0l0 18.897644l-18.897638 0z" fill-rule="evenodd"/><path stroke="#f3f3f3" stroke-width="1.0" stroke-linejoin="round" stroke-linecap="butt" d="m18.897638 225.64626l18.897638 0l0 18.897644l-18.897638 0z" fill-rule="evenodd"/><path fill="#000000" fill-opacity="0.0" d="m0 187.8661l18.897638 0l0 18.897644l-18.897638 0z" fill-rule="evenodd"/><path stroke="#f3f3f3" stroke-width="1.0" stroke-linejoin="round" stroke-linecap="butt" d="m0 187.8661l18.897638 0l0 18.897644l-18.897638 0z" fill-rule="evenodd"/><path fill="#000000" fill-opacity="0.0" d="m0 206.75618l18.897638 0l0 18.897644l-18.897638 0z" fill-rule="evenodd"/><path stroke="#f3f3f3" stroke-width="1.0" stroke-linejoin="round" stroke-linecap="butt" d="m0 206.75618l18.897638 0l0 18.897644l-18.897638 0z" fill-rule="evenodd"/><path fill="#000000" fill-opacity="0.0" d="m0 225.64626l18.897638 0l0 18.897644l-18.897638 0z" fill-rule="evenodd"/><path stroke="#f3f3f3" stroke-width="1.0" stroke-linejoin="round" stroke-linecap="butt" d="m0 225.64626l18.897638 0l0 18.897644l-18.897638 0z" fill-rule="evenodd"/><path fill="#000000" fill-opacity="0.0" d="m18.897638 187.8661l18.897638 0l0 18.897644l-18.897638 0z" fill-rule="evenodd"/><path stroke="#f3f3f3" stroke-width="1.0" stroke-linejoin="round" stroke-linecap="butt" d="m18.897638 187.8661l18.897638 0l0 18.897644l-18.897638 0z" fill-rule="evenodd"/><path fill="#000000" fill-opacity="0.0" d="m37.795277 187.8661l18.897636 0l0 18.897644l-18.897636 0z" fill-rule="evenodd"/><path stroke="#f3f3f3" stroke-width="1.0" stroke-linejoin="round" stroke-linecap="butt" d="m37.795277 187.8661l18.897636 0l0 18.897644l-18.897636 0z" fill-rule="evenodd"/><path fill="#000000" fill-opacity="0.0" d="m37.795277 206.75618l18.897636 0l0 18.897644l-18.897636 0z" fill-rule="evenodd"/><path stroke="#f3f3f3" stroke-width="1.0" stroke-linejoin="round" stroke-linecap="butt" d="m37.795277 206.75618l18.897636 0l0 18.897644l-18.897636 0z" fill-rule="evenodd"/><path fill="#000000" fill-opacity="0.0" d="m37.795277 225.64626l18.897636 0l0 18.897644l-18.897636 0z" fill-rule="evenodd"/><path stroke="#f3f3f3" stroke-width="1.0" stroke-linejoin="round" stroke-linecap="butt" d="m37.795277 225.64626l18.897636 0l0 18.897644l-18.897636 0z" fill-rule="evenodd"/><path fill="#000000" fill-opacity="0.0" d="m56.692913 187.8661l18.89764 0l0 18.897644l-18.89764 0z" fill-rule="evenodd"/><path stroke="#f3f3f3" stroke-width="1.0" stroke-linejoin="round" stroke-linecap="butt" d="m56.692913 187.8661l18.89764 0l0 18.897644l-18.89764 0z" fill-rule="evenodd"/><path fill="#000000" fill-opacity="0.0" d="m56.692913 206.75618l18.89764 0l0 18.897644l-18.89764 0z" fill-rule="evenodd"/><path stroke="#f3f3f3" stroke-width="1.0" stroke-linejoin="round" stroke-linecap="butt" d="m56.692913 206.75618l18.89764 0l0 18.897644l-18.89764 0z" fill-rule="evenodd"/><path fill="#000000" fill-opacity="0.0" d="m56.692913 225.64626l18.89764 0l0 18.897644l-18.89764 0z" fill-rule="evenodd"/><path stroke="#f3f3f3" stroke-width="1.0" stroke-linejoin="round" stroke-linecap="butt" d="m56.692913 225.64626l18.89764 0l0 18.897644l-18.89764 0z" fill-rule="evenodd"/><path fill="#000000" fill-opacity="0.0" d="m75.59055 187.8661l18.897636 0l0 18.897644l-18.897636 0z" fill-rule="evenodd"/><path stroke="#f3f3f3" stroke-width="1.0" stroke-linejoin="round" stroke-linecap="butt" d="m75.59055 187.8661l18.897636 0l0 18.897644l-18.897636 0z" fill-rule="evenodd"/><path fill="#000000" fill-opacity="0.0" d="m75.59055 206.75618l18.897636 0l0 18.897644l-18.897636 0z" fill-rule="evenodd"/><path stroke="#f3f3f3" stroke-width="1.0" stroke-linejoin="round" stroke-linecap="butt" d="m75.59055 206.75618l18.897636 0l0 18.897644l-18.897636 0z" fill-rule="evenodd"/><path fill="#000000" fill-opacity="0.0" d="m75.59055 225.64626l18.897636 0l0 18.897644l-18.897636 0z" fill-rule="evenodd"/><path stroke="#f3f3f3" stroke-width="1.0" stroke-linejoin="round" stroke-linecap="butt" d="m75.59055 225.64626l18.897636 0l0 18.897644l-18.897636 0z" fill-rule="evenodd"/><path fill="#000000" fill-opacity="0.0" d="m94.48819 187.8661l18.897636 0l0 18.897644l-18.897636 0z" fill-rule="evenodd"/><path stroke="#f3f3f3" stroke-width="1.0" stroke-linejoin="round" stroke-linecap="butt" d="m94.48819 187.8661l18.897636 0l0 18.897644l-18.897636 0z" fill-rule="evenodd"/><path fill="#000000" fill-opacity="0.0" d="m94.48819 206.75618l18.897636 0l0 18.897644l-18.897636 0z" fill-rule="evenodd"/><path stroke="#f3f3f3" stroke-width="1.0" stroke-linejoin="round" stroke-linecap="butt" d="m94.48819 206.75618l18.897636 0l0 18.897644l-18.897636 0z" fill-rule="evenodd"/><path fill="#000000" fill-opacity="0.0" d="m113.385826 187.8661l18.897636 0l0 18.897644l-18.897636 0z" fill-rule="evenodd"/><path stroke="#f3f3f3" stroke-width="1.0" stroke-linejoin="round" stroke-linecap="butt" d="m113.385826 187.8661l18.897636 0l0 18.897644l-18.897636 0z" fill-rule="evenodd"/><path fill="#000000" fill-opacity="0.0" d="m113.385826 206.75618l18.897636 0l0 18.897644l-18.897636 0z" fill-rule="evenodd"/><path stroke="#f3f3f3" stroke-width="1.0" stroke-linejoin="round" stroke-linecap="butt" d="m113.385826 206.75618l18.897636 0l0 18.897644l-18.897636 0z" fill-rule="evenodd"/><path fill="#000000" fill-opacity="0.0" d="m132.28346 187.8661l18.897644 0l0 18.897644l-18.897644 0z" fill-rule="evenodd"/><path stroke="#f3f3f3" stroke-width="1.0" stroke-linejoin="round" stroke-linecap="butt" d="m132.28346 187.8661l18.897644 0l0 18.897644l-18.897644 0z" fill-rule="evenodd"/><path fill="#000000" fill-opacity="0.0" d="m132.28346 206.75618l18.897644 0l0 18.897644l-18.897644 0z" fill-rule="evenodd"/><path stroke="#f3f3f3" stroke-width="1.0" stroke-linejoin="round" stroke-linecap="butt" d="m132.28346 206.75618l18.897644 0l0 18.897644l-18.897644 0z" fill-rule="evenodd"/><path fill="#000000" fill-opacity="0.0" d="m132.28346 225.64626l18.897644 0l0 18.897644l-18.897644 0z" fill-rule="evenodd"/><path stroke="#f3f3f3" stroke-width="1.0" stroke-linejoin="round" stroke-linecap="butt" d="m132.28346 225.64626l18.897644 0l0 18.897644l-18.897644 0z" fill-rule="evenodd"/><path fill="#000000" fill-opacity="0.0" d="m151.40982 187.8661l18.897629 0l0 18.897644l-18.897629 0z" fill-rule="evenodd"/><path stroke="#f3f3f3" stroke-width="1.0" stroke-linejoin="round" stroke-linecap="butt" d="m151.40982 187.8661l18.897629 0l0 18.897644l-18.897629 0z" fill-rule="evenodd"/><path fill="#000000" fill-opacity="0.0" d="m151.40982 206.75618l18.897629 0l0 18.897644l-18.897629 0z" fill-rule="evenodd"/><path stroke="#f3f3f3" stroke-width="1.0" stroke-linejoin="round" stroke-linecap="butt" d="m151.40982 206.75618l18.897629 0l0 18.897644l-18.897629 0z" fill-rule="evenodd"/><path fill="#000000" fill-opacity="0.0" d="m151.40982 225.64626l18.897629 0l0 18.897644l-18.897629 0z" fill-rule="evenodd"/><path stroke="#f3f3f3" stroke-width="1.0" stroke-linejoin="round" stroke-linecap="butt" d="m151.40982 225.64626l18.897629 0l0 18.897644l-18.897629 0z" fill-rule="evenodd"/><path fill="#000000" fill-opacity="0.0" d="m170.07874 245.66833l18.897644 0l0 18.897644l-18.897644 0z" fill-rule="evenodd"/><path stroke="#f3f3f3" stroke-width="1.0" stroke-linejoin="round" stroke-linecap="butt" d="m170.07874 245.66833l18.897644 0l0 18.897644l-18.897644 0z" fill-rule="evenodd"/><path fill="#000000" fill-opacity="0.0" d="m188.97638 245.66833l18.897629 0l0 18.897644l-18.897629 0z" fill-rule="evenodd"/><path stroke="#f3f3f3" stroke-width="1.0" stroke-linejoin="round" stroke-linecap="butt" d="m188.97638 245.66833l18.897629 0l0 18.897644l-18.897629 0z" fill-rule="evenodd"/><path fill="#000000" fill-opacity="0.0" d="m207.87401 245.66833l18.897644 0l0 18.897644l-18.897644 0z" fill-rule="evenodd"/><path stroke="#f3f3f3" stroke-width="1.0" stroke-linejoin="round" stroke-linecap="butt" d="m207.87401 245.66833l18.897644 0l0 18.897644l-18.897644 0z" fill-rule="evenodd"/><path fill="#000000" fill-opacity="0.0" d="m226.77165 245.66833l18.897644 0l0 18.897644l-18.897644 0z" fill-rule="evenodd"/><path stroke="#f3f3f3" stroke-width="1.0" stroke-linejoin="round" stroke-linecap="butt" d="m226.77165 245.66833l18.897644 0l0 18.897644l-18.897644 0z" fill-rule="evenodd"/><path fill="#000000" fill-opacity="0.0" d="m245.6693 245.66833l18.897629 0l0 18.897644l-18.897629 0z" fill-rule="evenodd"/><path stroke="#f3f3f3" stroke-width="1.0" stroke-linejoin="round" stroke-linecap="butt" d="m245.6693 245.66833l18.897629 0l0 18.897644l-18.897629 0z" fill-rule="evenodd"/><path fill="#000000" fill-opacity="0.0" d="m264.56693 245.66833l18.897644 0l0 18.897644l-18.897644 0z" fill-rule="evenodd"/><path stroke="#f3f3f3" stroke-width="1.0" stroke-linejoin="round" stroke-linecap="butt" d="m264.56693 245.66833l18.897644 0l0 18.897644l-18.897644 0z" fill-rule="evenodd"/><path fill="#000000" fill-opacity="0.0" d="m283.71982 245.66833l18.897644 0l0 18.897644l-18.897644 0z" fill-rule="evenodd"/><path stroke="#f3f3f3" stroke-width="1.0" stroke-linejoin="round" stroke-linecap="butt" d="m283.71982 245.66833l18.897644 0l0 18.897644l-18.897644 0z" fill-rule="evenodd"/><path fill="#000000" fill-opacity="0.0" d="m188.97638 282.66238l18.897629 0l0 18.897644l-18.897629 0z" fill-rule="evenodd"/><path stroke="#f3f3f3" stroke-width="1.0" stroke-linejoin="round" stroke-linecap="butt" d="m188.97638 282.66238l18.897629 0l0 18.897644l-18.897629 0z" fill-rule="evenodd"/><path fill="#000000" fill-opacity="0.0" d="m188.97638 301.55246l18.897629 0l0 18.897644l-18.897629 0z" fill-rule="evenodd"/><path stroke="#f3f3f3" stroke-width="1.0" stroke-linejoin="round" stroke-linecap="butt" d="m188.97638 301.55246l18.897629 0l0 18.897644l-18.897629 0z" fill-rule="evenodd"/><path fill="#000000" fill-opacity="0.0" d="m170.07874 263.7723l18.897644 0l0 18.897644l-18.897644 0z" fill-rule="evenodd"/><path stroke="#f3f3f3" stroke-width="1.0" stroke-linejoin="round" stroke-linecap="butt" d="m170.07874 263.7723l18.897644 0l0 18.897644l-18.897644 0z" fill-rule="evenodd"/><path fill="#000000" fill-opacity="0.0" d="m170.07874 282.66238l18.897644 0l0 18.897644l-18.897644 0z" fill-rule="evenodd"/><path stroke="#f3f3f3" stroke-width="1.0" stroke-linejoin="round" stroke-linecap="butt" d="m170.07874 282.66238l18.897644 0l0 18.897644l-18.897644 0z" fill-rule="evenodd"/><path fill="#000000" fill-opacity="0.0" d="m170.07874 301.55246l18.897644 0l0 18.897644l-18.897644 0z" fill-rule="evenodd"/><path stroke="#f3f3f3" stroke-width="1.0" stroke-linejoin="round" stroke-linecap="butt" d="m170.07874 301.55246l18.897644 0l0 18.897644l-18.897644 0z" fill-rule="evenodd"/><path fill="#000000" fill-opacity="0.0" d="m188.97638 263.7723l18.897629 0l0 18.897644l-18.897629 0z" fill-rule="evenodd"/><path stroke="#f3f3f3" stroke-width="1.0" stroke-linejoin="round" stroke-linecap="butt" d="m188.97638 263.7723l18.897629 0l0 18.897644l-18.897629 0z" fill-rule="evenodd"/><path fill="#000000" fill-opacity="0.0" d="m207.87401 263.7723l18.897644 0l0 18.897644l-18.897644 0z" fill-rule="evenodd"/><path stroke="#f3f3f3" stroke-width="1.0" stroke-linejoin="round" stroke-linecap="butt" d="m207.87401 263.7723l18.897644 0l0 18.897644l-18.897644 0z" fill-rule="evenodd"/><path fill="#000000" fill-opacity="0.0" d="m207.87401 282.66238l18.897644 0l0 18.897644l-18.897644 0z" fill-rule="evenodd"/><path stroke="#f3f3f3" stroke-width="1.0" stroke-linejoin="round" stroke-linecap="butt" d="m207.87401 282.66238l18.897644 0l0 18.897644l-18.897644 0z" fill-rule="evenodd"/><path fill="#000000" fill-opacity="0.0" d="m207.87401 301.55246l18.897644 0l0 18.897644l-18.897644 0z" fill-rule="evenodd"/><path stroke="#f3f3f3" stroke-width="1.0" stroke-linejoin="round" stroke-linecap="butt" d="m207.87401 301.55246l18.897644 0l0 18.897644l-18.897644 0z" fill-rule="evenodd"/><path fill="#000000" fill-opacity="0.0" d="m226.77165 263.7723l18.897644 0l0 18.897644l-18.897644 0z" fill-rule="evenodd"/><path stroke="#f3f3f3" stroke-width="1.0" stroke-linejoin="round" stroke-linecap="butt" d="m226.77165 263.7723l18.897644 0l0 18.897644l-18.897644 0z" fill-rule="evenodd"/><path fill="#000000" fill-opacity="0.0" d="m226.77165 282.66238l18.897644 0l0 18.897644l-18.897644 0z" fill-rule="evenodd"/><path stroke="#f3f3f3" stroke-width="1.0" stroke-linejoin="round" stroke-linecap="butt" d="m226.77165 282.66238l18.897644 0l0 18.897644l-18.897644 0z" fill-rule="evenodd"/><path fill="#000000" fill-opacity="0.0" d="m226.77165 301.55246l18.897644 0l0 18.897644l-18.897644 0z" fill-rule="evenodd"/><path stroke="#f3f3f3" stroke-width="1.0" stroke-linejoin="round" stroke-linecap="butt" d="m226.77165 301.55246l18.897644 0l0 18.897644l-18.897644 0z" fill-rule="evenodd"/><path fill="#000000" fill-opacity="0.0" d="m245.6693 263.7723l18.897629 0l0 18.897644l-18.897629 0z" fill-rule="evenodd"/><path stroke="#f3f3f3" stroke-width="1.0" stroke-linejoin="round" stroke-linecap="butt" d="m245.6693 263.7723l18.897629 0l0 18.897644l-18.897629 0z" fill-rule="evenodd"/><path fill="#000000" fill-opacity="0.0" d="m245.6693 282.66238l18.897629 0l0 18.897644l-18.897629 0z" fill-rule="evenodd"/><path stroke="#f3f3f3" stroke-width="1.0" stroke-linejoin="round" stroke-linecap="butt" d="m245.6693 282.66238l18.897629 0l0 18.897644l-18.897629 0z" fill-rule="evenodd"/><path fill="#000000" fill-opacity="0.0" d="m245.6693 301.55246l18.897629 0l0 18.897644l-18.897629 0z" fill-rule="evenodd"/><path stroke="#f3f3f3" stroke-width="1.0" stroke-linejoin="round" stroke-linecap="butt" d="m245.6693 301.55246l18.897629 0l0 18.897644l-18.897629 0z" fill-rule="evenodd"/><path fill="#000000" fill-opacity="0.0" d="m264.56693 263.7723l18.897644 0l0 18.897644l-18.897644 0z" fill-rule="evenodd"/><path stroke="#f3f3f3" stroke-width="1.0" stroke-linejoin="round" stroke-linecap="butt" d="m264.56693 263.7723l18.897644 0l0 18.897644l-18.897644 0z" fill-rule="evenodd"/><path fill="#000000" fill-opacity="0.0" d="m264.56693 282.66238l18.897644 0l0 18.897644l-18.897644 0z" fill-rule="evenodd"/><path stroke="#f3f3f3" stroke-width="1.0" stroke-linejoin="round" stroke-linecap="butt" d="m264.56693 282.66238l18.897644 0l0 18.897644l-18.897644 0z" fill-rule="evenodd"/><path fill="#000000" fill-opacity="0.0" d="m264.56693 301.55246l18.897644 0l0 18.897644l-18.897644 0z" fill-rule="evenodd"/><path stroke="#f3f3f3" stroke-width="1.0" stroke-linejoin="round" stroke-linecap="butt" d="m264.56693 301.55246l18.897644 0l0 18.897644l-18.897644 0z" fill-rule="evenodd"/><path fill="#000000" fill-opacity="0.0" d="m283.46457 263.7723l18.897644 0l0 18.897644l-18.897644 0z" fill-rule="evenodd"/><path stroke="#f3f3f3" stroke-width="1.0" stroke-linejoin="round" stroke-linecap="butt" d="m283.46457 263.7723l18.897644 0l0 18.897644l-18.897644 0z" fill-rule="evenodd"/><path fill="#000000" fill-opacity="0.0" d="m283.46457 282.66238l18.897644 0l0 18.897644l-18.897644 0z" fill-rule="evenodd"/><path stroke="#f3f3f3" stroke-width="1.0" stroke-linejoin="round" stroke-linecap="butt" d="m283.46457 282.66238l18.897644 0l0 18.897644l-18.897644 0z" fill-rule="evenodd"/><path fill="#000000" fill-opacity="0.0" d="m283.46457 301.55246l18.897644 0l0 18.897644l-18.897644 0z" fill-rule="evenodd"/><path stroke="#f3f3f3" stroke-width="1.0" stroke-linejoin="round" stroke-linecap="butt" d="m283.46457 301.55246l18.897644 0l0 18.897644l-18.897644 0z" fill-rule="evenodd"/><path fill="#000000" fill-opacity="0.0" d="m0 245.66833l18.897638 0l0 18.897644l-18.897638 0z" fill-rule="evenodd"/><path stroke="#f3f3f3" stroke-width="1.0" stroke-linejoin="round" stroke-linecap="butt" d="m0 245.66833l18.897638 0l0 18.897644l-18.897638 0z" fill-rule="evenodd"/><path fill="#000000" fill-opacity="0.0" d="m19.27559 245.66833l18.897638 0l0 18.897644l-18.897638 0z" fill-rule="evenodd"/><path stroke="#f3f3f3" stroke-width="1.0" stroke-linejoin="round" stroke-linecap="butt" d="m19.27559 245.66833l18.897638 0l0 18.897644l-18.897638 0z" fill-rule="evenodd"/><path fill="#000000" fill-opacity="0.0" d="m38.17323 245.66833l18.897636 0l0 18.897644l-18.897636 0z" fill-rule="evenodd"/><path stroke="#f3f3f3" stroke-width="1.0" stroke-linejoin="round" stroke-linecap="butt" d="m38.17323 245.66833l18.897636 0l0 18.897644l-18.897636 0z" fill-rule="evenodd"/><path fill="#000000" fill-opacity="0.0" d="m57.070866 245.66833l18.89764 0l0 18.897644l-18.89764 0z" fill-rule="evenodd"/><path stroke="#f3f3f3" stroke-width="1.0" stroke-linejoin="round" stroke-linecap="butt" d="m57.070866 245.66833l18.89764 0l0 18.897644l-18.89764 0z" fill-rule="evenodd"/><path fill="#000000" fill-opacity="0.0" d="m75.59055 245.66833l18.897636 0l0 18.897644l-18.897636 0z" fill-rule="evenodd"/><path stroke="#f3f3f3" stroke-width="1.0" stroke-linejoin="round" stroke-linecap="butt" d="m75.59055 245.66833l18.897636 0l0 18.897644l-18.897636 0z" fill-rule="evenodd"/><path fill="#000000" fill-opacity="0.0" d="m94.48819 245.66833l18.897636 0l0 18.897644l-18.897636 0z" fill-rule="evenodd"/><path stroke="#f3f3f3" stroke-width="1.0" stroke-linejoin="round" stroke-linecap="butt" d="m94.48819 245.66833l18.897636 0l0 18.897644l-18.897636 0z" fill-rule="evenodd"/><path fill="#000000" fill-opacity="0.0" d="m113.64109 245.66833l18.897636 0l0 18.897644l-18.897636 0z" fill-rule="evenodd"/><path stroke="#f3f3f3" stroke-width="1.0" stroke-linejoin="round" stroke-linecap="butt" d="m113.64109 245.66833l18.897636 0l0 18.897644l-18.897636 0z" fill-rule="evenodd"/><path fill="#000000" fill-opacity="0.0" d="m132.53873 245.66833l18.897644 0l0 18.897644l-18.897644 0z" fill-rule="evenodd"/><path stroke="#f3f3f3" stroke-width="1.0" stroke-linejoin="round" stroke-linecap="butt" d="m132.53873 245.66833l18.897644 0l0 18.897644l-18.897644 0z" fill-rule="evenodd"/><path fill="#000000" fill-opacity="0.0" d="m151.66508 245.66833l18.897644 0l0 18.897644l-18.897644 0z" fill-rule="evenodd"/><path stroke="#f3f3f3" stroke-width="1.0" stroke-linejoin="round" stroke-linecap="butt" d="m151.66508 245.66833l18.897644 0l0 18.897644l-18.897644 0z" fill-rule="evenodd"/><path fill="#000000" fill-opacity="0.0" d="m18.897638 282.66238l18.897638 0l0 18.897644l-18.897638 0z" fill-rule="evenodd"/><path stroke="#f3f3f3" stroke-width="1.0" stroke-linejoin="round" stroke-linecap="butt" d="m18.897638 282.66238l18.897638 0l0 18.897644l-18.897638 0z" fill-rule="evenodd"/><path fill="#000000" fill-opacity="0.0" d="m18.897638 301.55246l18.897638 0l0 18.897644l-18.897638 0z" fill-rule="evenodd"/><path stroke="#f3f3f3" stroke-width="1.0" stroke-linejoin="round" stroke-linecap="butt" d="m18.897638 301.55246l18.897638 0l0 18.897644l-18.897638 0z" fill-rule="evenodd"/><path fill="#000000" fill-opacity="0.0" d="m0 263.7723l18.897638 0l0 18.897644l-18.897638 0z" fill-rule="evenodd"/><path stroke="#f3f3f3" stroke-width="1.0" stroke-linejoin="round" stroke-linecap="butt" d="m0 263.7723l18.897638 0l0 18.897644l-18.897638 0z" fill-rule="evenodd"/><path fill="#000000" fill-opacity="0.0" d="m0 282.66238l18.897638 0l0 18.897644l-18.897638 0z" fill-rule="evenodd"/><path stroke="#f3f3f3" stroke-width="1.0" stroke-linejoin="round" stroke-linecap="butt" d="m0 282.66238l18.897638 0l0 18.897644l-18.897638 0z" fill-rule="evenodd"/><path fill="#000000" fill-opacity="0.0" d="m0 301.55246l18.897638 0l0 18.897644l-18.897638 0z" fill-rule="evenodd"/><path stroke="#f3f3f3" stroke-width="1.0" stroke-linejoin="round" stroke-linecap="butt" d="m0 301.55246l18.897638 0l0 18.897644l-18.897638 0z" fill-rule="evenodd"/><path fill="#000000" fill-opacity="0.0" d="m18.897638 263.7723l18.897638 0l0 18.897644l-18.897638 0z" fill-rule="evenodd"/><path stroke="#f3f3f3" stroke-width="1.0" stroke-linejoin="round" stroke-linecap="butt" d="m18.897638 263.7723l18.897638 0l0 18.897644l-18.897638 0z" fill-rule="evenodd"/><path fill="#000000" fill-opacity="0.0" d="m37.795277 263.7723l18.897636 0l0 18.897644l-18.897636 0z" fill-rule="evenodd"/><path stroke="#f3f3f3" stroke-width="1.0" stroke-linejoin="round" stroke-linecap="butt" d="m37.795277 263.7723l18.897636 0l0 18.897644l-18.897636 0z" fill-rule="evenodd"/><path fill="#000000" fill-opacity="0.0" d="m37.795277 282.66238l18.897636 0l0 18.897644l-18.897636 0z" fill-rule="evenodd"/><path stroke="#f3f3f3" stroke-width="1.0" stroke-linejoin="round" stroke-linecap="butt" d="m37.795277 282.66238l18.897636 0l0 18.897644l-18.897636 0z" fill-rule="evenodd"/><path fill="#000000" fill-opacity="0.0" d="m37.795277 301.55246l18.897636 0l0 18.897644l-18.897636 0z" fill-rule="evenodd"/><path stroke="#f3f3f3" stroke-width="1.0" stroke-linejoin="round" stroke-linecap="butt" d="m37.795277 301.55246l18.897636 0l0 18.897644l-18.897636 0z" fill-rule="evenodd"/><path fill="#000000" fill-opacity="0.0" d="m56.692913 263.7723l18.89764 0l0 18.897644l-18.89764 0z" fill-rule="evenodd"/><path stroke="#f3f3f3" stroke-width="1.0" stroke-linejoin="round" stroke-linecap="butt" d="m56.692913 263.7723l18.89764 0l0 18.897644l-18.89764 0z" fill-rule="evenodd"/><path fill="#000000" fill-opacity="0.0" d="m56.692913 282.66238l18.89764 0l0 18.897644l-18.89764 0z" fill-rule="evenodd"/><path stroke="#f3f3f3" stroke-width="1.0" stroke-linejoin="round" stroke-linecap="butt" d="m56.692913 282.66238l18.89764 0l0 18.897644l-18.89764 0z" fill-rule="evenodd"/><path fill="#000000" fill-opacity="0.0" d="m56.692913 301.55246l18.89764 0l0 18.897644l-18.89764 0z" fill-rule="evenodd"/><path stroke="#f3f3f3" stroke-width="1.0" stroke-linejoin="round" stroke-linecap="butt" d="m56.692913 301.55246l18.89764 0l0 18.897644l-18.89764 0z" fill-rule="evenodd"/><path fill="#000000" fill-opacity="0.0" d="m75.59055 263.7723l18.897636 0l0 18.897644l-18.897636 0z" fill-rule="evenodd"/><path stroke="#f3f3f3" stroke-width="1.0" stroke-linejoin="round" stroke-linecap="butt" d="m75.59055 263.7723l18.897636 0l0 18.897644l-18.897636 0z" fill-rule="evenodd"/><path fill="#000000" fill-opacity="0.0" d="m75.59055 282.66238l18.897636 0l0 18.897644l-18.897636 0z" fill-rule="evenodd"/><path stroke="#f3f3f3" stroke-width="1.0" stroke-linejoin="round" stroke-linecap="butt" d="m75.59055 282.66238l18.897636 0l0 18.897644l-18.897636 0z" fill-rule="evenodd"/><path fill="#000000" fill-opacity="0.0" d="m75.59055 301.55246l18.897636 0l0 18.897644l-18.897636 0z" fill-rule="evenodd"/><path stroke="#f3f3f3" stroke-width="1.0" stroke-linejoin="round" stroke-linecap="butt" d="m75.59055 301.55246l18.897636 0l0 18.897644l-18.897636 0z" fill-rule="evenodd"/><path fill="#000000" fill-opacity="0.0" d="m94.48819 263.7723l18.897636 0l0 18.897644l-18.897636 0z" fill-rule="evenodd"/><path stroke="#f3f3f3" stroke-width="1.0" stroke-linejoin="round" stroke-linecap="butt" d="m94.48819 263.7723l18.897636 0l0 18.897644l-18.897636 0z" fill-rule="evenodd"/><path fill="#000000" fill-opacity="0.0" d="m94.48819 282.66238l18.897636 0l0 18.897644l-18.897636 0z" fill-rule="evenodd"/><path stroke="#f3f3f3" stroke-width="1.0" stroke-linejoin="round" stroke-linecap="butt" d="m94.48819 282.66238l18.897636 0l0 18.897644l-18.897636 0z" fill-rule="evenodd"/><path fill="#000000" fill-opacity="0.0" d="m94.48819 301.55246l18.897636 0l0 18.897644l-18.897636 0z" fill-rule="evenodd"/><path stroke="#f3f3f3" stroke-width="1.0" stroke-linejoin="round" stroke-linecap="butt" d="m94.48819 301.55246l18.897636 0l0 18.897644l-18.897636 0z" fill-rule="evenodd"/><path fill="#000000" fill-opacity="0.0" d="m113.385826 263.7723l18.897636 0l0 18.897644l-18.897636 0z" fill-rule="evenodd"/><path stroke="#f3f3f3" stroke-width="1.0" stroke-linejoin="round" stroke-linecap="butt" d="m113.385826 263.7723l18.897636 0l0 18.897644l-18.897636 0z" fill-rule="evenodd"/><path fill="#000000" fill-opacity="0.0" d="m113.385826 282.66238l18.897636 0l0 18.897644l-18.897636 0z" fill-rule="evenodd"/><path stroke="#f3f3f3" stroke-width="1.0" stroke-linejoin="round" stroke-linecap="butt" d="m113.385826 282.66238l18.897636 0l0 18.897644l-18.897636 0z" fill-rule="evenodd"/><path fill="#000000" fill-opacity="0.0" d="m113.385826 301.55246l18.897636 0l0 18.897644l-18.897636 0z" fill-rule="evenodd"/><path stroke="#f3f3f3" stroke-width="1.0" stroke-linejoin="round" stroke-linecap="butt" d="m113.385826 301.55246l18.897636 0l0 18.897644l-18.897636 0z" fill-rule="evenodd"/><path fill="#000000" fill-opacity="0.0" d="m132.28346 263.7723l18.897644 0l0 18.897644l-18.897644 0z" fill-rule="evenodd"/><path stroke="#f3f3f3" stroke-width="1.0" stroke-linejoin="round" stroke-linecap="butt" d="m132.28346 263.7723l18.897644 0l0 18.897644l-18.897644 0z" fill-rule="evenodd"/><path fill="#000000" fill-opacity="0.0" d="m132.28346 282.66238l18.897644 0l0 18.897644l-18.897644 0z" fill-rule="evenodd"/><path stroke="#f3f3f3" stroke-width="1.0" stroke-linejoin="round" stroke-linecap="butt" d="m132.28346 282.66238l18.897644 0l0 18.897644l-18.897644 0z" fill-rule="evenodd"/><path fill="#000000" fill-opacity="0.0" d="m132.28346 301.55246l18.897644 0l0 18.897644l-18.897644 0z" fill-rule="evenodd"/><path stroke="#f3f3f3" stroke-width="1.0" stroke-linejoin="round" stroke-linecap="butt" d="m132.28346 301.55246l18.897644 0l0 18.897644l-18.897644 0z" fill-rule="evenodd"/><path fill="#000000" fill-opacity="0.0" d="m151.40982 263.7723l18.897629 0l0 18.897644l-18.897629 0z" fill-rule="evenodd"/><path stroke="#f3f3f3" stroke-width="1.0" stroke-linejoin="round" stroke-linecap="butt" d="m151.40982 263.7723l18.897629 0l0 18.897644l-18.897629 0z" fill-rule="evenodd"/><path fill="#000000" fill-opacity="0.0" d="m151.40982 282.66238l18.897629 0l0 18.897644l-18.897629 0z" fill-rule="evenodd"/><path stroke="#f3f3f3" stroke-width="1.0" stroke-linejoin="round" stroke-linecap="butt" d="m151.40982 282.66238l18.897629 0l0 18.897644l-18.897629 0z" fill-rule="evenodd"/><path fill="#000000" fill-opacity="0.0" d="m151.40982 301.55246l18.897629 0l0 18.897644l-18.897629 0z" fill-rule="evenodd"/><path stroke="#f3f3f3" stroke-width="1.0" stroke-linejoin="round" stroke-linecap="butt" d="m151.40982 301.55246l18.897629 0l0 18.897644l-18.897629 0z" fill-rule="evenodd"/><path fill="#ffffff" d="m18.897638 116.053l264.56693 0l0 37.79528l-264.56693 0z" fill-rule="evenodd"/><path stroke="#cccccc" stroke-width="1.0" stroke-linejoin="round" stroke-linecap="butt" d="m18.897638 116.053l264.56693 0l0 37.79528l-264.56693 0z" fill-rule="evenodd"/><path fill="#000000" fill-opacity="0.0" d="m39.2493 56.46361l223.2756 0" fill-rule="evenodd"/><path stroke="#434343" stroke-width="1.0" stroke-linejoin="round" stroke-linecap="butt" d="m39.2493 56.46361l217.2756 0" fill-rule="evenodd"/><path fill="#434343" stroke="#434343" stroke-width="1.0" stroke-linecap="butt" d="m256.5249 58.115345l4.538086 -1.6517334l-4.538086 -1.6517296z" fill-rule="evenodd"/><path fill="#89c540" d="m134.69392 57.220226l0 0c0 -10.436878 8.460754 -18.89764 18.897629 -18.89764l0 0c5.011978 0 9.818665 1.9909973 13.362656 5.534992c3.543991 3.543991 5.5349884 8.350681 5.5349884 13.362648l0 0c0 10.436878 -8.460754 18.897633 -18.897644 18.897633l0 0c-10.436874 0 -18.897629 -8.460754 -18.897629 -18.897633z" fill-rule="evenodd"/><path fill="#000000" fill-opacity="0.0" d="m39.2493 211.92555l223.2756 0" fill-rule="evenodd"/><path stroke="#434343" stroke-width="1.0" stroke-linejoin="round" stroke-linecap="butt" d="m39.2493 211.92555l217.2756 0" fill-rule="evenodd"/><path fill="#434343" stroke="#434343" stroke-width="1.0" stroke-linecap="butt" d="m256.5249 213.57727l4.538086 -1.6517181l-4.538086 -1.6517334z" fill-rule="evenodd"/><path fill="#89c540" d="m134.69392 212.68176l0 0c0 -10.436874 8.460754 -18.897644 18.897629 -18.897644l0 0c5.011978 0 9.818665 1.9909973 13.362656 5.5350037c3.543991 3.543991 5.5349884 8.3506775 5.5349884 13.36264l0 0c0 10.436874 -8.460754 18.897644 -18.897644 18.897644l0 0c-10.436874 0 -18.897629 -8.46077 -18.897629 -18.897644z" fill-rule="evenodd"/><path fill="#000000" fill-opacity="0.0" d="m153.59155 173.04044c0 12.5000305 15.85347 30.399384 27.74405 25.000061c11.890579 -5.3993225 19.818283 -34.097336 27.744034 -62.795334c7.925766 -28.698013 15.849579 -57.39602 27.736282 -62.79534c11.886688 -5.39933 27.736267 12.5000305 27.736267 25.000061" fill-rule="evenodd"/><path stroke="#434343" stroke-width="1.0" stroke-linejoin="round" stroke-linecap="butt" stroke-dasharray="4.0,3.0" d="m153.59155 173.04044c0 12.500015 15.85347 30.399384 27.74405 25.000061c11.890564 -5.3993225 19.818283 -34.09732 27.744034 -62.795334c7.9257507 -28.698013 15.849579 -57.39602 27.736282 -62.79534c5.943344 -2.699669 12.877411 0.42534637 18.325653 5.787773c2.7240906 2.6812134 5.076782 5.9217834 6.7483826 9.273293c0.4179077 0.837883 0.7932739 1.6827011 1.1212158 2.5274353c0.16394043 0.42237854 0.31607056 0.84472656 0.4557495 1.2661896l0.07489014 0.23105621" fill-rule="evenodd"/><path fill="#434343" stroke="#434343" stroke-width="1.0" stroke-linecap="butt" d="m261.91367 91.81371l2.392334 4.1951447l0.86395264 -4.7514343z" fill-rule="evenodd"/><path fill="#89c540" d="m245.66899 57.220226l0 0c0 -10.436878 8.460754 -18.89764 18.897629 -18.89764l0 0c5.011963 0 9.818665 1.9909973 13.36264 5.534992c3.5440063 3.543991 5.5350037 8.350681 5.5350037 13.362648l0 0c0 10.436878 -8.460754 18.897633 -18.897644 18.897633l0 0c-10.436874 0 -18.897629 -8.460754 -18.897629 -18.897633z" fill-rule="evenodd"/><path fill="#89c540" d="m245.66899 212.68176l0 0c0 -10.436874 8.460754 -18.897644 18.897629 -18.897644l0 0c5.011963 0 9.818665 1.9909973 13.36264 5.5350037c3.5440063 3.543991 5.5350037 8.3506775 5.5350037 13.36264l0 0c0 10.436874 -8.460754 18.897644 -18.897644 18.897644l0 0c-10.436874 0 -18.897629 -8.46077 -18.897629 -18.897644z" fill-rule="evenodd"/><path fill="#000000" fill-opacity="0.0" d="m262.51938 76.11484l2.0472412 117.66928" fill-rule="evenodd"/><path stroke="#434343" stroke-width="1.0" stroke-linejoin="round" stroke-linecap="butt" stroke-dasharray="4.0,3.0" d="m262.51938 76.11484l1.9428711 111.67018" fill-rule="evenodd"/><path fill="#434343" stroke="#434343" stroke-width="1.0" stroke-linecap="butt" d="m262.81076 187.81377l1.7304382 4.508667l1.5725403 -4.5661316z" fill-rule="evenodd"/><path fill="#ffcb21" d="m245.66899 116.34752l0 0c0 -10.436874 8.460754 -18.897636 18.897629 -18.897636l0 0c5.011963 0 9.818665 1.9909973 13.36264 5.5349884c3.5440063 3.5439987 5.5350037 8.350685 5.5350037 13.362648l0 0c0 10.436882 -8.460754 18.897644 -18.897644 18.897644l0 0c-10.436874 0 -18.897629 -8.460762 -18.897629 -18.897644z" fill-rule="evenodd"/><path fill="#000000" fill-opacity="0.0" d="m153.59155 76.11786l0 117.6693" fill-rule="evenodd"/><path stroke="#434343" stroke-width="1.0" stroke-linejoin="round" stroke-linecap="butt" stroke-dasharray="4.0,3.0" d="m153.59155 76.11787l0 111.66929" fill-rule="evenodd"/><path fill="#434343" stroke="#434343" stroke-width="1.0" stroke-linecap="butt" d="m151.93982 187.78716l1.6517334 4.538101l1.6517334 -4.538101z" fill-rule="evenodd"/><path fill="#ffcb21" d="m134.69392 154.14279l0 0c0 -10.436874 8.460754 -18.897629 18.897629 -18.897629l0 0c5.011978 0 9.818665 1.9909973 13.362656 5.5349884c3.543991 3.543991 5.5349884 8.3506775 5.5349884 13.36264l0 0c0 10.436874 -8.460754 18.897644 -18.897644 18.897644l0 0c-10.436874 0 -18.897629 -8.46077 -18.897629 -18.897644z" fill-rule="evenodd"/><path fill="#ffcb21" d="m18.898647 154.14279l0 0c0 -10.436874 8.46076 -18.897629 18.897636 -18.897629l0 0c5.0119667 0 9.818653 1.9909973 13.362648 5.5349884c3.543995 3.543991 5.534992 8.3506775 5.534992 13.36264l0 0c0 10.436874 -8.460762 18.897644 -18.89764 18.897644l0 0c-10.436876 0 -18.897636 -8.46077 -18.897636 -18.897644z" fill-rule="evenodd"/><path fill="#000000" fill-opacity="0.0" d="m37.796284 135.24516c0 -32.500076 25.6063 -60.693054 51.212597 -65.000145c25.6063 -4.307083 51.2126 15.2717285 51.2126 30.54345" fill-rule="evenodd"/><path stroke="#434343" stroke-width="1.0" stroke-linejoin="round" stroke-linecap="butt" stroke-dasharray="4.0,3.0" d="m37.796284 135.24516c0 -32.500076 25.6063 -60.69306 51.212597 -65.000145c12.803146 -2.1535416 25.6063 1.6643906 35.208656 7.9296722c4.8011856 3.132637 8.802162 6.8771133 11.602852 10.792923c0.70018005 0.9789505 1.3253326 1.968605 1.8692169 2.962082c0.27194214 0.49674988 0.5235596 0.9944458 0.75408936 1.4922409c0.11526489 0.24889374 0.22525024 0.497818 0.3298645 0.7466507c0.05230713 0.124420166 0.103271484 0.24881744 0.15289307 0.3731842l0.13934326 0.35904694" fill-rule="evenodd"/><path fill="#434343" stroke="#434343" stroke-width="1.0" stroke-linecap="butt" d="m137.44499 95.21897l2.4949036 4.1349716l0.7467041 -4.7712708z" fill-rule="evenodd"/><path fill="#ffcb21" d="m134.69392 114.1428l0 0c0 -10.436882 8.460754 -18.897644 18.897629 -18.897644l0 0c5.011978 0 9.818665 1.9909973 13.362656 5.534996c3.543991 3.543991 5.5349884 8.3506775 5.5349884 13.362648l0 0c0 10.436874 -8.460754 18.897636 -18.897644 18.897636l0 0c-10.436874 0 -18.897629 -8.460762 -18.897629 -18.897636z" fill-rule="evenodd"/></g></svg>