<svg version="1.1" viewBox="0.0 0.0 340.15748031496065 359.0551181102362" fill="none" stroke="none" stroke-linecap="square" stroke-miterlimit="10" xmlns:xlink="http://www.w3.org/1999/xlink" xmlns="http://www.w3.org/2000/svg"><clipPath id="p.0"><path d="m0 0l340.15747 0l0 359.0551l-340.15747 0l0 -359.0551z" clip-rule="nonzero"/></clipPath><g clip-path="url(#p.0)"><path fill="#000000" fill-opacity="0.0" d="m0 0l340.15747 0l0 359.0551l-340.15747 0z" fill-rule="evenodd"/><path fill="#000000" fill-opacity="0.0" d="m0 18.897638l340.15747 0" fill-rule="evenodd"/><path stroke="#434343" stroke-width="1.0" stroke-linejoin="round" stroke-linecap="butt" d="m0 18.897638l334.15747 0" fill-rule="evenodd"/><path fill="#434343" stroke="#434343" stroke-width="1.0" stroke-linecap="butt" d="m334.15747 20.54937l4.5381165 -1.6517315l-4.5381165 -1.6517334z" fill-rule="evenodd"/><path fill="#000000" fill-opacity="0.0" d="m0 141.95276l340.15747 0" fill-rule="evenodd"/><path stroke="#434343" stroke-width="1.0" stroke-linejoin="round" stroke-linecap="butt" d="m0 141.95276l334.15747 0" fill-rule="evenodd"/><path fill="#434343" stroke="#434343" stroke-width="1.0" stroke-linecap="butt" d="m334.15747 143.60449l4.5381165 -1.6517334l-4.5381165 -1.6517334z" fill-rule="evenodd"/><path fill="#6aa84f" d="m26.204725 6.2992125l0 0c0 -3.4789588 2.8202534 -6.2992125 6.2992115 -6.2992125l25.19685 0l0 0c1.6706543 0 3.2728844 0.6636651 4.454216 1.8449967c1.1813316 1.1813314 1.8449974 2.783561 1.8449974 4.454216l0 25.19685c0 3.4789581 -2.8202553 6.2992134 -6.2992134 6.2992134l-25.19685 0c-3.4789581 0 -6.2992115 -2.8202553 -6.2992115 -6.2992134z" fill-rule="evenodd"/><path fill="#ffffff" d="m46.988953 25.817636l-2.5625 0l0 -10.171875l-3.34375 1.203125l0 -2.203125l5.765625 -2.09375l0.140625 0l0 13.265625z" fill-rule="nonzero"/><path fill="#000000" fill-opacity="0.0" d="m120.69292 37.795277l0 85.03937" fill-rule="evenodd"/><path stroke="#cccccc" stroke-width="1.0" stroke-linejoin="round" stroke-linecap="butt" stroke-dasharray="4.0,3.0" d="m120.69292 37.795277l0 79.03937" fill-rule="evenodd"/><path fill="#cccccc" stroke="#cccccc" stroke-width="1.0" stroke-linecap="butt" d="m119.04118 116.83465l1.6517334 4.5380936l1.6517258 -4.5380936z" fill-rule="evenodd"/><path fill="#000000" fill-opacity="0.0" d="m45.102364 37.795277l0 85.03937" fill-rule="evenodd"/><path stroke="#434343" stroke-width="1.0" stroke-linejoin="round" stroke-linecap="butt" stroke-dasharray="4.0,3.0" d="m45.102364 37.795277l0 79.03937" fill-rule="evenodd"/><path fill="#434343" stroke="#434343" stroke-width="1.0" stroke-linecap="butt" d="m43.45063 116.83465l1.6517334 4.5380936l1.6517296 -4.5380936z" fill-rule="evenodd"/><path fill="#cccccc" d="m101.79527 6.2992125l0 0c0 -3.4789588 2.820259 -6.2992125 6.299217 -6.2992125l25.196846 0l0 0c1.6706543 0 3.2728882 0.6636651 4.4542236 1.8449967c1.1813202 1.1813314 1.844986 2.783561 1.844986 4.454216l0 25.19685c0 3.4789581 -2.8202515 6.2992134 -6.2992096 6.2992134l-25.196846 0c-3.4789581 0 -6.299217 -2.8202553 -6.299217 -6.2992134z" fill-rule="evenodd"/><path fill="#ffffff" d="m125.017006 20.770761q0 1.28125 -0.296875 2.265625q-0.296875 0.984375 -0.859375 1.640625q-0.546875 0.65625 -1.359375 1.0q-0.796875 0.328125 -1.796875 0.328125q-0.984375 0 -1.796875 -0.328125q-0.796875 -0.34375 -1.359375 -1.0q-0.5625 -0.65625 -0.875 -1.640625q-0.296875 -0.984375 -0.296875 -2.265625l0 -3.171875q0 -1.28125 0.296875 -2.25q0.3125 -0.984375 0.859375 -1.640625q0.5625 -0.671875 1.359375 -1.0q0.796875 -0.34375 1.796875 -0.34375q1.0 0 1.796875 0.34375q0.8125 0.328125 1.359375 1.0q0.5625 0.65625 0.859375 1.640625q0.3125 0.96875 0.3125 2.25l0 3.171875zm-6.09375 -1.09375l3.546875 -2.625q-0.03125 -1.34375 -0.46875 -1.984375q-0.4375 -0.65625 -1.3125 -0.65625q-0.890625 0 -1.328125 0.6875q-0.4375 0.6875 -0.4375 2.09375l0 2.484375zm3.546875 -0.90625l-3.546875 2.625q0.046875 1.3125 0.484375 1.953125q0.4375 0.625 1.296875 0.625q0.890625 0 1.328125 -0.6875q0.4375 -0.703125 0.4375 -2.140625l0 -2.375z" fill-rule="nonzero"/><path fill="#cccccc" d="m101.79527 129.13387l0 0c0 -3.4789658 2.820259 -6.299217 6.299217 -6.299217l25.196846 0l0 0c1.6706543 0 3.2728882 0.6636658 4.4542236 1.8449936c1.1813202 1.1813354 1.844986 2.7835617 1.844986 4.4542236l0 25.196838c0 3.4789581 -2.8202515 6.299225 -6.2992096 6.299225l-25.196846 0c-3.4789581 0 -6.299217 -2.8202667 -6.299217 -6.299225z" fill-rule="evenodd"/><path fill="#ffffff" d="m125.017006 143.60541q0 1.28125 -0.296875 2.265625q-0.296875 0.984375 -0.859375 1.640625q-0.546875 0.65625 -1.359375 1.0q-0.796875 0.328125 -1.796875 0.328125q-0.984375 0 -1.796875 -0.328125q-0.796875 -0.34375 -1.359375 -1.0q-0.5625 -0.65625 -0.875 -1.640625q-0.296875 -0.984375 -0.296875 -2.265625l0 -3.171875q0 -1.28125 0.296875 -2.25q0.3125 -0.984375 0.859375 -1.640625q0.5625 -0.671875 1.359375 -1.0q0.796875 -0.34375 1.796875 -0.34375q1.0 0 1.796875 0.34375q0.8125 0.328125 1.359375 1.0q0.5625 0.65625 0.859375 1.640625q0.3125 0.96875 0.3125 2.25l0 3.171875zm-6.09375 -1.09375l3.546875 -2.625q-0.03125 -1.34375 -0.46875 -1.984375q-0.4375 -0.65625 -1.3125 -0.65625q-0.890625 0 -1.328125 0.6875q-0.4375 0.6875 -0.4375 2.09375l0 2.484375zm3.546875 -0.90625l-3.546875 2.625q0.046875 1.3125 0.484375 1.953125q0.4375 0.625 1.296875 0.625q0.890625 0 1.328125 -0.6875q0.4375 -0.703125 0.4375 -2.140625l0 -2.375z" fill-rule="nonzero"/><path fill="#6aa84f" d="m26.204725 129.13387l0 0c0 -3.4789658 2.8202534 -6.299217 6.2992115 -6.299217l25.19685 0l0 0c1.6706543 0 3.2728844 0.6636658 4.454216 1.8449936c1.1813316 1.1813354 1.8449974 2.7835617 1.8449974 4.4542236l0 25.196838c0 3.4789581 -2.8202553 6.299225 -6.2992134 6.299225l-25.19685 0c-3.4789581 0 -6.2992115 -2.8202667 -6.2992115 -6.299225z" fill-rule="evenodd"/><path fill="#ffffff" d="m46.988953 148.65228l-2.5625 0l0 -10.171875l-3.34375 1.203125l0 -2.203125l5.765625 -2.09375l0.140625 0l0 13.265625z" fill-rule="nonzero"/><path fill="#ffffff" d="m0 180.72409l340.15747 0l0 113.38583l-340.15747 0z" fill-rule="evenodd"/><path stroke="#000000" stroke-width="1.0" stroke-linejoin="round" stroke-linecap="butt" d="m0 180.72409l340.15747 0l0 113.38583l-340.15747 0z" fill-rule="evenodd"/><path fill="#000000" fill-opacity="0.0" d="m0 340.15747l336.8504 0" fill-rule="evenodd"/><path stroke="#434343" stroke-width="1.0" stroke-linejoin="round" stroke-linecap="butt" d="m0 340.15747l330.8504 0" fill-rule="evenodd"/><path fill="#434343" stroke="#434343" stroke-width="1.0" stroke-linecap="butt" d="m330.8504 341.8092l4.538086 -1.6517334l-4.538086 -1.6517334z" fill-rule="evenodd"/><path fill="#000000" fill-opacity="0.0" d="m196.28346 160.62993l0 85.73227" fill-rule="evenodd"/><path stroke="#434343" stroke-width="1.0" stroke-linejoin="round" stroke-linecap="butt" stroke-dasharray="4.0,3.0" d="m196.28346 160.62993l0 79.73227" fill-rule="evenodd"/><path fill="#434343" stroke="#434343" stroke-width="1.0" stroke-linecap="butt" d="m194.63173 240.3622l1.6517334 4.538101l1.6517334 -4.538101z" fill-rule="evenodd"/><path fill="#000000" fill-opacity="0.0" d="m45.102364 160.62993l0 37.73227" fill-rule="evenodd"/><path stroke="#434343" stroke-width="1.0" stroke-linejoin="round" stroke-linecap="butt" stroke-dasharray="4.0,3.0" d="m45.102364 160.62993l0 31.73227" fill-rule="evenodd"/><path fill="#434343" stroke="#434343" stroke-width="1.0" stroke-linecap="butt" d="m43.45063 192.3622l1.6517334 4.538101l1.6517296 -4.538101z" fill-rule="evenodd"/><path fill="#000000" fill-opacity="0.0" d="m26.204725 217.24672l298.5827 0" fill-rule="evenodd"/><path stroke="#434343" stroke-width="1.0" stroke-linejoin="round" stroke-linecap="butt" d="m26.204725 217.24672l292.5827 0" fill-rule="evenodd"/><path fill="#434343" stroke="#434343" stroke-width="1.0" stroke-linecap="butt" d="m318.7874 218.89845l4.538086 -1.6517334l-4.538086 -1.6517334z" fill-rule="evenodd"/><path fill="#6734ba" d="m26.204725 198.34908l37.795273 0l0 37.795288l-37.795273 0z" fill-rule="evenodd"/><path fill="#ffffff" d="m43.67736 222.38547q-0.703125 0 -1.265625 -0.21875q-0.5625 -0.203125 -0.953125 -0.578125q-0.390625 -0.390625 -0.609375 -0.890625q-0.203125 -0.515625 -0.203125 -1.109375q0 -0.78125 0.328125 -1.359375q0.34375 -0.59375 1.078125 -1.0q0.734375 -0.421875 1.890625 -0.671875q1.15625 -0.25 2.796875 -0.34375q-0.078125 -0.625 -0.546875 -0.984375q-0.46875 -0.359375 -1.421875 -0.359375q-0.671875 0 -1.359375 0.234375q-0.671875 0.234375 -1.46875 0.625l-0.96875 -1.796875q0.953125 -0.53125 2.046875 -0.890625q1.09375 -0.359375 2.28125 -0.359375q1.953125 0 3.0625 1.03125q1.125 1.03125 1.125 3.15625l0 5.296875l-2.234375 0l-0.21875 -1.046875l-0.0625 0q-0.71875 0.546875 -1.5625 0.90625q-0.828125 0.359375 -1.734375 0.359375zm0.890625 -2.125q0.609375 0 1.140625 -0.25q0.546875 -0.25 1.03125 -0.625l0 -1.53125q-1.015625 0.0625 -1.6875 0.1875q-0.671875 0.125 -1.078125 0.328125q-0.390625 0.203125 -0.546875 0.46875q-0.15625 0.25 -0.15625 0.546875q0 0.453125 0.34375 0.671875q0.34375 0.203125 0.953125 0.203125z" fill-rule="nonzero"/><path fill="#6734ba" d="m26.204725 321.25986l37.795273 0l0 37.795258l-37.795273 0z" fill-rule="evenodd"/><path fill="#ffffff" d="m43.67736 345.29623q-0.703125 0 -1.265625 -0.21875q-0.5625 -0.203125 -0.953125 -0.578125q-0.390625 -0.390625 -0.609375 -0.890625q-0.203125 -0.515625 -0.203125 -1.109375q0 -0.78125 0.328125 -1.359375q0.34375 -0.59375 1.078125 -1.0q0.734375 -0.421875 1.890625 -0.671875q1.15625 -0.25 2.796875 -0.34375q-0.078125 -0.625 -0.546875 -0.984375q-0.46875 -0.359375 -1.421875 -0.359375q-0.671875 0 -1.359375 0.234375q-0.671875 0.234375 -1.46875 0.625l-0.96875 -1.796875q0.953125 -0.53125 2.046875 -0.890625q1.09375 -0.359375 2.28125 -0.359375q1.953125 0 3.0625 1.03125q1.125 1.03125 1.125 3.15625l0 5.296875l-2.234375 0l-0.21875 -1.046875l-0.0625 0q-0.71875 0.546875 -1.5625 0.90625q-0.828125 0.359375 -1.734375 0.359375zm0.890625 -2.125q0.609375 0 1.140625 -0.25q0.546875 -0.25 1.03125 -0.625l0 -1.53125q-1.015625 0.0625 -1.6875 0.1875q-0.671875 0.125 -1.078125 0.328125q-0.390625 0.203125 -0.546875 0.46875q-0.15625 0.25 -0.15625 0.546875q0 0.453125 0.34375 0.671875q0.34375 0.203125 0.953125 0.203125z" fill-rule="nonzero"/><path fill="#000000" fill-opacity="0.0" d="m45.102364 236.14436l0 85.10234" fill-rule="evenodd"/><path stroke="#434343" stroke-width="1.0" stroke-linejoin="round" stroke-linecap="butt" stroke-dasharray="4.0,3.0" d="m45.102364 236.14436l0 79.10234" fill-rule="evenodd"/><path fill="#434343" stroke="#434343" stroke-width="1.0" stroke-linecap="butt" d="m43.45063 315.24673l1.6517334 4.538086l1.6517296 -4.538086z" fill-rule="evenodd"/><path fill="#6734ba" d="m139.59055 198.34908l37.795288 0l0 37.795288l-37.795288 0z" fill-rule="evenodd"/><path fill="#ffffff" d="m159.20381 222.38547q-0.65625 0 -1.3125 -0.3125q-0.640625 -0.3125 -1.21875 -0.90625l-0.0625 0l-0.234375 1.0l-2.140625 0l0 -13.078125l2.734375 0l0 3.203125l-0.078125 1.46875l0.046875 0q0.53125 -0.515625 1.1875 -0.796875q0.671875 -0.28125 1.34375 -0.28125q0.859375 0 1.5625 0.34375q0.703125 0.328125 1.171875 0.9375q0.484375 0.609375 0.734375 1.484375q0.265625 0.859375 0.265625 1.921875q0 1.203125 -0.34375 2.140625q-0.328125 0.921875 -0.890625 1.5625q-0.546875 0.640625 -1.265625 0.984375q-0.71875 0.328125 -1.5 0.328125zm-0.625 -2.234375q0.765625 0 1.28125 -0.640625q0.53125 -0.640625 0.53125 -2.078125q0 -2.5 -1.703125 -2.5q-0.875 0 -1.71875 0.859375l0 3.75q0.40625 0.328125 0.8125 0.46875q0.421875 0.140625 0.796875 0.140625z" fill-rule="nonzero"/><path fill="#6734ba" d="m139.59055 321.25986l37.795288 0l0 37.795258l-37.795288 0z" fill-rule="evenodd"/><path fill="#ffffff" d="m157.06319 345.29623q-0.703125 0 -1.265625 -0.21875q-0.5625 -0.203125 -0.953125 -0.578125q-0.390625 -0.390625 -0.609375 -0.890625q-0.203125 -0.515625 -0.203125 -1.109375q0 -0.78125 0.328125 -1.359375q0.34375 -0.59375 1.078125 -1.0q0.734375 -0.421875 1.890625 -0.671875q1.15625 -0.25 2.796875 -0.34375q-0.078125 -0.625 -0.546875 -0.984375q-0.46875 -0.359375 -1.421875 -0.359375q-0.671875 0 -1.359375 0.234375q-0.671875 0.234375 -1.46875 0.625l-0.96875 -1.796875q0.953125 -0.53125 2.046875 -0.890625q1.09375 -0.359375 2.28125 -0.359375q1.953125 0 3.0625 1.03125q1.125 1.03125 1.125 3.15625l0 5.296875l-2.234375 0l-0.21875 -1.046875l-0.0625 0q-0.71875 0.546875 -1.5625 0.90625q-0.828125 0.359375 -1.734375 0.359375zm0.890625 -2.125q0.609375 0 1.140625 -0.25q0.546875 -0.25 1.03125 -0.625l0 -1.53125q-1.015625 0.0625 -1.6875 0.1875q-0.671875 0.125 -1.078125 0.328125q-0.390625 0.203125 -0.546875 0.46875q-0.15625 0.25 -0.15625 0.546875q0 0.453125 0.34375 0.671875q0.34375 0.203125 0.953125 0.203125z" fill-rule="nonzero"/><path fill="#000000" fill-opacity="0.0" d="m158.48819 236.14436l0 85.10234" fill-rule="evenodd"/><path stroke="#434343" stroke-width="1.0" stroke-linejoin="round" stroke-linecap="butt" stroke-dasharray="4.0,3.0" d="m158.48819 236.14436l0 79.10234" fill-rule="evenodd"/><path fill="#434343" stroke="#434343" stroke-width="1.0" stroke-linecap="butt" d="m156.83646 315.24673l1.6517334 4.538086l1.6517334 -4.538086z" fill-rule="evenodd"/><path fill="#cccccc" d="m215.25157 198.34908l37.795273 0l0 37.795288l-37.795273 0z" fill-rule="evenodd"/><path fill="#ffffff" d="m234.95857 222.38547q-1.109375 0 -2.046875 -0.3125q-0.921875 -0.328125 -1.625 -0.9375q-0.703125 -0.625 -1.09375 -1.53125q-0.390625 -0.90625 -0.390625 -2.0625q0 -1.15625 0.4375 -2.0625q0.4375 -0.90625 1.171875 -1.515625q0.734375 -0.625 1.703125 -0.953125q0.984375 -0.328125 2.046875 -0.328125q1.09375 0 1.984375 0.359375q0.890625 0.359375 1.484375 0.890625l-1.265625 1.703125q-1.03125 -0.71875 -2.0625 -0.71875q-1.1875 0 -1.9375 0.703125q-0.75 0.703125 -0.75 1.921875q0 1.203125 0.71875 1.921875q0.71875 0.703125 1.875 0.703125q0.734375 0 1.328125 -0.25q0.609375 -0.265625 1.125 -0.625l1.09375 1.734375q-0.84375 0.71875 -1.859375 1.046875q-1.0 0.3125 -1.9375 0.3125z" fill-rule="nonzero"/><path fill="#000000" fill-opacity="0.0" d="m234.1492 236.14436l0 58.61418" fill-rule="evenodd"/><path stroke="#cccccc" stroke-width="1.0" stroke-linejoin="round" stroke-linecap="butt" stroke-dasharray="4.0,3.0" d="m234.1492 236.14436l0 52.61418" fill-rule="evenodd"/><path fill="#cccccc" stroke="#cccccc" stroke-width="1.0" stroke-linecap="butt" d="m232.49747 288.75854l1.6517334 4.538086l1.6517334 -4.538086z" fill-rule="evenodd"/><path fill="#000000" fill-opacity="0.0" d="m177.38583 265.2467l147.40158 0" fill-rule="evenodd"/><path stroke="#434343" stroke-width="1.0" stroke-linejoin="round" stroke-linecap="butt" d="m177.38583 265.2467l141.40158 0" fill-rule="evenodd"/><path fill="#434343" stroke="#434343" stroke-width="1.0" stroke-linecap="butt" d="m318.7874 266.89844l4.538086 -1.6517334l-4.538086 -1.6517029z" fill-rule="evenodd"/><path fill="#ffcb21" d="m177.38583 246.34908l37.795273 0l0 37.795273l-37.795273 0z" fill-rule="evenodd"/><path fill="#ffffff" d="m195.23346 264.01047l-0.28125 1.125l2.5625 0l-0.28125 -1.125q-0.234375 -0.921875 -0.5 -1.9375q-0.265625 -1.015625 -0.46875 -1.984375l-0.078125 0q-0.21875 0.96875 -0.46875 1.984375q-0.234375 1.015625 -0.484375 1.9375zm-4.375 6.15625l3.78125 -12.15625l3.28125 0l3.796875 12.15625l-2.921875 0l-0.71875 -2.890625l-3.671875 0l-0.75 2.890625l-2.796875 0z" fill-rule="nonzero"/><path fill="#ffcb21" d="m253.04684 246.34908l37.795288 0l0 37.795273l-37.795288 0z" fill-rule="evenodd"/><path fill="#ffffff" d="m267.7226 270.16672l0 -12.15625l4.09375 0q0.953125 0 1.765625 0.140625q0.8125 0.125 1.40625 0.484375q0.59375 0.359375 0.9375 0.9375q0.34375 0.578125 0.34375 1.453125q0 0.40625 -0.125 0.828125q-0.109375 0.40625 -0.375 0.765625q-0.265625 0.34375 -0.65625 0.625q-0.390625 0.28125 -0.9375 0.40625l0 0.078125q1.3125 0.25 1.984375 0.9375q0.671875 0.6875 0.671875 1.921875q0 0.921875 -0.359375 1.59375q-0.34375 0.671875 -0.984375 1.125q-0.640625 0.4375 -1.484375 0.65625q-0.84375 0.203125 -1.828125 0.203125l-4.453125 0zm2.75 -7.28125l1.203125 0q1.015625 0 1.453125 -0.390625q0.453125 -0.390625 0.453125 -1.09375q0 -0.671875 -0.453125 -0.953125q-0.453125 -0.296875 -1.421875 -0.296875l-1.234375 0l0 2.734375zm0 5.140625l1.46875 0q2.203125 0 2.203125 -1.640625q0 -0.8125 -0.53125 -1.15625q-0.53125 -0.359375 -1.671875 -0.359375l-1.46875 0l0 3.15625z" fill-rule="nonzero"/><path fill="#000000" fill-opacity="0.0" d="m196.28346 284.14435l0 37.102356" fill-rule="evenodd"/><path stroke="#434343" stroke-width="1.0" stroke-linejoin="round" stroke-linecap="butt" stroke-dasharray="4.0,3.0" d="m196.28346 284.14435l0 31.102356" fill-rule="evenodd"/><path fill="#434343" stroke="#434343" stroke-width="1.0" stroke-linecap="butt" d="m194.63173 315.24673l1.6517334 4.538086l1.6517334 -4.538086z" fill-rule="evenodd"/><path fill="#ffcb21" d="m177.38583 321.25986l37.795273 0l0 37.795258l-37.795273 0z" fill-rule="evenodd"/><path fill="#ffffff" d="m195.23346 338.92123l-0.28125 1.125l2.5625 0l-0.28125 -1.125q-0.234375 -0.921875 -0.5 -1.9375q-0.265625 -1.015625 -0.46875 -1.984375l-0.078125 0q-0.21875 0.96875 -0.46875 1.984375q-0.234375 1.015625 -0.484375 1.9375zm-4.375 6.15625l3.78125 -12.15625l3.28125 0l3.796875 12.15625l-2.921875 0l-0.71875 -2.890625l-3.671875 0l-0.75 2.890625l-2.796875 0z" fill-rule="nonzero"/><path fill="#ffcb21" d="m253.04684 321.25986l37.795288 0l0 37.795258l-37.795288 0z" fill-rule="evenodd"/><path fill="#ffffff" d="m267.7226 345.07748l0 -12.15625l4.09375 0q0.953125 0 1.765625 0.140625q0.8125 0.125 1.40625 0.484375q0.59375 0.359375 0.9375 0.9375q0.34375 0.578125 0.34375 1.453125q0 0.40625 -0.125 0.828125q-0.109375 0.40625 -0.375 0.765625q-0.265625 0.34375 -0.65625 0.625q-0.390625 0.28125 -0.9375 0.40625l0 0.078125q1.3125 0.25 1.984375 0.9375q0.671875 0.6875 0.671875 1.921875q0 0.921875 -0.359375 1.59375q-0.34375 0.671875 -0.984375 1.125q-0.640625 0.4375 -1.484375 0.65625q-0.84375 0.203125 -1.828125 0.203125l-4.453125 0zm2.75 -7.28125l1.203125 0q1.015625 0 1.453125 -0.390625q0.453125 -0.390625 0.453125 -1.09375q0 -0.671875 -0.453125 -0.953125q-0.453125 -0.296875 -1.421875 -0.296875l-1.234375 0l0 2.734375zm0 5.140625l1.46875 0q2.203125 0 2.203125 -1.640625q0 -0.8125 -0.53125 -1.15625q-0.53125 -0.359375 -1.671875 -0.359375l-1.46875 0l0 3.15625z" fill-rule="nonzero"/><path fill="#000000" fill-opacity="0.0" d="m271.9445 284.14435l0 37.102356" fill-rule="evenodd"/><path stroke="#434343" stroke-width="1.0" stroke-linejoin="round" stroke-linecap="butt" stroke-dasharray="4.0,3.0" d="m271.94446 284.14435l0 31.102356" fill-rule="evenodd"/><path fill="#434343" stroke="#434343" stroke-width="1.0" stroke-linecap="butt" d="m270.29272 315.24673l1.6517334 4.538086l1.6517334 -4.538086z" fill-rule="evenodd"/><path fill="#6aa84f" d="m177.38583 6.2992125l0 0c0 -3.4789588 2.8202515 -6.2992125 6.2992096 -6.2992125l25.196854 0l0 0c1.6706543 0 3.272873 0.6636651 4.4542084 1.8449967c1.1813354 1.1813314 1.8450012 2.783561 1.8450012 4.454216l0 25.19685c0 3.4789581 -2.8202515 6.2992134 -6.2992096 6.2992134l-25.196854 0c-3.4789581 0 -6.2992096 -2.8202553 -6.2992096 -6.2992134z" fill-rule="evenodd"/><path fill="#ffffff" d="m198.17006 25.817636l-2.5625 0l0 -10.171875l-3.34375 1.203125l0 -2.203125l5.765625 -2.09375l0.140625 0l0 13.265625z" fill-rule="nonzero"/><path fill="#000000" fill-opacity="0.0" d="m196.28346 37.795277l0 85.03937" fill-rule="evenodd"/><path stroke="#434343" stroke-width="1.0" stroke-linejoin="round" stroke-linecap="butt" stroke-dasharray="4.0,3.0" d="m196.28346 37.795277l0 79.03937" fill-rule="evenodd"/><path fill="#434343" stroke="#434343" stroke-width="1.0" stroke-linecap="butt" d="m194.63173 116.83465l1.6517334 4.5380936l1.6517334 -4.5380936z" fill-rule="evenodd"/><path fill="#6aa84f" d="m177.38583 129.13387l0 0c0 -3.4789658 2.8202515 -6.299217 6.2992096 -6.299217l25.196854 0l0 0c1.6706543 0 3.272873 0.6636658 4.4542084 1.8449936c1.1813354 1.1813354 1.8450012 2.7835617 1.8450012 4.4542236l0 25.196838c0 3.4789581 -2.8202515 6.299225 -6.2992096 6.299225l-25.196854 0c-3.4789581 0 -6.2992096 -2.8202667 -6.2992096 -6.299225z" fill-rule="evenodd"/><path fill="#ffffff" d="m198.17006 148.65228l-2.5625 0l0 -10.171875l-3.34375 1.203125l0 -2.203125l5.765625 -2.09375l0.140625 0l0 13.265625z" fill-rule="nonzero"/><path fill="#ffffff" d="m6.839895E-4 57.889908l340.1575 0l0 37.795273l-340.1575 0z" fill-rule="evenodd"/><path stroke="#000000" stroke-width="1.0" stroke-linejoin="round" stroke-linecap="butt" d="m6.839895E-4 57.889908l340.1575 0l0 37.795273l-340.1575 0z" fill-rule="evenodd"/><path fill="#000000" d="m85.045 81.70754l0 -7.8125l-2.59375 0l0 -1.15625l2.59375 -0.09375l0 -0.765625q0 -1.671875 0.875 -2.671875q0.890625 -1.0 2.78125 -1.0q1.34375 0 2.609375 0.515625l-0.359375 1.15625q-0.546875 -0.265625 -1.03125 -0.34375q-0.46875 -0.078125 -1.0625 -0.078125q-1.234375 0 -1.765625 0.625q-0.53125 0.625 -0.53125 1.734375l0 0.828125l3.796875 0l0 1.25l-3.796875 0l0 7.8125l-1.515625 0zm12.568756 0l0 -7.8125l-4.21875 0l0 -1.25l5.75 0l0 9.0625l-1.53125 0zm0.703125 -10.96875q-0.515625 0 -0.875 -0.328125q-0.359375 -0.328125 -0.359375 -0.859375q0 -0.546875 0.359375 -0.875q0.359375 -0.328125 0.875 -0.328125q0.53125 0 0.875 0.328125q0.359375 0.328125 0.359375 0.875q0 0.53125 -0.359375 0.859375q-0.34375 0.328125 -0.875 0.328125zm12.193756 11.1875q-1.453125 0 -2.21875 -0.8125q-0.765625 -0.828125 -0.765625 -2.453125l0 -8.984375l-3.234375 0l0 -1.25l4.765625 0l0 10.359375q0 1.0 0.484375 1.4375q0.484375 0.4375 1.296875 0.4375q0.8125 0 1.703125 -0.40625l0.390625 1.140625q-0.625 0.25 -1.15625 0.390625q-0.515625 0.140625 -1.265625 0.140625zm10.943756 0q-0.984375 0 -1.65625 -0.265625q-0.671875 -0.265625 -1.078125 -0.765625q-0.40625 -0.5 -0.59375 -1.1875q-0.171875 -0.6875 -0.171875 -1.53125l0 -4.28125l-2.5625 0l0 -1.15625l2.625 -0.09375l0.203125 -2.921875l1.265625 0l0 2.921875l4.453125 0l0 1.25l-4.453125 0l0 4.3125q0 0.609375 0.109375 1.0625q0.109375 0.453125 0.375 0.78125q0.265625 0.3125 0.703125 0.46875q0.453125 0.15625 1.109375 0.15625q0.65625 0 1.171875 -0.109375q0.515625 -0.109375 1.0 -0.296875l0.34375 1.125q-0.609375 0.21875 -1.296875 0.375q-0.6875 0.15625 -1.546875 0.15625zm10.006256 0q-1.03125 0 -1.921875 -0.3125q-0.875 -0.3125 -1.546875 -0.921875q-0.65625 -0.625 -1.046875 -1.515625q-0.375 -0.890625 -0.375 -2.015625q0 -1.109375 0.375 -1.984375q0.390625 -0.875 1.03125 -1.484375q0.65625 -0.625 1.484375 -0.953125q0.828125 -0.328125 1.734375 -0.328125q0.96875 0 1.734375 0.3125q0.78125 0.3125 1.3125 0.875q0.546875 0.546875 0.8125 1.34375q0.28125 0.78125 0.28125 1.734375q0 0.25 -0.015625 0.5q-0.015625 0.234375 -0.046875 0.421875l-7.15625 0q0.15625 1.546875 1.125 2.328125q0.984375 0.78125 2.40625 0.78125q0.8125 0 1.46875 -0.234375q0.671875 -0.234375 1.296875 -0.625l0.546875 1.0q-0.65625 0.453125 -1.53125 0.765625q-0.875 0.3125 -1.96875 0.3125zm-0.21875 -8.296875q-0.5625 0 -1.078125 0.1875q-0.515625 0.1875 -0.921875 0.53125q-0.40625 0.34375 -0.6875 0.875q-0.28125 0.515625 -0.390625 1.1875l5.78125 0q-0.09375 -1.40625 -0.8125 -2.09375q-0.71875 -0.6875 -1.890625 -0.6875zm7.975006 8.078125l0 -9.0625l1.28125 0l0.125 2.140625l0.046875 0q0.71875 -1.09375 1.75 -1.734375q1.03125 -0.640625 2.3125 -0.640625q0.5 0 0.921875 0.09375q0.4375 0.078125 0.859375 0.28125l-0.359375 1.328125q-0.484375 -0.171875 -0.8125 -0.234375q-0.3125 -0.078125 -0.859375 -0.078125q-1.03125 0 -1.96875 0.59375q-0.9375 0.578125 -1.765625 2.0l0 5.3125l-1.53125 0zm16.553131 3.28125q-1.9375 -1.515625 -3.078125 -3.640625q-1.125 -2.125 -1.125 -4.828125q0 -2.703125 1.125 -4.828125q1.140625 -2.125 3.078125 -3.640625l0.84375 0.78125q-1.890625 1.59375 -2.78125 3.453125q-0.875 1.859375 -0.875 4.234375q0 2.375 0.875 4.25q0.890625 1.859375 2.78125 3.4375l-0.84375 0.78125zm7.896881 -3.28125l-3.828125 -9.0625l1.546875 0l2.09375 5.140625q0.28125 0.6875 0.53125 1.359375q0.25 0.65625 0.484375 1.3125l0.078125 0q0.25 -0.65625 0.484375 -1.3125q0.234375 -0.671875 0.5 -1.359375l2.09375 -5.140625l1.484375 0l-3.75 9.0625l-1.71875 0zm19.184387 -7.578125l0 -1.15625l8.03125 0l0 1.15625l-8.03125 0zm0 4.0l0 -1.15625l8.03125 0l0 1.15625l-8.03125 0zm11.615631 2.6875l0 -1.484375l5.609375 -3.78125l0 -0.078125l-5.609375 -3.78125l0 -1.484375l6.953125 4.734375l0 1.15625l-6.953125 4.71875zm25.465637 -3.4375l-0.1875 -6.421875l-0.046875 -1.75l1.5 0l-0.03125 1.75l-0.1875 6.421875l-1.046875 0zm0.515625 4.546875q-0.5625 0 -0.96875 -0.390625q-0.390625 -0.390625 -0.390625 -1.0625q0 -0.65625 0.390625 -1.03125q0.40625 -0.390625 0.96875 -0.390625q0.5625 0 0.953125 0.390625q0.40625 0.375 0.40625 1.03125q0 0.671875 -0.40625 1.0625q-0.390625 0.390625 -0.953125 0.390625zm10.678131 -4.546875l-0.1875 -6.421875l-0.046875 -1.75l1.5 0l-0.03125 1.75l-0.1875 6.421875l-1.046875 0zm0.515625 4.546875q-0.5625 0 -0.96875 -0.390625q-0.390625 -0.390625 -0.390625 -1.0625q0 -0.65625 0.390625 -1.03125q0.40625 -0.390625 0.96875 -0.390625q0.5625 0 0.953125 0.390625q0.40625 0.375 0.40625 1.03125q0 0.671875 -0.40625 1.0625q-0.390625 0.390625 -0.953125 0.390625zm10.381256 -0.21875l-3.828125 -9.0625l1.546875 0l2.09375 5.140625q0.28125 0.6875 0.53125 1.359375q0.25 0.65625 0.484375 1.3125l0.078125 0q0.25 -0.65625 0.484375 -1.3125q0.234375 -0.671875 0.5 -1.359375l2.09375 -5.140625l1.484375 0l-3.75 9.0625l-1.71875 0zm9.521881 3.28125l-0.828125 -0.78125q1.875 -1.578125 2.765625 -3.4375q0.890625 -1.875 0.890625 -4.25q0 -2.375 -0.890625 -4.234375q-0.890625 -1.859375 -2.765625 -3.453125l0.828125 -0.78125q1.953125 1.515625 3.078125 3.640625q1.125 2.125 1.125 4.828125q0 2.703125 -1.125 4.828125q-1.125 2.125 -3.078125 3.640625z" fill-rule="nonzero"/></g></svg>