<svg version="1.1" viewBox="0.0 0.0 843.9685039370079 233.5748031496063" fill="none" stroke="none" stroke-linecap="square" stroke-miterlimit="10" xmlns:xlink="http://www.w3.org/1999/xlink" xmlns="http://www.w3.org/2000/svg"><clipPath id="p.0"><path d="m0 0l843.9685 0l0 233.5748l-843.9685 0l0 -233.5748z" clip-rule="nonzero"/></clipPath><g clip-path="url(#p.0)"><path fill="#000000" fill-opacity="0.0" d="m0 0l843.9685 0l0 233.5748l-843.9685 0z" fill-rule="evenodd"/><path fill="#ffffff" d="m276.95538 158.11029l566.92914 0l0 75.59056l-566.92914 0z" fill-rule="evenodd"/><path stroke="#000000" stroke-width="1.0" stroke-linejoin="round" stroke-linecap="butt" d="m276.95538 158.11029l566.92914 0l0 75.59056l-566.92914 0z" fill-rule="evenodd"/><path fill="#000000" fill-opacity="0.0" d="m304.13647 196.94493l539.74805 -1.0393677" fill-rule="evenodd"/><path stroke="#000000" stroke-width="1.0" stroke-linejoin="round" stroke-linecap="butt" d="m304.13647 196.94495l533.74805 -1.027832" fill-rule="evenodd"/><path fill="#000000" stroke="#000000" stroke-width="1.0" stroke-linecap="butt" d="m837.8877 197.56886l4.534912 -1.6604767l-4.54126 -1.6429901z" fill-rule="evenodd"/><path fill="#ffffff" d="m276.95538 177.60367l113.38583 0l0 37.795288l-113.38583 0z" fill-rule="evenodd"/><path stroke="#000000" stroke-width="1.0" stroke-linejoin="round" stroke-linecap="butt" stroke-dasharray="4.0,3.0" d="m276.95538 177.60367l113.38583 0l0 37.795288l-113.38583 0z" fill-rule="evenodd"/><path fill="#000000" d="m307.0233 203.42131l0 -0.921875q1.515625 -1.328125 2.671875 -2.40625q1.171875 -1.09375 1.96875 -2.0q0.796875 -0.90625 1.203125 -1.6875q0.40625 -0.78125 0.40625 -1.53125q0 -1.03125 -0.640625 -1.671875q-0.625 -0.65625 -1.953125 -0.65625q-0.84375 0 -1.5625 0.421875q-0.703125 0.421875 -1.28125 1.015625l-0.890625 -0.875q0.8125 -0.828125 1.734375 -1.3125q0.921875 -0.5 2.1875 -0.5q0.890625 0 1.609375 0.25q0.71875 0.25 1.21875 0.71875q0.515625 0.453125 0.78125 1.109375q0.265625 0.640625 0.265625 1.421875q0 0.84375 -0.40625 1.703125q-0.390625 0.84375 -1.125 1.75q-0.71875 0.90625 -1.734375 1.890625q-1.0 0.96875 -2.21875 2.0625q0.5625 -0.03125 1.125 -0.0625q0.5625 -0.046875 1.109375 -0.046875l3.90625 0l0 1.328125l-8.375 0zm15.428131 0.21875q-2.0 0 -3.140625 -1.609375q-1.125 -1.609375 -1.125 -4.59375q0 -3.015625 1.125 -4.578125q1.140625 -1.5625 3.140625 -1.5625q2.0 0 3.140625 1.5625q1.140625 1.5625 1.140625 4.578125q0 2.984375 -1.140625 4.59375q-1.140625 1.609375 -3.140625 1.609375zm0 -1.21875q1.25 0 2.046875 -1.21875q0.796875 -1.21875 0.796875 -3.765625q0 -1.296875 -0.21875 -2.21875q-0.203125 -0.921875 -0.59375 -1.515625q-0.375 -0.609375 -0.890625 -0.890625q-0.515625 -0.28125 -1.140625 -0.28125q-0.609375 0 -1.140625 0.28125q-0.515625 0.28125 -0.90625 0.890625q-0.375 0.59375 -0.578125 1.515625q-0.203125 0.921875 -0.203125 2.21875q0 2.546875 0.78125 3.765625q0.796875 1.21875 2.046875 1.21875zm0 -3.875q-0.46875 0 -0.8125 -0.3125q-0.34375 -0.328125 -0.34375 -0.9375q0 -0.578125 0.34375 -0.890625q0.34375 -0.328125 0.8125 -0.328125q0.46875 0 0.8125 0.328125q0.34375 0.3125 0.34375 0.890625q0 0.609375 -0.34375 0.9375q-0.34375 0.3125 -0.8125 0.3125zm11.193756 5.09375q-2.0 0 -3.140625 -1.609375q-1.125 -1.609375 -1.125 -4.59375q0 -3.015625 1.125 -4.578125q1.140625 -1.5625 3.140625 -1.5625q2.0 0 3.140625 1.5625q1.140625 1.5625 1.140625 4.578125q0 2.984375 -1.140625 4.59375q-1.140625 1.609375 -3.140625 1.609375zm0 -1.21875q1.25 0 2.046875 -1.21875q0.796875 -1.21875 0.796875 -3.765625q0 -1.296875 -0.21875 -2.21875q-0.203125 -0.921875 -0.59375 -1.515625q-0.375 -0.609375 -0.890625 -0.890625q-0.515625 -0.28125 -1.140625 -0.28125q-0.609375 0 -1.140625 0.28125q-0.515625 0.28125 -0.90625 0.890625q-0.375 0.59375 -0.578125 1.515625q-0.203125 0.921875 -0.203125 2.21875q0 2.546875 0.78125 3.765625q0.796875 1.21875 2.046875 1.21875zm0 -3.875q-0.46875 0 -0.8125 -0.3125q-0.34375 -0.328125 -0.34375 -0.9375q0 -0.578125 0.34375 -0.890625q0.34375 -0.328125 0.8125 -0.328125q0.46875 0 0.8125 0.328125q0.34375 0.3125 0.34375 0.890625q0 0.609375 -0.34375 0.9375q-0.34375 0.3125 -0.8125 0.3125zm6.678131 4.875l0 -9.0625l1.234375 0l0.125 1.1875l0.046875 0q0.34375 -0.625 0.8125 -1.015625q0.46875 -0.40625 1.25 -0.40625q1.328125 0 1.71875 1.578125q0.390625 -0.734375 0.859375 -1.15625q0.484375 -0.421875 1.265625 -0.421875q0.953125 0 1.484375 0.71875q0.53125 0.71875 0.53125 2.078125l0 6.5l-1.53125 0l0 -6.375q0 -1.59375 -0.96875 -1.59375q-0.484375 0 -0.78125 0.34375q-0.296875 0.34375 -0.671875 1.0625l0 6.5625l-1.421875 0l0 -6.375q0 -0.78125 -0.21875 -1.1875q-0.203125 -0.40625 -0.703125 -0.40625q-0.484375 0 -0.828125 0.34375q-0.328125 0.34375 -0.671875 1.0625l0 6.5625l-1.53125 0zm15.896881 0.21875q-1.34375 0 -2.484375 -0.40625q-1.125 -0.421875 -1.96875 -1.0l0.703125 -1.015625q0.78125 0.5625 1.71875 0.90625q0.953125 0.328125 2.21875 0.328125q1.15625 0 1.71875 -0.421875q0.578125 -0.421875 0.578125 -1.0q0 -0.265625 -0.09375 -0.484375q-0.09375 -0.21875 -0.40625 -0.421875q-0.296875 -0.203125 -0.859375 -0.390625q-0.5625 -0.1875 -1.484375 -0.375q-1.765625 -0.375 -2.65625 -1.0q-0.875 -0.625 -0.875 -1.65625q0 -0.53125 0.234375 -1.0q0.25 -0.484375 0.71875 -0.828125q0.484375 -0.359375 1.171875 -0.546875q0.703125 -0.203125 1.640625 -0.203125q1.046875 0 2.015625 0.359375q0.96875 0.34375 1.640625 0.796875l-0.75 1.0q-0.640625 -0.4375 -1.40625 -0.6875q-0.75 -0.265625 -1.640625 -0.265625q-1.15625 0 -1.625 0.390625q-0.453125 0.390625 -0.453125 0.90625q0 0.609375 0.609375 0.921875q0.625 0.296875 2.015625 0.59375q1.140625 0.25 1.859375 0.515625q0.734375 0.265625 1.15625 0.609375q0.421875 0.328125 0.578125 0.75q0.15625 0.40625 0.15625 0.921875q0 0.5625 -0.265625 1.046875q-0.25 0.484375 -0.765625 0.859375q-0.515625 0.375 -1.28125 0.578125q-0.75 0.21875 -1.71875 0.21875z" fill-rule="nonzero"/><path fill="#000000" fill-opacity="0.0" d="m0 0l258.04724 0l0 47.622047l-258.04724 0z" fill-rule="evenodd"/><path fill="#000000" d="m205.50659 28.731022l0 -12.15625l2.8125 0l2.5625 6.03125l1.046875 2.6875l0.0625 0q-0.09375 -0.96875 -0.25 -2.140625q-0.140625 -1.1875 -0.140625 -2.28125l0 -4.296875l2.640625 0l0 12.15625l-2.828125 0l-2.546875 -6.0625l-1.046875 -2.65625l-0.078125 0q0.09375 1.015625 0.234375 2.171875q0.15625 1.15625 0.15625 2.234375l0 4.3125l-2.625 0zm14.131256 0.21875q-0.703125 0 -1.265625 -0.21875q-0.5625 -0.203125 -0.953125 -0.578125q-0.390625 -0.390625 -0.609375 -0.890625q-0.203125 -0.515625 -0.203125 -1.109375q0 -0.78125 0.328125 -1.359375q0.34375 -0.59375 1.078125 -1.0q0.734375 -0.421875 1.890625 -0.671875q1.15625 -0.25 2.796875 -0.34375q-0.078125 -0.625 -0.546875 -0.984375q-0.46875 -0.359375 -1.421875 -0.359375q-0.671875 0 -1.359375 0.234375q-0.671875 0.234375 -1.46875 0.625l-0.96875 -1.796875q0.953125 -0.53125 2.046875 -0.890625q1.09375 -0.359375 2.28125 -0.359375q1.953125 0 3.0625 1.03125q1.125 1.03125 1.125 3.15625l0 5.296875l-2.234375 0l-0.21875 -1.046875l-0.0625 0q-0.71875 0.546875 -1.5625 0.90625q-0.828125 0.359375 -1.734375 0.359375zm0.890625 -2.125q0.609375 0 1.140625 -0.25q0.546875 -0.25 1.03125 -0.625l0 -1.53125q-1.015625 0.0625 -1.6875 0.1875q-0.671875 0.125 -1.078125 0.328125q-0.390625 0.203125 -0.546875 0.46875q-0.15625 0.25 -0.15625 0.546875q0 0.453125 0.34375 0.671875q0.34375 0.203125 0.953125 0.203125zm6.787506 1.90625l0 -9.25l2.0625 0l0.1875 1.140625l0.078125 0q0.265625 -0.5625 0.71875 -0.96875q0.46875 -0.40625 1.28125 -0.40625q0.59375 0 1.015625 0.390625q0.421875 0.375 0.578125 1.125q0.265625 -0.625 0.75 -1.0625q0.5 -0.453125 1.3125 -0.453125q1.0 0 1.53125 0.796875q0.53125 0.796875 0.53125 2.1875l0 6.5l-2.609375 0l0 -6.3125q0 -0.421875 -0.109375 -0.625q-0.109375 -0.203125 -0.390625 -0.203125q-0.265625 0 -0.453125 0.21875q-0.1875 0.21875 -0.390625 0.671875l0 6.25l-2.140625 0l0 -6.3125q0 -0.828125 -0.53125 -0.828125q-0.25 0 -0.4375 0.21875q-0.1875 0.21875 -0.375 0.671875l0 6.25l-2.609375 0zm16.693756 0.21875q-1.078125 0 -2.03125 -0.3125q-0.9375 -0.328125 -1.625 -0.9375q-0.6875 -0.625 -1.078125 -1.53125q-0.390625 -0.90625 -0.390625 -2.0625q0 -1.140625 0.390625 -2.046875q0.40625 -0.90625 1.078125 -1.53125q0.671875 -0.625 1.53125 -0.953125q0.875 -0.328125 1.8125 -0.328125q1.0625 0 1.875 0.34375q0.828125 0.328125 1.375 0.9375q0.546875 0.59375 0.828125 1.40625q0.28125 0.8125 0.28125 1.765625q0 0.359375 -0.046875 0.71875q-0.046875 0.34375 -0.078125 0.5l-6.3125 0q0.203125 1.015625 0.90625 1.484375q0.71875 0.46875 1.859375 0.46875q0.625 0 1.1875 -0.171875q0.578125 -0.171875 1.203125 -0.484375l0.90625 1.65625q-0.796875 0.5 -1.765625 0.796875q-0.96875 0.28125 -1.90625 0.28125zm-0.21875 -7.609375q-0.828125 0 -1.375 0.4375q-0.546875 0.421875 -0.75 1.296875l3.953125 0q-0.203125 -1.734375 -1.828125 -1.734375z" fill-rule="nonzero"/><path fill="#ffffff" d="m276.9449 6.110575l566.89764 0l0 35.401573l-566.89764 0z" fill-rule="evenodd"/><path stroke="#000000" stroke-width="1.0" stroke-linejoin="round" stroke-linecap="butt" d="m276.9449 6.110575l566.89764 0l0 35.401573l-566.89764 0z" fill-rule="evenodd"/><path fill="#000000" d="m538.37805 28.95011q-0.65625 0 -1.40625 -0.3125q-0.75 -0.328125 -1.40625 -0.90625l-0.0625 0l-0.125 1.0l-1.234375 0l0 -13.281249l1.53125 0l0 3.624999l-0.0625 1.75l0.0625 0q0.609375 -0.640625 1.421875 -1.015625q0.8125 -0.375 1.625 -0.375q0.90625 0 1.609375 0.328125q0.71875 0.328125 1.1875 0.9375q0.484375 0.609375 0.71875 1.453125q0.25 0.84375 0.25 1.890625q0 1.15625 -0.34375 2.078125q-0.328125 0.90625 -0.90625 1.546875q-0.5625 0.640625 -1.3125 0.96875q-0.75 0.3125 -1.546875 0.3125zm-0.234375 -1.28125q0.59375 0 1.09375 -0.25q0.5 -0.25 0.875 -0.703125q0.375 -0.46875 0.578125 -1.140625q0.203125 -0.671875 0.203125 -1.515625q0 -0.734375 -0.15625 -1.34375q-0.140625 -0.625 -0.453125 -1.0625q-0.296875 -0.4375 -0.78125 -0.671875q-0.484375 -0.25 -1.15625 -0.25q-0.609375 0 -1.296875 0.328125q-0.671875 0.328125 -1.375 1.03125l0 4.515625q0.65625 0.578125 1.3125 0.828125q0.671875 0.234375 1.15625 0.234375zm10.053162 1.28125q-0.640625 0 -1.203125 -0.171875q-0.5625 -0.171875 -0.984375 -0.5q-0.40625 -0.328125 -0.65625 -0.796875q-0.234375 -0.484375 -0.234375 -1.09375q0 -0.765625 0.359375 -1.328125q0.359375 -0.578125 1.15625 -0.984375q0.796875 -0.421875 2.046875 -0.671875q1.25 -0.265625 3.0 -0.421875q-0.015625 -0.46875 -0.15625 -0.875q-0.125 -0.40625 -0.40625 -0.71875q-0.28125 -0.3125 -0.734375 -0.484375q-0.453125 -0.1875 -1.109375 -0.1875q-0.890625 0 -1.71875 0.34375q-0.8125 0.34375 -1.453125 0.734375l-0.59375 -1.046875q0.328125 -0.21875 0.78125 -0.453125q0.46875 -0.234375 0.96875 -0.421875q0.515625 -0.1875 1.09375 -0.3125q0.578125 -0.125 1.1875 -0.125q1.859375 0 2.765625 1.03125q0.90625 1.015625 0.90625 2.703125l0 5.5625l-1.25 0l-0.125 -1.234375l-0.0625 0q-0.765625 0.59375 -1.6875 1.03125q-0.921875 0.421875 -1.890625 0.421875zm0.40625 -1.21875q0.78125 0 1.53125 -0.34375q0.765625 -0.359375 1.546875 -1.0l0 -2.390625q-1.453125 0.109375 -2.4375 0.3125q-0.96875 0.203125 -1.5625 0.5q-0.59375 0.28125 -0.84375 0.65625q-0.234375 0.359375 -0.234375 0.796875q0 0.390625 0.171875 0.671875q0.171875 0.265625 0.4375 0.453125q0.265625 0.171875 0.625 0.265625q0.375 0.078125 0.765625 0.078125zm8.912476 1.0l0 -9.0625l1.28125 0l0.125 2.140625l0.046875 0q0.71875 -1.09375 1.75 -1.734375q1.03125 -0.640625 2.3125 -0.640625q0.5 0 0.921875 0.09375q0.4375 0.078125 0.859375 0.28125l-0.359375 1.328125q-0.484375 -0.171875 -0.8125 -0.234375q-0.3125 -0.078125 -0.859375 -0.078125q-1.03125 0 -1.96875 0.59375q-0.9375 0.578125 -1.765625 2.0l0 5.3125l-1.53125 0zm10.959412 0l0 -12.234375l7.515625 0l0 1.296875l-5.953125 0l0 4.140625l5.03125 0l0 1.3125l-5.03125 0l0 5.484375l-1.5625 0zm14.303101 0.21875q-0.890625 0 -1.703125 -0.3125q-0.8125 -0.3125 -1.4375 -0.921875q-0.609375 -0.609375 -0.96875 -1.484375q-0.359375 -0.890625 -0.359375 -2.015625q0 -1.140625 0.359375 -2.015625q0.359375 -0.890625 0.96875 -1.5q0.625 -0.625 1.4375 -0.9375q0.8125 -0.328125 1.703125 -0.328125q0.90625 0 1.703125 0.328125q0.8125 0.3125 1.421875 0.9375q0.625 0.609375 0.984375 1.5q0.375 0.875 0.375 2.015625q0 1.125 -0.375 2.015625q-0.359375 0.875 -0.984375 1.484375q-0.609375 0.609375 -1.421875 0.921875q-0.796875 0.3125 -1.703125 0.3125zm0 -1.265625q0.65625 0 1.1875 -0.25q0.53125 -0.25 0.90625 -0.703125q0.390625 -0.46875 0.59375 -1.09375q0.203125 -0.640625 0.203125 -1.421875q0 -0.78125 -0.203125 -1.421875q-0.203125 -0.640625 -0.59375 -1.109375q-0.375 -0.46875 -0.90625 -0.71875q-0.53125 -0.25 -1.1875 -0.25q-0.65625 0 -1.1875 0.25q-0.53125 0.25 -0.921875 0.71875q-0.375 0.46875 -0.578125 1.109375q-0.203125 0.640625 -0.203125 1.421875q0 0.78125 0.203125 1.421875q0.203125 0.625 0.578125 1.09375q0.390625 0.453125 0.921875 0.703125q0.53125 0.25 1.1875 0.25z" fill-rule="nonzero"/><path fill="#ffffff" d="m276.9449 54.110577l566.89764 0l0 35.401577l-566.89764 0z" fill-rule="evenodd"/><path stroke="#000000" stroke-width="1.0" stroke-linejoin="round" stroke-linecap="butt" d="m276.9449 54.110577l566.89764 0l0 35.401577l-566.89764 0z" fill-rule="evenodd"/><path fill="#000000" d="m471.2155 76.95011q-0.65625 0 -1.40625 -0.3125q-0.75 -0.328125 -1.40625 -0.90625l-0.0625 0l-0.125 1.0l-1.234375 0l0 -13.28125l1.53125 0l0 3.625l-0.0625 1.75l0.0625 0q0.609375 -0.640625 1.421875 -1.015625q0.8125 -0.375 1.625 -0.375q0.90625 0 1.609375 0.328125q0.71875 0.328125 1.1875 0.9375q0.484375 0.609375 0.71875 1.453125q0.25 0.84375 0.25 1.890625q0 1.15625 -0.34375 2.078125q-0.328125 0.90625 -0.90625 1.546875q-0.5625 0.640625 -1.3125 0.96875q-0.75 0.3125 -1.546875 0.3125zm-0.234375 -1.28125q0.59375 0 1.09375 -0.25q0.5 -0.25 0.875 -0.703125q0.375 -0.46875 0.578125 -1.140625q0.203125 -0.671875 0.203125 -1.515625q0 -0.734375 -0.15625 -1.34375q-0.140625 -0.625 -0.453125 -1.0625q-0.296875 -0.4375 -0.78125 -0.671875q-0.484375 -0.25 -1.15625 -0.25q-0.609375 0 -1.296875 0.328125q-0.671875 0.328125 -1.375 1.03125l0 4.515625q0.65625 0.578125 1.3125 0.828125q0.671875 0.234375 1.15625 0.234375zm10.053131 1.28125q-0.640625 0 -1.203125 -0.171875q-0.5625 -0.171875 -0.984375 -0.5q-0.40625 -0.328125 -0.65625 -0.796875q-0.234375 -0.484375 -0.234375 -1.09375q0 -0.765625 0.359375 -1.328125q0.359375 -0.578125 1.15625 -0.984375q0.796875 -0.421875 2.046875 -0.671875q1.25 -0.265625 3.0 -0.421875q-0.015625 -0.46875 -0.15625 -0.875q-0.125 -0.40625 -0.40625 -0.71875q-0.28125 -0.3125 -0.734375 -0.484375q-0.453125 -0.1875 -1.109375 -0.1875q-0.890625 0 -1.71875 0.34375q-0.8125 0.34375 -1.453125 0.734375l-0.59375 -1.046875q0.328125 -0.21875 0.78125 -0.453125q0.46875 -0.234375 0.96875 -0.421875q0.515625 -0.1875 1.09375 -0.3125q0.578125 -0.125 1.1875 -0.125q1.859375 0 2.765625 1.03125q0.90625 1.015625 0.90625 2.703125l0 5.5625l-1.25 0l-0.125 -1.234375l-0.0625 0q-0.765625 0.59375 -1.6875 1.03125q-0.921875 0.421875 -1.890625 0.421875zm0.40625 -1.21875q0.78125 0 1.53125 -0.34375q0.765625 -0.359375 1.546875 -1.0l0 -2.390625q-1.453125 0.109375 -2.4375 0.3125q-0.96875 0.203125 -1.5625 0.5q-0.59375 0.28125 -0.84375 0.65625q-0.234375 0.359375 -0.234375 0.796875q0 0.390625 0.171875 0.671875q0.171875 0.265625 0.4375 0.453125q0.265625 0.171875 0.625 0.265625q0.375 0.078125 0.765625 0.078125zm8.912506 1.0l0 -9.0625l1.28125 0l0.125 2.140625l0.046875 0q0.71875 -1.09375 1.75 -1.734375q1.03125 -0.640625 2.3125 -0.640625q0.5 0 0.921875 0.09375q0.4375 0.078125 0.859375 0.28125l-0.359375 1.328125q-0.484375 -0.171875 -0.8125 -0.234375q-0.3125 -0.078125 -0.859375 -0.078125q-1.03125 0 -1.96875 0.59375q-0.9375 0.578125 -1.765625 2.0l0 5.3125l-1.53125 0zm10.959381 0l0 -12.234375l7.515625 0l0 1.296875l-5.953125 0l0 4.140625l5.03125 0l0 1.3125l-5.03125 0l0 5.484375l-1.5625 0zm14.303131 0.21875q-0.890625 0 -1.703125 -0.3125q-0.8125 -0.3125 -1.4375 -0.921875q-0.609375 -0.609375 -0.96875 -1.484375q-0.359375 -0.890625 -0.359375 -2.015625q0 -1.140625 0.359375 -2.015625q0.359375 -0.890625 0.96875 -1.5q0.625 -0.625 1.4375 -0.9375q0.8125 -0.328125 1.703125 -0.328125q0.90625 0 1.703125 0.328125q0.8125 0.3125 1.421875 0.9375q0.625 0.609375 0.984375 1.5q0.375 0.875 0.375 2.015625q0 1.125 -0.375 2.015625q-0.359375 0.875 -0.984375 1.484375q-0.609375 0.609375 -1.421875 0.921875q-0.796875 0.3125 -1.703125 0.3125zm0 -1.265625q0.65625 0 1.1875 -0.25q0.53125 -0.25 0.90625 -0.703125q0.390625 -0.46875 0.59375 -1.09375q0.203125 -0.640625 0.203125 -1.421875q0 -0.78125 -0.203125 -1.421875q-0.203125 -0.640625 -0.59375 -1.109375q-0.375 -0.46875 -0.90625 -0.71875q-0.53125 -0.25 -1.1875 -0.25q-0.65625 0 -1.1875 0.25q-0.53125 0.25 -0.921875 0.71875q-0.375 0.46875 -0.578125 1.109375q-0.203125 0.640625 -0.203125 1.421875q0 0.78125 0.203125 1.421875q0.203125 0.625 0.578125 1.09375q0.390625 0.453125 0.921875 0.703125q0.53125 0.25 1.1875 0.25zm13.678162 4.328125q-1.9375 -1.515625 -3.078125 -3.640625q-1.125 -2.125 -1.125 -4.828125q0 -2.703125 1.125 -4.828125q1.140625 -2.125 3.078125 -3.640625l0.84375 0.78125q-1.890625 1.59375 -2.78125 3.453125q-0.875 1.859375 -0.875 4.234375q0 2.375 0.875 4.25q0.890625 1.859375 2.78125 3.4375l-0.84375 0.78125zm7.8968506 -3.28125l-3.828125 -9.0625l1.546875 0l2.09375 5.140625q0.28125 0.6875 0.53125 1.359375q0.25 0.65625 0.484375 1.3125l0.078125 0q0.25 -0.65625 0.484375 -1.3125q0.234375 -0.671875 0.5 -1.359375l2.09375 -5.140625l1.484375 0l-3.75 9.0625l-1.71875 0zm19.184387 -7.578125l0 -1.15625l8.03125 0l0 1.15625l-8.03125 0zm0 4.0l0 -1.15625l8.03125 0l0 1.15625l-8.03125 0zm11.615662 2.6875l0 -1.484375l5.609375 -3.78125l0 -0.078125l-5.609375 -3.78125l0 -1.484375l6.953125 4.734375l0 1.15625l-6.953125 4.71875zm25.168762 0.890625l-3.828125 -9.0625l1.546875 0l2.09375 5.140625q0.28125 0.6875 0.53125 1.359375q0.25 0.65625 0.484375 1.3125l0.078125 0q0.25 -0.65625 0.484375 -1.3125q0.234375 -0.671875 0.5 -1.359375l2.09375 -5.140625l1.484375 0l-3.75 9.0625l-1.71875 0zm20.965637 -2.078125l-0.78125 -0.546875l2.015625 -3.078125l-3.03125 -1.3125l0.296875 -0.859375l3.125 1.03125l0.171875 -3.53125l0.890625 0l0.171875 3.53125l3.109375 -1.03125l0.296875 0.859375l-3.015625 1.3125l2.015625 3.078125l-0.796875 0.546875l-2.234375 -2.953125l-2.234375 2.953125zm20.387512 2.078125l0 -0.921875q1.515625 -1.328125 2.671875 -2.40625q1.171875 -1.09375 1.96875 -2.0q0.796875 -0.90625 1.203125 -1.6875q0.40625 -0.78125 0.40625 -1.53125q0 -1.03125 -0.640625 -1.671875q-0.625 -0.65625 -1.953125 -0.65625q-0.84375 0 -1.5625 0.421875q-0.703125 0.421875 -1.28125 1.015625l-0.890625 -0.875q0.8125 -0.828125 1.734375 -1.3125q0.921875 -0.5 2.1875 -0.5q0.890625 0 1.609375 0.25q0.71875 0.25 1.21875 0.71875q0.515625 0.453125 0.78125 1.109375q0.265625 0.640625 0.265625 1.421875q0 0.84375 -0.40625 1.703125q-0.390625 0.84375 -1.125 1.75q-0.71875 0.90625 -1.734375 1.890625q-1.0 0.96875 -2.21875 2.0625q0.5625 -0.03125 1.125 -0.0625q0.5625 -0.046875 1.109375 -0.046875l3.90625 0l0 1.328125l-8.375 0zm12.943726 3.28125l-0.828125 -0.78125q1.875 -1.578125 2.765625 -3.4375q0.890625 -1.875 0.890625 -4.25q0 -2.375 -0.890625 -4.234375q-0.890625 -1.859375 -2.765625 -3.453125l0.828125 -0.78125q1.953125 1.515625 3.078125 3.640625q1.125 2.125 1.125 4.828125q0 2.703125 -1.125 4.828125q-1.125 2.125 -3.078125 3.640625z" fill-rule="nonzero"/><path fill="#000000" fill-opacity="0.0" d="m0.002624672 48.0l258.04724 0l0 47.622047l-258.04724 0z" fill-rule="evenodd"/><path fill="#000000" d="m15.215363 76.731026l0 -12.156258l2.8125 0l2.5625 6.0312576l1.046875 2.6875l0.0625 0q-0.09375 -0.96875 -0.25 -2.140625q-0.140625 -1.1875 -0.140625 -2.28125l0 -4.2968826l2.640625 0l0 12.156258l-2.828125 0l-2.546875 -6.0625l-1.046875 -2.65625l-0.078125 0q0.09375 1.015625 0.234375 2.171875q0.15625 1.15625 0.15625 2.234375l0 4.3125l-2.625 0zm14.131256 0.21875q-0.703125 0 -1.265625 -0.21875q-0.5625 -0.203125 -0.953125 -0.578125q-0.390625 -0.390625 -0.609375 -0.890625q-0.203125 -0.515625 -0.203125 -1.109375q0 -0.78125 0.328125 -1.359375q0.34375 -0.59375 1.078125 -1.0q0.734375 -0.421875 1.890625 -0.671875q1.15625 -0.25 2.796875 -0.34375q-0.078125 -0.625 -0.546875 -0.984375q-0.46875 -0.359375 -1.421875 -0.359375q-0.671875 0 -1.359375 0.234375q-0.671875 0.234375 -1.46875 0.625l-0.96875 -1.796875q0.953125 -0.5312576 2.046875 -0.8906326q1.09375 -0.359375 2.28125 -0.359375q1.953125 0 3.0625 1.0312576q1.125 1.03125 1.125 3.15625l0 5.296875l-2.234375 0l-0.21875 -1.046875l-0.0625 0q-0.71875 0.546875 -1.5625 0.90625q-0.828125 0.359375 -1.734375 0.359375zm0.890625 -2.125q0.609375 0 1.140625 -0.25q0.546875 -0.25 1.03125 -0.625l0 -1.53125q-1.015625 0.0625 -1.6875 0.1875q-0.671875 0.125 -1.078125 0.328125q-0.390625 0.203125 -0.546875 0.46875q-0.15625 0.25 -0.15625 0.546875q0 0.453125 0.34375 0.671875q0.34375 0.203125 0.953125 0.203125zm6.787506 1.90625l0 -9.250008l2.0625 0l0.1875 1.1406326l0.078125 0q0.265625 -0.5625 0.71875 -0.9687576q0.46875 -0.40625 1.28125 -0.40625q0.59375 0 1.015625 0.390625q0.421875 0.37500763 0.578125 1.1250076q0.265625 -0.625 0.75 -1.0625076q0.5 -0.453125 1.3125 -0.453125q1.0 0 1.53125 0.7968826q0.53125 0.796875 0.53125 2.1875l0 6.5l-2.609375 0l0 -6.3125q0 -0.421875 -0.109375 -0.625q-0.109375 -0.203125 -0.390625 -0.203125q-0.265625 0 -0.453125 0.21875q-0.1875 0.21875 -0.390625 0.671875l0 6.25l-2.140625 0l0 -6.3125q0 -0.828125 -0.53125 -0.828125q-0.25 0 -0.4375 0.21875q-0.1875 0.21875 -0.375 0.671875l0 6.25l-2.609375 0zm16.693756 0.21875q-1.078125 0 -2.03125 -0.3125q-0.9375 -0.328125 -1.625 -0.9375q-0.6875 -0.625 -1.078125 -1.53125q-0.390625 -0.90625 -0.390625 -2.0625q0 -1.140625 0.390625 -2.046875q0.40625 -0.90625 1.078125 -1.53125q0.671875 -0.6250076 1.53125 -0.9531326q0.875 -0.328125 1.8125 -0.328125q1.0625 0 1.875 0.34375q0.828125 0.328125 1.375 0.9375076q0.546875 0.59375 0.828125 1.40625q0.28125 0.8125 0.28125 1.765625q0 0.359375 -0.046875 0.71875q-0.046875 0.34375 -0.078125 0.5l-6.3125 0q0.203125 1.015625 0.90625 1.484375q0.71875 0.46875 1.859375 0.46875q0.625 0 1.1875 -0.171875q0.578125 -0.171875 1.203125 -0.484375l0.90625 1.65625q-0.796875 0.5 -1.765625 0.796875q-0.96875 0.28125 -1.90625 0.28125zm-0.21875 -7.609375q-0.828125 0 -1.375 0.4375q-0.546875 0.421875 -0.75 1.296875l3.953125 0q-0.203125 -1.734375 -1.828125 -1.734375zm20.621887 7.609375q-0.703125 0 -1.265625 -0.21875q-0.5625 -0.203125 -0.953125 -0.578125q-0.390625 -0.390625 -0.609375 -0.890625q-0.203125 -0.515625 -0.203125 -1.109375q0 -0.78125 0.328125 -1.359375q0.34375 -0.59375 1.078125 -1.0q0.734375 -0.421875 1.890625 -0.671875q1.15625 -0.25 2.796875 -0.34375q-0.078125 -0.625 -0.546875 -0.984375q-0.46875 -0.359375 -1.421875 -0.359375q-0.671875 0 -1.359375 0.234375q-0.671875 0.234375 -1.46875 0.625l-0.96875 -1.796875q0.953125 -0.5312576 2.046875 -0.8906326q1.09375 -0.359375 2.28125 -0.359375q1.953125 0 3.0625 1.0312576q1.125 1.03125 1.125 3.15625l0 5.296875l-2.234375 0l-0.21875 -1.046875l-0.0625 0q-0.71875 0.546875 -1.5625 0.90625q-0.828125 0.359375 -1.734375 0.359375zm0.890625 -2.125q0.609375 0 1.140625 -0.25q0.546875 -0.25 1.03125 -0.625l0 -1.53125q-1.015625 0.0625 -1.6875 0.1875q-0.671875 0.125 -1.078125 0.328125q-0.390625 0.203125 -0.546875 0.46875q-0.15625 0.25 -0.15625 0.546875q0 0.453125 0.34375 0.671875q0.34375 0.203125 0.953125 0.203125zm7.475006 1.90625l0 -9.250008l2.234375 0l0.203125 1.2343826l0.078125 0q0.59375 -0.609375 1.359375 -1.0312576q0.78125 -0.4375 1.828125 -0.4375q1.578125 0 2.296875 1.0156326q0.734375 1.0 0.734375 2.765625l0 5.703125l-2.75 0l0 -5.359375q0 -0.921875 -0.296875 -1.34375q-0.296875 -0.4375 -1.0625 -0.4375q-0.5625 0 -0.984375 0.25q-0.40625 0.234375 -0.90625 0.71875l0 6.171875l-2.734375 0zm14.631256 0.21875q-0.875 0 -1.59375 -0.328125q-0.71875 -0.34375 -1.234375 -0.96875q-0.515625 -0.625 -0.796875 -1.515625q-0.28125 -0.890625 -0.28125 -2.03125q0 -1.140625 0.328125 -2.03125q0.34375 -0.90625 0.890625 -1.53125q0.5625 -0.6250076 1.265625 -0.9531326q0.703125 -0.34375 1.46875 -0.34375q0.78125 0 1.328125 0.265625q0.546875 0.25 1.0 0.7343826l0.078125 0l-0.125 -1.4375076l0 -3.1562462l2.734375 0l0 13.078129l-2.234375 0l-0.203125 -0.953125l-0.0625 0q-0.515625 0.5 -1.1875 0.84375q-0.671875 0.328125 -1.375 0.328125zm0.703125 -2.234375q0.46875 0 0.859375 -0.1875q0.390625 -0.203125 0.765625 -0.671875l0 -3.75q-0.375 -0.328125 -0.765625 -0.46875q-0.375 -0.140625 -0.78125 -0.140625q-0.765625 0 -1.328125 0.640625q-0.546875 0.625 -0.546875 1.921875q0 1.390625 0.46875 2.03125q0.46875 0.625 1.328125 0.625zm18.246887 5.453125l0 -12.687508l2.234375 0l0.203125 0.9218826l0.0625 0q0.5625 -0.5000076 1.28125 -0.8281326q0.734375 -0.328125 1.484375 -0.328125q0.859375 0 1.546875 0.34375q0.6875 0.328125 1.171875 0.9531326q0.484375 0.609375 0.734375 1.484375q0.25 0.859375 0.25 1.921875q0 1.203125 -0.34375 2.125q-0.328125 0.921875 -0.890625 1.5625q-0.546875 0.640625 -1.265625 0.984375q-0.71875 0.328125 -1.5 0.328125q-1.28125 0 -2.28125 -1.0l-0.078125 0l0.125 1.515625l0 2.703125l-2.734375 0zm4.328125 -5.453125q0.78125 0 1.296875 -0.640625q0.53125 -0.640625 0.53125 -2.078125q0 -2.5 -1.703125 -2.5q-0.875 0 -1.71875 0.859375l0 3.75q0.40625 0.328125 0.8125 0.46875q0.421875 0.140625 0.78125 0.140625zm9.693756 2.234375q-0.703125 0 -1.265625 -0.21875q-0.5625 -0.203125 -0.953125 -0.578125q-0.390625 -0.390625 -0.609375 -0.890625q-0.203125 -0.515625 -0.203125 -1.109375q0 -0.78125 0.328125 -1.359375q0.34375 -0.59375 1.078125 -1.0q0.734375 -0.421875 1.890625 -0.671875q1.15625 -0.25 2.796875 -0.34375q-0.078125 -0.625 -0.546875 -0.984375q-0.46875 -0.359375 -1.421875 -0.359375q-0.671875 0 -1.359375 0.234375q-0.671875 0.234375 -1.46875 0.625l-0.96875 -1.796875q0.953125 -0.5312576 2.046875 -0.8906326q1.09375 -0.359375 2.28125 -0.359375q1.953125 0 3.0625 1.0312576q1.125 1.03125 1.125 3.15625l0 5.296875l-2.234375 0l-0.21875 -1.046875l-0.0625 0q-0.71875 0.546875 -1.5625 0.90625q-0.828125 0.359375 -1.734375 0.359375zm0.890625 -2.125q0.609375 0 1.140625 -0.25q0.546875 -0.25 1.03125 -0.625l0 -1.53125q-1.015625 0.0625 -1.6875 0.1875q-0.671875 0.125 -1.078125 0.328125q-0.390625 0.203125 -0.546875 0.46875q-0.15625 0.25 -0.15625 0.546875q0 0.453125 0.34375 0.671875q0.34375 0.203125 0.953125 0.203125zm8.303131 1.90625l0 -9.250008l2.234375 0l0.21875 2.0156326l0.0625 0q0.6875 -1.140625 1.65625 -1.6875076q0.96875 -0.5625 2.09375 -0.5625q0.609375 0 0.984375 0.09375q0.390625 0.09375 0.796875 0.28125l-0.5625 2.2968826q-0.421875 -0.125 -0.765625 -0.1875q-0.34375 -0.078125 -0.875 -0.078125q-0.859375 0 -1.6875 0.515625q-0.828125 0.5 -1.421875 1.75l0 4.8125l-2.734375 0zm13.193756 0.21875q-0.703125 0 -1.265625 -0.21875q-0.5625 -0.203125 -0.953125 -0.578125q-0.390625 -0.390625 -0.609375 -0.890625q-0.203125 -0.515625 -0.203125 -1.109375q0 -0.78125 0.328125 -1.359375q0.34375 -0.59375 1.078125 -1.0q0.734375 -0.421875 1.890625 -0.671875q1.15625 -0.25 2.796875 -0.34375q-0.078125 -0.625 -0.546875 -0.984375q-0.46875 -0.359375 -1.421875 -0.359375q-0.671875 0 -1.359375 0.234375q-0.671875 0.234375 -1.46875 0.625l-0.96875 -1.796875q0.953125 -0.5312576 2.046875 -0.8906326q1.09375 -0.359375 2.28125 -0.359375q1.953125 0 3.0625 1.0312576q1.125 1.03125 1.125 3.15625l0 5.296875l-2.234375 0l-0.21875 -1.046875l-0.0625 0q-0.71875 0.546875 -1.5625 0.90625q-0.828125 0.359375 -1.734375 0.359375zm0.890625 -2.125q0.609375 0 1.140625 -0.25q0.546875 -0.25 1.03125 -0.625l0 -1.53125q-1.015625 0.0625 -1.6875 0.1875q-0.671875 0.125 -1.078125 0.328125q-0.390625 0.203125 -0.546875 0.46875q-0.15625 0.25 -0.15625 0.546875q0 0.453125 0.34375 0.671875q0.34375 0.203125 0.953125 0.203125zm6.787506 1.90625l0 -9.250008l2.0625 0l0.1875 1.1406326l0.078125 0q0.265625 -0.5625 0.71875 -0.9687576q0.46875 -0.40625 1.28125 -0.40625q0.59375 0 1.015625 0.390625q0.421875 0.37500763 0.578125 1.1250076q0.265625 -0.625 0.75 -1.0625076q0.5 -0.453125 1.3125 -0.453125q1.0 0 1.53125 0.7968826q0.53125 0.796875 0.53125 2.1875l0 6.5l-2.609375 0l0 -6.3125q0 -0.421875 -0.109375 -0.625q-0.109375 -0.203125 -0.390625 -0.203125q-0.265625 0 -0.453125 0.21875q-0.1875 0.21875 -0.390625 0.671875l0 6.25l-2.140625 0l0 -6.3125q0 -0.828125 -0.53125 -0.828125q-0.25 0 -0.4375 0.21875q-0.1875 0.21875 -0.375 0.671875l0 6.25l-2.609375 0zm17.850006 3.34375q-1.828125 -1.625 -2.890625 -3.75q-1.046875 -2.125 -1.046875 -4.78125q0 -2.640625 1.046875 -4.7656326q1.0625 -2.140625 2.890625 -3.7656212l1.53125 1.2187462q-1.65625 1.625 -2.421875 3.375q-0.75 1.7343826 -0.75 3.9375076q0 1.109375 0.1875 2.09375q0.1875 0.96875 0.5625 1.875q0.390625 0.890625 0.984375 1.71875q0.59375 0.828125 1.4375 1.625l-1.53125 1.21875zm5.225006 0.09375l0 -12.687508l2.234375 0l0.203125 0.9218826l0.0625 0q0.5625 -0.5000076 1.28125 -0.8281326q0.734375 -0.328125 1.484375 -0.328125q0.859375 0 1.546875 0.34375q0.6875 0.328125 1.171875 0.9531326q0.484375 0.609375 0.734375 1.484375q0.25 0.859375 0.25 1.921875q0 1.203125 -0.34375 2.125q-0.328125 0.921875 -0.890625 1.5625q-0.546875 0.640625 -1.265625 0.984375q-0.71875 0.328125 -1.5 0.328125q-1.28125 0 -2.28125 -1.0l-0.078125 0l0.125 1.515625l0 2.703125l-2.734375 0zm4.328125 -5.453125q0.78125 0 1.296875 -0.640625q0.53125 -0.640625 0.53125 -2.078125q0 -2.5 -1.703125 -2.5q-0.875 0 -1.71875 0.859375l0 3.75q0.40625 0.328125 0.8125 0.46875q0.421875 0.140625 0.78125 0.140625zm11.037506 2.234375q-1.25 0 -2.4375 -0.40625q-1.1875 -0.40625 -2.09375 -1.0l1.1875 -1.71875q0.84375 0.53125 1.78125 0.8125q0.9375 0.28125 1.9375 0.28125q0.765625 0 1.125 -0.21875q0.359375 -0.21875 0.359375 -0.5625q0 -0.1875 -0.109375 -0.328125q-0.109375 -0.15625 -0.359375 -0.28125q-0.25 -0.125 -0.703125 -0.234375q-0.4375 -0.109375 -1.109375 -0.25q-1.890625 -0.421875 -2.71875 -1.109375q-0.8125 -0.703125 -0.8125 -1.78125q0 -0.640625 0.296875 -1.171875q0.3125 -0.546875 0.859375 -0.921875q0.546875 -0.37500763 1.328125 -0.5937576q0.78125 -0.21875 1.78125 -0.21875q1.25 0 2.265625 0.40625q1.015625 0.40625763 1.734375 0.8750076l-1.234375 1.640625q-0.703125 -0.4375 -1.46875 -0.65625q-0.765625 -0.21875 -1.546875 -0.21875q-0.65625 0 -0.96875 0.203125q-0.3125 0.203125 -0.3125 0.515625q0 0.390625 0.484375 0.5625q0.484375 0.171875 1.65625 0.421875q1.0625 0.25 1.765625 0.53125q0.71875 0.28125 1.125 0.640625q0.40625 0.34375 0.578125 0.796875q0.171875 0.4375 0.171875 1.0q0 0.640625 -0.296875 1.1875q-0.296875 0.53125 -0.875 0.9375q-0.5625 0.390625 -1.421875 0.625q-0.84375 0.234375 -1.96875 0.234375zm9.834381 0q-1.578125 0 -2.296875 -1.0q-0.703125 -1.015625 -0.703125 -2.765625l0 -5.7031326l2.75 0l0 5.3437576q0 0.9375 0.265625 1.375q0.28125 0.421875 1.078125 0.421875q0.515625 0 0.90625 -0.21875q0.40625 -0.234375 0.890625 -0.84375l0 -6.0781326l2.75 0l0 9.250008l-2.234375 0l-0.21875 -1.328125l-0.0625 0q-0.625 0.71875 -1.375 1.140625q-0.734375 0.40625 -1.75 0.40625zm11.818756 0q-0.875 0 -1.59375 -0.328125q-0.71875 -0.34375 -1.234375 -0.96875q-0.515625 -0.625 -0.796875 -1.515625q-0.28125 -0.890625 -0.28125 -2.03125q0 -1.140625 0.328125 -2.03125q0.34375 -0.90625 0.890625 -1.53125q0.5625 -0.6250076 1.265625 -0.9531326q0.703125 -0.34375 1.46875 -0.34375q0.78125 0 1.328125 0.265625q0.546875 0.25 1.0 0.7343826l0.078125 0l-0.125 -1.4375076l0 -3.1562462l2.734375 0l0 13.078129l-2.234375 0l-0.203125 -0.953125l-0.0625 0q-0.515625 0.5 -1.1875 0.84375q-0.671875 0.328125 -1.375 0.328125zm0.703125 -2.234375q0.46875 0 0.859375 -0.1875q0.390625 -0.203125 0.765625 -0.671875l0 -3.75q-0.375 -0.328125 -0.765625 -0.46875q-0.375 -0.140625 -0.78125 -0.140625q-0.765625 0 -1.328125 0.640625q-0.546875 0.625 -0.546875 1.921875q0 1.390625 0.46875 2.03125q0.46875 0.625 1.328125 0.625zm11.303131 2.234375q-0.90625 0 -1.765625 -0.3125q-0.84375 -0.328125 -1.515625 -0.9375q-0.65625 -0.625 -1.046875 -1.53125q-0.390625 -0.90625 -0.390625 -2.0625q0 -1.15625 0.390625 -2.0625q0.390625 -0.90625 1.046875 -1.515625q0.671875 -0.6250076 1.515625 -0.9531326q0.859375 -0.328125 1.765625 -0.328125q0.921875 0 1.765625 0.328125q0.84375 0.328125 1.5 0.9531326q0.671875 0.609375 1.0625 1.515625q0.390625 0.90625 0.390625 2.0625q0 1.15625 -0.390625 2.0625q-0.390625 0.90625 -1.0625 1.53125q-0.65625 0.609375 -1.5 0.9375q-0.84375 0.3125 -1.765625 0.3125zm0 -2.21875q0.953125 0 1.421875 -0.703125q0.484375 -0.71875 0.484375 -1.921875q0 -1.21875 -0.484375 -1.921875q-0.46875 -0.703125 -1.421875 -0.703125q-0.953125 0 -1.4375 0.703125q-0.46875 0.703125 -0.46875 1.921875q0 1.203125 0.46875 1.921875q0.484375 0.703125 1.4375 0.703125zm9.475006 5.34375l-1.53125 -1.21875q0.84375 -0.796875 1.4375 -1.625q0.609375 -0.828125 0.984375 -1.71875q0.390625 -0.90625 0.5625 -1.875q0.1875 -0.984375 0.1875 -2.09375q0 -2.203125 -0.75 -3.9375076q-0.75 -1.75 -2.421875 -3.375l1.53125 -1.2187462q1.828125 1.6249962 2.875 3.7656212q1.0625 2.1250076 1.0625 4.7656326q0 2.65625 -1.0625 4.78125q-1.046875 2.125 -2.875 3.75z" fill-rule="nonzero"/><path fill="#000000" fill-opacity="0.0" d="m0.002624672 96.0l258.04724 0l0 47.62204l-258.04724 0z" fill-rule="evenodd"/><path fill="#000000" d="m160.73419 111.73102l0 -12.15625l2.8125 0l2.5625 6.03125l1.046875 2.6875l0.0625 0q-0.09375 -0.96875 -0.25 -2.140625q-0.140625 -1.1875 -0.140625 -2.28125l0 -4.296875l2.640625 0l0 12.15625l-2.828125 0l-2.546875 -6.0625l-1.046875 -2.65625l-0.078125 0q0.09375 1.015625 0.234375 2.171875q0.15625 1.15625 0.15625 2.234375l0 4.3125l-2.625 0zm14.131256 0.21875q-0.703125 0 -1.265625 -0.21875q-0.5625 -0.203125 -0.953125 -0.578125q-0.390625 -0.390625 -0.609375 -0.890625q-0.203125 -0.515625 -0.203125 -1.109375q0 -0.78125 0.328125 -1.359375q0.34375 -0.59375 1.078125 -1.0q0.734375 -0.421875 1.890625 -0.671875q1.15625 -0.25 2.796875 -0.34375q-0.078125 -0.625 -0.546875 -0.984375q-0.46875 -0.359375 -1.421875 -0.359375q-0.671875 0 -1.359375 0.234375q-0.671875 0.234375 -1.46875 0.625l-0.96875 -1.796875q0.953125 -0.53125 2.046875 -0.890625q1.09375 -0.359375 2.28125 -0.359375q1.953125 0 3.0625 1.03125q1.125 1.03125 1.125 3.15625l0 5.296875l-2.234375 0l-0.21875 -1.046875l-0.0625 0q-0.71875 0.546875 -1.5625 0.90625q-0.828125 0.359375 -1.734375 0.359375zm0.890625 -2.125q0.609375 0 1.140625 -0.25q0.546875 -0.25 1.03125 -0.625l0 -1.53125q-1.015625 0.0625 -1.6875 0.1875q-0.671875 0.125 -1.078125 0.328125q-0.390625 0.203125 -0.546875 0.46875q-0.15625 0.25 -0.15625 0.546875q0 0.453125 0.34375 0.671875q0.34375 0.203125 0.953125 0.203125zm6.787506 1.90625l0 -9.25l2.0625 0l0.1875 1.140625l0.078125 0q0.265625 -0.5625 0.71875 -0.96875q0.46875 -0.40625 1.28125 -0.40625q0.59375 0 1.015625 0.390625q0.421875 0.375 0.578125 1.125q0.265625 -0.625 0.75 -1.0625q0.5 -0.453125 1.3125 -0.453125q1.0 0 1.53125 0.796875q0.53125 0.796875 0.53125 2.1875l0 6.5l-2.609375 0l0 -6.3125q0 -0.421875 -0.109375 -0.625q-0.109375 -0.203125 -0.390625 -0.203125q-0.265625 0 -0.453125 0.21875q-0.1875 0.21875 -0.390625 0.671875l0 6.25l-2.140625 0l0 -6.3125q0 -0.828125 -0.53125 -0.828125q-0.25 0 -0.4375 0.21875q-0.1875 0.21875 -0.375 0.671875l0 6.25l-2.609375 0zm16.693756 0.21875q-1.078125 0 -2.03125 -0.3125q-0.9375 -0.328125 -1.625 -0.9375q-0.6875 -0.625 -1.078125 -1.53125q-0.390625 -0.90625 -0.390625 -2.0625q0 -1.140625 0.390625 -2.046875q0.40625 -0.90625 1.078125 -1.53125q0.671875 -0.625 1.53125 -0.953125q0.875 -0.328125 1.8125 -0.328125q1.0625 0 1.875 0.34375q0.828125 0.328125 1.375 0.9375q0.546875 0.59375 0.828125 1.40625q0.28125 0.8125 0.28125 1.765625q0 0.359375 -0.046875 0.71875q-0.046875 0.34375 -0.078125 0.5l-6.3125 0q0.203125 1.015625 0.90625 1.484375q0.71875 0.46875 1.859375 0.46875q0.625 0 1.1875 -0.171875q0.578125 -0.171875 1.203125 -0.484375l0.90625 1.65625q-0.796875 0.5 -1.765625 0.796875q-0.96875 0.28125 -1.90625 0.28125zm-0.21875 -7.609375q-0.828125 0 -1.375 0.4375q-0.546875 0.421875 -0.75 1.296875l3.953125 0q-0.203125 -1.734375 -1.828125 -1.734375zm20.621887 7.609375q-0.703125 0 -1.265625 -0.21875q-0.5625 -0.203125 -0.953125 -0.578125q-0.390625 -0.390625 -0.609375 -0.890625q-0.203125 -0.515625 -0.203125 -1.109375q0 -0.78125 0.328125 -1.359375q0.34375 -0.59375 1.078125 -1.0q0.734375 -0.421875 1.890625 -0.671875q1.15625 -0.25 2.796875 -0.34375q-0.078125 -0.625 -0.546875 -0.984375q-0.46875 -0.359375 -1.421875 -0.359375q-0.671875 0 -1.359375 0.234375q-0.671875 0.234375 -1.46875 0.625l-0.96875 -1.796875q0.953125 -0.53125 2.046875 -0.890625q1.09375 -0.359375 2.28125 -0.359375q1.953125 0 3.0625 1.03125q1.125 1.03125 1.125 3.15625l0 5.296875l-2.234375 0l-0.21875 -1.046875l-0.0625 0q-0.71875 0.546875 -1.5625 0.90625q-0.828125 0.359375 -1.734375 0.359375zm0.890625 -2.125q0.609375 0 1.140625 -0.25q0.546875 -0.25 1.03125 -0.625l0 -1.53125q-1.015625 0.0625 -1.6875 0.1875q-0.671875 0.125 -1.078125 0.328125q-0.390625 0.203125 -0.546875 0.46875q-0.15625 0.25 -0.15625 0.546875q0 0.453125 0.34375 0.671875q0.34375 0.203125 0.953125 0.203125zm7.475006 1.90625l0 -9.25l2.234375 0l0.203125 1.234375l0.078125 0q0.59375 -0.609375 1.359375 -1.03125q0.78125 -0.4375 1.828125 -0.4375q1.578125 0 2.296875 1.015625q0.734375 1.0 0.734375 2.765625l0 5.703125l-2.75 0l0 -5.359375q0 -0.921875 -0.296875 -1.34375q-0.296875 -0.4375 -1.0625 -0.4375q-0.5625 0 -0.984375 0.25q-0.40625 0.234375 -0.90625 0.71875l0 6.171875l-2.734375 0zm14.631256 0.21875q-0.875 0 -1.59375 -0.328125q-0.71875 -0.34375 -1.234375 -0.96875q-0.515625 -0.625 -0.796875 -1.515625q-0.28125 -0.890625 -0.28125 -2.03125q0 -1.140625 0.328125 -2.03125q0.34375 -0.90625 0.890625 -1.53125q0.5625 -0.625 1.265625 -0.953125q0.703125 -0.34375 1.46875 -0.34375q0.78125 0 1.328125 0.265625q0.546875 0.25 1.0 0.734375l0.078125 0l-0.125 -1.4375l0 -3.15625l2.734375 0l0 13.078125l-2.234375 0l-0.203125 -0.953125l-0.0625 0q-0.515625 0.5 -1.1875 0.84375q-0.671875 0.328125 -1.375 0.328125zm0.703125 -2.234375q0.46875 0 0.859375 -0.1875q0.390625 -0.203125 0.765625 -0.671875l0 -3.75q-0.375 -0.328125 -0.765625 -0.46875q-0.375 -0.140625 -0.78125 -0.140625q-0.765625 0 -1.328125 0.640625q-0.546875 0.625 -0.546875 1.921875q0 1.390625 0.46875 2.03125q0.46875 0.625 1.328125 0.625z" fill-rule="nonzero"/><path fill="#000000" d="m104.87479 141.16852l0 -12.6875l2.234375 0l0.203125 0.921875l0.0625 0q0.5625 -0.5 1.28125 -0.828125q0.734375 -0.328125 1.484375 -0.328125q0.859375 0 1.546875 0.34375q0.6875 0.328125 1.171875 0.953125q0.484375 0.609375 0.734375 1.484375q0.25 0.859375 0.25 1.921875q0 1.203125 -0.34375 2.125q-0.328125 0.921875 -0.890625 1.5625q-0.546875 0.640625 -1.265625 0.984375q-0.71875 0.328125 -1.5 0.328125q-1.28125 0 -2.28125 -1.0l-0.078125 0l0.125 1.515625l0 2.703125l-2.734375 0zm4.328125 -5.453125q0.78125 0 1.296875 -0.640625q0.53125 -0.640625 0.53125 -2.078125q0 -2.5 -1.703125 -2.5q-0.875 0 -1.71875 0.859375l0 3.75q0.40625 0.328125 0.8125 0.46875q0.421875 0.140625 0.78125 0.140625zm9.693756 2.234375q-0.703125 0 -1.265625 -0.21875q-0.5625 -0.203125 -0.953125 -0.578125q-0.390625 -0.390625 -0.609375 -0.890625q-0.203125 -0.515625 -0.203125 -1.109375q0 -0.78125 0.328125 -1.359375q0.34375 -0.59375 1.078125 -1.0q0.734375 -0.421875 1.890625 -0.671875q1.15625 -0.25 2.796875 -0.34375q-0.078125 -0.625 -0.546875 -0.984375q-0.46875 -0.359375 -1.421875 -0.359375q-0.671875 0 -1.359375 0.234375q-0.671875 0.234375 -1.46875 0.625l-0.96875 -1.796875q0.953125 -0.53125 2.046875 -0.890625q1.09375 -0.359375 2.28125 -0.359375q1.953125 0 3.0625 1.03125q1.125 1.03125 1.125 3.15625l0 5.296875l-2.234375 0l-0.21875 -1.046875l-0.0625 0q-0.71875 0.546875 -1.5625 0.90625q-0.828125 0.359375 -1.734375 0.359375zm0.890625 -2.125q0.609375 0 1.140625 -0.25q0.546875 -0.25 1.03125 -0.625l0 -1.53125q-1.015625 0.0625 -1.6875 0.1875q-0.671875 0.125 -1.078125 0.328125q-0.390625 0.203125 -0.546875 0.46875q-0.15625 0.25 -0.15625 0.546875q0 0.453125 0.34375 0.671875q0.34375 0.203125 0.953125 0.203125zm8.303131 1.90625l0 -9.25l2.234375 0l0.21875 2.015625l0.0625 0q0.6875 -1.140625 1.65625 -1.6875q0.96875 -0.5625 2.09375 -0.5625q0.609375 0 0.984375 0.09375q0.390625 0.09375 0.796875 0.28125l-0.5625 2.296875q-0.421875 -0.125 -0.765625 -0.1875q-0.34375 -0.078125 -0.875 -0.078125q-0.859375 0 -1.6875 0.515625q-0.828125 0.5 -1.421875 1.75l0 4.8125l-2.734375 0zm13.193756 0.21875q-0.703125 0 -1.265625 -0.21875q-0.5625 -0.203125 -0.953125 -0.578125q-0.390625 -0.390625 -0.609375 -0.890625q-0.203125 -0.515625 -0.203125 -1.109375q0 -0.78125 0.328125 -1.359375q0.34375 -0.59375 1.078125 -1.0q0.734375 -0.421875 1.890625 -0.671875q1.15625 -0.25 2.796875 -0.34375q-0.078125 -0.625 -0.546875 -0.984375q-0.46875 -0.359375 -1.421875 -0.359375q-0.671875 0 -1.359375 0.234375q-0.671875 0.234375 -1.46875 0.625l-0.96875 -1.796875q0.953125 -0.53125 2.046875 -0.890625q1.09375 -0.359375 2.28125 -0.359375q1.953125 0 3.0625 1.03125q1.125 1.03125 1.125 3.15625l0 5.296875l-2.234375 0l-0.21875 -1.046875l-0.0625 0q-0.71875 0.546875 -1.5625 0.90625q-0.828125 0.359375 -1.734375 0.359375zm0.890625 -2.125q0.609375 0 1.140625 -0.25q0.546875 -0.25 1.03125 -0.625l0 -1.53125q-1.015625 0.0625 -1.6875 0.1875q-0.671875 0.125 -1.078125 0.328125q-0.390625 0.203125 -0.546875 0.46875q-0.15625 0.25 -0.15625 0.546875q0 0.453125 0.34375 0.671875q0.34375 0.203125 0.953125 0.203125zm6.787506 1.90625l0 -9.25l2.0625 0l0.1875 1.140625l0.078125 0q0.265625 -0.5625 0.71875 -0.96875q0.46875 -0.40625 1.28125 -0.40625q0.59375 0 1.015625 0.390625q0.421875 0.375 0.578125 1.125q0.265625 -0.625 0.75 -1.0625q0.5 -0.453125 1.3125 -0.453125q1.0 0 1.53125 0.796875q0.53125 0.796875 0.53125 2.1875l0 6.5l-2.609375 0l0 -6.3125q0 -0.421875 -0.109375 -0.625q-0.109375 -0.203125 -0.390625 -0.203125q-0.265625 0 -0.453125 0.21875q-0.1875 0.21875 -0.390625 0.671875l0 6.25l-2.140625 0l0 -6.3125q0 -0.828125 -0.53125 -0.828125q-0.25 0 -0.4375 0.21875q-0.1875 0.21875 -0.375 0.671875l0 6.25l-2.609375 0zm17.850006 3.34375q-1.828125 -1.625 -2.890625 -3.75q-1.046875 -2.125 -1.046875 -4.78125q0 -2.640625 1.046875 -4.7656174q1.0625 -2.140625 2.890625 -3.765625l1.53125 1.21875q-1.65625 1.625 -2.421875 3.3749924q-0.75 1.734375 -0.75 3.9375q0 1.109375 0.1875 2.09375q0.1875 0.96875 0.5625 1.875q0.390625 0.890625 0.984375 1.71875q0.59375 0.828125 1.4375 1.625l-1.53125 1.21875zm4.537506 -3.34375l0 -9.25l2.0625 0l0.1875 1.140625l0.078125 0q0.265625 -0.5625 0.71875 -0.96875q0.46875 -0.40625 1.28125 -0.40625q0.59375 0 1.015625 0.390625q0.421875 0.375 0.578125 1.125q0.265625 -0.625 0.75 -1.0625q0.5 -0.453125 1.3125 -0.453125q1.0 0 1.53125 0.796875q0.53125 0.796875 0.53125 2.1875l0 6.5l-2.609375 0l0 -6.3125q0 -0.421875 -0.109375 -0.625q-0.109375 -0.203125 -0.390625 -0.203125q-0.265625 0 -0.453125 0.21875q-0.1875 0.21875 -0.390625 0.671875l0 6.25l-2.140625 0l0 -6.3125q0 -0.828125 -0.53125 -0.828125q-0.25 0 -0.4375 0.21875q-0.1875 0.21875 -0.375 0.671875l0 6.25l-2.609375 0zm14.709381 0.21875q-0.703125 0 -1.265625 -0.21875q-0.5625 -0.203125 -0.953125 -0.578125q-0.390625 -0.390625 -0.609375 -0.890625q-0.203125 -0.515625 -0.203125 -1.109375q0 -0.78125 0.328125 -1.359375q0.34375 -0.59375 1.078125 -1.0q0.734375 -0.421875 1.890625 -0.671875q1.15625 -0.25 2.796875 -0.34375q-0.078125 -0.625 -0.546875 -0.984375q-0.46875 -0.359375 -1.421875 -0.359375q-0.671875 0 -1.359375 0.234375q-0.671875 0.234375 -1.46875 0.625l-0.96875 -1.796875q0.953125 -0.53125 2.046875 -0.890625q1.09375 -0.359375 2.28125 -0.359375q1.953125 0 3.0625 1.03125q1.125 1.03125 1.125 3.15625l0 5.296875l-2.234375 0l-0.21875 -1.046875l-0.0625 0q-0.71875 0.546875 -1.5625 0.90625q-0.828125 0.359375 -1.734375 0.359375zm0.890625 -2.125q0.609375 0 1.140625 -0.25q0.546875 -0.25 1.03125 -0.625l0 -1.53125q-1.015625 0.0625 -1.6875 0.1875q-0.671875 0.125 -1.078125 0.328125q-0.390625 0.203125 -0.546875 0.46875q-0.15625 0.25 -0.15625 0.546875q0 0.453125 0.34375 0.671875q0.34375 0.203125 0.953125 0.203125zm8.303131 1.90625l0 -9.25l2.234375 0l0.21875 2.015625l0.0625 0q0.6875 -1.140625 1.65625 -1.6875q0.96875 -0.5625 2.09375 -0.5625q0.609375 0 0.984375 0.09375q0.390625 0.09375 0.796875 0.28125l-0.5625 2.296875q-0.421875 -0.125 -0.765625 -0.1875q-0.34375 -0.078125 -0.875 -0.078125q-0.859375 0 -1.6875 0.515625q-0.828125 0.5 -1.421875 1.75l0 4.8125l-2.734375 0zm15.334381 0.21875q-0.65625 0 -1.3125 -0.3125q-0.640625 -0.3125 -1.21875 -0.90625l-0.0625 0l-0.234375 1.0l-2.140625 0l0 -13.078117l2.734375 0l0 3.203125l-0.078125 1.4687424l0.046875 0q0.53125 -0.515625 1.1875 -0.796875q0.671875 -0.28125 1.34375 -0.28125q0.859375 0 1.5625 0.34375q0.703125 0.328125 1.171875 0.9375q0.484375 0.609375 0.734375 1.484375q0.265625 0.859375 0.265625 1.921875q0 1.203125 -0.34375 2.140625q-0.328125 0.921875 -0.890625 1.5625q-0.546875 0.640625 -1.265625 0.984375q-0.71875 0.328125 -1.5 0.328125zm-0.625 -2.234375q0.765625 0 1.28125 -0.640625q0.53125 -0.640625 0.53125 -2.078125q0 -2.5 -1.703125 -2.5q-0.875 0 -1.71875 0.859375l0 3.75q0.40625 0.328125 0.8125 0.46875q0.421875 0.140625 0.796875 0.140625zm12.881256 2.234375q-1.765625 0 -2.65625 -1.03125q-0.875 -1.03125 -0.875 -2.8125l0 -7.2812424l-2.90625 0l0 -2.171875l5.640625 0l0 9.578117q0 0.421875 0.125 0.71875q0.125 0.28125 0.328125 0.46875q0.21875 0.171875 0.484375 0.25q0.28125 0.0625 0.578125 0.0625q0.3125 0 0.65625 -0.0625q0.359375 -0.0625 0.78125 -0.234375l0.625 2.015625q-0.375 0.109375 -0.703125 0.203125q-0.3125 0.09375 -0.640625 0.15625q-0.3125 0.078125 -0.671875 0.109375q-0.34375 0.03125 -0.765625 0.03125zm9.975006 0q-1.078125 0 -2.03125 -0.3125q-0.9375 -0.328125 -1.625 -0.9375q-0.6875 -0.625 -1.078125 -1.53125q-0.390625 -0.90625 -0.390625 -2.0625q0 -1.140625 0.390625 -2.046875q0.40625 -0.90625 1.078125 -1.53125q0.671875 -0.625 1.53125 -0.953125q0.875 -0.328125 1.8125 -0.328125q1.0625 0 1.875 0.34375q0.828125 0.328125 1.375 0.9375q0.546875 0.59375 0.828125 1.40625q0.28125 0.8125 0.28125 1.765625q0 0.359375 -0.046875 0.71875q-0.046875 0.34375 -0.078125 0.5l-6.3125 0q0.203125 1.015625 0.90625 1.484375q0.71875 0.46875 1.859375 0.46875q0.625 0 1.1875 -0.171875q0.578125 -0.171875 1.203125 -0.484375l0.90625 1.65625q-0.796875 0.5 -1.765625 0.796875q-0.96875 0.28125 -1.90625 0.28125zm-0.21875 -7.609375q-0.828125 0 -1.375 0.4375q-0.546875 0.421875 -0.75 1.296875l3.953125 0q-0.203125 -1.734375 -1.828125 -1.734375zm9.131256 10.734375l-1.53125 -1.21875q0.84375 -0.796875 1.4375 -1.625q0.609375 -0.828125 0.984375 -1.71875q0.390625 -0.90625 0.5625 -1.875q0.1875 -0.984375 0.1875 -2.09375q0 -2.203125 -0.75 -3.9375q-0.75 -1.7499924 -2.421875 -3.3749924l1.53125 -1.21875q1.828125 1.625 2.875 3.765625q1.0625 2.1249924 1.0625 4.7656174q0 2.65625 -1.0625 4.78125q-1.046875 2.125 -2.875 3.75z" fill-rule="nonzero"/><path fill="#ffffff" d="m276.95496 102.11057l566.92914 0l0 35.401573l-566.92914 0z" fill-rule="evenodd"/><path stroke="#000000" stroke-width="1.0" stroke-linejoin="round" stroke-linecap="butt" d="m276.95496 102.11057l566.92914 0l0 35.401573l-566.92914 0z" fill-rule="evenodd"/><path fill="#000000" d="m476.83823 124.95011q-0.65625 0 -1.40625 -0.3125q-0.75 -0.328125 -1.40625 -0.90625l-0.0625 0l-0.125 1.0l-1.234375 0l0 -13.28125l1.53125 0l0 3.625l-0.0625 1.75l0.0625 0q0.609375 -0.640625 1.421875 -1.015625q0.8125 -0.375 1.625 -0.375q0.90625 0 1.609375 0.328125q0.71875 0.328125 1.1875 0.9375q0.484375 0.609375 0.71875 1.453125q0.25 0.84375 0.25 1.890625q0 1.15625 -0.34375 2.078125q-0.328125 0.90625 -0.90625 1.546875q-0.5625 0.640625 -1.3125 0.96875q-0.75 0.3125 -1.546875 0.3125zm-0.234375 -1.28125q0.59375 0 1.09375 -0.25q0.5 -0.25 0.875 -0.703125q0.375 -0.46875 0.578125 -1.140625q0.203125 -0.671875 0.203125 -1.515625q0 -0.734375 -0.15625 -1.34375q-0.140625 -0.625 -0.453125 -1.0625q-0.296875 -0.4375 -0.78125 -0.671875q-0.484375 -0.25 -1.15625 -0.25q-0.609375 0 -1.296875 0.328125q-0.671875 0.328125 -1.375 1.03125l0 4.515625q0.65625 0.578125 1.3125 0.828125q0.671875 0.234375 1.15625 0.234375zm10.053131 1.28125q-0.640625 0 -1.203125 -0.171875q-0.5625 -0.171875 -0.984375 -0.5q-0.40625 -0.328125 -0.65625 -0.796875q-0.234375 -0.484375 -0.234375 -1.09375q0 -0.765625 0.359375 -1.328125q0.359375 -0.578125 1.15625 -0.984375q0.796875 -0.421875 2.046875 -0.671875q1.25 -0.265625 3.0 -0.421875q-0.015625 -0.46875 -0.15625 -0.875q-0.125 -0.40625 -0.40625 -0.71875q-0.28125 -0.3125 -0.734375 -0.484375q-0.453125 -0.1875 -1.109375 -0.1875q-0.890625 0 -1.71875 0.34375q-0.8125 0.34375 -1.453125 0.734375l-0.59375 -1.046875q0.328125 -0.21875 0.78125 -0.453125q0.46875 -0.234375 0.96875 -0.421875q0.515625 -0.1875 1.09375 -0.3125q0.578125 -0.125 1.1875 -0.125q1.859375 0 2.765625 1.03125q0.90625 1.015625 0.90625 2.703125l0 5.5625l-1.25 0l-0.125 -1.234375l-0.0625 0q-0.765625 0.59375 -1.6875 1.03125q-0.921875 0.421875 -1.890625 0.421875zm0.40625 -1.21875q0.78125 0 1.53125 -0.34375q0.765625 -0.359375 1.546875 -1.0l0 -2.390625q-1.453125 0.109375 -2.4375 0.3125q-0.96875 0.203125 -1.5625 0.5q-0.59375 0.28125 -0.84375 0.65625q-0.234375 0.359375 -0.234375 0.796875q0 0.390625 0.171875 0.671875q0.171875 0.265625 0.4375 0.453125q0.265625 0.171875 0.625 0.265625q0.375 0.078125 0.765625 0.078125zm8.912506 1.0l0 -9.0625l1.28125 0l0.125 2.140625l0.046875 0q0.71875 -1.09375 1.75 -1.734375q1.03125 -0.640625 2.3125 -0.640625q0.5 0 0.921875 0.09375q0.4375 0.078125 0.859375 0.28125l-0.359375 1.328125q-0.484375 -0.171875 -0.8125 -0.234375q-0.3125 -0.078125 -0.859375 -0.078125q-1.03125 0 -1.96875 0.59375q-0.9375 0.578125 -1.765625 2.0l0 5.3125l-1.53125 0zm10.959381 0l0 -12.234375l7.515625 0l0 1.296875l-5.953125 0l0 4.140625l5.03125 0l0 1.3125l-5.03125 0l0 5.484375l-1.5625 0zm14.303101 0.21875q-0.890625 0 -1.703125 -0.3125q-0.8125 -0.3125 -1.4375 -0.921875q-0.609375 -0.609375 -0.96875 -1.484375q-0.359375 -0.890625 -0.359375 -2.015625q0 -1.140625 0.359375 -2.015625q0.359375 -0.890625 0.96875 -1.5q0.625 -0.625 1.4375 -0.9375q0.8125 -0.328125 1.703125 -0.328125q0.90625 0 1.703125 0.328125q0.8125 0.3125 1.421875 0.9375q0.625 0.609375 0.984375 1.5q0.375 0.875 0.375 2.015625q0 1.125 -0.375 2.015625q-0.359375 0.875 -0.984375 1.484375q-0.609375 0.609375 -1.421875 0.921875q-0.796875 0.3125 -1.703125 0.3125zm0 -1.265625q0.65625 0 1.1875 -0.25q0.53125 -0.25 0.90625 -0.703125q0.390625 -0.46875 0.59375 -1.09375q0.203125 -0.640625 0.203125 -1.421875q0 -0.78125 -0.203125 -1.421875q-0.203125 -0.640625 -0.59375 -1.109375q-0.375 -0.46875 -0.90625 -0.71875q-0.53125 -0.25 -1.1875 -0.25q-0.65625 0 -1.1875 0.25q-0.53125 0.25 -0.921875 0.71875q-0.375 0.46875 -0.578125 1.109375q-0.203125 0.640625 -0.203125 1.421875q0 0.78125 0.203125 1.421875q0.203125 0.625 0.578125 1.09375q0.390625 0.453125 0.921875 0.703125q0.53125 0.25 1.1875 0.25zm13.678162 4.3281174q-1.9375 -1.5156174 -3.078125 -3.6406174q-1.125 -2.125 -1.125 -4.828125q0 -2.703125 1.125 -4.828125q1.140625 -2.125 3.078125 -3.640625l0.84375 0.78125q-1.890625 1.59375 -2.78125 3.453125q-0.875 1.859375 -0.875 4.234375q0 2.375 0.875 4.25q0.890625 1.859375 2.78125 3.4375l-0.84375 0.7812424zm27.081238 -10.859367l0 -1.15625l8.03125 0l0 1.15625l-8.03125 0zm0 4.0l0 -1.15625l8.03125 0l0 1.15625l-8.03125 0zm11.615662 2.6875l0 -1.484375l5.609375 -3.78125l0 -0.078125l-5.609375 -3.78125l0 -1.484375l6.953125 4.734375l0 1.15625l-6.953125 4.71875zm68.27191 4.1718674l-0.828125 -0.7812424q1.875 -1.578125 2.765625 -3.4375q0.890625 -1.875 0.890625 -4.25q0 -2.375 -0.890625 -4.234375q-0.890625 -1.859375 -2.765625 -3.453125l0.828125 -0.78125q1.953125 1.515625 3.078125 3.640625q1.125 2.125 1.125 4.828125q0 2.703125 -1.125 4.828125q-1.125 2.125 -3.078125 3.6406174z" fill-rule="nonzero"/><path fill="#6734ba" d="m538.52277 118.80307l0 0c0 -5.218437 4.2304077 -9.448814 9.448853 -9.448814l0 0c2.5059814 0 4.9093018 0.99549866 6.6813354 2.7674942c1.7719727 1.7719955 2.767456 4.1753387 2.767456 6.68132l0 0c0 5.218445 -4.2303467 9.448822 -9.4487915 9.448822l0 0c-5.218445 0 -9.448853 -4.230377 -9.448853 -9.448822z" fill-rule="evenodd"/><path fill="#000000" fill-opacity="0.0" d="m588.3255 119.14815l42.858948 -0.09449005" fill-rule="evenodd"/><path stroke="#000000" stroke-width="1.0" stroke-linejoin="round" stroke-linecap="butt" d="m588.3255 119.14815l36.858948 -0.08126068" fill-rule="evenodd"/><path fill="#000000" stroke="#000000" stroke-width="1.0" stroke-linecap="butt" d="m625.1881 120.71862l4.534485 -1.6617355l-4.541748 -1.6417236z" fill-rule="evenodd"/><path fill="#000000" d="m631.18445 109.60484l1.9226685 0l0 18.897629l-1.9226685 0z" fill-rule="evenodd"/><path fill="#6734ba" d="m599.06696 108.59689l18.897644 0l0 18.897636l-18.897644 0z" fill-rule="evenodd"/><path fill="#000000" fill-opacity="0.0" d="m0.002624672 152.0l258.04724 0l0 47.62204l-258.04724 0z" fill-rule="evenodd"/><path fill="#000000" d="m149.68106 180.73102l0 -2.3125l2.84375 0l0 -7.53125l-2.84375 0l0 -2.3125l8.4375 0l0 2.3125l-2.828125 0l0 7.53125l2.828125 0l0 2.3125l-8.4375 0zm11.162506 0l0 -9.25l2.234375 0l0.203125 1.234375l0.078125 0q0.59375 -0.609375 1.359375 -1.03125q0.78125 -0.4375 1.828125 -0.4375q1.578125 0 2.296875 1.015625q0.734375 1.0 0.734375 2.765625l0 5.703125l-2.75 0l0 -5.359375q0 -0.921875 -0.296875 -1.34375q-0.296875 -0.4375 -1.0625 -0.4375q-0.5625 0 -0.984375 0.25q-0.40625 0.234375 -0.90625 0.71875l0 6.171875l-2.734375 0zm17.084381 0.21875q-1.09375 0 -1.859375 -0.296875q-0.765625 -0.296875 -1.25 -0.828125q-0.46875 -0.53125 -0.671875 -1.265625q-0.203125 -0.75 -0.203125 -1.671875l0 -3.265625l-2.328125 0l0 -2.03125l2.453125 -0.109375l0.359375 -2.84375l2.25 0l0 2.84375l3.921875 0l0 2.140625l-3.921875 0l0 3.25q0 1.0625 0.46875 1.5q0.46875 0.4375 1.5 0.4375q0.515625 0 0.953125 -0.09375q0.4375 -0.09375 0.875 -0.234375l0.484375 1.96875q-0.625 0.1875 -1.359375 0.34375q-0.734375 0.15625 -1.671875 0.15625zm10.115631 0q-1.078125 0 -2.03125 -0.3125q-0.9375 -0.328125 -1.625 -0.9375q-0.6875 -0.625 -1.078125 -1.53125q-0.390625 -0.90625 -0.390625 -2.0625q0 -1.140625 0.390625 -2.046875q0.40625 -0.90625 1.078125 -1.53125q0.671875 -0.625 1.53125 -0.953125q0.875 -0.328125 1.8125 -0.328125q1.0625 0 1.875 0.34375q0.828125 0.328125 1.375 0.9375q0.546875 0.59375 0.828125 1.40625q0.28125 0.8125 0.28125 1.765625q0 0.359375 -0.046875 0.71875q-0.046875 0.34375 -0.078125 0.5l-6.3125 0q0.203125 1.015625 0.90625 1.484375q0.71875 0.46875 1.859375 0.46875q0.625 0 1.1875 -0.171875q0.578125 -0.171875 1.203125 -0.484375l0.90625 1.65625q-0.796875 0.5 -1.765625 0.796875q-0.96875 0.28125 -1.90625 0.28125zm-0.21875 -7.609375q-0.828125 0 -1.375 0.4375q-0.546875 0.421875 -0.75 1.296875l3.953125 0q-0.203125 -1.734375 -1.828125 -1.734375zm7.428131 7.390625l0 -9.25l2.234375 0l0.21875 2.015625l0.0625 0q0.6875 -1.140625 1.65625 -1.6875q0.96875 -0.5625 2.09375 -0.5625q0.609375 0 0.984375 0.09375q0.390625 0.09375 0.796875 0.28125l-0.5625 2.296875q-0.421875 -0.125 -0.765625 -0.1875q-0.34375 -0.078125 -0.875 -0.078125q-0.859375 0 -1.6875 0.515625q-0.828125 0.5 -1.421875 1.75l0 4.8125l-2.734375 0zm10.365631 0l0 -9.25l2.234375 0l0.203125 1.234375l0.078125 0q0.59375 -0.609375 1.359375 -1.03125q0.78125 -0.4375 1.828125 -0.4375q1.578125 0 2.296875 1.015625q0.734375 1.0 0.734375 2.765625l0 5.703125l-2.75 0l0 -5.359375q0 -0.921875 -0.296875 -1.34375q-0.296875 -0.4375 -1.0625 -0.4375q-0.5625 0 -0.984375 0.25q-0.40625 0.234375 -0.90625 0.71875l0 6.171875l-2.734375 0zm14.021881 0.21875q-0.703125 0 -1.265625 -0.21875q-0.5625 -0.203125 -0.953125 -0.578125q-0.390625 -0.390625 -0.609375 -0.890625q-0.203125 -0.515625 -0.203125 -1.109375q0 -0.78125 0.328125 -1.359375q0.34375 -0.59375 1.078125 -1.0q0.734375 -0.421875 1.890625 -0.671875q1.15625 -0.25 2.796875 -0.34375q-0.078125 -0.625 -0.546875 -0.984375q-0.46875 -0.359375 -1.421875 -0.359375q-0.671875 0 -1.359375 0.234375q-0.671875 0.234375 -1.46875 0.625l-0.96875 -1.796875q0.953125 -0.53125 2.046875 -0.890625q1.09375 -0.359375 2.28125 -0.359375q1.953125 0 3.0625 1.03125q1.125 1.03125 1.125 3.15625l0 5.296875l-2.234375 0l-0.21875 -1.046875l-0.0625 0q-0.71875 0.546875 -1.5625 0.90625q-0.828125 0.359375 -1.734375 0.359375zm0.890625 -2.125q0.609375 0 1.140625 -0.25q0.546875 -0.25 1.03125 -0.625l0 -1.53125q-1.015625 0.0625 -1.6875 0.1875q-0.671875 0.125 -1.078125 0.328125q-0.390625 0.203125 -0.546875 0.46875q-0.15625 0.25 -0.15625 0.546875q0 0.453125 0.34375 0.671875q0.34375 0.203125 0.953125 0.203125zm13.506256 2.125q-1.765625 0 -2.65625 -1.03125q-0.875 -1.03125 -0.875 -2.8125l0 -7.28125l-2.90625 0l0 -2.171875l5.640625 0l0 9.578125q0 0.421875 0.125 0.71875q0.125 0.28125 0.328125 0.46875q0.21875 0.171875 0.484375 0.25q0.28125 0.0625 0.578125 0.0625q0.3125 0 0.65625 -0.0625q0.359375 -0.0625 0.78125 -0.234375l0.625 2.015625q-0.375 0.109375 -0.703125 0.203125q-0.3125 0.09375 -0.640625 0.15625q-0.3125 0.078125 -0.671875 0.109375q-0.34375 0.03125 -0.765625 0.03125zm9.334381 0q-1.25 0 -2.4375 -0.40625q-1.1875 -0.40625 -2.09375 -1.0l1.1875 -1.71875q0.84375 0.53125 1.78125 0.8125q0.9375 0.28125 1.9375 0.28125q0.765625 0 1.125 -0.21875q0.359375 -0.21875 0.359375 -0.5625q0 -0.1875 -0.109375 -0.328125q-0.109375 -0.15625 -0.359375 -0.28125q-0.25 -0.125 -0.703125 -0.234375q-0.4375 -0.109375 -1.109375 -0.25q-1.890625 -0.421875 -2.71875 -1.109375q-0.8125 -0.703125 -0.8125 -1.78125q0 -0.640625 0.296875 -1.171875q0.3125 -0.546875 0.859375 -0.921875q0.546875 -0.375 1.328125 -0.59375q0.78125 -0.21875 1.78125 -0.21875q1.25 0 2.265625 0.40625q1.015625 0.40625 1.734375 0.875l-1.234375 1.640625q-0.703125 -0.4375 -1.46875 -0.65625q-0.765625 -0.21875 -1.546875 -0.21875q-0.65625 0 -0.96875 0.203125q-0.3125 0.203125 -0.3125 0.515625q0 0.390625 0.484375 0.5625q0.484375 0.171875 1.65625 0.421875q1.0625 0.25 1.765625 0.53125q0.71875 0.28125 1.125 0.640625q0.40625 0.34375 0.578125 0.796875q0.171875 0.4375 0.171875 1.0q0 0.640625 -0.296875 1.1875q-0.296875 0.53125 -0.875 0.9375q-0.5625 0.390625 -1.421875 0.625q-0.84375 0.234375 -1.96875 0.234375z" fill-rule="nonzero"/><path fill="#ffcb21" d="m390.33072 196.6588l0 0c0 -10.43689 8.460754 -18.897644 18.897614 -18.897644l0 0c5.0119934 0 9.818665 1.9909973 13.362671 5.5349884c3.5439758 3.543991 5.534973 8.3506775 5.534973 13.362656l0 0c0 10.436874 -8.460754 18.897629 -18.897644 18.897629l0 0c-10.436859 0 -18.897614 -8.460754 -18.897614 -18.897629z" fill-rule="evenodd"/><path fill="#ffffff" d="m411.11493 203.5788l-2.5625 0l0 -10.171875l-3.34375 1.203125l0 -2.203125l5.765625 -2.09375l0.140625 0l0 13.265625z" fill-rule="nonzero"/><path fill="#ffcb21" d="m598.2362 196.84776l0 0c0 -10.436874 8.460754 -18.897629 18.897644 -18.897629l0 0c5.011963 0 9.818665 1.9909973 13.362671 5.5349884c3.5440063 3.543991 5.534973 8.3506775 5.534973 13.36264l0 0c0 10.43689 -8.460754 18.897644 -18.897644 18.897644l0 0c-10.43689 0 -18.897644 -8.460754 -18.897644 -18.897644z" fill-rule="evenodd"/><path fill="#ffffff" d="m621.4892 203.76776l-9.046875 0l0 -1.734375l4.296875 -4.609375q0.5 -0.546875 0.84375 -0.984375q0.34375 -0.453125 0.5625 -0.8125q0.21875 -0.375 0.3125 -0.6875q0.09375 -0.328125 0.09375 -0.625q0 -0.453125 -0.125 -0.796875q-0.125 -0.34375 -0.359375 -0.578125q-0.234375 -0.25 -0.5625 -0.375q-0.328125 -0.125 -0.71875 -0.125q-1.046875 0 -1.5625 0.578125q-0.515625 0.578125 -0.515625 1.625l-2.53125 0q0 -0.875 0.328125 -1.65625q0.34375 -0.796875 0.953125 -1.390625q0.625 -0.59375 1.484375 -0.9375q0.875 -0.34375 1.9375 -0.34375q1.0 0 1.78125 0.296875q0.78125 0.28125 1.296875 0.796875q0.53125 0.5 0.796875 1.21875q0.28125 0.703125 0.28125 1.578125q0 0.65625 -0.203125 1.25q-0.203125 0.59375 -0.59375 1.1875q-0.375 0.578125 -0.90625 1.1875q-0.515625 0.59375 -1.171875 1.265625l-2.484375 2.640625l5.8125 0l0 2.03125z" fill-rule="nonzero"/><path fill="#ffffff" d="m427.38583 177.60367l170.0787 0l0 37.795288l-170.0787 0z" fill-rule="evenodd"/><path stroke="#000000" stroke-width="1.0" stroke-linejoin="round" stroke-linecap="butt" stroke-dasharray="4.0,3.0" d="m427.38583 177.60367l170.0787 0l0 37.795288l-170.0787 0z" fill-rule="evenodd"/><path fill="#000000" d="m480.2033 203.42131l0 -0.921875q1.515625 -1.328125 2.671875 -2.40625q1.171875 -1.09375 1.96875 -2.0q0.796875 -0.90625 1.203125 -1.6875q0.40625 -0.78125 0.40625 -1.53125q0 -1.03125 -0.640625 -1.671875q-0.625 -0.65625 -1.953125 -0.65625q-0.84375 0 -1.5625 0.421875q-0.703125 0.421875 -1.28125 1.015625l-0.890625 -0.875q0.8125 -0.828125 1.734375 -1.3125q0.921875 -0.5 2.1875 -0.5q0.890625 0 1.609375 0.25q0.71875 0.25 1.21875 0.71875q0.515625 0.453125 0.78125 1.109375q0.265625 0.640625 0.265625 1.421875q0 0.84375 -0.40625 1.703125q-0.390625 0.84375 -1.125 1.75q-0.71875 0.90625 -1.734375 1.890625q-1.0 0.96875 -2.21875 2.0625q0.5625 -0.03125 1.125 -0.0625q0.5625 -0.046875 1.109375 -0.046875l3.90625 0l0 1.328125l-8.375 0zm15.428131 0.21875q-2.0 0 -3.140625 -1.609375q-1.125 -1.609375 -1.125 -4.59375q0 -3.015625 1.125 -4.578125q1.140625 -1.5625 3.140625 -1.5625q2.0 0 3.140625 1.5625q1.140625 1.5625 1.140625 4.578125q0 2.984375 -1.140625 4.59375q-1.140625 1.609375 -3.140625 1.609375zm0 -1.21875q1.25 0 2.046875 -1.21875q0.796875 -1.21875 0.796875 -3.765625q0 -1.296875 -0.21875 -2.21875q-0.203125 -0.921875 -0.59375 -1.515625q-0.375 -0.609375 -0.890625 -0.890625q-0.515625 -0.28125 -1.140625 -0.28125q-0.609375 0 -1.140625 0.28125q-0.515625 0.28125 -0.90625 0.890625q-0.375 0.59375 -0.578125 1.515625q-0.203125 0.921875 -0.203125 2.21875q0 2.546875 0.78125 3.765625q0.796875 1.21875 2.046875 1.21875zm0 -3.875q-0.46875 0 -0.8125 -0.3125q-0.34375 -0.328125 -0.34375 -0.9375q0 -0.578125 0.34375 -0.890625q0.34375 -0.328125 0.8125 -0.328125q0.46875 0 0.8125 0.328125q0.34375 0.3125 0.34375 0.890625q0 0.609375 -0.34375 0.9375q-0.34375 0.3125 -0.8125 0.3125zm11.193756 5.09375q-2.0 0 -3.140625 -1.609375q-1.125 -1.609375 -1.125 -4.59375q0 -3.015625 1.125 -4.578125q1.140625 -1.5625 3.140625 -1.5625q2.0 0 3.140625 1.5625q1.140625 1.5625 1.140625 4.578125q0 2.984375 -1.140625 4.59375q-1.140625 1.609375 -3.140625 1.609375zm0 -1.21875q1.25 0 2.046875 -1.21875q0.796875 -1.21875 0.796875 -3.765625q0 -1.296875 -0.21875 -2.21875q-0.203125 -0.921875 -0.59375 -1.515625q-0.375 -0.609375 -0.890625 -0.890625q-0.515625 -0.28125 -1.140625 -0.28125q-0.609375 0 -1.140625 0.28125q-0.515625 0.28125 -0.90625 0.890625q-0.375 0.59375 -0.578125 1.515625q-0.203125 0.921875 -0.203125 2.21875q0 2.546875 0.78125 3.765625q0.796875 1.21875 2.046875 1.21875zm0 -3.875q-0.46875 0 -0.8125 -0.3125q-0.34375 -0.328125 -0.34375 -0.9375q0 -0.578125 0.34375 -0.890625q0.34375 -0.328125 0.8125 -0.328125q0.46875 0 0.8125 0.328125q0.34375 0.3125 0.34375 0.890625q0 0.609375 -0.34375 0.9375q-0.34375 0.3125 -0.8125 0.3125zm11.193726 5.09375q-2.0 0 -3.140625 -1.609375q-1.125 -1.609375 -1.125 -4.59375q0 -3.015625 1.125 -4.578125q1.140625 -1.5625 3.140625 -1.5625q2.0 0 3.140625 1.5625q1.140625 1.5625 1.140625 4.578125q0 2.984375 -1.140625 4.59375q-1.140625 1.609375 -3.140625 1.609375zm0 -1.21875q1.25 0 2.046875 -1.21875q0.796875 -1.21875 0.796875 -3.765625q0 -1.296875 -0.21875 -2.21875q-0.203125 -0.921875 -0.59375 -1.515625q-0.375 -0.609375 -0.890625 -0.890625q-0.515625 -0.28125 -1.140625 -0.28125q-0.609375 0 -1.140625 0.28125q-0.515625 0.28125 -0.90625 0.890625q-0.375 0.59375 -0.578125 1.515625q-0.203125 0.921875 -0.203125 2.21875q0 2.546875 0.78125 3.765625q0.796875 1.21875 2.046875 1.21875zm0 -3.875q-0.46875 0 -0.8125 -0.3125q-0.34375 -0.328125 -0.34375 -0.9375q0 -0.578125 0.34375 -0.890625q0.34375 -0.328125 0.8125 -0.328125q0.46875 0 0.8125 0.328125q0.34375 0.3125 0.34375 0.890625q0 0.609375 -0.34375 0.9375q-0.34375 0.3125 -0.8125 0.3125zm6.6781616 4.875l0 -9.0625l1.234375 0l0.125 1.1875l0.046875 0q0.34375 -0.625 0.8125 -1.015625q0.46875 -0.40625 1.25 -0.40625q1.328125 0 1.71875 1.578125q0.390625 -0.734375 0.859375 -1.15625q0.484375 -0.421875 1.265625 -0.421875q0.953125 0 1.484375 0.71875q0.53125 0.71875 0.53125 2.078125l0 6.5l-1.53125 0l0 -6.375q0 -1.59375 -0.96875 -1.59375q-0.484375 0 -0.78125 0.34375q-0.296875 0.34375 -0.671875 1.0625l0 6.5625l-1.421875 0l0 -6.375q0 -0.78125 -0.21875 -1.1875q-0.203125 -0.40625 -0.703125 -0.40625q-0.484375 0 -0.828125 0.34375q-0.328125 0.34375 -0.671875 1.0625l0 6.5625l-1.53125 0zm15.896851 0.21875q-1.34375 0 -2.484375 -0.40625q-1.125 -0.421875 -1.96875 -1.0l0.703125 -1.015625q0.78125 0.5625 1.71875 0.90625q0.953125 0.328125 2.21875 0.328125q1.15625 0 1.71875 -0.421875q0.578125 -0.421875 0.578125 -1.0q0 -0.265625 -0.09375 -0.484375q-0.09375 -0.21875 -0.40625 -0.421875q-0.296875 -0.203125 -0.859375 -0.390625q-0.5625 -0.1875 -1.484375 -0.375q-1.765625 -0.375 -2.65625 -1.0q-0.875 -0.625 -0.875 -1.65625q0 -0.53125 0.234375 -1.0q0.25 -0.484375 0.71875 -0.828125q0.484375 -0.359375 1.171875 -0.546875q0.703125 -0.203125 1.640625 -0.203125q1.046875 0 2.015625 0.359375q0.96875 0.34375 1.640625 0.796875l-0.75 1.0q-0.640625 -0.4375 -1.40625 -0.6875q-0.75 -0.265625 -1.640625 -0.265625q-1.15625 0 -1.625 0.390625q-0.453125 0.390625 -0.453125 0.90625q0 0.609375 0.609375 0.921875q0.625 0.296875 2.015625 0.59375q1.140625 0.25 1.859375 0.515625q0.734375 0.265625 1.15625 0.609375q0.421875 0.328125 0.578125 0.75q0.15625 0.40625 0.15625 0.921875q0 0.5625 -0.265625 1.046875q-0.25 0.484375 -0.765625 0.859375q-0.515625 0.375 -1.28125 0.578125q-0.75 0.21875 -1.71875 0.21875z" fill-rule="nonzero"/><path fill="#ffffff" d="m636.7402 177.60367l170.07874 0l0 37.795288l-170.07874 0z" fill-rule="evenodd"/><path stroke="#000000" stroke-width="1.0" stroke-linejoin="round" stroke-linecap="butt" stroke-dasharray="4.0,3.0" d="m636.7402 177.60367l170.07874 0l0 37.795288l-170.07874 0z" fill-rule="evenodd"/><path fill="#000000" d="m689.5576 203.42131l0 -0.921875q1.515625 -1.328125 2.671875 -2.40625q1.171875 -1.09375 1.96875 -2.0q0.796875 -0.90625 1.203125 -1.6875q0.40625 -0.78125 0.40625 -1.53125q0 -1.03125 -0.640625 -1.671875q-0.625 -0.65625 -1.953125 -0.65625q-0.84375 0 -1.5625 0.421875q-0.703125 0.421875 -1.28125 1.015625l-0.890625 -0.875q0.8125 -0.828125 1.734375 -1.3125q0.921875 -0.5 2.1875 -0.5q0.890625 0 1.609375 0.25q0.71875 0.25 1.21875 0.71875q0.515625 0.453125 0.78125 1.109375q0.265625 0.640625 0.265625 1.421875q0 0.84375 -0.40625 1.703125q-0.390625 0.84375 -1.125 1.75q-0.71875 0.90625 -1.734375 1.890625q-1.0 0.96875 -2.21875 2.0625q0.5625 -0.03125 1.125 -0.0625q0.5625 -0.046875 1.109375 -0.046875l3.90625 0l0 1.328125l-8.375 0zm15.428162 0.21875q-2.0 0 -3.140625 -1.609375q-1.125 -1.609375 -1.125 -4.59375q0 -3.015625 1.125 -4.578125q1.140625 -1.5625 3.140625 -1.5625q2.0 0 3.140625 1.5625q1.140625 1.5625 1.140625 4.578125q0 2.984375 -1.140625 4.59375q-1.140625 1.609375 -3.140625 1.609375zm0 -1.21875q1.25 0 2.046875 -1.21875q0.796875 -1.21875 0.796875 -3.765625q0 -1.296875 -0.21875 -2.21875q-0.203125 -0.921875 -0.59375 -1.515625q-0.375 -0.609375 -0.890625 -0.890625q-0.515625 -0.28125 -1.140625 -0.28125q-0.609375 0 -1.140625 0.28125q-0.515625 0.28125 -0.90625 0.890625q-0.375 0.59375 -0.578125 1.515625q-0.203125 0.921875 -0.203125 2.21875q0 2.546875 0.78125 3.765625q0.796875 1.21875 2.046875 1.21875zm0 -3.875q-0.46875 0 -0.8125 -0.3125q-0.34375 -0.328125 -0.34375 -0.9375q0 -0.578125 0.34375 -0.890625q0.34375 -0.328125 0.8125 -0.328125q0.46875 0 0.8125 0.328125q0.34375 0.3125 0.34375 0.890625q0 0.609375 -0.34375 0.9375q-0.34375 0.3125 -0.8125 0.3125zm11.193726 5.09375q-2.0 0 -3.140625 -1.609375q-1.125 -1.609375 -1.125 -4.59375q0 -3.015625 1.125 -4.578125q1.140625 -1.5625 3.140625 -1.5625q2.0 0 3.140625 1.5625q1.140625 1.5625 1.140625 4.578125q0 2.984375 -1.140625 4.59375q-1.140625 1.609375 -3.140625 1.609375zm0 -1.21875q1.25 0 2.046875 -1.21875q0.796875 -1.21875 0.796875 -3.765625q0 -1.296875 -0.21875 -2.21875q-0.203125 -0.921875 -0.59375 -1.515625q-0.375 -0.609375 -0.890625 -0.890625q-0.515625 -0.28125 -1.140625 -0.28125q-0.609375 0 -1.140625 0.28125q-0.515625 0.28125 -0.90625 0.890625q-0.375 0.59375 -0.578125 1.515625q-0.203125 0.921875 -0.203125 2.21875q0 2.546875 0.78125 3.765625q0.796875 1.21875 2.046875 1.21875zm0 -3.875q-0.46875 0 -0.8125 -0.3125q-0.34375 -0.328125 -0.34375 -0.9375q0 -0.578125 0.34375 -0.890625q0.34375 -0.328125 0.8125 -0.328125q0.46875 0 0.8125 0.328125q0.34375 0.3125 0.34375 0.890625q0 0.609375 -0.34375 0.9375q-0.34375 0.3125 -0.8125 0.3125zm11.193787 5.09375q-2.0 0 -3.140625 -1.609375q-1.125 -1.609375 -1.125 -4.59375q0 -3.015625 1.125 -4.578125q1.140625 -1.5625 3.140625 -1.5625q2.0 0 3.140625 1.5625q1.140625 1.5625 1.140625 4.578125q0 2.984375 -1.140625 4.59375q-1.140625 1.609375 -3.140625 1.609375zm0 -1.21875q1.25 0 2.046875 -1.21875q0.796875 -1.21875 0.796875 -3.765625q0 -1.296875 -0.21875 -2.21875q-0.203125 -0.921875 -0.59375 -1.515625q-0.375 -0.609375 -0.890625 -0.890625q-0.515625 -0.28125 -1.140625 -0.28125q-0.609375 0 -1.140625 0.28125q-0.515625 0.28125 -0.90625 0.890625q-0.375 0.59375 -0.578125 1.515625q-0.203125 0.921875 -0.203125 2.21875q0 2.546875 0.78125 3.765625q0.796875 1.21875 2.046875 1.21875zm0 -3.875q-0.46875 0 -0.8125 -0.3125q-0.34375 -0.328125 -0.34375 -0.9375q0 -0.578125 0.34375 -0.890625q0.34375 -0.328125 0.8125 -0.328125q0.46875 0 0.8125 0.328125q0.34375 0.3125 0.34375 0.890625q0 0.609375 -0.34375 0.9375q-0.34375 0.3125 -0.8125 0.3125zm6.6781006 4.875l0 -9.0625l1.234375 0l0.125 1.1875l0.046875 0q0.34375 -0.625 0.8125 -1.015625q0.46875 -0.40625 1.25 -0.40625q1.328125 0 1.71875 1.578125q0.390625 -0.734375 0.859375 -1.15625q0.484375 -0.421875 1.265625 -0.421875q0.953125 0 1.484375 0.71875q0.53125 0.71875 0.53125 2.078125l0 6.5l-1.53125 0l0 -6.375q0 -1.59375 -0.96875 -1.59375q-0.484375 0 -0.78125 0.34375q-0.296875 0.34375 -0.671875 1.0625l0 6.5625l-1.421875 0l0 -6.375q0 -0.78125 -0.21875 -1.1875q-0.203125 -0.40625 -0.703125 -0.40625q-0.484375 0 -0.828125 0.34375q-0.328125 0.34375 -0.671875 1.0625l0 6.5625l-1.53125 0zm15.896912 0.21875q-1.34375 0 -2.484375 -0.40625q-1.125 -0.421875 -1.96875 -1.0l0.703125 -1.015625q0.78125 0.5625 1.71875 0.90625q0.953125 0.328125 2.21875 0.328125q1.15625 0 1.71875 -0.421875q0.578125 -0.421875 0.578125 -1.0q0 -0.265625 -0.09375 -0.484375q-0.09375 -0.21875 -0.40625 -0.421875q-0.296875 -0.203125 -0.859375 -0.390625q-0.5625 -0.1875 -1.484375 -0.375q-1.765625 -0.375 -2.65625 -1.0q-0.875 -0.625 -0.875 -1.65625q0 -0.53125 0.234375 -1.0q0.25 -0.484375 0.71875 -0.828125q0.484375 -0.359375 1.171875 -0.546875q0.703125 -0.203125 1.640625 -0.203125q1.046875 0 2.015625 0.359375q0.96875 0.34375 1.640625 0.796875l-0.75 1.0q-0.640625 -0.4375 -1.40625 -0.6875q-0.75 -0.265625 -1.640625 -0.265625q-1.15625 0 -1.625 0.390625q-0.453125 0.390625 -0.453125 0.90625q0 0.609375 0.609375 0.921875q0.625 0.296875 2.015625 0.59375q1.140625 0.25 1.859375 0.515625q0.734375 0.265625 1.15625 0.609375q0.421875 0.328125 0.578125 0.75q0.15625 0.40625 0.15625 0.921875q0 0.5625 -0.265625 1.046875q-0.25 0.484375 -0.765625 0.859375q-0.515625 0.375 -1.28125 0.578125q-0.75 0.21875 -1.71875 0.21875z" fill-rule="nonzero"/></g></svg>