<svg version="1.1" viewBox="0.0 0.0 444.8503937007874 358.2992125984252" fill="none" stroke="none" stroke-linecap="square" stroke-miterlimit="10" xmlns:xlink="http://www.w3.org/1999/xlink" xmlns="http://www.w3.org/2000/svg"><clipPath id="p.0"><path d="m0 0l444.8504 0l0 358.29922l-444.8504 0l0 -358.29922z" clip-rule="nonzero"/></clipPath><g clip-path="url(#p.0)"><path fill="#000000" fill-opacity="0.0" d="m0 0l444.8504 0l0 358.29922l-444.8504 0z" fill-rule="evenodd"/><path fill="#f3f3f3" d="m107.97113 105.395386l79.93701 0l0 171.52756l-79.93701 0z" fill-rule="evenodd"/><path stroke="#d9d9d9" stroke-width="1.0" stroke-linejoin="round" stroke-linecap="butt" d="m107.97113 105.395386l79.93701 0l0 171.52756l-79.93701 0z" fill-rule="evenodd"/><path fill="#b7b7b7" d="m138.34952 175.77167l-3.953125 0l0 4.1875l-1.203125 0l0 -9.46875l5.8125 0l0 1.015625l-4.609375 0l0 3.25l3.953125 0l0 1.015625zm4.091934 3.171875l4.625 0l0 1.015625l-5.84375 0l0 -9.46875l1.21875 0l0 8.453125zm12.795059 -3.171875q-0.015625 0.5 -0.09375 1.015625q-0.078125 0.515625 -0.25 1.0q-0.171875 0.484375 -0.4375 0.90625q-0.25 0.40625 -0.625 0.71875q-0.359375 0.3125 -0.828125 0.5q-0.46875 0.171875 -1.0625 0.171875q-0.578125 0 -1.0625 -0.171875q-0.46875 -0.1875 -0.828125 -0.5q-0.359375 -0.3125 -0.640625 -0.71875q-0.265625 -0.421875 -0.4375 -0.90625q-0.171875 -0.484375 -0.25 -1.0q-0.078125 -0.515625 -0.09375 -1.015625l0 -1.078125q0.015625 -0.515625 0.09375 -1.03125q0.078125 -0.515625 0.25 -1.0q0.171875 -0.484375 0.4375 -0.890625q0.265625 -0.421875 0.625 -0.734375q0.359375 -0.328125 0.828125 -0.5q0.484375 -0.1875 1.0625 -0.1875q0.59375 0 1.0625 0.1875q0.484375 0.171875 0.84375 0.484375q0.359375 0.3125 0.625 0.734375q0.265625 0.421875 0.4375 0.90625q0.171875 0.484375 0.25 1.0q0.078125 0.515625 0.09375 1.03125l0 1.078125zm-1.1875 -1.09375q-0.015625 -0.34375 -0.0625 -0.703125q-0.03125 -0.375 -0.125 -0.734375q-0.09375 -0.359375 -0.25 -0.6875q-0.15625 -0.328125 -0.390625 -0.578125q-0.234375 -0.25 -0.5625 -0.390625q-0.3125 -0.15625 -0.734375 -0.15625q-0.40625 0 -0.734375 0.15625q-0.3125 0.140625 -0.546875 0.390625q-0.234375 0.25 -0.390625 0.578125q-0.15625 0.328125 -0.25 0.6875q-0.09375 0.359375 -0.140625 0.734375q-0.046875 0.375 -0.046875 0.703125l0 1.09375q0 0.328125 0.046875 0.703125q0.046875 0.359375 0.140625 0.734375q0.09375 0.359375 0.25 0.6875q0.15625 0.328125 0.390625 0.578125q0.234375 0.25 0.546875 0.40625q0.328125 0.140625 0.75 0.140625q0.421875 0 0.734375 -0.140625q0.328125 -0.15625 0.5625 -0.40625q0.234375 -0.25 0.390625 -0.578125q0.15625 -0.328125 0.25 -0.6875q0.09375 -0.359375 0.125 -0.734375q0.03125 -0.375 0.046875 -0.703125l0 -1.09375zm7.716934 2.71875l0.71875 -6.90625l1.140625 0l-1.140625 9.46875l-1.234375 0l-1.21875 -7.140625l-1.234375 7.140625l-1.234375 0l-1.15625 -9.46875l1.15625 0l0.71875 6.90625l1.21875 -6.90625l1.046875 0l1.21875 6.90625z" fill-rule="nonzero"/><path fill="#b7b7b7" d="m120.96162 195.95917l0 -9.46875l2.1875 0q0.984375 0 1.765625 0.328125q0.78125 0.328125 1.3125 0.90625q0.53125 0.5625 0.8125 1.375q0.296875 0.796875 0.296875 1.78125l0 0.6875q0 0.984375 -0.296875 1.796875q-0.28125 0.796875 -0.8125 1.375q-0.53125 0.5625 -1.3125 0.890625q-0.78125 0.328125 -1.765625 0.328125l-2.1875 0zm1.21875 -8.484375l0 7.5l0.96875 0q0.765625 0 1.328125 -0.265625q0.5625 -0.265625 0.921875 -0.71875q0.375 -0.453125 0.546875 -1.0625q0.1875 -0.625 0.1875 -1.359375l0 -0.703125q0 -0.71875 -0.1875 -1.328125q-0.1875 -0.625 -0.546875 -1.078125q-0.359375 -0.453125 -0.921875 -0.703125q-0.5625 -0.265625 -1.328125 -0.28125l-0.96875 0zm12.107552 4.109375l-3.953125 0l0 3.359375l4.609375 0l0 1.015625l-5.8125 0l0 -9.46875l5.75 0l0 1.015625l-4.546875 0l0 3.046875l3.953125 0l0 1.03125zm7.748184 1.984375q0 -0.4375 -0.203125 -0.734375q-0.203125 -0.296875 -0.515625 -0.5q-0.3125 -0.21875 -0.6875 -0.34375q-0.359375 -0.140625 -0.71875 -0.25q-0.5 -0.171875 -1.015625 -0.390625q-0.515625 -0.234375 -0.9375 -0.5625q-0.421875 -0.328125 -0.703125 -0.78125q-0.265625 -0.453125 -0.265625 -1.0625q0 -0.625 0.265625 -1.09375q0.28125 -0.484375 0.703125 -0.8125q0.4375 -0.34375 0.984375 -0.515625q0.5625 -0.171875 1.125 -0.171875q0.625 0 1.1875 0.203125q0.578125 0.203125 1.015625 0.578125q0.453125 0.375 0.71875 0.90625q0.265625 0.515625 0.28125 1.171875l-1.25 0q-0.046875 -0.40625 -0.203125 -0.734375q-0.140625 -0.34375 -0.390625 -0.578125q-0.25 -0.25 -0.59375 -0.375q-0.328125 -0.140625 -0.765625 -0.140625q-0.34375 0 -0.671875 0.109375q-0.328125 0.09375 -0.59375 0.296875q-0.25 0.1875 -0.40625 0.46875q-0.15625 0.28125 -0.15625 0.65625q0.015625 0.421875 0.21875 0.703125q0.203125 0.28125 0.5 0.484375q0.3125 0.1875 0.671875 0.3125q0.359375 0.125 0.6875 0.234375q0.34375 0.109375 0.703125 0.25q0.359375 0.140625 0.6875 0.328125q0.34375 0.171875 0.625 0.40625q0.28125 0.21875 0.5 0.515625q0.21875 0.28125 0.328125 0.640625q0.125 0.34375 0.125 0.765625q0 0.640625 -0.28125 1.125q-0.28125 0.46875 -0.734375 0.78125q-0.4375 0.3125 -1.015625 0.46875q-0.5625 0.15625 -1.125 0.15625q-0.640625 0 -1.25 -0.1875q-0.59375 -0.203125 -1.078125 -0.5625q-0.46875 -0.375 -0.78125 -0.90625q-0.296875 -0.53125 -0.3125 -1.203125l1.234375 0q0.0625 0.4375 0.234375 0.78125q0.1875 0.34375 0.46875 0.59375q0.296875 0.234375 0.65625 0.359375q0.375 0.109375 0.828125 0.109375q0.34375 0 0.6875 -0.078125q0.34375 -0.09375 0.609375 -0.28125q0.265625 -0.1875 0.4375 -0.46875q0.171875 -0.28125 0.171875 -0.671875zm9.170059 -0.453125q-0.078125 0.65625 -0.34375 1.203125q-0.25 0.546875 -0.65625 0.9375q-0.40625 0.390625 -0.96875 0.609375q-0.546875 0.21875 -1.234375 0.21875q-0.578125 0 -1.0625 -0.15625q-0.46875 -0.171875 -0.84375 -0.453125q-0.375 -0.296875 -0.65625 -0.6875q-0.265625 -0.40625 -0.453125 -0.875q-0.171875 -0.46875 -0.265625 -0.984375q-0.078125 -0.515625 -0.078125 -1.046875l0 -1.3125q0 -0.53125 0.078125 -1.046875q0.09375 -0.515625 0.265625 -0.984375q0.1875 -0.46875 0.453125 -0.859375q0.28125 -0.40625 0.65625 -0.703125q0.375 -0.296875 0.84375 -0.453125q0.46875 -0.171875 1.0625 -0.171875q0.71875 0 1.265625 0.21875q0.5625 0.21875 0.96875 0.625q0.40625 0.390625 0.640625 0.953125q0.25 0.5625 0.328125 1.234375l-1.203125 0q-0.0625 -0.421875 -0.203125 -0.796875q-0.140625 -0.375 -0.390625 -0.640625q-0.234375 -0.28125 -0.578125 -0.4375q-0.34375 -0.171875 -0.828125 -0.171875q-0.421875 0 -0.75 0.140625q-0.328125 0.140625 -0.578125 0.390625q-0.234375 0.234375 -0.390625 0.5625q-0.15625 0.3125 -0.265625 0.671875q-0.09375 0.34375 -0.140625 0.71875q-0.03125 0.375 -0.03125 0.734375l0 1.328125q0 0.359375 0.03125 0.734375q0.046875 0.375 0.140625 0.734375q0.109375 0.359375 0.265625 0.6875q0.15625 0.3125 0.390625 0.5625q0.25 0.234375 0.5625 0.375q0.328125 0.140625 0.765625 0.140625q0.484375 0 0.828125 -0.140625q0.34375 -0.15625 0.578125 -0.421875q0.25 -0.28125 0.390625 -0.640625q0.140625 -0.375 0.203125 -0.796875l1.203125 0zm4.998184 -1.015625l-1.890625 0l0 3.859375l-1.203125 0l0 -9.46875l2.78125 0q0.671875 0 1.25 0.1875q0.59375 0.171875 1.03125 0.53125q0.4375 0.34375 0.6875 0.875q0.25 0.53125 0.25 1.25q0 0.453125 -0.140625 0.84375q-0.125 0.375 -0.359375 0.6875q-0.234375 0.3125 -0.5625 0.5625q-0.328125 0.234375 -0.71875 0.40625l2.015625 4.046875l0 0.078125l-1.28125 0l-1.859375 -3.859375zm-1.890625 -1.0l1.609375 0q0.40625 0 0.765625 -0.125q0.359375 -0.125 0.625 -0.34375q0.28125 -0.234375 0.4375 -0.5625q0.15625 -0.328125 0.15625 -0.75q0 -0.453125 -0.15625 -0.796875q-0.15625 -0.34375 -0.421875 -0.578125q-0.265625 -0.234375 -0.640625 -0.34375q-0.359375 -0.125 -0.796875 -0.125l-1.578125 0l0 3.625zm6.748184 -4.609375l5.734375 0l0 1.046875l-2.265625 0l0 7.375l2.265625 0l0 1.046875l-5.734375 0l0 -1.046875l2.21875 0l0 -7.375l-2.21875 0l0 -1.046875zm9.326309 5.671875l0 3.796875l-1.203125 0l0 -9.46875l3.0625 0q0.640625 0 1.203125 0.203125q0.578125 0.1875 1.0 0.546875q0.4375 0.34375 0.6875 0.875q0.25 0.53125 0.25 1.21875q0 0.671875 -0.25 1.203125q-0.25 0.515625 -0.6875 0.875q-0.421875 0.359375 -1.0 0.546875q-0.5625 0.1875 -1.203125 0.203125l-1.859375 0zm0 -1.0l1.859375 0q0.421875 0 0.765625 -0.125q0.359375 -0.125 0.609375 -0.359375q0.265625 -0.234375 0.40625 -0.5625q0.15625 -0.34375 0.15625 -0.78125q0 -0.421875 -0.15625 -0.765625q-0.140625 -0.34375 -0.40625 -0.578125q-0.25 -0.25 -0.609375 -0.375q-0.34375 -0.140625 -0.765625 -0.140625l-1.859375 0l0 3.6875z" fill-rule="nonzero"/><path fill="#b7b7b7" d="m139.4589 203.50604l-2.921875 0l0 8.453125l-1.171875 0l0 -8.453125l-2.921875 0l0 -1.015625l7.015625 0l0 1.015625zm1.6075592 -1.015625l5.734375 0l0 1.046875l-2.265625 0l0 7.375l2.265625 0l0 1.046875l-5.734375 0l0 -1.046875l2.21875 0l0 -7.375l-2.21875 0l0 -1.046875zm14.170059 5.28125q-0.015625 0.5 -0.09375 1.015625q-0.078125 0.515625 -0.25 1.0q-0.171875 0.484375 -0.4375 0.90625q-0.25 0.40625 -0.625 0.71875q-0.359375 0.3125 -0.828125 0.5q-0.46875 0.171875 -1.0625 0.171875q-0.578125 0 -1.0625 -0.171875q-0.46875 -0.1875 -0.828125 -0.5q-0.359375 -0.3125 -0.640625 -0.71875q-0.265625 -0.421875 -0.4375 -0.90625q-0.171875 -0.484375 -0.25 -1.0q-0.078125 -0.515625 -0.09375 -1.015625l0 -1.078125q0.015625 -0.515625 0.09375 -1.03125q0.078125 -0.515625 0.25 -1.0q0.171875 -0.484375 0.4375 -0.890625q0.265625 -0.421875 0.625 -0.734375q0.359375 -0.328125 0.828125 -0.5q0.484375 -0.1875 1.0625 -0.1875q0.59375 0 1.0625 0.1875q0.484375 0.171875 0.84375 0.484375q0.359375 0.3125 0.625 0.734375q0.265625 0.421875 0.4375 0.90625q0.171875 0.484375 0.25 1.0q0.078125 0.515625 0.09375 1.03125l0 1.078125zm-1.1875 -1.09375q-0.015625 -0.34375 -0.0625 -0.703125q-0.03125 -0.375 -0.125 -0.734375q-0.09375 -0.359375 -0.25 -0.6875q-0.15625 -0.328125 -0.390625 -0.578125q-0.234375 -0.25 -0.5625 -0.390625q-0.3125 -0.15625 -0.734375 -0.15625q-0.40625 0 -0.734375 0.15625q-0.3125 0.140625 -0.546875 0.390625q-0.234375 0.25 -0.390625 0.578125q-0.15625 0.328125 -0.25 0.6875q-0.09375 0.359375 -0.140625 0.734375q-0.046875 0.375 -0.046875 0.703125l0 1.09375q0 0.328125 0.046875 0.703125q0.046875 0.359375 0.140625 0.734375q0.09375 0.359375 0.25 0.6875q0.15625 0.328125 0.390625 0.578125q0.234375 0.25 0.546875 0.40625q0.328125 0.140625 0.75 0.140625q0.421875 0 0.734375 -0.140625q0.328125 -0.15625 0.5625 -0.40625q0.234375 -0.25 0.390625 -0.578125q0.15625 -0.328125 0.25 -0.6875q0.09375 -0.359375 0.125 -0.734375q0.03125 -0.375 0.046875 -0.703125l0 -1.09375zm8.951309 5.28125l-1.21875 0l-3.671875 -7.078125l-0.03125 7.078125l-1.203125 0l0 -9.46875l1.21875 0l3.671875 7.0625l0.015625 -7.0625l1.21875 0l0 9.46875z" fill-rule="nonzero"/><path fill="#ffffff" d="m187.88934 105.395386l257.10236 0l0 171.52756l-257.10236 0z" fill-rule="evenodd"/><path stroke="#d9d9d9" stroke-width="1.0" stroke-linejoin="round" stroke-linecap="butt" d="m187.88934 105.395386l257.10236 0l0 171.52756l-257.10236 0z" fill-rule="evenodd"/><path fill="#000000" d="m289.38907 195.95917l0 -8.6875l2.390625 0q0.953125 0 1.71875 0.25q0.78125 0.25 1.328125 0.78125q0.546875 0.53125 0.84375 1.34375q0.296875 0.8125 0.296875 1.921875q0 1.125 -0.296875 1.953125q-0.28125 0.828125 -0.828125 1.375q-0.546875 0.53125 -1.296875 0.796875q-0.734375 0.265625 -1.640625 0.265625l-2.515625 0zm1.96875 -1.59375l0.3125 0q0.515625 0 0.9375 -0.140625q0.421875 -0.140625 0.71875 -0.46875q0.296875 -0.328125 0.453125 -0.859375q0.171875 -0.53125 0.171875 -1.328125q0 -0.765625 -0.171875 -1.28125q-0.15625 -0.53125 -0.453125 -0.84375q-0.296875 -0.328125 -0.71875 -0.453125q-0.421875 -0.140625 -0.9375 -0.140625l-0.3125 0l0 5.515625zm6.0749817 1.59375l0 -1.65625l2.03125 0l0 -5.375l-2.03125 0l0 -1.65625l6.03125 0l0 1.65625l-2.03125 0l0 5.375l2.03125 0l0 1.65625l-6.03125 0zm10.262451 -4.390625l-0.203125 0.796875l1.828125 0l-0.203125 -0.796875q-0.171875 -0.65625 -0.359375 -1.375q-0.1875 -0.734375 -0.328125 -1.4375l-0.046875 0q-0.171875 0.703125 -0.34375 1.4375q-0.171875 0.71875 -0.34375 1.375zm-3.125 4.390625l2.703125 -8.6875l2.34375 0l2.703125 8.6875l-2.078125 0l-0.515625 -2.0625l-2.625 0l-0.53125 2.0625l-2.0 0zm12.449982 0.15625q-0.84375 0 -1.578125 -0.28125q-0.71875 -0.28125 -1.265625 -0.84375q-0.53125 -0.5625 -0.84375 -1.390625q-0.296875 -0.84375 -0.296875 -1.9375q0 -1.09375 0.3125 -1.9375q0.3125 -0.84375 0.84375 -1.421875q0.546875 -0.578125 1.28125 -0.875q0.734375 -0.3125 1.5625 -0.3125q0.890625 0 1.5 0.34375q0.625 0.328125 1.046875 0.75l-1.078125 1.21875q-0.28125 -0.28125 -0.609375 -0.453125q-0.328125 -0.171875 -0.859375 -0.171875q-0.421875 0 -0.78125 0.203125q-0.359375 0.1875 -0.625 0.546875q-0.265625 0.359375 -0.421875 0.875q-0.15625 0.515625 -0.15625 1.171875q0 1.34375 0.515625 2.09375q0.515625 0.734375 1.546875 0.734375q0.265625 0 0.484375 -0.0625q0.234375 -0.078125 0.375 -0.203125l0 -1.5l-1.265625 0l0 -1.59375l3.03125 0l0 4.0q-0.453125 0.40625 -1.171875 0.734375q-0.71875 0.3125 -1.546875 0.3125zm4.356201 -0.15625l0 -8.6875l3.078125 0q0.6875 0 1.296875 0.140625q0.609375 0.125 1.0625 0.4375q0.46875 0.3125 0.734375 0.84375q0.265625 0.515625 0.265625 1.28125q0 0.953125 -0.4375 1.578125q-0.421875 0.625 -1.109375 0.921875l1.953125 3.484375l-2.203125 0l-1.65625 -3.125l-1.03125 0l0 3.125l-1.953125 0zm1.953125 -4.6875l0.96875 0q1.578125 0 1.578125 -1.296875q0 -0.640625 -0.40625 -0.890625q-0.390625 -0.25 -1.171875 -0.25l-0.96875 0l0 2.4375zm8.356232 0.296875l-0.203125 0.796875l1.828125 0l-0.203125 -0.796875q-0.171875 -0.65625 -0.359375 -1.375q-0.1875 -0.734375 -0.328125 -1.4375l-0.046875 0q-0.171875 0.703125 -0.34375 1.4375q-0.171875 0.71875 -0.34375 1.375zm-3.125 4.390625l2.703125 -8.6875l2.34375 0l2.703125 8.6875l-2.078125 0l-0.515625 -2.0625l-2.625 0l-0.53125 2.0625l-2.0 0zm8.637451 0l0 -8.6875l2.0625 0l0.84375 3.078125l0.296875 1.203125l0.0625 0l0.28125 -1.203125l0.859375 -3.078125l2.046875 0l0 8.6875l-1.640625 0l0 -2.6875q0 -0.359375 0.015625 -0.90625q0.03125 -0.546875 0.0625 -1.125q0.046875 -0.578125 0.09375 -1.109375q0.046875 -0.546875 0.078125 -0.890625l-0.046875 0l-0.65625 2.328125l-0.671875 2.078125l-0.96875 0l-0.671875 -2.078125l-0.625 -2.328125l-0.046875 0q0.046875 0.34375 0.078125 0.890625q0.046875 0.53125 0.078125 1.109375q0.046875 0.578125 0.078125 1.125q0.03125 0.546875 0.03125 0.90625l0 2.6875l-1.640625 0z" fill-rule="nonzero"/><path fill="#f3f3f3" d="m107.97113 52.69827l337.03937 0l0 52.692913l-337.03937 0z" fill-rule="evenodd"/><path stroke="#d9d9d9" stroke-width="1.0" stroke-linejoin="round" stroke-linecap="butt" d="m107.97113 52.69827l337.03937 0l0 52.692913l-337.03937 0z" fill-rule="evenodd"/><path fill="#b7b7b7" d="m254.28154 83.84473l0 -8.75l1.09375 0l0 7.796875l4.3281097 0l0 0.953125l-5.4218597 0zm7.7312164 0l0 -8.75l5.421875 0l0 0.9375l-4.296875 0l0 2.75l3.625 0l0 0.9375l-3.625 0l0 3.171875l4.421875 0l0 0.953125l-5.546875 0zm10.965576 0.15625q-0.8125 0 -1.515625 -0.296875q-0.6875 -0.3125 -1.203125 -0.890625q-0.5 -0.578125 -0.78125 -1.421875q-0.28125 -0.859375 -0.28125 -1.921875q0 -1.046875 0.28125 -1.890625q0.296875 -0.859375 0.8125 -1.4375q0.515625 -0.578125 1.21875 -0.890625q0.71875 -0.3125 1.5625 -0.3125q0.453125 0 0.8125 0.09375q0.359375 0.09375 0.65625 0.25q0.296875 0.15625 0.53125 0.34375q0.234375 0.1875 0.421875 0.375l-0.625 0.71875q-0.328125 -0.359375 -0.75 -0.578125q-0.40625 -0.234375 -1.046875 -0.234375q-0.609375 0 -1.109375 0.25q-0.5 0.25 -0.859375 0.71875q-0.359375 0.453125 -0.5625 1.109375q-0.1875 0.640625 -0.1875 1.46875q0 0.8125 0.171875 1.484375q0.1875 0.65625 0.53125 1.125q0.34375 0.46875 0.84375 0.71875q0.515625 0.25 1.15625 0.25q0.46875 0 0.859375 -0.140625q0.40625 -0.140625 0.65625 -0.375l0 -2.28125l-1.75 0l0 -0.921875l2.78125 0l0 3.671875q-0.421875 0.4375 -1.09375 0.734375q-0.671875 0.28125 -1.53125 0.28125zm5.0281067 -0.15625l0 -8.75l5.421875 0l0 0.9375l-4.296875 0l0 2.75l3.625 0l0 0.9375l-3.625 0l0 3.171875l4.421875 0l0 0.953125l-5.546875 0zm7.574951 0l0 -8.75l1.21875 0l2.8125 5.5l0.828125 1.8125l0.03125 0q-0.03125 -0.65625 -0.09375 -1.359375q-0.046875 -0.71875 -0.046875 -1.421875l0 -4.53125l1.0625 0l0 8.75l-1.234375 0l-2.796875 -5.484375l-0.828125 -1.8125l-0.03125 0q0.03125 0.671875 0.078125 1.359375q0.0625 0.6875 0.0625 1.359375l0 4.578125l-1.0625 0zm8.059357 0l0 -8.75l2.15625 0q1.984375 0 3.015625 1.125q1.046875 1.125 1.046875 3.21875q0 2.09375 -1.046875 3.25q-1.03125 1.15625 -2.953125 1.15625l-2.21875 0zm1.109375 -0.90625l0.96875 0q1.515625 0 2.25 -0.921875q0.734375 -0.921875 0.734375 -2.578125q0 -1.671875 -0.734375 -2.546875q-0.734375 -0.890625 -2.25 -0.890625l-0.96875 0l0 6.9375z" fill-rule="nonzero"/><path fill="#f3f3f3" d="m107.97113 0l337.03937 0l0 52.692913l-337.03937 0z" fill-rule="evenodd"/><path stroke="#d9d9d9" stroke-width="1.0" stroke-linejoin="round" stroke-linecap="butt" d="m107.97113 0l337.03937 0l0 52.692913l-337.03937 0z" fill-rule="evenodd"/><path fill="#b7b7b7" d="m233.66443 31.146456l0 -8.75l2.15625 0q1.984375 0 3.015625 1.125q1.046875 1.125 1.046875 3.21875q0 2.09375 -1.046875 3.25q-1.03125 1.15625 -2.953125 1.15625l-2.21875 0zm1.109375 -0.90625l0.96875 0q1.515625 0 2.25 -0.921875q0.734375 -0.921875 0.734375 -2.578125q0 -1.671875 -0.734375 -2.546875q-0.734375 -0.890625 -2.25 -0.890625l-0.96875 0l0 6.9375zm7.2468567 0.90625l0 -8.75l5.421875 0l0 0.9375l-4.296875 0l0 2.75l3.625 0l0 0.9375l-3.625 0l0 3.171875l4.421875 0l0 0.953125l-5.546875 0zm10.543701 0.15625q-0.953125 0 -1.765625 -0.34375q-0.796875 -0.34375 -1.40625 -0.953125l0.671875 -0.765625q0.484375 0.5 1.140625 0.796875q0.65625 0.296875 1.421875 0.296875q0.90625 0 1.40625 -0.390625q0.5 -0.390625 0.5 -1.0q0 -0.34375 -0.125 -0.578125q-0.125 -0.25 -0.34375 -0.421875q-0.203125 -0.171875 -0.5 -0.296875q-0.28125 -0.140625 -0.609375 -0.28125l-1.25 -0.546875q-0.34375 -0.140625 -0.671875 -0.328125q-0.328125 -0.1875 -0.609375 -0.453125q-0.265625 -0.265625 -0.4375 -0.625q-0.171875 -0.375 -0.171875 -0.84375q0 -0.5 0.203125 -0.921875q0.21875 -0.4375 0.59375 -0.75q0.390625 -0.3125 0.90625 -0.484375q0.53125 -0.171875 1.15625 -0.171875q0.828125 0 1.515625 0.3125q0.703125 0.296875 1.171875 0.765625l-0.578125 0.71875q-0.4375 -0.375 -0.953125 -0.59375q-0.515625 -0.234375 -1.203125 -0.234375q-0.75 0 -1.21875 0.34375q-0.46875 0.34375 -0.46875 0.9375q0 0.328125 0.140625 0.546875q0.140625 0.21875 0.359375 0.390625q0.21875 0.15625 0.5 0.28125q0.28125 0.125 0.5625 0.234375l1.21875 0.53125q0.40625 0.171875 0.75 0.375q0.359375 0.203125 0.609375 0.484375q0.265625 0.265625 0.421875 0.640625q0.15625 0.359375 0.15625 0.84375q0 0.515625 -0.21875 0.96875q-0.203125 0.453125 -0.609375 0.796875q-0.390625 0.328125 -0.96875 0.53125q-0.578125 0.1875 -1.296875 0.1875zm8.606232 0q-0.8125 0 -1.5 -0.296875q-0.6875 -0.3125 -1.203125 -0.890625q-0.515625 -0.578125 -0.8125 -1.421875q-0.296875 -0.859375 -0.296875 -1.921875q0 -1.046875 0.296875 -1.890625q0.296875 -0.84375 0.8125 -1.421875q0.53125 -0.59375 1.25 -0.90625q0.71875 -0.3125 1.5625 -0.3125q0.796875 0 1.390625 0.328125q0.609375 0.3125 1.0 0.734375l-0.625 0.71875q-0.34375 -0.359375 -0.78125 -0.578125q-0.421875 -0.234375 -0.984375 -0.234375q-0.625 0 -1.140625 0.25q-0.515625 0.25 -0.875 0.71875q-0.359375 0.453125 -0.5625 1.109375q-0.1875 0.640625 -0.1875 1.46875q0 0.8125 0.1875 1.484375q0.203125 0.65625 0.5625 1.125q0.359375 0.46875 0.875 0.71875q0.515625 0.25 1.140625 0.25q0.609375 0 1.078125 -0.25q0.46875 -0.25 0.890625 -0.71875l0.640625 0.671875q-0.53125 0.609375 -1.1875 0.9375q-0.640625 0.328125 -1.53125 0.328125zm4.653076 -0.15625l0 -8.75l2.71875 0q0.671875 0 1.234375 0.140625q0.5625 0.125 0.96875 0.421875q0.40625 0.28125 0.625 0.75q0.234375 0.46875 0.234375 1.140625q0 1.03125 -0.546875 1.65625q-0.53125 0.609375 -1.421875 0.828125l2.234375 3.8125l-1.265625 0l-2.109375 -3.6875l-1.5625 0l0 3.6875l-1.109375 0zm1.109375 -4.59375l1.453125 0q1.03125 0 1.5625 -0.421875q0.546875 -0.421875 0.546875 -1.28125q0 -0.859375 -0.546875 -1.203125q-0.53125 -0.34375 -1.5625 -0.34375l-1.453125 0l0 3.25zm6.8249817 4.59375l0 -0.953125l2.171875 0l0 -6.859375l-2.171875 0l0 -0.9375l5.46875 0l0 0.9375l-2.171875 0l0 6.859375l2.171875 0l0 0.953125l-5.46875 0zm8.090576 0l0 -8.75l2.640625 0q0.71875 0 1.3125 0.140625q0.609375 0.125 1.03125 0.4375q0.421875 0.296875 0.65625 0.796875q0.234375 0.484375 0.234375 1.203125q0 0.6875 -0.234375 1.203125q-0.234375 0.5 -0.671875 0.84375q-0.421875 0.328125 -1.015625 0.5q-0.59375 0.15625 -1.3125 0.15625l-1.53125 0l0 3.46875l-1.109375 0zm1.109375 -4.375l1.390625 0q1.171875 0 1.71875 -0.421875q0.546875 -0.4375 0.546875 -1.375q0 -0.953125 -0.5625 -1.3125q-0.5625 -0.359375 -1.703125 -0.359375l-1.390625 0l0 3.46875zm8.965607 4.375l0 -7.8125l-2.875 0l0 -0.9375l6.875 0l0 0.9375l-2.875 0l0 7.8125l-1.125 0zm5.824951 0l0 -0.953125l2.171875 0l0 -6.859375l-2.171875 0l0 -0.9375l5.46875 0l0 0.9375l-2.171875 0l0 6.859375l2.171875 0l0 0.953125l-5.46875 0zm10.731232 0.15625q-0.75 0 -1.359375 -0.3125q-0.609375 -0.3125 -1.0625 -0.890625q-0.4375 -0.59375 -0.6875 -1.4375q-0.25 -0.84375 -0.25 -1.921875q0 -1.0625 0.25 -1.890625q0.25 -0.84375 0.6875 -1.421875q0.453125 -0.578125 1.0625 -0.875q0.609375 -0.3125 1.359375 -0.3125q0.734375 0 1.34375 0.3125q0.625 0.296875 1.0625 0.875q0.453125 0.578125 0.703125 1.421875q0.25 0.828125 0.25 1.890625q0 1.078125 -0.25 1.921875q-0.25 0.84375 -0.703125 1.4375q-0.4375 0.578125 -1.0625 0.890625q-0.609375 0.3125 -1.34375 0.3125zm0 -0.96875q0.484375 0 0.890625 -0.25q0.421875 -0.25 0.703125 -0.703125q0.296875 -0.46875 0.453125 -1.140625q0.15625 -0.671875 0.15625 -1.5q0 -0.828125 -0.15625 -1.484375q-0.15625 -0.65625 -0.453125 -1.109375q-0.28125 -0.453125 -0.703125 -0.6875q-0.40625 -0.25 -0.890625 -0.25q-0.515625 0 -0.921875 0.25q-0.40625 0.234375 -0.6875 0.6875q-0.28125 0.453125 -0.453125 1.109375q-0.15625 0.65625 -0.15625 1.484375q0 0.828125 0.15625 1.5q0.171875 0.671875 0.453125 1.140625q0.28125 0.453125 0.6875 0.703125q0.40625 0.25 0.921875 0.25zm5.090576 0.8125l0 -8.75l1.21875 0l2.8125 5.5l0.828125 1.8125l0.03125 0q-0.03125 -0.65625 -0.09375 -1.359375q-0.046875 -0.71875 -0.046875 -1.421875l0 -4.53125l1.0625 0l0 8.75l-1.234375 0l-2.796875 -5.484375l-0.828125 -1.8125l-0.03125 0q0.03125 0.671875 0.078125 1.359375q0.0625 0.6875 0.0625 1.359375l0 4.578125l-1.0625 0z" fill-rule="nonzero"/><path fill="#000000" fill-opacity="0.0" d="m92.490814 105.39654l0 171.52756" fill-rule="evenodd"/><path stroke="#595959" stroke-width="1.0" stroke-linejoin="round" stroke-linecap="butt" d="m92.490814 111.39654l0 159.52756" fill-rule="evenodd"/><path fill="#595959" stroke="#595959" stroke-width="1.0" stroke-linecap="butt" d="m94.14255 111.39654l-1.6517334 -4.5380936l-1.6517334 4.5380936z" fill-rule="evenodd"/><path fill="#595959" stroke="#595959" stroke-width="1.0" stroke-linecap="butt" d="m90.83908 270.9241l1.6517334 4.538086l1.6517334 -4.538086z" fill-rule="evenodd"/><path fill="#000000" fill-opacity="0.0" d="m0 105.39711l84.09449 0l0 171.52757l-84.09449 0z" fill-rule="evenodd"/><path fill="#000000" d="m44.404 179.96089l0 -0.90625l2.453125 0l0 -6.265625l-1.90625 0l0 -0.703125q0.75 -0.109375 1.25 -0.25q0.515625 -0.15625 0.9375 -0.375l0.8125 0l0 7.59375l2.21875 0l0 0.90625l-5.765625 0zm7.6687164 0l0 -0.65625q1.078125 -0.953125 1.90625 -1.71875q0.84375 -0.78125 1.40625 -1.421875q0.5625 -0.65625 0.859375 -1.21875q0.296875 -0.5625 0.296875 -1.09375q0 -0.734375 -0.453125 -1.1875q-0.453125 -0.46875 -1.40625 -0.46875q-0.59375 0 -1.109375 0.296875q-0.515625 0.296875 -0.921875 0.71875l-0.625 -0.625q0.578125 -0.578125 1.234375 -0.921875q0.65625 -0.359375 1.5625 -0.359375q0.640625 0 1.15625 0.1875q0.515625 0.171875 0.875 0.5q0.359375 0.3125 0.546875 0.78125q0.1875 0.46875 0.1875 1.03125q0 0.59375 -0.28125 1.203125q-0.28125 0.609375 -0.8125 1.265625q-0.515625 0.640625 -1.234375 1.34375q-0.71875 0.6875 -1.578125 1.484375q0.390625 -0.03125 0.78125 -0.0625q0.40625 -0.03125 0.796875 -0.03125l2.796875 0l0 0.953125l-5.984375 0zm8.168716 -3.984375l0 -0.828125l5.71875 0l0 0.828125l-5.71875 0zm8.090591 3.984375l0 -6.484375l0.90625 0l0.09375 1.109375l0.0625 0q0.5 -0.546875 1.078125 -0.90625q0.59375 -0.359375 1.359375 -0.359375q1.15625 0 1.6875 0.671875q0.546875 0.65625 0.546875 1.9375l0 4.03125l-1.09375 0l0 -3.875q0 -0.921875 -0.34375 -1.359375q-0.34375 -0.453125 -1.140625 -0.453125q-0.296875 0 -0.546875 0.078125q-0.25 0.0625 -0.484375 0.21875q-0.234375 0.140625 -0.5 0.359375q-0.25 0.21875 -0.53125 0.515625l0 4.515625l-1.09375 0z" fill-rule="nonzero"/><path fill="#000000" d="m31.379066 196.11714q-0.46875 0 -1.015625 -0.234375q-0.53125 -0.234375 -1.0 -0.640625l-0.03125 0l-0.09375 0.71875l-0.890625 0l0 -9.484375l1.09375 0l0 2.578125l-0.03125 1.25l0.03125 0q0.4375 -0.453125 1.015625 -0.71875q0.59375 -0.265625 1.15625 -0.265625q0.65625 0 1.15625 0.234375q0.515625 0.234375 0.84375 0.671875q0.34375 0.4375 0.515625 1.046875q0.1875 0.59375 0.1875 1.34375q0 0.828125 -0.25 1.484375q-0.234375 0.640625 -0.640625 1.09375q-0.40625 0.453125 -0.9375 0.6875q-0.53125 0.234375 -1.109375 0.234375zm-0.171875 -0.921875q0.421875 0 0.78125 -0.171875q0.359375 -0.1875 0.625 -0.5q0.265625 -0.328125 0.40625 -0.8125q0.15625 -0.484375 0.15625 -1.078125q0 -0.53125 -0.109375 -0.96875q-0.109375 -0.453125 -0.328125 -0.765625q-0.21875 -0.3125 -0.5625 -0.484375q-0.34375 -0.171875 -0.828125 -0.171875q-0.421875 0 -0.90625 0.234375q-0.484375 0.234375 -1.0 0.734375l0 3.234375q0.46875 0.40625 0.9375 0.578125q0.484375 0.171875 0.828125 0.171875zm9.324966 0.921875q-1.03125 0 -1.578125 -0.578125q-0.546875 -0.59375 -0.546875 -1.75l0 -6.421875l-2.3125 0l0 -0.890625l3.40625 0l0 7.390625q0 0.71875 0.34375 1.03125q0.34375 0.3125 0.9375 0.3125q0.5625 0 1.203125 -0.296875l0.28125 0.8125q-0.453125 0.1875 -0.828125 0.28125q-0.375 0.109375 -0.90625 0.109375zm6.5749664 0q-0.640625 0 -1.21875 -0.21875q-0.578125 -0.234375 -1.03125 -0.65625q-0.4375 -0.4375 -0.703125 -1.0625q-0.25 -0.640625 -0.25 -1.4375q0 -0.8125 0.25 -1.4375q0.265625 -0.640625 0.703125 -1.078125q0.453125 -0.453125 1.03125 -0.671875q0.578125 -0.234375 1.21875 -0.234375q0.640625 0 1.21875 0.234375q0.578125 0.21875 1.015625 0.671875q0.4375 0.4375 0.703125 1.078125q0.265625 0.625 0.265625 1.4375q0 0.796875 -0.265625 1.4375q-0.265625 0.625 -0.703125 1.0625q-0.4375 0.421875 -1.015625 0.65625q-0.578125 0.21875 -1.21875 0.21875zm0 -0.90625q0.46875 0 0.84375 -0.171875q0.375 -0.1875 0.640625 -0.515625q0.28125 -0.328125 0.421875 -0.78125q0.15625 -0.453125 0.15625 -1.0q0 -0.5625 -0.15625 -1.015625q-0.140625 -0.46875 -0.421875 -0.796875q-0.265625 -0.34375 -0.640625 -0.515625q-0.375 -0.1875 -0.84375 -0.1875q-0.46875 0 -0.859375 0.1875q-0.375 0.171875 -0.65625 0.515625q-0.265625 0.328125 -0.40625 0.796875q-0.140625 0.453125 -0.140625 1.015625q0 0.546875 0.140625 1.0q0.140625 0.453125 0.40625 0.78125q0.28125 0.328125 0.65625 0.515625q0.390625 0.171875 0.859375 0.171875zm8.606216 0.90625q-0.75 0 -1.40625 -0.21875q-0.640625 -0.234375 -1.125 -0.65625q-0.484375 -0.4375 -0.75 -1.0625q-0.265625 -0.640625 -0.265625 -1.4375q0 -0.8125 0.28125 -1.4375q0.296875 -0.640625 0.78125 -1.078125q0.5 -0.453125 1.15625 -0.671875q0.65625 -0.234375 1.390625 -0.234375q0.8125 0 1.390625 0.28125q0.578125 0.28125 0.96875 0.671875l-0.546875 0.703125q-0.390625 -0.34375 -0.828125 -0.546875q-0.4375 -0.203125 -0.9375 -0.203125q-0.5625 0 -1.03125 0.1875q-0.46875 0.171875 -0.796875 0.515625q-0.3125 0.328125 -0.5 0.796875q-0.1875 0.453125 -0.1875 1.015625q0 0.546875 0.171875 1.0q0.1875 0.453125 0.515625 0.78125q0.328125 0.328125 0.78125 0.515625q0.453125 0.171875 1.015625 0.171875q0.609375 0 1.109375 -0.234375q0.5 -0.234375 0.890625 -0.578125l0.5 0.703125q-0.546875 0.484375 -1.203125 0.75q-0.65625 0.265625 -1.375 0.265625zm4.7937164 -0.15625l0 -9.484375l1.09375 0l0 6.421875l0.0625 0l3.484375 -3.421875l1.25 0l-2.578125 2.546875l2.9375 3.9375l-1.234375 0l-2.390625 -3.265625l-1.53125 1.5l0 1.765625l-1.09375 0zm10.715591 0.15625q-0.953125 0 -1.765625 -0.296875q-0.8125 -0.296875 -1.40625 -0.71875l0.5 -0.71875q0.5625 0.40625 1.234375 0.65625q0.671875 0.234375 1.578125 0.234375q0.828125 0 1.234375 -0.296875q0.40625 -0.3125 0.40625 -0.71875q0 -0.1875 -0.078125 -0.34375q-0.0625 -0.171875 -0.28125 -0.3125q-0.21875 -0.140625 -0.625 -0.265625q-0.390625 -0.140625 -1.046875 -0.28125q-1.265625 -0.265625 -1.90625 -0.703125q-0.625 -0.453125 -0.625 -1.1875q0 -0.390625 0.171875 -0.71875q0.171875 -0.34375 0.515625 -0.59375q0.34375 -0.25 0.84375 -0.390625q0.5 -0.140625 1.15625 -0.140625q0.75 0 1.4375 0.25q0.703125 0.25 1.1875 0.578125l-0.53125 0.703125q-0.453125 -0.296875 -1.0 -0.484375q-0.546875 -0.1875 -1.1875 -0.1875q-0.8125 0 -1.15625 0.28125q-0.328125 0.28125 -0.328125 0.65625q0 0.421875 0.4375 0.640625q0.4375 0.21875 1.4375 0.4375q0.8125 0.171875 1.328125 0.359375q0.53125 0.1875 0.828125 0.4375q0.296875 0.234375 0.40625 0.53125q0.125 0.296875 0.125 0.671875q0 0.390625 -0.1875 0.734375q-0.1875 0.34375 -0.5625 0.625q-0.359375 0.265625 -0.90625 0.40625q-0.53125 0.15625 -1.234375 0.15625z" fill-rule="nonzero"/><path fill="#000000" d="m28.347816 211.96089l0 -9.484375l1.09375 0l0 2.578125l-0.0625 1.53125l0.046875 0q0.5 -0.546875 1.078125 -0.90625q0.578125 -0.359375 1.34375 -0.359375q1.15625 0 1.6875 0.671875q0.546875 0.65625 0.546875 1.9375l0 4.03125l-1.09375 0l0 -3.875q0 -0.921875 -0.34375 -1.359375q-0.34375 -0.453125 -1.140625 -0.453125q-0.296875 0 -0.546875 0.078125q-0.25 0.0625 -0.484375 0.21875q-0.234375 0.140625 -0.5 0.359375q-0.25 0.21875 -0.53125 0.515625l0 4.515625l-1.09375 0zm11.153091 0.15625q-0.71875 0 -1.359375 -0.21875q-0.625 -0.234375 -1.109375 -0.671875q-0.46875 -0.4375 -0.75 -1.0625q-0.265625 -0.640625 -0.265625 -1.453125q0 -0.78125 0.265625 -1.40625q0.28125 -0.640625 0.734375 -1.078125q0.46875 -0.4375 1.0625 -0.671875q0.59375 -0.234375 1.25 -0.234375q0.6875 0 1.234375 0.21875q0.5625 0.21875 0.9375 0.625q0.375 0.40625 0.578125 0.96875q0.203125 0.546875 0.203125 1.234375q0 0.1875 -0.015625 0.359375q-0.015625 0.171875 -0.03125 0.296875l-5.109375 0q0.109375 1.109375 0.796875 1.671875q0.703125 0.546875 1.71875 0.546875q0.59375 0 1.0625 -0.15625q0.46875 -0.171875 0.90625 -0.453125l0.40625 0.71875q-0.484375 0.3125 -1.109375 0.546875q-0.609375 0.21875 -1.40625 0.21875zm-0.15625 -5.921875q-0.390625 0 -0.765625 0.140625q-0.359375 0.125 -0.65625 0.375q-0.296875 0.234375 -0.5 0.609375q-0.1875 0.375 -0.265625 0.859375l4.125 0q-0.0625 -1.0 -0.578125 -1.484375q-0.515625 -0.5 -1.359375 -0.5zm7.9812164 5.765625l0 -5.578125l-3.015625 0l0 -0.90625l4.09375 0l0 6.484375l-1.078125 0zm0.78125 -7.84375q-0.375 0 -0.625 -0.21875q-0.25 -0.234375 -0.25 -0.625q0 -0.390625 0.25 -0.625q0.25 -0.234375 0.625 -0.234375q0.375 0 0.625 0.234375q0.25 0.234375 0.25 0.625q0 0.390625 -0.25 0.625q-0.25 0.21875 -0.625 0.21875zm6.9343414 10.828125q-1.421875 0 -2.203125 -0.46875q-0.78125 -0.46875 -0.78125 -1.328125q0 -0.390625 0.265625 -0.765625q0.28125 -0.375 0.8125 -0.671875l0 -0.0625q-0.265625 -0.140625 -0.46875 -0.390625q-0.203125 -0.25 -0.203125 -0.671875q0 -0.296875 0.203125 -0.625q0.203125 -0.328125 0.5625 -0.578125l0 -0.0625q-0.328125 -0.25 -0.5625 -0.671875q-0.234375 -0.421875 -0.234375 -1.0q0 -0.53125 0.203125 -0.953125q0.21875 -0.4375 0.5625 -0.734375q0.34375 -0.296875 0.796875 -0.46875q0.46875 -0.171875 0.984375 -0.171875q0.53125 0 0.96875 0.15625l2.671875 0l0 0.90625l-1.671875 0q0.21875 0.21875 0.375 0.5625q0.171875 0.34375 0.171875 0.734375q0 0.515625 -0.203125 0.9375q-0.1875 0.40625 -0.53125 0.703125q-0.34375 0.28125 -0.8125 0.4375q-0.453125 0.15625 -0.96875 0.15625q-0.25 0 -0.546875 -0.0625q-0.28125 -0.0625 -0.546875 -0.1875q-0.5 0.328125 -0.5 0.75q0 0.390625 0.34375 0.578125q0.359375 0.171875 1.0 0.171875l1.453125 0q1.25 0 1.859375 0.34375q0.609375 0.34375 0.609375 1.171875q0 0.453125 -0.265625 0.859375q-0.25 0.421875 -0.71875 0.71875q-0.453125 0.3125 -1.125 0.5q-0.671875 0.1875 -1.5 0.1875zm-0.0625 -5.765625q0.625 0 1.0625 -0.40625q0.4375 -0.421875 0.4375 -1.125q0 -0.34375 -0.125 -0.625q-0.125 -0.28125 -0.328125 -0.46875q-0.1875 -0.203125 -0.46875 -0.3125q-0.265625 -0.125 -0.578125 -0.125q-0.296875 0 -0.578125 0.125q-0.265625 0.109375 -0.46875 0.3125q-0.203125 0.1875 -0.328125 0.46875q-0.109375 0.28125 -0.109375 0.625q0 0.703125 0.4375 1.125q0.4375 0.40625 1.046875 0.40625zm0.15625 4.96875q0.546875 0 1.0 -0.109375q0.453125 -0.109375 0.765625 -0.296875q0.328125 -0.171875 0.5 -0.40625q0.171875 -0.234375 0.171875 -0.484375q0 -0.46875 -0.375 -0.625q-0.359375 -0.15625 -1.109375 -0.15625l-1.265625 0q-0.28125 0 -0.53125 -0.03125q-0.234375 -0.015625 -0.453125 -0.078125q-0.46875 0.25 -0.65625 0.515625q-0.171875 0.28125 -0.171875 0.5625q0 0.515625 0.53125 0.8125q0.546875 0.296875 1.59375 0.296875zm5.1999664 -2.1875l0 -9.484375l1.09375 0l0 2.578125l-0.0625 1.53125l0.046875 0q0.5 -0.546875 1.078125 -0.90625q0.578125 -0.359375 1.34375 -0.359375q1.15625 0 1.6875 0.671875q0.546875 0.65625 0.546875 1.9375l0 4.03125l-1.09375 0l0 -3.875q0 -0.921875 -0.34375 -1.359375q-0.34375 -0.453125 -1.140625 -0.453125q-0.296875 0 -0.546875 0.078125q-0.25 0.0625 -0.484375 0.21875q-0.234375 0.140625 -0.5 0.359375q-0.25 0.21875 -0.53125 0.515625l0 4.515625l-1.09375 0zm12.012466 0.15625q-0.703125 0 -1.1875 -0.1875q-0.484375 -0.203125 -0.78125 -0.546875q-0.28125 -0.359375 -0.40625 -0.84375q-0.125 -0.5 -0.125 -1.09375l0 -3.0625l-1.828125 0l0 -0.828125l1.859375 -0.078125l0.15625 -2.078125l0.90625 0l0 2.078125l3.1875 0l0 0.90625l-3.1875 0l0 3.078125q0 0.4375 0.078125 0.765625q0.078125 0.328125 0.265625 0.5625q0.1875 0.21875 0.5 0.328125q0.328125 0.109375 0.796875 0.109375q0.453125 0 0.828125 -0.078125q0.375 -0.078125 0.71875 -0.21875l0.25 0.796875q-0.4375 0.171875 -0.9375 0.28125q-0.484375 0.109375 -1.09375 0.109375z" fill-rule="nonzero"/><path fill="#000000" fill-opacity="0.0" d="m187.90814 295.16028l257.10236 0" fill-rule="evenodd"/><path stroke="#595959" stroke-width="1.0" stroke-linejoin="round" stroke-linecap="butt" d="m193.90814 295.16028l245.10236 0" fill-rule="evenodd"/><path fill="#595959" stroke="#595959" stroke-width="1.0" stroke-linecap="butt" d="m193.90814 293.50854l-4.538101 1.6517334l4.538101 1.6517334z" fill-rule="evenodd"/><path fill="#595959" stroke="#595959" stroke-width="1.0" stroke-linecap="butt" d="m439.0105 296.812l4.538086 -1.6517334l-4.538086 -1.6517334z" fill-rule="evenodd"/><path fill="#000000" fill-opacity="0.0" d="m187.86876 295.16028l257.10236 0l0 63.02362l-257.10236 0z" fill-rule="evenodd"/><path fill="#ff0000" d="m312.14185 315.62833q-1.09375 0 -1.890625 -0.328125q-0.78125 -0.328125 -1.265625 -0.875l0.90625 -1.234375q0.421875 0.375 0.953125 0.625q0.53125 0.234375 1.109375 0.234375q0.6875 0 1.140625 -0.265625q0.453125 -0.265625 0.453125 -0.734375q0 -0.28125 -0.125 -0.5q-0.125 -0.234375 -0.421875 -0.390625q-0.28125 -0.15625 -0.78125 -0.234375q-0.484375 -0.09375 -1.234375 -0.09375l0 -1.390625q1.25 0 1.765625 -0.3125q0.515625 -0.3125 0.515625 -0.8125q0 -0.4375 -0.34375 -0.6875q-0.328125 -0.25 -0.921875 -0.25q-0.5 0 -0.9375 0.203125q-0.421875 0.203125 -0.859375 0.546875l-0.984375 -1.203125q0.625 -0.5 1.34375 -0.78125q0.71875 -0.296875 1.53125 -0.296875q0.703125 0 1.265625 0.15625q0.578125 0.15625 0.984375 0.453125q0.421875 0.296875 0.640625 0.734375q0.234375 0.421875 0.234375 0.984375q0 0.65625 -0.4375 1.125q-0.421875 0.453125 -1.171875 0.75l0 0.046875q0.796875 0.21875 1.34375 0.734375q0.546875 0.515625 0.546875 1.328125q0 0.59375 -0.28125 1.0625q-0.265625 0.453125 -0.734375 0.765625q-0.453125 0.3125 -1.0625 0.484375q-0.609375 0.15625 -1.28125 0.15625zm8.262482 0q-0.734375 0 -1.328125 -0.15625q-0.578125 -0.171875 -1.0 -0.46875q-0.40625 -0.3125 -0.625 -0.734375q-0.21875 -0.4375 -0.21875 -0.953125q0 -0.390625 0.125 -0.703125q0.125 -0.3125 0.34375 -0.5625q0.21875 -0.25 0.5 -0.453125q0.296875 -0.203125 0.625 -0.359375l0 -0.0625q-0.53125 -0.375 -0.890625 -0.84375q-0.34375 -0.46875 -0.34375 -1.15625q0 -0.53125 0.203125 -0.953125q0.21875 -0.4375 0.59375 -0.734375q0.390625 -0.3125 0.921875 -0.46875q0.53125 -0.171875 1.15625 -0.171875q0.640625 0 1.15625 0.171875q0.515625 0.15625 0.875 0.46875q0.359375 0.296875 0.546875 0.734375q0.203125 0.421875 0.203125 0.953125q0 0.59375 -0.359375 1.0625q-0.34375 0.46875 -0.859375 0.78125l0 0.0625q0.328125 0.15625 0.625 0.359375q0.296875 0.203125 0.5 0.46875q0.21875 0.265625 0.34375 0.609375q0.125 0.34375 0.125 0.765625q0 0.515625 -0.21875 0.9375q-0.21875 0.421875 -0.625 0.734375q-0.40625 0.3125 -1.0 0.5q-0.59375 0.171875 -1.375 0.171875zm0.59375 -5.09375q0.640625 -0.5625 0.640625 -1.234375q0 -0.484375 -0.3125 -0.78125q-0.3125 -0.3125 -0.890625 -0.3125q-0.46875 0 -0.796875 0.25q-0.328125 0.234375 -0.328125 0.71875q0 0.53125 0.46875 0.828125q0.46875 0.28125 1.21875 0.53125zm-0.546875 3.734375q0.609375 0 0.96875 -0.25q0.375 -0.265625 0.375 -0.796875q0 -0.296875 -0.15625 -0.5q-0.140625 -0.203125 -0.421875 -0.359375q-0.265625 -0.171875 -0.640625 -0.3125q-0.375 -0.140625 -0.828125 -0.3125q-0.359375 0.265625 -0.59375 0.609375q-0.234375 0.328125 -0.234375 0.734375q0 0.5625 0.4375 0.875q0.453125 0.3125 1.09375 0.3125z" fill-rule="nonzero"/><path fill="#000000" d="m296.69504 331.62833q-0.46875 0 -1.015625 -0.234375q-0.53125 -0.234375 -1.0 -0.640625l-0.03125 0l-0.09375 0.71875l-0.890625 0l0 -9.484375l1.09375 0l0 2.578125l-0.03125 1.25l0.03125 0q0.4375 -0.453125 1.015625 -0.71875q0.59375 -0.265625 1.15625 -0.265625q0.65625 0 1.15625 0.234375q0.515625 0.234375 0.84375 0.671875q0.34375 0.4375 0.515625 1.046875q0.1875 0.59375 0.1875 1.34375q0 0.828125 -0.25 1.484375q-0.234375 0.640625 -0.640625 1.09375q-0.40625 0.453125 -0.9375 0.6875q-0.53125 0.234375 -1.109375 0.234375zm-0.171875 -0.921875q0.421875 0 0.78125 -0.171875q0.359375 -0.1875 0.625 -0.5q0.265625 -0.328125 0.40625 -0.8125q0.15625 -0.484375 0.15625 -1.078125q0 -0.53125 -0.109375 -0.96875q-0.109375 -0.453125 -0.328125 -0.765625q-0.21875 -0.3125 -0.5625 -0.484375q-0.34375 -0.171875 -0.828125 -0.171875q-0.421875 0 -0.90625 0.234375q-0.484375 0.234375 -1.0 0.734375l0 3.234375q0.46875 0.40625 0.9375 0.578125q0.484375 0.171875 0.828125 0.171875zm9.324982 0.921875q-1.03125 0 -1.578125 -0.578125q-0.546875 -0.59375 -0.546875 -1.75l0 -6.421875l-2.3125 0l0 -0.890625l3.40625 0l0 7.390625q0 0.71875 0.34375 1.03125q0.34375 0.3125 0.9375 0.3125q0.5625 0 1.203125 -0.296875l0.28125 0.8125q-0.453125 0.1875 -0.828125 0.28125q-0.375 0.109375 -0.90625 0.109375zm6.574951 0q-0.640625 0 -1.21875 -0.21875q-0.578125 -0.234375 -1.03125 -0.65625q-0.4375 -0.4375 -0.703125 -1.0625q-0.25 -0.640625 -0.25 -1.4375q0 -0.8125 0.25 -1.4375q0.265625 -0.640625 0.703125 -1.078125q0.453125 -0.453125 1.03125 -0.671875q0.578125 -0.234375 1.21875 -0.234375q0.640625 0 1.21875 0.234375q0.578125 0.21875 1.015625 0.671875q0.4375 0.4375 0.703125 1.078125q0.265625 0.625 0.265625 1.4375q0 0.796875 -0.265625 1.4375q-0.265625 0.625 -0.703125 1.0625q-0.4375 0.421875 -1.015625 0.65625q-0.578125 0.21875 -1.21875 0.21875zm0 -0.90625q0.46875 0 0.84375 -0.171875q0.375 -0.1875 0.640625 -0.515625q0.28125 -0.328125 0.421875 -0.78125q0.15625 -0.453125 0.15625 -1.0q0 -0.5625 -0.15625 -1.015625q-0.140625 -0.46875 -0.421875 -0.796875q-0.265625 -0.34375 -0.640625 -0.515625q-0.375 -0.1875 -0.84375 -0.1875q-0.46875 0 -0.859375 0.1875q-0.375 0.171875 -0.65625 0.515625q-0.265625 0.328125 -0.40625 0.796875q-0.140625 0.453125 -0.140625 1.015625q0 0.546875 0.140625 1.0q0.140625 0.453125 0.40625 0.78125q0.28125 0.328125 0.65625 0.515625q0.390625 0.171875 0.859375 0.171875zm8.606232 0.90625q-0.75 0 -1.40625 -0.21875q-0.640625 -0.234375 -1.125 -0.65625q-0.484375 -0.4375 -0.75 -1.0625q-0.265625 -0.640625 -0.265625 -1.4375q0 -0.8125 0.28125 -1.4375q0.296875 -0.640625 0.78125 -1.078125q0.5 -0.453125 1.15625 -0.671875q0.65625 -0.234375 1.390625 -0.234375q0.8125 0 1.390625 0.28125q0.578125 0.28125 0.96875 0.671875l-0.546875 0.703125q-0.390625 -0.34375 -0.828125 -0.546875q-0.4375 -0.203125 -0.9375 -0.203125q-0.5625 0 -1.03125 0.1875q-0.46875 0.171875 -0.796875 0.515625q-0.3125 0.328125 -0.5 0.796875q-0.1875 0.453125 -0.1875 1.015625q0 0.546875 0.171875 1.0q0.1875 0.453125 0.515625 0.78125q0.328125 0.328125 0.78125 0.515625q0.453125 0.171875 1.015625 0.171875q0.609375 0 1.109375 -0.234375q0.5 -0.234375 0.890625 -0.578125l0.5 0.703125q-0.546875 0.484375 -1.203125 0.75q-0.65625 0.265625 -1.375 0.265625zm4.793701 -0.15625l0 -9.484375l1.09375 0l0 6.421875l0.0625 0l3.484375 -3.421875l1.25 0l-2.578125 2.546875l2.9375 3.9375l-1.234375 0l-2.390625 -3.265625l-1.53125 1.5l0 1.765625l-1.09375 0zm10.715607 0.15625q-0.953125 0 -1.765625 -0.296875q-0.8125 -0.296875 -1.40625 -0.71875l0.5 -0.71875q0.5625 0.40625 1.234375 0.65625q0.671875 0.234375 1.578125 0.234375q0.828125 0 1.234375 -0.296875q0.40625 -0.3125 0.40625 -0.71875q0 -0.1875 -0.078125 -0.34375q-0.0625 -0.171875 -0.28125 -0.3125q-0.21875 -0.140625 -0.625 -0.265625q-0.390625 -0.140625 -1.046875 -0.28125q-1.265625 -0.265625 -1.90625 -0.703125q-0.625 -0.453125 -0.625 -1.1875q0 -0.390625 0.171875 -0.71875q0.171875 -0.34375 0.515625 -0.59375q0.34375 -0.25 0.84375 -0.390625q0.5 -0.140625 1.15625 -0.140625q0.75 0 1.4375 0.25q0.703125 0.25 1.1875 0.578125l-0.53125 0.703125q-0.453125 -0.296875 -1.0 -0.484375q-0.546875 -0.1875 -1.1875 -0.1875q-0.8125 0 -1.15625 0.28125q-0.328125 0.28125 -0.328125 0.65625q0 0.421875 0.4375 0.640625q0.4375 0.21875 1.4375 0.4375q0.8125 0.171875 1.328125 0.359375q0.53125 0.1875 0.828125 0.4375q0.296875 0.234375 0.40625 0.53125q0.125 0.296875 0.125 0.671875q0 0.390625 -0.1875 0.734375q-0.1875 0.34375 -0.5625 0.625q-0.359375 0.265625 -0.90625 0.40625q-0.53125 0.15625 -1.234375 0.15625z" fill-rule="nonzero"/><path fill="#000000" d="m297.94345 347.47208l-1.40625 -6.484375l1.09375 0l0.765625 3.765625q0.09375 0.46875 0.15625 0.890625q0.078125 0.421875 0.140625 0.890625l0.046875 0q0.078125 -0.46875 0.171875 -0.890625q0.09375 -0.4375 0.203125 -0.890625l0.796875 -3.359375l1.09375 0l0.78125 3.359375q0.109375 0.46875 0.21875 0.890625q0.109375 0.421875 0.171875 0.890625l0.0625 0q0.078125 -0.46875 0.140625 -0.890625q0.0625 -0.421875 0.15625 -0.890625l0.765625 -3.765625l1.015625 0l-1.390625 6.484375l-1.40625 0l-0.75 -3.09375q-0.15625 -0.671875 -0.3125 -1.921875l-0.0625 0q-0.15625 1.25 -0.3125 1.921875l-0.71875 3.09375l-1.421875 0zm10.699982 0l0 -5.578125l-3.015625 0l0 -0.90625l4.09375 0l0 6.484375l-1.078125 0zm0.78125 -7.84375q-0.375 0 -0.625 -0.21875q-0.25 -0.234375 -0.25 -0.625q0 -0.390625 0.25 -0.625q0.25 -0.234375 0.625 -0.234375q0.375 0 0.625 0.234375q0.25 0.234375 0.25 0.625q0 0.390625 -0.25 0.625q-0.25 0.21875 -0.625 0.21875zm6.6062317 8.0q-0.6406555 0 -1.1562805 -0.21875q-0.5 -0.234375 -0.875 -0.65625q-0.375 -0.4375 -0.578125 -1.0625q-0.203125 -0.625 -0.203125 -1.4375q0 -0.796875 0.25 -1.421875q0.25 -0.640625 0.65625 -1.078125q0.40625 -0.4375 0.9375 -0.671875q0.53125 -0.25 1.1094055 -0.25q0.578125 0 1.03125 0.21875q0.46875 0.21875 0.890625 0.625l0.046875 0l-0.046875 -1.203125l0 -2.484375l1.078125 0l0 9.484375l-0.90625 0l-0.09375 -0.859375l-0.03125 0q-0.40625 0.421875 -0.953125 0.71875q-0.546875 0.296875 -1.15625 0.296875zm0.234375 -0.921875q0.953125 0 1.828125 -0.96875l0 -3.21875q-0.453125 -0.421875 -0.875 -0.59375q-0.40625 -0.171875 -0.84375 -0.171875q-0.421875 0 -0.7969055 0.1875q-0.359375 0.171875 -0.640625 0.5q-0.265625 0.328125 -0.421875 0.78125q-0.15625 0.453125 -0.15625 1.015625q0 1.171875 0.5 1.828125q0.5 0.640625 1.4062805 0.640625zm9.403076 0.921875q-0.703125 0 -1.1875 -0.1875q-0.484375 -0.203125 -0.78125 -0.546875q-0.28125 -0.359375 -0.40625 -0.84375q-0.125 -0.5 -0.125 -1.09375l0 -3.0625l-1.828125 0l0 -0.828125l1.859375 -0.078125l0.15625 -2.078125l0.90625 0l0 2.078125l3.1875 0l0 0.90625l-3.1875 0l0 3.078125q0 0.4375 0.078125 0.765625q0.078125 0.328125 0.265625 0.5625q0.1875 0.21875 0.5 0.328125q0.328125 0.109375 0.796875 0.109375q0.453125 0 0.828125 -0.078125q0.375 -0.078125 0.71875 -0.21875l0.25 0.796875q-0.4375 0.171875 -0.9375 0.28125q-0.484375 0.109375 -1.09375 0.109375zm3.9812317 -0.15625l0 -9.484375l1.09375 0l0 2.578125l-0.0625 1.53125l0.046875 0q0.5 -0.546875 1.078125 -0.90625q0.578125 -0.359375 1.34375 -0.359375q1.15625 0 1.6875 0.671875q0.546875 0.65625 0.546875 1.9375l0 4.03125l-1.09375 0l0 -3.875q0 -0.921875 -0.34375 -1.359375q-0.34375 -0.453125 -1.140625 -0.453125q-0.296875 0 -0.546875 0.078125q-0.25 0.0625 -0.484375 0.21875q-0.234375 0.140625 -0.5 0.359375q-0.25 0.21875 -0.53125 0.515625l0 4.515625l-1.09375 0z" fill-rule="nonzero"/></g></svg>