<svg version="1.1" viewBox="0.0 0.0 518.1732283464567 291.40157480314963" fill="none" stroke="none" stroke-linecap="square" stroke-miterlimit="10" xmlns:xlink="http://www.w3.org/1999/xlink" xmlns="http://www.w3.org/2000/svg"><clipPath id="p.0"><path d="m0 0l518.1732 0l0 291.40158l-518.1732 0l0 -291.40158z" clip-rule="nonzero"/></clipPath><g clip-path="url(#p.0)"><path fill="#000000" fill-opacity="0.0" d="m0 0l518.1732 0l0 291.40158l-518.1732 0z" fill-rule="evenodd"/><path fill="#000000" fill-opacity="0.0" d="m193.91864 18.897638l323.59058 0" fill-rule="evenodd"/><path stroke="#cccccc" stroke-width="1.0" stroke-linejoin="round" stroke-linecap="butt" d="m193.91864 18.897638l317.59055 0" fill-rule="evenodd"/><path fill="#cccccc" stroke="#cccccc" stroke-width="1.0" stroke-linecap="butt" d="m511.5092 20.54937l4.5381165 -1.6517315l-4.5381165 -1.6517334z" fill-rule="evenodd"/><path fill="#000000" fill-opacity="0.0" d="m80.53281 0l105.85828 0l0 37.795277l-105.85828 0z" fill-rule="evenodd"/><path fill="#000000" d="m99.22567 25.718887q-1.421875 0 -2.625 -0.40625q-1.1875 -0.421875 -2.09375 -1.21875q-0.90625 -0.796875 -1.40625 -1.953125q-0.5 -1.171875 -0.5 -2.65625q0 -1.484375 0.5625 -2.640625q0.5625 -1.171875 1.5 -1.96875q0.953125 -0.796875 2.203125 -1.203125q1.25 -0.421875 2.625 -0.421875q1.40625 0 2.546875 0.453125q1.140625 0.453125 1.90625 1.15625l-1.625 2.171875q-1.3125 -0.9375 -2.640625 -0.9375q-1.53125 0 -2.5 0.921875q-0.953125 0.90625 -0.953125 2.46875q0 1.5625 0.921875 2.484375q0.921875 0.90625 2.40625 0.90625q0.9375 0 1.71875 -0.328125q0.78125 -0.34375 1.4375 -0.8125l1.40625 2.234375q-1.078125 0.921875 -2.375 1.34375q-1.296875 0.40625 -2.515625 0.40625zm15.649963 0q-2.265625 0 -3.40625 -1.328125q-1.140625 -1.328125 -1.140625 -3.609375l0 -9.390625l-3.734375 0l0 -2.78125l7.265625 0l0 12.3125q0 0.5625 0.15625 0.9375q0.15625 0.359375 0.4375 0.59375q0.28125 0.21875 0.625 0.328125q0.34375 0.09375 0.734375 0.09375q0.40625 0 0.84375 -0.078125q0.453125 -0.09375 1.0 -0.3125l0.796875 2.59375q-0.484375 0.140625 -0.890625 0.265625q-0.40625 0.125 -0.828125 0.203125q-0.40625 0.078125 -0.859375 0.125q-0.453125 0.046875 -1.0 0.046875zm11.587463 -0.28125l0 -9.140625l-4.78125 0l0 -2.765625l8.312508 0l0 11.90625l-3.5312576 0zm1.53125 -13.78125q-1.03125 0 -1.703125 -0.5625q-0.65625 -0.578125 -0.65625 -1.5625q0 -0.984375 0.65625 -1.59375q0.671875 -0.625 1.703125 -0.625q1.0312576 0 1.6875076 0.625q0.65625 0.609375 0.65625 1.59375q0 0.984375 -0.65625 1.5625q-0.65625 0.5625 -1.6875076 0.5625zm14.431221 14.0625q-1.421875 0 -2.625 -0.40625q-1.1875 -0.421875 -2.09375 -1.21875q-0.90625 -0.796875 -1.40625 -1.953125q-0.5 -1.171875 -0.5 -2.65625q0 -1.484375 0.5625 -2.640625q0.5625 -1.171875 1.5 -1.96875q0.953125 -0.796875 2.203125 -1.203125q1.25 -0.421875 2.625 -0.421875q1.40625 0 2.546875 0.453125q1.140625 0.453125 1.90625 1.15625l-1.625 2.171875q-1.3125 -0.9375 -2.640625 -0.9375q-1.53125 0 -2.5 0.921875q-0.953125 0.90625 -0.953125 2.46875q0 1.5625 0.921875 2.484375q0.921875 0.90625 2.40625 0.90625q0.9375 0 1.71875 -0.328125q0.78125 -0.34375 1.4375 -0.8125l1.40625 2.234375q-1.078125 0.921875 -2.375 1.34375q-1.296875 0.40625 -2.515625 0.40625zm7.9937134 -0.28125l0 -16.828125l3.53125 0l0 9.71875l0.09375 0l4.359375 -4.796875l3.875 0l-4.546875 4.84375l4.90625 7.0625l-3.828125 0l-3.109375 -4.875l-1.75 1.875l0 3.0l-3.53125 0zm14.103088 -2.765625l1.546875 -2.390625q1.140625 0.6875 2.15625 1.09375q1.03125 0.390625 2.1875 0.390625q0.859375 0 1.3125 -0.28125q0.453125 -0.296875 0.453125 -0.796875q0 -0.5 -0.515625 -0.828125q-0.515625 -0.34375 -1.296875 -0.65625q-0.78125 -0.3125 -1.6875 -0.640625q-0.90625 -0.34375 -1.6875 -0.84375q-0.78125 -0.515625 -1.296875 -1.25q-0.515625 -0.75 -0.515625 -1.859375q0 -1.5625 1.046875 -2.59375q1.0625 -1.03125 2.890625 -1.3125l0 -3.140625l2.34375 0l0 3.109375q1.25 0.171875 2.171875 0.6875q0.921875 0.515625 1.671875 1.28125l-1.75 2.015625q-0.84375 -0.59375 -1.609375 -0.890625q-0.75 -0.296875 -1.734375 -0.296875q-1.65625 0 -1.65625 1.09375q0 0.4375 0.515625 0.734375q0.515625 0.28125 1.296875 0.578125q0.78125 0.28125 1.671875 0.625q0.90625 0.328125 1.6875 0.84375q0.78125 0.515625 1.296875 1.265625q0.515625 0.734375 0.515625 1.8125q0 1.515625 -1.03125 2.640625q-1.03125 1.109375 -3.046875 1.4375l0 3.578125l-2.34375 0l0 -3.5q-1.1875 -0.125 -2.4375 -0.609375q-1.234375 -0.5 -2.15625 -1.296875z" fill-rule="nonzero"/><path fill="#cccccc" d="m231.71391 0l37.795273 0l0 37.795277l-37.795273 0z" fill-rule="evenodd"/><path fill="#ffffff" d="m193.91864 84.43097l323.59058 0l0 37.795273l-323.59058 0z" fill-rule="evenodd"/><path stroke="#cccccc" stroke-width="1.0" stroke-linejoin="round" stroke-linecap="butt" d="m193.91864 84.43097l323.59058 0l0 37.795273l-323.59058 0z" fill-rule="evenodd"/><path fill="#000000" d="m247.9517 112.14986q-1.71875 0 -3.1875 -0.53125q-1.46875 -0.546875 -2.546875 -1.28125l0.90625 -1.296875q1.015625 0.71875 2.21875 1.15625q1.21875 0.421875 2.859375 0.421875q1.484375 0 2.203125 -0.53125q0.734375 -0.546875 0.734375 -1.296875q0 -0.328125 -0.125 -0.609375q-0.109375 -0.296875 -0.515625 -0.5625q-0.390625 -0.265625 -1.109375 -0.5q-0.71875 -0.234375 -1.890625 -0.484375q-2.28125 -0.484375 -3.421875 -1.28125q-1.140625 -0.796875 -1.140625 -2.125q0 -0.703125 0.3125 -1.3125q0.3125 -0.609375 0.921875 -1.046875q0.609375 -0.453125 1.515625 -0.703125q0.90625 -0.25 2.09375 -0.25q1.34375 0 2.59375 0.453125q1.25 0.4375 2.109375 1.03125l-0.953125 1.28125q-0.8125 -0.5625 -1.796875 -0.890625q-0.984375 -0.34375 -2.109375 -0.34375q-1.5 0 -2.09375 0.515625q-0.59375 0.5 -0.59375 1.171875q0 0.765625 0.78125 1.171875q0.796875 0.390625 2.59375 0.765625q1.46875 0.3125 2.40625 0.671875q0.9375 0.34375 1.46875 0.78125q0.546875 0.421875 0.75 0.953125q0.203125 0.53125 0.203125 1.203125q0 0.71875 -0.34375 1.34375q-0.328125 0.625 -1.0 1.109375q-0.65625 0.46875 -1.625 0.734375q-0.96875 0.28125 -2.21875 0.28125zm15.259323 0q-1.359375 0 -2.53125 -0.40625q-1.15625 -0.40625 -2.03125 -1.1875q-0.859375 -0.78125 -1.34375 -1.921875q-0.46875 -1.140625 -0.46875 -2.578125q0 -1.453125 0.515625 -2.59375q0.515625 -1.140625 1.40625 -1.9375q0.890625 -0.796875 2.078125 -1.203125q1.1875 -0.40625 2.5 -0.40625q1.4375 0 2.484375 0.515625q1.046875 0.5 1.765625 1.1875l-0.984375 1.28125q-0.71875 -0.625 -1.5 -0.984375q-0.78125 -0.359375 -1.6875 -0.359375q-1.015625 0 -1.859375 0.328125q-0.828125 0.3125 -1.421875 0.921875q-0.59375 0.59375 -0.9375 1.421875q-0.328125 0.828125 -0.328125 1.828125q0 1.015625 0.328125 1.828125q0.328125 0.8125 0.90625 1.40625q0.59375 0.59375 1.421875 0.921875q0.828125 0.3125 1.84375 0.3125q1.078125 0 1.96875 -0.421875q0.90625 -0.421875 1.625 -1.046875l0.890625 1.28125q-0.984375 0.859375 -2.171875 1.34375q-1.171875 0.46875 -2.46875 0.46875zm12.009338 0q-0.8125 0 -1.546875 -0.234375q-0.71875 -0.21875 -1.265625 -0.640625q-0.53125 -0.421875 -0.84375 -1.03125q-0.3125 -0.609375 -0.3125 -1.40625q0 -0.984375 0.46875 -1.703125q0.46875 -0.734375 1.484375 -1.265625q1.03125 -0.53125 2.640625 -0.859375q1.609375 -0.34375 3.859375 -0.53125q-0.015625 -0.59375 -0.1875 -1.125q-0.171875 -0.53125 -0.53125 -0.921875q-0.359375 -0.40625 -0.953125 -0.640625q-0.578125 -0.234375 -1.421875 -0.234375q-1.15625 0 -2.21875 0.4375q-1.046875 0.4375 -1.859375 0.953125l-0.765625 -1.34375q0.421875 -0.296875 1.015625 -0.59375q0.59375 -0.296875 1.25 -0.53125q0.65625 -0.25 1.390625 -0.40625q0.75 -0.15625 1.515625 -0.15625q2.40625 0 3.5625 1.3125q1.171875 1.296875 1.171875 3.484375l0 7.15625l-1.609375 0l-0.171875 -1.578125l-0.0625 0q-0.984375 0.765625 -2.171875 1.3125q-1.1875 0.546875 -2.4375 0.546875zm0.53125 -1.578125q1.0 0 1.96875 -0.4375q0.984375 -0.453125 1.984375 -1.296875l0 -3.0625q-1.875 0.140625 -3.140625 0.40625q-1.25 0.265625 -2.015625 0.640625q-0.75 0.359375 -1.0625 0.828125q-0.3125 0.46875 -0.3125 1.046875q0 0.515625 0.21875 0.859375q0.21875 0.34375 0.5625 0.578125q0.34375 0.21875 0.8125 0.328125q0.46875 0.109375 0.984375 0.109375zm10.196838 1.296875l0 -11.65625l1.625 0l0.171875 1.984375l0.09375 0q0.921875 -0.984375 1.96875 -1.625q1.0625 -0.65625 2.421875 -0.65625q2.09375 0 3.0625 1.1875q0.96875 1.1875 0.96875 3.515625l0 7.25l-1.96875 0l0 -6.984375q0 -1.65625 -0.625 -2.453125q-0.609375 -0.8125 -2.0625 -0.8125q-0.515625 0 -0.96875 0.140625q-0.4375 0.125 -0.875 0.390625q-0.4375 0.265625 -0.890625 0.671875q-0.453125 0.390625 -0.953125 0.90625l0 8.140625l-1.96875 0zm22.556213 4.21875q-2.5 -1.9375 -3.953125 -4.671875q-1.453125 -2.734375 -1.453125 -6.21875q0 -3.484375 1.453125 -6.21875q1.453125 -2.734375 3.953125 -4.671875l1.078125 1.0q-2.421875 2.046875 -3.5625 4.453125q-1.140625 2.390625 -1.140625 5.4375q0 3.046875 1.140625 5.453125q1.140625 2.390625 3.5625 4.4375l-1.078125 1.0zm9.915588 -3.9375q-0.8125 0 -1.546875 -0.234375q-0.71875 -0.21875 -1.265625 -0.640625q-0.53125 -0.421875 -0.84375 -1.03125q-0.3125 -0.609375 -0.3125 -1.40625q0 -0.984375 0.46875 -1.703125q0.46875 -0.734375 1.484375 -1.265625q1.03125 -0.53125 2.640625 -0.859375q1.609375 -0.34375 3.859375 -0.53125q-0.015625 -0.59375 -0.1875 -1.125q-0.171875 -0.53125 -0.53125 -0.921875q-0.359375 -0.40625 -0.953125 -0.640625q-0.578125 -0.234375 -1.421875 -0.234375q-1.15625 0 -2.21875 0.4375q-1.046875 0.4375 -1.859375 0.953125l-0.765625 -1.34375q0.421875 -0.296875 1.015625 -0.59375q0.59375 -0.296875 1.25 -0.53125q0.65625 -0.25 1.390625 -0.40625q0.75 -0.15625 1.515625 -0.15625q2.40625 0 3.5625 1.3125q1.171875 1.296875 1.171875 3.484375l0 7.15625l-1.609375 0l-0.171875 -1.578125l-0.0625 0q-0.984375 0.765625 -2.171875 1.3125q-1.1875 0.546875 -2.4375 0.546875zm0.53125 -1.578125q1.0 0 1.96875 -0.4375q0.984375 -0.453125 1.984375 -1.296875l0 -3.0625q-1.875 0.140625 -3.140625 0.40625q-1.25 0.265625 -2.015625 0.640625q-0.75 0.359375 -1.0625 0.828125q-0.3125 0.46875 -0.3125 1.046875q0 0.515625 0.21875 0.859375q0.21875 0.34375 0.5625 0.578125q0.34375 0.21875 0.8125 0.328125q0.46875 0.109375 0.984375 0.109375zm24.409302 -8.875l0 -1.484375l10.3125 0l0 1.484375l-10.3125 0zm0 6.0l0 -1.484375l10.3125 0l0 1.484375l-10.3125 0zm14.915588 3.015625l0 -1.890625l7.234375 -4.875l0 -0.09375l-7.234375 -4.875l0 -1.890625l8.953125 6.0625l0 1.5l-8.953125 6.0625zm32.643677 -1.34375l0 -4.671875l-4.359375 0l0 -1.484375l4.359375 0l0 -4.6875l1.578125 0l0 4.6875l4.375 0l0 1.484375l-4.375 0l0 4.671875l-1.578125 0zm14.399963 0l0 -4.671875l-4.359375 0l0 -1.484375l4.359375 0l0 -4.6875l1.578125 0l0 4.6875l4.375 0l0 1.484375l-4.375 0l0 4.671875l-1.578125 0zm13.899963 2.78125q-0.8125 0 -1.546875 -0.234375q-0.71875 -0.21875 -1.265625 -0.640625q-0.53125 -0.421875 -0.84375 -1.03125q-0.3125 -0.609375 -0.3125 -1.40625q0 -0.984375 0.46875 -1.703125q0.46875 -0.734375 1.484375 -1.265625q1.03125 -0.53125 2.640625 -0.859375q1.609375 -0.34375 3.859375 -0.53125q-0.015625 -0.59375 -0.1875 -1.125q-0.171875 -0.53125 -0.53125 -0.921875q-0.359375 -0.40625 -0.953125 -0.640625q-0.578125 -0.234375 -1.421875 -0.234375q-1.15625 0 -2.21875 0.4375q-1.046875 0.4375 -1.859375 0.953125l-0.765625 -1.34375q0.421875 -0.296875 1.015625 -0.59375q0.59375 -0.296875 1.25 -0.53125q0.65625 -0.25 1.390625 -0.40625q0.75 -0.15625 1.515625 -0.15625q2.40625 0 3.5625 1.3125q1.171875 1.296875 1.171875 3.484375l0 7.15625l-1.609375 0l-0.171875 -1.578125l-0.0625 0q-0.984375 0.765625 -2.171875 1.3125q-1.1875 0.546875 -2.4375 0.546875zm0.53125 -1.578125q1.0 0 1.96875 -0.4375q0.984375 -0.453125 1.984375 -1.296875l0 -3.0625q-1.875 0.140625 -3.140625 0.40625q-1.25 0.265625 -2.015625 0.640625q-0.75 0.359375 -1.0625 0.828125q-0.3125 0.46875 -0.3125 1.046875q0 0.515625 0.21875 0.859375q0.21875 0.34375 0.5625 0.578125q0.34375 0.21875 0.8125 0.328125q0.46875 0.109375 0.984375 0.109375zm13.243713 6.40625l-0.546875 -1.25q1.484375 -0.671875 2.21875 -1.625q0.75 -0.9375 0.796875 -2.375q-0.125 0.046875 -0.234375 0.046875q-0.09375 0 -0.21875 0q-0.765625 0 -1.328125 -0.4375q-0.546875 -0.453125 -0.546875 -1.359375q0 -0.890625 0.578125 -1.359375q0.578125 -0.46875 1.34375 -0.46875q1.078125 0 1.609375 0.828125q0.546875 0.828125 0.546875 2.25q0 2.109375 -1.125 3.5625q-1.109375 1.453125 -3.09375 2.1875zm16.321838 -4.828125q-2.578125 0 -4.046875 -2.0625q-1.453125 -2.078125 -1.453125 -5.921875q0 -3.859375 1.453125 -5.875q1.46875 -2.015625 4.046875 -2.015625q2.5625305 0 4.0312805 2.015625q1.46875 2.015625 1.46875 5.875q0 3.84375 -1.46875 5.921875q-1.46875 2.0625 -4.0312805 2.0625zm0 -1.578125q1.6094055 0 2.6250305 -1.5625q1.015625 -1.5625 1.015625 -4.84375q0 -1.65625 -0.265625 -2.84375q-0.265625 -1.1875 -0.75 -1.96875q-0.484375 -0.78125 -1.171875 -1.140625q-0.671875 -0.359375 -1.4531555 -0.359375q-0.796875 0 -1.46875 0.359375q-0.671875 0.359375 -1.171875 1.140625q-0.484375 0.78125 -0.75 1.96875q-0.265625 1.1875 -0.265625 2.84375q0 3.28125 1.015625 4.84375q1.03125 1.5625 2.640625 1.5625zm0 -4.96875q-0.609375 0 -1.046875 -0.421875q-0.4375 -0.421875 -0.4375 -1.1875q0 -0.734375 0.4375 -1.15625q0.4375 -0.421875 1.046875 -0.421875q0.59375 0 1.0312805 0.421875q0.453125 0.421875 0.453125 1.15625q0 0.765625 -0.453125 1.1875q-0.43753052 0.421875 -1.0312805 0.421875zm11.212494 10.484375l-1.09375 -1.0q2.4375 -2.046875 3.5625 -4.4375q1.140625 -2.40625 1.140625 -5.453125q0 -3.046875 -1.140625 -5.4375q-1.125 -2.40625 -3.5625 -4.453125l1.09375 -1.0q2.484375 1.9375 3.9375 4.671875q1.453125 2.734375 1.453125 6.21875q0 3.484375 -1.453125 6.21875q-1.453125 2.734375 -3.9375 4.671875z" fill-rule="nonzero"/><path fill="#000000" fill-opacity="0.0" d="m0 84.43044l193.95276 0l0 37.79528l-193.95276 0z" fill-rule="evenodd"/><path fill="#000000" d="m48.390625 110.14933q-1.71875 0 -3.1875 -0.53125q-1.46875 -0.546875 -2.546875 -1.28125l0.90625 -1.296875q1.015625 0.71875 2.21875 1.15625q1.21875 0.421875 2.859375 0.421875q1.484375 0 2.203125 -0.53125q0.734375 -0.546875 0.734375 -1.296875q0 -0.328125 -0.125 -0.609375q-0.109375 -0.296875 -0.515625 -0.5625q-0.390625 -0.265625 -1.109375 -0.5q-0.71875 -0.234375 -1.890625 -0.484375q-2.28125 -0.484375 -3.421875 -1.28125q-1.140625 -0.796875 -1.140625 -2.125q0 -0.703125 0.3125 -1.3125q0.3125 -0.609375 0.921875 -1.046875q0.609375 -0.453125 1.515625 -0.703125q0.90625 -0.25 2.09375 -0.25q1.34375 0 2.59375 0.453125q1.25 0.4375 2.109375 1.03125l-0.953125 1.28125q-0.8125 -0.5625 -1.796875 -0.890625q-0.984375 -0.34375 -2.109375 -0.34375q-1.5 0 -2.09375 0.515625q-0.59375 0.5 -0.59375 1.171875q0 0.765625 0.78125 1.171875q0.796875 0.390625 2.59375 0.765625q1.46875 0.3125 2.40625 0.671875q0.9375 0.34375 1.46875 0.78125q0.546875 0.421875 0.75 0.953125q0.203125 0.53125 0.203125 1.203125q0 0.71875 -0.34375 1.34375q-0.328125 0.625 -1.0 1.109375q-0.65625 0.46875 -1.625 0.734375q-0.96875 0.28125 -2.21875 0.28125zm15.259338 0q-1.359375 0 -2.53125 -0.40625q-1.15625 -0.40625 -2.03125 -1.1875q-0.859375 -0.78125 -1.34375 -1.921875q-0.46875 -1.140625 -0.46875 -2.578125q0 -1.453125 0.515625 -2.59375q0.515625 -1.140625 1.40625 -1.9375q0.890625 -0.796875 2.078125 -1.203125q1.1875 -0.40625 2.5 -0.40625q1.4375 0 2.484375 0.515625q1.046875 0.5 1.765625 1.1875l-0.984375 1.28125q-0.71875 -0.625 -1.5 -0.984375q-0.78125 -0.359375 -1.6875 -0.359375q-1.015625 0 -1.859375 0.328125q-0.828125 0.3125 -1.421875 0.921875q-0.59375 0.59375 -0.9375 1.421875q-0.328125 0.828125 -0.328125 1.828125q0 1.015625 0.328125 1.828125q0.328125 0.8125 0.90625 1.40625q0.59375 0.59375 1.421875 0.921875q0.828125 0.3125 1.84375 0.3125q1.078125 0 1.96875 -0.421875q0.90625 -0.421875 1.625 -1.046875l0.890625 1.28125q-0.984375 0.859375 -2.171875 1.34375q-1.171875 0.46875 -2.46875 0.46875zm12.009338 0q-0.8125 0 -1.546875 -0.234375q-0.71875 -0.21875 -1.265625 -0.640625q-0.53125 -0.421875 -0.84375 -1.03125q-0.3125 -0.609375 -0.3125 -1.40625q0 -0.984375 0.46875 -1.703125q0.46875 -0.734375 1.484375 -1.265625q1.03125 -0.53125 2.640625 -0.859375q1.609375 -0.34375 3.859375 -0.53125q-0.015625 -0.59375 -0.1875 -1.125q-0.171875 -0.53125 -0.53125 -0.921875q-0.359375 -0.40625 -0.953125 -0.640625q-0.578125 -0.234375 -1.421875 -0.234375q-1.15625 0 -2.21875 0.4375q-1.046875 0.4375 -1.859375 0.953125l-0.765625 -1.34375q0.421875 -0.296875 1.015625 -0.59375q0.59375 -0.296875 1.25 -0.53125q0.65625 -0.25 1.390625 -0.40625q0.75 -0.15625 1.515625 -0.15625q2.40625 0 3.5625 1.3125q1.171875 1.296875 1.171875 3.484375l0 7.15625l-1.609375 0l-0.171875 -1.578125l-0.0625 0q-0.984375 0.765625 -2.171875 1.3125q-1.1875 0.546875 -2.4375 0.546875zm0.53125 -1.578125q1.0 0 1.96875 -0.4375q0.984375 -0.453125 1.984375 -1.296875l0 -3.0625q-1.875 0.140625 -3.140625 0.40625q-1.25 0.265625 -2.015625 0.640625q-0.75 0.359375 -1.0625 0.828125q-0.3125 0.46875 -0.3125 1.046875q0 0.515625 0.21875 0.859375q0.21875 0.34375 0.5625 0.578125q0.34375 0.21875 0.8125 0.328125q0.46875 0.109375 0.984375 0.109375zm10.196838 1.296875l0 -11.65625l1.625 0l0.171875 1.984375l0.09375 0q0.921875 -0.984375 1.96875 -1.625q1.0625 -0.65625 2.421875 -0.65625q2.09375 0 3.0625 1.1875q0.96875 1.1875 0.96875 3.515625l0 7.25l-1.96875 0l0 -6.984375q0 -1.65625 -0.625 -2.453125q-0.609375 -0.8125 -2.0625 -0.8125q-0.515625 0 -0.96875 0.140625q-0.4375 0.125 -0.875 0.390625q-0.4375 0.265625 -0.890625 0.671875q-0.453125 0.390625 -0.953125 0.90625l0 8.140625l-1.96875 0zm22.556213 4.21875q-2.5 -1.9375 -3.953125 -4.671875q-1.453125 -2.734375 -1.453125 -6.21875q0 -3.484375 1.453125 -6.21875q1.453125 -2.734375 3.953125 -4.671875l1.078125 1.0q-2.421875 2.046875 -3.5625 4.453125q-1.140625 2.390625 -1.140625 5.4375q0 3.046875 1.140625 5.453125q1.140625 2.390625 3.5625 4.4375l-1.078125 1.0zm9.821838 -4.21875l0 -10.0625l-3.34375 0l0 -1.484375l3.34375 -0.109375l0 -0.984375q0 -2.140625 1.140625 -3.4375q1.140625 -1.296875 3.5625 -1.296875q1.71875 0 3.359375 0.671875l-0.453125 1.484375q-0.71875 -0.328125 -1.34375 -0.4375q-0.609375 -0.109375 -1.375 -0.109375q-1.578125 0 -2.265625 0.8125q-0.6875 0.796875 -0.6875 2.234375l0 1.0625l4.890625 0l0 1.59375l-4.890625 0l0 10.0625l-1.9375 0zm10.821838 0l0 -11.65625l1.625 0l0.171875 1.984375l0.09375 0q0.921875 -0.984375 1.96875 -1.625q1.0625 -0.65625 2.421875 -0.65625q2.09375 0 3.0625 1.1875q0.96875 1.1875 0.96875 3.515625l0 7.25l-1.96875 0l0 -6.984375q0 -1.65625 -0.625 -2.453125q-0.609375 -0.8125 -2.0625 -0.8125q-0.515625 0 -0.96875 0.140625q-0.4375 0.125 -0.875 0.390625q-0.4375 0.265625 -0.890625 0.671875q-0.453125 0.390625 -0.953125 0.90625l0 8.140625l-1.96875 0zm17.446838 5.109375l-0.546875 -1.25q1.484375 -0.671875 2.21875 -1.625q0.75 -0.9375 0.796875 -2.375q-0.125 0.046875 -0.234375 0.046875q-0.09375 0 -0.21875 0q-0.765625 0 -1.328125 -0.4375q-0.546875 -0.453125 -0.546875 -1.359375q0 -0.890625 0.578125 -1.359375q0.578125 -0.46875 1.34375 -0.46875q1.078125 0 1.609375 0.828125q0.546875 0.828125 0.546875 2.25q0 2.109375 -1.125 3.5625q-1.109375 1.453125 -3.09375 2.1875zm16.556213 -4.828125q-1.71875 0 -3.1875 -0.53125q-1.46875 -0.546875 -2.546875 -1.28125l0.90625 -1.296875q1.015625 0.71875 2.21875 1.15625q1.21875 0.421875 2.859375 0.421875q1.484375 0 2.203125 -0.53125q0.734375 -0.546875 0.734375 -1.296875q0 -0.328125 -0.125 -0.609375q-0.109375 -0.296875 -0.515625 -0.5625q-0.390625 -0.265625 -1.109375 -0.5q-0.71875 -0.234375 -1.890625 -0.484375q-2.28125 -0.484375 -3.421875 -1.28125q-1.140625 -0.796875 -1.140625 -2.125q0 -0.703125 0.3125 -1.3125q0.3125 -0.609375 0.921875 -1.046875q0.609375 -0.453125 1.515625 -0.703125q0.90625 -0.25 2.09375 -0.25q1.34375 0 2.59375 0.453125q1.25 0.4375 2.109375 1.03125l-0.953125 1.28125q-0.8125 -0.5625 -1.796875 -0.890625q-0.984375 -0.34375 -2.109375 -0.34375q-1.5 0 -2.09375 0.515625q-0.59375 0.5 -0.59375 1.171875q0 0.765625 0.78125 1.171875q0.796875 0.390625 2.59375 0.765625q1.46875 0.3125 2.40625 0.671875q0.9375 0.34375 1.46875 0.78125q0.546875 0.421875 0.75 0.953125q0.203125 0.53125 0.203125 1.203125q0 0.71875 -0.34375 1.34375q-0.328125 0.625 -1.0 1.109375q-0.65625 0.46875 -1.625 0.734375q-0.96875 0.28125 -2.21875 0.28125zm10.978088 3.9375l-1.09375 -1.0q2.4375 -2.046875 3.5625 -4.4375q1.140625 -2.40625 1.140625 -5.453125q0 -3.046875 -1.140625 -5.4375q-1.125 -2.40625 -3.5625 -4.453125l1.09375 -1.0q2.484375 1.9375 3.9375 4.671875q1.453125 2.734375 1.453125 6.21875q0 3.484375 -1.453125 6.21875q-1.453125 2.734375 -3.9375 4.671875z" fill-rule="nonzero"/><path fill="#000000" fill-opacity="0.0" d="m209.80577 253.63411l22.897644 0l0 14.456711l-22.897644 0z" fill-rule="evenodd"/><path fill="#000000" d="m219.85265 265.66248l0 -1.59375l2.28125 0l0 -4.890625l-1.875 0l0 -1.203125q0.421875 -0.0625 0.765625 -0.140625q0.34375 -0.078125 0.625 -0.171875q0.28125 -0.09375 0.515625 -0.203125q0.25 -0.109375 0.5 -0.265625l1.4375 0l0 6.875l1.90625 0l0 1.59375l-6.15625 0z" fill-rule="nonzero"/><path fill="#000000" fill-opacity="0.0" d="m194.6273 272.53174l323.5905 0" fill-rule="evenodd"/><path stroke="#cccccc" stroke-width="1.0" stroke-linejoin="round" stroke-linecap="butt" d="m194.6273 272.53174l317.5905 0" fill-rule="evenodd"/><path fill="#cccccc" stroke="#cccccc" stroke-width="1.0" stroke-linecap="butt" d="m512.21783 274.18347l4.538086 -1.6517334l-4.538086 -1.6517334z" fill-rule="evenodd"/><path fill="#ffffff" d="m230.8687 253.63411l75.59056 0l0 37.795273l-75.59056 0z" fill-rule="evenodd"/><path stroke="#b7b7b7" stroke-width="1.0" stroke-linejoin="round" stroke-linecap="butt" stroke-dasharray="4.0,3.0" d="m230.8687 253.63411l75.59056 0l0 37.795273l-75.59056 0z" fill-rule="evenodd"/><path fill="#cccccc" d="m253.13583 279.45175l0 -3.28125l-6.125 0l0 -1.03125l5.9375 -7.59375l1.65625 0l0 7.390625l1.84375 0l0 1.234375l-1.84375 0l0 3.28125l-1.46875 0zm-4.4375 -4.515625l4.4375 0l0 -3.6875q0.03125 -0.484375 0.046875 -1.046875q0.015625 -0.578125 0.046875 -1.0625l-0.09375 0q-0.28125 0.421875 -0.59375 0.859375q-0.3125 0.4375 -0.609375 0.875l-3.234375 4.0625zm10.131256 4.515625l0 -0.921875q1.515625 -1.328125 2.671875 -2.40625q1.171875 -1.09375 1.96875 -2.0q0.796875 -0.90625 1.203125 -1.6875q0.40625 -0.78125 0.40625 -1.53125q0 -1.03125 -0.640625 -1.671875q-0.625 -0.65625 -1.953125 -0.65625q-0.84375 0 -1.5625 0.421875q-0.703125 0.421875 -1.28125 1.015625l-0.890625 -0.875q0.8125 -0.828125 1.734375 -1.3125q0.921875 -0.5 2.1875 -0.5q0.890625 0 1.609375 0.25q0.71875 0.25 1.21875 0.71875q0.515625 0.453125 0.78125 1.109375q0.265625 0.640625 0.265625 1.421875q0 0.84375 -0.40625 1.703125q-0.390625 0.84375 -1.125 1.75q-0.71875 0.90625 -1.734375 1.890625q-1.0 0.96875 -2.21875 2.0625q0.5625 -0.03125 1.125 -0.0625q0.5625 -0.046875 1.109375 -0.046875l3.90625 0l0 1.328125l-8.375 0zm10.912506 0l0 -9.0625l1.234375 0l0.125 1.1875l0.046875 0q0.34375 -0.625 0.8125 -1.015625q0.46875 -0.40625 1.25 -0.40625q1.328125 0 1.71875 1.578125q0.390625 -0.734375 0.859375 -1.15625q0.484375 -0.421875 1.265625 -0.421875q0.953125 0 1.484375 0.71875q0.53125 0.71875 0.53125 2.078125l0 6.5l-1.53125 0l0 -6.375q0 -1.59375 -0.96875 -1.59375q-0.484375 0 -0.78125 0.34375q-0.296875 0.34375 -0.671875 1.0625l0 6.5625l-1.421875 0l0 -6.375q0 -0.78125 -0.21875 -1.1875q-0.203125 -0.40625 -0.703125 -0.40625q-0.484375 0 -0.828125 0.34375q-0.328125 0.34375 -0.671875 1.0625l0 6.5625l-1.53125 0zm15.896881 0.21875q-1.34375 0 -2.484375 -0.40625q-1.125 -0.421875 -1.96875 -1.0l0.703125 -1.015625q0.78125 0.5625 1.71875 0.90625q0.953125 0.328125 2.21875 0.328125q1.15625 0 1.71875 -0.421875q0.578125 -0.421875 0.578125 -1.0q0 -0.265625 -0.09375 -0.484375q-0.09375 -0.21875 -0.40625 -0.421875q-0.296875 -0.203125 -0.859375 -0.390625q-0.5625 -0.1875 -1.484375 -0.375q-1.765625 -0.375 -2.65625 -1.0q-0.875 -0.625 -0.875 -1.65625q0 -0.53125 0.234375 -1.0q0.25 -0.484375 0.71875 -0.828125q0.484375 -0.359375 1.171875 -0.546875q0.703125 -0.203125 1.640625 -0.203125q1.046875 0 2.015625 0.359375q0.96875 0.34375 1.640625 0.796875l-0.75 1.0q-0.640625 -0.4375 -1.40625 -0.6875q-0.75 -0.265625 -1.640625 -0.265625q-1.15625 0 -1.625 0.390625q-0.453125 0.390625 -0.453125 0.90625q0 0.609375 0.609375 0.921875q0.625 0.296875 2.015625 0.59375q1.140625 0.25 1.859375 0.515625q0.734375 0.265625 1.15625 0.609375q0.421875 0.328125 0.578125 0.75q0.15625 0.40625 0.15625 0.921875q0 0.5625 -0.265625 1.046875q-0.25 0.484375 -0.765625 0.859375q-0.515625 0.375 -1.28125 0.578125q-0.75 0.21875 -1.71875 0.21875z" fill-rule="nonzero"/><path fill="#cccccc" d="m335.22586 253.63411l37.795288 0l0 37.795273l-37.795288 0z" fill-rule="evenodd"/><path fill="#cccccc" d="m231.71391 168.86194l37.795273 0l0 37.795273l-37.795273 0z" fill-rule="evenodd"/><path fill="#000000" d="m242.63107 181.80707l-1.71875 0l0 13.0625l1.71875 0l0 1.1875l-3.09375 0l0 -15.4375l3.09375 0l0 1.1875zm10.1015625 11.8125q-0.09375 -0.171875 -0.140625 -0.40625q-0.046875 -0.25 -0.078125 -0.515625q-0.21875 0.21875 -0.484375 0.421875q-0.265625 0.1875 -0.59375 0.34375q-0.328125 0.140625 -0.703125 0.21875q-0.359375 0.09375 -0.765625 0.09375q-0.671875 0 -1.21875 -0.1875q-0.546875 -0.203125 -0.921875 -0.53125q-0.375 -0.34375 -0.59375 -0.796875q-0.203125 -0.453125 -0.203125 -0.984375q0 -0.703125 0.28125 -1.21875q0.28125 -0.53125 0.78125 -0.875q0.515625 -0.34375 1.21875 -0.515625q0.71875 -0.171875 1.609375 -0.171875l1.578125 0l0 -0.671875q0 -0.375 -0.140625 -0.671875q-0.140625 -0.3125 -0.40625 -0.53125q-0.25 -0.21875 -0.625 -0.328125q-0.375 -0.125 -0.828125 -0.125q-0.4375 0 -0.78125 0.109375q-0.328125 0.109375 -0.5625 0.296875q-0.234375 0.171875 -0.375 0.421875q-0.125 0.25 -0.125 0.515625l-1.453125 0q0.015625 -0.46875 0.234375 -0.90625q0.234375 -0.453125 0.671875 -0.796875q0.4375 -0.359375 1.046875 -0.578125q0.625 -0.21875 1.421875 -0.21875q0.71875 0 1.328125 0.171875q0.625 0.171875 1.0625 0.53125q0.453125 0.359375 0.703125 0.890625q0.265625 0.53125 0.265625 1.234375l0 3.9375q0 0.421875 0.078125 0.890625q0.078125 0.46875 0.21875 0.828125l0 0.125l-1.5 0zm-2.5625 -1.109375q0.421875 0 0.78125 -0.109375q0.375 -0.109375 0.671875 -0.28125q0.3125 -0.1875 0.53125 -0.40625q0.21875 -0.234375 0.34375 -0.484375l0 -1.71875l-1.34375 0q-1.265625 0 -1.96875 0.375q-0.703125 0.375 -0.703125 1.1875q0 0.3125 0.09375 0.578125q0.109375 0.265625 0.3125 0.453125q0.21875 0.1875 0.53125 0.296875q0.328125 0.109375 0.75 0.109375zm8.4140625 -11.890625l3.09375 0l0 15.4375l-3.09375 0l0 -1.1875l1.734375 0l0 -13.0625l-1.734375 0l0 -1.1875z" fill-rule="nonzero"/><path fill="#cccccc" d="m280.40683 168.86194l75.590546 0l0 37.795273l-75.590546 0z" fill-rule="evenodd"/><path fill="#000000" d="m291.0185 181.80707l-1.71875 0l0 13.0625l1.71875 0l0 1.1875l-3.09375 0l0 -15.4375l3.09375 0l0 1.1875zm9.2265625 11.8125l-1.4375 0l0 -9.53125l-2.984375 1.125l0 -1.3125l4.3125 -1.65625l0.109375 0l0 11.375zm8.5859375 -0.34375q0 0.375 -0.09375 0.78125q-0.09375 0.40625 -0.265625 0.796875q-0.171875 0.390625 -0.421875 0.75q-0.25 0.359375 -0.578125 0.640625l-0.90625 -0.484375q0.375 -0.546875 0.53125 -1.171875q0.15625 -0.609375 0.15625 -1.28125l0 -1.40625l1.578125 0l0 1.375zm12.9140625 0.34375l-7.453125 0l0 -1.046875l3.71875 -4.140625q0.5 -0.546875 0.828125 -0.96875q0.34375 -0.4375 0.546875 -0.796875q0.203125 -0.375 0.28125 -0.6875q0.09375 -0.328125 0.09375 -0.671875q0 -0.421875 -0.140625 -0.796875q-0.125 -0.375 -0.390625 -0.640625q-0.265625 -0.28125 -0.640625 -0.4375q-0.359375 -0.15625 -0.828125 -0.15625q-0.578125 0 -1.0 0.171875q-0.40625 0.15625 -0.6875 0.453125q-0.28125 0.296875 -0.421875 0.734375q-0.125 0.421875 -0.125 0.953125l-1.453125 0q0 -0.71875 0.25 -1.34375q0.25 -0.640625 0.71875 -1.109375q0.46875 -0.484375 1.15625 -0.765625q0.6875 -0.28125 1.5625 -0.28125q0.796875 0 1.4375 0.234375q0.65625 0.234375 1.09375 0.65625q0.453125 0.421875 0.6875 1.0q0.234375 0.578125 0.234375 1.265625q0 0.5 -0.171875 1.0q-0.171875 0.5 -0.46875 0.984375q-0.28125 0.484375 -0.671875 0.953125q-0.390625 0.46875 -0.8125 0.9375l-3.0625 3.3125l5.71875 0l0 1.1875zm6.2890625 -0.34375q0 0.375 -0.09375 0.78125q-0.09375 0.40625 -0.265625 0.796875q-0.171875 0.390625 -0.421875 0.75q-0.25 0.359375 -0.578125 0.640625l-0.90625 -0.484375q0.375 -0.546875 0.53125 -1.171875q0.15625 -0.609375 0.15625 -1.28125l0 -1.40625l1.578125 0l0 1.375zm7.6171875 -6.046875l1.03125 0q0.546875 0 0.96875 -0.140625q0.421875 -0.15625 0.703125 -0.40625q0.28125 -0.265625 0.421875 -0.625q0.15625 -0.359375 0.15625 -0.78125q0 -1.0 -0.515625 -1.5q-0.5 -0.5 -1.46875 -0.5q-0.46875 0 -0.84375 0.140625q-0.375 0.125 -0.65625 0.390625q-0.265625 0.25 -0.421875 0.609375q-0.140625 0.359375 -0.140625 0.8125l-1.453125 0q0 -0.65625 0.25 -1.21875q0.265625 -0.578125 0.71875 -1.0q0.46875 -0.4375 1.109375 -0.671875q0.640625 -0.25 1.4375 -0.25q0.765625 0 1.390625 0.203125q0.640625 0.203125 1.09375 0.609375q0.453125 0.40625 0.703125 1.015625q0.25 0.59375 0.25 1.390625q0 0.328125 -0.109375 0.6875q-0.09375 0.34375 -0.3125 0.671875q-0.203125 0.328125 -0.546875 0.625q-0.328125 0.296875 -0.78125 0.484375q0.546875 0.1875 0.921875 0.484375q0.375 0.28125 0.59375 0.640625q0.21875 0.359375 0.3125 0.765625q0.09375 0.390625 0.09375 0.78125q0 0.796875 -0.28125 1.421875q-0.265625 0.609375 -0.75 1.03125q-0.484375 0.421875 -1.15625 0.65625q-0.65625 0.21875 -1.421875 0.21875q-0.75 0 -1.40625 -0.203125q-0.65625 -0.21875 -1.140625 -0.625q-0.484375 -0.40625 -0.78125 -0.984375q-0.28125 -0.59375 -0.28125 -1.34375l1.453125 0q0 0.4375 0.140625 0.8125q0.15625 0.359375 0.4375 0.625q0.28125 0.25 0.6875 0.390625q0.40625 0.140625 0.890625 0.140625q0.5 0 0.890625 -0.125q0.40625 -0.125 0.6875 -0.390625q0.28125 -0.265625 0.421875 -0.65625q0.15625 -0.40625 0.15625 -0.9375q0 -0.53125 -0.171875 -0.921875q-0.171875 -0.390625 -0.5 -0.640625q-0.3125 -0.265625 -0.765625 -0.390625q-0.4375 -0.125 -0.984375 -0.125l-1.03125 0l0 -1.171875zm9.7265625 -6.609375l3.09375 0l0 15.4375l-3.09375 0l0 -1.1875l1.734375 0l0 -13.0625l-1.734375 0l0 -1.1875z" fill-rule="nonzero"/><path fill="#000000" fill-opacity="0.0" d="m193.91864 187.75958l323.59058 0" fill-rule="evenodd"/><path stroke="#cccccc" stroke-width="1.0" stroke-linejoin="round" stroke-linecap="butt" d="m193.91864 187.75958l317.59055 0" fill-rule="evenodd"/><path fill="#cccccc" stroke="#cccccc" stroke-width="1.0" stroke-linecap="butt" d="m511.5092 189.41132l4.5381165 -1.6517334l-4.5381165 -1.6517334z" fill-rule="evenodd"/><path fill="#cccccc" d="m231.71391 169.20314l37.795273 0l0 37.795288l-37.795273 0z" fill-rule="evenodd"/><path fill="#000000" d="m239.80527 196.39828l0 -13.765625l4.4375 0l0 0.75l-3.375 0l0 12.265625l3.375 0l0 0.75l-4.4375 0zm9.943771 -2.25q-0.546875 0 -1.03125 -0.15625q-0.46875 -0.140625 -0.828125 -0.421875q-0.359375 -0.28125 -0.578125 -0.6875q-0.203125 -0.40625 -0.203125 -0.9375q0 -0.65625 0.3125 -1.140625q0.3125 -0.484375 0.984375 -0.84375q0.6875 -0.359375 1.75 -0.578125q1.078125 -0.21875 2.578125 -0.34375q-0.015625 -0.40625 -0.125 -0.75q-0.109375 -0.359375 -0.359375 -0.625q-0.234375 -0.265625 -0.625 -0.421875q-0.390625 -0.15625 -0.953125 -0.15625q-0.765625 0 -1.46875 0.296875q-0.703125 0.296875 -1.25 0.625l-0.515625 -0.890625q0.296875 -0.203125 0.6875 -0.390625q0.390625 -0.203125 0.828125 -0.359375q0.4375 -0.171875 0.9375 -0.265625q0.5 -0.109375 1.015625 -0.109375q1.59375 0 2.359375 0.875q0.78125 0.875 0.78125 2.328125l0 4.765625l-1.0625 0l-0.109375 -1.0625l-0.046875 0q-0.65625 0.515625 -1.453125 0.890625q-0.796875 0.359375 -1.625 0.359375zm0.34375 -1.046875q0.671875 0 1.3125 -0.296875q0.65625 -0.296875 1.328125 -0.859375l0 -2.046875q-1.234375 0.09375 -2.078125 0.28125q-0.84375 0.171875 -1.359375 0.421875q-0.5 0.234375 -0.703125 0.546875q-0.203125 0.3125 -0.203125 0.703125q0 0.328125 0.140625 0.5625q0.140625 0.234375 0.375 0.390625q0.234375 0.140625 0.546875 0.21875q0.3125 0.078125 0.640625 0.078125zm6.8812714 3.296875l0 -0.75l3.375 0l0 -12.265625l-3.375 0l0 -0.75l4.4375 0l0 13.765625l-4.4375 0z" fill-rule="nonzero"/><path fill="#cccccc" d="m280.40683 169.20314l75.590546 0l0 37.795288l-75.590546 0z" fill-rule="evenodd"/><path fill="#000000" d="m288.19577 196.39828l0 -13.765625l4.4375 0l0 0.75l-3.375 0l0 12.265625l3.375 0l0 0.75l-4.4375 0zm7.5531616 -2.4375l0 -1.09375l2.953125 0l0 -7.515625l-2.296875 0l0 -0.84375q0.921875 -0.125 1.53125 -0.296875q0.609375 -0.1875 1.09375 -0.453125l0.984375 0l0 9.109375l2.671875 0l0 1.09375l-6.9375 0zm11.568756 3.40625l-0.359375 -0.828125q0.984375 -0.453125 1.484375 -1.09375q0.5 -0.625 0.53125 -1.578125q-0.078125 0.03125 -0.15625 0.03125q-0.078125 0 -0.15625 0q-0.5 0 -0.875 -0.296875q-0.375 -0.296875 -0.375 -0.90625q0 -0.59375 0.390625 -0.90625q0.390625 -0.3125 0.890625 -0.3125q0.71875 0 1.078125 0.5625q0.375 0.546875 0.375 1.484375q0 1.40625 -0.75 2.375q-0.75 0.96875 -2.078125 1.46875zm7.2562866 -3.40625l0 -0.78125q1.296875 -1.15625 2.296875 -2.078125q1.0 -0.9375 1.671875 -1.703125q0.6875 -0.78125 1.03125 -1.453125q0.359375 -0.671875 0.359375 -1.3125q0 -0.875 -0.546875 -1.4375q-0.546875 -0.5625 -1.6875 -0.5625q-0.71875 0 -1.328125 0.359375q-0.609375 0.359375 -1.109375 0.875l-0.75 -0.75q0.6875 -0.703125 1.46875 -1.125q0.796875 -0.4375 1.890625 -0.4375q0.765625 0 1.375 0.21875q0.625 0.21875 1.046875 0.609375q0.4375 0.390625 0.671875 0.953125q0.234375 0.5625 0.234375 1.234375q0 0.71875 -0.34375 1.453125q-0.34375 0.71875 -0.96875 1.5q-0.625 0.78125 -1.5 1.625q-0.859375 0.828125 -1.890625 1.765625q0.46875 -0.03125 0.953125 -0.0625q0.484375 -0.03125 0.9375 -0.03125l3.375 0l0 1.140625l-7.1875 0zm11.943756 3.40625l-0.359375 -0.828125q0.984375 -0.453125 1.484375 -1.09375q0.5 -0.625 0.53125 -1.578125q-0.078125 0.03125 -0.15625 0.03125q-0.078125 0 -0.15625 0q-0.5 0 -0.875 -0.296875q-0.375 -0.296875 -0.375 -0.90625q0 -0.59375 0.390625 -0.90625q0.390625 -0.3125 0.890625 -0.3125q0.71875 0 1.078125 0.5625q0.375 0.546875 0.375 1.484375q0 1.40625 -0.75 2.375q-0.75 0.96875 -2.078125 1.46875zm10.678162 -3.21875q-1.328125 0 -2.234375 -0.4375q-0.890625 -0.4375 -1.453125 -1.0l0.671875 -0.859375q0.515625 0.484375 1.21875 0.859375q0.71875 0.359375 1.71875 0.359375q0.53125 0 0.96875 -0.140625q0.453125 -0.140625 0.78125 -0.375q0.328125 -0.234375 0.5 -0.578125q0.1875 -0.359375 0.1875 -0.78125q0 -0.453125 -0.203125 -0.828125q-0.1875 -0.375 -0.640625 -0.640625q-0.453125 -0.28125 -1.15625 -0.421875q-0.703125 -0.140625 -1.703125 -0.140625l0 -1.015625q0.90625 0 1.53125 -0.140625q0.640625 -0.140625 1.03125 -0.390625q0.40625 -0.265625 0.59375 -0.609375q0.1875 -0.359375 0.1875 -0.765625q0 -0.75 -0.578125 -1.171875q-0.5625 -0.4375 -1.5 -0.4375q-0.71875 0 -1.359375 0.296875q-0.640625 0.28125 -1.15625 0.75l-0.703125 -0.84375q0.640625 -0.5625 1.453125 -0.921875q0.8125 -0.359375 1.8125 -0.359375q0.71875 0 1.328125 0.1875q0.625 0.171875 1.078125 0.5q0.453125 0.328125 0.703125 0.8125q0.265625 0.46875 0.265625 1.09375q0 0.9375 -0.609375 1.53125q-0.609375 0.578125 -1.5625 0.90625l0 0.0625q0.5 0.109375 0.953125 0.328125q0.46875 0.21875 0.8125 0.546875q0.359375 0.328125 0.546875 0.765625q0.203125 0.421875 0.203125 0.953125q0 0.671875 -0.28125 1.21875q-0.28125 0.546875 -0.796875 0.921875q-0.5 0.375 -1.171875 0.578125q-0.671875 0.1875 -1.4375 0.1875zm6.568756 2.25l0 -0.75l3.375 0l0 -12.265625l-3.375 0l0 -0.75l4.4375 0l0 13.765625l-4.4375 0z" fill-rule="nonzero"/><path fill="#ffffff" d="m372.34622 169.03293l75.590546 0l0 37.795288l-75.590546 0z" fill-rule="evenodd"/><path stroke="#b7b7b7" stroke-width="1.0" stroke-linejoin="round" stroke-linecap="butt" stroke-dasharray="4.0,3.0" d="m372.34622 169.03293l75.590546 0l0 37.795288l-75.590546 0z" fill-rule="evenodd"/><path fill="#000000" d="m394.61337 194.85057l0 -3.28125l-6.125 0l0 -1.03125l5.9375 -7.59375l1.65625 0l0 7.390625l1.84375 0l0 1.234375l-1.84375 0l0 3.28125l-1.46875 0zm-4.4375 -4.515625l4.4375 0l0 -3.6875q0.03125 -0.484375 0.046875 -1.046875q0.015625 -0.578125 0.046875 -1.0625l-0.09375 0q-0.28125 0.421875 -0.59375 0.859375q-0.3125 0.4375 -0.609375 0.875l-3.234375 4.0625zm10.131256 4.515625l0 -0.921875q1.515625 -1.328125 2.671875 -2.40625q1.171875 -1.09375 1.96875 -2.0q0.796875 -0.90625 1.203125 -1.6875q0.40625 -0.78125 0.40625 -1.53125q0 -1.03125 -0.640625 -1.671875q-0.625 -0.65625 -1.953125 -0.65625q-0.84375 0 -1.5625 0.421875q-0.703125 0.421875 -1.28125 1.015625l-0.890625 -0.875q0.8125 -0.828125 1.734375 -1.3125q0.921875 -0.5 2.1875 -0.5q0.890625 0 1.609375 0.25q0.71875 0.25 1.21875 0.71875q0.515625 0.453125 0.78125 1.109375q0.265625 0.640625 0.265625 1.421875q0 0.84375 -0.40625 1.703125q-0.390625 0.84375 -1.125 1.75q-0.71875 0.90625 -1.734375 1.890625q-1.0 0.96875 -2.21875 2.0625q0.5625 -0.03125 1.125 -0.0625q0.5625 -0.046875 1.109375 -0.046875l3.90625 0l0 1.328125l-8.375 0zm10.912506 0l0 -9.0625l1.234375 0l0.125 1.1875l0.046875 0q0.34375 -0.625 0.8125 -1.015625q0.46875 -0.40625 1.25 -0.40625q1.328125 0 1.71875 1.578125q0.390625 -0.734375 0.859375 -1.15625q0.484375 -0.421875 1.265625 -0.421875q0.953125 0 1.484375 0.71875q0.53125 0.71875 0.53125 2.078125l0 6.5l-1.53125 0l0 -6.375q0 -1.59375 -0.96875 -1.59375q-0.484375 0 -0.78125 0.34375q-0.296875 0.34375 -0.671875 1.0625l0 6.5625l-1.421875 0l0 -6.375q0 -0.78125 -0.21875 -1.1875q-0.203125 -0.40625 -0.703125 -0.40625q-0.484375 0 -0.828125 0.34375q-0.328125 0.34375 -0.671875 1.0625l0 6.5625l-1.53125 0zm15.896881 0.21875q-1.34375 0 -2.484375 -0.40625q-1.125 -0.421875 -1.96875 -1.0l0.703125 -1.015625q0.78125 0.5625 1.71875 0.90625q0.953125 0.328125 2.21875 0.328125q1.15625 0 1.71875 -0.421875q0.578125 -0.421875 0.578125 -1.0q0 -0.265625 -0.09375 -0.484375q-0.09375 -0.21875 -0.40625 -0.421875q-0.296875 -0.203125 -0.859375 -0.390625q-0.5625 -0.1875 -1.484375 -0.375q-1.765625 -0.375 -2.65625 -1.0q-0.875 -0.625 -0.875 -1.65625q0 -0.53125 0.234375 -1.0q0.25 -0.484375 0.71875 -0.828125q0.484375 -0.359375 1.171875 -0.546875q0.703125 -0.203125 1.640625 -0.203125q1.046875 0 2.015625 0.359375q0.96875 0.34375 1.640625 0.796875l-0.75 1.0q-0.640625 -0.4375 -1.40625 -0.6875q-0.75 -0.265625 -1.640625 -0.265625q-1.15625 0 -1.625 0.390625q-0.453125 0.390625 -0.453125 0.90625q0 0.609375 0.609375 0.921875q0.625 0.296875 2.015625 0.59375q1.140625 0.25 1.859375 0.515625q0.734375 0.265625 1.15625 0.609375q0.421875 0.328125 0.578125 0.75q0.15625 0.40625 0.15625 0.921875q0 0.5625 -0.265625 1.046875q-0.25 0.484375 -0.765625 0.859375q-0.515625 0.375 -1.28125 0.578125q-0.75 0.21875 -1.71875 0.21875z" fill-rule="nonzero"/></g></svg>