<svg version="1.1" viewBox="0.0 0.0 151.1811023622047 284.9763779527559" fill="none" stroke="none" stroke-linecap="square" stroke-miterlimit="10" xmlns:xlink="http://www.w3.org/1999/xlink" xmlns="http://www.w3.org/2000/svg"><clipPath id="p.0"><path d="m0 0l151.1811 0l0 284.97638l-151.1811 0l0 -284.97638z" clip-rule="nonzero"/></clipPath><g clip-path="url(#p.0)"><path fill="#000000" fill-opacity="0.0" d="m0 0l151.1811 0l0 284.97638l-151.1811 0z" fill-rule="evenodd"/><path fill="#000000" fill-opacity="0.0" d="m113.385826 56.692913l37.79528 0l0 37.795277l-37.79528 0z" fill-rule="evenodd"/><path fill="#000000" d="m130.96783 77.37243q-0.09375 -0.53125 0.03125 -0.953125q0.140625 -0.421875 0.375 -0.75q0.25 -0.34375 0.5625 -0.609375q0.3125 -0.28125 0.578125 -0.53125q0.28125 -0.265625 0.46875 -0.515625q0.203125 -0.265625 0.203125 -0.5625q0 -0.515625 -0.34375 -0.765625q-0.328125 -0.25 -0.84375 -0.25q-0.5 0 -0.890625 0.21875q-0.375 0.203125 -0.75 0.53125l-1.3125 -1.203125q0.578125 -0.640625 1.359375 -1.03125q0.796875 -0.40625 1.75 -0.40625q0.6875 0 1.28125 0.15625q0.609375 0.15625 1.046875 0.484375q0.4375 0.328125 0.6875 0.828125q0.265625 0.484375 0.265625 1.140625q0 0.515625 -0.203125 0.921875q-0.1875 0.390625 -0.484375 0.703125q-0.28125 0.296875 -0.59375 0.578125q-0.3125 0.265625 -0.59375 0.5625q-0.265625 0.296875 -0.4375 0.640625q-0.15625 0.34375 -0.109375 0.8125l-2.046875 0zm1.09375 4.265625q-0.6875 0 -1.15625 -0.453125q-0.453125 -0.453125 -0.453125 -1.171875q0 -0.71875 0.453125 -1.15625q0.46875 -0.453125 1.15625 -0.453125q0.6875 0 1.140625 0.453125q0.453125 0.4375 0.453125 1.15625q0 0.71875 -0.453125 1.171875q-0.453125 0.453125 -1.140625 0.453125z" fill-rule="nonzero"/><path fill="#000000" fill-opacity="0.0" d="m18.897638 18.897638l18.897638 0l0 18.897638l-18.897638 0z" fill-rule="evenodd"/><path stroke="#f3f3f3" stroke-width="1.0" stroke-linejoin="round" stroke-linecap="butt" d="m18.897638 18.897638l18.897638 0l0 18.897638l-18.897638 0z" fill-rule="evenodd"/><path fill="#000000" fill-opacity="0.0" d="m18.897638 37.795277l18.897638 0l0 18.897636l-18.897638 0z" fill-rule="evenodd"/><path stroke="#f3f3f3" stroke-width="1.0" stroke-linejoin="round" stroke-linecap="butt" d="m18.897638 37.795277l18.897638 0l0 18.897636l-18.897638 0z" fill-rule="evenodd"/><path fill="#000000" fill-opacity="0.0" d="m0 0l18.897638 0l0 18.897638l-18.897638 0z" fill-rule="evenodd"/><path stroke="#f3f3f3" stroke-width="1.0" stroke-linejoin="round" stroke-linecap="butt" d="m0 0l18.897638 0l0 18.897638l-18.897638 0z" fill-rule="evenodd"/><path fill="#000000" fill-opacity="0.0" d="m0 18.897638l18.897638 0l0 18.897638l-18.897638 0z" fill-rule="evenodd"/><path stroke="#f3f3f3" stroke-width="1.0" stroke-linejoin="round" stroke-linecap="butt" d="m0 18.897638l18.897638 0l0 18.897638l-18.897638 0z" fill-rule="evenodd"/><path fill="#000000" fill-opacity="0.0" d="m0 37.795277l18.897638 0l0 18.897636l-18.897638 0z" fill-rule="evenodd"/><path stroke="#f3f3f3" stroke-width="1.0" stroke-linejoin="round" stroke-linecap="butt" d="m0 37.795277l18.897638 0l0 18.897636l-18.897638 0z" fill-rule="evenodd"/><path fill="#000000" fill-opacity="0.0" d="m0 56.692913l18.897638 0l0 18.89764l-18.897638 0z" fill-rule="evenodd"/><path stroke="#f3f3f3" stroke-width="1.0" stroke-linejoin="round" stroke-linecap="butt" d="m0 56.692913l18.897638 0l0 18.89764l-18.897638 0z" fill-rule="evenodd"/><path fill="#000000" fill-opacity="0.0" d="m18.897638 0l18.897638 0l0 18.897638l-18.897638 0z" fill-rule="evenodd"/><path stroke="#f3f3f3" stroke-width="1.0" stroke-linejoin="round" stroke-linecap="butt" d="m18.897638 0l18.897638 0l0 18.897638l-18.897638 0z" fill-rule="evenodd"/><path fill="#000000" fill-opacity="0.0" d="m18.897638 56.692913l18.897638 0l0 18.89764l-18.897638 0z" fill-rule="evenodd"/><path stroke="#f3f3f3" stroke-width="1.0" stroke-linejoin="round" stroke-linecap="butt" d="m18.897638 56.692913l18.897638 0l0 18.89764l-18.897638 0z" fill-rule="evenodd"/><path fill="#000000" fill-opacity="0.0" d="m37.795277 0l18.897636 0l0 18.897638l-18.897636 0z" fill-rule="evenodd"/><path stroke="#f3f3f3" stroke-width="1.0" stroke-linejoin="round" stroke-linecap="butt" d="m37.795277 0l18.897636 0l0 18.897638l-18.897636 0z" fill-rule="evenodd"/><path fill="#000000" fill-opacity="0.0" d="m37.795277 18.897638l18.897636 0l0 18.897638l-18.897636 0z" fill-rule="evenodd"/><path stroke="#f3f3f3" stroke-width="1.0" stroke-linejoin="round" stroke-linecap="butt" d="m37.795277 18.897638l18.897636 0l0 18.897638l-18.897636 0z" fill-rule="evenodd"/><path fill="#000000" fill-opacity="0.0" d="m37.795277 37.795277l18.897636 0l0 18.897636l-18.897636 0z" fill-rule="evenodd"/><path stroke="#f3f3f3" stroke-width="1.0" stroke-linejoin="round" stroke-linecap="butt" d="m37.795277 37.795277l18.897636 0l0 18.897636l-18.897636 0z" fill-rule="evenodd"/><path fill="#000000" fill-opacity="0.0" d="m37.795277 56.692913l18.897636 0l0 18.89764l-18.897636 0z" fill-rule="evenodd"/><path stroke="#f3f3f3" stroke-width="1.0" stroke-linejoin="round" stroke-linecap="butt" d="m37.795277 56.692913l18.897636 0l0 18.89764l-18.897636 0z" fill-rule="evenodd"/><path fill="#000000" fill-opacity="0.0" d="m56.692913 0l18.89764 0l0 18.897638l-18.89764 0z" fill-rule="evenodd"/><path stroke="#f3f3f3" stroke-width="1.0" stroke-linejoin="round" stroke-linecap="butt" d="m56.692913 0l18.89764 0l0 18.897638l-18.89764 0z" fill-rule="evenodd"/><path fill="#000000" fill-opacity="0.0" d="m56.692913 18.897638l18.89764 0l0 18.897638l-18.89764 0z" fill-rule="evenodd"/><path stroke="#f3f3f3" stroke-width="1.0" stroke-linejoin="round" stroke-linecap="butt" d="m56.692913 18.897638l18.89764 0l0 18.897638l-18.89764 0z" fill-rule="evenodd"/><path fill="#000000" fill-opacity="0.0" d="m56.692913 37.795277l18.89764 0l0 18.897636l-18.89764 0z" fill-rule="evenodd"/><path stroke="#f3f3f3" stroke-width="1.0" stroke-linejoin="round" stroke-linecap="butt" d="m56.692913 37.795277l18.89764 0l0 18.897636l-18.89764 0z" fill-rule="evenodd"/><path fill="#000000" fill-opacity="0.0" d="m56.692913 56.692913l18.89764 0l0 18.89764l-18.89764 0z" fill-rule="evenodd"/><path stroke="#f3f3f3" stroke-width="1.0" stroke-linejoin="round" stroke-linecap="butt" d="m56.692913 56.692913l18.89764 0l0 18.89764l-18.89764 0z" fill-rule="evenodd"/><path fill="#000000" fill-opacity="0.0" d="m75.59055 0l18.897636 0l0 18.897638l-18.897636 0z" fill-rule="evenodd"/><path stroke="#f3f3f3" stroke-width="1.0" stroke-linejoin="round" stroke-linecap="butt" d="m75.59055 0l18.897636 0l0 18.897638l-18.897636 0z" fill-rule="evenodd"/><path fill="#000000" fill-opacity="0.0" d="m75.59055 18.897638l18.897636 0l0 18.897638l-18.897636 0z" fill-rule="evenodd"/><path stroke="#f3f3f3" stroke-width="1.0" stroke-linejoin="round" stroke-linecap="butt" d="m75.59055 18.897638l18.897636 0l0 18.897638l-18.897636 0z" fill-rule="evenodd"/><path fill="#000000" fill-opacity="0.0" d="m75.59055 37.795277l18.897636 0l0 18.897636l-18.897636 0z" fill-rule="evenodd"/><path stroke="#f3f3f3" stroke-width="1.0" stroke-linejoin="round" stroke-linecap="butt" d="m75.59055 37.795277l18.897636 0l0 18.897636l-18.897636 0z" fill-rule="evenodd"/><path fill="#000000" fill-opacity="0.0" d="m75.59055 56.692913l18.897636 0l0 18.89764l-18.897636 0z" fill-rule="evenodd"/><path stroke="#f3f3f3" stroke-width="1.0" stroke-linejoin="round" stroke-linecap="butt" d="m75.59055 56.692913l18.897636 0l0 18.89764l-18.897636 0z" fill-rule="evenodd"/><path fill="#000000" fill-opacity="0.0" d="m94.48819 0l18.897636 0l0 18.897638l-18.897636 0z" fill-rule="evenodd"/><path stroke="#f3f3f3" stroke-width="1.0" stroke-linejoin="round" stroke-linecap="butt" d="m94.48819 0l18.897636 0l0 18.897638l-18.897636 0z" fill-rule="evenodd"/><path fill="#000000" fill-opacity="0.0" d="m94.48819 18.897638l18.897636 0l0 18.897638l-18.897636 0z" fill-rule="evenodd"/><path stroke="#f3f3f3" stroke-width="1.0" stroke-linejoin="round" stroke-linecap="butt" d="m94.48819 18.897638l18.897636 0l0 18.897638l-18.897636 0z" fill-rule="evenodd"/><path fill="#000000" fill-opacity="0.0" d="m94.48819 37.795277l18.897636 0l0 18.897636l-18.897636 0z" fill-rule="evenodd"/><path stroke="#f3f3f3" stroke-width="1.0" stroke-linejoin="round" stroke-linecap="butt" d="m94.48819 37.795277l18.897636 0l0 18.897636l-18.897636 0z" fill-rule="evenodd"/><path fill="#000000" fill-opacity="0.0" d="m94.48819 56.692913l18.897636 0l0 18.89764l-18.897636 0z" fill-rule="evenodd"/><path stroke="#f3f3f3" stroke-width="1.0" stroke-linejoin="round" stroke-linecap="butt" d="m94.48819 56.692913l18.897636 0l0 18.89764l-18.897636 0z" fill-rule="evenodd"/><path fill="#000000" fill-opacity="0.0" d="m113.385826 0l18.897636 0l0 18.897638l-18.897636 0z" fill-rule="evenodd"/><path stroke="#f3f3f3" stroke-width="1.0" stroke-linejoin="round" stroke-linecap="butt" d="m113.385826 0l18.897636 0l0 18.897638l-18.897636 0z" fill-rule="evenodd"/><path fill="#000000" fill-opacity="0.0" d="m113.385826 18.897638l18.897636 0l0 18.897638l-18.897636 0z" fill-rule="evenodd"/><path stroke="#f3f3f3" stroke-width="1.0" stroke-linejoin="round" stroke-linecap="butt" d="m113.385826 18.897638l18.897636 0l0 18.897638l-18.897636 0z" fill-rule="evenodd"/><path fill="#000000" fill-opacity="0.0" d="m113.385826 37.795277l18.897636 0l0 18.897636l-18.897636 0z" fill-rule="evenodd"/><path stroke="#f3f3f3" stroke-width="1.0" stroke-linejoin="round" stroke-linecap="butt" d="m113.385826 37.795277l18.897636 0l0 18.897636l-18.897636 0z" fill-rule="evenodd"/><path fill="#000000" fill-opacity="0.0" d="m0 75.779526l18.897638 0l0 18.897636l-18.897638 0z" fill-rule="evenodd"/><path stroke="#f3f3f3" stroke-width="1.0" stroke-linejoin="round" stroke-linecap="butt" d="m0 75.779526l18.897638 0l0 18.897636l-18.897638 0z" fill-rule="evenodd"/><path fill="#000000" fill-opacity="0.0" d="m18.897638 75.779526l18.897638 0l0 18.897636l-18.897638 0z" fill-rule="evenodd"/><path stroke="#f3f3f3" stroke-width="1.0" stroke-linejoin="round" stroke-linecap="butt" d="m18.897638 75.779526l18.897638 0l0 18.897636l-18.897638 0z" fill-rule="evenodd"/><path fill="#000000" fill-opacity="0.0" d="m37.795277 75.779526l18.897636 0l0 18.897636l-18.897636 0z" fill-rule="evenodd"/><path stroke="#f3f3f3" stroke-width="1.0" stroke-linejoin="round" stroke-linecap="butt" d="m37.795277 75.779526l18.897636 0l0 18.897636l-18.897636 0z" fill-rule="evenodd"/><path fill="#000000" fill-opacity="0.0" d="m56.692913 75.779526l18.89764 0l0 18.897636l-18.89764 0z" fill-rule="evenodd"/><path stroke="#f3f3f3" stroke-width="1.0" stroke-linejoin="round" stroke-linecap="butt" d="m56.692913 75.779526l18.89764 0l0 18.897636l-18.89764 0z" fill-rule="evenodd"/><path fill="#000000" fill-opacity="0.0" d="m75.59055 75.779526l18.897636 0l0 18.897636l-18.897636 0z" fill-rule="evenodd"/><path stroke="#f3f3f3" stroke-width="1.0" stroke-linejoin="round" stroke-linecap="butt" d="m75.59055 75.779526l18.897636 0l0 18.897636l-18.897636 0z" fill-rule="evenodd"/><path fill="#000000" fill-opacity="0.0" d="m94.48819 75.779526l18.897636 0l0 18.897636l-18.897636 0z" fill-rule="evenodd"/><path stroke="#f3f3f3" stroke-width="1.0" stroke-linejoin="round" stroke-linecap="butt" d="m94.48819 75.779526l18.897636 0l0 18.897636l-18.897636 0z" fill-rule="evenodd"/><path fill="#000000" fill-opacity="0.0" d="m132.28346 0l18.897644 0l0 18.897638l-18.897644 0z" fill-rule="evenodd"/><path stroke="#f3f3f3" stroke-width="1.0" stroke-linejoin="round" stroke-linecap="butt" d="m132.28346 0l18.897644 0l0 18.897638l-18.897644 0z" fill-rule="evenodd"/><path fill="#000000" fill-opacity="0.0" d="m132.28346 18.897638l18.897644 0l0 18.897638l-18.897644 0z" fill-rule="evenodd"/><path stroke="#f3f3f3" stroke-width="1.0" stroke-linejoin="round" stroke-linecap="butt" d="m132.28346 18.897638l18.897644 0l0 18.897638l-18.897644 0z" fill-rule="evenodd"/><path fill="#000000" fill-opacity="0.0" d="m132.28346 37.795277l18.897644 0l0 18.897636l-18.897644 0z" fill-rule="evenodd"/><path stroke="#f3f3f3" stroke-width="1.0" stroke-linejoin="round" stroke-linecap="butt" d="m132.28346 37.795277l18.897644 0l0 18.897636l-18.897644 0z" fill-rule="evenodd"/><path fill="#000000" fill-opacity="0.0" d="m18.897638 38.17323l94.48819 -0.37795258" fill-rule="evenodd"/><path stroke="#cccccc" stroke-width="1.0" stroke-linejoin="round" stroke-linecap="butt" d="m18.897638 38.17323l88.48824 -0.35395432" fill-rule="evenodd"/><path fill="#cccccc" stroke="#cccccc" stroke-width="1.0" stroke-linecap="butt" d="m107.39248 39.470993l4.531456 -1.6698685l-4.54467 -1.6335678z" fill-rule="evenodd"/><path fill="#000000" fill-opacity="0.0" d="m113.385826 151.1811l37.79528 0l0 37.795273l-37.79528 0z" fill-rule="evenodd"/><path fill="#000000" d="m130.96783 171.86061q-0.09375 -0.53125 0.03125 -0.953125q0.140625 -0.421875 0.375 -0.75q0.25 -0.34375 0.5625 -0.609375q0.3125 -0.28125 0.578125 -0.53125q0.28125 -0.265625 0.46875 -0.515625q0.203125 -0.265625 0.203125 -0.5625q0 -0.515625 -0.34375 -0.765625q-0.328125 -0.25 -0.84375 -0.25q-0.5 0 -0.890625 0.21875q-0.375 0.203125 -0.75 0.53125l-1.3125 -1.203125q0.578125 -0.640625 1.359375 -1.03125q0.796875 -0.40625 1.75 -0.40625q0.6875 0 1.28125 0.15625q0.609375 0.15625 1.046875 0.484375q0.4375 0.328125 0.6875 0.828125q0.265625 0.484375 0.265625 1.140625q0 0.515625 -0.203125 0.921875q-0.1875 0.390625 -0.484375 0.703125q-0.28125 0.296875 -0.59375 0.578125q-0.3125 0.265625 -0.59375 0.5625q-0.265625 0.296875 -0.4375 0.640625q-0.15625 0.34375 -0.109375 0.8125l-2.046875 0zm1.09375 4.265625q-0.6875 0 -1.15625 -0.453125q-0.453125 -0.453125 -0.453125 -1.171875q0 -0.71875 0.453125 -1.15625q0.46875 -0.453125 1.15625 -0.453125q0.6875 0 1.140625 0.453125q0.453125 0.4375 0.453125 1.15625q0 0.71875 -0.453125 1.171875q-0.453125 0.453125 -1.140625 0.453125z" fill-rule="nonzero"/><path fill="#000000" fill-opacity="0.0" d="m18.897638 113.385826l18.897638 0l0 18.897636l-18.897638 0z" fill-rule="evenodd"/><path stroke="#f3f3f3" stroke-width="1.0" stroke-linejoin="round" stroke-linecap="butt" d="m18.897638 113.385826l18.897638 0l0 18.897636l-18.897638 0z" fill-rule="evenodd"/><path fill="#000000" fill-opacity="0.0" d="m18.897638 132.28346l18.897638 0l0 18.897644l-18.897638 0z" fill-rule="evenodd"/><path stroke="#f3f3f3" stroke-width="1.0" stroke-linejoin="round" stroke-linecap="butt" d="m18.897638 132.28346l18.897638 0l0 18.897644l-18.897638 0z" fill-rule="evenodd"/><path fill="#000000" fill-opacity="0.0" d="m0 94.48819l18.897638 0l0 18.897636l-18.897638 0z" fill-rule="evenodd"/><path stroke="#f3f3f3" stroke-width="1.0" stroke-linejoin="round" stroke-linecap="butt" d="m0 94.48819l18.897638 0l0 18.897636l-18.897638 0z" fill-rule="evenodd"/><path fill="#000000" fill-opacity="0.0" d="m0 113.385826l18.897638 0l0 18.897636l-18.897638 0z" fill-rule="evenodd"/><path stroke="#f3f3f3" stroke-width="1.0" stroke-linejoin="round" stroke-linecap="butt" d="m0 113.385826l18.897638 0l0 18.897636l-18.897638 0z" fill-rule="evenodd"/><path fill="#000000" fill-opacity="0.0" d="m0 132.28346l18.897638 0l0 18.897644l-18.897638 0z" fill-rule="evenodd"/><path stroke="#f3f3f3" stroke-width="1.0" stroke-linejoin="round" stroke-linecap="butt" d="m0 132.28346l18.897638 0l0 18.897644l-18.897638 0z" fill-rule="evenodd"/><path fill="#000000" fill-opacity="0.0" d="m0 151.1811l18.897638 0l0 18.897629l-18.897638 0z" fill-rule="evenodd"/><path stroke="#f3f3f3" stroke-width="1.0" stroke-linejoin="round" stroke-linecap="butt" d="m0 151.1811l18.897638 0l0 18.897629l-18.897638 0z" fill-rule="evenodd"/><path fill="#000000" fill-opacity="0.0" d="m18.897638 94.48819l18.897638 0l0 18.897636l-18.897638 0z" fill-rule="evenodd"/><path stroke="#f3f3f3" stroke-width="1.0" stroke-linejoin="round" stroke-linecap="butt" d="m18.897638 94.48819l18.897638 0l0 18.897636l-18.897638 0z" fill-rule="evenodd"/><path fill="#000000" fill-opacity="0.0" d="m18.897638 151.1811l18.897638 0l0 18.897629l-18.897638 0z" fill-rule="evenodd"/><path stroke="#f3f3f3" stroke-width="1.0" stroke-linejoin="round" stroke-linecap="butt" d="m18.897638 151.1811l18.897638 0l0 18.897629l-18.897638 0z" fill-rule="evenodd"/><path fill="#000000" fill-opacity="0.0" d="m37.795277 94.48819l18.897636 0l0 18.897636l-18.897636 0z" fill-rule="evenodd"/><path stroke="#f3f3f3" stroke-width="1.0" stroke-linejoin="round" stroke-linecap="butt" d="m37.795277 94.48819l18.897636 0l0 18.897636l-18.897636 0z" fill-rule="evenodd"/><path fill="#000000" fill-opacity="0.0" d="m37.795277 113.385826l18.897636 0l0 18.897636l-18.897636 0z" fill-rule="evenodd"/><path stroke="#f3f3f3" stroke-width="1.0" stroke-linejoin="round" stroke-linecap="butt" d="m37.795277 113.385826l18.897636 0l0 18.897636l-18.897636 0z" fill-rule="evenodd"/><path fill="#000000" fill-opacity="0.0" d="m37.795277 132.28346l18.897636 0l0 18.897644l-18.897636 0z" fill-rule="evenodd"/><path stroke="#f3f3f3" stroke-width="1.0" stroke-linejoin="round" stroke-linecap="butt" d="m37.795277 132.28346l18.897636 0l0 18.897644l-18.897636 0z" fill-rule="evenodd"/><path fill="#000000" fill-opacity="0.0" d="m37.795277 151.1811l18.897636 0l0 18.897629l-18.897636 0z" fill-rule="evenodd"/><path stroke="#f3f3f3" stroke-width="1.0" stroke-linejoin="round" stroke-linecap="butt" d="m37.795277 151.1811l18.897636 0l0 18.897629l-18.897636 0z" fill-rule="evenodd"/><path fill="#000000" fill-opacity="0.0" d="m56.692913 94.48819l18.89764 0l0 18.897636l-18.89764 0z" fill-rule="evenodd"/><path stroke="#f3f3f3" stroke-width="1.0" stroke-linejoin="round" stroke-linecap="butt" d="m56.692913 94.48819l18.89764 0l0 18.897636l-18.89764 0z" fill-rule="evenodd"/><path fill="#000000" fill-opacity="0.0" d="m56.692913 113.385826l18.89764 0l0 18.897636l-18.89764 0z" fill-rule="evenodd"/><path stroke="#f3f3f3" stroke-width="1.0" stroke-linejoin="round" stroke-linecap="butt" d="m56.692913 113.385826l18.89764 0l0 18.897636l-18.89764 0z" fill-rule="evenodd"/><path fill="#000000" fill-opacity="0.0" d="m56.692913 132.28346l18.89764 0l0 18.897644l-18.89764 0z" fill-rule="evenodd"/><path stroke="#f3f3f3" stroke-width="1.0" stroke-linejoin="round" stroke-linecap="butt" d="m56.692913 132.28346l18.89764 0l0 18.897644l-18.89764 0z" fill-rule="evenodd"/><path fill="#000000" fill-opacity="0.0" d="m56.692913 151.1811l18.89764 0l0 18.897629l-18.89764 0z" fill-rule="evenodd"/><path stroke="#f3f3f3" stroke-width="1.0" stroke-linejoin="round" stroke-linecap="butt" d="m56.692913 151.1811l18.89764 0l0 18.897629l-18.89764 0z" fill-rule="evenodd"/><path fill="#000000" fill-opacity="0.0" d="m75.59055 94.48819l18.897636 0l0 18.897636l-18.897636 0z" fill-rule="evenodd"/><path stroke="#f3f3f3" stroke-width="1.0" stroke-linejoin="round" stroke-linecap="butt" d="m75.59055 94.48819l18.897636 0l0 18.897636l-18.897636 0z" fill-rule="evenodd"/><path fill="#000000" fill-opacity="0.0" d="m75.59055 113.385826l18.897636 0l0 18.897636l-18.897636 0z" fill-rule="evenodd"/><path stroke="#f3f3f3" stroke-width="1.0" stroke-linejoin="round" stroke-linecap="butt" d="m75.59055 113.385826l18.897636 0l0 18.897636l-18.897636 0z" fill-rule="evenodd"/><path fill="#000000" fill-opacity="0.0" d="m75.59055 132.28346l18.897636 0l0 18.897644l-18.897636 0z" fill-rule="evenodd"/><path stroke="#f3f3f3" stroke-width="1.0" stroke-linejoin="round" stroke-linecap="butt" d="m75.59055 132.28346l18.897636 0l0 18.897644l-18.897636 0z" fill-rule="evenodd"/><path fill="#000000" fill-opacity="0.0" d="m75.59055 151.1811l18.897636 0l0 18.897629l-18.897636 0z" fill-rule="evenodd"/><path stroke="#f3f3f3" stroke-width="1.0" stroke-linejoin="round" stroke-linecap="butt" d="m75.59055 151.1811l18.897636 0l0 18.897629l-18.897636 0z" fill-rule="evenodd"/><path fill="#000000" fill-opacity="0.0" d="m94.48819 94.48819l18.897636 0l0 18.897636l-18.897636 0z" fill-rule="evenodd"/><path stroke="#f3f3f3" stroke-width="1.0" stroke-linejoin="round" stroke-linecap="butt" d="m94.48819 94.48819l18.897636 0l0 18.897636l-18.897636 0z" fill-rule="evenodd"/><path fill="#000000" fill-opacity="0.0" d="m94.48819 113.385826l18.897636 0l0 18.897636l-18.897636 0z" fill-rule="evenodd"/><path stroke="#f3f3f3" stroke-width="1.0" stroke-linejoin="round" stroke-linecap="butt" d="m94.48819 113.385826l18.897636 0l0 18.897636l-18.897636 0z" fill-rule="evenodd"/><path fill="#000000" fill-opacity="0.0" d="m94.48819 132.28346l18.897636 0l0 18.897644l-18.897636 0z" fill-rule="evenodd"/><path stroke="#f3f3f3" stroke-width="1.0" stroke-linejoin="round" stroke-linecap="butt" d="m94.48819 132.28346l18.897636 0l0 18.897644l-18.897636 0z" fill-rule="evenodd"/><path fill="#000000" fill-opacity="0.0" d="m94.48819 151.1811l18.897636 0l0 18.897629l-18.897636 0z" fill-rule="evenodd"/><path stroke="#f3f3f3" stroke-width="1.0" stroke-linejoin="round" stroke-linecap="butt" d="m94.48819 151.1811l18.897636 0l0 18.897629l-18.897636 0z" fill-rule="evenodd"/><path fill="#000000" fill-opacity="0.0" d="m113.385826 94.48819l18.897636 0l0 18.897636l-18.897636 0z" fill-rule="evenodd"/><path stroke="#f3f3f3" stroke-width="1.0" stroke-linejoin="round" stroke-linecap="butt" d="m113.385826 94.48819l18.897636 0l0 18.897636l-18.897636 0z" fill-rule="evenodd"/><path fill="#000000" fill-opacity="0.0" d="m113.385826 113.385826l18.897636 0l0 18.897636l-18.897636 0z" fill-rule="evenodd"/><path stroke="#f3f3f3" stroke-width="1.0" stroke-linejoin="round" stroke-linecap="butt" d="m113.385826 113.385826l18.897636 0l0 18.897636l-18.897636 0z" fill-rule="evenodd"/><path fill="#000000" fill-opacity="0.0" d="m113.385826 132.28346l18.897636 0l0 18.897644l-18.897636 0z" fill-rule="evenodd"/><path stroke="#f3f3f3" stroke-width="1.0" stroke-linejoin="round" stroke-linecap="butt" d="m113.385826 132.28346l18.897636 0l0 18.897644l-18.897636 0z" fill-rule="evenodd"/><path fill="#000000" fill-opacity="0.0" d="m0 170.26772l18.897638 0l0 18.897644l-18.897638 0z" fill-rule="evenodd"/><path stroke="#f3f3f3" stroke-width="1.0" stroke-linejoin="round" stroke-linecap="butt" d="m0 170.26772l18.897638 0l0 18.897644l-18.897638 0z" fill-rule="evenodd"/><path fill="#000000" fill-opacity="0.0" d="m18.897638 170.26772l18.897638 0l0 18.897644l-18.897638 0z" fill-rule="evenodd"/><path stroke="#f3f3f3" stroke-width="1.0" stroke-linejoin="round" stroke-linecap="butt" d="m18.897638 170.26772l18.897638 0l0 18.897644l-18.897638 0z" fill-rule="evenodd"/><path fill="#000000" fill-opacity="0.0" d="m37.795277 170.26772l18.897636 0l0 18.897644l-18.897636 0z" fill-rule="evenodd"/><path stroke="#f3f3f3" stroke-width="1.0" stroke-linejoin="round" stroke-linecap="butt" d="m37.795277 170.26772l18.897636 0l0 18.897644l-18.897636 0z" fill-rule="evenodd"/><path fill="#000000" fill-opacity="0.0" d="m56.692913 170.26772l18.89764 0l0 18.897644l-18.89764 0z" fill-rule="evenodd"/><path stroke="#f3f3f3" stroke-width="1.0" stroke-linejoin="round" stroke-linecap="butt" d="m56.692913 170.26772l18.89764 0l0 18.897644l-18.89764 0z" fill-rule="evenodd"/><path fill="#000000" fill-opacity="0.0" d="m75.59055 170.26772l18.897636 0l0 18.897644l-18.897636 0z" fill-rule="evenodd"/><path stroke="#f3f3f3" stroke-width="1.0" stroke-linejoin="round" stroke-linecap="butt" d="m75.59055 170.26772l18.897636 0l0 18.897644l-18.897636 0z" fill-rule="evenodd"/><path fill="#000000" fill-opacity="0.0" d="m94.48819 170.26772l18.897636 0l0 18.897644l-18.897636 0z" fill-rule="evenodd"/><path stroke="#f3f3f3" stroke-width="1.0" stroke-linejoin="round" stroke-linecap="butt" d="m94.48819 170.26772l18.897636 0l0 18.897644l-18.897636 0z" fill-rule="evenodd"/><path fill="#000000" fill-opacity="0.0" d="m132.28346 94.48819l18.897644 0l0 18.897636l-18.897644 0z" fill-rule="evenodd"/><path stroke="#f3f3f3" stroke-width="1.0" stroke-linejoin="round" stroke-linecap="butt" d="m132.28346 94.48819l18.897644 0l0 18.897636l-18.897644 0z" fill-rule="evenodd"/><path fill="#000000" fill-opacity="0.0" d="m132.28346 113.385826l18.897644 0l0 18.897636l-18.897644 0z" fill-rule="evenodd"/><path stroke="#f3f3f3" stroke-width="1.0" stroke-linejoin="round" stroke-linecap="butt" d="m132.28346 113.385826l18.897644 0l0 18.897636l-18.897644 0z" fill-rule="evenodd"/><path fill="#000000" fill-opacity="0.0" d="m132.28346 132.28346l18.897644 0l0 18.897644l-18.897644 0z" fill-rule="evenodd"/><path stroke="#f3f3f3" stroke-width="1.0" stroke-linejoin="round" stroke-linecap="butt" d="m132.28346 132.28346l18.897644 0l0 18.897644l-18.897644 0z" fill-rule="evenodd"/><path fill="#000000" fill-opacity="0.0" d="m18.897638 132.66142l94.48819 -0.3779602" fill-rule="evenodd"/><path stroke="#cccccc" stroke-width="1.0" stroke-linejoin="round" stroke-linecap="butt" d="m18.897638 132.66142l88.48824 -0.35395813" fill-rule="evenodd"/><path fill="#cccccc" stroke="#cccccc" stroke-width="1.0" stroke-linecap="butt" d="m107.39248 133.95918l4.531456 -1.6698761l-4.54467 -1.6335602z" fill-rule="evenodd"/><path fill="#000000" d="m37.795277 131.08661l0 0c0 -9.775871 7.9249115 -17.700783 17.700787 -17.700783l0 0c4.694542 0 9.196808 1.8648987 12.51635 5.1844406c3.319542 3.319542 5.1844406 7.821808 5.1844406 12.516342l0 0c0 9.775879 -7.924919 17.70079 -17.70079 17.70079l0 0c-9.775875 0 -17.700787 -7.9249115 -17.700787 -17.70079z" fill-rule="evenodd"/><path stroke="#ffffff" stroke-width="1.0" stroke-linejoin="round" stroke-linecap="butt" d="m37.795277 131.08661l0 0c0 -9.775871 7.9249115 -17.700783 17.700787 -17.700783l0 0c4.694542 0 9.196808 1.8648987 12.51635 5.1844406c3.319542 3.319542 5.1844406 7.821808 5.1844406 12.516342l0 0c0 9.775879 -7.924919 17.70079 -17.70079 17.70079l0 0c-9.775875 0 -17.700787 -7.9249115 -17.700787 -17.70079z" fill-rule="evenodd"/><path fill="#000000" d="m45.795277 131.08661l0 0c0 -9.775871 7.9249115 -17.700783 17.700787 -17.700783l0 0c4.694542 0 9.196808 1.8648987 12.51635 5.1844406c3.319542 3.319542 5.1844406 7.821808 5.1844406 12.516342l0 0c0 9.775879 -7.924919 17.70079 -17.70079 17.70079l0 0c-9.775875 0 -17.700787 -7.9249115 -17.700787 -17.70079z" fill-rule="evenodd"/><path stroke="#ffffff" stroke-width="1.0" stroke-linejoin="round" stroke-linecap="butt" d="m45.795277 131.08661l0 0c0 -9.775871 7.9249115 -17.700783 17.700787 -17.700783l0 0c4.694542 0 9.196808 1.8648987 12.51635 5.1844406c3.319542 3.319542 5.1844406 7.821808 5.1844406 12.516342l0 0c0 9.775879 -7.924919 17.70079 -17.70079 17.70079l0 0c-9.775875 0 -17.700787 -7.9249115 -17.700787 -17.70079z" fill-rule="evenodd"/><path fill="#000000" d="m53.795277 131.08661l0 0c0 -9.775871 7.9249115 -17.700783 17.700787 -17.700783l0 0c4.694542 0 9.196808 1.8648987 12.51635 5.1844406c3.319542 3.319542 5.1844406 7.821808 5.1844406 12.516342l0 0c0 9.775879 -7.924919 17.70079 -17.70079 17.70079l0 0c-9.775875 0 -17.700787 -7.9249115 -17.700787 -17.70079z" fill-rule="evenodd"/><path stroke="#ffffff" stroke-width="1.0" stroke-linejoin="round" stroke-linecap="butt" d="m53.795277 131.08661l0 0c0 -9.775871 7.9249115 -17.700783 17.700787 -17.700783l0 0c4.694542 0 9.196808 1.8648987 12.51635 5.1844406c3.319542 3.319542 5.1844406 7.821808 5.1844406 12.516342l0 0c0 9.775879 -7.924919 17.70079 -17.70079 17.70079l0 0c-9.775875 0 -17.700787 -7.9249115 -17.700787 -17.70079z" fill-rule="evenodd"/><path fill="#000000" d="m61.795277 131.08661l0 0c0 -9.775871 7.9249077 -17.700783 17.700787 -17.700783l0 0c4.694542 0 9.196808 1.8648987 12.51635 5.1844406c3.319542 3.319542 5.1844406 7.821808 5.1844406 12.516342l0 0c0 9.775879 -7.924919 17.70079 -17.70079 17.70079l0 0c-9.775879 0 -17.700787 -7.9249115 -17.700787 -17.70079z" fill-rule="evenodd"/><path stroke="#ffffff" stroke-width="1.0" stroke-linejoin="round" stroke-linecap="butt" d="m61.795277 131.08661l0 0c0 -9.775871 7.9249077 -17.700783 17.700787 -17.700783l0 0c4.694542 0 9.196808 1.8648987 12.51635 5.1844406c3.319542 3.319542 5.1844406 7.821808 5.1844406 12.516342l0 0c0 9.775879 -7.924919 17.70079 -17.70079 17.70079l0 0c-9.775879 0 -17.700787 -7.9249115 -17.700787 -17.70079z" fill-rule="evenodd"/><path fill="#000000" fill-opacity="0.0" d="m113.385826 247.1811l37.79528 0l0 37.795273l-37.79528 0z" fill-rule="evenodd"/><path fill="#000000" d="m130.96783 267.86063q-0.09375 -0.53125 0.03125 -0.953125q0.140625 -0.421875 0.375 -0.75q0.25 -0.34375 0.5625 -0.609375q0.3125 -0.28125 0.578125 -0.53125q0.28125 -0.265625 0.46875 -0.515625q0.203125 -0.265625 0.203125 -0.5625q0 -0.515625 -0.34375 -0.765625q-0.328125 -0.25 -0.84375 -0.25q-0.5 0 -0.890625 0.21875q-0.375 0.203125 -0.75 0.53125l-1.3125 -1.203125q0.578125 -0.640625 1.359375 -1.03125q0.796875 -0.40625 1.75 -0.40625q0.6875 0 1.28125 0.15625q0.609375 0.15625 1.046875 0.484375q0.4375 0.328125 0.6875 0.828125q0.265625 0.484375 0.265625 1.140625q0 0.515625 -0.203125 0.921875q-0.1875 0.390625 -0.484375 0.703125q-0.28125 0.296875 -0.59375 0.578125q-0.3125 0.265625 -0.59375 0.5625q-0.265625 0.296875 -0.4375 0.640625q-0.15625 0.34375 -0.109375 0.8125l-2.046875 0zm1.09375 4.265625q-0.6875 0 -1.15625 -0.453125q-0.453125 -0.453125 -0.453125 -1.171875q0 -0.71875 0.453125 -1.15625q0.46875 -0.453125 1.15625 -0.453125q0.6875 0 1.140625 0.453125q0.453125 0.4375 0.453125 1.15625q0 0.71875 -0.453125 1.171875q-0.453125 0.453125 -1.140625 0.453125z" fill-rule="nonzero"/><path fill="#000000" fill-opacity="0.0" d="m18.897638 209.38583l18.897638 0l0 18.897629l-18.897638 0z" fill-rule="evenodd"/><path stroke="#f3f3f3" stroke-width="1.0" stroke-linejoin="round" stroke-linecap="butt" d="m18.897638 209.38583l18.897638 0l0 18.897629l-18.897638 0z" fill-rule="evenodd"/><path fill="#000000" fill-opacity="0.0" d="m18.897638 228.28346l18.897638 0l0 18.897644l-18.897638 0z" fill-rule="evenodd"/><path stroke="#f3f3f3" stroke-width="1.0" stroke-linejoin="round" stroke-linecap="butt" d="m18.897638 228.28346l18.897638 0l0 18.897644l-18.897638 0z" fill-rule="evenodd"/><path fill="#000000" fill-opacity="0.0" d="m0 190.48819l18.897638 0l0 18.897644l-18.897638 0z" fill-rule="evenodd"/><path stroke="#f3f3f3" stroke-width="1.0" stroke-linejoin="round" stroke-linecap="butt" d="m0 190.48819l18.897638 0l0 18.897644l-18.897638 0z" fill-rule="evenodd"/><path fill="#000000" fill-opacity="0.0" d="m0 209.38583l18.897638 0l0 18.897629l-18.897638 0z" fill-rule="evenodd"/><path stroke="#f3f3f3" stroke-width="1.0" stroke-linejoin="round" stroke-linecap="butt" d="m0 209.38583l18.897638 0l0 18.897629l-18.897638 0z" fill-rule="evenodd"/><path fill="#000000" fill-opacity="0.0" d="m0 228.28346l18.897638 0l0 18.897644l-18.897638 0z" fill-rule="evenodd"/><path stroke="#f3f3f3" stroke-width="1.0" stroke-linejoin="round" stroke-linecap="butt" d="m0 228.28346l18.897638 0l0 18.897644l-18.897638 0z" fill-rule="evenodd"/><path fill="#000000" fill-opacity="0.0" d="m0 247.1811l18.897638 0l0 18.897629l-18.897638 0z" fill-rule="evenodd"/><path stroke="#f3f3f3" stroke-width="1.0" stroke-linejoin="round" stroke-linecap="butt" d="m0 247.1811l18.897638 0l0 18.897629l-18.897638 0z" fill-rule="evenodd"/><path fill="#000000" fill-opacity="0.0" d="m18.897638 190.48819l18.897638 0l0 18.897644l-18.897638 0z" fill-rule="evenodd"/><path stroke="#f3f3f3" stroke-width="1.0" stroke-linejoin="round" stroke-linecap="butt" d="m18.897638 190.48819l18.897638 0l0 18.897644l-18.897638 0z" fill-rule="evenodd"/><path fill="#000000" fill-opacity="0.0" d="m18.897638 247.1811l18.897638 0l0 18.897629l-18.897638 0z" fill-rule="evenodd"/><path stroke="#f3f3f3" stroke-width="1.0" stroke-linejoin="round" stroke-linecap="butt" d="m18.897638 247.1811l18.897638 0l0 18.897629l-18.897638 0z" fill-rule="evenodd"/><path fill="#000000" fill-opacity="0.0" d="m37.795277 190.48819l18.897636 0l0 18.897644l-18.897636 0z" fill-rule="evenodd"/><path stroke="#f3f3f3" stroke-width="1.0" stroke-linejoin="round" stroke-linecap="butt" d="m37.795277 190.48819l18.897636 0l0 18.897644l-18.897636 0z" fill-rule="evenodd"/><path fill="#000000" fill-opacity="0.0" d="m37.795277 209.38583l18.897636 0l0 18.897629l-18.897636 0z" fill-rule="evenodd"/><path stroke="#f3f3f3" stroke-width="1.0" stroke-linejoin="round" stroke-linecap="butt" d="m37.795277 209.38583l18.897636 0l0 18.897629l-18.897636 0z" fill-rule="evenodd"/><path fill="#000000" fill-opacity="0.0" d="m37.795277 228.28346l18.897636 0l0 18.897644l-18.897636 0z" fill-rule="evenodd"/><path stroke="#f3f3f3" stroke-width="1.0" stroke-linejoin="round" stroke-linecap="butt" d="m37.795277 228.28346l18.897636 0l0 18.897644l-18.897636 0z" fill-rule="evenodd"/><path fill="#000000" fill-opacity="0.0" d="m37.795277 247.1811l18.897636 0l0 18.897629l-18.897636 0z" fill-rule="evenodd"/><path stroke="#f3f3f3" stroke-width="1.0" stroke-linejoin="round" stroke-linecap="butt" d="m37.795277 247.1811l18.897636 0l0 18.897629l-18.897636 0z" fill-rule="evenodd"/><path fill="#000000" fill-opacity="0.0" d="m56.692913 190.48819l18.89764 0l0 18.897644l-18.89764 0z" fill-rule="evenodd"/><path stroke="#f3f3f3" stroke-width="1.0" stroke-linejoin="round" stroke-linecap="butt" d="m56.692913 190.48819l18.89764 0l0 18.897644l-18.89764 0z" fill-rule="evenodd"/><path fill="#000000" fill-opacity="0.0" d="m56.692913 209.38583l18.89764 0l0 18.897629l-18.89764 0z" fill-rule="evenodd"/><path stroke="#f3f3f3" stroke-width="1.0" stroke-linejoin="round" stroke-linecap="butt" d="m56.692913 209.38583l18.89764 0l0 18.897629l-18.89764 0z" fill-rule="evenodd"/><path fill="#000000" fill-opacity="0.0" d="m56.692913 228.28346l18.89764 0l0 18.897644l-18.89764 0z" fill-rule="evenodd"/><path stroke="#f3f3f3" stroke-width="1.0" stroke-linejoin="round" stroke-linecap="butt" d="m56.692913 228.28346l18.89764 0l0 18.897644l-18.89764 0z" fill-rule="evenodd"/><path fill="#000000" fill-opacity="0.0" d="m56.692913 247.1811l18.89764 0l0 18.897629l-18.89764 0z" fill-rule="evenodd"/><path stroke="#f3f3f3" stroke-width="1.0" stroke-linejoin="round" stroke-linecap="butt" d="m56.692913 247.1811l18.89764 0l0 18.897629l-18.89764 0z" fill-rule="evenodd"/><path fill="#000000" fill-opacity="0.0" d="m75.59055 190.48819l18.897636 0l0 18.897644l-18.897636 0z" fill-rule="evenodd"/><path stroke="#f3f3f3" stroke-width="1.0" stroke-linejoin="round" stroke-linecap="butt" d="m75.59055 190.48819l18.897636 0l0 18.897644l-18.897636 0z" fill-rule="evenodd"/><path fill="#000000" fill-opacity="0.0" d="m75.59055 209.38583l18.897636 0l0 18.897629l-18.897636 0z" fill-rule="evenodd"/><path stroke="#f3f3f3" stroke-width="1.0" stroke-linejoin="round" stroke-linecap="butt" d="m75.59055 209.38583l18.897636 0l0 18.897629l-18.897636 0z" fill-rule="evenodd"/><path fill="#000000" fill-opacity="0.0" d="m75.59055 228.28346l18.897636 0l0 18.897644l-18.897636 0z" fill-rule="evenodd"/><path stroke="#f3f3f3" stroke-width="1.0" stroke-linejoin="round" stroke-linecap="butt" d="m75.59055 228.28346l18.897636 0l0 18.897644l-18.897636 0z" fill-rule="evenodd"/><path fill="#000000" fill-opacity="0.0" d="m75.59055 247.1811l18.897636 0l0 18.897629l-18.897636 0z" fill-rule="evenodd"/><path stroke="#f3f3f3" stroke-width="1.0" stroke-linejoin="round" stroke-linecap="butt" d="m75.59055 247.1811l18.897636 0l0 18.897629l-18.897636 0z" fill-rule="evenodd"/><path fill="#000000" fill-opacity="0.0" d="m94.48819 190.48819l18.897636 0l0 18.897644l-18.897636 0z" fill-rule="evenodd"/><path stroke="#f3f3f3" stroke-width="1.0" stroke-linejoin="round" stroke-linecap="butt" d="m94.48819 190.48819l18.897636 0l0 18.897644l-18.897636 0z" fill-rule="evenodd"/><path fill="#000000" fill-opacity="0.0" d="m94.48819 209.38583l18.897636 0l0 18.897629l-18.897636 0z" fill-rule="evenodd"/><path stroke="#f3f3f3" stroke-width="1.0" stroke-linejoin="round" stroke-linecap="butt" d="m94.48819 209.38583l18.897636 0l0 18.897629l-18.897636 0z" fill-rule="evenodd"/><path fill="#000000" fill-opacity="0.0" d="m94.48819 228.28346l18.897636 0l0 18.897644l-18.897636 0z" fill-rule="evenodd"/><path stroke="#f3f3f3" stroke-width="1.0" stroke-linejoin="round" stroke-linecap="butt" d="m94.48819 228.28346l18.897636 0l0 18.897644l-18.897636 0z" fill-rule="evenodd"/><path fill="#000000" fill-opacity="0.0" d="m94.48819 247.1811l18.897636 0l0 18.897629l-18.897636 0z" fill-rule="evenodd"/><path stroke="#f3f3f3" stroke-width="1.0" stroke-linejoin="round" stroke-linecap="butt" d="m94.48819 247.1811l18.897636 0l0 18.897629l-18.897636 0z" fill-rule="evenodd"/><path fill="#000000" fill-opacity="0.0" d="m113.385826 190.48819l18.897636 0l0 18.897644l-18.897636 0z" fill-rule="evenodd"/><path stroke="#f3f3f3" stroke-width="1.0" stroke-linejoin="round" stroke-linecap="butt" d="m113.385826 190.48819l18.897636 0l0 18.897644l-18.897636 0z" fill-rule="evenodd"/><path fill="#000000" fill-opacity="0.0" d="m113.385826 209.38583l18.897636 0l0 18.897629l-18.897636 0z" fill-rule="evenodd"/><path stroke="#f3f3f3" stroke-width="1.0" stroke-linejoin="round" stroke-linecap="butt" d="m113.385826 209.38583l18.897636 0l0 18.897629l-18.897636 0z" fill-rule="evenodd"/><path fill="#000000" fill-opacity="0.0" d="m113.385826 228.28346l18.897636 0l0 18.897644l-18.897636 0z" fill-rule="evenodd"/><path stroke="#f3f3f3" stroke-width="1.0" stroke-linejoin="round" stroke-linecap="butt" d="m113.385826 228.28346l18.897636 0l0 18.897644l-18.897636 0z" fill-rule="evenodd"/><path fill="#000000" fill-opacity="0.0" d="m0 266.26773l18.897638 0l0 18.897614l-18.897638 0z" fill-rule="evenodd"/><path stroke="#f3f3f3" stroke-width="1.0" stroke-linejoin="round" stroke-linecap="butt" d="m0 266.26773l18.897638 0l0 18.897614l-18.897638 0z" fill-rule="evenodd"/><path fill="#000000" fill-opacity="0.0" d="m18.897638 266.26773l18.897638 0l0 18.897614l-18.897638 0z" fill-rule="evenodd"/><path stroke="#f3f3f3" stroke-width="1.0" stroke-linejoin="round" stroke-linecap="butt" d="m18.897638 266.26773l18.897638 0l0 18.897614l-18.897638 0z" fill-rule="evenodd"/><path fill="#000000" fill-opacity="0.0" d="m37.795277 266.26773l18.897636 0l0 18.897614l-18.897636 0z" fill-rule="evenodd"/><path stroke="#f3f3f3" stroke-width="1.0" stroke-linejoin="round" stroke-linecap="butt" d="m37.795277 266.26773l18.897636 0l0 18.897614l-18.897636 0z" fill-rule="evenodd"/><path fill="#000000" fill-opacity="0.0" d="m56.692913 266.26773l18.89764 0l0 18.897614l-18.89764 0z" fill-rule="evenodd"/><path stroke="#f3f3f3" stroke-width="1.0" stroke-linejoin="round" stroke-linecap="butt" d="m56.692913 266.26773l18.89764 0l0 18.897614l-18.89764 0z" fill-rule="evenodd"/><path fill="#000000" fill-opacity="0.0" d="m75.59055 266.26773l18.897636 0l0 18.897614l-18.897636 0z" fill-rule="evenodd"/><path stroke="#f3f3f3" stroke-width="1.0" stroke-linejoin="round" stroke-linecap="butt" d="m75.59055 266.26773l18.897636 0l0 18.897614l-18.897636 0z" fill-rule="evenodd"/><path fill="#000000" fill-opacity="0.0" d="m94.48819 266.26773l18.897636 0l0 18.897614l-18.897636 0z" fill-rule="evenodd"/><path stroke="#f3f3f3" stroke-width="1.0" stroke-linejoin="round" stroke-linecap="butt" d="m94.48819 266.26773l18.897636 0l0 18.897614l-18.897636 0z" fill-rule="evenodd"/><path fill="#000000" fill-opacity="0.0" d="m132.28346 190.48819l18.897644 0l0 18.897644l-18.897644 0z" fill-rule="evenodd"/><path stroke="#f3f3f3" stroke-width="1.0" stroke-linejoin="round" stroke-linecap="butt" d="m132.28346 190.48819l18.897644 0l0 18.897644l-18.897644 0z" fill-rule="evenodd"/><path fill="#000000" fill-opacity="0.0" d="m132.28346 209.38583l18.897644 0l0 18.897629l-18.897644 0z" fill-rule="evenodd"/><path stroke="#f3f3f3" stroke-width="1.0" stroke-linejoin="round" stroke-linecap="butt" d="m132.28346 209.38583l18.897644 0l0 18.897629l-18.897644 0z" fill-rule="evenodd"/><path fill="#000000" fill-opacity="0.0" d="m132.28346 228.28346l18.897644 0l0 18.897644l-18.897644 0z" fill-rule="evenodd"/><path stroke="#f3f3f3" stroke-width="1.0" stroke-linejoin="round" stroke-linecap="butt" d="m132.28346 228.28346l18.897644 0l0 18.897644l-18.897644 0z" fill-rule="evenodd"/><path fill="#000000" fill-opacity="0.0" d="m18.897638 228.66142l94.48819 -0.3779602" fill-rule="evenodd"/><path stroke="#cccccc" stroke-width="1.0" stroke-linejoin="round" stroke-linecap="butt" d="m18.897638 228.66142l88.48824 -0.3539734" fill-rule="evenodd"/><path fill="#cccccc" stroke="#cccccc" stroke-width="1.0" stroke-linecap="butt" d="m107.39248 229.95918l4.531456 -1.6698761l-4.54467 -1.6335602z" fill-rule="evenodd"/></g></svg>