<?xml version="1.0" standalone="no"?>
<!DOCTYPE svg PUBLIC "-//W3C//DTD SVG 20010904//EN"
 "http://www.w3.org/TR/2001/REC-SVG-20010904/DTD/svg10.dtd">
<svg version="1.0" xmlns="http://www.w3.org/2000/svg"
 width="624.000000pt" height="624.000000pt" viewBox="0 0 624.000000 624.000000"
 preserveAspectRatio="xMidYMid meet">
<metadata>
Created by potrace 1.11, written by Peter Selinger 2001-2013
</metadata>
<g transform="translate(0.000000,624.000000) scale(0.100000,-0.100000)"
fill="#000000" stroke="none">
<path d="M3110 6210 c-9 -6 -10 -10 -3 -10 6 0 15 5 18 10 8 12 4 12 -15 0z"/>
<path d="M2977 6203 c-2 -1 -66 -12 -122 -19 -22 -3 -71 -13 -110 -21 -38 -8
-79 -16 -90 -18 -40 -6 -180 -46 -247 -71 -21 -8 -38 -12 -38 -10 0 4 -44 -12
-135 -49 -11 -5 -22 -9 -25 -10 -70 -24 -354 -163 -402 -196 -14 -11 -29 -19
-33 -19 -4 0 -21 -10 -38 -22 -18 -13 -42 -28 -54 -35 -12 -6 -28 -16 -35 -22
-7 -6 -50 -37 -94 -69 -230 -161 -461 -384 -641 -617 -60 -77 -173 -244 -173
-255 0 -5 -4 -10 -10 -10 -5 0 -10 -5 -10 -11 0 -6 -9 -23 -19 -37 -29 -41
-153 -286 -191 -377 -74 -178 -165 -485 -186 -625 -7 -49 -12 -75 -14 -75 -1
0 -3 -13 -5 -30 -1 -16 -6 -52 -9 -80 -4 -27 -9 -77 -13 -110 -8 -89 -8 -438
0 -530 11 -131 17 -179 22 -195 3 -8 7 -32 9 -54 3 -21 8 -46 10 -55 3 -9 7
-34 11 -56 14 -99 106 -405 153 -515 9 -19 17 -41 18 -47 4 -22 157 -328 166
-331 4 -2 8 -9 8 -16 0 -13 178 -284 222 -340 181 -225 349 -396 528 -537 30
-24 60 -47 65 -52 31 -25 156 -113 195 -135 25 -14 47 -29 50 -32 3 -4 12 -10
20 -13 8 -4 38 -21 65 -37 152 -91 530 -254 636 -275 9 -2 47 -12 85 -23 89
-26 185 -47 304 -66 145 -23 160 -25 160 -16 0 5 -19 11 -42 15 -39 6 -131 29
-168 43 -8 3 -19 6 -25 7 -5 0 -23 6 -38 13 -16 7 -31 12 -35 12 -15 0 -142
57 -240 107 -337 172 -650 457 -894 813 -110 160 -221 363 -293 530 -15 36
-34 80 -42 99 -8 18 -16 39 -17 45 -1 6 -7 20 -13 31 -6 11 -11 22 -11 25 -1
3 -3 12 -6 20 -10 30 -56 176 -65 205 -9 28 -28 99 -37 135 -2 8 -10 42 -18
75 -8 33 -17 74 -20 90 -2 17 -12 68 -20 115 -24 134 -34 211 -40 317 -2 28
-6 55 -9 60 -7 12 -1 625 8 683 3 25 8 61 11 80 2 19 6 49 8 65 11 95 48 291
73 390 8 33 16 65 17 70 2 6 8 30 15 55 8 25 14 50 16 55 1 6 5 17 8 25 3 8
15 47 27 85 47 147 172 443 194 457 6 4 7 8 3 8 -16 0 119 231 221 380 61 86
173 232 211 272 136 142 252 252 305 287 12 8 23 18 26 21 3 4 41 32 85 63 44
31 85 60 90 64 73 55 419 216 510 237 6 1 55 13 110 25 125 29 154 40 102 38
-21 -1 -39 -3 -40 -4z"/>
<path d="M3068 6203 c7 -3 16 -2 19 1 4 3 -2 6 -13 5 -11 0 -14 -3 -6 -6z"/>
<path d="M3640 5762 c0 -4 10 -9 23 -10 88 -9 296 -81 430 -149 392 -200 709
-525 951 -975 115 -215 236 -546 280 -768 19 -99 33 -176 42 -239 3 -25 8 -57
10 -71 9 -52 26 -304 25 -375 0 -66 -12 -325 -15 -341 -2 -12 -7 -57 -11 -100
-4 -43 -9 -81 -10 -84 -2 -3 -6 -30 -10 -60 -4 -30 -9 -58 -11 -61 -2 -3 -6
-21 -9 -40 -3 -19 -8 -45 -10 -59 -3 -14 -11 -45 -18 -70 -14 -49 -10 -48
-102 -34 -120 18 -269 6 -395 -32 -72 -22 -214 -86 -230 -104 -3 -3 -18 -14
-34 -24 -51 -32 -174 -156 -213 -214 -21 -31 -40 -59 -43 -62 -13 -13 -70
-142 -88 -202 -28 -89 -35 -138 -36 -230 -1 -43 -5 -78 -9 -78 -5 0 -6 -4 -3
-9 3 -5 8 -29 11 -52 3 -24 10 -65 16 -90 6 -26 12 -53 13 -60 2 -8 6 -22 9
-31 12 -31 18 -53 17 -56 -3 -6 94 -178 117 -209 l24 -32 -23 -12 c-13 -7 -25
-15 -28 -19 -5 -6 -47 -33 -115 -73 -87 -51 -365 -174 -365 -161 0 2 -12 -1
-27 -7 -16 -6 -37 -13 -48 -15 -95 -19 -158 -34 -163 -39 -4 -4 4 -4 18 -1 14
3 45 8 70 11 25 3 54 7 65 9 11 2 43 7 70 11 28 4 75 13 105 21 30 7 67 15 82
18 15 3 32 7 38 11 5 3 19 8 30 11 11 2 28 6 38 8 35 8 180 60 257 93 44 18
83 33 88 33 4 0 19 -11 32 -24 79 -79 283 -179 415 -203 119 -22 298 -21 362
2 7 2 24 6 38 9 90 16 226 80 320 148 56 42 173 157 200 198 8 12 27 40 43 61
15 21 27 41 27 43 0 3 14 35 31 71 17 37 33 78 35 92 3 15 9 34 15 45 5 10 8
18 5 18 -3 0 0 15 6 33 14 44 18 249 7 322 -5 33 -19 92 -30 130 -23 77 -87
215 -101 215 -4 0 -8 5 -8 10 0 13 -35 63 -71 104 l-27 29 29 68 c27 64 99
257 97 262 0 1 7 27 16 57 16 51 58 250 70 330 17 106 21 186 21 385 -1 233
-6 308 -30 435 -3 14 -8 42 -11 64 -8 52 -61 259 -80 316 -19 54 -26 74 -24
78 0 1 -7 16 -16 33 -8 17 -17 39 -19 48 -10 52 -144 315 -217 424 -21 32 -38
61 -38 63 0 5 -94 132 -154 208 -73 93 -227 248 -342 345 -99 84 -282 217
-314 229 -8 3 -17 9 -20 12 -5 6 -189 110 -195 110 -2 0 -41 17 -87 38 -78 36
-147 65 -158 68 -6 1 -39 13 -65 24 -11 5 -31 12 -45 15 -14 4 -59 17 -100 30
-41 13 -88 26 -105 29 -16 3 -79 14 -140 26 -135 26 -185 31 -185 22z"/>
<path d="M3020 90 c0 -4 13 -10 29 -12 17 -2 28 -1 26 3 -7 10 -55 18 -55 9z"/>
</g>
</svg>
