<svg version="1.1" viewBox="0.0 0.0 85.03937007874016 56.69291338582677" fill="none" stroke="none" stroke-linecap="square" stroke-miterlimit="10" xmlns:xlink="http://www.w3.org/1999/xlink" xmlns="http://www.w3.org/2000/svg"><clipPath id="p.0"><path d="m0 0l85.03937 0l0 56.692913l-85.03937 0l0 -56.692913z" clip-rule="nonzero"/></clipPath><g clip-path="url(#p.0)"><path fill="#000000" fill-opacity="0.0" d="m0 0l85.03937 0l0 56.692913l-85.03937 0z" fill-rule="evenodd"/><path fill="#000000" d="m28.35433 0.0475895l28.346457 0l0 56.598427l-28.346457 0z" fill-rule="evenodd"/><path fill="#000000" d="m28.35433 13.952756l13.952757 0l0 -13.952756l27.905514 0l0 13.952756l13.952751 0l0 28.787403l-13.952751 0l0 13.952755l-27.905514 0l0 -13.952755l-13.952757 0z" fill-rule="evenodd"/><path fill="#000000" d="m0.007218898 13.952756l13.952756 0l0 -13.952756l27.90551 0l0 13.952756l13.952755 0l0 28.787403l-13.952755 0l0 13.952755l-27.90551 0l0 -13.952755l-13.952756 0z" fill-rule="evenodd"/><path fill="#000000" fill-opacity="0.0" d="m28.345654 28.341843l28.346455 0l0 28.31496l-28.346455 0z" fill-rule="evenodd"/><path stroke="#cccccc" stroke-width="1.0" stroke-linejoin="round" stroke-linecap="butt" d="m28.345654 28.341843l28.346455 0l0 28.31496l-28.346455 0z" fill-rule="evenodd"/><path fill="#000000" fill-opacity="0.0" d="m0.007874016 28.341843l28.346457 0l0 28.31496l-28.346457 0z" fill-rule="evenodd"/><path stroke="#cccccc" stroke-width="1.0" stroke-linejoin="round" stroke-linecap="butt" d="m0.007874016 28.341843l28.346457 0l0 28.31496l-28.346457 0z" fill-rule="evenodd"/><path fill="#000000" fill-opacity="0.0" d="m56.700787 28.341843l28.346455 0l0 28.31496l-28.346455 0z" fill-rule="evenodd"/><path stroke="#cccccc" stroke-width="1.0" stroke-linejoin="round" stroke-linecap="butt" d="m56.700787 28.341843l28.346455 0l0 28.31496l-28.346455 0z" fill-rule="evenodd"/><path fill="#000000" fill-opacity="0.0" d="m0 3.4540682E-4l85.03937 0l0 56.692913l-85.03937 0z" fill-rule="evenodd"/><path fill="#000000" fill-opacity="0.0" d="m28.345654 0.0475895l28.346455 0l0 28.31496l-28.346455 0z" fill-rule="evenodd"/><path stroke="#cccccc" stroke-width="1.0" stroke-linejoin="round" stroke-linecap="butt" d="m28.345654 0.0475895l28.346455 0l0 28.31496l-28.346455 0z" fill-rule="evenodd"/><path fill="#000000" fill-opacity="0.0" d="m0.007874016 0.0475895l28.346457 0l0 28.31496l-28.346457 0z" fill-rule="evenodd"/><path stroke="#cccccc" stroke-width="1.0" stroke-linejoin="round" stroke-linecap="butt" d="m0.007874016 0.0475895l28.346457 0l0 28.31496l-28.346457 0z" fill-rule="evenodd"/><path fill="#000000" fill-opacity="0.0" d="m56.700787 0.0475895l28.346455 0l0 28.31496l-28.346455 0z" fill-rule="evenodd"/><path stroke="#cccccc" stroke-width="1.0" stroke-linejoin="round" stroke-linecap="butt" d="m56.700787 0.0475895l28.346455 0l0 28.31496l-28.346455 0z" fill-rule="evenodd"/></g></svg>