<svg version="1.1" viewBox="0.0 0.0 85.03937007874016 56.69291338582677" fill="none" stroke="none" stroke-linecap="square" stroke-miterlimit="10" xmlns:xlink="http://www.w3.org/1999/xlink" xmlns="http://www.w3.org/2000/svg"><clipPath id="p.0"><path d="m0 0l85.03937 0l0 56.692913l-85.03937 0l0 -56.692913z" clip-rule="nonzero"/></clipPath><g clip-path="url(#p.0)"><path fill="#000000" fill-opacity="0.0" d="m0 0l85.03937 0l0 56.692913l-85.03937 0z" fill-rule="evenodd"/><path fill="#000000" d="m3.1496063E-6 0.044584777l85.039375 0l0 56.598423l-85.039375 0z" fill-rule="evenodd"/><path fill="#000000" fill-opacity="0.0" d="m28.33791 0l28.346455 0l0 28.31496l-28.346455 0z" fill-rule="evenodd"/><path stroke="#cccccc" stroke-width="1.0" stroke-linejoin="round" stroke-linecap="butt" d="m28.33791 0l28.346455 0l0 28.31496l-28.346455 0z" fill-rule="evenodd"/><path fill="#000000" fill-opacity="0.0" d="m28.33791 28.294252l28.346455 0l0 28.314962l-28.346455 0z" fill-rule="evenodd"/><path stroke="#cccccc" stroke-width="1.0" stroke-linejoin="round" stroke-linecap="butt" d="m28.33791 28.294252l28.346455 0l0 28.314962l-28.346455 0z" fill-rule="evenodd"/><path fill="#000000" fill-opacity="0.0" d="m1.3044619E-4 0l28.346457 0l0 28.31496l-28.346457 0z" fill-rule="evenodd"/><path stroke="#cccccc" stroke-width="1.0" stroke-linejoin="round" stroke-linecap="butt" d="m1.3044619E-4 0l28.346457 0l0 28.31496l-28.346457 0z" fill-rule="evenodd"/><path fill="#000000" fill-opacity="0.0" d="m1.3044619E-4 28.294252l28.346457 0l0 28.314962l-28.346457 0z" fill-rule="evenodd"/><path stroke="#cccccc" stroke-width="1.0" stroke-linejoin="round" stroke-linecap="butt" d="m1.3044619E-4 28.294252l28.346457 0l0 28.314962l-28.346457 0z" fill-rule="evenodd"/><path fill="#000000" fill-opacity="0.0" d="m56.693043 0l28.346455 0l0 28.31496l-28.346455 0z" fill-rule="evenodd"/><path stroke="#cccccc" stroke-width="1.0" stroke-linejoin="round" stroke-linecap="butt" d="m56.693043 0l28.346455 0l0 28.31496l-28.346455 0z" fill-rule="evenodd"/><path fill="#000000" fill-opacity="0.0" d="m56.693043 28.294252l28.346455 0l0 28.314962l-28.346455 0z" fill-rule="evenodd"/><path stroke="#cccccc" stroke-width="1.0" stroke-linejoin="round" stroke-linecap="butt" d="m56.693043 28.294252l28.346455 0l0 28.314962l-28.346455 0z" fill-rule="evenodd"/><path fill="#000000" fill-opacity="0.0" d="m0 0.044584777l85.03937 0l0 56.598423l-85.03937 0z" fill-rule="evenodd"/></g></svg>