<svg version="1.1" viewBox="0.0 0.0 239.24409448818898 59.338582677165356" fill="none" stroke="none" stroke-linecap="square" stroke-miterlimit="10" xmlns:xlink="http://www.w3.org/1999/xlink" xmlns="http://www.w3.org/2000/svg"><clipPath id="p.0"><path d="m0 0l239.2441 0l0 59.33858l-239.2441 0l0 -59.33858z" clip-rule="nonzero"/></clipPath><g clip-path="url(#p.0)"><path fill="#000000" fill-opacity="0.0" d="m0 0l239.2441 0l0 59.33858l-239.2441 0z" fill-rule="evenodd"/><path fill="#000000" fill-opacity="0.0" d="m18.50484 0l22.897636 0l0 22.897638l-22.897636 0z" fill-rule="evenodd"/><path fill="#434343" d="m31.037514 15.188818l-1.46875 0l0 -5.8125l-1.90625 0.6875l0 -1.265625l3.296875 -1.1875l0.078125 0l0 7.578125z" fill-rule="nonzero"/><path fill="#000000" fill-opacity="0.0" d="m80.69687 0l22.897636 0l0 22.897638l-22.897636 0z" fill-rule="evenodd"/><path fill="#434343" d="m94.63579 15.188818l-5.171875 0l0 -0.984375l2.453125 -2.640625q0.28125 -0.3125 0.484375 -0.5625q0.203125 -0.25 0.3125 -0.453125q0.125 -0.21875 0.171875 -0.40625q0.0625 -0.1875 0.0625 -0.359375q0 -0.25 -0.078125 -0.4375q-0.0625 -0.203125 -0.203125 -0.34375q-0.125 -0.140625 -0.3125 -0.203125q-0.1875 -0.078125 -0.40625 -0.078125q-0.59375 0 -0.890625 0.328125q-0.296875 0.328125 -0.296875 0.9375l-1.453125 0q0 -0.515625 0.1875 -0.953125q0.203125 -0.453125 0.546875 -0.796875q0.359375 -0.34375 0.859375 -0.53125q0.5 -0.203125 1.09375 -0.203125q0.578125 0 1.015625 0.171875q0.453125 0.15625 0.75 0.453125q0.296875 0.28125 0.453125 0.703125q0.15625 0.40625 0.15625 0.890625q0 0.375 -0.125 0.71875q-0.109375 0.34375 -0.328125 0.6875q-0.203125 0.328125 -0.515625 0.671875q-0.296875 0.34375 -0.671875 0.71875l-1.421875 1.515625l3.328125 0l0 1.15625z" fill-rule="nonzero"/><path fill="#000000" fill-opacity="0.0" d="m134.88889 0l22.897644 0l0 22.897638l-22.897644 0z" fill-rule="evenodd"/><path fill="#434343" d="m145.32782 10.766943l0.78125 0q0.59375 0 0.875 -0.296875q0.296875 -0.296875 0.296875 -0.78125q0 -0.234375 -0.0625 -0.40625q-0.0625 -0.1875 -0.203125 -0.3125q-0.125 -0.140625 -0.328125 -0.21875q-0.203125 -0.078125 -0.46875 -0.078125q-0.21875 0 -0.40625 0.0625q-0.1875 0.0625 -0.328125 0.1875q-0.140625 0.109375 -0.234375 0.28125q-0.078125 0.171875 -0.078125 0.375l-1.4375 0q0 -0.46875 0.1875 -0.84375q0.1875 -0.375 0.515625 -0.640625q0.34375 -0.28125 0.78125 -0.4375q0.453125 -0.15625 0.96875 -0.15625q0.5625 0 1.03125 0.140625q0.46875 0.140625 0.796875 0.421875q0.34375 0.265625 0.53125 0.671875q0.1875 0.40625 0.1875 0.9375q0 0.234375 -0.078125 0.484375q-0.078125 0.234375 -0.21875 0.453125q-0.140625 0.203125 -0.34375 0.390625q-0.203125 0.171875 -0.484375 0.296875q0.328125 0.125 0.546875 0.296875q0.234375 0.171875 0.390625 0.40625q0.15625 0.21875 0.21875 0.5q0.078125 0.265625 0.078125 0.5625q0 0.53125 -0.203125 0.953125q-0.203125 0.40625 -0.5625 0.703125q-0.34375 0.28125 -0.84375 0.4375q-0.484375 0.140625 -1.046875 0.140625q-0.46875 0 -0.9375 -0.125q-0.453125 -0.140625 -0.8125 -0.40625q-0.359375 -0.28125 -0.578125 -0.6875q-0.21875 -0.40625 -0.21875 -0.953125l1.453125 0q0 0.21875 0.078125 0.40625q0.078125 0.1875 0.234375 0.328125q0.15625 0.125 0.359375 0.203125q0.203125 0.0625 0.453125 0.0625q0.5625 0 0.875 -0.28125q0.3125 -0.296875 0.3125 -0.796875q0 -0.3125 -0.09375 -0.515625q-0.09375 -0.21875 -0.265625 -0.359375q-0.15625 -0.140625 -0.40625 -0.203125q-0.234375 -0.078125 -0.53125 -0.078125l-0.78125 0l0 -1.125z" fill-rule="nonzero"/><path fill="#000000" fill-opacity="0.0" d="m190.62378 0l22.897629 0l0 22.897638l-22.897629 0z" fill-rule="evenodd"/><path fill="#434343" d="m203.82832 12.376318l0.890625 0l0 1.171875l-0.890625 0l0 1.640625l-1.4375 0l0 -1.640625l-3.15625 0l-0.046875 -0.90625l3.171875 -5.03125l1.46875 0l0 4.765625zm-3.21875 0l1.78125 0l0 -2.8125l-0.140625 0.25l-1.640625 2.5625z" fill-rule="nonzero"/><path fill="#000000" fill-opacity="0.0" d="m0 41.725338l239.2441 0" fill-rule="evenodd"/><path stroke="#434343" stroke-width="1.0" stroke-linejoin="round" stroke-linecap="butt" d="m0 41.725338l233.2441 0" fill-rule="evenodd"/><path fill="#434343" stroke="#434343" stroke-width="1.0" stroke-linecap="butt" d="m233.2441 43.37707l4.538101 -1.6517334l-4.538101 -1.6517296z" fill-rule="evenodd"/><path fill="#434343" d="m74.43 41.611286l0 0c0 -9.775875 7.9249115 -17.700787 17.70079 -17.700787l0 0c4.694542 0 9.196808 1.8648987 12.51635 5.1844406c3.319542 3.319542 5.1844406 7.821804 5.1844406 12.516346l0 0c0 9.775875 -7.924919 17.700787 -17.70079 17.700787l0 0c-9.775879 0 -17.70079 -7.9249115 -17.70079 -17.700787z" fill-rule="evenodd"/><path fill="#434343" d="m128.60965 41.579792l17.70079 -17.700788l17.70079 17.700788l-17.70079 17.700787z" fill-rule="evenodd"/><path fill="#434343" d="m182.77428 32.745144l8.866135 0l0 -8.86614l17.795273 0l0 8.86614l8.86615 0l0 17.732285l-8.86615 0l0 8.866142l-17.795273 0l0 -8.866142l-8.866135 0z" fill-rule="evenodd"/><path fill="#434343" d="m12.253421 23.9105l35.401573 0l0 35.401573l-35.401573 0z" fill-rule="evenodd"/></g></svg>