<svg version="1.1" viewBox="0.0 0.0 102.4251968503937 102.4251968503937" fill="none" stroke="none" stroke-linecap="square" stroke-miterlimit="10" xmlns:xlink="http://www.w3.org/1999/xlink" xmlns="http://www.w3.org/2000/svg"><clipPath id="p.0"><path d="m0 0l102.42519 0l0 102.42519l-102.42519 0l0 -102.42519z" clip-rule="nonzero"/></clipPath><g clip-path="url(#p.0)"><path fill="#000000" fill-opacity="0.0" d="m0 0l102.42519 0l0 102.42519l-102.42519 0z" fill-rule="evenodd"/><path fill="#000000" d="m0 0.08067717l102.42519 0l0 102.42519l-102.42519 0z" fill-rule="evenodd"/><path fill="#000000" fill-opacity="0.0" d="m0 0l51.212597 0l0 51.212597l-51.212597 0z" fill-rule="evenodd"/><path stroke="#cccccc" stroke-width="1.0" stroke-linejoin="round" stroke-linecap="butt" d="m0 0l51.212597 0l0 51.212597l-51.212597 0z" fill-rule="evenodd"/><path fill="#000000" fill-opacity="0.0" d="m0 51.212597l51.212597 0l0 51.212597l-51.212597 0z" fill-rule="evenodd"/><path stroke="#cccccc" stroke-width="1.0" stroke-linejoin="round" stroke-linecap="butt" d="m0 51.212597l51.212597 0l0 51.212597l-51.212597 0z" fill-rule="evenodd"/><path fill="#000000" fill-opacity="0.0" d="m51.212597 0l51.212597 0l0 51.212597l-51.212597 0z" fill-rule="evenodd"/><path stroke="#cccccc" stroke-width="1.0" stroke-linejoin="round" stroke-linecap="butt" d="m51.212597 0l51.212597 0l0 51.212597l-51.212597 0z" fill-rule="evenodd"/><path fill="#000000" fill-opacity="0.0" d="m51.212597 51.212597l51.212597 0l0 51.212597l-51.212597 0z" fill-rule="evenodd"/><path stroke="#cccccc" stroke-width="1.0" stroke-linejoin="round" stroke-linecap="butt" d="m51.212597 51.212597l51.212597 0l0 51.212597l-51.212597 0z" fill-rule="evenodd"/><path fill="#000000" fill-opacity="0.0" d="m0 0.08067717l102.42519 0l0 102.42519l-102.42519 0z" fill-rule="evenodd"/><path fill="#000000" d="m44.53877 36.793274l13.347656 0l0 28.799995l-13.347656 0l0 -28.799995z" fill-rule="nonzero"/><path fill="#000000" fill-opacity="0.0" d="m44.53877 38.10671l13.347656 0l0 27.59766l-13.347656 0l0 -27.59766z" fill-rule="nonzero"/><path fill="#ffffff" d="m53.991894 59.83327l-3.296875 0l0 -12.40625q-1.8125 1.6875 -4.25 2.484375l0 -2.984375q1.28125 -0.421875 2.796875 -1.59375q1.515625 -1.1875 2.078125 -2.75l2.671875 0l0 17.25z" fill-rule="nonzero"/><path fill="#000000" fill-opacity="0.0" d="m57.886425 38.10671l0 0l0 27.59766l0 0l0 -27.59766z" fill-rule="nonzero"/></g></svg>