<svg version="1.1" viewBox="0.0 0.0 85.03937007874016 56.69291338582677" fill="none" stroke="none" stroke-linecap="square" stroke-miterlimit="10" xmlns:xlink="http://www.w3.org/1999/xlink" xmlns="http://www.w3.org/2000/svg"><clipPath id="p.0"><path d="m0 0l85.03937 0l0 56.692913l-85.03937 0l0 -56.692913z" clip-rule="nonzero"/></clipPath><g clip-path="url(#p.0)"><path fill="#000000" fill-opacity="0.0" d="m0 0l85.03937 0l0 56.692913l-85.03937 0z" fill-rule="evenodd"/><path fill="#000000" d="m0 28.362034l0 0c0 -15.637921 12.627686 -28.31496 28.204725 -28.31496l0 0c7.480356 0 14.654341 2.9831748 19.94375 8.29326c5.2894135 5.3100853 8.260975 12.512107 8.260975 20.021702l0 0c0 15.63792 -12.627686 28.31496 -28.204725 28.31496l0 0c-15.57704 0 -28.204725 -12.67704 -28.204725 -28.31496z" fill-rule="evenodd"/><path fill="#000000" d="m28.346457 0l28.346457 0l0 56.598427l-28.346457 0z" fill-rule="evenodd"/><path fill="#000000" d="m28.346457 28.362034l0 0c0 -15.637921 12.627684 -28.31496 28.204725 -28.31496l0 0c7.480358 0 14.654339 2.9831748 19.943752 8.29326c5.2894135 5.3100853 8.260971 12.512107 8.260971 20.021702l0 0c0 15.63792 -12.627686 28.31496 -28.204723 28.31496l0 0c-15.577042 0 -28.204725 -12.67704 -28.204725 -28.31496z" fill-rule="evenodd"/><path fill="#000000" fill-opacity="0.0" d="m28.337778 28.294252l28.346457 0l0 28.314962l-28.346457 0z" fill-rule="evenodd"/><path stroke="#cccccc" stroke-width="1.0" stroke-linejoin="round" stroke-linecap="butt" d="m28.337778 28.294252l28.346457 0l0 28.314962l-28.346457 0z" fill-rule="evenodd"/><path fill="#000000" fill-opacity="0.0" d="m0 28.294252l28.346457 0l0 28.314962l-28.346457 0z" fill-rule="evenodd"/><path stroke="#cccccc" stroke-width="1.0" stroke-linejoin="round" stroke-linecap="butt" d="m0 28.294252l28.346457 0l0 28.314962l-28.346457 0z" fill-rule="evenodd"/><path fill="#000000" fill-opacity="0.0" d="m28.337778 0l28.346457 0l0 28.31496l-28.346457 0z" fill-rule="evenodd"/><path stroke="#cccccc" stroke-width="1.0" stroke-linejoin="round" stroke-linecap="butt" d="m28.337778 0l28.346457 0l0 28.31496l-28.346457 0z" fill-rule="evenodd"/><path fill="#000000" fill-opacity="0.0" d="m0 0l28.346457 0l0 28.31496l-28.346457 0z" fill-rule="evenodd"/><path stroke="#cccccc" stroke-width="1.0" stroke-linejoin="round" stroke-linecap="butt" d="m0 0l28.346457 0l0 28.31496l-28.346457 0z" fill-rule="evenodd"/><path fill="#000000" fill-opacity="0.0" d="m56.692913 0l28.346455 0l0 28.31496l-28.346455 0z" fill-rule="evenodd"/><path stroke="#cccccc" stroke-width="1.0" stroke-linejoin="round" stroke-linecap="butt" d="m56.692913 0l28.346455 0l0 28.31496l-28.346455 0z" fill-rule="evenodd"/><path fill="#000000" fill-opacity="0.0" d="m56.692913 28.294252l28.346455 0l0 28.314962l-28.346455 0z" fill-rule="evenodd"/><path stroke="#cccccc" stroke-width="1.0" stroke-linejoin="round" stroke-linecap="butt" d="m56.692913 28.294252l28.346455 0l0 28.314962l-28.346455 0z" fill-rule="evenodd"/><path fill="#000000" fill-opacity="0.0" d="m0 0l85.03937 0l0 56.692913l-85.03937 0z" fill-rule="evenodd"/></g></svg>