<svg version="1.1" viewBox="0.0 0.0 102.4251968503937 102.4251968503937" fill="none" stroke="none" stroke-linecap="square" stroke-miterlimit="10" xmlns:xlink="http://www.w3.org/1999/xlink" xmlns="http://www.w3.org/2000/svg"><clipPath id="p.0"><path d="m0 0l102.42519 0l0 102.42519l-102.42519 0l0 -102.42519z" clip-rule="nonzero"/></clipPath><g clip-path="url(#p.0)"><path fill="#000000" fill-opacity="0.0" d="m0 0l102.42519 0l0 102.42519l-102.42519 0z" fill-rule="evenodd"/><path fill="#000000" d="m0 51.3064l51.212597 -51.2126l51.212597 51.2126l-51.212597 51.212597z" fill-rule="evenodd"/><path fill="#000000" fill-opacity="0.0" d="m0.094321 0l51.212597 0l0 51.212597l-51.212597 0z" fill-rule="evenodd"/><path stroke="#cccccc" stroke-width="1.0" stroke-linejoin="round" stroke-linecap="butt" d="m0.094321 0l51.212597 0l0 51.212597l-51.212597 0z" fill-rule="evenodd"/><path fill="#000000" fill-opacity="0.0" d="m0.094321 51.212597l51.212597 0l0 51.212597l-51.212597 0z" fill-rule="evenodd"/><path stroke="#cccccc" stroke-width="1.0" stroke-linejoin="round" stroke-linecap="butt" d="m0.094321 51.212597l51.212597 0l0 51.212597l-51.212597 0z" fill-rule="evenodd"/><path fill="#000000" fill-opacity="0.0" d="m51.30692 0l51.212597 0l0 51.212597l-51.212597 0z" fill-rule="evenodd"/><path stroke="#cccccc" stroke-width="1.0" stroke-linejoin="round" stroke-linecap="butt" d="m51.30692 0l51.212597 0l0 51.212597l-51.212597 0z" fill-rule="evenodd"/><path fill="#000000" fill-opacity="0.0" d="m51.30692 51.212597l51.212597 0l0 51.212597l-51.212597 0z" fill-rule="evenodd"/><path stroke="#cccccc" stroke-width="1.0" stroke-linejoin="round" stroke-linecap="butt" d="m51.30692 51.212597l51.212597 0l0 51.212597l-51.212597 0z" fill-rule="evenodd"/><path fill="#000000" fill-opacity="0.0" d="m2.8215224E-4 0.08067717l102.42519 0l0 102.42519l-102.42519 0z" fill-rule="evenodd"/><path fill="#000000" d="m44.53905 36.793274l13.347656 0l0 28.799995l-13.347656 0l0 -28.799995z" fill-rule="nonzero"/><path fill="#000000" fill-opacity="0.0" d="m44.53905 38.10671l13.347656 0l0 27.59766l-13.347656 0l0 -27.59766z" fill-rule="nonzero"/><path fill="#ffffff" d="m45.4453 55.27077l3.1875 -0.390625q0.15625 1.21875 0.8125 1.875q0.671875 0.640625 1.625 0.640625q1.015625 0 1.703125 -0.765625q0.703125 -0.78125 0.703125 -2.09375q0 -1.25 -0.671875 -1.96875q-0.65625 -0.734375 -1.625 -0.734375q-0.625 0 -1.5 0.25l0.359375 -2.6875q1.328125 0.046875 2.03125 -0.5625q0.703125 -0.625 0.703125 -1.640625q0 -0.875 -0.515625 -1.390625q-0.515625 -0.515625 -1.359375 -0.515625q-0.84375 0 -1.453125 0.59375q-0.59375 0.578125 -0.71875 1.703125l-3.03125 -0.515625q0.3125 -1.5625 0.953125 -2.484375q0.640625 -0.9375 1.78125 -1.46875q1.140625 -0.53125 2.5625 -0.53125q2.421875 0 3.890625 1.546875q1.203125 1.265625 1.203125 2.859375q0 2.265625 -2.46875 3.609375q1.46875 0.3125 2.34375 1.421875q0.890625 1.09375 0.890625 2.65625q0 2.265625 -1.65625 3.859375q-1.640625 1.59375 -4.109375 1.59375q-2.328125 0 -3.859375 -1.34375q-1.53125 -1.34375 -1.78125 -3.515625z" fill-rule="nonzero"/><path fill="#000000" fill-opacity="0.0" d="m57.886707 38.10671l0 0l0 27.59766l0 0l0 -27.59766z" fill-rule="nonzero"/></g></svg>