<svg version="1.1" viewBox="0.0 0.0 102.4251968503937 102.4251968503937" fill="none" stroke="none" stroke-linecap="square" stroke-miterlimit="10" xmlns:xlink="http://www.w3.org/1999/xlink" xmlns="http://www.w3.org/2000/svg"><clipPath id="p.0"><path d="m0 0l102.42519 0l0 102.42519l-102.42519 0l0 -102.42519z" clip-rule="nonzero"/></clipPath><g clip-path="url(#p.0)"><path fill="#000000" fill-opacity="0.0" d="m0 0l102.42519 0l0 102.42519l-102.42519 0z" fill-rule="evenodd"/><path fill="#000000" d="m0.52017665 51.31355l0 0c0 -28.292635 22.928661 -51.228348 51.2126 -51.228348l0 0c13.582424 0 26.608547 5.3972564 36.212772 15.004436c9.604225 9.607178 14.999825 22.63731 14.999825 36.22391l0 0c0 28.292637 -22.928665 51.228344 -51.212597 51.228344l0 0c-28.28394 0 -51.2126 -22.935707 -51.2126 -51.228344z" fill-rule="evenodd"/><path fill="#000000" fill-opacity="0.0" d="m0 0l51.212597 0l0 51.212597l-51.212597 0z" fill-rule="evenodd"/><path stroke="#cccccc" stroke-width="1.0" stroke-linejoin="round" stroke-linecap="butt" d="m0 0l51.212597 0l0 51.212597l-51.212597 0z" fill-rule="evenodd"/><path fill="#000000" fill-opacity="0.0" d="m0 51.212597l51.212597 0l0 51.212597l-51.212597 0z" fill-rule="evenodd"/><path stroke="#cccccc" stroke-width="1.0" stroke-linejoin="round" stroke-linecap="butt" d="m0 51.212597l51.212597 0l0 51.212597l-51.212597 0z" fill-rule="evenodd"/><path fill="#000000" fill-opacity="0.0" d="m51.212597 0l51.212597 0l0 51.212597l-51.212597 0z" fill-rule="evenodd"/><path stroke="#cccccc" stroke-width="1.0" stroke-linejoin="round" stroke-linecap="butt" d="m51.212597 0l51.212597 0l0 51.212597l-51.212597 0z" fill-rule="evenodd"/><path fill="#000000" fill-opacity="0.0" d="m51.212597 51.212597l51.212597 0l0 51.212597l-51.212597 0z" fill-rule="evenodd"/><path stroke="#cccccc" stroke-width="1.0" stroke-linejoin="round" stroke-linecap="butt" d="m51.212597 51.212597l51.212597 0l0 51.212597l-51.212597 0z" fill-rule="evenodd"/><path fill="#000000" fill-opacity="0.0" d="m0.5201344 0.099049866l102.42519 0l0 102.42519l-102.42519 0z" fill-rule="evenodd"/><path fill="#000000" d="m45.058903 36.811646l13.347656 0l0 28.799995l-13.347656 0l0 -28.799995z" fill-rule="nonzero"/><path fill="#000000" fill-opacity="0.0" d="m45.058903 38.12508l13.347656 0l0 27.59766l-13.347656 0l0 -27.59766z" fill-rule="nonzero"/><path fill="#ffffff" d="m57.199528 56.789143l0 3.0625l-11.546875 0q0.1875 -1.734375 1.125 -3.28125q0.9375 -1.5625 3.703125 -4.125q2.234375 -2.078125 2.734375 -2.8125q0.6875 -1.015625 0.6875 -2.015625q0 -1.109375 -0.59375 -1.6875q-0.59375 -0.59375 -1.640625 -0.59375q-1.03125 0 -1.640625 0.625q-0.609375 0.609375 -0.703125 2.046875l-3.28125 -0.328125q0.296875 -2.71875 1.84375 -3.890625q1.546875 -1.1875 3.859375 -1.1875q2.546875 0 4.0 1.375q1.453125 1.359375 1.453125 3.40625q0 1.15625 -0.421875 2.203125q-0.40625 1.046875 -1.3125 2.203125q-0.59375 0.765625 -2.15625 2.203125q-1.5625 1.421875 -1.984375 1.890625q-0.40625 0.46875 -0.65625 0.90625l6.53125 0z" fill-rule="nonzero"/><path fill="#000000" fill-opacity="0.0" d="m58.40656 38.12508l0 0l0 27.59766l0 0l0 -27.59766z" fill-rule="nonzero"/></g></svg>