<svg version="1.1" viewBox="0.0 0.0 103.93700787401575 102.80314960629921" fill="none" stroke="none" stroke-linecap="square" stroke-miterlimit="10" xmlns:xlink="http://www.w3.org/1999/xlink" xmlns="http://www.w3.org/2000/svg"><clipPath id="p.0"><path d="m0 0l103.937004 0l0 102.80315l-103.937004 0l0 -102.80315z" clip-rule="nonzero"/></clipPath><g clip-path="url(#p.0)"><path fill="#000000" fill-opacity="0.0" d="m0 0l103.937004 0l0 102.80315l-103.937004 0z" fill-rule="evenodd"/><path fill="#000000" d="m0.6450559 25.700478l25.606298 0l0 -25.6063l51.212597 0l0 25.6063l25.6063 0l0 51.401573l-25.6063 0l0 25.6063l-51.212597 0l0 -25.6063l-25.606298 0z" fill-rule="evenodd"/><path fill="#000000" fill-opacity="0.0" d="m0.57960314 51.307465l51.2126 0l0 51.2126l-51.2126 0z" fill-rule="evenodd"/><path stroke="#cccccc" stroke-width="1.0" stroke-linejoin="round" stroke-linecap="butt" d="m0.57960314 51.307465l51.2126 0l0 51.2126l-51.2126 0z" fill-rule="evenodd"/><path fill="#000000" fill-opacity="0.0" d="m0.57960314 0.09486562l51.2126 0l0 51.2126l-51.2126 0z" fill-rule="evenodd"/><path stroke="#cccccc" stroke-width="1.0" stroke-linejoin="round" stroke-linecap="butt" d="m0.57960314 0.09486562l51.2126 0l0 51.2126l-51.2126 0z" fill-rule="evenodd"/><path fill="#000000" fill-opacity="0.0" d="m51.792202 0.09486562l51.212597 0l0 51.2126l-51.212597 0z" fill-rule="evenodd"/><path stroke="#cccccc" stroke-width="1.0" stroke-linejoin="round" stroke-linecap="butt" d="m51.792202 0.09486562l51.212597 0l0 51.2126l-51.212597 0z" fill-rule="evenodd"/><path fill="#000000" fill-opacity="0.0" d="m51.792202 51.307465l51.212597 0l0 51.2126l-51.212597 0z" fill-rule="evenodd"/><path stroke="#cccccc" stroke-width="1.0" stroke-linejoin="round" stroke-linecap="butt" d="m51.792202 51.307465l51.212597 0l0 51.2126l-51.212597 0z" fill-rule="evenodd"/><path fill="#000000" fill-opacity="0.0" d="m-0.9790026 0.19391549l102.4252 0l0 102.42519l-102.4252 0z" fill-rule="evenodd"/><path fill="#000000" d="m43.559765 36.90651l13.347656 0l0 28.800003l-13.347656 0l0 -28.800003z" fill-rule="nonzero"/><path fill="#000000" fill-opacity="0.0" d="m43.559765 38.219948l13.347656 0l0 27.597656l-13.347656 0l0 -27.597656z" fill-rule="nonzero"/><path fill="#ffffff" d="m51.04414 59.94651l0 -3.453125l-7.03125 0l0 -2.890625l7.453125 -10.90625l2.765625 0l0 10.890625l2.125 0l0 2.90625l-2.125 0l0 3.453125l-3.1875 0zm0 -6.359375l0 -5.859375l-3.953125 5.859375l3.953125 0z" fill-rule="nonzero"/><path fill="#000000" fill-opacity="0.0" d="m56.90742 38.219948l0 0l0 27.597656l0 0l0 -27.597656z" fill-rule="nonzero"/></g></svg>