<?xml version="1.0" encoding="UTF-8"?>
<svg width="1056px" height="430px" viewBox="0 0 1056 430" version="1.1" xmlns="http://www.w3.org/2000/svg" xmlns:xlink="http://www.w3.org/1999/xlink">
    <!-- Generator: Sketch 61.2 (89653) - https://sketch.com -->
    <title>404</title>
    <desc>Created with Sketch.</desc>
    <g id="Page-1" stroke="none" stroke-width="1" fill="none" fill-rule="evenodd">
        <g id="404">
            <ellipse id="Oval" fill="#F2F2F2" fill-rule="nonzero" cx="527.64346" cy="394.3094" rx="527.5" ry="34.9216"></ellipse>
            <path d="M507.42569,12.00974 C421.48162,12.00974 359.77469,67.14912 359.77469,195.80765 C359.77469,341.62065 421.4816,380.21822 507.42569,380.21822 C593.36978,380.21822 658.75269,337.9447 658.75269,195.80765 C658.75269,43.86805 593.36976,12.00974 507.42569,12.00974 Z M507.99064,331.81811 C448.46378,331.81811 417.36472,296.89523 417.36472,195.90181 C417.36472,106.78996 449.73681,59.7972 509.26372,59.7972 C568.79063,59.7972 601.16272,90.66494 601.16272,195.90181 C601.16272,294.34917 567.5175,331.81811 507.99064,331.81811 Z" id="Shape" fill="#2F2E41" fill-rule="nonzero"></path>
            <path d="M308.31131,278.51671 L272.777,278.51671 L272.777,173.87733 C272.776989,162.303749 263.394751,152.921511 251.82117,152.9215 L243.49479,152.9215 C237.936951,152.921497 232.606746,155.129338 228.67676,159.059323 C224.746774,162.989307 222.53893,168.319511 222.53893,173.87735 L222.53893,278.51671 L122.30885,278.51671 C118.114876,278.516715 114.227157,276.320514 112.062392,272.72841 C109.897628,269.136306 109.771974,264.672913 111.73122,260.96471 L217.81362,60.18437 C220.486199,55.125996 220.97452,49.194872 219.165253,43.767499 C217.355985,38.340126 213.406444,33.888407 208.23324,31.4455 L201.97093,28.4883 C191.871693,23.719216 179.806884,27.708687 174.54163,37.55835 L45.16016,279.5909 C42.956972,283.712375 41.80432,288.313628 41.80432,292.98702 L41.80432,292.98702 C41.80432,300.523368 44.7981234,307.751047 50.1271274,313.08005 C55.4561315,318.409052 62.6838116,321.402853 70.22016,321.40285 L222.53893,321.40285 L222.53893,387.57012 C222.53893,394.232093 225.185388,400.621209 229.896115,405.331935 C234.606841,410.042662 240.995957,412.68912 247.65793,412.68912 L247.65798,412.68912 C254.319953,412.68912 260.709069,410.042662 265.419795,405.331935 C270.130522,400.621209 272.77698,394.232093 272.77698,387.57012 L272.77698,321.40289 L308.31126,321.40289 C320.153941,321.40289 329.75433,311.802501 329.75433,299.95982 L329.75433,299.95982 C329.75433,288.117143 320.153987,278.516738 308.31131,278.51671 Z" id="Path" fill="#7B93DB" fill-rule="nonzero"></path>
            <path d="M966.30783,278.51671 L930.77355,278.51671 L930.77355,173.87733 C930.773539,162.303738 921.391282,152.921494 909.81769,152.9215 L901.49131,152.9215 C895.933471,152.921497 890.603266,155.129338 886.67328,159.059323 C882.743294,162.989307 880.53545,168.319511 880.53545,173.87735 L880.53545,278.51671 L780.30537,278.51671 C776.111394,278.516721 772.22367,276.320521 770.058904,272.728415 C767.894139,269.136309 767.768488,264.672913 769.72774,260.96471 L875.81013,60.18441 C878.48272,55.126033 878.971048,49.194901 877.161782,43.767519 C875.352516,38.340137 871.402971,33.88841 866.22976,31.4455 L859.96745,28.4883 C849.86821,23.719215 837.803398,27.708686 832.53814,37.55835 L703.15668,279.5909 C700.953492,283.712375 699.80084,288.313628 699.80084,292.98702 L699.80084,292.98702 C699.80084,308.68065 712.52304,321.40285 728.21667,321.40285 L880.53545,321.40285 L880.53545,387.57012 C880.53545,401.442961 891.781609,412.68912 905.65445,412.68912 L905.65445,412.68912 C919.527291,412.68912 930.77345,401.442961 930.77345,387.57012 L930.77345,321.40289 L966.30773,321.40289 C978.150411,321.40289 987.7508,311.802501 987.7508,299.95982 L987.7508,299.95982 C987.7508,288.117163 978.150487,278.516765 966.30783,278.51671 L966.30783,278.51671 Z" id="Path" fill="#7B93DB" fill-rule="nonzero"></path>
            <path d="M318.11387,266.2635 L282.57958,266.2635 L282.57958,161.62414 C282.579583,156.066301 280.371742,150.736096 276.441757,146.80611 C272.511773,142.876124 267.181569,140.66828 261.62373,140.66828 L253.29735,140.66828 C241.723748,140.66828 232.34149,150.050538 232.34149,161.62414 L232.34149,266.2635 L132.11141,266.2635 C127.917436,266.263505 124.029717,264.067304 121.864952,260.4752 C119.700188,256.883096 119.574534,252.419703 121.53378,248.7115 L227.61617,47.93122 C230.288767,42.872841 230.777098,36.941704 228.967832,31.514317 C227.158566,26.086931 223.209016,21.6352 218.0358,19.19229 L211.77349,16.23509 C201.674263,11.465997 189.609456,15.455445 184.34418,25.30509 L54.96272,267.3377 C52.7595319,271.459178 51.60688,276.060435 51.60688,280.73383 L51.60688,280.73383 C51.60688,296.42746 64.3290804,309.14966 80.02271,309.14966 L232.34149,309.14966 L232.34149,375.31693 C232.34149,381.978903 234.987948,388.368019 239.698675,393.078745 C244.409401,397.789472 250.798517,400.43593 257.46049,400.43593 L257.46054,400.43593 C271.333381,400.43593 282.57954,389.189771 282.57954,375.31693 L282.57954,309.1497 L318.11383,309.1497 C323.800886,309.1497 329.255015,306.890526 333.27637,302.86917 C337.297726,298.847815 339.5569,293.393686 339.5569,287.70663 L339.5569,287.70663 C339.5569,282.019571 337.297754,276.565433 333.276406,272.544065 C329.255057,268.522698 323.800929,266.263511 318.11387,266.2635 L318.11387,266.2635 Z" id="Path" stroke="#3F3D56"></path>
            <path d="M984.68762,266.2635 L949.15334,266.2635 L949.15334,161.62414 C949.15334,150.050538 939.771082,140.66828 928.19748,140.66828 L919.8711,140.66828 C914.31326,140.66828 908.983055,142.876123 905.053069,146.806109 C901.123083,150.736095 898.91524,156.0663 898.91524,161.62414 L898.91524,266.2635 L798.68516,266.2635 C794.491186,266.263505 790.603467,264.067304 788.438702,260.4752 C786.273938,256.883096 786.148284,252.419703 788.10753,248.7115 L894.18992,47.93122 C896.862517,42.872841 897.350848,36.941704 895.541582,31.514317 C893.732316,26.086931 889.782766,21.6352 884.60955,19.19229 L878.34724,16.23509 C868.248013,11.465997 856.183206,15.455445 850.91793,25.30509 L721.53647,267.3377 C719.333282,271.459178 718.18063,276.060435 718.18063,280.73383 L718.18063,280.73383 C718.18063,296.42746 730.90283,309.14966 746.59646,309.14966 L898.91524,309.14966 L898.91524,375.31693 C898.91524,389.189771 910.161399,400.43593 924.03424,400.43593 L924.03424,400.43593 C937.907081,400.43593 949.15324,389.189771 949.15324,375.31693 L949.15324,309.1497 L984.68752,309.1497 C990.37458,309.1497 995.8287,306.890526 999.85006,302.86917 C1003.87142,298.847815 1006.13059,293.393686 1006.13059,287.70663 L1006.13059,287.70663 C1006.13059,275.863965 996.53028,266.263555 984.68762,266.2635 Z" id="Path" stroke="#3F3D56"></path>
            <path d="M527.0308,0.98187 C441.08673,0.98187 379.3798,56.12124 379.3798,184.77978 C379.3798,330.59278 441.08671,369.19035 527.0308,369.19035 C612.97489,369.19035 678.3578,326.91683 678.3578,184.77978 C678.3578,32.84017 612.97487,0.98187 527.0308,0.98187 Z M527.5958,320.79023 C468.06894,320.79023 436.96988,285.86736 436.96988,184.87394 C436.96988,95.76209 469.34197,48.76933 528.86888,48.76933 C588.39579,48.76933 620.76788,79.63707 620.76788,184.87394 C620.76788,283.32129 587.12261,320.79023 527.59575,320.79023 L527.5958,320.79023 Z" id="Shape" stroke="#3F3D56"></path>
            <path d="M563.24219,29.18876 C562.46508,32.38221 559.11427,34.93976 555.40338,36.72667 C547.6015,40.48349 537.97808,41.60455 528.64368,41.98085 C526.26243,42.125561 523.873459,42.081423 521.49918,41.84885 C516.898293,41.403837 512.582066,39.419722 509.24866,36.21744 C508.764963,35.902183 508.476921,35.360735 508.485048,34.783439 C508.494667,34.206143 508.799213,33.673803 509.29237,33.37356 C514.26177,27.91468 522.55457,24.56751 530.9085,22.15747 C537.2429,20.33004 548.2898,15.59658 555.19863,16.23537 C561.89044,16.85414 564.2234,25.15662 563.24219,29.18876 Z" id="Path" fill="#3F3D56" fill-rule="nonzero"></path>
            <path d="M563.24219,29.18876 C562.46508,32.38221 559.11427,34.93976 555.40338,36.72667 C547.6015,40.48349 537.97808,41.60455 528.64368,41.98085 C526.26243,42.125561 523.873459,42.081423 521.49918,41.84885 C516.898293,41.403837 512.582066,39.419722 509.24866,36.21744 C508.764963,35.902183 508.476921,35.360735 508.485048,34.783439 C508.494667,34.206143 508.799213,33.673803 509.29237,33.37356 C514.26177,27.91468 522.55457,24.56751 530.9085,22.15747 C537.2429,20.33004 548.2898,15.59658 555.19863,16.23537 C561.89044,16.85414 564.2234,25.15662 563.24219,29.18876 Z" id="Path" fill="#000000" fill-rule="nonzero" opacity="0.1"></path>
        </g>
    </g>
</svg>