<svg version="1.1" viewBox="0.0 0.0 704.1259842519685 458.0787401574803" fill="none" stroke="none" stroke-linecap="square" stroke-miterlimit="10" xmlns:xlink="http://www.w3.org/1999/xlink" xmlns="http://www.w3.org/2000/svg"><clipPath id="p.0"><path d="m0 0l704.126 0l0 458.07874l-704.126 0l0 -458.07874z" clip-rule="nonzero"/></clipPath><g clip-path="url(#p.0)"><path fill="#000000" fill-opacity="0.0" d="m0 0l704.126 0l0 458.07874l-704.126 0z" fill-rule="evenodd"/><path fill="#ffffff" d="m325.67047 97.98942l378.3307 0l0 75.62205l-378.3307 0z" fill-rule="evenodd"/><path stroke="#cccccc" stroke-width="1.0" stroke-linejoin="round" stroke-linecap="butt" d="m325.67047 97.98942l378.3307 0l0 75.62205l-378.3307 0z" fill-rule="evenodd"/><path fill="#000000" fill-opacity="0.0" d="m325.7847 116.88055l37.82675 0l0 37.79528l-37.82675 0z" fill-rule="evenodd"/><path fill="#000000" fill-opacity="0.0" d="m325.7847 135.77818l37.82675 0" fill-rule="evenodd"/><path stroke="#000000" stroke-width="1.0" stroke-linejoin="round" stroke-linecap="butt" d="m325.7847 135.77818l37.82675 0" fill-rule="evenodd"/><path fill="#89c540" d="m325.8162 135.77818l18.897644 -18.897636l18.897614 18.897636l-18.897614 18.897644z" fill-rule="evenodd"/><path fill="#000000" d="m359.83194 116.87952l3.7795105 0l0 37.795273l-3.7795105 0z" fill-rule="evenodd"/><path fill="#ffffff" d="m325.67047 192.496l378.3307 0l0 75.62204l-378.3307 0z" fill-rule="evenodd"/><path stroke="#cccccc" stroke-width="1.0" stroke-linejoin="round" stroke-linecap="butt" d="m325.67047 192.496l378.3307 0l0 75.62204l-378.3307 0z" fill-rule="evenodd"/><path fill="#000000" fill-opacity="0.0" d="m360.5656 211.3677l113.38583 0l0 37.795273l-113.38583 0z" fill-rule="evenodd"/><path fill="#000000" fill-opacity="0.0" d="m360.5656 230.26535l113.38583 0" fill-rule="evenodd"/><path stroke="#000000" stroke-width="1.0" stroke-linejoin="round" stroke-linecap="butt" d="m360.5656 230.26535l113.38583 0" fill-rule="evenodd"/><path fill="#000000" fill-opacity="0.0" d="m325.7836 153.5268l37.795288 0l0 38.528503l-37.795288 0z" fill-rule="evenodd"/><path fill="#000000" fill-opacity="0.0" d="m344.68124 153.5268l0 38.528503" fill-rule="evenodd"/><path stroke="#000000" stroke-width="1.0" stroke-linejoin="round" stroke-linecap="butt" stroke-dasharray="4.0,3.0" d="m344.6812 153.5268l0 32.528503" fill-rule="evenodd"/><path fill="#000000" stroke="#000000" stroke-width="1.0" stroke-linecap="butt" d="m343.02948 186.0553l1.6517334 4.538101l1.6517334 -4.538101z" fill-rule="evenodd"/><path fill="#ffffff" d="m325.67047 287.0026l378.3307 0l0 75.62204l-378.3307 0z" fill-rule="evenodd"/><path stroke="#cccccc" stroke-width="1.0" stroke-linejoin="round" stroke-linecap="butt" d="m325.67047 287.0026l378.3307 0l0 75.62204l-378.3307 0z" fill-rule="evenodd"/><path fill="#000000" fill-opacity="0.0" d="m514.65735 211.36873l37.826782 0l0 37.795288l-37.826782 0z" fill-rule="evenodd"/><path fill="#000000" fill-opacity="0.0" d="m514.65735 230.26637l37.826782 0" fill-rule="evenodd"/><path stroke="#000000" stroke-width="1.0" stroke-linejoin="round" stroke-linecap="butt" d="m514.65735 230.26637l37.826782 0" fill-rule="evenodd"/><path fill="#89c540" d="m514.68884 230.26637l18.897644 -18.897644l18.897644 18.897644l-18.897644 18.897644z" fill-rule="evenodd"/><path fill="#000000" d="m548.7046 211.3677l3.779541 0l0 37.795273l-3.779541 0z" fill-rule="evenodd"/><path fill="#000000" fill-opacity="0.0" d="m325.62683 401.3802l285.3228 0l0 37.795258l-285.3228 0z" fill-rule="evenodd"/><path fill="#000000" fill-opacity="0.0" d="m325.62683 420.27783l285.3228 0" fill-rule="evenodd"/><path stroke="#000000" stroke-width="1.0" stroke-linejoin="round" stroke-linecap="butt" d="m325.62683 420.27783l285.3228 0" fill-rule="evenodd"/><path fill="#000000" fill-opacity="0.0" d="m610.481 362.92004l37.795288 0l0 38.960632l-37.795288 0z" fill-rule="evenodd"/><path fill="#000000" fill-opacity="0.0" d="m629.37866 362.92004l0 38.960632" fill-rule="evenodd"/><path stroke="#000000" stroke-width="1.0" stroke-linejoin="round" stroke-linecap="butt" stroke-dasharray="4.0,3.0" d="m629.37866 362.92004l0 32.9606" fill-rule="evenodd"/><path fill="#000000" stroke="#000000" stroke-width="1.0" stroke-linecap="butt" d="m627.7269 395.88065l1.6517334 4.5381165l1.6517334 -4.5381165z" fill-rule="evenodd"/><path fill="#000000" fill-opacity="0.0" d="m611.2243 401.38684l37.82672 0l0 37.795288l-37.82672 0z" fill-rule="evenodd"/><path fill="#000000" fill-opacity="0.0" d="m611.2243 420.2845l37.82672 0" fill-rule="evenodd"/><path stroke="#000000" stroke-width="1.0" stroke-linejoin="round" stroke-linecap="butt" d="m611.2243 420.2845l37.82672 0" fill-rule="evenodd"/><path fill="#6734ba" d="m611.2558 420.2845l0 0c0 -10.436859 8.460754 -18.897644 18.897644 -18.897644l0 0c5.011963 0 9.8186035 1.9909973 13.36261 5.5350037c3.5440063 3.5440063 5.534973 8.3506775 5.534973 13.36264l0 0c0 10.43689 -8.460754 18.897644 -18.897583 18.897644l0 0c-10.43689 0 -18.897644 -8.460754 -18.897644 -18.897644z" fill-rule="evenodd"/><path fill="#000000" d="m645.27155 401.38583l3.77948 0l0 37.795258l-3.77948 0z" fill-rule="evenodd"/><path fill="#000000" fill-opacity="0.0" d="m174.04199 96.0l151.18109 0l0 75.590546l-151.18109 0z" fill-rule="evenodd"/><path fill="#000000" d="m244.2198 139.84277q-0.765625 0 -1.46875 -0.265625q-0.6875 -0.28125 -1.21875 -0.796875q-0.53125 -0.515625 -0.84375 -1.265625q-0.3125 -0.765625 -0.3125 -1.734375q0 -0.96875 0.3125 -1.734375q0.3125 -0.765625 0.84375 -1.28125q0.53125 -0.53125 1.21875 -0.796875q0.703125 -0.28125 1.46875 -0.28125q0.765625 0 1.453125 0.28125q0.703125 0.265625 1.234375 0.796875q0.53125 0.515625 0.84375 1.28125q0.3125 0.765625 0.3125 1.734375q0 0.96875 -0.3125 1.734375q-0.3125 0.75 -0.84375 1.265625q-0.53125 0.515625 -1.234375 0.796875q-0.6875 0.265625 -1.453125 0.265625zm0 -1.078125q0.5625 0 1.015625 -0.21875q0.453125 -0.21875 0.78125 -0.609375q0.328125 -0.390625 0.5 -0.9375q0.1875 -0.546875 0.1875 -1.21875q0 -0.671875 -0.1875 -1.21875q-0.171875 -0.546875 -0.5 -0.953125q-0.328125 -0.40625 -0.78125 -0.609375q-0.453125 -0.21875 -1.015625 -0.21875q-0.5625 0 -1.015625 0.21875q-0.453125 0.203125 -0.78125 0.609375q-0.328125 0.40625 -0.515625 0.953125q-0.171875 0.546875 -0.171875 1.21875q0 0.671875 0.171875 1.21875q0.1875 0.546875 0.515625 0.9375q0.328125 0.390625 0.78125 0.609375q0.453125 0.21875 1.015625 0.21875zm8.678146 0.890625l0 -6.703125l-2.234375 0l0 -1.0l2.234375 -0.078125l0 -0.65625q0 -1.421875 0.75 -2.28125q0.765625 -0.859375 2.390625 -0.859375q1.140625 0 2.234375 0.4375l-0.3125 1.0q-0.46875 -0.234375 -0.890625 -0.296875q-0.40625 -0.078125 -0.90625 -0.078125q-1.0625 0 -1.515625 0.546875q-0.453125 0.53125 -0.453125 1.484375l0 0.703125l3.265625 0l0 1.078125l-3.265625 0l0 6.703125l-1.296875 0zm12.646912 2.8125q-1.65625 -1.296875 -2.625 -3.109375q-0.96875 -1.828125 -0.96875 -4.15625q0 -2.3125 0.96875 -4.140625q0.96875 -1.828125 2.625 -3.125l0.71875 0.671875q-1.609375 1.359375 -2.375 2.96875q-0.75 1.59375 -0.75 3.625q0 2.03125 0.75 3.640625q0.765625 1.59375 2.375 2.953125l-0.71875 0.671875zm8.975006 -2.625q-0.84375 0 -1.421875 -0.21875q-0.578125 -0.234375 -0.9375 -0.65625q-0.34375 -0.4375 -0.5 -1.015625q-0.140625 -0.59375 -0.140625 -1.328125l0 -3.671875l-2.1875 0l0 -1.0l2.234375 -0.078125l0.171875 -2.484375l1.09375 0l0 2.484375l3.828125 0l0 1.078125l-3.828125 0l0 3.6875q0 0.53125 0.09375 0.921875q0.09375 0.390625 0.3125 0.671875q0.234375 0.265625 0.609375 0.40625q0.390625 0.140625 0.953125 0.140625q0.5625 0 1.0 -0.09375q0.453125 -0.109375 0.875 -0.265625l0.28125 0.96875q-0.53125 0.1875 -1.109375 0.3125q-0.578125 0.140625 -1.328125 0.140625zm5.6469116 -0.1875l0 -7.78125l1.078125 0l0.109375 1.84375l0.046875 0q0.609375 -0.9375 1.5 -1.484375q0.890625 -0.546875 1.984375 -0.546875q0.421875 0 0.78125 0.078125q0.375 0.0625 0.75 0.25l-0.3125 1.125q-0.40625 -0.140625 -0.6875 -0.203125q-0.28125 -0.0625 -0.75 -0.0625q-0.875 0 -1.6875 0.5q-0.796875 0.5 -1.515625 1.71875l0 4.5625l-1.296875 0zm11.193756 0.1875q-1.40625 0 -2.0625 -0.78125q-0.640625 -0.796875 -0.640625 -2.34375l0 -4.84375l1.328125 0l0 4.65625q0 1.109375 0.40625 1.65625q0.40625 0.53125 1.390625 0.53125q0.671875 0 1.203125 -0.34375q0.546875 -0.34375 1.203125 -1.109375l0 -5.390625l1.3125 0l0 7.78125l-1.0625 0l-0.125 -1.359375l-0.0625 0q-0.59375 0.6875 -1.296875 1.125q-0.6875 0.421875 -1.59375 0.421875zm10.943787 0q-0.875 0 -1.640625 -0.265625q-0.765625 -0.28125 -1.328125 -0.796875q-0.5625 -0.53125 -0.890625 -1.28125q-0.328125 -0.765625 -0.328125 -1.75q0 -0.9375 0.328125 -1.6875q0.328125 -0.765625 0.875 -1.28125q0.546875 -0.53125 1.25 -0.8125q0.71875 -0.28125 1.515625 -0.28125q0.828125 0 1.484375 0.265625q0.671875 0.265625 1.125 0.75q0.453125 0.46875 0.6875 1.140625q0.25 0.671875 0.25 1.5q0 0.21875 -0.015625 0.421875q-0.015625 0.203125 -0.046875 0.375l-6.125 0q0.125 1.328125 0.953125 2.0q0.84375 0.65625 2.0625 0.65625q0.703125 0 1.265625 -0.203125q0.578125 -0.203125 1.109375 -0.53125l0.46875 0.859375q-0.5625 0.375 -1.3125 0.65625q-0.75 0.265625 -1.6875 0.265625zm-0.1875 -7.109375q-0.484375 0 -0.921875 0.15625q-0.4375 0.15625 -0.796875 0.453125q-0.34375 0.296875 -0.59375 0.75q-0.234375 0.4375 -0.328125 1.015625l4.953125 0q-0.078125 -1.203125 -0.703125 -1.78125q-0.609375 -0.59375 -1.609375 -0.59375zm7.178131 9.734375l-0.71875 -0.671875q1.609375 -1.359375 2.375 -2.953125q0.765625 -1.609375 0.765625 -3.640625q0 -2.03125 -0.765625 -3.625q-0.765625 -1.609375 -2.375 -2.96875l0.71875 -0.671875q1.671875 1.296875 2.625 3.125q0.96875 1.828125 0.96875 4.140625q0 2.328125 -0.96875 4.15625q-0.953125 1.8125 -2.625 3.109375z" fill-rule="nonzero"/><path fill="#000000" fill-opacity="0.0" d="m174.14699 190.48819l151.1811 0l0 75.590546l-151.1811 0z" fill-rule="evenodd"/><path fill="#000000" d="m224.67163 234.33096q-0.78125 0 -1.390625 -0.265625q-0.609375 -0.28125 -1.0625 -0.796875q-0.453125 -0.515625 -0.703125 -1.265625q-0.234375 -0.75 -0.234375 -1.734375q0 -0.9375 0.296875 -1.703125q0.296875 -0.765625 0.78125 -1.28125q0.5 -0.53125 1.140625 -0.8125q0.640625 -0.296875 1.328125 -0.296875q0.703125 0 1.25 0.265625q0.546875 0.265625 1.0625 0.75l0.046875 0l-0.0625 -1.453125l0 -2.984375l1.3125 0l0 11.390625l-1.078125 0l-0.125 -1.03125l-0.046875 0q-0.46875 0.5 -1.140625 0.859375q-0.65625 0.359375 -1.375 0.359375zm0.265625 -1.09375q1.15625 0 2.1875 -1.171875l0 -3.875q-0.53125 -0.5 -1.03125 -0.703125q-0.5 -0.203125 -1.015625 -0.203125q-0.515625 0 -0.953125 0.21875q-0.4375 0.203125 -0.765625 0.609375q-0.328125 0.390625 -0.53125 0.9375q-0.1875 0.53125 -0.1875 1.203125q0 1.40625 0.59375 2.203125q0.609375 0.78125 1.703125 0.78125zm10.271896 1.09375q-0.875 0 -1.640625 -0.265625q-0.765625 -0.28125 -1.328125 -0.796875q-0.5625 -0.53125 -0.890625 -1.28125q-0.328125 -0.765625 -0.328125 -1.75q0 -0.9375 0.328125 -1.6875q0.328125 -0.765625 0.875 -1.28125q0.546875 -0.53125 1.25 -0.8125q0.71875 -0.28125 1.515625 -0.28125q0.828125 0 1.484375 0.265625q0.671875 0.265625 1.125 0.75q0.453125 0.46875 0.6875 1.140625q0.25 0.671875 0.25 1.5q0 0.21875 -0.015625 0.421875q-0.015625 0.203125 -0.046875 0.375l-6.125 0q0.125 1.328125 0.953125 2.0q0.84375 0.65625 2.0625 0.65625q0.703125 0 1.265625 -0.203125q0.578125 -0.203125 1.109375 -0.53125l0.46875 0.859375q-0.5625 0.375 -1.3125 0.65625q-0.75 0.265625 -1.6875 0.265625zm-0.1875 -7.109375q-0.484375 0 -0.921875 0.15625q-0.4375 0.15625 -0.796875 0.453125q-0.34375 0.296875 -0.59375 0.75q-0.234375 0.4375 -0.328125 1.015625l4.953125 0q-0.078125 -1.203125 -0.703125 -1.78125q-0.609375 -0.59375 -1.609375 -0.59375zm11.021896 7.109375q-1.25 0 -1.90625 -0.703125q-0.65625 -0.703125 -0.65625 -2.09375l0 -7.703125l-2.765625 0l0 -1.078125l4.078125 0l0 8.875q0 0.875 0.40625 1.25q0.421875 0.375 1.125 0.375q0.6875 0 1.453125 -0.359375l0.34375 0.984375q-0.546875 0.21875 -1.0 0.328125q-0.4375 0.125 -1.078125 0.125zm7.0218964 0q-0.546875 0 -1.03125 -0.15625q-0.46875 -0.140625 -0.828125 -0.421875q-0.359375 -0.28125 -0.578125 -0.6875q-0.203125 -0.40625 -0.203125 -0.9375q0 -0.65625 0.3125 -1.140625q0.3125 -0.484375 0.984375 -0.84375q0.6875 -0.359375 1.75 -0.578125q1.078125 -0.21875 2.5781097 -0.34375q-0.015625 -0.40625 -0.12498474 -0.75q-0.109375 -0.359375 -0.359375 -0.625q-0.234375 -0.265625 -0.625 -0.421875q-0.390625 -0.15625 -0.953125 -0.15625q-0.765625 0 -1.46875 0.296875q-0.703125 0.296875 -1.25 0.625l-0.515625 -0.890625q0.296875 -0.203125 0.6875 -0.390625q0.390625 -0.203125 0.828125 -0.359375q0.4375 -0.171875 0.9375 -0.265625q0.5 -0.109375 1.015625 -0.109375q1.59375 0 2.3593597 0.875q0.78125 0.875 0.78125 2.328125l0 4.765625l-1.0625 0l-0.109375 -1.0625l-0.046875 0q-0.65623474 0.515625 -1.4531097 0.890625q-0.796875 0.359375 -1.625 0.359375zm0.34375 -1.046875q0.671875 0 1.3125 -0.296875q0.65625 -0.296875 1.3281097 -0.859375l0 -2.046875q-1.2343597 0.09375 -2.0781097 0.28125q-0.84375 0.171875 -1.359375 0.421875q-0.5 0.234375 -0.703125 0.546875q-0.203125 0.3125 -0.203125 0.703125q0 0.328125 0.140625 0.5625q0.140625 0.234375 0.375 0.390625q0.234375 0.140625 0.546875 0.21875q0.3125 0.078125 0.640625 0.078125zm7.4125214 4.203125q-0.578125 0 -1.015625 -0.15625l0.265625 -1.046875q0.15625 0.046875 0.34375 0.078125q0.1875 0.03125 0.359375 0.03125q0.8125 0 1.328125 -0.46875q0.515625 -0.46875 0.796875 -1.1875l0.25 -0.578125l-3.640625 -7.796875l1.328125 0l1.90625 4.3125q0.21875 0.515625 0.46875 1.109375q0.25 0.578125 0.484375 1.140625l0.078125 0q0.203125 -0.5625 0.421875 -1.140625q0.21875 -0.578125 0.40625 -1.109375l1.6875 -4.3125l1.25 0l-3.421875 8.421875q-0.21875 0.578125 -0.515625 1.0625q-0.28125 0.5 -0.6875 0.859375q-0.390625 0.359375 -0.921875 0.5625q-0.515625 0.21875 -1.171875 0.21875zm14.428131 -0.53125q-1.65625 -1.296875 -2.625 -3.109375q-0.96875 -1.828125 -0.96875 -4.15625q0 -2.3125 0.96875 -4.140625q0.96875 -1.828125 2.625 -3.125l0.71875 0.671875q-1.609375 1.359375 -2.375 2.96875q-0.75 1.59375 -0.75 3.625q0 2.03125 0.75 3.640625q0.765625 1.59375 2.375 2.953125l-0.71875 0.671875z" fill-rule="nonzero"/><path fill="#000000" d="m282.45926 234.33096q-1.328125 0 -2.25 -0.40625q-0.921875 -0.40625 -1.546875 -1.015625l1.0625 -1.484375q0.5 0.421875 1.078125 0.71875q0.59375 0.28125 1.3125 0.28125q0.875 0 1.421875 -0.390625q0.546875 -0.40625 0.546875 -1.1875q0 -0.765625 -0.515625 -1.15625q-0.515625 -0.40625 -1.34375 -0.40625q-0.25 0 -0.453125 0.03125q-0.203125 0.015625 -0.390625 0.078125q-0.1875 0.0625 -0.40625 0.15625q-0.203125 0.09375 -0.453125 0.234375l-1.046875 -0.671875l0.28125 -5.125l6.21875 0l0 1.984375l-4.1875 0l-0.171875 1.90625q0.34375 -0.140625 0.640625 -0.1875q0.3125 -0.0625 0.703125 -0.0625q0.703125 0 1.328125 0.203125q0.625 0.1875 1.109375 0.578125q0.484375 0.375 0.765625 0.96875q0.28125 0.59375 0.28125 1.40625q0 0.84375 -0.328125 1.5q-0.328125 0.65625 -0.890625 1.125q-0.546875 0.453125 -1.265625 0.6875q-0.71875 0.234375 -1.5 0.234375zm9.865631 0q-0.875 0 -1.59375 -0.34375q-0.71875 -0.34375 -1.234375 -1.015625q-0.515625 -0.671875 -0.796875 -1.65625q-0.28125 -1.0 -0.28125 -2.296875q0 -1.296875 0.28125 -2.265625q0.28125 -0.984375 0.796875 -1.640625q0.515625 -0.671875 1.234375 -1.0q0.71875 -0.328125 1.59375 -0.328125q0.890625 0 1.609375 0.328125q0.71875 0.328125 1.21875 1.0q0.515625 0.65625 0.796875 1.640625q0.28125 0.96875 0.28125 2.265625q0 1.296875 -0.28125 2.296875q-0.28125 0.984375 -0.796875 1.65625q-0.5 0.671875 -1.21875 1.015625q-0.71875 0.34375 -1.609375 0.34375zm0 -1.8125q0.390625 0 0.71875 -0.171875q0.328125 -0.1875 0.5625 -0.59375q0.234375 -0.40625 0.375 -1.0625q0.15625 -0.671875 0.15625 -1.671875q0 -0.984375 -0.15625 -1.640625q-0.140625 -0.65625 -0.375 -1.046875q-0.234375 -0.390625 -0.5625 -0.546875q-0.328125 -0.171875 -0.71875 -0.171875q-0.375 0 -0.703125 0.171875q-0.328125 0.15625 -0.578125 0.546875q-0.234375 0.390625 -0.390625 1.046875q-0.140625 0.65625 -0.140625 1.640625q0 1.0 0.140625 1.671875q0.15625 0.65625 0.390625 1.0625q0.25 0.40625 0.578125 0.59375q0.328125 0.171875 0.703125 0.171875zm0 -2.3125q-0.515625 0 -0.859375 -0.328125q-0.34375 -0.328125 -0.34375 -0.890625q0 -0.5625 0.34375 -0.890625q0.34375 -0.328125 0.859375 -0.328125q0.515625 0 0.859375 0.328125q0.34375 0.328125 0.34375 0.890625q0 0.5625 -0.34375 0.890625q-0.34375 0.328125 -0.859375 0.328125zm9.600037 4.125q-0.875 0 -1.59375 -0.34375q-0.71875 -0.34375 -1.234375 -1.015625q-0.515625 -0.671875 -0.796875 -1.65625q-0.28125 -1.0 -0.28125 -2.296875q0 -1.296875 0.28125 -2.265625q0.28125 -0.984375 0.796875 -1.640625q0.515625 -0.671875 1.234375 -1.0q0.71875 -0.328125 1.59375 -0.328125q0.890625 0 1.609375 0.328125q0.71875 0.328125 1.21875 1.0q0.515625 0.65625 0.796875 1.640625q0.28125 0.96875 0.28125 2.265625q0 1.296875 -0.28125 2.296875q-0.28125 0.984375 -0.796875 1.65625q-0.5 0.671875 -1.21875 1.015625q-0.71875 0.34375 -1.609375 0.34375zm0 -1.8125q0.390625 0 0.71875 -0.171875q0.328125 -0.1875 0.5625 -0.59375q0.234375 -0.40625 0.375 -1.0625q0.15625 -0.671875 0.15625 -1.671875q0 -0.984375 -0.15625 -1.640625q-0.140625 -0.65625 -0.375 -1.046875q-0.234375 -0.390625 -0.5625 -0.546875q-0.328125 -0.171875 -0.71875 -0.171875q-0.375 0 -0.703125 0.171875q-0.328125 0.15625 -0.578125 0.546875q-0.234375 0.390625 -0.390625 1.046875q-0.140625 0.65625 -0.140625 1.640625q0 1.0 0.140625 1.671875q0.15625 0.65625 0.390625 1.0625q0.25 0.40625 0.578125 0.59375q0.328125 0.171875 0.703125 0.171875zm0 -2.3125q-0.515625 0 -0.859375 -0.328125q-0.34375 -0.328125 -0.34375 -0.890625q0 -0.5625 0.34375 -0.890625q0.34375 -0.328125 0.859375 -0.328125q0.515625 0 0.859375 0.328125q0.34375 0.328125 0.34375 0.890625q0 0.5625 -0.34375 0.890625q-0.34375 0.328125 -0.859375 0.328125z" fill-rule="nonzero"/><path fill="#000000" d="m309.39993 236.95596l-0.71875 -0.671875q1.609375 -1.359375 2.375 -2.953125q0.765625 -1.609375 0.765625 -3.640625q0 -2.03125 -0.765625 -3.625q-0.765625 -1.609375 -2.375 -2.96875l0.71875 -0.671875q1.671875 1.296875 2.625 3.125q0.96875 1.828125 0.96875 4.140625q0 2.328125 -0.96875 4.15625q-0.953125 1.8125 -2.625 3.109375z" fill-rule="nonzero"/><path fill="#000000" fill-opacity="0.0" d="m0 286.4882l325.32285 0l0 75.590546l-325.32285 0z" fill-rule="evenodd"/><path fill="#000000" d="m24.253448 320.83096q-0.90625 0 -1.6875 -0.265625q-0.765625 -0.28125 -1.34375 -0.796875q-0.578125 -0.515625 -0.90625 -1.265625q-0.3125 -0.765625 -0.3125 -1.734375q0 -0.96875 0.34375 -1.734375q0.34375 -0.765625 0.9375 -1.28125q0.59375 -0.53125 1.375 -0.796875q0.796875 -0.28125 1.671875 -0.28125q0.96875 0 1.65625 0.34375q0.703125 0.328125 1.1875 0.796875l-0.65625 0.84375q-0.484375 -0.421875 -1.015625 -0.65625q-0.515625 -0.234375 -1.125 -0.234375q-0.671875 0 -1.234375 0.21875q-0.546875 0.203125 -0.9375 0.609375q-0.390625 0.40625 -0.625 0.953125q-0.21875 0.546875 -0.21875 1.21875q0 0.671875 0.21875 1.21875q0.21875 0.546875 0.609375 0.9375q0.390625 0.390625 0.9375 0.609375q0.546875 0.21875 1.21875 0.21875q0.734375 0 1.328125 -0.28125q0.59375 -0.28125 1.078125 -0.703125l0.59375 0.84375q-0.65625 0.578125 -1.4375 0.90625q-0.78125 0.3125 -1.65625 0.3125zm8.865646 0q-0.765625 0 -1.46875 -0.265625q-0.6875 -0.28125 -1.21875 -0.796875q-0.53125 -0.515625 -0.84375 -1.265625q-0.3125 -0.765625 -0.3125 -1.734375q0 -0.96875 0.3125 -1.734375q0.3125 -0.765625 0.84375 -1.28125q0.53125 -0.53125 1.21875 -0.796875q0.703125 -0.28125 1.46875 -0.28125q0.765625 0 1.453125 0.28125q0.703125 0.265625 1.234375 0.796875q0.53125 0.515625 0.84375 1.28125q0.3125 0.765625 0.3125 1.734375q0 0.96875 -0.3125 1.734375q-0.3125 0.75 -0.84375 1.265625q-0.53125 0.515625 -1.234375 0.796875q-0.6875 0.265625 -1.453125 0.265625zm0 -1.078125q0.5625 0 1.015625 -0.21875q0.453125 -0.21875 0.78125 -0.609375q0.328125 -0.390625 0.5 -0.9375q0.1875 -0.546875 0.1875 -1.21875q0 -0.671875 -0.1875 -1.21875q-0.171875 -0.546875 -0.5 -0.953125q-0.328125 -0.40625 -0.78125 -0.609375q-0.453125 -0.21875 -1.015625 -0.21875q-0.5625 0 -1.015625 0.21875q-0.453125 0.203125 -0.78125 0.609375q-0.328125 0.40625 -0.515625 0.953125q-0.171875 0.546875 -0.171875 1.21875q0 0.671875 0.171875 1.21875q0.1875 0.546875 0.515625 0.9375q0.328125 0.390625 0.78125 0.609375q0.453125 0.21875 1.015625 0.21875zm5.7250214 0.890625l0 -7.78125l1.0625 0l0.109375 1.03125l0.03125 0q0.3125 -0.546875 0.703125 -0.875q0.40625 -0.34375 1.078125 -0.34375q1.140625 0 1.46875 1.34375q0.34375 -0.625 0.75 -0.984375q0.40625 -0.359375 1.078125 -0.359375q0.8125 0 1.265625 0.625q0.453125 0.609375 0.453125 1.78125l0 5.5625l-1.3125 0l0 -5.46875q0 -1.359375 -0.828125 -1.359375q-0.40625 0 -0.671875 0.296875q-0.25 0.296875 -0.578125 0.90625l0 5.625l-1.21875 0l0 -5.46875q0 -0.671875 -0.1875 -1.015625q-0.171875 -0.34375 -0.609375 -0.34375q-0.40625 0 -0.703125 0.296875q-0.28125 0.296875 -0.578125 0.90625l0 5.625l-1.3125 0zm13.803146 0.1875q-0.5625 0 -1.21875 -0.28125q-0.640625 -0.28125 -1.203125 -0.765625l-0.046875 0l-0.109375 0.859375l-1.0625 0l0 -11.390625l1.3125 0l0 3.109375l-0.046875 1.5l0.046875 0q0.53125 -0.546875 1.21875 -0.859375q0.703125 -0.328125 1.390625 -0.328125q0.78125 0 1.390625 0.28125q0.609375 0.28125 1.015625 0.796875q0.40625 0.515625 0.609375 1.25q0.21875 0.734375 0.21875 1.625q0 0.984375 -0.296875 1.78125q-0.28125 0.78125 -0.765625 1.328125q-0.484375 0.53125 -1.125 0.8125q-0.640625 0.28125 -1.328125 0.28125zm-0.21875 -1.09375q0.515625 0 0.9375 -0.21875q0.4375 -0.21875 0.75 -0.609375q0.328125 -0.390625 0.5 -0.96875q0.1875 -0.578125 0.1875 -1.296875q0 -0.640625 -0.125 -1.171875q-0.125 -0.53125 -0.390625 -0.90625q-0.265625 -0.375 -0.6875 -0.578125q-0.421875 -0.203125 -0.984375 -0.203125q-0.515625 0 -1.109375 0.28125q-0.578125 0.28125 -1.1875 0.875l0 3.875q0.5625 0.5 1.125 0.71875q0.578125 0.203125 0.984375 0.203125zm9.756271 0.90625l0 -6.703125l-3.625 0l0 -1.078125l4.9375 0l0 7.78125l-1.3125 0zm0.734375 -9.40625q-0.4375 0 -0.75 -0.28125q-0.296875 -0.28125 -0.296875 -0.75q0 -0.453125 0.296875 -0.734375q0.3125 -0.28125 0.75 -0.28125q0.453125 0 0.75 0.28125q0.3125 0.28125 0.3125 0.734375q0 0.46875 -0.3125 0.75q-0.296875 0.28125 -0.75 0.28125zm5.2875214 9.40625l0 -7.78125l1.09375 0l0.109375 1.328125l0.0625 0q0.609375 -0.65625 1.3125 -1.078125q0.703125 -0.4375 1.625 -0.4375q1.390625 0 2.03125 0.796875q0.65625 0.78125 0.65625 2.34375l0 4.828125l-1.3125 0l0 -4.65625q0 -1.109375 -0.421875 -1.640625q-0.421875 -0.53125 -1.375 -0.53125q-0.359375 0 -0.65625 0.09375q-0.296875 0.078125 -0.578125 0.265625q-0.28125 0.171875 -0.59375 0.4375q-0.296875 0.25 -0.640625 0.609375l0 5.421875l-1.3125 0zm13.396896 0.1875q-0.875 0 -1.640625 -0.265625q-0.765625 -0.28125 -1.328125 -0.796875q-0.5625 -0.53125 -0.890625 -1.28125q-0.328125 -0.765625 -0.328125 -1.75q0 -0.9375 0.328125 -1.6875q0.328125 -0.765625 0.875 -1.28125q0.546875 -0.53125 1.25 -0.8125q0.71875 -0.28125 1.515625 -0.28125q0.828125 0 1.484375 0.265625q0.671875 0.265625 1.125 0.75q0.453125 0.46875 0.6875 1.140625q0.25 0.671875 0.25 1.5q0 0.21875 -0.015625 0.421875q-0.015625 0.203125 -0.046875 0.375l-6.125 0q0.125 1.328125 0.953125 2.0q0.84375 0.65625 2.0625 0.65625q0.703125 0 1.265625 -0.203125q0.578125 -0.203125 1.109375 -0.53125l0.46875 0.859375q-0.5625 0.375 -1.3125 0.65625q-0.75 0.265625 -1.6875 0.265625zm-0.1875 -7.109375q-0.484375 0 -0.921875 0.15625q-0.4375 0.15625 -0.796875 0.453125q-0.34375 0.296875 -0.59375 0.75q-0.234375 0.4375 -0.328125 1.015625l4.953125 0q-0.078125 -1.203125 -0.703125 -1.78125q-0.609375 -0.59375 -1.609375 -0.59375zm6.6468964 6.921875l0 -10.5l1.3125 0l0 9.359375l5.203125 0l0 1.140625l-6.515625 0zm11.396896 0.1875q-0.546875 0 -1.03125 -0.15625q-0.46875 -0.140625 -0.828125 -0.421875q-0.359375 -0.28125 -0.578125 -0.6875q-0.203125 -0.40625 -0.203125 -0.9375q0 -0.65625 0.3125 -1.140625q0.3125 -0.484375 0.984375 -0.84375q0.6875 -0.359375 1.75 -0.578125q1.078125 -0.21875 2.578125 -0.34375q-0.015625 -0.40625 -0.125 -0.75q-0.109375 -0.359375 -0.359375 -0.625q-0.234375 -0.265625 -0.625 -0.421875q-0.390625 -0.15625 -0.953125 -0.15625q-0.765625 0 -1.46875 0.296875q-0.703125 0.296875 -1.25 0.625l-0.515625 -0.890625q0.296875 -0.203125 0.6875 -0.390625q0.390625 -0.203125 0.828125 -0.359375q0.4375 -0.171875 0.9375 -0.265625q0.5 -0.109375 1.015625 -0.109375q1.59375 0 2.359375 0.875q0.78125 0.875 0.78125 2.328125l0 4.765625l-1.0625 0l-0.109375 -1.0625l-0.046875 0q-0.65625 0.515625 -1.453125 0.890625q-0.796875 0.359375 -1.625 0.359375zm0.34375 -1.046875q0.671875 0 1.3125 -0.296875q0.65625 -0.296875 1.328125 -0.859375l0 -2.046875q-1.234375 0.09375 -2.078125 0.28125q-0.84375 0.171875 -1.359375 0.421875q-0.5 0.234375 -0.703125 0.546875q-0.203125 0.3125 -0.203125 0.703125q0 0.328125 0.140625 0.5625q0.140625 0.234375 0.375 0.390625q0.234375 0.140625 0.546875 0.21875q0.3125 0.078125 0.640625 0.078125zm11.615646 1.046875q-0.84375 0 -1.421875 -0.21875q-0.578125 -0.234375 -0.9375 -0.65625q-0.34375 -0.4375 -0.5 -1.015625q-0.140625 -0.59375 -0.140625 -1.328125l0 -3.671875l-2.1875 0l0 -1.0l2.234375 -0.078125l0.171875 -2.484375l1.09375 0l0 2.484375l3.828125 0l0 1.078125l-3.828125 0l0 3.6875q0 0.53125 0.09375 0.921875q0.09375 0.390625 0.3125 0.671875q0.234375 0.265625 0.609375 0.40625q0.390625 0.140625 0.953125 0.140625q0.5625 0 1.0 -0.09375q0.453125 -0.109375 0.875 -0.265625l0.28125 0.96875q-0.53125 0.1875 -1.109375 0.3125q-0.578125 0.140625 -1.328125 0.140625zm8.584396 0q-0.875 0 -1.640625 -0.265625q-0.765625 -0.28125 -1.328125 -0.796875q-0.5625 -0.53125 -0.890625 -1.28125q-0.328125 -0.765625 -0.328125 -1.75q0 -0.9375 0.328125 -1.6875q0.328125 -0.765625 0.875 -1.28125q0.546875 -0.53125 1.25 -0.8125q0.71875 -0.28125 1.515625 -0.28125q0.828125 0 1.484375 0.265625q0.671875 0.265625 1.125 0.75q0.453125 0.46875 0.6875 1.140625q0.25 0.671875 0.25 1.5q0 0.21875 -0.015625 0.421875q-0.015625 0.203125 -0.046875 0.375l-6.125 0q0.125 1.328125 0.953125 2.0q0.84375 0.65625 2.0625 0.65625q0.703125 0 1.265625 -0.203125q0.578125 -0.203125 1.109375 -0.53125l0.46875 0.859375q-0.5625 0.375 -1.3125 0.65625q-0.75 0.265625 -1.6875 0.265625zm-0.1875 -7.109375q-0.484375 0 -0.921875 0.15625q-0.4375 0.15625 -0.796875 0.453125q-0.34375 0.296875 -0.59375 0.75q-0.234375 0.4375 -0.328125 1.015625l4.953125 0q-0.078125 -1.203125 -0.703125 -1.78125q-0.609375 -0.59375 -1.609375 -0.59375zm9.459396 7.109375q-1.140625 0 -2.125 -0.359375q-0.96875 -0.359375 -1.6875 -0.859375l0.609375 -0.859375q0.671875 0.484375 1.46875 0.78125q0.8125 0.28125 1.90625 0.28125q0.984375 0 1.46875 -0.359375q0.5 -0.359375 0.5 -0.859375q0 -0.21875 -0.09375 -0.40625q-0.078125 -0.203125 -0.34375 -0.375q-0.25 -0.1875 -0.734375 -0.34375q-0.484375 -0.15625 -1.265625 -0.3125q-1.515625 -0.328125 -2.28125 -0.859375q-0.765625 -0.53125 -0.765625 -1.421875q0 -0.453125 0.203125 -0.859375q0.21875 -0.421875 0.625 -0.703125q0.40625 -0.296875 1.0 -0.46875q0.609375 -0.171875 1.40625 -0.171875q0.90625 0 1.734375 0.296875q0.828125 0.296875 1.40625 0.703125l-0.640625 0.84375q-0.546875 -0.375 -1.203125 -0.59375q-0.65625 -0.21875 -1.40625 -0.21875q-0.984375 0 -1.390625 0.34375q-0.40625 0.328125 -0.40625 0.765625q0 0.515625 0.53125 0.78125q0.53125 0.265625 1.734375 0.515625q0.96875 0.21875 1.59375 0.453125q0.625 0.21875 0.984375 0.515625q0.359375 0.28125 0.5 0.640625q0.140625 0.34375 0.140625 0.796875q0 0.484375 -0.234375 0.90625q-0.21875 0.40625 -0.65625 0.734375q-0.4375 0.3125 -1.09375 0.484375q-0.640625 0.1875 -1.484375 0.1875zm10.943771 0q-0.84375 0 -1.421875 -0.21875q-0.578125 -0.234375 -0.9375 -0.65625q-0.34375 -0.4375 -0.5 -1.015625q-0.140625 -0.59375 -0.140625 -1.328125l0 -3.671875l-2.1875 0l0 -1.0l2.234375 -0.078125l0.171875 -2.484375l1.09375 0l0 2.484375l3.828125 0l0 1.078125l-3.828125 0l0 3.6875q0 0.53125 0.09375 0.921875q0.09375 0.390625 0.3125 0.671875q0.234375 0.265625 0.609375 0.40625q0.390625 0.140625 0.953125 0.140625q0.5625 0 1.0 -0.09375q0.453125 -0.109375 0.875 -0.265625l0.28125 0.96875q-0.53125 0.1875 -1.109375 0.3125q-0.578125 0.140625 -1.328125 0.140625zm10.225021 2.625q-1.65625 -1.296875 -2.625 -3.109375q-0.96875 -1.828125 -0.96875 -4.15625q0 -2.3125 0.96875 -4.140625q0.96875 -1.828125 2.625 -3.125l0.71875 0.671875q-1.609375 1.359375 -2.375 2.96875q-0.75 1.59375 -0.75 3.625q0 2.03125 0.75 3.640625q0.765625 1.59375 2.375 2.953125l-0.71875 0.671875z" fill-rule="nonzero"/><path fill="#000000" d="m157.57562 320.64346l0 -6.09375l-3.1875 0l0 -1.84375l5.53125 0l0 7.9375l-2.34375 0zm1.34375 -9.1875q-0.6875 0 -1.125 -0.375q-0.4375 -0.390625 -0.4375 -1.046875q0 -0.65625 0.4375 -1.0625q0.4375 -0.40625 1.125 -0.40625q0.6875 0 1.125 0.40625q0.453125 0.40625 0.453125 1.0625q0 0.65625 -0.453125 1.046875q-0.4375 0.375 -1.125 0.375zm4.9593964 9.1875l0 -7.9375l1.921875 0l0.171875 1.0625l0.0625 0q0.515625 -0.515625 1.171875 -0.875q0.671875 -0.375 1.5625 -0.375q1.34375 0 1.96875 0.859375q0.625 0.859375 0.625 2.375l0 4.890625l-2.359375 0l0 -4.59375q0 -0.796875 -0.25 -1.15625q-0.25 -0.375 -0.90625 -0.375q-0.484375 0 -0.84375 0.203125q-0.359375 0.203125 -0.78125 0.625l0 5.296875l-2.34375 0zm9.600021 2.9375l0 -10.875l1.921875 0l0.171875 0.796875l0.046875 0q0.484375 -0.421875 1.109375 -0.703125q0.625 -0.28125 1.25 -0.28125q0.75 0 1.328125 0.296875q0.59375 0.28125 1.015625 0.8125q0.421875 0.515625 0.625 1.265625q0.21875 0.734375 0.21875 1.65625q0 1.015625 -0.296875 1.8125q-0.28125 0.796875 -0.765625 1.34375q-0.46875 0.546875 -1.09375 0.84375q-0.609375 0.28125 -1.28125 0.28125q-1.09375 0 -1.953125 -0.859375l-0.0625 0l0.109375 1.296875l0 2.3125l-2.34375 0zm3.703125 -4.671875q0.671875 0 1.125 -0.546875q0.453125 -0.546875 0.453125 -1.78125q0 -2.140625 -1.46875 -2.140625q-0.75 0 -1.46875 0.734375l0 3.21875q0.34375 0.28125 0.703125 0.40625q0.359375 0.109375 0.65625 0.109375zm8.303146 1.921875q-1.359375 0 -1.96875 -0.859375q-0.609375 -0.859375 -0.609375 -2.375l0 -4.890625l2.359375 0l0 4.59375q0 0.796875 0.234375 1.171875q0.25 0.359375 0.921875 0.359375q0.4375 0 0.78125 -0.1875q0.34375 -0.1875 0.765625 -0.71875l0 -5.21875l2.359375 0l0 7.9375l-1.921875 0l-0.1875 -1.140625l-0.0625 0q-0.515625 0.609375 -1.15625 0.96875q-0.640625 0.359375 -1.515625 0.359375zm12.240646 0q-0.9375 0 -1.59375 -0.25q-0.65625 -0.25 -1.0625 -0.703125q-0.40625 -0.46875 -0.59375 -1.109375q-0.171875 -0.640625 -0.171875 -1.421875l0 -2.796875l-2.0 0l0 -1.75l2.109375 -0.09375l0.3125 -2.4375l1.9375 0l0 2.4375l3.359375 0l0 1.84375l-3.359375 0l0 2.78125q0 0.90625 0.390625 1.296875q0.40625 0.375 1.28125 0.375q0.453125 0 0.828125 -0.078125q0.375 -0.09375 0.75 -0.21875l0.40625 1.703125q-0.53125 0.15625 -1.15625 0.28125q-0.625 0.140625 -1.4375 0.140625zm4.4281464 -2.03125l1.015625 -1.59375q0.765625 0.46875 1.4375 0.734375q0.6875 0.25 1.453125 0.25q0.578125 0 0.875 -0.1875q0.3125 -0.1875 0.3125 -0.53125q0 -0.328125 -0.34375 -0.546875q-0.34375 -0.234375 -0.859375 -0.4375q-0.515625 -0.21875 -1.125 -0.4375q-0.609375 -0.21875 -1.140625 -0.546875q-0.515625 -0.34375 -0.859375 -0.84375q-0.34375 -0.5 -0.34375 -1.234375q0 -1.03125 0.703125 -1.71875q0.703125 -0.6875 1.921875 -0.890625l0 -2.09375l1.5625 0l0 2.078125q0.84375 0.109375 1.453125 0.453125q0.625 0.34375 1.109375 0.859375l-1.15625 1.34375q-0.5625 -0.390625 -1.078125 -0.59375q-0.5 -0.203125 -1.15625 -0.203125q-1.09375 0 -1.09375 0.734375q0 0.296875 0.34375 0.484375q0.34375 0.1875 0.859375 0.390625q0.515625 0.1875 1.109375 0.40625q0.609375 0.21875 1.125 0.5625q0.53125 0.34375 0.875 0.84375q0.34375 0.5 0.34375 1.21875q0 1.0 -0.703125 1.75q-0.6875 0.75 -2.03125 0.96875l0 2.390625l-1.5625 0l0 -2.34375q-0.78125 -0.078125 -1.625 -0.40625q-0.828125 -0.328125 -1.421875 -0.859375z" fill-rule="nonzero"/><path fill="#000000" d="m214.23825 324.0497l-0.359375 -0.828125q0.984375 -0.453125 1.484375 -1.09375q0.5 -0.625 0.53125 -1.578125q-0.078125 0.03125 -0.15625 0.03125q-0.078125 0 -0.15625 0q-0.5 0 -0.875 -0.296875q-0.375 -0.296875 -0.375 -0.90625q0 -0.59375 0.390625 -0.90625q0.390625 -0.3125 0.890625 -0.3125q0.71875 0 1.078125 0.5625q0.375 0.546875 0.375 1.484375q0 1.40625 -0.75 2.375q-0.75 0.96875 -2.078125 1.46875zm22.606293 -0.59375q-1.65625 -1.296875 -2.625 -3.109375q-0.96875 -1.828125 -0.96875 -4.15625q0 -2.3125 0.96875 -4.140625q0.96875 -1.828125 2.625 -3.125l0.71875 0.671875q-1.609375 1.359375 -2.375 2.96875q-0.75 1.59375 -0.75 3.625q0 2.03125 0.75 3.640625q0.765625 1.59375 2.375 2.953125l-0.71875 0.671875zm4.1625214 -2.8125l0 -11.390625l1.3125 0l0 3.109375l-0.078125 1.828125l0.046875 0q0.609375 -0.65625 1.296875 -1.078125q0.703125 -0.4375 1.625 -0.4375q1.390625 0 2.03125 0.796875q0.65625 0.78125 0.65625 2.34375l0 4.828125l-1.3125 0l0 -4.65625q0 -1.109375 -0.421875 -1.640625q-0.421875 -0.53125 -1.375 -0.53125q-0.359375 0 -0.65625 0.09375q-0.296875 0.078125 -0.578125 0.265625q-0.28125 0.171875 -0.59375 0.4375q-0.296875 0.25 -0.640625 0.609375l0 5.421875l-1.3125 0zm11.631271 3.40625l-0.359375 -0.828125q0.984375 -0.453125 1.484375 -1.09375q0.5 -0.625 0.53125 -1.578125q-0.078125 0.03125 -0.15625 0.03125q-0.078125 0 -0.15625 0q-0.5 0 -0.875 -0.296875q-0.375 -0.296875 -0.375 -0.90625q0 -0.59375 0.390625 -0.90625q0.390625 -0.3125 0.890625 -0.3125q0.71875 0 1.078125 0.5625q0.375 0.546875 0.375 1.484375q0 1.40625 -0.75 2.375q-0.75 0.96875 -2.078125 1.46875zm16.637543 -1.171875l0 -1.125l7.6875 0l0 1.125l-7.6875 0zm11.318787 0.578125l-0.71875 -0.671875q1.609375 -1.359375 2.375 -2.953125q0.765625 -1.609375 0.765625 -3.640625q0 -2.03125 -0.765625 -3.625q-0.765625 -1.609375 -2.375 -2.96875l0.71875 -0.671875q1.671875 1.296875 2.625 3.125q0.96875 1.828125 0.96875 4.140625q0 2.328125 -0.96875 4.15625q-0.953125 1.8125 -2.625 3.109375zm17.887512 -9.59375l0 -1.0l6.875 0l0 1.0l-6.875 0zm0 4.0l0 -1.0l6.875 0l0 1.0l-6.875 0zm9.959412 2.015625l0 -1.265625l4.8125 -3.25l0 -0.0625l-4.8125 -3.25l0 -1.265625l5.96875 4.046875l0 1.0l-5.96875 4.046875z" fill-rule="nonzero"/><path fill="#000000" d="m298.60718 339.64346l0 -11.390625l1.3125 0l0 3.109375l-0.078125 1.828125l0.046875 0q0.609375 -0.65625 1.296875 -1.078125q0.703125 -0.4375 1.625 -0.4375q1.390625 0 2.03125 0.796875q0.65625 0.78125 0.65625 2.34375l0 4.828125l-1.3125 0l0 -4.65625q0 -1.109375 -0.421875 -1.640625q-0.421875 -0.53125 -1.375 -0.53125q-0.359375 0 -0.65625 0.09375q-0.296875 0.078125 -0.578125 0.265625q-0.28125 0.171875 -0.59375 0.4375q-0.296875 0.25 -0.640625 0.609375l0 5.421875l-1.3125 0zm10.787537 2.8125l-0.71875 -0.671875q1.609375 -1.359375 2.375 -2.953125q0.765625 -1.609375 0.765625 -3.640625q0 -2.03125 -0.765625 -3.625q-0.765625 -1.609375 -2.375 -2.96875l0.71875 -0.671875q1.671875 1.296875 2.625 3.125q0.96875 1.828125 0.96875 4.140625q0 2.328125 -0.96875 4.15625q-0.953125 1.8125 -2.625 3.109375z" fill-rule="nonzero"/><path fill="#000000" fill-opacity="0.0" d="m174.04199 0l151.18109 0l0 37.795277l-151.18109 0z" fill-rule="evenodd"/><path fill="#000000" d="m254.24806 26.919998l0 -7.109375l-3.71875 0l0 -2.140625l6.4531403 0l0 9.25l-2.7343903 0zm1.40625 -10.703125q-0.796875 0 -1.3125 -0.453125q-0.515625 -0.453125 -0.515625 -1.21875q0 -0.765625 0.515625 -1.234375q0.515625 -0.46875 1.3125 -0.46875q0.81251526 0 1.3125153 0.46875q0.515625 0.46875 0.515625 1.234375q0 0.765625 -0.515625 1.21875q-0.5 0.453125 -1.3125153 0.453125zm5.9437714 10.703125l0 -9.25l2.234375 0l0.203125 1.234375l0.078125 0q0.59375 -0.609375 1.359375 -1.03125q0.78125 -0.4375 1.828125 -0.4375q1.578125 0 2.296875 1.015625q0.734375 1.0 0.734375 2.765625l0 5.703125l-2.75 0l0 -5.359375q0 -0.921875 -0.296875 -1.34375q-0.296875 -0.4375 -1.0625 -0.4375q-0.5625 0 -0.984375 0.25q-0.40625 0.234375 -0.90625 0.71875l0 6.171875l-2.734375 0zm11.193756 3.4375l0 -12.6875l2.234375 0l0.203125 0.921875l0.0625 0q0.5625 -0.5 1.28125 -0.828125q0.734375 -0.328125 1.484375 -0.328125q0.859375 0 1.546875 0.34375q0.6875 0.328125 1.171875 0.953125q0.484375 0.609375 0.734375 1.484375q0.25 0.859375 0.25 1.921875q0 1.203125 -0.34375 2.125q-0.328125 0.921875 -0.890625 1.5625q-0.546875 0.640625 -1.265625 0.984375q-0.71875 0.328125 -1.5 0.328125q-1.28125 0 -2.28125 -1.0l-0.078125 0l0.125 1.515625l0 2.703125l-2.734375 0zm4.328125 -5.453125q0.78125 0 1.296875 -0.640625q0.53125 -0.640625 0.53125 -2.078125q0 -2.5 -1.703125 -2.5q-0.875 0 -1.71875 0.859375l0 3.75q0.40625 0.328125 0.8125 0.46875q0.421875 0.140625 0.78125 0.140625zm9.678131 2.234375q-1.578125 0 -2.296875 -1.0q-0.703125 -1.015625 -0.703125 -2.765625l0 -5.703125l2.75 0l0 5.34375q0 0.9375 0.265625 1.375q0.28125 0.421875 1.078125 0.421875q0.515625 0 0.90625 -0.21875q0.40625 -0.234375 0.890625 -0.84375l0 -6.078125l2.75 0l0 9.25l-2.234375 0l-0.21875 -1.328125l-0.0625 0q-0.625 0.71875 -1.375 1.140625q-0.734375 0.40625 -1.75 0.40625zm14.271881 0q-1.09375 0 -1.859375 -0.296875q-0.765625 -0.296875 -1.25 -0.828125q-0.46875 -0.53125 -0.671875 -1.265625q-0.203125 -0.75 -0.203125 -1.671875l0 -3.265625l-2.328125 0l0 -2.03125l2.453125 -0.109375l0.359375 -2.84375l2.25 0l0 2.84375l3.921875 0l0 2.140625l-3.921875 0l0 3.25q0 1.0625 0.46875 1.5q0.46875 0.4375 1.5 0.4375q0.515625 0 0.953125 -0.09375q0.4375 -0.09375 0.875 -0.234375l0.484375 1.96875q-0.625 0.1875 -1.359375 0.34375q-0.734375 0.15625 -1.671875 0.15625zm5.146881 -2.359375l1.203125 -1.875q0.890625 0.546875 1.6875 0.859375q0.796875 0.296875 1.6875 0.296875q0.671875 0 1.015625 -0.21875q0.359375 -0.21875 0.359375 -0.609375q0 -0.390625 -0.40625 -0.65625q-0.390625 -0.265625 -1.0 -0.5q-0.609375 -0.25 -1.3125 -0.5q-0.703125 -0.265625 -1.3125 -0.65625q-0.609375 -0.40625 -1.015625 -0.984375q-0.390625 -0.578125 -0.390625 -1.421875q0 -1.21875 0.8125 -2.015625q0.828125 -0.8125 2.234375 -1.03125l0 -2.453125l1.828125 0l0 2.4375q0.984375 0.125 1.703125 0.53125q0.71875 0.390625 1.296875 1.0l-1.375 1.5625q-0.640625 -0.46875 -1.234375 -0.703125q-0.59375 -0.234375 -1.359375 -0.234375q-1.28125 0 -1.28125 0.859375q0 0.34375 0.390625 0.5625q0.40625 0.21875 1.015625 0.453125q0.609375 0.21875 1.3125 0.484375q0.703125 0.25 1.296875 0.65625q0.609375 0.40625 1.0 0.984375q0.40625 0.578125 0.40625 1.40625q0 1.1875 -0.796875 2.0625q-0.796875 0.859375 -2.375 1.109375l0 2.78125l-1.828125 0l0 -2.71875q-0.90625 -0.09375 -1.875 -0.46875q-0.96875 -0.390625 -1.6875 -1.0z" fill-rule="nonzero"/><path fill="#000000" fill-opacity="0.0" d="m174.04199 382.4823l151.18109 0l0 75.590546l-151.18109 0z" fill-rule="evenodd"/><path fill="#000000" d="m243.46056 427.41632q-0.90625 0 -1.765625 -0.3125q-0.84375 -0.328125 -1.515625 -0.9375q-0.65625 -0.625 -1.046875 -1.53125q-0.390625 -0.90625 -0.390625 -2.0625q0 -1.15625 0.390625 -2.0625q0.390625 -0.90625 1.046875 -1.515625q0.671875 -0.625 1.515625 -0.953125q0.859375 -0.328125 1.765625 -0.328125q0.921875 0 1.765625 0.328125q0.84375 0.328125 1.5 0.953125q0.671875 0.609375 1.0625 1.515625q0.390625 0.90625 0.390625 2.0625q0 1.15625 -0.390625 2.0625q-0.390625 0.90625 -1.0625 1.53125q-0.65625 0.609375 -1.5 0.9375q-0.84375 0.3125 -1.765625 0.3125zm0 -2.21875q0.953125 0 1.421875 -0.703125q0.484375 -0.71875 0.484375 -1.921875q0 -1.21875 -0.484375 -1.921875q-0.46875 -0.703125 -1.421875 -0.703125q-0.953125 0 -1.4375 0.703125q-0.46875 0.703125 -0.46875 1.921875q0 1.203125 0.46875 1.921875q0.484375 0.703125 1.4375 0.703125zm9.756256 2.21875q-1.578125 0 -2.296875 -1.0q-0.703125 -1.015625 -0.703125 -2.765625l0 -5.703125l2.75 0l0 5.34375q0 0.9375 0.265625 1.375q0.28125 0.421875 1.078125 0.421875q0.515625 0 0.90625 -0.21875q0.40625 -0.234375 0.89064026 -0.84375l0 -6.078125l2.75 0l0 9.25l-2.234375 0l-0.21875 -1.328125l-0.0625 0q-0.62501526 0.71875 -1.3750153 1.140625q-0.734375 0.40625 -1.75 0.40625zm14.271896 0q-1.09375 0 -1.859375 -0.296875q-0.765625 -0.296875 -1.25 -0.828125q-0.46875 -0.53125 -0.671875 -1.265625q-0.203125 -0.75 -0.203125 -1.671875l0 -3.265625l-2.328125 0l0 -2.03125l2.453125 -0.109375l0.359375 -2.84375l2.25 0l0 2.84375l3.921875 0l0 2.140625l-3.921875 0l0 3.25q0 1.0625 0.46875 1.5q0.46875 0.4375 1.5 0.4375q0.515625 0 0.953125 -0.09375q0.4375 -0.09375 0.875 -0.234375l0.484375 1.96875q-0.625 0.1875 -1.359375 0.34375q-0.734375 0.15625 -1.671875 0.15625zm5.303131 3.21875l0 -12.6875l2.234375 0l0.203125 0.921875l0.0625 0q0.5625 -0.5 1.28125 -0.828125q0.734375 -0.328125 1.484375 -0.328125q0.859375 0 1.546875 0.34375q0.6875 0.328125 1.171875 0.953125q0.484375 0.609375 0.734375 1.484375q0.25 0.859375 0.25 1.921875q0 1.203125 -0.34375 2.125q-0.328125 0.921875 -0.890625 1.5625q-0.546875 0.640625 -1.265625 0.984375q-0.71875 0.328125 -1.5 0.328125q-1.28125 0 -2.28125 -1.0l-0.078125 0l0.125 1.515625l0 2.703125l-2.734375 0zm4.328125 -5.453125q0.78125 0 1.296875 -0.640625q0.53125 -0.640625 0.53125 -2.078125q0 -2.5 -1.703125 -2.5q-0.875 0 -1.71875 0.859375l0 3.75q0.40625 0.328125 0.8125 0.46875q0.421875 0.140625 0.78125 0.140625zm9.678131 2.234375q-1.578125 0 -2.296875 -1.0q-0.703125 -1.015625 -0.703125 -2.765625l0 -5.703125l2.75 0l0 5.34375q0 0.9375 0.265625 1.375q0.28125 0.421875 1.078125 0.421875q0.515625 0 0.90625 -0.21875q0.40625 -0.234375 0.890625 -0.84375l0 -6.078125l2.75 0l0 9.25l-2.234375 0l-0.21875 -1.328125l-0.0625 0q-0.625 0.71875 -1.375 1.140625q-0.734375 0.40625 -1.75 0.40625zm14.271881 0q-1.09375 0 -1.859375 -0.296875q-0.765625 -0.296875 -1.25 -0.828125q-0.46875 -0.53125 -0.671875 -1.265625q-0.203125 -0.75 -0.203125 -1.671875l0 -3.265625l-2.328125 0l0 -2.03125l2.453125 -0.109375l0.359375 -2.84375l2.25 0l0 2.84375l3.921875 0l0 2.140625l-3.921875 0l0 3.25q0 1.0625 0.46875 1.5q0.46875 0.4375 1.5 0.4375q0.515625 0 0.953125 -0.09375q0.4375 -0.09375 0.875 -0.234375l0.484375 1.96875q-0.625 0.1875 -1.359375 0.34375q-0.734375 0.15625 -1.671875 0.15625zm5.146881 -2.359375l1.203125 -1.875q0.890625 0.546875 1.6875 0.859375q0.796875 0.296875 1.6875 0.296875q0.671875 0 1.015625 -0.21875q0.359375 -0.21875 0.359375 -0.609375q0 -0.390625 -0.40625 -0.65625q-0.390625 -0.265625 -1.0 -0.5q-0.609375 -0.25 -1.3125 -0.5q-0.703125 -0.265625 -1.3125 -0.65625q-0.609375 -0.40625 -1.015625 -0.984375q-0.390625 -0.578125 -0.390625 -1.421875q0 -1.21875 0.8125 -2.015625q0.828125 -0.8125 2.234375 -1.03125l0 -2.453125l1.828125 0l0 2.4375q0.984375 0.125 1.703125 0.53125q0.71875 0.390625 1.296875 1.0l-1.375 1.5625q-0.640625 -0.46875 -1.234375 -0.703125q-0.59375 -0.234375 -1.359375 -0.234375q-1.28125 0 -1.28125 0.859375q0 0.34375 0.390625 0.5625q0.40625 0.21875 1.015625 0.453125q0.609375 0.21875 1.3125 0.484375q0.703125 0.25 1.296875 0.65625q0.609375 0.40625 1.0 0.984375q0.40625 0.578125 0.40625 1.40625q0 1.1875 -0.796875 2.0625q-0.796875 0.859375 -2.375 1.109375l0 2.78125l-1.828125 0l0 -2.71875q-0.90625 -0.09375 -1.875 -0.46875q-0.96875 -0.390625 -1.6875 -1.0z" fill-rule="nonzero"/><path fill="#000000" fill-opacity="0.0" d="m111.414696 57.98163l213.92126 0l0 40.0l-213.92126 0z" fill-rule="evenodd"/><path fill="#000000" d="m130.82336 85.12038q-0.875 0 -1.59375 -0.328125q-0.71875 -0.34375 -1.2343826 -0.96875q-0.515625 -0.625 -0.796875 -1.515625q-0.28125 -0.890625 -0.28125 -2.03125q0 -1.140625 0.328125 -2.03125q0.34375 -0.90625 0.8906326 -1.53125q0.5625 -0.625 1.265625 -0.953125q0.703125 -0.34375 1.46875 -0.34375q0.78125 0 1.328125 0.265625q0.546875 0.25 1.0 0.734375l0.078125 0l-0.125 -1.4375l0 -3.15625l2.734375 0l0 13.078125l-2.234375 0l-0.203125 -0.953125l-0.0625 0q-0.515625 0.5 -1.1875 0.84375q-0.671875 0.328125 -1.375 0.328125zm0.703125 -2.234375q0.46875 0 0.859375 -0.1875q0.390625 -0.203125 0.765625 -0.671875l0 -3.75q-0.375 -0.328125 -0.765625 -0.46875q-0.375 -0.140625 -0.78125 -0.140625q-0.765625 0 -1.328125 0.640625q-0.546875 0.625 -0.546875 1.921875q0 1.390625 0.46875 2.03125q0.46875 0.625 1.328125 0.625zm11.865631 2.234375q-1.078125 0 -2.03125 -0.3125q-0.9375 -0.328125 -1.625 -0.9375q-0.6875 -0.625 -1.078125 -1.53125q-0.390625 -0.90625 -0.390625 -2.0625q0 -1.140625 0.390625 -2.046875q0.40625 -0.90625 1.078125 -1.53125q0.671875 -0.625 1.53125 -0.953125q0.875 -0.328125 1.8125 -0.328125q1.0625 0 1.875 0.34375q0.828125 0.328125 1.375 0.9375q0.546875 0.59375 0.828125 1.40625q0.28125 0.8125 0.28125 1.765625q0 0.359375 -0.046875 0.71875q-0.046875 0.34375 -0.078125 0.5l-6.3125 0q0.203125 1.015625 0.90625 1.484375q0.71875 0.46875 1.859375 0.46875q0.625 0 1.1875 -0.171875q0.578125 -0.171875 1.203125 -0.484375l0.90625 1.65625q-0.796875 0.5 -1.765625 0.796875q-0.96875 0.28125 -1.90625 0.28125zm-0.21875 -7.609375q-0.828125 0 -1.375 0.4375q-0.546875 0.421875 -0.75 1.296875l3.953125 0q-0.203125 -1.734375 -1.828125 -1.734375zm12.631256 7.609375q-1.765625 0 -2.65625 -1.03125q-0.875 -1.03125 -0.875 -2.8125l0 -7.28125l-2.90625 0l0 -2.171875l5.640625 0l0 9.578125q0 0.421875 0.125 0.71875q0.125 0.28125 0.328125 0.46875q0.21875 0.171875 0.484375 0.25q0.28125 0.0625 0.578125 0.0625q0.3125 0 0.65625 -0.0625q0.359375 -0.0625 0.78125 -0.234375l0.625 2.015625q-0.375 0.109375 -0.703125 0.203125q-0.3125 0.09375 -0.640625 0.15625q-0.3125 0.078125 -0.671875 0.109375q-0.34375 0.03125 -0.765625 0.03125zm7.990631 0q-0.703125 0 -1.265625 -0.21875q-0.5625 -0.203125 -0.953125 -0.578125q-0.390625 -0.390625 -0.609375 -0.890625q-0.203125 -0.515625 -0.203125 -1.109375q0 -0.78125 0.328125 -1.359375q0.34375 -0.59375 1.078125 -1.0q0.734375 -0.421875 1.890625 -0.671875q1.15625 -0.25 2.796875 -0.34375q-0.078125 -0.625 -0.546875 -0.984375q-0.46875 -0.359375 -1.421875 -0.359375q-0.671875 0 -1.359375 0.234375q-0.671875 0.234375 -1.46875 0.625l-0.96875 -1.796875q0.953125 -0.53125 2.046875 -0.890625q1.09375 -0.359375 2.28125 -0.359375q1.953125 0 3.0625 1.03125q1.125 1.03125 1.125 3.15625l0 5.296875l-2.234375 0l-0.21875 -1.046875l-0.0625 0q-0.71875 0.546875 -1.5625 0.90625q-0.828125 0.359375 -1.734375 0.359375zm0.890625 -2.125q0.609375 0 1.140625 -0.25q0.546875 -0.25 1.03125 -0.625l0 -1.53125q-1.015625 0.0625 -1.6875 0.1875q-0.671875 0.125 -1.078125 0.328125q-0.390625 0.203125 -0.546875 0.46875q-0.15625 0.25 -0.15625 0.546875q0 0.453125 0.34375 0.671875q0.34375 0.203125 0.953125 0.203125zm8.803131 5.53125q-0.421875 0 -0.78125 -0.046875q-0.34375 -0.046875 -0.640625 -0.140625l0.484375 -2.09375q0.359375 0.109375 0.734375 0.109375q0.796875 0 1.25 -0.34375q0.453125 -0.328125 0.6875 -0.859375l0.1875 -0.5l-4.015625 -9.0l2.71875 0l1.546875 3.96875q0.265625 0.65625 0.484375 1.359375q0.234375 0.6875 0.453125 1.421875l0.078125 0q0.1875 -0.6875 0.40625 -1.390625q0.234375 -0.703125 0.4375 -1.390625l1.359375 -3.96875l2.59375 0l-3.65625 9.34375q-0.34375 0.875 -0.734375 1.53125q-0.390625 0.671875 -0.890625 1.109375q-0.5 0.4375 -1.171875 0.65625q-0.65625 0.234375 -1.53125 0.234375zm13.068756 -9.78125l-0.28125 1.125l2.5625 0l-0.28125 -1.125q-0.234375 -0.921875 -0.5 -1.9375q-0.265625 -1.015625 -0.46875 -1.984375l-0.078125 0q-0.21875 0.96875 -0.46875 1.984375q-0.234375 1.015625 -0.484375 1.9375zm-4.375 6.15625l3.78125 -12.15625l3.28125 0l3.796875 12.15625l-2.921875 0l-0.71875 -2.890625l-3.671875 0l-0.75 2.890625l-2.796875 0zm18.256256 0.21875q-1.09375 0 -1.859375 -0.296875q-0.765625 -0.296875 -1.25 -0.828125q-0.46875 -0.53125 -0.671875 -1.265625q-0.203125 -0.75 -0.203125 -1.671875l0 -3.265625l-2.328125 0l0 -2.03125l2.453125 -0.109375l0.359375 -2.84375l2.25 0l0 2.84375l3.921875 0l0 2.140625l-3.921875 0l0 3.25q0 1.0625 0.46875 1.5q0.46875 0.4375 1.5 0.4375q0.515625 0 0.953125 -0.09375q0.4375 -0.09375 0.875 -0.234375l0.484375 1.96875q-0.625 0.1875 -1.359375 0.34375q-0.734375 0.15625 -1.671875 0.15625zm5.959381 -0.21875l0 -12.15625l2.734375 0l0 9.84375l5.421875 0l0 2.3125l-8.15625 0zm15.350006 0.21875q-1.078125 0 -2.03125 -0.3125q-0.9375 -0.328125 -1.625 -0.9375q-0.6875 -0.625 -1.078125 -1.53125q-0.390625 -0.90625 -0.390625 -2.0625q0 -1.140625 0.390625 -2.046875q0.40625 -0.90625 1.078125 -1.53125q0.671875 -0.625 1.53125 -0.953125q0.875 -0.328125 1.8125 -0.328125q1.0625 0 1.875 0.34375q0.828125 0.328125 1.375 0.9375q0.546875 0.59375 0.828125 1.40625q0.28125 0.8125 0.28125 1.765625q0 0.359375 -0.046875 0.71875q-0.046875 0.34375 -0.078125 0.5l-6.3125 0q0.203125 1.015625 0.90625 1.484375q0.71875 0.46875 1.859375 0.46875q0.625 0 1.1875 -0.171875q0.578125 -0.171875 1.203125 -0.484375l0.90625 1.65625q-0.796875 0.5 -1.765625 0.796875q-0.96875 0.28125 -1.90625 0.28125zm-0.21875 -7.609375q-0.828125 0 -1.375 0.4375q-0.546875 0.421875 -0.75 1.296875l3.953125 0q-0.203125 -1.734375 -1.828125 -1.734375zm9.428131 7.609375q-0.703125 0 -1.265625 -0.21875q-0.5625 -0.203125 -0.953125 -0.578125q-0.390625 -0.390625 -0.609375 -0.890625q-0.203125 -0.515625 -0.203125 -1.109375q0 -0.78125 0.328125 -1.359375q0.34375 -0.59375 1.078125 -1.0q0.734375 -0.421875 1.890625 -0.671875q1.15625 -0.25 2.796875 -0.34375q-0.078125 -0.625 -0.546875 -0.984375q-0.46875 -0.359375 -1.421875 -0.359375q-0.671875 0 -1.359375 0.234375q-0.671875 0.234375 -1.46875 0.625l-0.96875 -1.796875q0.953125 -0.53125 2.046875 -0.890625q1.09375 -0.359375 2.28125 -0.359375q1.953125 0 3.0625 1.03125q1.125 1.03125 1.125 3.15625l0 5.296875l-2.234375 0l-0.21875 -1.046875l-0.0625 0q-0.71875 0.546875 -1.5625 0.90625q-0.828125 0.359375 -1.734375 0.359375zm0.890625 -2.125q0.609375 0 1.140625 -0.25q0.546875 -0.25 1.03125 -0.625l0 -1.53125q-1.015625 0.0625 -1.6875 0.1875q-0.671875 0.125 -1.078125 0.328125q-0.390625 0.203125 -0.546875 0.46875q-0.15625 0.25 -0.15625 0.546875q0 0.453125 0.34375 0.671875q0.34375 0.203125 0.953125 0.203125zm11.646881 2.125q-1.25 0 -2.4375 -0.40625q-1.1875 -0.40625 -2.09375 -1.0l1.1875 -1.71875q0.84375 0.53125 1.78125 0.8125q0.9375 0.28125 1.9375 0.28125q0.765625 0 1.125 -0.21875q0.359375 -0.21875 0.359375 -0.5625q0 -0.1875 -0.109375 -0.328125q-0.109375 -0.15625 -0.359375 -0.28125q-0.25 -0.125 -0.703125 -0.234375q-0.4375 -0.109375 -1.109375 -0.25q-1.890625 -0.421875 -2.71875 -1.109375q-0.8125 -0.703125 -0.8125 -1.78125q0 -0.640625 0.296875 -1.171875q0.3125 -0.546875 0.859375 -0.921875q0.546875 -0.375 1.328125 -0.59375q0.78125 -0.21875 1.78125 -0.21875q1.25 0 2.265625 0.40625q1.015625 0.40625 1.734375 0.875l-1.234375 1.640625q-0.703125 -0.4375 -1.46875 -0.65625q-0.765625 -0.21875 -1.546875 -0.21875q-0.65625 0 -0.96875 0.203125q-0.3125 0.203125 -0.3125 0.515625q0 0.390625 0.484375 0.5625q0.484375 0.171875 1.65625 0.421875q1.0625 0.25 1.765625 0.53125q0.71875 0.28125 1.125 0.640625q0.40625 0.34375 0.578125 0.796875q0.171875 0.4375 0.171875 1.0q0 0.640625 -0.296875 1.1875q-0.296875 0.53125 -0.875 0.9375q-0.5625 0.390625 -1.421875 0.625q-0.84375 0.234375 -1.96875 0.234375zm12.912506 0q-1.09375 0 -1.859375 -0.296875q-0.765625 -0.296875 -1.25 -0.828125q-0.46875 -0.53125 -0.671875 -1.265625q-0.203125 -0.75 -0.203125 -1.671875l0 -3.265625l-2.328125 0l0 -2.03125l2.453125 -0.109375l0.359375 -2.84375l2.25 0l0 2.84375l3.921875 0l0 2.140625l-3.921875 0l0 3.25q0 1.0625 0.46875 1.5q0.46875 0.4375 1.5 0.4375q0.515625 0 0.953125 -0.09375q0.4375 -0.09375 0.875 -0.234375l0.484375 1.96875q-0.625 0.1875 -1.359375 0.34375q-0.734375 0.15625 -1.671875 0.15625zm11.271881 3.125q-1.828125 -1.625 -2.890625 -3.75q-1.046875 -2.125 -1.046875 -4.78125q0 -2.640625 1.046875 -4.765625q1.0625 -2.140625 2.890625 -3.765625l1.53125 1.21875q-1.65625 1.625 -2.421875 3.375q-0.75 1.734375 -0.75 3.9375q0 1.109375 0.1875 2.09375q0.1875 0.96875 0.5625 1.875q0.390625 0.890625 0.984375 1.71875q0.59375 0.828125 1.4375 1.625l-1.53125 1.21875zm9.162506 -3.125q-1.546875 0 -2.625 -0.46875q-1.078125 -0.484375 -1.796875 -1.1875l1.234375 -1.734375q0.59375 0.484375 1.265625 0.828125q0.6875 0.34375 1.53125 0.34375q1.0 0 1.640625 -0.453125q0.65625 -0.46875 0.65625 -1.390625q0 -0.890625 -0.609375 -1.359375q-0.609375 -0.46875 -1.5625 -0.46875q-0.296875 0 -0.53125 0.03125q-0.234375 0.03125 -0.453125 0.109375q-0.21875 0.0625 -0.46875 0.171875q-0.234375 0.109375 -0.546875 0.28125l-1.203125 -0.78125l0.3125 -5.984375l7.265625 0l0 2.3125l-4.890625 0l-0.203125 2.21875q0.40625 -0.15625 0.75 -0.21875q0.359375 -0.0625 0.8125 -0.0625q0.8125 0 1.546875 0.234375q0.75 0.21875 1.296875 0.671875q0.5625 0.4375 0.890625 1.125q0.328125 0.6875 0.328125 1.640625q0 1.0 -0.390625 1.765625q-0.375 0.75 -1.015625 1.296875q-0.640625 0.53125 -1.484375 0.8125q-0.84375 0.265625 -1.75 0.265625zm11.506256 0q-1.015625 0 -1.859375 -0.390625q-0.84375 -0.40625 -1.4375 -1.1875q-0.59375 -0.78125 -0.921875 -1.9375q-0.328125 -1.15625 -0.328125 -2.671875q0 -1.515625 0.328125 -2.640625q0.328125 -1.140625 0.921875 -1.921875q0.59375 -0.78125 1.4375 -1.15625q0.84375 -0.390625 1.859375 -0.390625q1.03125 0 1.859375 0.390625q0.84375 0.375 1.4375 1.15625q0.609375 0.78125 0.9375 1.921875q0.328125 1.125 0.328125 2.640625q0 1.515625 -0.328125 2.671875q-0.328125 1.15625 -0.9375 1.9375q-0.59375 0.78125 -1.4375 1.1875q-0.828125 0.390625 -1.859375 0.390625zm0 -2.125q0.453125 0 0.828125 -0.203125q0.390625 -0.203125 0.671875 -0.671875q0.28125 -0.484375 0.4375 -1.25q0.171875 -0.78125 0.171875 -1.9375q0 -1.15625 -0.171875 -1.921875q-0.15625 -0.765625 -0.4375 -1.21875q-0.28125 -0.46875 -0.671875 -0.640625q-0.375 -0.1875 -0.828125 -0.1875q-0.4375 0 -0.828125 0.1875q-0.375 0.171875 -0.65625 0.640625q-0.28125 0.453125 -0.453125 1.21875q-0.171875 0.765625 -0.171875 1.921875q0 1.15625 0.171875 1.9375q0.171875 0.765625 0.453125 1.25q0.28125 0.46875 0.65625 0.671875q0.390625 0.203125 0.828125 0.203125zm0 -2.6875q-0.59375 0 -1.0 -0.375q-0.390625 -0.390625 -0.390625 -1.03125q0 -0.65625 0.390625 -1.03125q0.40625 -0.390625 1.0 -0.390625q0.59375 0 1.0 0.390625q0.40625 0.375 0.40625 1.03125q0 0.640625 -0.40625 1.03125q-0.40625 0.375 -1.0 0.375zm11.193756 4.8125q-1.015625 0 -1.859375 -0.390625q-0.84375 -0.40625 -1.4375 -1.1875q-0.59375 -0.78125 -0.921875 -1.9375q-0.328125 -1.15625 -0.328125 -2.671875q0 -1.515625 0.328125 -2.640625q0.328125 -1.140625 0.921875 -1.921875q0.59375 -0.78125 1.4375 -1.15625q0.84375 -0.390625 1.859375 -0.390625q1.03125 0 1.859375 0.390625q0.84375 0.375 1.4375 1.15625q0.609375 0.78125 0.9375 1.921875q0.328125 1.125 0.328125 2.640625q0 1.515625 -0.328125 2.671875q-0.328125 1.15625 -0.9375 1.9375q-0.59375 0.78125 -1.4375 1.1875q-0.828125 0.390625 -1.859375 0.390625zm0 -2.125q0.453125 0 0.828125 -0.203125q0.390625 -0.203125 0.671875 -0.671875q0.28125 -0.484375 0.4375 -1.25q0.171875 -0.78125 0.171875 -1.9375q0 -1.15625 -0.171875 -1.921875q-0.15625 -0.765625 -0.4375 -1.21875q-0.28125 -0.46875 -0.671875 -0.640625q-0.375 -0.1875 -0.828125 -0.1875q-0.4375 0 -0.828125 0.1875q-0.375 0.171875 -0.65625 0.640625q-0.28125 0.453125 -0.453125 1.21875q-0.171875 0.765625 -0.171875 1.921875q0 1.15625 0.171875 1.9375q0.171875 0.765625 0.453125 1.25q0.28125 0.46875 0.65625 0.671875q0.390625 0.203125 0.828125 0.203125zm0 -2.6875q-0.59375 0 -1.0 -0.375q-0.390625 -0.390625 -0.390625 -1.03125q0 -0.65625 0.390625 -1.03125q0.40625 -0.390625 1.0 -0.390625q0.59375 0 1.0 0.390625q0.40625 0.375 0.40625 1.03125q0 0.640625 -0.40625 1.03125q-0.40625 0.375 -1.0 0.375zm9.475006 7.9375l-1.53125 -1.21875q0.84375 -0.796875 1.4375 -1.625q0.609375 -0.828125 0.984375 -1.71875q0.390625 -0.90625 0.5625 -1.875q0.1875 -0.984375 0.1875 -2.09375q0 -2.203125 -0.75 -3.9375q-0.75 -1.75 -2.421875 -3.375l1.53125 -1.21875q1.828125 1.625 2.875 3.765625q1.0625 2.125 1.0625 4.765625q0 2.65625 -1.0625 4.78125q-1.046875 2.125 -2.875 3.75z" fill-rule="nonzero"/><path fill="#000000" fill-opacity="0.0" d="m514.6725 249.16325l37.795227 0l0 37.228348l-37.795227 0z" fill-rule="evenodd"/><path fill="#000000" fill-opacity="0.0" d="m533.57007 249.16325l0 37.228348" fill-rule="evenodd"/><path stroke="#000000" stroke-width="1.0" stroke-linejoin="round" stroke-linecap="butt" stroke-dasharray="4.0,3.0" d="m533.57007 249.16327l0 31.228333" fill-rule="evenodd"/><path fill="#000000" stroke="#000000" stroke-width="1.0" stroke-linecap="butt" d="m531.91833 280.3916l1.6517334 4.5381165l1.6517334 -4.5381165z" fill-rule="evenodd"/><path fill="#ffffff" d="m325.7863 211.3677l188.88193 0l0 37.795273l-188.88193 0z" fill-rule="evenodd"/><path stroke="#000000" stroke-width="1.0" stroke-linejoin="round" stroke-linecap="butt" stroke-dasharray="4.0,3.0" d="m325.7863 211.3677l188.88193 0l0 37.795273l-188.88193 0z" fill-rule="evenodd"/><path fill="#000000" d="m398.09833 230.42223l0.578125 -5.671875l5.828125 0l0 1.40625l-4.609375 0l-0.328125 3.03125q0.34375 -0.203125 0.8125 -0.34375q0.46875 -0.15625 1.078125 -0.15625q0.796875 0 1.421875 0.28125q0.625 0.265625 1.0625 0.765625q0.4375 0.5 0.671875 1.203125q0.234375 0.703125 0.234375 1.5625q0 0.8125 -0.21875 1.515625q-0.21875 0.6875 -0.671875 1.1875q-0.4375 0.5 -1.109375 0.796875q-0.671875 0.28125 -1.578125 0.28125q-0.6875 0 -1.3125 -0.1875q-0.609375 -0.203125 -1.09375 -0.59375q-0.484375 -0.390625 -0.796875 -0.984375q-0.296875 -0.59375 -0.375 -1.390625l1.375 0q0.125 0.96875 0.703125 1.46875q0.59375 0.5 1.5 0.5q0.515625 0 0.90625 -0.171875q0.40625 -0.1875 0.671875 -0.53125q0.28125 -0.34375 0.40625 -0.8125q0.140625 -0.484375 0.140625 -1.0625q0 -0.53125 -0.15625 -0.984375q-0.140625 -0.46875 -0.4375 -0.8125q-0.28125 -0.34375 -0.703125 -0.53125q-0.421875 -0.203125 -0.96875 -0.203125q-0.359375 0 -0.625 0.0625q-0.265625 0.046875 -0.484375 0.140625q-0.203125 0.09375 -0.390625 0.234375q-0.171875 0.125 -0.375 0.296875l-1.15625 -0.296875zm16.226562 1.34375q0 1.09375 -0.25 1.9375q-0.25 0.828125 -0.71875 1.40625q-0.46875 0.578125 -1.15625 0.875q-0.671875 0.296875 -1.546875 0.296875q-0.859375 0 -1.546875 -0.296875q-0.6875 -0.296875 -1.171875 -0.875q-0.46875 -0.578125 -0.71875 -1.40625q-0.25 -0.84375 -0.25 -1.9375l0 -2.65625q0 -1.09375 0.25 -1.921875q0.25 -0.84375 0.71875 -1.421875q0.46875 -0.578125 1.15625 -0.875q0.6875 -0.3125 1.546875 -0.3125q0.875 0 1.5625 0.3125q0.6875 0.296875 1.15625 0.875q0.46875 0.578125 0.71875 1.421875q0.25 0.828125 0.25 1.921875l0 2.65625zm-5.90625 -0.28125l4.421875 -3.40625q-0.125 -1.125 -0.65625 -1.71875q-0.53125 -0.59375 -1.546875 -0.59375q-1.140625 0 -1.6875 0.78125q-0.53125 0.765625 -0.53125 2.234375l0 2.703125zm4.453125 -2.015625l-4.421875 3.375q0.140625 1.109375 0.6875 1.6875q0.546875 0.578125 1.515625 0.578125q1.15625 0 1.6875 -0.78125q0.53125 -0.78125 0.53125 -2.25l0 -2.609375zm11.0546875 2.296875q0 1.09375 -0.25 1.9375q-0.25 0.828125 -0.71875 1.40625q-0.46875 0.578125 -1.15625 0.875q-0.671875 0.296875 -1.546875 0.296875q-0.859375 0 -1.546875 -0.296875q-0.6875 -0.296875 -1.171875 -0.875q-0.46875 -0.578125 -0.71875 -1.40625q-0.25 -0.84375 -0.25 -1.9375l0 -2.65625q0 -1.09375 0.25 -1.921875q0.25 -0.84375 0.71875 -1.421875q0.46875 -0.578125 1.15625 -0.875q0.6875 -0.3125 1.546875 -0.3125q0.875 0 1.5625 0.3125q0.6875 0.296875 1.15625 0.875q0.46875 0.578125 0.71875 1.421875q0.25 0.828125 0.25 1.921875l0 2.65625zm-5.90625 -0.28125l4.421875 -3.40625q-0.125 -1.125 -0.65625 -1.71875q-0.53125 -0.59375 -1.546875 -0.59375q-1.140625 0 -1.6875 0.78125q-0.53125 0.765625 -0.53125 2.234375l0 2.703125zm4.453125 -2.015625l-4.421875 3.375q0.140625 1.109375 0.6875 1.6875q0.546875 0.578125 1.515625 0.578125q1.15625 0 1.6875 -0.78125q0.53125 -0.78125 0.53125 -2.25l0 -2.609375zm4.5859375 -1.796875l0.03125 0.796875q0.265625 -0.453125 0.671875 -0.703125q0.421875 -0.25 1.015625 -0.25q1.171875 0 1.5625 0.90625q0.25 -0.40625 0.65625 -0.65625q0.40625 -0.25 1.0 -0.25q0.921875 0 1.421875 0.578125q0.5 0.5625 0.5 1.71875l0 6.3125l-1.375 0l0 -6.328125q0 -1.0625 -0.96875 -1.0625q-0.265625 0 -0.453125 0.078125q-0.1875 0.0625 -0.3125 0.1875q-0.125 0.125 -0.203125 0.28125q-0.0625 0.15625 -0.078125 0.328125l0 6.515625l-1.375 0l0 -6.34375q0 -0.5 -0.234375 -0.765625q-0.21875 -0.28125 -0.71875 -0.28125q-0.453125 0 -0.703125 0.1875q-0.25 0.171875 -0.359375 0.46875l0 6.734375l-1.375 0l0 -8.453125l1.296875 0zm14.5546875 6.203125q0 -0.25 -0.109375 -0.453125q-0.09375 -0.21875 -0.34375 -0.390625q-0.234375 -0.171875 -0.640625 -0.3125q-0.390625 -0.140625 -0.984375 -0.265625q-0.734375 -0.140625 -1.328125 -0.34375q-0.59375 -0.21875 -1.03125 -0.515625q-0.421875 -0.296875 -0.65625 -0.6875q-0.234375 -0.390625 -0.234375 -0.921875q0 -0.515625 0.234375 -0.953125q0.25 -0.453125 0.6875 -0.78125q0.4375 -0.34375 1.046875 -0.53125q0.609375 -0.203125 1.328125 -0.203125q0.78125 0 1.40625 0.203125q0.625 0.203125 1.0625 0.5625q0.4375 0.359375 0.671875 0.84375q0.25 0.46875 0.25 1.03125l-1.453125 0q0 -0.28125 -0.140625 -0.53125q-0.140625 -0.265625 -0.390625 -0.46875q-0.25 -0.203125 -0.609375 -0.328125q-0.34375 -0.125 -0.796875 -0.125q-0.453125 0 -0.8125 0.109375q-0.34375 0.09375 -0.578125 0.265625q-0.21875 0.171875 -0.34375 0.40625q-0.109375 0.21875 -0.109375 0.453125q0 0.25 0.09375 0.453125q0.09375 0.1875 0.3125 0.34375q0.234375 0.15625 0.625 0.28125q0.390625 0.125 0.984375 0.25q0.78125 0.15625 1.390625 0.375q0.625 0.21875 1.046875 0.515625q0.421875 0.296875 0.640625 0.703125q0.21875 0.390625 0.21875 0.921875q0 0.5625 -0.25 1.03125q-0.25 0.453125 -0.703125 0.78125q-0.453125 0.328125 -1.09375 0.515625q-0.625 0.171875 -1.375 0.171875q-0.859375 0 -1.53125 -0.234375q-0.671875 -0.234375 -1.140625 -0.609375q-0.46875 -0.375 -0.71875 -0.875q-0.234375 -0.5 -0.234375 -1.046875l1.4375 0q0.03125 0.453125 0.234375 0.765625q0.21875 0.296875 0.515625 0.484375q0.3125 0.1875 0.6875 0.265625q0.375 0.078125 0.75 0.078125q0.90625 0 1.4375 -0.328125q0.53125 -0.34375 0.546875 -0.90625z" fill-rule="nonzero"/><path fill="#000000" fill-opacity="0.0" d="m344.1029 190.48819l189.48029 20.881882" fill-rule="evenodd"/><path stroke="#000000" stroke-width="1.0" stroke-linejoin="round" stroke-linecap="butt" stroke-dasharray="4.0,3.0" d="m344.1029 190.48819l183.51642 20.22464" fill-rule="evenodd"/><path fill="#000000" stroke="#000000" stroke-width="1.0" stroke-linecap="butt" d="m527.43835 212.35461l4.6917725 -1.1446838l-4.329895 -2.1389008z" fill-rule="evenodd"/><path fill="#000000" fill-opacity="0.0" d="m325.20526 190.48819l37.795288 0l0 75.590546l-37.795288 0z" fill-rule="evenodd"/><path fill="#000000" fill-opacity="0.0" d="m344.1029 190.48819l0 75.590546" fill-rule="evenodd"/><path stroke="#cccccc" stroke-width="1.0" stroke-linejoin="round" stroke-linecap="butt" stroke-dasharray="4.0,3.0" d="m344.1029 190.48819l0 69.590546" fill-rule="evenodd"/><path fill="#cccccc" stroke="#cccccc" stroke-width="1.0" stroke-linecap="butt" d="m342.45117 260.07874l1.6517334 4.5381165l1.6517334 -4.5381165z" fill-rule="evenodd"/><path fill="#ffffff" d="m325.78586 0.2519685l285.44882 0l0 37.795277l-285.44882 0z" fill-rule="evenodd"/><path stroke="#000000" stroke-width="1.0" stroke-linejoin="round" stroke-linecap="butt" stroke-dasharray="4.0,3.0" d="m325.78586 0.2519685l285.44882 0l0 37.795277l-285.44882 0z" fill-rule="evenodd"/><path fill="#000000" d="m445.75247 25.009605l-1.4375 0l0 -9.53125l-2.984375 1.125l0 -1.3125l4.3125 -1.65625l0.109375 0l0 11.375zm9.6015625 0l-1.4375 0l0 -9.53125l-2.984375 1.125l0 -1.3125l4.3125 -1.65625l0.109375 0l0 11.375zm12.0546875 -4.359375q0 1.09375 -0.25 1.9375q-0.25 0.828125 -0.71875 1.40625q-0.46875 0.578125 -1.15625 0.875q-0.671875 0.296875 -1.546875 0.296875q-0.859375 0 -1.546875 -0.296875q-0.6875 -0.296875 -1.171875 -0.875q-0.46875 -0.578125 -0.71875 -1.40625q-0.25 -0.84375 -0.25 -1.9375l0 -2.65625q0 -1.09375 0.25 -1.921875q0.25 -0.84375 0.71875 -1.421875q0.46875 -0.578125 1.15625 -0.875q0.6875 -0.3125 1.546875 -0.3125q0.875 0 1.5625 0.3125q0.6875 0.296875 1.15625 0.875q0.46875 0.578125 0.71875 1.421875q0.25 0.828125 0.25 1.921875l0 2.65625zm-5.90625 -0.28125l4.421875 -3.40625q-0.125 -1.125 -0.65625 -1.71875q-0.53125 -0.59375 -1.546875 -0.59375q-1.140625 0 -1.6875 0.78125q-0.53125 0.765625 -0.53125 2.234375l0 2.703125zm4.453125 -2.015625l-4.421875 3.375q0.140625 1.109375 0.6875 1.6875q0.546875 0.578125 1.515625 0.578125q1.15625 0 1.6875 -0.78125q0.53125 -0.78125 0.53125 -2.25l0 -2.609375zm11.0546875 2.296875q0 1.09375 -0.25 1.9375q-0.25 0.828125 -0.71875 1.40625q-0.46875 0.578125 -1.15625 0.875q-0.671875 0.296875 -1.546875 0.296875q-0.859375 0 -1.546875 -0.296875q-0.6875 -0.296875 -1.171875 -0.875q-0.46875 -0.578125 -0.71875 -1.40625q-0.25 -0.84375 -0.25 -1.9375l0 -2.65625q0 -1.09375 0.25 -1.921875q0.25 -0.84375 0.71875 -1.421875q0.46875 -0.578125 1.15625 -0.875q0.6875 -0.3125 1.546875 -0.3125q0.875 0 1.5625 0.3125q0.6875 0.296875 1.15625 0.875q0.46875 0.578125 0.71875 1.421875q0.25 0.828125 0.25 1.921875l0 2.65625zm-5.90625 -0.28125l4.421875 -3.40625q-0.125 -1.125 -0.65625 -1.71875q-0.53125 -0.59375 -1.546875 -0.59375q-1.140625 0 -1.6875 0.78125q-0.53125 0.765625 -0.53125 2.234375l0 2.703125zm4.453125 -2.015625l-4.421875 3.375q0.140625 1.109375 0.6875 1.6875q0.546875 0.578125 1.515625 0.578125q1.15625 0 1.6875 -0.78125q0.53125 -0.78125 0.53125 -2.25l0 -2.609375zm4.5859375 -1.796875l0.03125 0.796875q0.265625 -0.453125 0.671875 -0.703125q0.421875 -0.25 1.015625 -0.25q1.171875 0 1.5625 0.90625q0.25 -0.40625 0.65625 -0.65625q0.40625 -0.25 1.0 -0.25q0.921875 0 1.421875 0.578125q0.5 0.5625 0.5 1.71875l0 6.3125l-1.375 0l0 -6.328125q0 -1.0625 -0.96875 -1.0625q-0.265625 0 -0.453125 0.078125q-0.1875 0.0625 -0.3125 0.1875q-0.125 0.125 -0.203125 0.28125q-0.0625 0.15625 -0.078125 0.328125l0 6.515625l-1.375 0l0 -6.34375q0 -0.5 -0.234375 -0.765625q-0.21875 -0.28125 -0.71875 -0.28125q-0.453125 0 -0.703125 0.1875q-0.25 0.171875 -0.359375 0.46875l0 6.734375l-1.375 0l0 -8.453125l1.296875 0zm14.5546875 6.203125q0 -0.25 -0.109375 -0.453125q-0.09375 -0.21875 -0.34375 -0.390625q-0.234375 -0.171875 -0.640625 -0.3125q-0.390625 -0.140625 -0.984375 -0.265625q-0.734375 -0.140625 -1.328125 -0.34375q-0.59375 -0.21875 -1.03125 -0.515625q-0.421875 -0.296875 -0.65625 -0.6875q-0.234375 -0.390625 -0.234375 -0.921875q0 -0.515625 0.234375 -0.953125q0.25 -0.453125 0.6875 -0.78125q0.4375 -0.34375 1.046875 -0.53125q0.609375 -0.203125 1.328125 -0.203125q0.78125 0 1.40625 0.203125q0.625 0.203125 1.0625 0.5625q0.4375 0.359375 0.671875 0.84375q0.25 0.46875 0.25 1.03125l-1.453125 0q0 -0.28125 -0.140625 -0.53125q-0.140625 -0.265625 -0.390625 -0.46875q-0.25 -0.203125 -0.609375 -0.328125q-0.34375 -0.125 -0.796875 -0.125q-0.453125 0 -0.8125 0.109375q-0.34375 0.09375 -0.578125 0.265625q-0.21875 0.171875 -0.34375 0.40625q-0.109375 0.21875 -0.109375 0.453125q0 0.25 0.09375 0.453125q0.09375 0.1875 0.3125 0.34375q0.234375 0.15625 0.625 0.28125q0.390625 0.125 0.984375 0.25q0.78125 0.15625 1.390625 0.375q0.625 0.21875 1.046875 0.515625q0.421875 0.296875 0.640625 0.703125q0.21875 0.390625 0.21875 0.921875q0 0.5625 -0.25 1.03125q-0.25 0.453125 -0.703125 0.78125q-0.453125 0.328125 -1.09375 0.515625q-0.625 0.171875 -1.375 0.171875q-0.859375 0 -1.53125 -0.234375q-0.671875 -0.234375 -1.140625 -0.609375q-0.46875 -0.375 -0.71875 -0.875q-0.234375 -0.5 -0.234375 -1.046875l1.4375 0q0.03125 0.453125 0.234375 0.765625q0.21875 0.296875 0.515625 0.484375q0.3125 0.1875 0.6875 0.265625q0.375 0.078125 0.75 0.078125q0.90625 0 1.4375 -0.328125q0.53125 -0.34375 0.546875 -0.90625z" fill-rule="nonzero"/><path fill="#000000" fill-opacity="0.0" d="m611.2243 0.25324935l37.82672 0l0 37.795277l-37.82672 0z" fill-rule="evenodd"/><path fill="#000000" fill-opacity="0.0" d="m611.2243 19.150887l37.82672 0" fill-rule="evenodd"/><path stroke="#000000" stroke-width="1.0" stroke-linejoin="round" stroke-linecap="butt" d="m611.2243 19.150887l37.82672 0" fill-rule="evenodd"/><path fill="#6734ba" d="m611.2558 19.150887l0 0c0 -10.436876 8.460754 -18.897636 18.897644 -18.897636l0 0c5.011963 0 9.8186035 1.9909954 13.36261 5.5349903c3.5440063 3.543994 5.534973 8.350682 5.534973 13.362647l0 0c0 10.436878 -8.460754 18.89764 -18.897583 18.89764l0 0c-10.43689 0 -18.897644 -8.460762 -18.897644 -18.89764z" fill-rule="evenodd"/><path fill="#000000" d="m645.27155 0.25222152l3.77948 0l0 37.795277l-3.77948 0z" fill-rule="evenodd"/><path fill="#000000" fill-opacity="0.0" d="m611.24066 37.7958l37.795288 0l0 18.897636l-37.795288 0z" fill-rule="evenodd"/><path fill="#000000" fill-opacity="0.0" d="m630.1383 37.7958l0 18.897636" fill-rule="evenodd"/><path stroke="#000000" stroke-width="1.0" stroke-linejoin="round" stroke-linecap="butt" stroke-dasharray="4.0,3.0" d="m630.1383 37.7958l0 12.897636" fill-rule="evenodd"/><path fill="#000000" stroke="#000000" stroke-width="1.0" stroke-linecap="butt" d="m628.4866 50.693436l1.6517334 4.5380974l1.6517334 -4.5380974z" fill-rule="evenodd"/><path fill="#ffffff" d="m325.78586 303.87402l285.44882 0l0 37.795258l-285.44882 0z" fill-rule="evenodd"/><path stroke="#000000" stroke-width="1.0" stroke-linejoin="round" stroke-linecap="butt" stroke-dasharray="4.0,3.0" d="m325.78586 303.87402l285.44882 0l0 37.795258l-285.44882 0z" fill-rule="evenodd"/><path fill="#000000" d="m445.75247 328.63165l-1.4375 0l0 -9.53125l-2.984375 1.125l0 -1.3125l4.3125 -1.65625l0.109375 0l0 11.375zm9.6015625 0l-1.4375 0l0 -9.53125l-2.984375 1.125l0 -1.3125l4.3125 -1.65625l0.109375 0l0 11.375zm12.0546875 -4.359375q0 1.09375 -0.25 1.9375q-0.25 0.828125 -0.71875 1.40625q-0.46875 0.578125 -1.15625 0.875q-0.671875 0.296875 -1.546875 0.296875q-0.859375 0 -1.546875 -0.296875q-0.6875 -0.296875 -1.171875 -0.875q-0.46875 -0.578125 -0.71875 -1.40625q-0.25 -0.84375 -0.25 -1.9375l0 -2.65625q0 -1.09375 0.25 -1.921875q0.25 -0.84375 0.71875 -1.421875q0.46875 -0.578125 1.15625 -0.875q0.6875 -0.3125 1.546875 -0.3125q0.875 0 1.5625 0.3125q0.6875 0.296875 1.15625 0.875q0.46875 0.578125 0.71875 1.421875q0.25 0.828125 0.25 1.921875l0 2.65625zm-5.90625 -0.28125l4.421875 -3.40625q-0.125 -1.125 -0.65625 -1.71875q-0.53125 -0.59375 -1.546875 -0.59375q-1.140625 0 -1.6875 0.78125q-0.53125 0.765625 -0.53125 2.234375l0 2.703125zm4.453125 -2.015625l-4.421875 3.375q0.140625 1.109375 0.6875 1.6875q0.546875 0.578125 1.515625 0.578125q1.15625 0 1.6875 -0.78125q0.53125 -0.78125 0.53125 -2.25l0 -2.609375zm11.0546875 2.296875q0 1.09375 -0.25 1.9375q-0.25 0.828125 -0.71875 1.40625q-0.46875 0.578125 -1.15625 0.875q-0.671875 0.296875 -1.546875 0.296875q-0.859375 0 -1.546875 -0.296875q-0.6875 -0.296875 -1.171875 -0.875q-0.46875 -0.578125 -0.71875 -1.40625q-0.25 -0.84375 -0.25 -1.9375l0 -2.65625q0 -1.09375 0.25 -1.921875q0.25 -0.84375 0.71875 -1.421875q0.46875 -0.578125 1.15625 -0.875q0.6875 -0.3125 1.546875 -0.3125q0.875 0 1.5625 0.3125q0.6875 0.296875 1.15625 0.875q0.46875 0.578125 0.71875 1.421875q0.25 0.828125 0.25 1.921875l0 2.65625zm-5.90625 -0.28125l4.421875 -3.40625q-0.125 -1.125 -0.65625 -1.71875q-0.53125 -0.59375 -1.546875 -0.59375q-1.140625 0 -1.6875 0.78125q-0.53125 0.765625 -0.53125 2.234375l0 2.703125zm4.453125 -2.015625l-4.421875 3.375q0.140625 1.109375 0.6875 1.6875q0.546875 0.578125 1.515625 0.578125q1.15625 0 1.6875 -0.78125q0.53125 -0.78125 0.53125 -2.25l0 -2.609375zm4.5859375 -1.796875l0.03125 0.796875q0.265625 -0.453125 0.671875 -0.703125q0.421875 -0.25 1.015625 -0.25q1.171875 0 1.5625 0.90625q0.25 -0.40625 0.65625 -0.65625q0.40625 -0.25 1.0 -0.25q0.921875 0 1.421875 0.578125q0.5 0.5625 0.5 1.71875l0 6.3125l-1.375 0l0 -6.328125q0 -1.0625 -0.96875 -1.0625q-0.265625 0 -0.453125 0.078125q-0.1875 0.0625 -0.3125 0.1875q-0.125 0.125 -0.203125 0.28125q-0.0625 0.15625 -0.078125 0.328125l0 6.515625l-1.375 0l0 -6.34375q0 -0.5 -0.234375 -0.765625q-0.21875 -0.28125 -0.71875 -0.28125q-0.453125 0 -0.703125 0.1875q-0.25 0.171875 -0.359375 0.46875l0 6.734375l-1.375 0l0 -8.453125l1.296875 0zm14.5546875 6.203125q0 -0.25 -0.109375 -0.453125q-0.09375 -0.21875 -0.34375 -0.390625q-0.234375 -0.171875 -0.640625 -0.3125q-0.390625 -0.140625 -0.984375 -0.265625q-0.734375 -0.140625 -1.328125 -0.34375q-0.59375 -0.21875 -1.03125 -0.515625q-0.421875 -0.296875 -0.65625 -0.6875q-0.234375 -0.390625 -0.234375 -0.921875q0 -0.515625 0.234375 -0.953125q0.25 -0.453125 0.6875 -0.78125q0.4375 -0.34375 1.046875 -0.53125q0.609375 -0.203125 1.328125 -0.203125q0.78125 0 1.40625 0.203125q0.625 0.203125 1.0625 0.5625q0.4375 0.359375 0.671875 0.84375q0.25 0.46875 0.25 1.03125l-1.453125 0q0 -0.28125 -0.140625 -0.53125q-0.140625 -0.265625 -0.390625 -0.46875q-0.25 -0.203125 -0.609375 -0.328125q-0.34375 -0.125 -0.796875 -0.125q-0.453125 0 -0.8125 0.109375q-0.34375 0.09375 -0.578125 0.265625q-0.21875 0.171875 -0.34375 0.40625q-0.109375 0.21875 -0.109375 0.453125q0 0.25 0.09375 0.453125q0.09375 0.1875 0.3125 0.34375q0.234375 0.15625 0.625 0.28125q0.390625 0.125 0.984375 0.25q0.78125 0.15625 1.390625 0.375q0.625 0.21875 1.046875 0.515625q0.421875 0.296875 0.640625 0.703125q0.21875 0.390625 0.21875 0.921875q0 0.5625 -0.25 1.03125q-0.25 0.453125 -0.703125 0.78125q-0.453125 0.328125 -1.09375 0.515625q-0.625 0.171875 -1.375 0.171875q-0.859375 0 -1.53125 -0.234375q-0.671875 -0.234375 -1.140625 -0.609375q-0.46875 -0.375 -0.71875 -0.875q-0.234375 -0.5 -0.234375 -1.046875l1.4375 0q0.03125 0.453125 0.234375 0.765625q0.21875 0.296875 0.515625 0.484375q0.3125 0.1875 0.6875 0.265625q0.375 0.078125 0.75 0.078125q0.90625 0 1.4375 -0.328125q0.53125 -0.34375 0.546875 -0.90625z" fill-rule="nonzero"/><path fill="#000000" fill-opacity="0.0" d="m611.2243 303.8753l37.82672 0l0 37.795258l-37.82672 0z" fill-rule="evenodd"/><path fill="#000000" fill-opacity="0.0" d="m611.2243 322.77295l37.82672 0" fill-rule="evenodd"/><path stroke="#000000" stroke-width="1.0" stroke-linejoin="round" stroke-linecap="butt" d="m611.2243 322.77295l37.82672 0" fill-rule="evenodd"/><path fill="#6734ba" d="m611.2558 322.77295l0 0c0 -10.43689 8.460754 -18.897644 18.897644 -18.897644l0 0c5.011963 0 9.8186035 1.9909973 13.36261 5.534973c3.5440063 3.5440063 5.534973 8.3506775 5.534973 13.362671l0 0c0 10.436859 -8.460754 18.897614 -18.897583 18.897614l0 0c-10.43689 0 -18.897644 -8.460754 -18.897644 -18.897614z" fill-rule="evenodd"/><path fill="#000000" d="m645.27155 303.87427l3.77948 0l0 37.795288l-3.77948 0z" fill-rule="evenodd"/><path fill="#000000" fill-opacity="0.0" d="m611.24066 341.41785l37.795288 0l0 18.897644l-37.795288 0z" fill-rule="evenodd"/><path fill="#000000" fill-opacity="0.0" d="m630.1383 341.41785l0 18.897644" fill-rule="evenodd"/><path stroke="#000000" stroke-width="1.0" stroke-linejoin="round" stroke-linecap="butt" stroke-dasharray="4.0,3.0" d="m630.1383 341.41785l0 12.897644" fill-rule="evenodd"/><path fill="#000000" stroke="#000000" stroke-width="1.0" stroke-linecap="butt" d="m628.4866 354.3155l1.6517334 4.538086l1.6517334 -4.538086z" fill-rule="evenodd"/><path fill="#000000" fill-opacity="0.0" d="m533.366 284.97638l96.787415 75.33859" fill-rule="evenodd"/><path stroke="#cccccc" stroke-width="1.0" stroke-linejoin="round" stroke-linecap="butt" stroke-dasharray="4.0,3.0" d="m533.366 284.97638l92.05267 71.65314" fill-rule="evenodd"/><path fill="#cccccc" stroke="#cccccc" stroke-width="1.0" stroke-linecap="butt" d="m624.4042 357.93292l4.595642 1.4840698l-2.5665283 -4.090912z" fill-rule="evenodd"/><path fill="#000000" fill-opacity="0.0" d="m514.4684 284.97638l37.795288 0l0 75.590546l-37.795288 0z" fill-rule="evenodd"/><path fill="#000000" fill-opacity="0.0" d="m533.366 284.97638l0 75.590546" fill-rule="evenodd"/><path stroke="#cccccc" stroke-width="1.0" stroke-linejoin="round" stroke-linecap="butt" stroke-dasharray="4.0,3.0" d="m533.366 284.97638l0 69.590546" fill-rule="evenodd"/><path fill="#cccccc" stroke="#cccccc" stroke-width="1.0" stroke-linecap="butt" d="m531.7143 354.56693l1.6517334 4.5381165l1.6517334 -4.5381165z" fill-rule="evenodd"/><path fill="#000000" fill-opacity="0.0" d="m325.67047 57.98163l378.3307 0l0 323.52756l-378.3307 0z" fill-rule="evenodd"/><path stroke="#000000" stroke-width="1.0" stroke-linejoin="round" stroke-linecap="butt" d="m325.67047 57.98163l378.3307 0l0 323.52756l-378.3307 0z" fill-rule="evenodd"/></g></svg>