<svg version="1.1" viewBox="0.0 0.0 451.2755905511811 105.8267716535433" fill="none" stroke="none" stroke-linecap="square" stroke-miterlimit="10" xmlns:xlink="http://www.w3.org/1999/xlink" xmlns="http://www.w3.org/2000/svg"><clipPath id="p.0"><path d="m0 0l451.2756 0l0 105.826775l-451.2756 0l0 -105.826775z" clip-rule="nonzero"/></clipPath><g clip-path="url(#p.0)"><path fill="#000000" fill-opacity="0.0" d="m0 0l451.2756 0l0 105.826775l-451.2756 0z" fill-rule="evenodd"/><path fill="#000000" fill-opacity="0.0" d="m318.3622 18.923527l18.897644 0l0 18.89764l-18.897644 0z" fill-rule="evenodd"/><path stroke="#f3f3f3" stroke-width="1.0" stroke-linejoin="round" stroke-linecap="butt" d="m318.3622 18.923527l18.897644 0l0 18.89764l-18.897644 0z" fill-rule="evenodd"/><path fill="#000000" fill-opacity="0.0" d="m356.15747 18.923527l18.897644 0l0 18.89764l-18.897644 0z" fill-rule="evenodd"/><path stroke="#f3f3f3" stroke-width="1.0" stroke-linejoin="round" stroke-linecap="butt" d="m356.15747 18.923527l18.897644 0l0 18.89764l-18.897644 0z" fill-rule="evenodd"/><path fill="#000000" fill-opacity="0.0" d="m186.07874 18.923527l18.897644 0l0 18.89764l-18.897644 0z" fill-rule="evenodd"/><path stroke="#f3f3f3" stroke-width="1.0" stroke-linejoin="round" stroke-linecap="butt" d="m186.07874 18.923527l18.897644 0l0 18.89764l-18.897644 0z" fill-rule="evenodd"/><path fill="#000000" fill-opacity="0.0" d="m204.97638 18.923527l18.897629 0l0 18.89764l-18.897629 0z" fill-rule="evenodd"/><path stroke="#f3f3f3" stroke-width="1.0" stroke-linejoin="round" stroke-linecap="butt" d="m204.97638 18.923527l18.897629 0l0 18.89764l-18.897629 0z" fill-rule="evenodd"/><path fill="#000000" fill-opacity="0.0" d="m261.66928 18.923527l18.897644 0l0 18.89764l-18.897644 0z" fill-rule="evenodd"/><path stroke="#f3f3f3" stroke-width="1.0" stroke-linejoin="round" stroke-linecap="butt" d="m261.66928 18.923527l18.897644 0l0 18.89764l-18.897644 0z" fill-rule="evenodd"/><path fill="#000000" fill-opacity="0.0" d="m280.56693 18.923527l18.897644 0l0 18.89764l-18.897644 0z" fill-rule="evenodd"/><path stroke="#f3f3f3" stroke-width="1.0" stroke-linejoin="round" stroke-linecap="butt" d="m280.56693 18.923527l18.897644 0l0 18.89764l-18.897644 0z" fill-rule="evenodd"/><path fill="#000000" fill-opacity="0.0" d="m299.46457 18.923527l18.897644 0l0 18.89764l-18.897644 0z" fill-rule="evenodd"/><path stroke="#f3f3f3" stroke-width="1.0" stroke-linejoin="round" stroke-linecap="butt" d="m299.46457 18.923527l18.897644 0l0 18.89764l-18.897644 0z" fill-rule="evenodd"/><path fill="#000000" fill-opacity="0.0" d="m91.59055 18.923527l18.897636 0l0 18.89764l-18.897636 0z" fill-rule="evenodd"/><path stroke="#f3f3f3" stroke-width="1.0" stroke-linejoin="round" stroke-linecap="butt" d="m91.59055 18.923527l18.897636 0l0 18.89764l-18.897636 0z" fill-rule="evenodd"/><path fill="#000000" fill-opacity="0.0" d="m110.48819 18.923527l18.897644 0l0 18.89764l-18.897644 0z" fill-rule="evenodd"/><path stroke="#f3f3f3" stroke-width="1.0" stroke-linejoin="round" stroke-linecap="butt" d="m110.48819 18.923527l18.897644 0l0 18.89764l-18.897644 0z" fill-rule="evenodd"/><path fill="#000000" fill-opacity="0.0" d="m167.1811 18.923527l18.897629 0l0 18.89764l-18.897629 0z" fill-rule="evenodd"/><path stroke="#f3f3f3" stroke-width="1.0" stroke-linejoin="round" stroke-linecap="butt" d="m167.1811 18.923527l18.897629 0l0 18.89764l-18.897629 0z" fill-rule="evenodd"/><path fill="#000000" fill-opacity="0.0" d="m375.0551 18.923527l18.897644 0l0 18.89764l-18.897644 0z" fill-rule="evenodd"/><path stroke="#f3f3f3" stroke-width="1.0" stroke-linejoin="round" stroke-linecap="butt" d="m375.0551 18.923527l18.897644 0l0 18.89764l-18.897644 0z" fill-rule="evenodd"/><path fill="#000000" fill-opacity="0.0" d="m393.95276 18.923527l18.897644 0l0 18.89764l-18.897644 0z" fill-rule="evenodd"/><path stroke="#f3f3f3" stroke-width="1.0" stroke-linejoin="round" stroke-linecap="butt" d="m393.95276 18.923527l18.897644 0l0 18.89764l-18.897644 0z" fill-rule="evenodd"/><path fill="#000000" fill-opacity="0.0" d="m412.8504 18.923527l18.897614 0l0 18.89764l-18.897614 0z" fill-rule="evenodd"/><path stroke="#f3f3f3" stroke-width="1.0" stroke-linejoin="round" stroke-linecap="butt" d="m412.8504 18.923527l18.897614 0l0 18.89764l-18.897614 0z" fill-rule="evenodd"/><path fill="#000000" fill-opacity="0.0" d="m129.38583 18.923527l18.897629 0l0 18.89764l-18.897629 0z" fill-rule="evenodd"/><path stroke="#f3f3f3" stroke-width="1.0" stroke-linejoin="round" stroke-linecap="butt" d="m129.38583 18.923527l18.897629 0l0 18.89764l-18.897629 0z" fill-rule="evenodd"/><path fill="#000000" fill-opacity="0.0" d="m223.87401 18.923527l18.897644 0l0 18.89764l-18.897644 0z" fill-rule="evenodd"/><path stroke="#f3f3f3" stroke-width="1.0" stroke-linejoin="round" stroke-linecap="butt" d="m223.87401 18.923527l18.897644 0l0 18.89764l-18.897644 0z" fill-rule="evenodd"/><path fill="#000000" fill-opacity="0.0" d="m337.25986 18.923527l18.897614 0l0 18.89764l-18.897614 0z" fill-rule="evenodd"/><path stroke="#d9d9d9" stroke-width="1.0" stroke-linejoin="round" stroke-linecap="butt" d="m337.25986 18.923527l18.897614 0l0 18.89764l-18.897614 0z" fill-rule="evenodd"/><path fill="#efefef" d="m344.59512 32.112347l-1.46875 0l0 -5.8125l-1.90625 0.6875l0 -1.265625l3.296875 -1.1875l0.078125 0l0 7.578125zm2.9260254 -3.734375l0.421875 -3.84375l4.203125 0l0 1.234375l-3.0 0l-0.1875 1.65625q0.15625 -0.09375 0.453125 -0.1875q0.296875 -0.09375 0.6875 -0.09375q0.546875 0 0.96875 0.171875q0.4375 0.171875 0.71875 0.5q0.296875 0.328125 0.453125 0.8125q0.15625 0.46875 0.15625 1.0625q0 0.5 -0.15625 0.96875q-0.140625 0.453125 -0.453125 0.8125q-0.3125 0.34375 -0.796875 0.546875q-0.46875 0.203125 -1.109375 0.203125q-0.484375 0 -0.9375 -0.140625q-0.453125 -0.15625 -0.8125 -0.4375q-0.359375 -0.28125 -0.578125 -0.6875q-0.21875 -0.40625 -0.234375 -0.9375l1.421875 0q0.0625 0.5 0.359375 0.765625q0.296875 0.265625 0.78125 0.265625q0.28125 0 0.484375 -0.109375q0.21875 -0.109375 0.34375 -0.296875q0.125 -0.1875 0.1875 -0.453125q0.0625 -0.265625 0.0625 -0.578125q0 -0.296875 -0.078125 -0.546875q-0.078125 -0.25 -0.234375 -0.4375q-0.15625 -0.1875 -0.390625 -0.28125q-0.234375 -0.09375 -0.546875 -0.09375q-0.21875 0 -0.375 0.03125q-0.15625 0.03125 -0.28125 0.09375q-0.109375 0.0625 -0.203125 0.140625q-0.09375 0.0625 -0.171875 0.15625l-1.15625 -0.296875z" fill-rule="nonzero"/><path fill="#000000" fill-opacity="0.0" d="m148.28346 18.923527l18.897644 0l0 18.89764l-18.897644 0z" fill-rule="evenodd"/><path stroke="#d9d9d9" stroke-width="1.0" stroke-linejoin="round" stroke-linecap="butt" d="m148.28346 18.923527l18.897644 0l0 18.89764l-18.897644 0z" fill-rule="evenodd"/><path fill="#efefef" d="m155.34738 28.377972l0.421875 -3.84375l4.203125 0l0 1.234375l-3.0 0l-0.1875 1.65625q0.15625 -0.09375 0.453125 -0.1875q0.296875 -0.09375 0.6875 -0.09375q0.546875 0 0.96875 0.171875q0.4375 0.171875 0.71875 0.5q0.296875 0.328125 0.453125 0.8125q0.15625 0.46875 0.15625 1.0625q0 0.5 -0.15625 0.96875q-0.140625 0.453125 -0.453125 0.8125q-0.3125 0.34375 -0.796875 0.546875q-0.46875 0.203125 -1.109375 0.203125q-0.484375 0 -0.9375 -0.140625q-0.453125 -0.15625 -0.8125 -0.4375q-0.359375 -0.28125 -0.578125 -0.6875q-0.21875 -0.40625 -0.234375 -0.9375l1.421875 0q0.0625 0.5 0.359375 0.765625q0.296875 0.265625 0.78125 0.265625q0.28125 0 0.484375 -0.109375q0.21875 -0.109375 0.34375 -0.296875q0.125 -0.1875 0.1875 -0.453125q0.0625 -0.265625 0.0625 -0.578125q0 -0.296875 -0.078125 -0.546875q-0.078125 -0.25 -0.234375 -0.4375q-0.15625 -0.1875 -0.390625 -0.28125q-0.234375 -0.09375 -0.546875 -0.09375q-0.21875 0 -0.375 0.03125q-0.15625 0.03125 -0.28125 0.09375q-0.109375 0.0625 -0.203125 0.140625q-0.09375 0.0625 -0.171875 0.15625l-1.15625 -0.296875z" fill-rule="nonzero"/><path fill="#000000" fill-opacity="0.0" d="m431.74802 18.923527l18.897644 0l0 18.89764l-18.897644 0z" fill-rule="evenodd"/><path stroke="#d9d9d9" stroke-width="1.0" stroke-linejoin="round" stroke-linecap="butt" d="m431.74802 18.923527l18.897644 0l0 18.89764l-18.897644 0z" fill-rule="evenodd"/><path fill="#d9d9d9" d="m440.48956 32.112347l-5.171875 0l0 -0.984375l2.453125 -2.640625q0.28125 -0.3125 0.484375 -0.5625q0.203125 -0.25 0.3125 -0.453125q0.125 -0.21875 0.171875 -0.40625q0.0625 -0.1875 0.0625 -0.359375q0 -0.25 -0.078125 -0.4375q-0.0625 -0.203125 -0.203125 -0.34375q-0.125 -0.140625 -0.3125 -0.203125q-0.1875 -0.078125 -0.40625 -0.078125q-0.59375 0 -0.890625 0.328125q-0.296875 0.328125 -0.296875 0.9375l-1.453125 0q0 -0.515625 0.1875 -0.953125q0.203125 -0.453125 0.546875 -0.796875q0.359375 -0.34375 0.859375 -0.53125q0.5 -0.203125 1.09375 -0.203125q0.578125 0 1.015625 0.171875q0.453125 0.15625 0.75 0.453125q0.296875 0.28125 0.453125 0.703125q0.15625 0.40625 0.15625 0.890625q0 0.375 -0.125 0.71875q-0.109375 0.34375 -0.328125 0.6875q-0.203125 0.328125 -0.515625 0.671875q-0.296875 0.34375 -0.671875 0.71875l-1.421875 1.515625l3.328125 0l0 1.15625zm6.3791504 -2.875q0 0.71875 -0.171875 1.28125q-0.171875 0.5625 -0.5 0.9375q-0.3125 0.375 -0.765625 0.578125q-0.453125 0.1875 -1.03125 0.1875q-0.5625 0 -1.03125 -0.1875q-0.453125 -0.203125 -0.78125 -0.578125q-0.3125 -0.375 -0.484375 -0.9375q-0.171875 -0.5625 -0.171875 -1.28125l0 -1.8125q0 -0.734375 0.171875 -1.296875q0.171875 -0.5625 0.484375 -0.9375q0.328125 -0.375 0.78125 -0.5625q0.453125 -0.203125 1.015625 -0.203125q0.578125 0 1.03125 0.203125q0.46875 0.1875 0.78125 0.5625q0.328125 0.375 0.5 0.9375q0.171875 0.5625 0.171875 1.296875l0 1.8125zm-3.484375 -0.625l2.015625 -1.515625q-0.015625 -0.765625 -0.265625 -1.125q-0.25 -0.375 -0.75 -0.375q-0.5 0 -0.75 0.390625q-0.25 0.390625 -0.25 1.203125l0 1.421875zm2.015625 -0.53125l-2.015625 1.5q0.03125 0.75 0.28125 1.109375q0.25 0.359375 0.734375 0.359375q0.515625 0 0.75 -0.390625q0.25 -0.390625 0.25 -1.21875l0 -1.359375z" fill-rule="nonzero"/><path fill="#000000" fill-opacity="0.0" d="m72.69292 18.923527l18.897636 0l0 18.89764l-18.897636 0z" fill-rule="evenodd"/><path stroke="#d9d9d9" stroke-width="1.0" stroke-linejoin="round" stroke-linecap="butt" d="m72.69292 18.923527l18.897636 0l0 18.89764l-18.897636 0z" fill-rule="evenodd"/><path fill="#d9d9d9" d="m83.225586 32.112347l-1.46875 0l0 -5.8125l-1.90625 0.6875l0 -1.265625l3.296875 -1.1875l0.078125 0l0 7.578125z" fill-rule="nonzero"/><path fill="#000000" fill-opacity="0.0" d="m110.48819 0.028871391l37.795273 0l0 105.88976l-37.795273 0z" fill-rule="evenodd"/><path stroke="#f3f3f3" stroke-width="1.0" stroke-linejoin="round" stroke-linecap="butt" stroke-dasharray="4.0,3.0" d="m110.48819 0.028871391l37.795273 0l0 105.88976l-37.795273 0z" fill-rule="evenodd"/><path fill="#f3f3f3" d="m131.87593 10.268871l-5.171875 0l0 -0.984375l2.453125 -2.640625q0.28125 -0.3125 0.484375 -0.5625q0.203125 -0.25 0.3125 -0.453125q0.125 -0.21875 0.171875 -0.40625q0.0625 -0.1875 0.0625 -0.359375q0 -0.25 -0.078125 -0.4375q-0.0625 -0.203125 -0.203125 -0.34375q-0.125 -0.14062524 -0.3125 -0.20312524q-0.1875 -0.078125 -0.40625 -0.078125q-0.59375 0 -0.890625 0.32812524q-0.296875 0.328125 -0.296875 0.9375l-1.453125 0q0 -0.515625 0.1875 -0.953125q0.203125 -0.45312524 0.546875 -0.79687524q0.359375 -0.34375 0.859375 -0.53125q0.5 -0.203125 1.09375 -0.203125q0.578125 0 1.015625 0.171875q0.453125 0.15625 0.75 0.453125q0.296875 0.28125 0.453125 0.703125q0.15625 0.40625024 0.15625 0.89062524q0 0.375 -0.125 0.71875q-0.109375 0.34375 -0.328125 0.6875q-0.203125 0.328125 -0.515625 0.671875q-0.296875 0.34375 -0.671875 0.71875l-1.421875 1.515625l3.328125 0l0 1.15625z" fill-rule="nonzero"/><path fill="#000000" fill-opacity="0.0" d="m148.28346 0.029046195l75.590546 0l0 105.88976l-75.590546 0z" fill-rule="evenodd"/><path stroke="#f3f3f3" stroke-width="1.0" stroke-linejoin="round" stroke-linecap="butt" stroke-dasharray="4.0,3.0" d="m148.28346 0.029046195l75.590546 0l0 105.88976l-75.590546 0z" fill-rule="evenodd"/><path fill="#f3f3f3" d="m185.06885 5.847171l0.78125 0q0.59375 0 0.875 -0.296875q0.296875 -0.296875 0.296875 -0.78125q0 -0.234375 -0.0625 -0.40625q-0.0625 -0.1875 -0.203125 -0.3125q-0.125 -0.14062476 -0.328125 -0.21874976q-0.203125 -0.078125 -0.46875 -0.078125q-0.21875 0 -0.40625 0.0625q-0.1875 0.0625 -0.328125 0.18749976q-0.140625 0.109375 -0.234375 0.28125q-0.078125 0.171875 -0.078125 0.375l-1.4375 0q0 -0.46875 0.1875 -0.84374976q0.1875 -0.375 0.515625 -0.640625q0.34375 -0.28125 0.78125 -0.4375q0.453125 -0.15625 0.96875 -0.15625q0.5625 0 1.03125 0.140625q0.46875 0.140625 0.796875 0.421875q0.34375 0.265625 0.53125 0.671875q0.1875 0.40624976 0.1875 0.93749976q0 0.234375 -0.078125 0.484375q-0.078125 0.234375 -0.21875 0.453125q-0.140625 0.203125 -0.34375 0.390625q-0.203125 0.171875 -0.484375 0.296875q0.328125 0.125 0.546875 0.296875q0.234375 0.171875 0.390625 0.40625q0.15625 0.21875 0.21875 0.5q0.078125 0.265625 0.078125 0.5625q0 0.53125 -0.203125 0.953125q-0.203125 0.40625 -0.5625 0.703125q-0.34375 0.28125 -0.84375 0.4375q-0.484375 0.140625 -1.046875 0.140625q-0.46875 0 -0.9375 -0.125q-0.453125 -0.140625 -0.8125 -0.40625q-0.359375 -0.28125 -0.578125 -0.6875q-0.21875 -0.40625 -0.21875 -0.953125l1.453125 0q0 0.21875 0.078125 0.40625q0.078125 0.1875 0.234375 0.328125q0.15625 0.125 0.359375 0.203125q0.203125 0.0625 0.453125 0.0625q0.5625 0 0.875 -0.28125q0.3125 -0.296875 0.3125 -0.796875q0 -0.3125 -0.09375 -0.515625q-0.09375 -0.21875 -0.265625 -0.359375q-0.15625 -0.140625 -0.40625 -0.203125q-0.234375 -0.078125 -0.53125 -0.078125l-0.78125 0l0 -1.125z" fill-rule="nonzero"/><path fill="#000000" fill-opacity="0.0" d="m223.87401 0.028871391l37.795273 0l0 105.88976l-37.795273 0z" fill-rule="evenodd"/><path stroke="#f3f3f3" stroke-width="1.0" stroke-linejoin="round" stroke-linecap="butt" stroke-dasharray="4.0,3.0" d="m223.87401 0.028871391l37.795273 0l0 105.88976l-37.795273 0z" fill-rule="evenodd"/><path fill="#f3f3f3" d="m244.52739 7.4563713l0.890625 0l0 1.171875l-0.890625 0l0 1.640625l-1.4375 0l0 -1.640625l-3.15625 0l-0.046875 -0.90625l3.171875 -5.03125l1.46875 0l0 4.765625zm-3.21875 0l1.78125 0l0 -2.8125l-0.140625 0.25l-1.640625 2.5625z" fill-rule="nonzero"/><path fill="#000000" fill-opacity="0.0" d="m261.66928 0l36.75592 0l0 105.88976l-36.75592 0z" fill-rule="evenodd"/><path stroke="#efefef" stroke-width="1.0" stroke-linejoin="round" stroke-linecap="butt" stroke-dasharray="4.0,3.0" d="m261.66928 0l36.75592 0l0 105.88976l-36.75592 0z" fill-rule="evenodd"/><path fill="#efefef" d="m277.66235 6.505625l0.421875 -3.84375l4.203125 0l0 1.234375l-3.0 0l-0.1875 1.65625q0.15625 -0.09375 0.453125 -0.1875q0.296875 -0.09375 0.6875 -0.09375q0.546875 0 0.96875 0.171875q0.4375 0.171875 0.71875 0.5q0.296875 0.328125 0.453125 0.8125q0.15625 0.46875 0.15625 1.0625q0 0.5 -0.15625 0.96875q-0.140625 0.453125 -0.453125 0.8125q-0.3125 0.34375 -0.796875 0.546875q-0.46875 0.203125 -1.109375 0.203125q-0.484375 0 -0.9375 -0.140625q-0.453125 -0.15625 -0.8125 -0.4375q-0.359375 -0.28125 -0.578125 -0.6875q-0.21875 -0.40625 -0.234375 -0.9375l1.421875 0q0.0625 0.5 0.359375 0.765625q0.296875 0.265625 0.78125 0.265625q0.28125 0 0.484375 -0.109375q0.21875 -0.109375 0.34375 -0.296875q0.125 -0.1875 0.1875 -0.453125q0.0625 -0.265625 0.0625 -0.578125q0 -0.296875 -0.078125 -0.546875q-0.078125 -0.25 -0.234375 -0.4375q-0.15625 -0.1875 -0.390625 -0.28125q-0.234375 -0.09375 -0.546875 -0.09375q-0.21875 0 -0.375 0.03125q-0.15625 0.03125 -0.28125 0.09375q-0.109375 0.0625 -0.203125 0.140625q-0.09375 0.0625 -0.171875 0.15625l-1.15625 -0.296875z" fill-rule="nonzero"/><path fill="#000000" fill-opacity="0.0" d="m72.69292 0.029046195l37.795273 0l0 105.88976l-37.795273 0z" fill-rule="evenodd"/><path stroke="#d9d9d9" stroke-width="1.0" stroke-linejoin="round" stroke-linecap="butt" stroke-dasharray="4.0,3.0" d="m72.69292 0.029046195l37.795273 0l0 105.88976l-37.795273 0z" fill-rule="evenodd"/><path fill="#d9d9d9" d="m92.67441 10.269046l-1.46875 0l0 -5.8125l-1.90625 0.6875l0 -1.2656248l3.296875 -1.1875l0.078125 0l0 7.578125z" fill-rule="nonzero"/><path fill="#000000" fill-opacity="0.0" d="m0 0.025889764l56.692913 0l0 18.897636l-56.692913 0z" fill-rule="evenodd"/><path fill="#999999" d="m25.848843 13.214708l0 -6.9531245l4.609375 0l0 1.328125l-3.046875 0l0 1.6093745l2.59375 0l0 1.3125l-2.59375 0l0 2.703125l-1.5625 0zm6.018814 0l0 -6.9531245l2.453125 0q0.5625 0 1.046875 0.109375q0.484375 0.109375 0.84375 0.359375q0.375 0.25 0.578125 0.671875q0.21875 0.40625 0.21875 1.0312495q0 0.765625 -0.34375 1.265625q-0.328125 0.484375 -0.890625 0.734375l1.5625 2.78125l-1.75 0l-1.328125 -2.5l-0.828125 0l0 2.5l-1.5625 0zm1.5625 -3.75l0.765625 0q1.265625 0 1.265625 -1.03125q0 -0.5156245 -0.328125 -0.7187495q-0.3125 -0.203125 -0.9375 -0.203125l-0.765625 0l0 1.9531245zm6.675064 0.234375l-0.15625 0.640625l1.46875 0l-0.171875 -0.640625q-0.125 -0.515625 -0.28125 -1.09375q-0.15625 -0.59375 -0.265625 -1.1406245l-0.046875 0q-0.125 0.5468745 -0.265625 1.1406245q-0.140625 0.578125 -0.28125 1.09375zm-2.5 3.515625l2.171875 -6.9531245l1.875 0l2.15625 6.9531245l-1.65625 0l-0.421875 -1.65625l-2.09375 0l-0.4375 1.65625l-1.59375 0zm6.925064 0l0 -6.9531245l1.640625 0l0.671875 2.4687495l0.234375 0.953125l0.046875 0l0.234375 -0.953125l0.6875 -2.4687495l1.640625 0l0 6.9531245l-1.328125 0l0 -2.15625q0 -0.28125 0.015625 -0.71875q0.03125 -0.4375 0.0625 -0.890625q0.03125 -0.46875 0.0625 -0.890625q0.046875 -0.4375 0.0625 -0.7187495l-0.03125 0l-0.53125 1.8593745l-0.53125 1.671875l-0.765625 0l-0.546875 -1.671875l-0.5 -1.8593745l-0.03125 0q0.03125 0.28124952 0.0625 0.7187495q0.03125 0.421875 0.0625 0.890625q0.03125 0.453125 0.046875 0.890625q0.03125 0.4375 0.03125 0.71875l0 2.15625l-1.296875 0zm6.753189 0l0 -6.9531245l4.59375 0l0 1.328125l-3.015625 0l0 1.3906245l2.5625 0l0 1.3125l-2.5625 0l0 1.59375l3.125 0l0 1.328125l-4.703125 0z" fill-rule="nonzero"/><path fill="#000000" fill-opacity="0.0" d="m0 18.923527l56.692913 0l0 18.89764l-56.692913 0z" fill-rule="evenodd"/><path fill="#999999" d="m25.505093 32.112347l0 -6.953125l2.34375 0q0.546875 0 1.0 0.09375q0.46875 0.078125 0.8125 0.28125q0.34375 0.1875 0.53125 0.53125q0.203125 0.328125 0.203125 0.828125q0 0.234375 -0.078125 0.46875q-0.0625 0.234375 -0.21875 0.4375q-0.140625 0.203125 -0.375 0.359375q-0.21875 0.15625 -0.53125 0.234375l0 0.046875q0.75 0.140625 1.125 0.53125q0.390625 0.390625 0.390625 1.09375q0 0.53125 -0.203125 0.921875q-0.203125 0.375 -0.5625 0.625q-0.359375 0.25 -0.84375 0.375q-0.484375 0.125 -1.046875 0.125l-2.546875 0zm1.578125 -4.15625l0.6875 0q0.578125 0 0.828125 -0.21875q0.265625 -0.234375 0.265625 -0.640625q0 -0.375 -0.265625 -0.53125q-0.265625 -0.171875 -0.8125 -0.171875l-0.703125 0l0 1.5625zm0 2.9375l0.84375 0q1.25 0 1.25 -0.9375q0 -0.46875 -0.3125 -0.671875q-0.296875 -0.203125 -0.9375 -0.203125l-0.84375 0l0 1.8125zm5.175064 1.21875l0 -6.953125l1.5625 0l0 5.625l3.09375 0l0 1.328125l-4.65625 0zm8.456314 0.125q-0.625 0 -1.140625 -0.234375q-0.515625 -0.234375 -0.890625 -0.6875q-0.359375 -0.453125 -0.5625 -1.125q-0.203125 -0.6875 -0.203125 -1.578125q0 -0.875 0.203125 -1.546875q0.203125 -0.671875 0.5625 -1.125q0.375 -0.453125 0.890625 -0.671875q0.515625 -0.234375 1.140625 -0.234375q0.609375 0 1.125 0.234375q0.515625 0.21875 0.875 0.671875q0.375 0.453125 0.578125 1.125q0.203125 0.671875 0.203125 1.546875q0 0.890625 -0.203125 1.578125q-0.203125 0.671875 -0.578125 1.125q-0.359375 0.453125 -0.875 0.6875q-0.515625 0.234375 -1.125 0.234375zm0 -1.34375q0.53125 0 0.84375 -0.578125q0.328125 -0.578125 0.328125 -1.703125q0 -1.09375 -0.328125 -1.65625q-0.3125 -0.5625 -0.84375 -0.5625q-0.546875 0 -0.875 0.5625q-0.3125 0.5625 -0.3125 1.65625q0 1.125 0.3125 1.703125q0.328125 0.578125 0.875 0.578125zm6.987564 1.34375q-0.65625 0 -1.234375 -0.21875q-0.578125 -0.234375 -1.03125 -0.671875q-0.4375 -0.453125 -0.703125 -1.125q-0.25 -0.671875 -0.25 -1.546875q0 -0.859375 0.25 -1.53125q0.265625 -0.671875 0.703125 -1.140625q0.453125 -0.46875 1.0625 -0.71875q0.609375 -0.25 1.296875 -0.25q0.65625 0 1.1875 0.28125q0.53125 0.265625 0.890625 0.609375l-0.859375 0.96875q-0.25 -0.234375 -0.546875 -0.359375q-0.296875 -0.140625 -0.671875 -0.140625q-0.375 0 -0.6875 0.15625q-0.296875 0.15625 -0.53125 0.4375q-0.234375 0.28125 -0.359375 0.703125q-0.125 0.421875 -0.125 0.9375q0 1.078125 0.484375 1.671875q0.5 0.59375 1.28125 0.59375q0.375 0 0.6875 -0.171875q0.3125 -0.171875 0.578125 -0.453125l0.859375 0.953125q-0.859375 1.015625 -2.28125 1.015625zm3.315689 -0.125l0 -6.953125l1.59375 0l0 2.84375l0.03125 0l2.0625 -2.84375l1.734375 0l-2.09375 2.765625l2.28125 4.1875l-1.734375 0l-1.484375 -2.953125l-0.796875 1.0625l0 1.890625l-1.59375 0z" fill-rule="nonzero"/><path fill="#000000" fill-opacity="0.0" d="m72.69292 72.686554l378.39368 0" fill-rule="evenodd"/><path stroke="#000000" stroke-width="1.0" stroke-linejoin="round" stroke-linecap="butt" d="m72.69292 72.686554l372.39368 0" fill-rule="evenodd"/><path fill="#000000" stroke="#000000" stroke-width="1.0" stroke-linecap="butt" d="m445.0866 74.33829l4.5381165 -1.6517334l-4.5381165 -1.6517334z" fill-rule="evenodd"/><path fill="#ffcb21" d="m72.69292 72.32435l0 0c0 -10.436878 8.460754 -18.89764 18.897636 -18.89764l0 0c5.011963 0 9.818649 1.9909973 13.362648 5.5349884c3.543991 3.543995 5.5349884 8.350681 5.5349884 13.362652l0 0c0 10.436874 -8.460762 18.897636 -18.897636 18.897636l0 0c-10.436882 0 -18.897636 -8.460762 -18.897636 -18.897636z" fill-rule="evenodd"/><path fill="#000000" fill-opacity="0.0" d="m242.77165 18.923527l18.897629 0l0 18.89764l-18.897629 0z" fill-rule="evenodd"/><path stroke="#d9d9d9" stroke-width="1.0" stroke-linejoin="round" stroke-linecap="butt" d="m242.77165 18.923527l18.897629 0l0 18.89764l-18.897629 0z" fill-rule="evenodd"/><path fill="#efefef" d="m249.83557 28.377972l0.421875 -3.84375l4.203125 0l0 1.234375l-3.0 0l-0.1875 1.65625q0.15625 -0.09375 0.453125 -0.1875q0.296875 -0.09375 0.6875 -0.09375q0.546875 0 0.96875 0.171875q0.4375 0.171875 0.71875 0.5q0.296875 0.328125 0.453125 0.8125q0.15625 0.46875 0.15625 1.0625q0 0.5 -0.15625 0.96875q-0.140625 0.453125 -0.453125 0.8125q-0.3125 0.34375 -0.796875 0.546875q-0.46875 0.203125 -1.109375 0.203125q-0.484375 0 -0.9375 -0.140625q-0.453125 -0.15625 -0.8125 -0.4375q-0.359375 -0.28125 -0.578125 -0.6875q-0.21875 -0.40625 -0.234375 -0.9375l1.421875 0q0.0625 0.5 0.359375 0.765625q0.296875 0.265625 0.78125 0.265625q0.28125 0 0.484375 -0.109375q0.21875 -0.109375 0.34375 -0.296875q0.125 -0.1875 0.1875 -0.453125q0.0625 -0.265625 0.0625 -0.578125q0 -0.296875 -0.078125 -0.546875q-0.078125 -0.25 -0.234375 -0.4375q-0.15625 -0.1875 -0.390625 -0.28125q-0.234375 -0.09375 -0.546875 -0.09375q-0.21875 0 -0.375 0.03125q-0.15625 0.03125 -0.28125 0.09375q-0.109375 0.0625 -0.203125 0.140625q-0.09375 0.0625 -0.171875 0.15625l-1.15625 -0.296875z" fill-rule="nonzero"/><path fill="#000000" fill-opacity="0.0" d="m72.69292 18.923527l378.39368 0" fill-rule="evenodd"/><path stroke="#000000" stroke-width="1.0" stroke-linejoin="round" stroke-linecap="butt" d="m72.69292 18.923527l372.39368 0" fill-rule="evenodd"/><path fill="#000000" stroke="#000000" stroke-width="1.0" stroke-linecap="butt" d="m445.0866 20.57526l4.5381165 -1.6517334l-4.5381165 -1.6517315z" fill-rule="evenodd"/><path fill="#ffcb21" d="m110.488365 72.32435l0 0c0 -10.436878 8.460762 -18.89764 18.897636 -18.89764l0 0c5.011963 0 9.818665 1.9909973 13.362656 5.5349884c3.543991 3.543995 5.5349884 8.350681 5.5349884 13.362652l0 0c0 10.436874 -8.46077 18.897636 -18.897644 18.897636l0 0c-10.436874 0 -18.897636 -8.460762 -18.897636 -18.897636z" fill-rule="evenodd"/><path fill="#ffcb21" d="m185.77591 72.32435l0 0c0 -10.436878 8.460754 -18.89764 18.897629 -18.89764l0 0c5.011963 0 9.818649 1.9909973 13.362656 5.5349884c3.543991 3.543995 5.5349884 8.350681 5.5349884 13.362652l0 0c0 10.436874 -8.46077 18.897636 -18.897644 18.897636l0 0c-10.436874 0 -18.897629 -8.460762 -18.897629 -18.897636z" fill-rule="evenodd"/><path fill="#ffcb21" d="m223.87401 72.32435l0 0c0 -10.436878 8.46077 -18.89764 18.897644 -18.89764l0 0c5.011963 0 9.818649 1.9909973 13.362656 5.5349884c3.5439758 3.543995 5.534973 8.350681 5.534973 13.362652l0 0c0 10.436874 -8.460754 18.897636 -18.897629 18.897636l0 0c-10.436874 0 -18.897644 -8.460762 -18.897644 -18.897636z" fill-rule="evenodd"/><path fill="#ffcb21" d="m148.28247 72.32435l0 0c0 -10.436878 8.460754 -18.89764 18.897629 -18.89764l0 0c5.011963 0 9.818649 1.9909973 13.362656 5.5349884c3.543991 3.543995 5.5349884 8.350681 5.5349884 13.362652l0 0c0 10.436874 -8.46077 18.897636 -18.897644 18.897636l0 0c-10.436874 0 -18.897629 -8.460762 -18.897629 -18.897636z" fill-rule="evenodd"/><path fill="#000000" fill-opacity="0.0" d="m4.335958 62.877777l63.14961 0l0 18.897636l-63.14961 0z" fill-rule="evenodd"/><path fill="#000000" d="m44.316555 76.0666l0 -5.625l-2.078125 0l0 -1.328125l5.734375 0l0 1.328125l-2.078125 0l0 5.625l-1.578125 0zm4.768814 0l0 -1.328125l1.625 0l0 -4.296875l-1.625 0l0 -1.328125l4.828125 0l0 1.328125l-1.625 0l0 4.296875l1.625 0l0 1.328125l-4.828125 0zm6.237564 0l0 -6.953125l1.640625 0l0.671875 2.46875l0.234375 0.953125l0.046875 0l0.234375 -0.953125l0.6875 -2.46875l1.640625 0l0 6.953125l-1.328125 0l0 -2.15625q0 -0.28125 0.015625 -0.71875q0.03125 -0.4375 0.0625 -0.890625q0.03125 -0.46875 0.0625 -0.890625q0.046875 -0.4375 0.0625 -0.71875l-0.03125 0l-0.53125 1.859375l-0.53125 1.671875l-0.765625 0l-0.546875 -1.671875l-0.5 -1.859375l-0.03125 0q0.03125 0.28125 0.0625 0.71875q0.03125 0.421875 0.0625 0.890625q0.03125 0.453125 0.046875 0.890625q0.03125 0.4375 0.03125 0.71875l0 2.15625l-1.296875 0zm6.753189 0l0 -6.953125l4.593754 0l0 1.328125l-3.0156288 0l0 1.390625l2.5625038 0l0 1.3125l-2.5625038 0l0 1.59375l3.1250038 0l0 1.328125l-4.703129 0z" fill-rule="nonzero"/></g></svg>