<svg version="1.1" viewBox="0.0 0.0 149.29133858267716 97.51181102362204" fill="none" stroke="none" stroke-linecap="square" stroke-miterlimit="10" xmlns:xlink="http://www.w3.org/1999/xlink" xmlns="http://www.w3.org/2000/svg"><clipPath id="p.0"><path d="m0 0l149.29134 0l0 97.51181l-149.29134 0l0 -97.51181z" clip-rule="nonzero"/></clipPath><g clip-path="url(#p.0)"><path fill="#000000" fill-opacity="0.0" d="m0 0l149.29134 0l0 97.51181l-149.29134 0z" fill-rule="evenodd"/><path fill="#000000" fill-opacity="0.0" d="m112.004395 56.337383l37.354324 0l0 37.322834l-37.354324 0z" fill-rule="evenodd"/><path fill="#000000" d="m132.52922 80.8588l-2.1875 0l0 -8.28125q-1.203125 1.125 -2.8437576 1.671875l0 -2.0q0.8593826 -0.28125 1.8593826 -1.0625q1.015625 -0.78125 1.390625 -1.828125l1.78125 0l0 11.5z" fill-rule="nonzero"/><path fill="#000000" fill-opacity="0.0" d="m18.612268 19.01455l18.678427 0l0 18.661415l-18.678427 0z" fill-rule="evenodd"/><path stroke="#f3f3f3" stroke-width="1.0" stroke-linejoin="round" stroke-linecap="butt" d="m18.612268 19.01455l18.678427 0l0 18.661415l-18.678427 0z" fill-rule="evenodd"/><path fill="#000000" fill-opacity="0.0" d="m18.612268 37.675964l18.678427 0l0 18.661419l-18.678427 0z" fill-rule="evenodd"/><path stroke="#f3f3f3" stroke-width="1.0" stroke-linejoin="round" stroke-linecap="butt" d="m18.612268 37.675964l18.678427 0l0 18.661419l-18.678427 0z" fill-rule="evenodd"/><path fill="#000000" fill-opacity="0.0" d="m-0.0661559 0.3531315l18.678425 0l0 18.661417l-18.678425 0z" fill-rule="evenodd"/><path stroke="#f3f3f3" stroke-width="1.0" stroke-linejoin="round" stroke-linecap="butt" d="m-0.0661559 0.3531315l18.678425 0l0 18.661417l-18.678425 0z" fill-rule="evenodd"/><path fill="#000000" fill-opacity="0.0" d="m-0.0661559 19.01455l18.678425 0l0 18.661415l-18.678425 0z" fill-rule="evenodd"/><path stroke="#f3f3f3" stroke-width="1.0" stroke-linejoin="round" stroke-linecap="butt" d="m-0.0661559 19.01455l18.678425 0l0 18.661415l-18.678425 0z" fill-rule="evenodd"/><path fill="#000000" fill-opacity="0.0" d="m-0.0661559 37.675964l18.678425 0l0 18.661419l-18.678425 0z" fill-rule="evenodd"/><path stroke="#f3f3f3" stroke-width="1.0" stroke-linejoin="round" stroke-linecap="butt" d="m-0.0661559 37.675964l18.678425 0l0 18.661419l-18.678425 0z" fill-rule="evenodd"/><path fill="#000000" fill-opacity="0.0" d="m-0.0661559 56.337383l18.678425 0l0 18.661419l-18.678425 0z" fill-rule="evenodd"/><path stroke="#f3f3f3" stroke-width="1.0" stroke-linejoin="round" stroke-linecap="butt" d="m-0.0661559 56.337383l18.678425 0l0 18.661419l-18.678425 0z" fill-rule="evenodd"/><path fill="#000000" fill-opacity="0.0" d="m18.612268 0.3531315l18.678427 0l0 18.661417l-18.678427 0z" fill-rule="evenodd"/><path stroke="#f3f3f3" stroke-width="1.0" stroke-linejoin="round" stroke-linecap="butt" d="m18.612268 0.3531315l18.678427 0l0 18.661417l-18.678427 0z" fill-rule="evenodd"/><path fill="#000000" fill-opacity="0.0" d="m18.612268 56.337383l18.678427 0l0 18.661419l-18.678427 0z" fill-rule="evenodd"/><path stroke="#f3f3f3" stroke-width="1.0" stroke-linejoin="round" stroke-linecap="butt" d="m18.612268 56.337383l18.678427 0l0 18.661419l-18.678427 0z" fill-rule="evenodd"/><path fill="#000000" fill-opacity="0.0" d="m37.290695 0.3531315l18.678425 0l0 18.661417l-18.678425 0z" fill-rule="evenodd"/><path stroke="#f3f3f3" stroke-width="1.0" stroke-linejoin="round" stroke-linecap="butt" d="m37.290695 0.3531315l18.678425 0l0 18.661417l-18.678425 0z" fill-rule="evenodd"/><path fill="#000000" fill-opacity="0.0" d="m37.290695 19.01455l18.678425 0l0 18.661415l-18.678425 0z" fill-rule="evenodd"/><path stroke="#f3f3f3" stroke-width="1.0" stroke-linejoin="round" stroke-linecap="butt" d="m37.290695 19.01455l18.678425 0l0 18.661415l-18.678425 0z" fill-rule="evenodd"/><path fill="#000000" fill-opacity="0.0" d="m37.290695 37.675964l18.678425 0l0 18.661419l-18.678425 0z" fill-rule="evenodd"/><path stroke="#f3f3f3" stroke-width="1.0" stroke-linejoin="round" stroke-linecap="butt" d="m37.290695 37.675964l18.678425 0l0 18.661419l-18.678425 0z" fill-rule="evenodd"/><path fill="#000000" fill-opacity="0.0" d="m37.290695 56.337383l18.678425 0l0 18.661419l-18.678425 0z" fill-rule="evenodd"/><path stroke="#f3f3f3" stroke-width="1.0" stroke-linejoin="round" stroke-linecap="butt" d="m37.290695 56.337383l18.678425 0l0 18.661419l-18.678425 0z" fill-rule="evenodd"/><path fill="#000000" fill-opacity="0.0" d="m55.96912 0.3531315l18.678425 0l0 18.661417l-18.678425 0z" fill-rule="evenodd"/><path stroke="#f3f3f3" stroke-width="1.0" stroke-linejoin="round" stroke-linecap="butt" d="m55.96912 0.3531315l18.678425 0l0 18.661417l-18.678425 0z" fill-rule="evenodd"/><path fill="#000000" fill-opacity="0.0" d="m55.96912 19.01455l18.678425 0l0 18.661415l-18.678425 0z" fill-rule="evenodd"/><path stroke="#f3f3f3" stroke-width="1.0" stroke-linejoin="round" stroke-linecap="butt" d="m55.96912 19.01455l18.678425 0l0 18.661415l-18.678425 0z" fill-rule="evenodd"/><path fill="#000000" fill-opacity="0.0" d="m55.96912 37.675964l18.678425 0l0 18.661419l-18.678425 0z" fill-rule="evenodd"/><path stroke="#f3f3f3" stroke-width="1.0" stroke-linejoin="round" stroke-linecap="butt" d="m55.96912 37.675964l18.678425 0l0 18.661419l-18.678425 0z" fill-rule="evenodd"/><path fill="#000000" fill-opacity="0.0" d="m55.96912 56.337383l18.678425 0l0 18.661419l-18.678425 0z" fill-rule="evenodd"/><path stroke="#f3f3f3" stroke-width="1.0" stroke-linejoin="round" stroke-linecap="butt" d="m55.96912 56.337383l18.678425 0l0 18.661419l-18.678425 0z" fill-rule="evenodd"/><path fill="#000000" fill-opacity="0.0" d="m74.647545 0.3531315l18.678429 0l0 18.661417l-18.678429 0z" fill-rule="evenodd"/><path stroke="#f3f3f3" stroke-width="1.0" stroke-linejoin="round" stroke-linecap="butt" d="m74.647545 0.3531315l18.678429 0l0 18.661417l-18.678429 0z" fill-rule="evenodd"/><path fill="#000000" fill-opacity="0.0" d="m74.647545 19.01455l18.678429 0l0 18.661415l-18.678429 0z" fill-rule="evenodd"/><path stroke="#f3f3f3" stroke-width="1.0" stroke-linejoin="round" stroke-linecap="butt" d="m74.647545 19.01455l18.678429 0l0 18.661415l-18.678429 0z" fill-rule="evenodd"/><path fill="#000000" fill-opacity="0.0" d="m74.647545 37.675964l18.678429 0l0 18.661419l-18.678429 0z" fill-rule="evenodd"/><path stroke="#f3f3f3" stroke-width="1.0" stroke-linejoin="round" stroke-linecap="butt" d="m74.647545 37.675964l18.678429 0l0 18.661419l-18.678429 0z" fill-rule="evenodd"/><path fill="#000000" fill-opacity="0.0" d="m74.647545 56.337383l18.678429 0l0 18.661419l-18.678429 0z" fill-rule="evenodd"/><path stroke="#f3f3f3" stroke-width="1.0" stroke-linejoin="round" stroke-linecap="butt" d="m74.647545 56.337383l18.678429 0l0 18.661419l-18.678429 0z" fill-rule="evenodd"/><path fill="#000000" fill-opacity="0.0" d="m93.32597 0.3531315l18.678421 0l0 18.661417l-18.678421 0z" fill-rule="evenodd"/><path stroke="#f3f3f3" stroke-width="1.0" stroke-linejoin="round" stroke-linecap="butt" d="m93.32597 0.3531315l18.678421 0l0 18.661417l-18.678421 0z" fill-rule="evenodd"/><path fill="#000000" fill-opacity="0.0" d="m93.32597 19.01455l18.678421 0l0 18.661415l-18.678421 0z" fill-rule="evenodd"/><path stroke="#f3f3f3" stroke-width="1.0" stroke-linejoin="round" stroke-linecap="butt" d="m93.32597 19.01455l18.678421 0l0 18.661415l-18.678421 0z" fill-rule="evenodd"/><path fill="#000000" fill-opacity="0.0" d="m93.32597 37.675964l18.678421 0l0 18.661419l-18.678421 0z" fill-rule="evenodd"/><path stroke="#f3f3f3" stroke-width="1.0" stroke-linejoin="round" stroke-linecap="butt" d="m93.32597 37.675964l18.678421 0l0 18.661419l-18.678421 0z" fill-rule="evenodd"/><path fill="#000000" fill-opacity="0.0" d="m93.32597 56.337383l18.678421 0l0 18.661419l-18.678421 0z" fill-rule="evenodd"/><path stroke="#f3f3f3" stroke-width="1.0" stroke-linejoin="round" stroke-linecap="butt" d="m93.32597 56.337383l18.678421 0l0 18.661419l-18.678421 0z" fill-rule="evenodd"/><path fill="#000000" fill-opacity="0.0" d="m112.004395 0.3531315l18.678421 0l0 18.661417l-18.678421 0z" fill-rule="evenodd"/><path stroke="#f3f3f3" stroke-width="1.0" stroke-linejoin="round" stroke-linecap="butt" d="m112.004395 0.3531315l18.678421 0l0 18.661417l-18.678421 0z" fill-rule="evenodd"/><path fill="#000000" fill-opacity="0.0" d="m112.004395 19.01455l18.678421 0l0 18.661415l-18.678421 0z" fill-rule="evenodd"/><path stroke="#f3f3f3" stroke-width="1.0" stroke-linejoin="round" stroke-linecap="butt" d="m112.004395 19.01455l18.678421 0l0 18.661415l-18.678421 0z" fill-rule="evenodd"/><path fill="#000000" fill-opacity="0.0" d="m112.004395 37.675964l18.678421 0l0 18.661419l-18.678421 0z" fill-rule="evenodd"/><path stroke="#f3f3f3" stroke-width="1.0" stroke-linejoin="round" stroke-linecap="butt" d="m112.004395 37.675964l18.678421 0l0 18.661419l-18.678421 0z" fill-rule="evenodd"/><path fill="#000000" fill-opacity="0.0" d="m-0.0661559 75.18542l18.678425 0l0 18.661415l-18.678425 0z" fill-rule="evenodd"/><path stroke="#f3f3f3" stroke-width="1.0" stroke-linejoin="round" stroke-linecap="butt" d="m-0.0661559 75.18542l18.678425 0l0 18.661415l-18.678425 0z" fill-rule="evenodd"/><path fill="#000000" fill-opacity="0.0" d="m18.612268 75.18542l18.678427 0l0 18.661415l-18.678427 0z" fill-rule="evenodd"/><path stroke="#f3f3f3" stroke-width="1.0" stroke-linejoin="round" stroke-linecap="butt" d="m18.612268 75.18542l18.678427 0l0 18.661415l-18.678427 0z" fill-rule="evenodd"/><path fill="#000000" fill-opacity="0.0" d="m37.290695 75.18542l18.678425 0l0 18.661415l-18.678425 0z" fill-rule="evenodd"/><path stroke="#f3f3f3" stroke-width="1.0" stroke-linejoin="round" stroke-linecap="butt" d="m37.290695 75.18542l18.678425 0l0 18.661415l-18.678425 0z" fill-rule="evenodd"/><path fill="#000000" fill-opacity="0.0" d="m55.96912 75.18542l18.678425 0l0 18.661415l-18.678425 0z" fill-rule="evenodd"/><path stroke="#f3f3f3" stroke-width="1.0" stroke-linejoin="round" stroke-linecap="butt" d="m55.96912 75.18542l18.678425 0l0 18.661415l-18.678425 0z" fill-rule="evenodd"/><path fill="#000000" fill-opacity="0.0" d="m74.647545 75.18542l18.678429 0l0 18.661415l-18.678429 0z" fill-rule="evenodd"/><path stroke="#f3f3f3" stroke-width="1.0" stroke-linejoin="round" stroke-linecap="butt" d="m74.647545 75.18542l18.678429 0l0 18.661415l-18.678429 0z" fill-rule="evenodd"/><path fill="#000000" fill-opacity="0.0" d="m-0.069436826 0.3531315l149.42741 0l0 96.386215l-149.42741 0z" fill-rule="evenodd"/><path stroke="#f3f3f3" stroke-width="1.0" stroke-linejoin="round" stroke-linecap="butt" d="m-0.069436826 0.3531315l149.42741 0l0 96.386215l-149.42741 0z" fill-rule="evenodd"/><path fill="#000000" fill-opacity="0.0" d="m130.68282 0.3531315l18.678436 0l0 18.661417l-18.678436 0z" fill-rule="evenodd"/><path stroke="#f3f3f3" stroke-width="1.0" stroke-linejoin="round" stroke-linecap="butt" d="m130.68282 0.3531315l18.678436 0l0 18.661417l-18.678436 0z" fill-rule="evenodd"/><path fill="#000000" fill-opacity="0.0" d="m130.68282 19.01455l18.678436 0l0 18.661415l-18.678436 0z" fill-rule="evenodd"/><path stroke="#f3f3f3" stroke-width="1.0" stroke-linejoin="round" stroke-linecap="butt" d="m130.68282 19.01455l18.678436 0l0 18.661415l-18.678436 0z" fill-rule="evenodd"/><path fill="#000000" fill-opacity="0.0" d="m130.68282 37.675964l18.678436 0l0 18.661419l-18.678436 0z" fill-rule="evenodd"/><path stroke="#f3f3f3" stroke-width="1.0" stroke-linejoin="round" stroke-linecap="butt" d="m130.68282 37.675964l18.678436 0l0 18.661419l-18.678436 0z" fill-rule="evenodd"/><path fill="#000000" fill-opacity="0.0" d="m18.612268 38.049194l93.385826 -0.37322998" fill-rule="evenodd"/><path stroke="#000000" stroke-width="1.0" stroke-linejoin="round" stroke-linecap="butt" d="m18.612268 38.049194l93.385826 -0.37322998" fill-rule="evenodd"/></g></svg>