<svg version="1.1" viewBox="0.0 0.0 273.65354330708664 38.55118110236221" fill="none" stroke="none" stroke-linecap="square" stroke-miterlimit="10" xmlns:xlink="http://www.w3.org/1999/xlink" xmlns="http://www.w3.org/2000/svg"><clipPath id="p.0"><path d="m0 0l273.65353 0l0 38.55118l-273.65353 0l0 -38.55118z" clip-rule="nonzero"/></clipPath><g clip-path="url(#p.0)"><path fill="#000000" fill-opacity="0.0" d="m0 0l273.65353 0l0 38.55118l-273.65353 0z" fill-rule="evenodd"/><path fill="#000000" fill-opacity="0.0" d="m179.22066 0l18.897629 0l0 18.897638l-18.897629 0z" fill-rule="evenodd"/><path stroke="#f3f3f3" stroke-width="1.0" stroke-linejoin="round" stroke-linecap="butt" d="m179.22066 0l18.897629 0l0 18.897638l-18.897629 0z" fill-rule="evenodd"/><path fill="#f3f3f3" d="m191.15958 6.423194l-2.953125 6.765625l-1.53125 0l2.953125 -6.390625l-3.796875 0l0 -1.1875l5.328125 0l0 0.8125z" fill-rule="nonzero"/><path fill="#000000" fill-opacity="0.0" d="m198.11829 0l18.897644 0l0 18.897638l-18.897644 0z" fill-rule="evenodd"/><path stroke="#f3f3f3" stroke-width="1.0" stroke-linejoin="round" stroke-linecap="butt" d="m198.11829 0l18.897644 0l0 18.897638l-18.897644 0z" fill-rule="evenodd"/><path fill="#f3f3f3" d="m209.85408 7.626319q0 0.546875 -0.28125 0.984375q-0.265625 0.421875 -0.75 0.6875q0.546875 0.25 0.875 0.71875q0.328125 0.46875 0.328125 1.09375q0 0.546875 -0.203125 0.953125q-0.1875 0.40625 -0.53125 0.6875q-0.34375 0.265625 -0.8125 0.40625q-0.453125 0.140625 -1.0 0.140625q-0.53125 0 -1.0 -0.140625q-0.46875 -0.140625 -0.8125 -0.40625q-0.34375 -0.28125 -0.546875 -0.6875q-0.1875 -0.40625 -0.1875 -0.953125q0 -0.3125 0.078125 -0.578125q0.09375 -0.28125 0.25 -0.515625q0.15625 -0.234375 0.375 -0.40625q0.234375 -0.1875 0.5 -0.328125q-0.484375 -0.25 -0.765625 -0.671875q-0.265625 -0.4375 -0.265625 -0.984375q0 -0.515625 0.171875 -0.90625q0.1875 -0.390625 0.5 -0.65625q0.3125 -0.28125 0.75 -0.421875q0.4375 -0.140625 0.9375 -0.140625q0.515625 0 0.953125 0.140625q0.4375 0.140625 0.75 0.421875q0.328125 0.265625 0.5 0.65625q0.1875 0.390625 0.1875 0.90625zm-1.28125 3.390625q0 -0.265625 -0.078125 -0.46875q-0.078125 -0.203125 -0.234375 -0.34375q-0.140625 -0.15625 -0.34375 -0.234375q-0.1875 -0.078125 -0.4375 -0.078125q-0.25 0 -0.453125 0.078125q-0.203125 0.078125 -0.34375 0.234375q-0.140625 0.140625 -0.21875 0.34375q-0.078125 0.203125 -0.078125 0.46875q0 0.515625 0.296875 0.8125q0.296875 0.296875 0.796875 0.296875q0.25 0 0.4375 -0.0625q0.203125 -0.078125 0.34375 -0.21875q0.140625 -0.15625 0.21875 -0.359375q0.09375 -0.203125 0.09375 -0.46875zm-0.15625 -3.328125q0 -0.21875 -0.078125 -0.40625q-0.0625 -0.1875 -0.1875 -0.3125q-0.109375 -0.140625 -0.296875 -0.21875q-0.171875 -0.078125 -0.390625 -0.078125q-0.4375 0 -0.671875 0.28125q-0.234375 0.265625 -0.234375 0.734375q0 0.234375 0.0625 0.421875q0.0625 0.1875 0.171875 0.328125q0.125 0.140625 0.296875 0.21875q0.171875 0.0625 0.390625 0.0625q0.21875 0 0.390625 -0.0625q0.171875 -0.078125 0.296875 -0.21875q0.125 -0.140625 0.1875 -0.328125q0.0625 -0.1875 0.0625 -0.421875z" fill-rule="nonzero"/><path fill="#000000" fill-opacity="0.0" d="m84.73246 0l18.897636 0l0 18.897638l-18.897636 0z" fill-rule="evenodd"/><path stroke="#f3f3f3" stroke-width="1.0" stroke-linejoin="round" stroke-linecap="butt" d="m84.73246 0l18.897636 0l0 18.897638l-18.897636 0z" fill-rule="evenodd"/><path fill="#f3f3f3" d="m96.67139 13.188819l-5.171875 0l0 -0.984375l2.453125 -2.640625q0.28125 -0.3125 0.484375 -0.5625q0.203125 -0.25 0.3125 -0.453125q0.125 -0.21875 0.171875 -0.40625q0.0625 -0.1875 0.0625 -0.359375q0 -0.25 -0.078125 -0.4375q-0.0625 -0.203125 -0.203125 -0.34375q-0.125 -0.140625 -0.3125 -0.203125q-0.1875 -0.078125 -0.40625 -0.078125q-0.59375 0 -0.890625 0.328125q-0.296875 0.328125 -0.296875 0.9375l-1.453125 0q0 -0.515625 0.1875 -0.953125q0.203125 -0.453125 0.546875 -0.796875q0.359375 -0.34375 0.859375 -0.53125q0.5 -0.203125 1.09375 -0.203125q0.578125 0 1.015625 0.171875q0.453125 0.15625 0.75 0.453125q0.296875 0.28125 0.453125 0.703125q0.15625 0.40625 0.15625 0.890625q0 0.375 -0.125 0.71875q-0.109375 0.34375 -0.328125 0.6875q-0.203125 0.328125 -0.515625 0.671875q-0.296875 0.34375 -0.671875 0.71875l-1.421875 1.515625l3.328125 0l0 1.15625z" fill-rule="nonzero"/><path fill="#000000" fill-opacity="0.0" d="m103.6301 0l18.897644 0l0 18.897638l-18.897644 0z" fill-rule="evenodd"/><path stroke="#f3f3f3" stroke-width="1.0" stroke-linejoin="round" stroke-linecap="butt" d="m103.6301 0l18.897644 0l0 18.897638l-18.897644 0z" fill-rule="evenodd"/><path fill="#f3f3f3" d="m112.06902 8.766944l0.78125 0q0.59375 0 0.875 -0.296875q0.296875 -0.296875 0.296875 -0.78125q0 -0.234375 -0.0625 -0.40625q-0.0625 -0.1875 -0.203125 -0.3125q-0.125 -0.140625 -0.328125 -0.21875q-0.203125 -0.078125 -0.46875 -0.078125q-0.21875 0 -0.40625 0.0625q-0.1875 0.0625 -0.328125 0.1875q-0.140625 0.109375 -0.234375 0.28125q-0.078125 0.171875 -0.078125 0.375l-1.4375 0q0 -0.46875 0.1875 -0.84375q0.1875 -0.375 0.515625 -0.640625q0.34375 -0.28125 0.78125 -0.4375q0.453125 -0.15625 0.96875 -0.15625q0.5625 0 1.03125 0.140625q0.46875 0.140625 0.796875 0.421875q0.34375 0.265625 0.53125 0.671875q0.1875 0.40625 0.1875 0.9375q0 0.234375 -0.078125 0.484375q-0.078125 0.234375 -0.21875 0.453125q-0.140625 0.203125 -0.34375 0.390625q-0.203125 0.171875 -0.484375 0.296875q0.328125 0.125 0.546875 0.296875q0.234375 0.171875 0.390625 0.40625q0.15625 0.21875 0.21875 0.5q0.078125 0.265625 0.078125 0.5625q0 0.53125 -0.203125 0.953125q-0.203125 0.40625 -0.5625 0.703125q-0.34375 0.28125 -0.84375 0.4375q-0.484375 0.140625 -1.046875 0.140625q-0.46875 0 -0.9375 -0.125q-0.453125 -0.140625 -0.8125 -0.40625q-0.359375 -0.28125 -0.578125 -0.6875q-0.21875 -0.40625 -0.21875 -0.953125l1.453125 0q0 0.21875 0.078125 0.40625q0.078125 0.1875 0.234375 0.328125q0.15625 0.125 0.359375 0.203125q0.203125 0.0625 0.453125 0.0625q0.5625 0 0.875 -0.28125q0.3125 -0.296875 0.3125 -0.796875q0 -0.3125 -0.09375 -0.515625q-0.09375 -0.21875 -0.265625 -0.359375q-0.15625 -0.140625 -0.40625 -0.203125q-0.234375 -0.078125 -0.53125 -0.078125l-0.78125 0l0 -1.125z" fill-rule="nonzero"/><path fill="#000000" fill-opacity="0.0" d="m160.32301 0l18.897644 0l0 18.897638l-18.897644 0z" fill-rule="evenodd"/><path stroke="#f3f3f3" stroke-width="1.0" stroke-linejoin="round" stroke-linecap="butt" d="m160.32301 0l18.897644 0l0 18.897638l-18.897644 0z" fill-rule="evenodd"/><path fill="#f3f3f3" d="m171.15256 5.548194l0 1.203125l-0.09375 0q-0.5625 0 -1.015625 0.15625q-0.4375 0.140625 -0.75 0.421875q-0.296875 0.28125 -0.484375 0.671875q-0.171875 0.375 -0.21875 0.84375q0.125 -0.125 0.28125 -0.25q0.15625 -0.125 0.34375 -0.21875q0.1875 -0.109375 0.421875 -0.171875q0.234375 -0.0625 0.5 -0.0625q0.53125 0 0.9375 0.203125q0.40625 0.203125 0.671875 0.5625q0.28125 0.34375 0.40625 0.8125q0.140625 0.46875 0.140625 0.96875q0 0.5625 -0.1875 1.03125q-0.171875 0.46875 -0.5 0.828125q-0.328125 0.34375 -0.796875 0.546875q-0.46875 0.203125 -1.046875 0.203125q-0.609375 0 -1.109375 -0.21875q-0.484375 -0.234375 -0.828125 -0.640625q-0.328125 -0.40625 -0.515625 -0.953125q-0.1875 -0.546875 -0.1875 -1.1875l0 -0.5625q0 -0.90625 0.234375 -1.671875q0.25 -0.765625 0.734375 -1.328125q0.484375 -0.5625 1.203125 -0.875q0.71875 -0.3125 1.65625 -0.3125l0.203125 0zm-1.4375 3.75q-0.390625 0 -0.6875 0.21875q-0.296875 0.203125 -0.453125 0.53125l0 0.421875q0 0.40625 0.078125 0.71875q0.09375 0.3125 0.25 0.53125q0.15625 0.203125 0.359375 0.3125q0.21875 0.09375 0.46875 0.09375q0.25 0 0.453125 -0.109375q0.21875 -0.109375 0.359375 -0.296875q0.15625 -0.1875 0.234375 -0.4375q0.078125 -0.265625 0.078125 -0.5625q0 -0.3125 -0.078125 -0.5625q-0.078125 -0.265625 -0.234375 -0.453125q-0.140625 -0.1875 -0.359375 -0.296875q-0.203125 -0.109375 -0.46875 -0.109375z" fill-rule="nonzero"/><path fill="#000000" fill-opacity="0.0" d="m122.52774 0l18.897629 0l0 18.897638l-18.897629 0z" fill-rule="evenodd"/><path stroke="#f3f3f3" stroke-width="1.0" stroke-linejoin="round" stroke-linecap="butt" d="m122.52774 0l18.897629 0l0 18.897638l-18.897629 0z" fill-rule="evenodd"/><path fill="#f3f3f3" d="m133.73228 10.376319l0.890625 0l0 1.171875l-0.890625 0l0 1.640625l-1.4375 0l0 -1.640625l-3.15625 0l-0.046875 -0.90625l3.171875 -5.03125l1.46875 0l0 4.765625zm-3.21875 0l1.78125 0l0 -2.8125l-0.140625 0.25l-1.640625 2.5625z" fill-rule="nonzero"/><path fill="#000000" fill-opacity="0.0" d="m217.01593 0l18.897629 0l0 18.897638l-18.897629 0z" fill-rule="evenodd"/><path stroke="#f3f3f3" stroke-width="1.0" stroke-linejoin="round" stroke-linecap="butt" d="m217.01593 0l18.897629 0l0 18.897638l-18.897629 0z" fill-rule="evenodd"/><path fill="#f3f3f3" d="m225.00172 12.032569q0.578125 0 1.0 -0.125q0.421875 -0.125 0.703125 -0.359375q0.296875 -0.234375 0.453125 -0.578125q0.171875 -0.34375 0.21875 -0.765625q-0.21875 0.21875 -0.5625 0.375q-0.34375 0.15625 -0.84375 0.15625q-0.53125 0 -0.953125 -0.1875q-0.40625 -0.203125 -0.6875 -0.546875q-0.265625 -0.34375 -0.421875 -0.8125q-0.140625 -0.46875 -0.140625 -1.0q0 -0.5625 0.171875 -1.046875q0.1875 -0.484375 0.515625 -0.84375q0.328125 -0.375 0.78125 -0.578125q0.46875 -0.21875 1.046875 -0.21875q0.59375 0 1.0625 0.234375q0.484375 0.234375 0.8125 0.640625q0.328125 0.40625 0.5 0.984375q0.1875 0.5625 0.1875 1.234375l0 0.5q0 0.90625 -0.234375 1.671875q-0.21875 0.75 -0.6875 1.3125q-0.46875 0.546875 -1.203125 0.859375q-0.71875 0.3125 -1.71875 0.3125l-0.109375 0l0 -1.21875l0.109375 0zm1.3125 -2.421875q0.203125 0 0.375 -0.046875q0.171875 -0.0625 0.296875 -0.15625q0.140625 -0.109375 0.234375 -0.25q0.109375 -0.140625 0.171875 -0.296875l0 -0.515625q0 -0.421875 -0.09375 -0.734375q-0.078125 -0.3125 -0.234375 -0.515625q-0.140625 -0.203125 -0.34375 -0.3125q-0.203125 -0.109375 -0.4375 -0.109375q-0.25 0 -0.453125 0.125q-0.203125 0.125 -0.34375 0.328125q-0.125 0.203125 -0.203125 0.484375q-0.0625 0.265625 -0.0625 0.546875q0 0.296875 0.0625 0.5625q0.0625 0.265625 0.203125 0.46875q0.140625 0.1875 0.34375 0.3125q0.203125 0.109375 0.484375 0.109375z" fill-rule="nonzero"/><path fill="#000000" fill-opacity="0.0" d="m179.22066 18.897638l37.795273 0l0 18.897638l-37.795273 0z" fill-rule="evenodd"/><path stroke="#f3f3f3" stroke-width="1.0" stroke-linejoin="round" stroke-linecap="butt" stroke-dasharray="4.0,3.0" d="m179.22066 18.897638l37.795273 0l0 18.897638l-37.795273 0z" fill-rule="evenodd"/><path fill="#f3f3f3" d="m199.87402 29.273956l0.890625 0l0 1.171875l-0.890625 0l0 1.640625l-1.4375 0l0 -1.640625l-3.15625 0l-0.046875 -0.90625l3.171875 -5.03125l1.46875 0l0 4.765625zm-3.21875 0l1.78125 0l0 -2.8125l-0.140625 0.25l-1.640625 2.5625z" fill-rule="nonzero"/><path fill="#000000" fill-opacity="0.0" d="m103.6301 18.897638l37.795273 0l0 18.897638l-37.795273 0z" fill-rule="evenodd"/><path stroke="#f3f3f3" stroke-width="1.0" stroke-linejoin="round" stroke-linecap="butt" stroke-dasharray="4.0,3.0" d="m103.6301 18.897638l37.795273 0l0 18.897638l-37.795273 0z" fill-rule="evenodd"/><path fill="#f3f3f3" d="m125.017845 32.086456l-5.171875 0l0 -0.984375l2.453125 -2.640625q0.28125 -0.3125 0.484375 -0.5625q0.203125 -0.25 0.3125 -0.453125q0.125 -0.21875 0.171875 -0.40625q0.0625 -0.1875 0.0625 -0.359375q0 -0.25 -0.078125 -0.4375q-0.0625 -0.203125 -0.203125 -0.34375q-0.125 -0.140625 -0.3125 -0.203125q-0.1875 -0.078125 -0.40625 -0.078125q-0.59375 0 -0.890625 0.328125q-0.296875 0.328125 -0.296875 0.9375l-1.453125 0q0 -0.515625 0.1875 -0.953125q0.203125 -0.453125 0.546875 -0.796875q0.359375 -0.34375 0.859375 -0.53125q0.5 -0.203125 1.09375 -0.203125q0.578125 0 1.015625 0.171875q0.453125 0.15625 0.75 0.453125q0.296875 0.28125 0.453125 0.703125q0.15625 0.40625 0.15625 0.890625q0 0.375 -0.125 0.71875q-0.109375 0.34375 -0.328125 0.6875q-0.203125 0.328125 -0.515625 0.671875q-0.296875 0.34375 -0.671875 0.71875l-1.421875 1.515625l3.328125 0l0 1.15625z" fill-rule="nonzero"/><path fill="#000000" fill-opacity="0.0" d="m141.42537 18.897638l37.795288 0l0 18.897638l-37.795288 0z" fill-rule="evenodd"/><path stroke="#f3f3f3" stroke-width="1.0" stroke-linejoin="round" stroke-linecap="butt" stroke-dasharray="4.0,3.0" d="m141.42537 18.897638l37.795288 0l0 18.897638l-37.795288 0z" fill-rule="evenodd"/><path fill="#f3f3f3" d="m159.31313 27.664581l0.78125 0q0.59375 0 0.875 -0.296875q0.296875 -0.296875 0.296875 -0.78125q0 -0.234375 -0.0625 -0.40625q-0.0625 -0.1875 -0.203125 -0.3125q-0.125 -0.140625 -0.328125 -0.21875q-0.203125 -0.078125 -0.46875 -0.078125q-0.21875 0 -0.40625 0.0625q-0.1875 0.0625 -0.328125 0.1875q-0.140625 0.109375 -0.234375 0.28125q-0.078125 0.171875 -0.078125 0.375l-1.4375 0q0 -0.46875 0.1875 -0.84375q0.1875 -0.375 0.515625 -0.640625q0.34375 -0.28125 0.78125 -0.4375q0.453125 -0.15625 0.96875 -0.15625q0.5625 0 1.03125 0.140625q0.46875 0.140625 0.796875 0.421875q0.34375 0.265625 0.53125 0.671875q0.1875 0.40625 0.1875 0.9375q0 0.234375 -0.078125 0.484375q-0.078125 0.234375 -0.21875 0.453125q-0.140625 0.203125 -0.34375 0.390625q-0.203125 0.171875 -0.484375 0.296875q0.328125 0.125 0.546875 0.296875q0.234375 0.171875 0.390625 0.40625q0.15625 0.21875 0.21875 0.5q0.078125 0.265625 0.078125 0.5625q0 0.53125 -0.203125 0.953125q-0.203125 0.40625 -0.5625 0.703125q-0.34375 0.28125 -0.84375 0.4375q-0.484375 0.140625 -1.046875 0.140625q-0.46875 0 -0.9375 -0.125q-0.453125 -0.140625 -0.8125 -0.40625q-0.359375 -0.28125 -0.578125 -0.6875q-0.21875 -0.40625 -0.21875 -0.953125l1.453125 0q0 0.21875 0.078125 0.40625q0.078125 0.1875 0.234375 0.328125q0.15625 0.125 0.359375 0.203125q0.203125 0.0625 0.453125 0.0625q0.5625 0 0.875 -0.28125q0.3125 -0.296875 0.3125 -0.796875q0 -0.3125 -0.09375 -0.515625q-0.09375 -0.21875 -0.265625 -0.359375q-0.15625 -0.140625 -0.40625 -0.203125q-0.234375 -0.078125 -0.53125 -0.078125l-0.78125 0l0 -1.125z" fill-rule="nonzero"/><path fill="#000000" fill-opacity="0.0" d="m65.83482 18.897638l37.795273 0l0 18.897638l-37.795273 0z" fill-rule="evenodd"/><path stroke="#d9d9d9" stroke-width="1.0" stroke-linejoin="round" stroke-linecap="butt" stroke-dasharray="4.0,3.0" d="m65.83482 18.897638l37.795273 0l0 18.897638l-37.795273 0z" fill-rule="evenodd"/><path fill="#d9d9d9" d="m85.816315 32.086456l-1.46875 0l0 -5.8125l-1.90625 0.6875l0 -1.265625l3.296875 -1.1875l0.078125 0l0 7.578125z" fill-rule="nonzero"/><path fill="#000000" fill-opacity="0.0" d="m235.91356 0l18.897644 0l0 18.897638l-18.897644 0z" fill-rule="evenodd"/><path stroke="#d9d9d9" stroke-width="1.0" stroke-linejoin="round" stroke-linecap="butt" d="m235.91356 0l18.897644 0l0 18.897638l-18.897644 0z" fill-rule="evenodd"/><path fill="#d9d9d9" d="m243.24884 13.188819l-1.46875 0l0 -5.8125l-1.90625 0.6875l0 -1.265625l3.296875 -1.1875l0.078125 0l0 7.578125zm7.7854156 -2.875q0 0.71875 -0.171875 1.28125q-0.171875 0.5625 -0.5 0.9375q-0.3125 0.375 -0.765625 0.578125q-0.453125 0.1875 -1.03125 0.1875q-0.5625 0 -1.03125 -0.1875q-0.453125 -0.203125 -0.78125 -0.578125q-0.3125 -0.375 -0.484375 -0.9375q-0.171875 -0.5625 -0.171875 -1.28125l0 -1.8125q0 -0.734375 0.171875 -1.296875q0.171875 -0.5625 0.484375 -0.9375q0.328125 -0.375 0.78125 -0.5625q0.453125 -0.203125 1.015625 -0.203125q0.578125 0 1.03125 0.203125q0.46875 0.1875 0.78125 0.5625q0.328125 0.375 0.5 0.9375q0.171875 0.5625 0.171875 1.296875l0 1.8125zm-3.484375 -0.625l2.015625 -1.515625q-0.015625 -0.765625 -0.265625 -1.125q-0.25 -0.375 -0.75 -0.375q-0.5 0 -0.75 0.390625q-0.25 0.390625 -0.25 1.203125l0 1.421875zm2.015625 -0.53125l-2.015625 1.5q0.03125 0.75 0.28125 1.109375q0.25 0.359375 0.734375 0.359375q0.515625 0 0.75 -0.390625q0.25 -0.390625 0.25 -1.21875l0 -1.359375z" fill-rule="nonzero"/><path fill="#000000" fill-opacity="0.0" d="m141.42537 0l18.897644 0l0 18.897638l-18.897644 0z" fill-rule="evenodd"/><path stroke="#d9d9d9" stroke-width="1.0" stroke-linejoin="round" stroke-linecap="butt" d="m141.42537 0l18.897644 0l0 18.897638l-18.897644 0z" fill-rule="evenodd"/><path fill="#d9d9d9" d="m148.4893 9.454444l0.421875 -3.84375l4.203125 0l0 1.234375l-3.0 0l-0.1875 1.65625q0.15625 -0.09375 0.453125 -0.1875q0.296875 -0.09375 0.6875 -0.09375q0.546875 0 0.96875 0.171875q0.4375 0.171875 0.71875 0.5q0.296875 0.328125 0.453125 0.8125q0.15625 0.46875 0.15625 1.0625q0 0.5 -0.15625 0.96875q-0.140625 0.453125 -0.453125 0.8125q-0.3125 0.34375 -0.796875 0.546875q-0.46875 0.203125 -1.109375 0.203125q-0.484375 0 -0.9375 -0.140625q-0.453125 -0.15625 -0.8125 -0.4375q-0.359375 -0.28125 -0.578125 -0.6875q-0.21875 -0.40625 -0.234375 -0.9375l1.421875 0q0.0625 0.5 0.359375 0.765625q0.296875 0.265625 0.78125 0.265625q0.28125 0 0.484375 -0.109375q0.21875 -0.109375 0.34375 -0.296875q0.125 -0.1875 0.1875 -0.453125q0.0625 -0.265625 0.0625 -0.578125q0 -0.296875 -0.078125 -0.546875q-0.078125 -0.25 -0.234375 -0.4375q-0.15625 -0.1875 -0.390625 -0.28125q-0.234375 -0.09375 -0.546875 -0.09375q-0.21875 0 -0.375 0.03125q-0.15625 0.03125 -0.28125 0.09375q-0.109375 0.0625 -0.203125 0.140625q-0.09375 0.0625 -0.171875 0.15625l-1.15625 -0.296875z" fill-rule="nonzero"/><path fill="#000000" fill-opacity="0.0" d="m65.83482 0l207.1811 0l0 37.795277l-207.1811 0z" fill-rule="evenodd"/><path stroke="#d9d9d9" stroke-width="1.0" stroke-linejoin="round" stroke-linecap="butt" d="m65.83482 0l207.1811 0l0 37.795277l-207.1811 0z" fill-rule="evenodd"/><path fill="#d9d9d9" d="m170.50923 22.637638l-1.46875 0l0 -5.8125l-1.90625 0.6875l0 -1.265625l3.296875 -1.1875l0.078125 0l0 7.578125z" fill-rule="nonzero"/><path fill="#000000" fill-opacity="0.0" d="m217.01593 18.897638l37.795273 0l0 18.897638l-37.795273 0z" fill-rule="evenodd"/><path stroke="#d9d9d9" stroke-width="1.0" stroke-linejoin="round" stroke-linecap="butt" stroke-dasharray="4.0,3.0" d="m217.01593 18.897638l37.795273 0l0 18.897638l-37.795273 0z" fill-rule="evenodd"/><path fill="#d9d9d9" d="m233.52867 28.352081l0.421875 -3.84375l4.203125 0l0 1.234375l-3.0 0l-0.1875 1.65625q0.15625 -0.09375 0.453125 -0.1875q0.296875 -0.09375 0.6875 -0.09375q0.546875 0 0.96875 0.171875q0.4375 0.171875 0.71875 0.5q0.296875 0.328125 0.453125 0.8125q0.15625 0.46875 0.15625 1.0625q0 0.5 -0.15625 0.96875q-0.140625 0.453125 -0.453125 0.8125q-0.3125 0.34375 -0.796875 0.546875q-0.46875 0.203125 -1.109375 0.203125q-0.484375 0 -0.9375 -0.140625q-0.453125 -0.15625 -0.8125 -0.4375q-0.359375 -0.28125 -0.578125 -0.6875q-0.21875 -0.40625 -0.234375 -0.9375l1.421875 0q0.0625 0.5 0.359375 0.765625q0.296875 0.265625 0.78125 0.265625q0.28125 0 0.484375 -0.109375q0.21875 -0.109375 0.34375 -0.296875q0.125 -0.1875 0.1875 -0.453125q0.0625 -0.265625 0.0625 -0.578125q0 -0.296875 -0.078125 -0.546875q-0.078125 -0.25 -0.234375 -0.4375q-0.15625 -0.1875 -0.390625 -0.28125q-0.234375 -0.09375 -0.546875 -0.09375q-0.21875 0 -0.375 0.03125q-0.15625 0.03125 -0.28125 0.09375q-0.109375 0.0625 -0.203125 0.140625q-0.09375 0.0625 -0.171875 0.15625l-1.15625 -0.296875z" fill-rule="nonzero"/><path fill="#000000" fill-opacity="0.0" d="m0 18.897638l58.582676 0l0 18.897638l-58.582676 0z" fill-rule="evenodd"/><path fill="#000000" d="m25.698307 28.945831l-3.234375 0l0 3.140625l-1.46875 0l0 -7.578125l5.109375 0l0 1.1875l-3.640625 0l0 2.0625l3.234375 0l0 1.1875zm5.6916656 -2.59375q0.328125 0 0.59375 0.046875q0.28125 0.046875 0.453125 0.09375l-0.203125 1.4375q-0.296875 -0.0625 -0.59375 -0.09375q-0.296875 -0.03125 -0.5625 -0.03125q-0.609375 0 -0.984375 0.234375q-0.359375 0.234375 -0.546875 0.671875l0 3.375l-1.4375 0l0 -5.625l1.34375 0l0.0625 0.921875q0.34375 -0.484375 0.8125 -0.75q0.484375 -0.28125 1.0625 -0.28125zm5.8635406 5.734375q-0.046875 -0.109375 -0.09375 -0.234375q-0.03125 -0.140625 -0.0625 -0.296875q-0.109375 0.140625 -0.265625 0.25q-0.15625 0.109375 -0.359375 0.203125q-0.1875 0.078125 -0.421875 0.125q-0.21875 0.0625 -0.484375 0.0625q-0.421875 0 -0.796875 -0.125q-0.359375 -0.125 -0.625 -0.34375q-0.25 -0.234375 -0.40625 -0.546875q-0.140625 -0.3125 -0.140625 -0.671875q0 -0.890625 0.65625 -1.375q0.671875 -0.484375 1.984375 -0.484375l0.8125 0l0 -0.328125q0 -0.40625 -0.265625 -0.640625q-0.265625 -0.25 -0.765625 -0.25q-0.4375 0 -0.640625 0.203125q-0.203125 0.1875 -0.203125 0.5l-1.453125 0q0 -0.359375 0.15625 -0.671875q0.171875 -0.328125 0.46875 -0.578125q0.3125 -0.25 0.75 -0.390625q0.4375 -0.140625 1.0 -0.140625q0.515625 0 0.953125 0.125q0.4375 0.125 0.75 0.375q0.328125 0.234375 0.515625 0.609375q0.1875 0.375 0.1875 0.859375l0 2.421875q0 0.453125 0.046875 0.75q0.0625 0.296875 0.171875 0.5l0 0.09375l-1.46875 0zm-1.375 -1.015625q0.21875 0 0.40625 -0.046875q0.1875 -0.0625 0.328125 -0.140625q0.15625 -0.078125 0.265625 -0.1875q0.109375 -0.109375 0.171875 -0.21875l0 -0.96875l-0.734375 0q-0.34375 0 -0.578125 0.0625q-0.234375 0.0625 -0.390625 0.1875q-0.15625 0.109375 -0.234375 0.28125q-0.0625 0.15625 -0.0625 0.359375q0 0.28125 0.203125 0.484375q0.203125 0.1875 0.625 0.1875zm5.1604156 -4.609375l0.03125 0.671875q0.171875 -0.359375 0.453125 -0.5625q0.28125 -0.21875 0.6875 -0.21875q0.671875 0 0.890625 0.59375q0.15625 -0.28125 0.40625 -0.4375q0.265625 -0.15625 0.640625 -0.15625q0.25 0 0.46875 0.09375q0.21875 0.09375 0.375 0.296875q0.171875 0.203125 0.265625 0.53125q0.09375 0.328125 0.09375 0.796875l0 4.015625l-1.3125 0l0 -4.015625q0 -0.171875 -0.046875 -0.265625q-0.03125 -0.109375 -0.09375 -0.171875q-0.046875 -0.0625 -0.125 -0.078125q-0.078125 -0.03125 -0.15625 -0.03125q-0.140625 0 -0.25 0.078125q-0.109375 0.0625 -0.15625 0.1875l0 4.296875l-1.28125 0l0 -4.03125q0 -0.15625 -0.03125 -0.25q-0.03125 -0.109375 -0.09375 -0.171875q-0.046875 -0.0625 -0.125 -0.078125q-0.0625 -0.03125 -0.140625 -0.03125q-0.171875 0 -0.28125 0.09375q-0.09375 0.09375 -0.15625 0.25l0 4.21875l-1.3125 0l0 -5.625l1.25 0zm8.222916 5.734375q-0.65625 0 -1.1875 -0.21875q-0.53125 -0.21875 -0.90625 -0.578125q-0.375 -0.375 -0.59375 -0.859375q-0.203125 -0.5 -0.203125 -1.078125l0 -0.203125q0 -0.640625 0.203125 -1.171875q0.203125 -0.53125 0.5625 -0.921875q0.375 -0.390625 0.875 -0.59375q0.5 -0.21875 1.078125 -0.21875q0.609375 0 1.078125 0.203125q0.484375 0.203125 0.8125 0.5625q0.34375 0.359375 0.515625 0.875q0.171875 0.515625 0.171875 1.140625l0 0.609375l-3.828125 0q0.046875 0.28125 0.171875 0.515625q0.125 0.234375 0.3125 0.40625q0.203125 0.171875 0.453125 0.265625q0.265625 0.09375 0.5625 0.09375q0.21875 0 0.421875 -0.03125q0.21875 -0.046875 0.40625 -0.125q0.203125 -0.078125 0.359375 -0.203125q0.171875 -0.125 0.296875 -0.28125l0.71875 0.78125q-0.125 0.1875 -0.34375 0.375q-0.21875 0.1875 -0.515625 0.328125q-0.296875 0.140625 -0.65625 0.234375q-0.359375 0.09375 -0.765625 0.09375zm-0.171875 -4.671875q-0.25 0 -0.453125 0.09375q-0.203125 0.078125 -0.359375 0.25q-0.140625 0.15625 -0.25 0.375q-0.109375 0.21875 -0.15625 0.5l2.375 0l0 -0.109375q-0.015625 -0.234375 -0.09375 -0.4375q-0.078125 -0.203125 -0.234375 -0.34375q-0.140625 -0.15625 -0.359375 -0.234375q-0.203125 -0.09375 -0.46875 -0.09375zm5.3010406 3.71875q0 -0.203125 0.0625 -0.375q0.0625 -0.171875 0.1875 -0.296875q0.140625 -0.125 0.328125 -0.203125q0.1875 -0.078125 0.421875 -0.078125q0.234375 0 0.421875 0.078125q0.1875 0.078125 0.3125 0.203125q0.125 0.125 0.1875 0.296875q0.078125 0.171875 0.078125 0.375q0 0.203125 -0.078125 0.375q-0.0625 0.171875 -0.1875 0.296875q-0.125 0.125 -0.3125 0.203125q-0.1875 0.078125 -0.421875 0.078125q-0.234375 0 -0.421875 -0.078125q-0.1875 -0.078125 -0.328125 -0.203125q-0.125 -0.125 -0.1875 -0.296875q-0.0625 -0.171875 -0.0625 -0.375zm0 -4.0q0 -0.203125 0.0625 -0.375q0.0625 -0.171875 0.1875 -0.296875q0.140625 -0.125 0.328125 -0.203125q0.1875 -0.078125 0.421875 -0.078125q0.234375 0 0.421875 0.078125q0.1875 0.078125 0.3125 0.203125q0.125 0.125 0.1875 0.296875q0.078125 0.171875 0.078125 0.375q0 0.203125 -0.078125 0.375q-0.0625 0.171875 -0.1875 0.296875q-0.125 0.125 -0.3125 0.203125q-0.1875 0.078125 -0.421875 0.078125q-0.234375 0 -0.421875 -0.078125q-0.1875 -0.078125 -0.328125 -0.203125q-0.125 -0.125 -0.1875 -0.296875q-0.0625 -0.171875 -0.0625 -0.375z" fill-rule="nonzero"/><path fill="#000000" fill-opacity="0.0" d="m0 0l58.582676 0l0 18.897638l-58.582676 0z" fill-rule="evenodd"/><path fill="#000000" d="m20.885807 13.188819l0 -7.578125l2.546875 0q0.609375 0 1.109375 0.125q0.515625 0.125 0.875 0.390625q0.359375 0.25 0.546875 0.640625q0.203125 0.390625 0.203125 0.921875q0 0.53125 -0.28125 0.953125q-0.28125 0.421875 -0.8125 0.640625q0.328125 0.078125 0.5625 0.25q0.234375 0.15625 0.390625 0.390625q0.171875 0.21875 0.234375 0.484375q0.078125 0.265625 0.078125 0.5625q0 0.546875 -0.1875 0.96875q-0.1875 0.40625 -0.53125 0.6875q-0.34375 0.28125 -0.84375 0.421875q-0.5 0.140625 -1.125 0.140625l-2.765625 0zm1.46875 -3.34375l0 2.15625l1.296875 0q0.59375 0 0.90625 -0.28125q0.328125 -0.296875 0.328125 -0.765625q0 -0.515625 -0.296875 -0.796875q-0.28125 -0.296875 -0.875 -0.3125l-1.359375 0zm0 -1.046875l1.078125 0q0.609375 -0.015625 0.9375 -0.265625q0.328125 -0.25 0.34375 -0.734375q0 -0.53125 -0.328125 -0.75q-0.328125 -0.234375 -0.953125 -0.25l-1.078125 0l0 2.0zm5.2854156 -3.609375l3.15625 0l0 6.828125l1.609375 0l0 1.171875l-4.765625 0l0 -1.171875l1.6875 0l0 -5.640625l-1.6875 0l0 -1.1875zm5.8947906 5.140625q0 -0.625 0.171875 -1.140625q0.1875 -0.53125 0.53125 -0.90625q0.34375 -0.390625 0.828125 -0.609375q0.5 -0.21875 1.125 -0.21875q0.640625 0 1.125 0.21875q0.5 0.21875 0.84375 0.609375q0.34375 0.375 0.515625 0.90625q0.171875 0.515625 0.171875 1.140625l0 0.109375q0 0.609375 -0.171875 1.140625q-0.171875 0.515625 -0.515625 0.90625q-0.34375 0.375 -0.84375 0.59375q-0.484375 0.21875 -1.109375 0.21875q-0.640625 0 -1.140625 -0.21875q-0.484375 -0.21875 -0.828125 -0.59375q-0.34375 -0.390625 -0.53125 -0.90625q-0.171875 -0.53125 -0.171875 -1.140625l0 -0.109375zm1.453125 0.109375q0 0.34375 0.0625 0.65625q0.078125 0.3125 0.21875 0.546875q0.140625 0.21875 0.375 0.359375q0.234375 0.140625 0.5625 0.140625q0.3125 0 0.53125 -0.140625q0.234375 -0.140625 0.375 -0.359375q0.15625 -0.234375 0.21875 -0.546875q0.0625 -0.3125 0.0625 -0.65625l0 -0.109375q0 -0.34375 -0.0625 -0.65625q-0.0625 -0.3125 -0.21875 -0.546875q-0.140625 -0.234375 -0.375 -0.359375q-0.21875 -0.140625 -0.546875 -0.140625q-0.328125 0 -0.5625 0.140625q-0.21875 0.125 -0.359375 0.359375q-0.140625 0.234375 -0.21875 0.546875q-0.0625 0.3125 -0.0625 0.65625l0 0.109375zm7.6291656 1.703125q0.21875 0 0.40625 -0.0625q0.203125 -0.0625 0.34375 -0.171875q0.140625 -0.125 0.21875 -0.28125q0.09375 -0.171875 0.078125 -0.359375l1.359375 0q0.015625 0.4375 -0.171875 0.8125q-0.1875 0.375 -0.515625 0.640625q-0.328125 0.265625 -0.765625 0.421875q-0.4375 0.15625 -0.921875 0.15625q-0.65625 0 -1.15625 -0.21875q-0.484375 -0.21875 -0.8125 -0.609375q-0.328125 -0.390625 -0.5 -0.90625q-0.171875 -0.515625 -0.171875 -1.109375l0 -0.15625q0 -0.59375 0.15625 -1.109375q0.171875 -0.515625 0.5 -0.890625q0.34375 -0.390625 0.828125 -0.609375q0.5 -0.234375 1.140625 -0.234375q0.53125 0 0.96875 0.15625q0.4375 0.15625 0.75 0.4375q0.328125 0.28125 0.5 0.6875q0.1875 0.40625 0.171875 0.90625l-1.359375 0q0.015625 -0.203125 -0.0625 -0.390625q-0.078125 -0.1875 -0.21875 -0.328125q-0.140625 -0.140625 -0.34375 -0.21875q-0.1875 -0.078125 -0.421875 -0.078125q-0.34375 0 -0.5625 0.140625q-0.21875 0.140625 -0.359375 0.375q-0.125 0.234375 -0.1875 0.546875q-0.046875 0.296875 -0.046875 0.609375l0 0.15625q0 0.328125 0.046875 0.640625q0.046875 0.296875 0.171875 0.53125q0.140625 0.234375 0.359375 0.375q0.234375 0.140625 0.578125 0.140625zm6.0197906 -1.28125l-0.640625 0.609375l0 1.71875l-1.453125 0l0 -8.0l1.453125 0l0 4.578125l0.4375 -0.5l1.546875 -1.703125l1.734375 0l-2.125 2.34375l2.421875 3.28125l-1.765625 0l-1.609375 -2.328125zm5.7541656 1.484375q0 -0.203125 0.0625 -0.375q0.0625 -0.171875 0.1875 -0.296875q0.140625 -0.125 0.328125 -0.203125q0.1875 -0.078125 0.421875 -0.078125q0.234375 0 0.421875 0.078125q0.1875 0.078125 0.3125 0.203125q0.125 0.125 0.1875 0.296875q0.078125 0.171875 0.078125 0.375q0 0.203125 -0.078125 0.375q-0.0625 0.171875 -0.1875 0.296875q-0.125 0.125 -0.3125 0.203125q-0.1875 0.078125 -0.421875 0.078125q-0.234375 0 -0.421875 -0.078125q-0.1875 -0.078125 -0.328125 -0.203125q-0.125 -0.125 -0.1875 -0.296875q-0.0625 -0.171875 -0.0625 -0.375zm0 -4.0q0 -0.203125 0.0625 -0.375q0.0625 -0.171875 0.1875 -0.296875q0.140625 -0.125 0.328125 -0.203125q0.1875 -0.078125 0.421875 -0.078125q0.234375 0 0.421875 0.078125q0.1875 0.078125 0.3125 0.203125q0.125 0.125 0.1875 0.296875q0.078125 0.171875 0.078125 0.375q0 0.203125 -0.078125 0.375q-0.0625 0.171875 -0.1875 0.296875q-0.125 0.125 -0.3125 0.203125q-0.1875 0.078125 -0.421875 0.078125q-0.234375 0 -0.421875 -0.078125q-0.1875 -0.078125 -0.328125 -0.203125q-0.125 -0.125 -0.1875 -0.296875q-0.0625 -0.171875 -0.0625 -0.375z" fill-rule="nonzero"/><path fill="#000000" fill-opacity="0.0" d="m65.07892 18.897638l188.97638 0" fill-rule="evenodd"/><path stroke="#000000" stroke-width="1.0" stroke-linejoin="round" stroke-linecap="butt" d="m65.07892 18.897638l188.97638 0" fill-rule="evenodd"/><path fill="#000000" fill-opacity="0.0" d="m65.07892 34.771652l208.62991 0" fill-rule="evenodd"/><path stroke="#000000" stroke-width="1.0" stroke-linejoin="round" stroke-linecap="butt" d="m65.07892 34.771652l202.62991 0" fill-rule="evenodd"/><path fill="#000000" stroke="#000000" stroke-width="1.0" stroke-linecap="butt" d="m267.70883 36.423386l4.5381165 -1.6517334l-4.5381165 -1.6517296z" fill-rule="evenodd"/></g></svg>