<svg version="1.1" viewBox="0.0 0.0 149.29133858267716 94.48818897637796" fill="none" stroke="none" stroke-linecap="square" stroke-miterlimit="10" xmlns:xlink="http://www.w3.org/1999/xlink" xmlns="http://www.w3.org/2000/svg"><clipPath id="p.0"><path d="m0 0l149.29134 0l0 94.48819l-149.29134 0l0 -94.48819z" clip-rule="nonzero"/></clipPath><g clip-path="url(#p.0)"><path fill="#000000" fill-opacity="0.0" d="m0 0l149.29134 0l0 94.48819l-149.29134 0z" fill-rule="evenodd"/><path fill="#000000" fill-opacity="0.0" d="m112.00428 56.692913l37.354332 0l0 37.795277l-37.354332 0z" fill-rule="evenodd"/><path fill="#000000" d="m132.5291 81.450554l-2.1875 0l0 -8.28125q-1.203125 1.125 -2.84375 1.671875l0 -2.0q0.859375 -0.28125 1.859375 -1.0625q1.015625 -0.78125 1.390625 -1.828125l1.78125 0l0 11.5z" fill-rule="nonzero"/><path fill="#000000" fill-opacity="0.0" d="m18.612152 18.897638l18.678425 0l0 18.897638l-18.678425 0z" fill-rule="evenodd"/><path stroke="#f3f3f3" stroke-width="1.0" stroke-linejoin="round" stroke-linecap="butt" d="m18.612152 18.897638l18.678425 0l0 18.897638l-18.678425 0z" fill-rule="evenodd"/><path fill="#000000" fill-opacity="0.0" d="m18.612152 37.795277l18.678425 0l0 18.897636l-18.678425 0z" fill-rule="evenodd"/><path stroke="#f3f3f3" stroke-width="1.0" stroke-linejoin="round" stroke-linecap="butt" d="m18.612152 37.795277l18.678425 0l0 18.897636l-18.678425 0z" fill-rule="evenodd"/><path fill="#000000" fill-opacity="0.0" d="m-0.06627297 0l18.678425 0l0 18.897638l-18.678425 0z" fill-rule="evenodd"/><path stroke="#f3f3f3" stroke-width="1.0" stroke-linejoin="round" stroke-linecap="butt" d="m-0.06627297 0l18.678425 0l0 18.897638l-18.678425 0z" fill-rule="evenodd"/><path fill="#000000" fill-opacity="0.0" d="m-0.06627297 18.897638l18.678425 0l0 18.897638l-18.678425 0z" fill-rule="evenodd"/><path stroke="#f3f3f3" stroke-width="1.0" stroke-linejoin="round" stroke-linecap="butt" d="m-0.06627297 18.897638l18.678425 0l0 18.897638l-18.678425 0z" fill-rule="evenodd"/><path fill="#000000" fill-opacity="0.0" d="m-0.06627297 37.795277l18.678425 0l0 18.897636l-18.678425 0z" fill-rule="evenodd"/><path stroke="#f3f3f3" stroke-width="1.0" stroke-linejoin="round" stroke-linecap="butt" d="m-0.06627297 37.795277l18.678425 0l0 18.897636l-18.678425 0z" fill-rule="evenodd"/><path fill="#000000" fill-opacity="0.0" d="m-0.06627297 56.692913l18.678425 0l0 18.89764l-18.678425 0z" fill-rule="evenodd"/><path stroke="#f3f3f3" stroke-width="1.0" stroke-linejoin="round" stroke-linecap="butt" d="m-0.06627297 56.692913l18.678425 0l0 18.89764l-18.678425 0z" fill-rule="evenodd"/><path fill="#000000" fill-opacity="0.0" d="m18.612152 0l18.678425 0l0 18.897638l-18.678425 0z" fill-rule="evenodd"/><path stroke="#f3f3f3" stroke-width="1.0" stroke-linejoin="round" stroke-linecap="butt" d="m18.612152 0l18.678425 0l0 18.897638l-18.678425 0z" fill-rule="evenodd"/><path fill="#000000" fill-opacity="0.0" d="m18.612152 56.692913l18.678425 0l0 18.89764l-18.678425 0z" fill-rule="evenodd"/><path stroke="#f3f3f3" stroke-width="1.0" stroke-linejoin="round" stroke-linecap="butt" d="m18.612152 56.692913l18.678425 0l0 18.89764l-18.678425 0z" fill-rule="evenodd"/><path fill="#000000" fill-opacity="0.0" d="m37.290577 0l18.678425 0l0 18.897638l-18.678425 0z" fill-rule="evenodd"/><path stroke="#f3f3f3" stroke-width="1.0" stroke-linejoin="round" stroke-linecap="butt" d="m37.290577 0l18.678425 0l0 18.897638l-18.678425 0z" fill-rule="evenodd"/><path fill="#000000" fill-opacity="0.0" d="m37.290577 18.897638l18.678425 0l0 18.897638l-18.678425 0z" fill-rule="evenodd"/><path stroke="#f3f3f3" stroke-width="1.0" stroke-linejoin="round" stroke-linecap="butt" d="m37.290577 18.897638l18.678425 0l0 18.897638l-18.678425 0z" fill-rule="evenodd"/><path fill="#000000" fill-opacity="0.0" d="m37.290577 37.795277l18.678425 0l0 18.897636l-18.678425 0z" fill-rule="evenodd"/><path stroke="#f3f3f3" stroke-width="1.0" stroke-linejoin="round" stroke-linecap="butt" d="m37.290577 37.795277l18.678425 0l0 18.897636l-18.678425 0z" fill-rule="evenodd"/><path fill="#000000" fill-opacity="0.0" d="m37.290577 56.692913l18.678425 0l0 18.89764l-18.678425 0z" fill-rule="evenodd"/><path stroke="#f3f3f3" stroke-width="1.0" stroke-linejoin="round" stroke-linecap="butt" d="m37.290577 56.692913l18.678425 0l0 18.89764l-18.678425 0z" fill-rule="evenodd"/><path fill="#000000" fill-opacity="0.0" d="m55.969 0l18.678429 0l0 18.897638l-18.678429 0z" fill-rule="evenodd"/><path stroke="#f3f3f3" stroke-width="1.0" stroke-linejoin="round" stroke-linecap="butt" d="m55.969 0l18.678429 0l0 18.897638l-18.678429 0z" fill-rule="evenodd"/><path fill="#000000" fill-opacity="0.0" d="m55.969 18.897638l18.678429 0l0 18.897638l-18.678429 0z" fill-rule="evenodd"/><path stroke="#f3f3f3" stroke-width="1.0" stroke-linejoin="round" stroke-linecap="butt" d="m55.969 18.897638l18.678429 0l0 18.897638l-18.678429 0z" fill-rule="evenodd"/><path fill="#000000" fill-opacity="0.0" d="m55.969 37.795277l18.678429 0l0 18.897636l-18.678429 0z" fill-rule="evenodd"/><path stroke="#f3f3f3" stroke-width="1.0" stroke-linejoin="round" stroke-linecap="butt" d="m55.969 37.795277l18.678429 0l0 18.897636l-18.678429 0z" fill-rule="evenodd"/><path fill="#000000" fill-opacity="0.0" d="m55.969 56.692913l18.678429 0l0 18.89764l-18.678429 0z" fill-rule="evenodd"/><path stroke="#f3f3f3" stroke-width="1.0" stroke-linejoin="round" stroke-linecap="butt" d="m55.969 56.692913l18.678429 0l0 18.89764l-18.678429 0z" fill-rule="evenodd"/><path fill="#000000" fill-opacity="0.0" d="m74.64743 0l18.678421 0l0 18.897638l-18.678421 0z" fill-rule="evenodd"/><path stroke="#f3f3f3" stroke-width="1.0" stroke-linejoin="round" stroke-linecap="butt" d="m74.64743 0l18.678421 0l0 18.897638l-18.678421 0z" fill-rule="evenodd"/><path fill="#000000" fill-opacity="0.0" d="m74.64743 18.897638l18.678421 0l0 18.897638l-18.678421 0z" fill-rule="evenodd"/><path stroke="#f3f3f3" stroke-width="1.0" stroke-linejoin="round" stroke-linecap="butt" d="m74.64743 18.897638l18.678421 0l0 18.897638l-18.678421 0z" fill-rule="evenodd"/><path fill="#000000" fill-opacity="0.0" d="m74.64743 37.795277l18.678421 0l0 18.897636l-18.678421 0z" fill-rule="evenodd"/><path stroke="#f3f3f3" stroke-width="1.0" stroke-linejoin="round" stroke-linecap="butt" d="m74.64743 37.795277l18.678421 0l0 18.897636l-18.678421 0z" fill-rule="evenodd"/><path fill="#000000" fill-opacity="0.0" d="m74.64743 56.692913l18.678421 0l0 18.89764l-18.678421 0z" fill-rule="evenodd"/><path stroke="#f3f3f3" stroke-width="1.0" stroke-linejoin="round" stroke-linecap="butt" d="m74.64743 56.692913l18.678421 0l0 18.89764l-18.678421 0z" fill-rule="evenodd"/><path fill="#000000" fill-opacity="0.0" d="m93.32585 0l18.678429 0l0 18.897638l-18.678429 0z" fill-rule="evenodd"/><path stroke="#f3f3f3" stroke-width="1.0" stroke-linejoin="round" stroke-linecap="butt" d="m93.32585 0l18.678429 0l0 18.897638l-18.678429 0z" fill-rule="evenodd"/><path fill="#000000" fill-opacity="0.0" d="m93.32585 18.897638l18.678429 0l0 18.897638l-18.678429 0z" fill-rule="evenodd"/><path stroke="#f3f3f3" stroke-width="1.0" stroke-linejoin="round" stroke-linecap="butt" d="m93.32585 18.897638l18.678429 0l0 18.897638l-18.678429 0z" fill-rule="evenodd"/><path fill="#000000" fill-opacity="0.0" d="m93.32585 37.795277l18.678429 0l0 18.897636l-18.678429 0z" fill-rule="evenodd"/><path stroke="#f3f3f3" stroke-width="1.0" stroke-linejoin="round" stroke-linecap="butt" d="m93.32585 37.795277l18.678429 0l0 18.897636l-18.678429 0z" fill-rule="evenodd"/><path fill="#000000" fill-opacity="0.0" d="m93.32585 56.692913l18.678429 0l0 18.89764l-18.678429 0z" fill-rule="evenodd"/><path stroke="#f3f3f3" stroke-width="1.0" stroke-linejoin="round" stroke-linecap="butt" d="m93.32585 56.692913l18.678429 0l0 18.89764l-18.678429 0z" fill-rule="evenodd"/><path fill="#000000" fill-opacity="0.0" d="m112.00428 0l18.678429 0l0 18.897638l-18.678429 0z" fill-rule="evenodd"/><path stroke="#f3f3f3" stroke-width="1.0" stroke-linejoin="round" stroke-linecap="butt" d="m112.00428 0l18.678429 0l0 18.897638l-18.678429 0z" fill-rule="evenodd"/><path fill="#000000" fill-opacity="0.0" d="m112.00428 18.897638l18.678429 0l0 18.897638l-18.678429 0z" fill-rule="evenodd"/><path stroke="#f3f3f3" stroke-width="1.0" stroke-linejoin="round" stroke-linecap="butt" d="m112.00428 18.897638l18.678429 0l0 18.897638l-18.678429 0z" fill-rule="evenodd"/><path fill="#000000" fill-opacity="0.0" d="m112.00428 37.795277l18.678429 0l0 18.897636l-18.678429 0z" fill-rule="evenodd"/><path stroke="#f3f3f3" stroke-width="1.0" stroke-linejoin="round" stroke-linecap="butt" d="m112.00428 37.795277l18.678429 0l0 18.897636l-18.678429 0z" fill-rule="evenodd"/><path fill="#000000" fill-opacity="0.0" d="m-0.06627297 75.779526l18.678425 0l0 18.897636l-18.678425 0z" fill-rule="evenodd"/><path stroke="#f3f3f3" stroke-width="1.0" stroke-linejoin="round" stroke-linecap="butt" d="m-0.06627297 75.779526l18.678425 0l0 18.897636l-18.678425 0z" fill-rule="evenodd"/><path fill="#000000" fill-opacity="0.0" d="m18.612152 75.779526l18.678425 0l0 18.897636l-18.678425 0z" fill-rule="evenodd"/><path stroke="#f3f3f3" stroke-width="1.0" stroke-linejoin="round" stroke-linecap="butt" d="m18.612152 75.779526l18.678425 0l0 18.897636l-18.678425 0z" fill-rule="evenodd"/><path fill="#000000" fill-opacity="0.0" d="m37.290577 75.779526l18.678425 0l0 18.897636l-18.678425 0z" fill-rule="evenodd"/><path stroke="#f3f3f3" stroke-width="1.0" stroke-linejoin="round" stroke-linecap="butt" d="m37.290577 75.779526l18.678425 0l0 18.897636l-18.678425 0z" fill-rule="evenodd"/><path fill="#000000" fill-opacity="0.0" d="m55.969 75.779526l18.678429 0l0 18.897636l-18.678429 0z" fill-rule="evenodd"/><path stroke="#f3f3f3" stroke-width="1.0" stroke-linejoin="round" stroke-linecap="butt" d="m55.969 75.779526l18.678429 0l0 18.897636l-18.678429 0z" fill-rule="evenodd"/><path fill="#000000" fill-opacity="0.0" d="m74.64743 75.779526l18.678421 0l0 18.897636l-18.678421 0z" fill-rule="evenodd"/><path stroke="#f3f3f3" stroke-width="1.0" stroke-linejoin="round" stroke-linecap="butt" d="m74.64743 75.779526l18.678421 0l0 18.897636l-18.678421 0z" fill-rule="evenodd"/><path fill="#000000" fill-opacity="0.0" d="m-0.06955388 0l149.4274 0l0 97.6063l-149.4274 0z" fill-rule="evenodd"/><path stroke="#f3f3f3" stroke-width="1.0" stroke-linejoin="round" stroke-linecap="butt" d="m-0.06955388 0l149.4274 0l0 97.6063l-149.4274 0z" fill-rule="evenodd"/><path fill="#000000" fill-opacity="0.0" d="m130.68271 0l18.678421 0l0 18.897638l-18.678421 0z" fill-rule="evenodd"/><path stroke="#f3f3f3" stroke-width="1.0" stroke-linejoin="round" stroke-linecap="butt" d="m130.68271 0l18.678421 0l0 18.897638l-18.678421 0z" fill-rule="evenodd"/><path fill="#000000" fill-opacity="0.0" d="m130.68271 18.897638l18.678421 0l0 18.897638l-18.678421 0z" fill-rule="evenodd"/><path stroke="#f3f3f3" stroke-width="1.0" stroke-linejoin="round" stroke-linecap="butt" d="m130.68271 18.897638l18.678421 0l0 18.897638l-18.678421 0z" fill-rule="evenodd"/><path fill="#000000" fill-opacity="0.0" d="m130.68271 37.795277l18.678421 0l0 18.897636l-18.678421 0z" fill-rule="evenodd"/><path stroke="#f3f3f3" stroke-width="1.0" stroke-linejoin="round" stroke-linecap="butt" d="m130.68271 37.795277l18.678421 0l0 18.897636l-18.678421 0z" fill-rule="evenodd"/><path fill="#000000" fill-opacity="0.0" d="m18.612152 38.17323l93.385826 -0.37795258" fill-rule="evenodd"/><path stroke="#000000" stroke-width="1.0" stroke-linejoin="round" stroke-linecap="butt" d="m18.612152 38.17323l93.385826 -0.37795258" fill-rule="evenodd"/></g></svg>