<svg version="1.1" viewBox="0.0 0.0 798.992125984252 226.77165354330708" fill="none" stroke="none" stroke-linecap="square" stroke-miterlimit="10" xmlns:xlink="http://www.w3.org/1999/xlink" xmlns="http://www.w3.org/2000/svg"><clipPath id="p.0"><path d="m0 0l798.9921 0l0 226.77165l-798.9921 0l0 -226.77165z" clip-rule="nonzero"/></clipPath><g clip-path="url(#p.0)"><path fill="#000000" fill-opacity="0.0" d="m0 0l798.9921 0l0 226.77165l-798.9921 0z" fill-rule="evenodd"/><path fill="#ffffff" d="m241.56659 0l557.48035 0l0 151.1811l-557.48035 0z" fill-rule="evenodd"/><path stroke="#000000" stroke-width="1.0" stroke-linejoin="round" stroke-linecap="butt" d="m241.56659 0l557.48035 0l0 151.1811l-557.48035 0z" fill-rule="evenodd"/><path fill="#000000" fill-opacity="0.0" d="m12.062992 188.2185l228.97638 0l0 37.795273l-228.97638 0z" fill-rule="evenodd"/><path fill="#434343" d="m148.08307 212.25488q-0.90625 0 -1.765625 -0.3125q-0.84375 -0.328125 -1.515625 -0.9375q-0.65625 -0.625 -1.046875 -1.53125q-0.390625 -0.90625 -0.390625 -2.0625q0 -1.15625 0.390625 -2.0625q0.390625 -0.90625 1.046875 -1.515625q0.671875 -0.625 1.515625 -0.953125q0.859375 -0.328125 1.765625 -0.328125q0.921875 0 1.765625 0.328125q0.84375 0.328125 1.5 0.953125q0.671875 0.609375 1.0625 1.515625q0.390625 0.90625 0.390625 2.0625q0 1.15625 -0.390625 2.0625q-0.390625 0.90625 -1.0625 1.53125q-0.65625 0.609375 -1.5 0.9375q-0.84375 0.3125 -1.765625 0.3125zm0 -2.21875q0.953125 0 1.421875 -0.703125q0.484375 -0.71875 0.484375 -1.921875q0 -1.21875 -0.484375 -1.921875q-0.46875 -0.703125 -1.421875 -0.703125q-0.953125 0 -1.4375 0.703125q-0.46875 0.703125 -0.46875 1.921875q0 1.203125 0.46875 1.921875q0.484375 0.703125 1.4375 0.703125zm9.756256 2.21875q-1.578125 0 -2.296875 -1.0q-0.703125 -1.015625 -0.703125 -2.765625l0 -5.703125l2.75 0l0 5.34375q0 0.9375 0.265625 1.375q0.28125 0.421875 1.078125 0.421875q0.515625 0 0.90625 -0.21875q0.40625 -0.234375 0.890625 -0.84375l0 -6.078125l2.75 0l0 9.25l-2.234375 0l-0.21875 -1.328125l-0.0625 0q-0.625 0.71875 -1.375 1.140625q-0.734375 0.40625 -1.75 0.40625zm14.271881 0q-1.09375 0 -1.859375 -0.296875q-0.765625 -0.296875 -1.25 -0.828125q-0.46875 -0.53125 -0.671875 -1.265625q-0.203125 -0.75 -0.203125 -1.671875l0 -3.265625l-2.328125 0l0 -2.03125l2.453125 -0.109375l0.359375 -2.84375l2.25 0l0 2.84375l3.921875 0l0 2.140625l-3.921875 0l0 3.25q0 1.0625 0.46875 1.5q0.46875 0.4375 1.5 0.4375q0.515625 0 0.953125 -0.09375q0.4375 -0.09375 0.875 -0.234375l0.484375 1.96875q-0.625 0.1875 -1.359375 0.34375q-0.734375 0.15625 -1.671875 0.15625zm5.303131 3.21875l0 -12.6875l2.234375 0l0.203125 0.921875l0.0625 0q0.5625 -0.5 1.28125 -0.828125q0.734375 -0.328125 1.484375 -0.328125q0.859375 0 1.546875 0.34375q0.6875 0.328125 1.171875 0.953125q0.484375 0.609375 0.734375 1.484375q0.25 0.859375 0.25 1.921875q0 1.203125 -0.34375 2.125q-0.328125 0.921875 -0.890625 1.5625q-0.546875 0.640625 -1.265625 0.984375q-0.71875 0.328125 -1.5 0.328125q-1.28125 0 -2.28125 -1.0l-0.078125 0l0.125 1.515625l0 2.703125l-2.734375 0zm4.328125 -5.453125q0.78125 0 1.296875 -0.640625q0.53125 -0.640625 0.53125 -2.078125q0 -2.5 -1.703125 -2.5q-0.875 0 -1.71875 0.859375l0 3.75q0.40625 0.328125 0.8125 0.46875q0.421875 0.140625 0.78125 0.140625zm9.678131 2.234375q-1.578125 0 -2.296875 -1.0q-0.703125 -1.015625 -0.703125 -2.765625l0 -5.703125l2.75 0l0 5.34375q0 0.9375 0.265625 1.375q0.28125 0.421875 1.078125 0.421875q0.515625 0 0.90625 -0.21875q0.40625 -0.234375 0.890625 -0.84375l0 -6.078125l2.75 0l0 9.25l-2.234375 0l-0.21875 -1.328125l-0.0625 0q-0.625 0.71875 -1.375 1.140625q-0.734375 0.40625 -1.75 0.40625zm14.271881 0q-1.09375 0 -1.859375 -0.296875q-0.765625 -0.296875 -1.25 -0.828125q-0.46875 -0.53125 -0.671875 -1.265625q-0.203125 -0.75 -0.203125 -1.671875l0 -3.265625l-2.328125 0l0 -2.03125l2.453125 -0.109375l0.359375 -2.84375l2.25 0l0 2.84375l3.921875 0l0 2.140625l-3.921875 0l0 3.25q0 1.0625 0.46875 1.5q0.46875 0.4375 1.5 0.4375q0.515625 0 0.953125 -0.09375q0.4375 -0.09375 0.875 -0.234375l0.484375 1.96875q-0.625 0.1875 -1.359375 0.34375q-0.734375 0.15625 -1.671875 0.15625zm5.146881 -2.359375l1.203125 -1.875q0.890625 0.546875 1.6875 0.859375q0.796875 0.296875 1.6875 0.296875q0.671875 0 1.015625 -0.21875q0.359375 -0.21875 0.359375 -0.609375q0 -0.390625 -0.40625 -0.65625q-0.390625 -0.265625 -1.0 -0.5q-0.609375 -0.25 -1.3125 -0.5q-0.703125 -0.265625 -1.3125 -0.65625q-0.609375 -0.40625 -1.015625 -0.984375q-0.390625 -0.578125 -0.390625 -1.421875q0 -1.21875 0.8125 -2.015625q0.828125 -0.8125 2.234375 -1.03125l0 -2.453125l1.828125 0l0 2.4375q0.984375 0.125 1.703125 0.53125q0.71875 0.390625 1.296875 1.0l-1.375 1.5625q-0.640625 -0.46875 -1.234375 -0.703125q-0.59375 -0.234375 -1.359375 -0.234375q-1.28125 0 -1.28125 0.859375q0 0.34375 0.390625 0.5625q0.40625 0.21875 1.015625 0.453125q0.609375 0.21875 1.3125 0.484375q0.703125 0.25 1.296875 0.65625q0.609375 0.40625 1.0 0.984375q0.40625 0.578125 0.40625 1.40625q0 1.1875 -0.796875 2.0625q-0.796875 0.859375 -2.375 1.109375l0 2.78125l-1.828125 0l0 -2.71875q-0.90625 -0.09375 -1.875 -0.46875q-0.96875 -0.390625 -1.6875 -1.0zm15.600006 -3.640625q-0.96875 0 -1.5625 -0.625q-0.59375 -0.625 -0.59375 -1.546875q0 -0.46875 0.15625 -0.875q0.15625 -0.40625 0.4375 -0.703125q0.28125 -0.296875 0.671875 -0.453125q0.40625 -0.171875 0.890625 -0.171875q0.484375 0 0.890625 0.171875q0.40625 0.15625 0.671875 0.453125q0.28125 0.296875 0.4375 0.703125q0.171875 0.40625 0.171875 0.875q0 0.921875 -0.609375 1.546875q-0.59375 0.625 -1.5625 0.625zm0 6.0q-0.96875 0 -1.5625 -0.625q-0.59375 -0.625 -0.59375 -1.546875q0 -0.46875 0.15625 -0.875q0.15625 -0.40625 0.4375 -0.703125q0.28125 -0.296875 0.671875 -0.453125q0.40625 -0.171875 0.890625 -0.171875q0.484375 0 0.890625 0.171875q0.40625 0.15625 0.671875 0.453125q0.28125 0.296875 0.4375 0.703125q0.171875 0.40625 0.171875 0.875q0 0.921875 -0.609375 1.546875q-0.59375 0.625 -1.5625 0.625z" fill-rule="nonzero"/><path fill="#000000" fill-opacity="0.0" d="m259.7057 55.941933l521.7638 0" fill-rule="evenodd"/><path stroke="#434343" stroke-width="1.0" stroke-linejoin="round" stroke-linecap="butt" d="m259.70572 55.941933l515.7638 0" fill-rule="evenodd"/><path fill="#434343" stroke="#434343" stroke-width="1.0" stroke-linecap="butt" d="m775.4695 57.593666l4.538086 -1.6517334l-4.538086 -1.6517296z" fill-rule="evenodd"/><path fill="#000000" fill-opacity="0.0" d="m0 0.50754696l242.23622 0l0 37.795277l-242.23622 0z" fill-rule="evenodd"/><path fill="#434343" d="m22.72673 24.325184l0 -9.25l2.234375 0l0.21875 2.015625l0.0625 0q0.6875 -1.140625 1.65625 -1.6875q0.96875 -0.5625 2.09375 -0.5625q0.609375 0 0.984375 0.09375q0.390625 0.09375 0.796875 0.28125l-0.5625 2.296875q-0.421875 -0.125 -0.765625 -0.1875q-0.34375 -0.078125 -0.875 -0.078125q-0.859375 0 -1.6875 0.515625q-0.828125 0.5 -1.421875 1.75l0 4.8125l-2.734375 0zm13.193756 0.21875q-0.703125 0 -1.265625 -0.21875q-0.5625 -0.203125 -0.953125 -0.578125q-0.390625 -0.390625 -0.609375 -0.890625q-0.203125 -0.515625 -0.203125 -1.109375q0 -0.78125 0.328125 -1.359375q0.34375 -0.59375 1.078125 -1.0q0.734375 -0.421875 1.890625 -0.671875q1.15625 -0.25 2.796875 -0.34375q-0.078125 -0.625 -0.546875 -0.984375q-0.46875 -0.359375 -1.421875 -0.359375q-0.671875 0 -1.359375 0.234375q-0.671875 0.234375 -1.46875 0.625l-0.96875 -1.796875q0.953125 -0.53125 2.046875 -0.890625q1.09375 -0.359375 2.28125 -0.359375q1.953125 0 3.0625 1.03125q1.125 1.03125 1.125 3.15625l0 5.296875l-2.234375 0l-0.21875 -1.046875l-0.0625 0q-0.71875 0.546875 -1.5625 0.90625q-0.828125 0.359375 -1.734375 0.359375zm0.890625 -2.125q0.609375 0 1.140625 -0.25q0.546875 -0.25 1.03125 -0.625l0 -1.53125q-1.015625 0.0625 -1.6875 0.1875q-0.671875 0.125 -1.078125 0.328125q-0.390625 0.203125 -0.546875 0.46875q-0.15625 0.25 -0.15625 0.546875q0 0.453125 0.34375 0.671875q0.34375 0.203125 0.953125 0.203125zm12.537506 2.125q-1.109375 0 -2.046875 -0.3125q-0.921875 -0.328125 -1.625 -0.9375q-0.703125 -0.625 -1.09375 -1.53125q-0.390625 -0.90625 -0.390625 -2.0625q0 -1.15625 0.4375 -2.0625q0.4375 -0.90625 1.171875 -1.515625q0.734375 -0.625 1.703125 -0.953125q0.984375 -0.328125 2.046875 -0.328125q1.09375 0 1.984375 0.359375q0.890625 0.359375 1.484375 0.890625l-1.265625 1.703125q-1.03125 -0.71875 -2.0625 -0.71875q-1.1875 0 -1.9375 0.703125q-0.75 0.703125 -0.75 1.921875q0 1.203125 0.71875 1.921875q0.71875 0.703125 1.875 0.703125q0.734375 0 1.328125 -0.25q0.609375 -0.265625 1.125 -0.625l1.09375 1.734375q-0.84375 0.71875 -1.859375 1.046875q-1.0 0.3125 -1.9375 0.3125zm10.943756 0q-1.078125 0 -2.03125 -0.3125q-0.9375 -0.328125 -1.625 -0.9375q-0.6875 -0.625 -1.078125 -1.53125q-0.390625 -0.90625 -0.390625 -2.0625q0 -1.140625 0.390625 -2.046875q0.40625 -0.90625 1.078125 -1.53125q0.671875 -0.625 1.53125 -0.953125q0.875 -0.328125 1.8125 -0.328125q1.0625 0 1.875 0.34375q0.828125 0.328125 1.375 0.9375q0.546875 0.59375 0.828125 1.40625q0.28125 0.8125 0.28125 1.765625q0 0.359375 -0.046875 0.71875q-0.046875 0.34375 -0.078125 0.5l-6.3125 0q0.203125 1.015625 0.90625 1.484375q0.71875 0.46875 1.859375 0.46875q0.625 0 1.1875 -0.171875q0.578125 -0.171875 1.203125 -0.484375l0.90625 1.65625q-0.796875 0.5 -1.765625 0.796875q-0.96875 0.28125 -1.90625 0.28125zm-0.21875 -7.609375q-0.828125 0 -1.375 0.4375q-0.546875 0.421875 -0.75 1.296875l3.953125 0q-0.203125 -1.734375 -1.828125 -1.734375zm12.568756 10.734375q-1.828125 -1.625 -2.890625 -3.75q-1.046875 -2.125 -1.046875 -4.78125q0 -2.640625 1.046875 -4.765625q1.0625 -2.140625 2.890625 -3.765625l1.53125 1.21875q-1.65625 1.625 -2.421875 3.375q-0.75 1.734375 -0.75 3.9375q0 1.109375 0.1875 2.09375q0.1875 0.96875 0.5625 1.875q0.390625 0.890625 0.984375 1.71875q0.59375 0.828125 1.4375 1.625l-1.53125 1.21875zm7.615631 -0.515625l0 -16.03125l5.515625 0l0 1.453125l-3.421875 0l0 13.125l3.421875 0l0 1.453125l-5.515625 0zm12.975006 -2.609375q-1.25 0 -2.4375 -0.40625q-1.1875 -0.40625 -2.09375 -1.0l1.1875 -1.71875q0.84375 0.53125 1.78125 0.8125q0.9375 0.28125 1.9375 0.28125q0.765625 0 1.125 -0.21875q0.359375 -0.21875 0.359375 -0.5625q0 -0.1875 -0.109375 -0.328125q-0.109375 -0.15625 -0.359375 -0.28125q-0.25 -0.125 -0.703125 -0.234375q-0.4375 -0.109375 -1.109375 -0.25q-1.890625 -0.421875 -2.71875 -1.109375q-0.8125 -0.703125 -0.8125 -1.78125q0 -0.640625 0.296875 -1.171875q0.3125 -0.546875 0.859375 -0.921875q0.546875 -0.375 1.328125 -0.59375q0.78125 -0.21875 1.78125 -0.21875q1.25 0 2.265625 0.40625q1.015625 0.40625 1.734375 0.875l-1.234375 1.640625q-0.703125 -0.4375 -1.46875 -0.65625q-0.765625 -0.21875 -1.546875 -0.21875q-0.65625 0 -0.96875 0.203125q-0.3125 0.203125 -0.3125 0.515625q0 0.390625 0.484375 0.5625q0.484375 0.171875 1.65625 0.421875q1.0625 0.25 1.765625 0.53125q0.71875 0.28125 1.125 0.640625q0.40625 0.34375 0.578125 0.796875q0.171875 0.4375 0.171875 1.0q0 0.640625 -0.296875 1.1875q-0.296875 0.53125 -0.875 0.9375q-0.5625 0.390625 -1.421875 0.625q-0.84375 0.234375 -1.96875 0.234375zm13.053131 0q-1.765625 0 -2.65625 -1.03125q-0.875 -1.03125 -0.875 -2.8125l0 -7.28125l-2.90625 0l0 -2.171875l5.640625 0l0 9.578125q0 0.421875 0.125 0.71875q0.125 0.28125 0.328125 0.46875q0.21875 0.171875 0.484375 0.25q0.28125 0.0625 0.578125 0.0625q0.3125 0 0.65625 -0.0625q0.359375 -0.0625 0.78125 -0.234375l0.625 2.015625q-0.375 0.109375 -0.703125 0.203125q-0.3125 0.09375 -0.640625 0.15625q-0.3125 0.078125 -0.671875 0.109375q-0.34375 0.03125 -0.765625 0.03125zm9.412506 0q-0.90625 0 -1.765625 -0.3125q-0.84375 -0.328125 -1.515625 -0.9375q-0.65625 -0.625 -1.046875 -1.53125q-0.390625 -0.90625 -0.390625 -2.0625q0 -1.15625 0.390625 -2.0625q0.390625 -0.90625 1.046875 -1.515625q0.671875 -0.625 1.515625 -0.953125q0.859375 -0.328125 1.765625 -0.328125q0.921875 0 1.765625 0.328125q0.84375 0.328125 1.5 0.953125q0.671875 0.609375 1.0625 1.515625q0.390625 0.90625 0.390625 2.0625q0 1.15625 -0.390625 2.0625q-0.390625 0.90625 -1.0625 1.53125q-0.65625 0.609375 -1.5 0.9375q-0.84375 0.3125 -1.765625 0.3125zm0 -2.21875q0.953125 0 1.421875 -0.703125q0.484375 -0.71875 0.484375 -1.921875q0 -1.21875 -0.484375 -1.921875q-0.46875 -0.703125 -1.421875 -0.703125q-0.953125 0 -1.4375 0.703125q-0.46875 0.703125 -0.46875 1.921875q0 1.203125 0.46875 1.921875q0.484375 0.703125 1.4375 0.703125zm7.178131 2.0l-1.5 -9.25l2.640625 0l0.578125 4.28125q0.09375 0.703125 0.140625 1.375q0.0625 0.671875 0.15625 1.375l0.0625 0q0.09375 -0.703125 0.1875 -1.390625q0.09375 -0.703125 0.234375 -1.359375l0.59375 -3.046875l1.984375 0l0.59375 3.046875q0.15625 0.703125 0.265625 1.375q0.109375 0.671875 0.203125 1.375l0.078125 0q0.09375 -0.703125 0.140625 -1.375q0.046875 -0.671875 0.125 -1.375l0.515625 -4.28125l2.546875 0l-1.421875 9.25l-3.234375 0l-0.5 -3.0q-0.09375 -0.59375 -0.171875 -1.265625q-0.0625 -0.671875 -0.15625 -1.484375l-0.078125 0q-0.0625 0.59375 -0.140625 1.234375q-0.0625 0.640625 -0.171875 1.515625l-0.5 3.0l-3.171875 0zm10.803131 -2.140625l1.203125 -1.875q0.890625 0.546875 1.6875 0.859375q0.796875 0.296875 1.6875 0.296875q0.671875 0 1.015625 -0.21875q0.359375 -0.21875 0.359375 -0.609375q0 -0.390625 -0.40625 -0.65625q-0.390625 -0.265625 -1.0 -0.5q-0.609375 -0.25 -1.3125 -0.5q-0.703125 -0.265625 -1.3125 -0.65625q-0.609375 -0.40625 -1.015625 -0.984375q-0.390625 -0.578125 -0.390625 -1.421875q0 -1.21875 0.8125 -2.015625q0.828125 -0.8125 2.234375 -1.03125l0 -2.453125l1.828125 0l0 2.4375q0.984375 0.125 1.703125 0.53125q0.71875 0.390625 1.296875 1.0l-1.375 1.5625q-0.640625 -0.46875 -1.234375 -0.703125q-0.59375 -0.234375 -1.359375 -0.234375q-1.28125 0 -1.28125 0.859375q0 0.34375 0.390625 0.5625q0.40625 0.21875 1.015625 0.453125q0.609375 0.21875 1.3125 0.484375q0.703125 0.25 1.296875 0.65625q0.609375 0.40625 1.0 0.984375q0.40625 0.578125 0.40625 1.40625q0 1.1875 -0.796875 2.0625q-0.796875 0.859375 -2.375 1.109375l0 2.78125l-1.828125 0l0 -2.71875q-0.90625 -0.09375 -1.875 -0.46875q-0.96875 -0.390625 -1.6875 -1.0zm14.084381 6.1875l-0.6875 -1.609375q1.25 -0.421875 1.859375 -1.109375q0.609375 -0.671875 0.578125 -1.53125q-0.078125 0.015625 -0.21875 0.015625q-0.390625 0 -0.75 -0.109375q-0.359375 -0.125 -0.640625 -0.375q-0.28125 -0.25 -0.453125 -0.59375q-0.171875 -0.359375 -0.171875 -0.828125q0 -0.875 0.609375 -1.390625q0.609375 -0.53125 1.484375 -0.53125q1.15625 0 1.734375 0.859375q0.578125 0.84375 0.578125 2.359375q0 1.78125 -0.984375 3.015625q-0.984375 1.234375 -2.9375 1.828125zm11.084381 -4.046875l0 -7.109375l-2.4375 0l0 -2.03125l2.4375 -0.109375l0 -0.25q0 -0.796875 0.234375 -1.484375q0.25 -0.6875 0.75 -1.203125q0.515625 -0.515625 1.296875 -0.8125q0.78125 -0.296875 1.859375 -0.296875q0.8125 0 1.5 0.15625q0.703125 0.140625 1.296875 0.34375l-0.515625 2.015625q-0.90625 -0.359375 -1.9375 -0.359375q-0.890625 0 -1.3125 0.390625q-0.421875 0.390625 -0.421875 1.234375l0 0.265625l3.1875 0l0 2.140625l-3.1875 0l0 7.109375l-2.75 0zm11.396881 0.21875q-0.703125 0 -1.265625 -0.21875q-0.5625 -0.203125 -0.953125 -0.578125q-0.390625 -0.390625 -0.609375 -0.890625q-0.203125 -0.515625 -0.203125 -1.109375q0 -0.78125 0.328125 -1.359375q0.34375 -0.59375 1.078125 -1.0q0.734375 -0.421875 1.890625 -0.671875q1.15625 -0.25 2.796875 -0.34375q-0.078125 -0.625 -0.546875 -0.984375q-0.46875 -0.359375 -1.421875 -0.359375q-0.671875 0 -1.359375 0.234375q-0.671875 0.234375 -1.46875 0.625l-0.96875 -1.796875q0.953125 -0.53125 2.046875 -0.890625q1.09375 -0.359375 2.28125 -0.359375q1.953125 0 3.0625 1.03125q1.125 1.03125 1.125 3.15625l0 5.296875l-2.234375 0l-0.21875 -1.046875l-0.0625 0q-0.71875 0.546875 -1.5625 0.90625q-0.828125 0.359375 -1.734375 0.359375zm0.890625 -2.125q0.609375 0 1.140625 -0.25q0.546875 -0.25 1.03125 -0.625l0 -1.53125q-1.015625 0.0625 -1.6875 0.1875q-0.671875 0.125 -1.078125 0.328125q-0.390625 0.203125 -0.546875 0.46875q-0.15625 0.25 -0.15625 0.546875q0 0.453125 0.34375 0.671875q0.34375 0.203125 0.953125 0.203125zm11.646881 2.125q-1.25 0 -2.4375 -0.40625q-1.1875 -0.40625 -2.09375 -1.0l1.1875 -1.71875q0.84375 0.53125 1.78125 0.8125q0.9375 0.28125 1.9375 0.28125q0.765625 0 1.125 -0.21875q0.359375 -0.21875 0.359375 -0.5625q0 -0.1875 -0.109375 -0.328125q-0.109375 -0.15625 -0.359375 -0.28125q-0.25 -0.125 -0.703125 -0.234375q-0.4375 -0.109375 -1.109375 -0.25q-1.890625 -0.421875 -2.71875 -1.109375q-0.8125 -0.703125 -0.8125 -1.78125q0 -0.640625 0.296875 -1.171875q0.3125 -0.546875 0.859375 -0.921875q0.546875 -0.375 1.328125 -0.59375q0.78125 -0.21875 1.78125 -0.21875q1.25 0 2.265625 0.40625q1.015625 0.40625 1.734375 0.875l-1.234375 1.640625q-0.703125 -0.4375 -1.46875 -0.65625q-0.765625 -0.21875 -1.546875 -0.21875q-0.65625 0 -0.96875 0.203125q-0.3125 0.203125 -0.3125 0.515625q0 0.390625 0.484375 0.5625q0.484375 0.171875 1.65625 0.421875q1.0625 0.25 1.765625 0.53125q0.71875 0.28125 1.125 0.640625q0.40625 0.34375 0.578125 0.796875q0.171875 0.4375 0.171875 1.0q0 0.640625 -0.296875 1.1875q-0.296875 0.53125 -0.875 0.9375q-0.5625 0.390625 -1.421875 0.625q-0.84375 0.234375 -1.96875 0.234375zm12.912506 0q-1.09375 0 -1.859375 -0.296875q-0.765625 -0.296875 -1.25 -0.828125q-0.46875 -0.53125 -0.671875 -1.265625q-0.203125 -0.75 -0.203125 -1.671875l0 -3.265625l-2.328125 0l0 -2.03125l2.453125 -0.109375l0.359375 -2.84375l2.25 0l0 2.84375l3.921875 0l0 2.140625l-3.921875 0l0 3.25q0 1.0625 0.46875 1.5q0.46875 0.4375 1.5 0.4375q0.515625 0 0.953125 -0.09375q0.4375 -0.09375 0.875 -0.234375l0.484375 1.96875q-0.625 0.1875 -1.359375 0.34375q-0.734375 0.15625 -1.671875 0.15625zm5.146881 -2.359375l1.203125 -1.875q0.890625 0.546875 1.6875 0.859375q0.796875 0.296875 1.6875 0.296875q0.671875 0 1.015625 -0.21875q0.359375 -0.21875 0.359375 -0.609375q0 -0.390625 -0.40625 -0.65625q-0.390625 -0.265625 -1.0 -0.5q-0.609375 -0.25 -1.3125 -0.5q-0.703125 -0.265625 -1.3125 -0.65625q-0.609375 -0.40625 -1.015625 -0.984375q-0.390625 -0.578125 -0.390625 -1.421875q0 -1.21875 0.8125 -2.015625q0.828125 -0.8125 2.234375 -1.03125l0 -2.453125l1.828125 0l0 2.4375q0.984375 0.125 1.703125 0.53125q0.71875 0.390625 1.296875 1.0l-1.375 1.5625q-0.640625 -0.46875 -1.234375 -0.703125q-0.59375 -0.234375 -1.359375 -0.234375q-1.28125 0 -1.28125 0.859375q0 0.34375 0.390625 0.5625q0.40625 0.21875 1.015625 0.453125q0.609375 0.21875 1.3125 0.484375q0.703125 0.25 1.296875 0.65625q0.609375 0.40625 1.0 0.984375q0.40625 0.578125 0.40625 1.40625q0 1.1875 -0.796875 2.0625q-0.796875 0.859375 -2.375 1.109375l0 2.78125l-1.828125 0l0 -2.71875q-0.90625 -0.09375 -1.875 -0.46875q-0.96875 -0.390625 -1.6875 -1.0zm11.943756 4.96875l0 -1.453125l3.4375 0l0 -13.125l-3.4375 0l0 -1.453125l5.53125 0l0 16.03125l-5.53125 0zm13.131256 0.515625l-1.53125 -1.21875q0.84375 -0.796875 1.4375 -1.625q0.609375 -0.828125 0.984375 -1.71875q0.390625 -0.90625 0.5625 -1.875q0.1875 -0.984375 0.1875 -2.09375q0 -2.203125 -0.75 -3.9375q-0.75 -1.75 -2.421875 -3.375l1.53125 -1.21875q1.828125 1.625 2.875 3.765625q1.0625 2.125 1.0625 4.765625q0 2.65625 -1.0625 4.78125q-1.046875 2.125 -2.875 3.75z" fill-rule="nonzero"/><path fill="#000000" fill-opacity="0.0" d="m259.7057 113.385826l521.22833 0" fill-rule="evenodd"/><path stroke="#434343" stroke-width="1.0" stroke-linejoin="round" stroke-linecap="butt" d="m259.70572 113.385826l515.2284 0" fill-rule="evenodd"/><path fill="#434343" stroke="#434343" stroke-width="1.0" stroke-linecap="butt" d="m774.9341 115.03756l4.538086 -1.6517334l-4.538086 -1.6517334z" fill-rule="evenodd"/><path fill="#6aa84f" d="m372.7162 55.937008l0 0c0 -10.436878 8.460785 -18.897636 18.897644 -18.897636l0 0c5.011963 0 9.818665 1.9909935 13.36264 5.5349884c3.5440063 3.543995 5.5350037 8.350681 5.5350037 13.362648l0 0c0 10.436878 -8.460754 18.89764 -18.897644 18.89764l0 0c-10.436859 0 -18.897644 -8.460762 -18.897644 -18.89764z" fill-rule="evenodd"/><path fill="#000000" fill-opacity="0.0" d="m1.1968504 37.039284l239.84251 0l0 37.795273l-239.84251 0z" fill-rule="evenodd"/><path fill="#434343" d="m170.65808 61.07567q-1.34375 0 -2.484375 -0.40625q-1.125 -0.421875 -1.96875 -1.0l0.703125 -1.015625q0.78125 0.5625 1.71875 0.90625q0.953125 0.328125 2.21875 0.328125q1.15625 0 1.71875 -0.421875q0.578125 -0.421875 0.578125 -1.0q0 -0.265625 -0.09375 -0.484375q-0.09375 -0.21875 -0.40625 -0.421875q-0.296875 -0.203125 -0.859375 -0.390625q-0.5625 -0.1875 -1.484375 -0.375q-1.765625 -0.375 -2.65625 -1.0q-0.875 -0.625 -0.875 -1.65625q0 -0.53125 0.234375 -1.0q0.25 -0.484375 0.71875 -0.828125q0.484375 -0.359375 1.171875 -0.546875q0.703125 -0.203125 1.640625 -0.203125q1.046875 0 2.015625 0.359375q0.96875 0.34375 1.640625 0.796875l-0.75 1.0q-0.640625 -0.4375 -1.40625 -0.6875q-0.75 -0.265625 -1.640625 -0.265625q-1.15625 0 -1.625 0.390625q-0.453125 0.390625 -0.453125 0.90625q0 0.609375 0.609375 0.921875q0.625 0.296875 2.015625 0.59375q1.140625 0.25 1.859375 0.515625q0.734375 0.265625 1.15625 0.609375q0.421875 0.328125 0.578125 0.75q0.15625 0.40625 0.15625 0.921875q0 0.5625 -0.265625 1.046875q-0.25 0.484375 -0.765625 0.859375q-0.515625 0.375 -1.28125 0.578125q-0.75 0.21875 -1.71875 0.21875zm13.006256 0q-1.453125 0 -2.21875 -0.8125q-0.765625 -0.828125 -0.765625 -2.453125l0 -8.984375l-3.234375 0l0 -1.25l4.765625 0l0 10.359375q0 1.0 0.484375 1.4375q0.484375 0.4375 1.296875 0.4375q0.8125 0 1.703125 -0.40625l0.390625 1.140625q-0.625 0.25 -1.15625 0.390625q-0.515625 0.140625 -1.265625 0.140625zm9.193756 0q-0.890625 0 -1.703125 -0.3125q-0.8125 -0.3125 -1.4375 -0.921875q-0.609375 -0.609375 -0.96875 -1.484375q-0.359375 -0.890625 -0.359375 -2.015625q0 -1.140625 0.359375 -2.015625q0.359375 -0.890625 0.96875 -1.5q0.625 -0.625 1.4375 -0.9375q0.8125 -0.328125 1.703125 -0.328125q0.90625 0 1.703125 0.328125q0.8125 0.3125 1.421875 0.9375q0.625 0.609375 0.984375 1.5q0.375 0.875 0.375 2.015625q0 1.125 -0.375 2.015625q-0.359375 0.875 -0.984375 1.484375q-0.609375 0.609375 -1.421875 0.921875q-0.796875 0.3125 -1.703125 0.3125zm0 -1.265625q0.65625 0 1.1875 -0.25q0.53125 -0.25 0.90625 -0.703125q0.390625 -0.46875 0.59375 -1.09375q0.203125 -0.640625 0.203125 -1.421875q0 -0.78125 -0.203125 -1.421875q-0.203125 -0.640625 -0.59375 -1.109375q-0.375 -0.46875 -0.90625 -0.71875q-0.53125 -0.25 -1.1875 -0.25q-0.65625 0 -1.1875 0.25q-0.53125 0.25 -0.921875 0.71875q-0.375 0.46875 -0.578125 1.109375q-0.203125 0.640625 -0.203125 1.421875q0 0.78125 0.203125 1.421875q0.203125 0.625 0.578125 1.09375q0.390625 0.453125 0.921875 0.703125q0.53125 0.25 1.1875 0.25zm7.725006 1.046875l-1.96875 -9.0625l1.515625 0l1.09375 5.25q0.125 0.65625 0.21875 1.265625q0.09375 0.59375 0.1875 1.234375l0.078125 0q0.09375 -0.640625 0.234375 -1.25q0.140625 -0.609375 0.28125 -1.25l1.125 -4.6875l1.53125 0l1.078125 4.6875q0.15625 0.65625 0.3125 1.265625q0.15625 0.59375 0.25 1.234375l0.078125 0q0.109375 -0.640625 0.1875 -1.234375q0.078125 -0.609375 0.21875 -1.265625l1.078125 -5.25l1.421875 0l-1.9375 9.0625l-1.984375 0l-1.046875 -4.328125q-0.21875 -0.953125 -0.4375 -2.6875l-0.078125 0q-0.234375 1.734375 -0.453125 2.6875l-1.0 4.328125l-1.984375 0zm10.646881 -2.109375l0.734375 -1.0625q0.703125 0.5 1.546875 0.890625q0.859375 0.375 1.921875 0.375q1.125 0 1.6875 -0.453125q0.578125 -0.453125 0.578125 -1.171875q0 -0.578125 -0.453125 -0.953125q-0.4375 -0.390625 -1.09375 -0.6875q-0.640625 -0.296875 -1.421875 -0.578125q-0.765625 -0.28125 -1.421875 -0.65625q-0.65625 -0.390625 -1.09375 -0.921875q-0.4375 -0.53125 -0.4375 -1.34375q0 -1.171875 0.828125 -1.921875q0.828125 -0.75 2.203125 -0.90625l0 -2.453125l1.109375 0l0 2.4375q1.03125 0.09375 1.71875 0.484375q0.6875 0.390625 1.25 0.9375l-0.828125 0.890625q-0.3125 -0.234375 -0.609375 -0.421875q-0.28125 -0.203125 -0.59375 -0.34375q-0.3125 -0.140625 -0.6875 -0.21875q-0.375 -0.078125 -0.84375 -0.078125q-0.953125 0 -1.5 0.421875q-0.546875 0.421875 -0.546875 1.125q0 0.53125 0.4375 0.875q0.4375 0.328125 1.09375 0.609375q0.671875 0.28125 1.421875 0.5625q0.765625 0.265625 1.421875 0.671875q0.671875 0.390625 1.109375 0.953125q0.4375 0.546875 0.4375 1.40625q0 0.59375 -0.234375 1.109375q-0.234375 0.515625 -0.671875 0.90625q-0.4375 0.375 -1.046875 0.625q-0.59375 0.25 -1.328125 0.328125l0 2.71875l-1.109375 0l0 -2.703125q-1.046875 -0.09375 -1.984375 -0.5q-0.9375 -0.40625 -1.59375 -0.953125zm15.209381 -4.671875q-0.625 0 -1.078125 -0.421875q-0.4375 -0.4375 -0.4375 -1.140625q0 -0.703125 0.4375 -1.140625q0.453125 -0.4375 1.078125 -0.4375q0.640625 0 1.078125 0.4375q0.4375 0.4375 0.4375 1.140625q0 0.703125 -0.4375 1.140625q-0.4375 0.421875 -1.078125 0.421875zm0 7.0q-0.625 0 -1.078125 -0.421875q-0.4375 -0.4375 -0.4375 -1.140625q0 -0.703125 0.4375 -1.140625q0.453125 -0.4375 1.078125 -0.4375q0.640625 0 1.078125 0.4375q0.4375 0.4375 0.4375 1.140625q0 0.703125 -0.4375 1.140625q-0.4375 0.421875 -1.078125 0.421875z" fill-rule="nonzero"/><path fill="#ffcb21" d="m292.84888 113.26074l0 0c0 -10.436882 8.460754 -18.897636 18.897644 -18.897636l0 0c5.011963 0 9.818665 1.9909897 13.36264 5.5349884c3.5440063 3.543991 5.5350037 8.3506775 5.5350037 13.362648l0 0c0 10.436874 -8.460785 18.897629 -18.897644 18.897629l0 0c-10.43689 0 -18.897644 -8.460754 -18.897644 -18.897629z" fill-rule="evenodd"/><path fill="#ffcb21" d="m292.84888 207.81108l0 0c0 -10.43689 8.460754 -18.897644 18.897644 -18.897644l0 0c5.011963 0 9.818665 1.9909973 13.36264 5.5349884c3.5440063 3.543991 5.5350037 8.350693 5.5350037 13.362656l0 0c0 10.436874 -8.460785 18.897629 -18.897644 18.897629l0 0c-10.43689 0 -18.897644 -8.460754 -18.897644 -18.897629z" fill-rule="evenodd"/><path fill="#000000" fill-opacity="0.0" d="m311.74652 132.15837l0 56.755905" fill-rule="evenodd"/><path stroke="#000000" stroke-width="1.0" stroke-linejoin="round" stroke-linecap="butt" stroke-dasharray="4.0,3.0" d="m311.74652 132.15839l0 50.755905" fill-rule="evenodd"/><path fill="#000000" stroke="#000000" stroke-width="1.0" stroke-linecap="butt" d="m310.0948 182.91429l1.6517334 4.538101l1.6517334 -4.538101z" fill-rule="evenodd"/><path fill="#6aa84f" d="m528.081 55.937008l0 0c0 -10.436878 8.460754 -18.897636 18.897644 -18.897636l0 0c5.011963 0 9.818665 1.9909935 13.362671 5.5349884c3.5440063 3.543995 5.534973 8.350681 5.534973 13.362648l0 0c0 10.436878 -8.460754 18.89764 -18.897644 18.89764l0 0c-10.43689 0 -18.897644 -8.460762 -18.897644 -18.89764z" fill-rule="evenodd"/><path fill="#ffcb21" d="m444.7162 113.26074l0 0c0 -10.436882 8.460785 -18.897636 18.897644 -18.897636l0 0c5.011963 0 9.818665 1.9909897 13.36264 5.5349884c3.5440063 3.543991 5.5350037 8.3506775 5.5350037 13.362648l0 0c0 10.436874 -8.460754 18.897629 -18.897644 18.897629l0 0c-10.436859 0 -18.897644 -8.460754 -18.897644 -18.897629z" fill-rule="evenodd"/><path fill="#ffcb21" d="m600.081 113.26074l0 0c0 -10.436882 8.460754 -18.897636 18.897644 -18.897636l0 0c5.011963 0 9.818665 1.9909897 13.362671 5.5349884c3.5440063 3.543991 5.534973 8.3506775 5.534973 13.362648l0 0c0 10.436874 -8.460754 18.897629 -18.897644 18.897629l0 0c-10.43689 0 -18.897644 -8.460754 -18.897644 -18.897629z" fill-rule="evenodd"/><path fill="#ffcb21" d="m444.7162 207.81108l0 0c0 -10.43689 8.460785 -18.897644 18.897644 -18.897644l0 0c5.011963 0 9.818665 1.9909973 13.36264 5.5349884c3.5440063 3.543991 5.5350037 8.350693 5.5350037 13.362656l0 0c0 10.436874 -8.460754 18.897629 -18.897644 18.897629l0 0c-10.436859 0 -18.897644 -8.460754 -18.897644 -18.897629z" fill-rule="evenodd"/><path fill="#ffcb21" d="m600.081 207.81108l0 0c0 -10.43689 8.460754 -18.897644 18.897644 -18.897644l0 0c5.011963 0 9.818665 1.9909973 13.362671 5.5349884c3.5440063 3.543991 5.534973 8.350693 5.534973 13.362656l0 0c0 10.436874 -8.460754 18.897629 -18.897644 18.897629l0 0c-10.43689 0 -18.897644 -8.460754 -18.897644 -18.897629z" fill-rule="evenodd"/><path fill="#000000" fill-opacity="0.0" d="m463.61383 132.15837l0 56.755905" fill-rule="evenodd"/><path stroke="#000000" stroke-width="1.0" stroke-linejoin="round" stroke-linecap="butt" stroke-dasharray="4.0,3.0" d="m463.61383 132.15839l0 50.755905" fill-rule="evenodd"/><path fill="#000000" stroke="#000000" stroke-width="1.0" stroke-linecap="butt" d="m461.96213 182.91429l1.6517029 4.538101l1.6517334 -4.538101z" fill-rule="evenodd"/><path fill="#000000" fill-opacity="0.0" d="m618.97864 132.15837l0 56.755905" fill-rule="evenodd"/><path stroke="#000000" stroke-width="1.0" stroke-linejoin="round" stroke-linecap="butt" stroke-dasharray="4.0,3.0" d="m618.97864 132.15839l0 50.755905" fill-rule="evenodd"/><path fill="#000000" stroke="#000000" stroke-width="1.0" stroke-linecap="butt" d="m617.3269 182.91429l1.6517334 4.538101l1.6517334 -4.538101z" fill-rule="evenodd"/><path fill="#000000" fill-opacity="0.0" d="m391.61383 74.85325l0 113.35433" fill-rule="evenodd"/><path stroke="#cccccc" stroke-width="1.0" stroke-linejoin="round" stroke-linecap="butt" stroke-dasharray="4.0,3.0" d="m391.61383 74.85325l0 107.35433" fill-rule="evenodd"/><path fill="#cccccc" stroke="#cccccc" stroke-width="1.0" stroke-linecap="butt" d="m389.96213 182.20758l1.6517029 4.538086l1.6517334 -4.538086z" fill-rule="evenodd"/><path fill="#000000" fill-opacity="0.0" d="m546.97864 74.85325l0 113.35433" fill-rule="evenodd"/><path stroke="#cccccc" stroke-width="1.0" stroke-linejoin="round" stroke-linecap="butt" stroke-dasharray="4.0,3.0" d="m546.9787 74.85325l0 107.35433" fill-rule="evenodd"/><path fill="#cccccc" stroke="#cccccc" stroke-width="1.0" stroke-linecap="butt" d="m545.32697 182.20758l1.6517334 4.538086l1.6517334 -4.538086z" fill-rule="evenodd"/><path fill="#000000" fill-opacity="0.0" d="m1.1968504 94.362114l239.84251 0l0 37.79528l-239.84251 0z" fill-rule="evenodd"/><path fill="#434343" d="m169.39246 118.179756l0 -7.8125l-2.59375 0l0 -1.15625l2.59375 -0.09375l0 -0.765625q0 -1.671875 0.875 -2.671875q0.890625 -1.0 2.78125 -1.0q1.34375 0 2.609375 0.515625l-0.359375 1.15625q-0.546875 -0.265625 -1.03125 -0.34375q-0.46875 -0.078125 -1.0625 -0.078125q-1.234375 0 -1.765625 0.625q-0.53125 0.625 -0.53125 1.734375l0 0.828125l3.796875 0l0 1.25l-3.796875 0l0 7.8125l-1.515625 0zm11.271881 0.21875q-0.640625 0 -1.203125 -0.171875q-0.5625 -0.171875 -0.984375 -0.5q-0.40625 -0.328125 -0.65625 -0.796875q-0.234375 -0.484375 -0.234375 -1.09375q0 -0.765625 0.359375 -1.328125q0.359375 -0.578125 1.15625 -0.984375q0.796875 -0.421875 2.046875 -0.671875q1.25 -0.265625 3.0 -0.421875q-0.015625 -0.46875 -0.15625 -0.875q-0.125 -0.40625 -0.40625 -0.71875q-0.28125 -0.3125 -0.734375 -0.484375q-0.453125 -0.1875 -1.109375 -0.1875q-0.890625 0 -1.71875 0.34375q-0.8125 0.34375 -1.453125 0.734375l-0.59375 -1.046875q0.328125 -0.21875 0.78125 -0.453125q0.46875 -0.234375 0.96875 -0.421875q0.515625 -0.1875 1.09375 -0.3125q0.578125 -0.125 1.1875 -0.125q1.859375 0 2.765625 1.03125q0.90625 1.015625 0.90625 2.703125l0 5.5625l-1.25 0l-0.125 -1.234375l-0.0625 0q-0.765625 0.59375 -1.6875 1.03125q-0.921875 0.421875 -1.890625 0.421875zm0.40625 -1.21875q0.78125 0 1.53125 -0.34375q0.765625 -0.359375 1.546875 -1.0l0 -2.390625q-1.453125 0.109375 -2.4375 0.3125q-0.96875 0.203125 -1.5625 0.5q-0.59375 0.28125 -0.84375 0.65625q-0.234375 0.359375 -0.234375 0.796875q0 0.390625 0.171875 0.671875q0.171875 0.265625 0.4375 0.453125q0.265625 0.171875 0.625 0.265625q0.375 0.078125 0.765625 0.078125zm11.975006 1.21875q-1.34375 0 -2.484375 -0.40625q-1.125 -0.421875 -1.96875 -1.0l0.703125 -1.015625q0.78125 0.5625 1.71875 0.90625q0.953125 0.328125 2.21875 0.328125q1.15625 0 1.71875 -0.421875q0.578125 -0.421875 0.578125 -1.0q0 -0.265625 -0.09375 -0.484375q-0.09375 -0.21875 -0.40625 -0.421875q-0.296875 -0.203125 -0.859375 -0.390625q-0.5625 -0.1875 -1.484375 -0.375q-1.765625 -0.375 -2.65625 -1.0q-0.875 -0.625 -0.875 -1.65625q0 -0.53125 0.234375 -1.0q0.25 -0.484375 0.71875 -0.828125q0.484375 -0.359375 1.171875 -0.546875q0.703125 -0.203125 1.640625 -0.203125q1.046875 0 2.015625 0.359375q0.96875 0.34375 1.640625 0.796875l-0.75 1.0q-0.640625 -0.4375 -1.40625 -0.6875q-0.75 -0.265625 -1.640625 -0.265625q-1.15625 0 -1.625 0.390625q-0.453125 0.390625 -0.453125 0.90625q0 0.609375 0.609375 0.921875q0.625 0.296875 2.015625 0.59375q1.140625 0.25 1.859375 0.515625q0.734375 0.265625 1.15625 0.609375q0.421875 0.328125 0.578125 0.75q0.15625 0.40625 0.15625 0.921875q0 0.5625 -0.265625 1.046875q-0.25 0.484375 -0.765625 0.859375q-0.515625 0.375 -1.28125 0.578125q-0.75 0.21875 -1.71875 0.21875zm12.756256 0q-0.984375 0 -1.65625 -0.265625q-0.671875 -0.265625 -1.078125 -0.765625q-0.40625 -0.5 -0.59375 -1.1875q-0.171875 -0.6875 -0.171875 -1.53125l0 -4.28125l-2.5625 0l0 -1.15625l2.625 -0.09375l0.203125 -2.921875l1.265625 0l0 2.921875l4.453125 0l0 1.25l-4.453125 0l0 4.3125q0 0.609375 0.109375 1.0625q0.109375 0.453125 0.375 0.78125q0.265625 0.3125 0.703125 0.46875q0.453125 0.15625 1.109375 0.15625q0.65625 0 1.171875 -0.109375q0.515625 -0.109375 1.0 -0.296875l0.34375 1.125q-0.609375 0.21875 -1.296875 0.375q-0.6875 0.15625 -1.546875 0.15625zm5.428131 -2.328125l0.734375 -1.0625q0.703125 0.5 1.546875 0.890625q0.859375 0.375 1.921875 0.375q1.125 0 1.6875 -0.453125q0.578125 -0.453125 0.578125 -1.171875q0 -0.578125 -0.453125 -0.953125q-0.4375 -0.390625 -1.09375 -0.6875q-0.640625 -0.296875 -1.421875 -0.578125q-0.765625 -0.28125 -1.421875 -0.65625q-0.65625 -0.390625 -1.09375 -0.921875q-0.4375 -0.53125 -0.4375 -1.34375q0 -1.171875 0.828125 -1.921875q0.828125 -0.75 2.203125 -0.90625l0 -2.453125l1.109375 0l0 2.4375q1.03125 0.09375 1.71875 0.484375q0.6875 0.390625 1.25 0.9375l-0.828125 0.890625q-0.3125 -0.234375 -0.609375 -0.421875q-0.28125 -0.203125 -0.59375 -0.34375q-0.3125 -0.140625 -0.6875 -0.21875q-0.375 -0.078125 -0.84375 -0.078125q-0.953125 0 -1.5 0.421875q-0.546875 0.421875 -0.546875 1.125q0 0.53125 0.4375 0.875q0.4375 0.328125 1.09375 0.609375q0.671875 0.28125 1.421875 0.5625q0.765625 0.265625 1.421875 0.671875q0.671875 0.390625 1.109375 0.953125q0.4375 0.546875 0.4375 1.40625q0 0.59375 -0.234375 1.109375q-0.234375 0.515625 -0.671875 0.90625q-0.4375 0.375 -1.046875 0.625q-0.59375 0.25 -1.328125 0.328125l0 2.71875l-1.109375 0l0 -2.703125q-1.046875 -0.09375 -1.984375 -0.5q-0.9375 -0.40625 -1.59375 -0.953125zm15.209381 -4.671875q-0.625 0 -1.078125 -0.421875q-0.4375 -0.4375 -0.4375 -1.140625q0 -0.703125 0.4375 -1.140625q0.453125 -0.4375 1.078125 -0.4375q0.640625 0 1.078125 0.4375q0.4375 0.4375 0.4375 1.140625q0 0.703125 -0.4375 1.140625q-0.4375 0.421875 -1.078125 0.421875zm0 7.0q-0.625 0 -1.078125 -0.421875q-0.4375 -0.4375 -0.4375 -1.140625q0 -0.703125 0.4375 -1.140625q0.453125 -0.4375 1.078125 -0.4375q0.640625 0 1.078125 0.4375q0.4375 0.4375 0.4375 1.140625q0 0.703125 -0.4375 1.140625q-0.4375 0.421875 -1.078125 0.421875z" fill-rule="nonzero"/><path fill="#cccccc" d="m372.7162 207.93701l0 0c0 -10.436874 8.460785 -18.897644 18.897644 -18.897644l0 0c5.011963 0 9.818665 1.9909973 13.36264 5.5349884c3.5440063 3.543991 5.5350037 8.350693 5.5350037 13.362656l0 0c0 10.436874 -8.460754 18.897629 -18.897644 18.897629l0 0c-10.436859 0 -18.897644 -8.460754 -18.897644 -18.897629z" fill-rule="evenodd"/><path fill="#cccccc" d="m528.081 207.93701l0 0c0 -10.436874 8.460754 -18.897644 18.897644 -18.897644l0 0c5.011963 0 9.818665 1.9909973 13.362671 5.5349884c3.5440063 3.543991 5.534973 8.350693 5.534973 13.362656l0 0c0 10.436874 -8.460754 18.897629 -18.897644 18.897629l0 0c-10.43689 0 -18.897644 -8.460754 -18.897644 -18.897629z" fill-rule="evenodd"/></g></svg>