<svg version="1.1" viewBox="0.0 0.0 151.1811023622047 94.48818897637796" fill="none" stroke="none" stroke-linecap="square" stroke-miterlimit="10" xmlns:xlink="http://www.w3.org/1999/xlink" xmlns="http://www.w3.org/2000/svg"><clipPath id="p.0"><path d="m0 0l151.1811 0l0 94.48819l-151.1811 0l0 -94.48819z" clip-rule="nonzero"/></clipPath><g clip-path="url(#p.0)"><path fill="#000000" fill-opacity="0.0" d="m0 0l151.1811 0l0 94.48819l-151.1811 0z" fill-rule="evenodd"/><path fill="#000000" fill-opacity="0.0" d="m-0.019674804 46.24376l32.377953 0l0 46.33071l-32.377953 0z" fill-rule="evenodd"/><path fill="#000000" fill-opacity="0.0" d="m113.385826 56.598427l37.79528 0l0 37.795273l-37.79528 0z" fill-rule="evenodd"/><path fill="#000000" d="m135.928 79.30919l0 2.046875l-7.6875 0q0.125 -1.15625 0.75 -2.1875q0.625 -1.046875 2.46875 -2.75q1.484375 -1.390625 1.8125 -1.875q0.453125 -0.6875 0.453125 -1.34375q0 -0.734375 -0.390625 -1.125q-0.390625 -0.40625 -1.09375 -0.40625q-0.6875 0 -1.09375 0.421875q-0.40625 0.40625 -0.46875 1.375l-2.1875 -0.21875q0.203125 -1.8125 1.234375 -2.59375q1.03125 -0.796875 2.578125 -0.796875q1.6875 0 2.65625 0.921875q0.96875 0.90625 0.96875 2.265625q0 0.765625 -0.28125 1.46875q-0.265625 0.703125 -0.875 1.46875q-0.390625 0.5 -1.4375 1.453125q-1.03125 0.953125 -1.3125 1.265625q-0.28125 0.3125 -0.453125 0.609375l4.359375 0z" fill-rule="nonzero"/><path fill="#000000" fill-opacity="0.0" d="m18.897638 18.80315l18.897638 0l0 18.897636l-18.897638 0z" fill-rule="evenodd"/><path stroke="#f3f3f3" stroke-width="1.0" stroke-linejoin="round" stroke-linecap="butt" d="m18.897638 18.80315l18.897638 0l0 18.897636l-18.897638 0z" fill-rule="evenodd"/><path fill="#000000" fill-opacity="0.0" d="m18.897638 37.700787l18.897638 0l0 18.89764l-18.897638 0z" fill-rule="evenodd"/><path stroke="#f3f3f3" stroke-width="1.0" stroke-linejoin="round" stroke-linecap="butt" d="m18.897638 37.700787l18.897638 0l0 18.89764l-18.897638 0z" fill-rule="evenodd"/><path fill="#000000" fill-opacity="0.0" d="m0 -0.09448819l18.897638 0l0 18.897638l-18.897638 0z" fill-rule="evenodd"/><path stroke="#f3f3f3" stroke-width="1.0" stroke-linejoin="round" stroke-linecap="butt" d="m0 -0.09448819l18.897638 0l0 18.897638l-18.897638 0z" fill-rule="evenodd"/><path fill="#000000" fill-opacity="0.0" d="m0 18.80315l18.897638 0l0 18.897636l-18.897638 0z" fill-rule="evenodd"/><path stroke="#f3f3f3" stroke-width="1.0" stroke-linejoin="round" stroke-linecap="butt" d="m0 18.80315l18.897638 0l0 18.897636l-18.897638 0z" fill-rule="evenodd"/><path fill="#000000" fill-opacity="0.0" d="m0 37.700787l18.897638 0l0 18.89764l-18.897638 0z" fill-rule="evenodd"/><path stroke="#f3f3f3" stroke-width="1.0" stroke-linejoin="round" stroke-linecap="butt" d="m0 37.700787l18.897638 0l0 18.89764l-18.897638 0z" fill-rule="evenodd"/><path fill="#000000" fill-opacity="0.0" d="m0 56.598427l18.897638 0l0 18.897636l-18.897638 0z" fill-rule="evenodd"/><path stroke="#f3f3f3" stroke-width="1.0" stroke-linejoin="round" stroke-linecap="butt" d="m0 56.598427l18.897638 0l0 18.897636l-18.897638 0z" fill-rule="evenodd"/><path fill="#000000" fill-opacity="0.0" d="m18.897638 -0.09448819l18.897638 0l0 18.897638l-18.897638 0z" fill-rule="evenodd"/><path stroke="#f3f3f3" stroke-width="1.0" stroke-linejoin="round" stroke-linecap="butt" d="m18.897638 -0.09448819l18.897638 0l0 18.897638l-18.897638 0z" fill-rule="evenodd"/><path fill="#000000" fill-opacity="0.0" d="m18.897638 56.598427l18.897638 0l0 18.897636l-18.897638 0z" fill-rule="evenodd"/><path stroke="#f3f3f3" stroke-width="1.0" stroke-linejoin="round" stroke-linecap="butt" d="m18.897638 56.598427l18.897638 0l0 18.897636l-18.897638 0z" fill-rule="evenodd"/><path fill="#000000" fill-opacity="0.0" d="m37.795277 -0.09448819l18.897636 0l0 18.897638l-18.897636 0z" fill-rule="evenodd"/><path stroke="#f3f3f3" stroke-width="1.0" stroke-linejoin="round" stroke-linecap="butt" d="m37.795277 -0.09448819l18.897636 0l0 18.897638l-18.897636 0z" fill-rule="evenodd"/><path fill="#000000" fill-opacity="0.0" d="m37.795277 18.80315l18.897636 0l0 18.897636l-18.897636 0z" fill-rule="evenodd"/><path stroke="#f3f3f3" stroke-width="1.0" stroke-linejoin="round" stroke-linecap="butt" d="m37.795277 18.80315l18.897636 0l0 18.897636l-18.897636 0z" fill-rule="evenodd"/><path fill="#000000" fill-opacity="0.0" d="m37.795277 37.700787l18.897636 0l0 18.89764l-18.897636 0z" fill-rule="evenodd"/><path stroke="#f3f3f3" stroke-width="1.0" stroke-linejoin="round" stroke-linecap="butt" d="m37.795277 37.700787l18.897636 0l0 18.89764l-18.897636 0z" fill-rule="evenodd"/><path fill="#000000" fill-opacity="0.0" d="m37.795277 56.598427l18.897636 0l0 18.897636l-18.897636 0z" fill-rule="evenodd"/><path stroke="#f3f3f3" stroke-width="1.0" stroke-linejoin="round" stroke-linecap="butt" d="m37.795277 56.598427l18.897636 0l0 18.897636l-18.897636 0z" fill-rule="evenodd"/><path fill="#000000" fill-opacity="0.0" d="m56.692913 -0.09448819l18.89764 0l0 18.897638l-18.89764 0z" fill-rule="evenodd"/><path stroke="#f3f3f3" stroke-width="1.0" stroke-linejoin="round" stroke-linecap="butt" d="m56.692913 -0.09448819l18.89764 0l0 18.897638l-18.89764 0z" fill-rule="evenodd"/><path fill="#000000" fill-opacity="0.0" d="m56.692913 18.80315l18.89764 0l0 18.897636l-18.89764 0z" fill-rule="evenodd"/><path stroke="#f3f3f3" stroke-width="1.0" stroke-linejoin="round" stroke-linecap="butt" d="m56.692913 18.80315l18.89764 0l0 18.897636l-18.89764 0z" fill-rule="evenodd"/><path fill="#000000" fill-opacity="0.0" d="m56.692913 37.700787l18.89764 0l0 18.89764l-18.89764 0z" fill-rule="evenodd"/><path stroke="#f3f3f3" stroke-width="1.0" stroke-linejoin="round" stroke-linecap="butt" d="m56.692913 37.700787l18.89764 0l0 18.89764l-18.89764 0z" fill-rule="evenodd"/><path fill="#000000" fill-opacity="0.0" d="m56.692913 56.598427l18.89764 0l0 18.897636l-18.89764 0z" fill-rule="evenodd"/><path stroke="#f3f3f3" stroke-width="1.0" stroke-linejoin="round" stroke-linecap="butt" d="m56.692913 56.598427l18.89764 0l0 18.897636l-18.89764 0z" fill-rule="evenodd"/><path fill="#000000" fill-opacity="0.0" d="m75.59055 -0.09448819l18.897636 0l0 18.897638l-18.897636 0z" fill-rule="evenodd"/><path stroke="#f3f3f3" stroke-width="1.0" stroke-linejoin="round" stroke-linecap="butt" d="m75.59055 -0.09448819l18.897636 0l0 18.897638l-18.897636 0z" fill-rule="evenodd"/><path fill="#000000" fill-opacity="0.0" d="m75.59055 18.80315l18.897636 0l0 18.897636l-18.897636 0z" fill-rule="evenodd"/><path stroke="#f3f3f3" stroke-width="1.0" stroke-linejoin="round" stroke-linecap="butt" d="m75.59055 18.80315l18.897636 0l0 18.897636l-18.897636 0z" fill-rule="evenodd"/><path fill="#000000" fill-opacity="0.0" d="m75.59055 37.700787l18.897636 0l0 18.89764l-18.897636 0z" fill-rule="evenodd"/><path stroke="#f3f3f3" stroke-width="1.0" stroke-linejoin="round" stroke-linecap="butt" d="m75.59055 37.700787l18.897636 0l0 18.89764l-18.897636 0z" fill-rule="evenodd"/><path fill="#000000" fill-opacity="0.0" d="m75.59055 56.598427l18.897636 0l0 18.897636l-18.897636 0z" fill-rule="evenodd"/><path stroke="#f3f3f3" stroke-width="1.0" stroke-linejoin="round" stroke-linecap="butt" d="m75.59055 56.598427l18.897636 0l0 18.897636l-18.897636 0z" fill-rule="evenodd"/><path fill="#000000" fill-opacity="0.0" d="m94.48819 -0.09448819l18.897636 0l0 18.897638l-18.897636 0z" fill-rule="evenodd"/><path stroke="#f3f3f3" stroke-width="1.0" stroke-linejoin="round" stroke-linecap="butt" d="m94.48819 -0.09448819l18.897636 0l0 18.897638l-18.897636 0z" fill-rule="evenodd"/><path fill="#000000" fill-opacity="0.0" d="m94.48819 18.80315l18.897636 0l0 18.897636l-18.897636 0z" fill-rule="evenodd"/><path stroke="#f3f3f3" stroke-width="1.0" stroke-linejoin="round" stroke-linecap="butt" d="m94.48819 18.80315l18.897636 0l0 18.897636l-18.897636 0z" fill-rule="evenodd"/><path fill="#000000" fill-opacity="0.0" d="m94.48819 37.700787l18.897636 0l0 18.89764l-18.897636 0z" fill-rule="evenodd"/><path stroke="#f3f3f3" stroke-width="1.0" stroke-linejoin="round" stroke-linecap="butt" d="m94.48819 37.700787l18.897636 0l0 18.89764l-18.897636 0z" fill-rule="evenodd"/><path fill="#000000" fill-opacity="0.0" d="m94.48819 56.598427l18.897636 0l0 18.897636l-18.897636 0z" fill-rule="evenodd"/><path stroke="#f3f3f3" stroke-width="1.0" stroke-linejoin="round" stroke-linecap="butt" d="m94.48819 56.598427l18.897636 0l0 18.897636l-18.897636 0z" fill-rule="evenodd"/><path fill="#000000" fill-opacity="0.0" d="m113.385826 -0.09448819l18.897636 0l0 18.897638l-18.897636 0z" fill-rule="evenodd"/><path stroke="#f3f3f3" stroke-width="1.0" stroke-linejoin="round" stroke-linecap="butt" d="m113.385826 -0.09448819l18.897636 0l0 18.897638l-18.897636 0z" fill-rule="evenodd"/><path fill="#000000" fill-opacity="0.0" d="m113.385826 18.80315l18.897636 0l0 18.897636l-18.897636 0z" fill-rule="evenodd"/><path stroke="#f3f3f3" stroke-width="1.0" stroke-linejoin="round" stroke-linecap="butt" d="m113.385826 18.80315l18.897636 0l0 18.897636l-18.897636 0z" fill-rule="evenodd"/><path fill="#000000" fill-opacity="0.0" d="m113.385826 37.700787l18.897636 0l0 18.89764l-18.897636 0z" fill-rule="evenodd"/><path stroke="#f3f3f3" stroke-width="1.0" stroke-linejoin="round" stroke-linecap="butt" d="m113.385826 37.700787l18.897636 0l0 18.89764l-18.897636 0z" fill-rule="evenodd"/><path fill="#000000" fill-opacity="0.0" d="m0 75.685036l18.897638 0l0 18.897644l-18.897638 0z" fill-rule="evenodd"/><path stroke="#f3f3f3" stroke-width="1.0" stroke-linejoin="round" stroke-linecap="butt" d="m0 75.685036l18.897638 0l0 18.897644l-18.897638 0z" fill-rule="evenodd"/><path fill="#000000" fill-opacity="0.0" d="m18.897638 75.685036l18.897638 0l0 18.897644l-18.897638 0z" fill-rule="evenodd"/><path stroke="#f3f3f3" stroke-width="1.0" stroke-linejoin="round" stroke-linecap="butt" d="m18.897638 75.685036l18.897638 0l0 18.897644l-18.897638 0z" fill-rule="evenodd"/><path fill="#000000" fill-opacity="0.0" d="m37.795277 75.685036l18.897636 0l0 18.897644l-18.897636 0z" fill-rule="evenodd"/><path stroke="#f3f3f3" stroke-width="1.0" stroke-linejoin="round" stroke-linecap="butt" d="m37.795277 75.685036l18.897636 0l0 18.897644l-18.897636 0z" fill-rule="evenodd"/><path fill="#000000" fill-opacity="0.0" d="m56.692913 75.685036l18.89764 0l0 18.897644l-18.89764 0z" fill-rule="evenodd"/><path stroke="#f3f3f3" stroke-width="1.0" stroke-linejoin="round" stroke-linecap="butt" d="m56.692913 75.685036l18.89764 0l0 18.897644l-18.89764 0z" fill-rule="evenodd"/><path fill="#000000" fill-opacity="0.0" d="m75.59055 75.685036l18.897636 0l0 18.897644l-18.897636 0z" fill-rule="evenodd"/><path stroke="#f3f3f3" stroke-width="1.0" stroke-linejoin="round" stroke-linecap="butt" d="m75.59055 75.685036l18.897636 0l0 18.897644l-18.897636 0z" fill-rule="evenodd"/><path fill="#000000" fill-opacity="0.0" d="m94.48819 75.685036l18.897636 0l0 18.897644l-18.897636 0z" fill-rule="evenodd"/><path stroke="#f3f3f3" stroke-width="1.0" stroke-linejoin="round" stroke-linecap="butt" d="m94.48819 75.685036l18.897636 0l0 18.897644l-18.897636 0z" fill-rule="evenodd"/><path fill="#000000" fill-opacity="0.0" d="m132.28346 -0.09448819l18.897644 0l0 18.897638l-18.897644 0z" fill-rule="evenodd"/><path stroke="#f3f3f3" stroke-width="1.0" stroke-linejoin="round" stroke-linecap="butt" d="m132.28346 -0.09448819l18.897644 0l0 18.897638l-18.897644 0z" fill-rule="evenodd"/><path fill="#000000" fill-opacity="0.0" d="m132.28346 18.80315l18.897644 0l0 18.897636l-18.897644 0z" fill-rule="evenodd"/><path stroke="#f3f3f3" stroke-width="1.0" stroke-linejoin="round" stroke-linecap="butt" d="m132.28346 18.80315l18.897644 0l0 18.897636l-18.897644 0z" fill-rule="evenodd"/><path fill="#000000" fill-opacity="0.0" d="m132.28346 37.700787l18.897644 0l0 18.89764l-18.897644 0z" fill-rule="evenodd"/><path stroke="#f3f3f3" stroke-width="1.0" stroke-linejoin="round" stroke-linecap="butt" d="m132.28346 37.700787l18.897644 0l0 18.89764l-18.897644 0z" fill-rule="evenodd"/><path fill="#000000" fill-opacity="0.0" d="m18.897638 38.07874l94.48819 -0.37795258" fill-rule="evenodd"/><path stroke="#cccccc" stroke-width="1.0" stroke-linejoin="round" stroke-linecap="butt" d="m18.897638 38.07874l88.48824 -0.35395432" fill-rule="evenodd"/><path fill="#cccccc" stroke="#cccccc" stroke-width="1.0" stroke-linecap="butt" d="m107.39248 39.376507l4.531456 -1.6698723l-4.54467 -1.6335678z" fill-rule="evenodd"/><path fill="#ffffff" d="m37.795277 18.80315l37.795277 0l0 37.795277l-37.795277 0z" fill-rule="evenodd"/><path stroke="#000000" stroke-width="1.0" stroke-linejoin="round" stroke-linecap="butt" stroke-dasharray="4.0,3.0" d="m37.795277 18.80315l37.795277 0l0 37.795277l-37.795277 0z" fill-rule="evenodd"/><path fill="#000000" d="m48.639767 43.560787l0 -1.09375l2.953125 0l0 -7.515625l-2.296875 0l0 -0.84375q0.921875 -0.125 1.53125 -0.296875q0.609375 -0.1875 1.09375 -0.453125l0.984375 0l0 9.109375l2.671875 0l0 1.09375l-6.9375 0zm10.178146 0l0 -10.5l6.453129 0l0 1.125l-5.109379 0l0 3.546875l4.328129 0l0 1.125l-4.328129 0l0 4.703125l-1.34375 0z" fill-rule="nonzero"/></g></svg>