<svg version="1.1" viewBox="0.0 0.0 170.83464566929135 319.37007874015745" fill="none" stroke="none" stroke-linecap="square" stroke-miterlimit="10" xmlns:xlink="http://www.w3.org/1999/xlink" xmlns="http://www.w3.org/2000/svg"><clipPath id="p.0"><path d="m0 0l170.83464 0l0 319.3701l-170.83464 0l0 -319.3701z" clip-rule="nonzero"/></clipPath><g clip-path="url(#p.0)"><path fill="#000000" fill-opacity="0.0" d="m0 0l170.83464 0l0 319.3701l-170.83464 0z" fill-rule="evenodd"/><path fill="#000000" fill-opacity="0.0" d="m0.24146982 244.63062l18.897636 0l0 18.897644l-18.897636 0z" fill-rule="evenodd"/><path stroke="#f3f3f3" stroke-width="1.0" stroke-linejoin="round" stroke-linecap="butt" d="m0.24146982 244.63062l18.897636 0l0 18.897644l-18.897636 0z" fill-rule="evenodd"/><path fill="#000000" fill-opacity="0.0" d="m19.139107 244.63062l18.89764 0l0 18.897644l-18.89764 0z" fill-rule="evenodd"/><path stroke="#f3f3f3" stroke-width="1.0" stroke-linejoin="round" stroke-linecap="butt" d="m19.139107 244.63062l18.89764 0l0 18.897644l-18.89764 0z" fill-rule="evenodd"/><path fill="#000000" fill-opacity="0.0" d="m38.036747 244.63062l18.897636 0l0 18.897644l-18.897636 0z" fill-rule="evenodd"/><path stroke="#f3f3f3" stroke-width="1.0" stroke-linejoin="round" stroke-linecap="butt" d="m38.036747 244.63062l18.897636 0l0 18.897644l-18.897636 0z" fill-rule="evenodd"/><path fill="#000000" fill-opacity="0.0" d="m56.934383 244.63062l18.89764 0l0 18.897644l-18.89764 0z" fill-rule="evenodd"/><path stroke="#f3f3f3" stroke-width="1.0" stroke-linejoin="round" stroke-linecap="butt" d="m56.934383 244.63062l18.89764 0l0 18.897644l-18.89764 0z" fill-rule="evenodd"/><path fill="#000000" fill-opacity="0.0" d="m75.83202 244.63062l18.897636 0l0 18.897644l-18.897636 0z" fill-rule="evenodd"/><path stroke="#f3f3f3" stroke-width="1.0" stroke-linejoin="round" stroke-linecap="butt" d="m75.83202 244.63062l18.897636 0l0 18.897644l-18.897636 0z" fill-rule="evenodd"/><path fill="#000000" fill-opacity="0.0" d="m94.72966 244.63062l18.897636 0l0 18.897644l-18.897636 0z" fill-rule="evenodd"/><path stroke="#f3f3f3" stroke-width="1.0" stroke-linejoin="round" stroke-linecap="butt" d="m94.72966 244.63062l18.897636 0l0 18.897644l-18.897636 0z" fill-rule="evenodd"/><path fill="#000000" fill-opacity="0.0" d="m113.88256 244.63062l18.897636 0l0 18.897644l-18.897636 0z" fill-rule="evenodd"/><path stroke="#f3f3f3" stroke-width="1.0" stroke-linejoin="round" stroke-linecap="butt" d="m113.88256 244.63062l18.897636 0l0 18.897644l-18.897636 0z" fill-rule="evenodd"/><path fill="#000000" fill-opacity="0.0" d="m132.7802 244.63062l18.897644 0l0 18.897644l-18.897644 0z" fill-rule="evenodd"/><path stroke="#f3f3f3" stroke-width="1.0" stroke-linejoin="round" stroke-linecap="butt" d="m132.7802 244.63062l18.897644 0l0 18.897644l-18.897644 0z" fill-rule="evenodd"/><path fill="#000000" fill-opacity="0.0" d="m151.90656 244.63062l18.897644 0l0 18.897644l-18.897644 0z" fill-rule="evenodd"/><path stroke="#f3f3f3" stroke-width="1.0" stroke-linejoin="round" stroke-linecap="butt" d="m151.90656 244.63062l18.897644 0l0 18.897644l-18.897644 0z" fill-rule="evenodd"/><path fill="#000000" fill-opacity="0.0" d="m18.897638 281.63947l18.897638 0l0 18.897644l-18.897638 0z" fill-rule="evenodd"/><path stroke="#f3f3f3" stroke-width="1.0" stroke-linejoin="round" stroke-linecap="butt" d="m18.897638 281.63947l18.897638 0l0 18.897644l-18.897638 0z" fill-rule="evenodd"/><path fill="#000000" fill-opacity="0.0" d="m18.897638 300.5371l18.897638 0l0 18.897644l-18.897638 0z" fill-rule="evenodd"/><path stroke="#f3f3f3" stroke-width="1.0" stroke-linejoin="round" stroke-linecap="butt" d="m18.897638 300.5371l18.897638 0l0 18.897644l-18.897638 0z" fill-rule="evenodd"/><path fill="#000000" fill-opacity="0.0" d="m0 262.74182l18.897638 0l0 18.897644l-18.897638 0z" fill-rule="evenodd"/><path stroke="#f3f3f3" stroke-width="1.0" stroke-linejoin="round" stroke-linecap="butt" d="m0 262.74182l18.897638 0l0 18.897644l-18.897638 0z" fill-rule="evenodd"/><path fill="#000000" fill-opacity="0.0" d="m0 281.63947l18.897638 0l0 18.897644l-18.897638 0z" fill-rule="evenodd"/><path stroke="#f3f3f3" stroke-width="1.0" stroke-linejoin="round" stroke-linecap="butt" d="m0 281.63947l18.897638 0l0 18.897644l-18.897638 0z" fill-rule="evenodd"/><path fill="#000000" fill-opacity="0.0" d="m0 300.5371l18.897638 0l0 18.897644l-18.897638 0z" fill-rule="evenodd"/><path stroke="#f3f3f3" stroke-width="1.0" stroke-linejoin="round" stroke-linecap="butt" d="m0 300.5371l18.897638 0l0 18.897644l-18.897638 0z" fill-rule="evenodd"/><path fill="#000000" fill-opacity="0.0" d="m18.897638 262.74182l18.897638 0l0 18.897644l-18.897638 0z" fill-rule="evenodd"/><path stroke="#f3f3f3" stroke-width="1.0" stroke-linejoin="round" stroke-linecap="butt" d="m18.897638 262.74182l18.897638 0l0 18.897644l-18.897638 0z" fill-rule="evenodd"/><path fill="#000000" fill-opacity="0.0" d="m37.795277 262.74182l18.897636 0l0 18.897644l-18.897636 0z" fill-rule="evenodd"/><path stroke="#f3f3f3" stroke-width="1.0" stroke-linejoin="round" stroke-linecap="butt" d="m37.795277 262.74182l18.897636 0l0 18.897644l-18.897636 0z" fill-rule="evenodd"/><path fill="#000000" fill-opacity="0.0" d="m37.795277 281.63947l18.897636 0l0 18.897644l-18.897636 0z" fill-rule="evenodd"/><path stroke="#f3f3f3" stroke-width="1.0" stroke-linejoin="round" stroke-linecap="butt" d="m37.795277 281.63947l18.897636 0l0 18.897644l-18.897636 0z" fill-rule="evenodd"/><path fill="#000000" fill-opacity="0.0" d="m37.795277 300.5371l18.897636 0l0 18.897644l-18.897636 0z" fill-rule="evenodd"/><path stroke="#f3f3f3" stroke-width="1.0" stroke-linejoin="round" stroke-linecap="butt" d="m37.795277 300.5371l18.897636 0l0 18.897644l-18.897636 0z" fill-rule="evenodd"/><path fill="#000000" fill-opacity="0.0" d="m56.692913 262.74182l18.89764 0l0 18.897644l-18.89764 0z" fill-rule="evenodd"/><path stroke="#f3f3f3" stroke-width="1.0" stroke-linejoin="round" stroke-linecap="butt" d="m56.692913 262.74182l18.89764 0l0 18.897644l-18.89764 0z" fill-rule="evenodd"/><path fill="#000000" fill-opacity="0.0" d="m56.692913 281.63947l18.89764 0l0 18.897644l-18.89764 0z" fill-rule="evenodd"/><path stroke="#f3f3f3" stroke-width="1.0" stroke-linejoin="round" stroke-linecap="butt" d="m56.692913 281.63947l18.89764 0l0 18.897644l-18.89764 0z" fill-rule="evenodd"/><path fill="#000000" fill-opacity="0.0" d="m56.692913 300.5371l18.89764 0l0 18.897644l-18.89764 0z" fill-rule="evenodd"/><path stroke="#f3f3f3" stroke-width="1.0" stroke-linejoin="round" stroke-linecap="butt" d="m56.692913 300.5371l18.89764 0l0 18.897644l-18.89764 0z" fill-rule="evenodd"/><path fill="#000000" fill-opacity="0.0" d="m75.59055 262.74182l18.897636 0l0 18.897644l-18.897636 0z" fill-rule="evenodd"/><path stroke="#f3f3f3" stroke-width="1.0" stroke-linejoin="round" stroke-linecap="butt" d="m75.59055 262.74182l18.897636 0l0 18.897644l-18.897636 0z" fill-rule="evenodd"/><path fill="#000000" fill-opacity="0.0" d="m75.59055 281.63947l18.897636 0l0 18.897644l-18.897636 0z" fill-rule="evenodd"/><path stroke="#f3f3f3" stroke-width="1.0" stroke-linejoin="round" stroke-linecap="butt" d="m75.59055 281.63947l18.897636 0l0 18.897644l-18.897636 0z" fill-rule="evenodd"/><path fill="#000000" fill-opacity="0.0" d="m75.59055 300.5371l18.897636 0l0 18.897644l-18.897636 0z" fill-rule="evenodd"/><path stroke="#f3f3f3" stroke-width="1.0" stroke-linejoin="round" stroke-linecap="butt" d="m75.59055 300.5371l18.897636 0l0 18.897644l-18.897636 0z" fill-rule="evenodd"/><path fill="#000000" fill-opacity="0.0" d="m94.48819 262.74182l18.897636 0l0 18.897644l-18.897636 0z" fill-rule="evenodd"/><path stroke="#f3f3f3" stroke-width="1.0" stroke-linejoin="round" stroke-linecap="butt" d="m94.48819 262.74182l18.897636 0l0 18.897644l-18.897636 0z" fill-rule="evenodd"/><path fill="#000000" fill-opacity="0.0" d="m94.48819 281.63947l18.897636 0l0 18.897644l-18.897636 0z" fill-rule="evenodd"/><path stroke="#f3f3f3" stroke-width="1.0" stroke-linejoin="round" stroke-linecap="butt" d="m94.48819 281.63947l18.897636 0l0 18.897644l-18.897636 0z" fill-rule="evenodd"/><path fill="#000000" fill-opacity="0.0" d="m94.48819 300.5371l18.897636 0l0 18.897644l-18.897636 0z" fill-rule="evenodd"/><path stroke="#f3f3f3" stroke-width="1.0" stroke-linejoin="round" stroke-linecap="butt" d="m94.48819 300.5371l18.897636 0l0 18.897644l-18.897636 0z" fill-rule="evenodd"/><path fill="#000000" fill-opacity="0.0" d="m113.385826 262.74182l18.897636 0l0 18.897644l-18.897636 0z" fill-rule="evenodd"/><path stroke="#f3f3f3" stroke-width="1.0" stroke-linejoin="round" stroke-linecap="butt" d="m113.385826 262.74182l18.897636 0l0 18.897644l-18.897636 0z" fill-rule="evenodd"/><path fill="#000000" fill-opacity="0.0" d="m113.385826 281.63947l18.897636 0l0 18.897644l-18.897636 0z" fill-rule="evenodd"/><path stroke="#f3f3f3" stroke-width="1.0" stroke-linejoin="round" stroke-linecap="butt" d="m113.385826 281.63947l18.897636 0l0 18.897644l-18.897636 0z" fill-rule="evenodd"/><path fill="#000000" fill-opacity="0.0" d="m113.385826 300.5371l18.897636 0l0 18.897644l-18.897636 0z" fill-rule="evenodd"/><path stroke="#f3f3f3" stroke-width="1.0" stroke-linejoin="round" stroke-linecap="butt" d="m113.385826 300.5371l18.897636 0l0 18.897644l-18.897636 0z" fill-rule="evenodd"/><path fill="#000000" fill-opacity="0.0" d="m132.28346 262.74182l18.897644 0l0 18.897644l-18.897644 0z" fill-rule="evenodd"/><path stroke="#f3f3f3" stroke-width="1.0" stroke-linejoin="round" stroke-linecap="butt" d="m132.28346 262.74182l18.897644 0l0 18.897644l-18.897644 0z" fill-rule="evenodd"/><path fill="#000000" fill-opacity="0.0" d="m132.28346 281.63947l18.897644 0l0 18.897644l-18.897644 0z" fill-rule="evenodd"/><path stroke="#f3f3f3" stroke-width="1.0" stroke-linejoin="round" stroke-linecap="butt" d="m132.28346 281.63947l18.897644 0l0 18.897644l-18.897644 0z" fill-rule="evenodd"/><path fill="#000000" fill-opacity="0.0" d="m132.28346 300.5371l18.897644 0l0 18.897644l-18.897644 0z" fill-rule="evenodd"/><path stroke="#f3f3f3" stroke-width="1.0" stroke-linejoin="round" stroke-linecap="butt" d="m132.28346 300.5371l18.897644 0l0 18.897644l-18.897644 0z" fill-rule="evenodd"/><path fill="#000000" fill-opacity="0.0" d="m151.40982 262.74182l18.897629 0l0 18.897644l-18.897629 0z" fill-rule="evenodd"/><path stroke="#f3f3f3" stroke-width="1.0" stroke-linejoin="round" stroke-linecap="butt" d="m151.40982 262.74182l18.897629 0l0 18.897644l-18.897629 0z" fill-rule="evenodd"/><path fill="#000000" fill-opacity="0.0" d="m151.40982 281.63947l18.897629 0l0 18.897644l-18.897629 0z" fill-rule="evenodd"/><path stroke="#f3f3f3" stroke-width="1.0" stroke-linejoin="round" stroke-linecap="butt" d="m151.40982 281.63947l18.897629 0l0 18.897644l-18.897629 0z" fill-rule="evenodd"/><path fill="#000000" fill-opacity="0.0" d="m151.40982 300.5371l18.897629 0l0 18.897644l-18.897629 0z" fill-rule="evenodd"/><path stroke="#f3f3f3" stroke-width="1.0" stroke-linejoin="round" stroke-linecap="butt" d="m151.40982 300.5371l18.897629 0l0 18.897644l-18.897629 0z" fill-rule="evenodd"/><path fill="#000000" fill-opacity="0.0" d="m19.139107 18.897638l18.89764 0l0 18.897638l-18.89764 0z" fill-rule="evenodd"/><path stroke="#f3f3f3" stroke-width="1.0" stroke-linejoin="round" stroke-linecap="butt" d="m19.139107 18.897638l18.89764 0l0 18.897638l-18.89764 0z" fill-rule="evenodd"/><path fill="#000000" fill-opacity="0.0" d="m19.139107 37.795277l18.89764 0l0 18.897636l-18.89764 0z" fill-rule="evenodd"/><path stroke="#f3f3f3" stroke-width="1.0" stroke-linejoin="round" stroke-linecap="butt" d="m19.139107 37.795277l18.89764 0l0 18.897636l-18.89764 0z" fill-rule="evenodd"/><path fill="#000000" fill-opacity="0.0" d="m0.24146982 0l18.897636 0l0 18.897638l-18.897636 0z" fill-rule="evenodd"/><path stroke="#f3f3f3" stroke-width="1.0" stroke-linejoin="round" stroke-linecap="butt" d="m0.24146982 0l18.897636 0l0 18.897638l-18.897636 0z" fill-rule="evenodd"/><path fill="#000000" fill-opacity="0.0" d="m0.24146982 18.897638l18.897636 0l0 18.897638l-18.897636 0z" fill-rule="evenodd"/><path stroke="#f3f3f3" stroke-width="1.0" stroke-linejoin="round" stroke-linecap="butt" d="m0.24146982 18.897638l18.897636 0l0 18.897638l-18.897636 0z" fill-rule="evenodd"/><path fill="#000000" fill-opacity="0.0" d="m0.24146982 37.795277l18.897636 0l0 18.897636l-18.897636 0z" fill-rule="evenodd"/><path stroke="#f3f3f3" stroke-width="1.0" stroke-linejoin="round" stroke-linecap="butt" d="m0.24146982 37.795277l18.897636 0l0 18.897636l-18.897636 0z" fill-rule="evenodd"/><path fill="#000000" fill-opacity="0.0" d="m0.24146982 56.692913l18.897636 0l0 18.89764l-18.897636 0z" fill-rule="evenodd"/><path stroke="#f3f3f3" stroke-width="1.0" stroke-linejoin="round" stroke-linecap="butt" d="m0.24146982 56.692913l18.897636 0l0 18.89764l-18.897636 0z" fill-rule="evenodd"/><path fill="#000000" fill-opacity="0.0" d="m19.139107 0l18.89764 0l0 18.897638l-18.89764 0z" fill-rule="evenodd"/><path stroke="#f3f3f3" stroke-width="1.0" stroke-linejoin="round" stroke-linecap="butt" d="m19.139107 0l18.89764 0l0 18.897638l-18.89764 0z" fill-rule="evenodd"/><path fill="#000000" fill-opacity="0.0" d="m19.139107 56.692913l18.89764 0l0 18.89764l-18.89764 0z" fill-rule="evenodd"/><path stroke="#f3f3f3" stroke-width="1.0" stroke-linejoin="round" stroke-linecap="butt" d="m19.139107 56.692913l18.89764 0l0 18.89764l-18.89764 0z" fill-rule="evenodd"/><path fill="#000000" fill-opacity="0.0" d="m38.036747 0l18.897636 0l0 18.897638l-18.897636 0z" fill-rule="evenodd"/><path stroke="#f3f3f3" stroke-width="1.0" stroke-linejoin="round" stroke-linecap="butt" d="m38.036747 0l18.897636 0l0 18.897638l-18.897636 0z" fill-rule="evenodd"/><path fill="#000000" fill-opacity="0.0" d="m38.036747 18.897638l18.897636 0l0 18.897638l-18.897636 0z" fill-rule="evenodd"/><path stroke="#f3f3f3" stroke-width="1.0" stroke-linejoin="round" stroke-linecap="butt" d="m38.036747 18.897638l18.897636 0l0 18.897638l-18.897636 0z" fill-rule="evenodd"/><path fill="#000000" fill-opacity="0.0" d="m38.036747 37.795277l18.897636 0l0 18.897636l-18.897636 0z" fill-rule="evenodd"/><path stroke="#f3f3f3" stroke-width="1.0" stroke-linejoin="round" stroke-linecap="butt" d="m38.036747 37.795277l18.897636 0l0 18.897636l-18.897636 0z" fill-rule="evenodd"/><path fill="#000000" fill-opacity="0.0" d="m38.036747 56.692913l18.897636 0l0 18.89764l-18.897636 0z" fill-rule="evenodd"/><path stroke="#f3f3f3" stroke-width="1.0" stroke-linejoin="round" stroke-linecap="butt" d="m38.036747 56.692913l18.897636 0l0 18.89764l-18.897636 0z" fill-rule="evenodd"/><path fill="#000000" fill-opacity="0.0" d="m56.934383 0l18.89764 0l0 18.897638l-18.89764 0z" fill-rule="evenodd"/><path stroke="#f3f3f3" stroke-width="1.0" stroke-linejoin="round" stroke-linecap="butt" d="m56.934383 0l18.89764 0l0 18.897638l-18.89764 0z" fill-rule="evenodd"/><path fill="#000000" fill-opacity="0.0" d="m56.934383 18.897638l18.89764 0l0 18.897638l-18.89764 0z" fill-rule="evenodd"/><path stroke="#f3f3f3" stroke-width="1.0" stroke-linejoin="round" stroke-linecap="butt" d="m56.934383 18.897638l18.89764 0l0 18.897638l-18.89764 0z" fill-rule="evenodd"/><path fill="#000000" fill-opacity="0.0" d="m56.934383 37.795277l18.89764 0l0 18.897636l-18.89764 0z" fill-rule="evenodd"/><path stroke="#f3f3f3" stroke-width="1.0" stroke-linejoin="round" stroke-linecap="butt" d="m56.934383 37.795277l18.89764 0l0 18.897636l-18.89764 0z" fill-rule="evenodd"/><path fill="#000000" fill-opacity="0.0" d="m56.934383 56.692913l18.89764 0l0 18.89764l-18.89764 0z" fill-rule="evenodd"/><path stroke="#f3f3f3" stroke-width="1.0" stroke-linejoin="round" stroke-linecap="butt" d="m56.934383 56.692913l18.89764 0l0 18.89764l-18.89764 0z" fill-rule="evenodd"/><path fill="#000000" fill-opacity="0.0" d="m75.83202 0l18.897636 0l0 18.897638l-18.897636 0z" fill-rule="evenodd"/><path stroke="#f3f3f3" stroke-width="1.0" stroke-linejoin="round" stroke-linecap="butt" d="m75.83202 0l18.897636 0l0 18.897638l-18.897636 0z" fill-rule="evenodd"/><path fill="#000000" fill-opacity="0.0" d="m75.83202 18.897638l18.897636 0l0 18.897638l-18.897636 0z" fill-rule="evenodd"/><path stroke="#f3f3f3" stroke-width="1.0" stroke-linejoin="round" stroke-linecap="butt" d="m75.83202 18.897638l18.897636 0l0 18.897638l-18.897636 0z" fill-rule="evenodd"/><path fill="#000000" fill-opacity="0.0" d="m75.83202 37.795277l18.897636 0l0 18.897636l-18.897636 0z" fill-rule="evenodd"/><path stroke="#f3f3f3" stroke-width="1.0" stroke-linejoin="round" stroke-linecap="butt" d="m75.83202 37.795277l18.897636 0l0 18.897636l-18.897636 0z" fill-rule="evenodd"/><path fill="#000000" fill-opacity="0.0" d="m75.83202 56.692913l18.897636 0l0 18.89764l-18.897636 0z" fill-rule="evenodd"/><path stroke="#f3f3f3" stroke-width="1.0" stroke-linejoin="round" stroke-linecap="butt" d="m75.83202 56.692913l18.897636 0l0 18.89764l-18.897636 0z" fill-rule="evenodd"/><path fill="#000000" fill-opacity="0.0" d="m94.72966 0l18.897636 0l0 18.897638l-18.897636 0z" fill-rule="evenodd"/><path stroke="#f3f3f3" stroke-width="1.0" stroke-linejoin="round" stroke-linecap="butt" d="m94.72966 0l18.897636 0l0 18.897638l-18.897636 0z" fill-rule="evenodd"/><path fill="#000000" fill-opacity="0.0" d="m94.72966 18.897638l18.897636 0l0 18.897638l-18.897636 0z" fill-rule="evenodd"/><path stroke="#f3f3f3" stroke-width="1.0" stroke-linejoin="round" stroke-linecap="butt" d="m94.72966 18.897638l18.897636 0l0 18.897638l-18.897636 0z" fill-rule="evenodd"/><path fill="#000000" fill-opacity="0.0" d="m94.72966 37.795277l18.897636 0l0 18.897636l-18.897636 0z" fill-rule="evenodd"/><path stroke="#f3f3f3" stroke-width="1.0" stroke-linejoin="round" stroke-linecap="butt" d="m94.72966 37.795277l18.897636 0l0 18.897636l-18.897636 0z" fill-rule="evenodd"/><path fill="#000000" fill-opacity="0.0" d="m94.72966 56.692913l18.897636 0l0 18.89764l-18.897636 0z" fill-rule="evenodd"/><path stroke="#f3f3f3" stroke-width="1.0" stroke-linejoin="round" stroke-linecap="butt" d="m94.72966 56.692913l18.897636 0l0 18.89764l-18.897636 0z" fill-rule="evenodd"/><path fill="#000000" fill-opacity="0.0" d="m113.6273 0l18.897636 0l0 18.897638l-18.897636 0z" fill-rule="evenodd"/><path stroke="#f3f3f3" stroke-width="1.0" stroke-linejoin="round" stroke-linecap="butt" d="m113.6273 0l18.897636 0l0 18.897638l-18.897636 0z" fill-rule="evenodd"/><path fill="#000000" fill-opacity="0.0" d="m113.6273 18.897638l18.897636 0l0 18.897638l-18.897636 0z" fill-rule="evenodd"/><path stroke="#f3f3f3" stroke-width="1.0" stroke-linejoin="round" stroke-linecap="butt" d="m113.6273 18.897638l18.897636 0l0 18.897638l-18.897636 0z" fill-rule="evenodd"/><path fill="#000000" fill-opacity="0.0" d="m113.6273 37.795277l18.897636 0l0 18.897636l-18.897636 0z" fill-rule="evenodd"/><path stroke="#f3f3f3" stroke-width="1.0" stroke-linejoin="round" stroke-linecap="butt" d="m113.6273 37.795277l18.897636 0l0 18.897636l-18.897636 0z" fill-rule="evenodd"/><path fill="#000000" fill-opacity="0.0" d="m0.24146982 75.779526l18.897636 0l0 18.897636l-18.897636 0z" fill-rule="evenodd"/><path stroke="#f3f3f3" stroke-width="1.0" stroke-linejoin="round" stroke-linecap="butt" d="m0.24146982 75.779526l18.897636 0l0 18.897636l-18.897636 0z" fill-rule="evenodd"/><path fill="#000000" fill-opacity="0.0" d="m19.139107 75.779526l18.89764 0l0 18.897636l-18.89764 0z" fill-rule="evenodd"/><path stroke="#f3f3f3" stroke-width="1.0" stroke-linejoin="round" stroke-linecap="butt" d="m19.139107 75.779526l18.89764 0l0 18.897636l-18.89764 0z" fill-rule="evenodd"/><path fill="#000000" fill-opacity="0.0" d="m38.036747 75.779526l18.897636 0l0 18.897636l-18.897636 0z" fill-rule="evenodd"/><path stroke="#f3f3f3" stroke-width="1.0" stroke-linejoin="round" stroke-linecap="butt" d="m38.036747 75.779526l18.897636 0l0 18.897636l-18.897636 0z" fill-rule="evenodd"/><path fill="#000000" fill-opacity="0.0" d="m56.934383 75.779526l18.89764 0l0 18.897636l-18.89764 0z" fill-rule="evenodd"/><path stroke="#f3f3f3" stroke-width="1.0" stroke-linejoin="round" stroke-linecap="butt" d="m56.934383 75.779526l18.89764 0l0 18.897636l-18.89764 0z" fill-rule="evenodd"/><path fill="#000000" fill-opacity="0.0" d="m75.83202 75.779526l18.897636 0l0 18.897636l-18.897636 0z" fill-rule="evenodd"/><path stroke="#f3f3f3" stroke-width="1.0" stroke-linejoin="round" stroke-linecap="butt" d="m75.83202 75.779526l18.897636 0l0 18.897636l-18.897636 0z" fill-rule="evenodd"/><path fill="#000000" fill-opacity="0.0" d="m94.72966 75.779526l18.897636 0l0 18.897636l-18.897636 0z" fill-rule="evenodd"/><path stroke="#f3f3f3" stroke-width="1.0" stroke-linejoin="round" stroke-linecap="butt" d="m94.72966 75.779526l18.897636 0l0 18.897636l-18.897636 0z" fill-rule="evenodd"/><path fill="#000000" fill-opacity="0.0" d="m132.52493 0l18.897644 0l0 18.897638l-18.897644 0z" fill-rule="evenodd"/><path stroke="#f3f3f3" stroke-width="1.0" stroke-linejoin="round" stroke-linecap="butt" d="m132.52493 0l18.897644 0l0 18.897638l-18.897644 0z" fill-rule="evenodd"/><path fill="#000000" fill-opacity="0.0" d="m132.52493 18.897638l18.897644 0l0 18.897638l-18.897644 0z" fill-rule="evenodd"/><path stroke="#f3f3f3" stroke-width="1.0" stroke-linejoin="round" stroke-linecap="butt" d="m132.52493 18.897638l18.897644 0l0 18.897638l-18.897644 0z" fill-rule="evenodd"/><path fill="#000000" fill-opacity="0.0" d="m132.52493 37.795277l18.897644 0l0 18.897636l-18.897644 0z" fill-rule="evenodd"/><path stroke="#f3f3f3" stroke-width="1.0" stroke-linejoin="round" stroke-linecap="butt" d="m132.52493 37.795277l18.897644 0l0 18.897636l-18.897644 0z" fill-rule="evenodd"/><path fill="#000000" fill-opacity="0.0" d="m113.88256 56.692913l18.897636 0l0 18.89764l-18.897636 0z" fill-rule="evenodd"/><path stroke="#f3f3f3" stroke-width="1.0" stroke-linejoin="round" stroke-linecap="butt" d="m113.88256 56.692913l18.897636 0l0 18.89764l-18.897636 0z" fill-rule="evenodd"/><path fill="#000000" fill-opacity="0.0" d="m132.7802 56.692913l18.897644 0l0 18.89764l-18.897644 0z" fill-rule="evenodd"/><path stroke="#f3f3f3" stroke-width="1.0" stroke-linejoin="round" stroke-linecap="butt" d="m132.7802 56.692913l18.897644 0l0 18.89764l-18.897644 0z" fill-rule="evenodd"/><path fill="#000000" fill-opacity="0.0" d="m113.88256 75.779526l18.897636 0l0 18.897636l-18.897636 0z" fill-rule="evenodd"/><path stroke="#f3f3f3" stroke-width="1.0" stroke-linejoin="round" stroke-linecap="butt" d="m113.88256 75.779526l18.897636 0l0 18.897636l-18.897636 0z" fill-rule="evenodd"/><path fill="#000000" fill-opacity="0.0" d="m132.7802 75.779526l18.897644 0l0 18.897636l-18.897644 0z" fill-rule="evenodd"/><path stroke="#f3f3f3" stroke-width="1.0" stroke-linejoin="round" stroke-linecap="butt" d="m132.7802 75.779526l18.897644 0l0 18.897636l-18.897644 0z" fill-rule="evenodd"/><path fill="#000000" fill-opacity="0.0" d="m151.65129 0l18.897629 0l0 18.897638l-18.897629 0z" fill-rule="evenodd"/><path stroke="#f3f3f3" stroke-width="1.0" stroke-linejoin="round" stroke-linecap="butt" d="m151.65129 0l18.897629 0l0 18.897638l-18.897629 0z" fill-rule="evenodd"/><path fill="#000000" fill-opacity="0.0" d="m151.65129 18.897638l18.897629 0l0 18.897638l-18.897629 0z" fill-rule="evenodd"/><path stroke="#f3f3f3" stroke-width="1.0" stroke-linejoin="round" stroke-linecap="butt" d="m151.65129 18.897638l18.897629 0l0 18.897638l-18.897629 0z" fill-rule="evenodd"/><path fill="#000000" fill-opacity="0.0" d="m151.65129 37.795277l18.897629 0l0 18.897636l-18.897629 0z" fill-rule="evenodd"/><path stroke="#f3f3f3" stroke-width="1.0" stroke-linejoin="round" stroke-linecap="butt" d="m151.65129 37.795277l18.897629 0l0 18.897636l-18.897629 0z" fill-rule="evenodd"/><path fill="#000000" fill-opacity="0.0" d="m151.90656 56.692913l18.897644 0l0 18.89764l-18.897644 0z" fill-rule="evenodd"/><path stroke="#f3f3f3" stroke-width="1.0" stroke-linejoin="round" stroke-linecap="butt" d="m151.90656 56.692913l18.897644 0l0 18.89764l-18.897644 0z" fill-rule="evenodd"/><path fill="#000000" fill-opacity="0.0" d="m151.90656 75.779526l18.897644 0l0 18.897636l-18.897644 0z" fill-rule="evenodd"/><path stroke="#f3f3f3" stroke-width="1.0" stroke-linejoin="round" stroke-linecap="butt" d="m151.90656 75.779526l18.897644 0l0 18.897636l-18.897644 0z" fill-rule="evenodd"/><path fill="#000000" fill-opacity="0.0" d="m19.139107 112.94818l18.89764 0l0 18.897629l-18.89764 0z" fill-rule="evenodd"/><path stroke="#f3f3f3" stroke-width="1.0" stroke-linejoin="round" stroke-linecap="butt" d="m19.139107 112.94818l18.89764 0l0 18.897629l-18.89764 0z" fill-rule="evenodd"/><path fill="#000000" fill-opacity="0.0" d="m19.139107 131.84581l18.89764 0l0 18.897644l-18.89764 0z" fill-rule="evenodd"/><path stroke="#f3f3f3" stroke-width="1.0" stroke-linejoin="round" stroke-linecap="butt" d="m19.139107 131.84581l18.89764 0l0 18.897644l-18.89764 0z" fill-rule="evenodd"/><path fill="#000000" fill-opacity="0.0" d="m0.24146982 94.050545l18.897636 0l0 18.897636l-18.897636 0z" fill-rule="evenodd"/><path stroke="#f3f3f3" stroke-width="1.0" stroke-linejoin="round" stroke-linecap="butt" d="m0.24146982 94.050545l18.897636 0l0 18.897636l-18.897636 0z" fill-rule="evenodd"/><path fill="#000000" fill-opacity="0.0" d="m0.24146982 112.94818l18.897636 0l0 18.897629l-18.897636 0z" fill-rule="evenodd"/><path stroke="#f3f3f3" stroke-width="1.0" stroke-linejoin="round" stroke-linecap="butt" d="m0.24146982 112.94818l18.897636 0l0 18.897629l-18.897636 0z" fill-rule="evenodd"/><path fill="#000000" fill-opacity="0.0" d="m0.24146982 131.84581l18.897636 0l0 18.897644l-18.897636 0z" fill-rule="evenodd"/><path stroke="#f3f3f3" stroke-width="1.0" stroke-linejoin="round" stroke-linecap="butt" d="m0.24146982 131.84581l18.897636 0l0 18.897644l-18.897636 0z" fill-rule="evenodd"/><path fill="#000000" fill-opacity="0.0" d="m0.24146982 150.74345l18.897636 0l0 18.897644l-18.897636 0z" fill-rule="evenodd"/><path stroke="#f3f3f3" stroke-width="1.0" stroke-linejoin="round" stroke-linecap="butt" d="m0.24146982 150.74345l18.897636 0l0 18.897644l-18.897636 0z" fill-rule="evenodd"/><path fill="#000000" fill-opacity="0.0" d="m19.139107 94.050545l18.89764 0l0 18.897636l-18.89764 0z" fill-rule="evenodd"/><path stroke="#f3f3f3" stroke-width="1.0" stroke-linejoin="round" stroke-linecap="butt" d="m19.139107 94.050545l18.89764 0l0 18.897636l-18.89764 0z" fill-rule="evenodd"/><path fill="#000000" fill-opacity="0.0" d="m19.139107 150.74345l18.89764 0l0 18.897644l-18.89764 0z" fill-rule="evenodd"/><path stroke="#f3f3f3" stroke-width="1.0" stroke-linejoin="round" stroke-linecap="butt" d="m19.139107 150.74345l18.89764 0l0 18.897644l-18.89764 0z" fill-rule="evenodd"/><path fill="#000000" fill-opacity="0.0" d="m38.036747 94.050545l18.897636 0l0 18.897636l-18.897636 0z" fill-rule="evenodd"/><path stroke="#f3f3f3" stroke-width="1.0" stroke-linejoin="round" stroke-linecap="butt" d="m38.036747 94.050545l18.897636 0l0 18.897636l-18.897636 0z" fill-rule="evenodd"/><path fill="#000000" fill-opacity="0.0" d="m38.036747 112.94818l18.897636 0l0 18.897629l-18.897636 0z" fill-rule="evenodd"/><path stroke="#f3f3f3" stroke-width="1.0" stroke-linejoin="round" stroke-linecap="butt" d="m38.036747 112.94818l18.897636 0l0 18.897629l-18.897636 0z" fill-rule="evenodd"/><path fill="#000000" fill-opacity="0.0" d="m38.036747 131.84581l18.897636 0l0 18.897644l-18.897636 0z" fill-rule="evenodd"/><path stroke="#f3f3f3" stroke-width="1.0" stroke-linejoin="round" stroke-linecap="butt" d="m38.036747 131.84581l18.897636 0l0 18.897644l-18.897636 0z" fill-rule="evenodd"/><path fill="#000000" fill-opacity="0.0" d="m38.036747 150.74345l18.897636 0l0 18.897644l-18.897636 0z" fill-rule="evenodd"/><path stroke="#f3f3f3" stroke-width="1.0" stroke-linejoin="round" stroke-linecap="butt" d="m38.036747 150.74345l18.897636 0l0 18.897644l-18.897636 0z" fill-rule="evenodd"/><path fill="#000000" fill-opacity="0.0" d="m56.934383 94.050545l18.89764 0l0 18.897636l-18.89764 0z" fill-rule="evenodd"/><path stroke="#f3f3f3" stroke-width="1.0" stroke-linejoin="round" stroke-linecap="butt" d="m56.934383 94.050545l18.89764 0l0 18.897636l-18.89764 0z" fill-rule="evenodd"/><path fill="#000000" fill-opacity="0.0" d="m56.934383 112.94818l18.89764 0l0 18.897629l-18.89764 0z" fill-rule="evenodd"/><path stroke="#f3f3f3" stroke-width="1.0" stroke-linejoin="round" stroke-linecap="butt" d="m56.934383 112.94818l18.89764 0l0 18.897629l-18.89764 0z" fill-rule="evenodd"/><path fill="#000000" fill-opacity="0.0" d="m56.934383 131.84581l18.89764 0l0 18.897644l-18.89764 0z" fill-rule="evenodd"/><path stroke="#f3f3f3" stroke-width="1.0" stroke-linejoin="round" stroke-linecap="butt" d="m56.934383 131.84581l18.89764 0l0 18.897644l-18.89764 0z" fill-rule="evenodd"/><path fill="#000000" fill-opacity="0.0" d="m56.934383 150.74345l18.89764 0l0 18.897644l-18.89764 0z" fill-rule="evenodd"/><path stroke="#f3f3f3" stroke-width="1.0" stroke-linejoin="round" stroke-linecap="butt" d="m56.934383 150.74345l18.89764 0l0 18.897644l-18.89764 0z" fill-rule="evenodd"/><path fill="#000000" fill-opacity="0.0" d="m75.83202 94.050545l18.897636 0l0 18.897636l-18.897636 0z" fill-rule="evenodd"/><path stroke="#f3f3f3" stroke-width="1.0" stroke-linejoin="round" stroke-linecap="butt" d="m75.83202 94.050545l18.897636 0l0 18.897636l-18.897636 0z" fill-rule="evenodd"/><path fill="#000000" fill-opacity="0.0" d="m75.83202 112.94818l18.897636 0l0 18.897629l-18.897636 0z" fill-rule="evenodd"/><path stroke="#f3f3f3" stroke-width="1.0" stroke-linejoin="round" stroke-linecap="butt" d="m75.83202 112.94818l18.897636 0l0 18.897629l-18.897636 0z" fill-rule="evenodd"/><path fill="#000000" fill-opacity="0.0" d="m75.83202 131.84581l18.897636 0l0 18.897644l-18.897636 0z" fill-rule="evenodd"/><path stroke="#f3f3f3" stroke-width="1.0" stroke-linejoin="round" stroke-linecap="butt" d="m75.83202 131.84581l18.897636 0l0 18.897644l-18.897636 0z" fill-rule="evenodd"/><path fill="#000000" fill-opacity="0.0" d="m75.83202 150.74345l18.897636 0l0 18.897644l-18.897636 0z" fill-rule="evenodd"/><path stroke="#f3f3f3" stroke-width="1.0" stroke-linejoin="round" stroke-linecap="butt" d="m75.83202 150.74345l18.897636 0l0 18.897644l-18.897636 0z" fill-rule="evenodd"/><path fill="#000000" fill-opacity="0.0" d="m94.72966 94.050545l18.897636 0l0 18.897636l-18.897636 0z" fill-rule="evenodd"/><path stroke="#f3f3f3" stroke-width="1.0" stroke-linejoin="round" stroke-linecap="butt" d="m94.72966 94.050545l18.897636 0l0 18.897636l-18.897636 0z" fill-rule="evenodd"/><path fill="#000000" fill-opacity="0.0" d="m94.72966 112.94818l18.897636 0l0 18.897629l-18.897636 0z" fill-rule="evenodd"/><path stroke="#f3f3f3" stroke-width="1.0" stroke-linejoin="round" stroke-linecap="butt" d="m94.72966 112.94818l18.897636 0l0 18.897629l-18.897636 0z" fill-rule="evenodd"/><path fill="#000000" fill-opacity="0.0" d="m94.72966 131.84581l18.897636 0l0 18.897644l-18.897636 0z" fill-rule="evenodd"/><path stroke="#f3f3f3" stroke-width="1.0" stroke-linejoin="round" stroke-linecap="butt" d="m94.72966 131.84581l18.897636 0l0 18.897644l-18.897636 0z" fill-rule="evenodd"/><path fill="#000000" fill-opacity="0.0" d="m94.72966 150.74345l18.897636 0l0 18.897644l-18.897636 0z" fill-rule="evenodd"/><path stroke="#f3f3f3" stroke-width="1.0" stroke-linejoin="round" stroke-linecap="butt" d="m94.72966 150.74345l18.897636 0l0 18.897644l-18.897636 0z" fill-rule="evenodd"/><path fill="#000000" fill-opacity="0.0" d="m113.6273 94.050545l18.897636 0l0 18.897636l-18.897636 0z" fill-rule="evenodd"/><path stroke="#f3f3f3" stroke-width="1.0" stroke-linejoin="round" stroke-linecap="butt" d="m113.6273 94.050545l18.897636 0l0 18.897636l-18.897636 0z" fill-rule="evenodd"/><path fill="#000000" fill-opacity="0.0" d="m113.6273 112.94818l18.897636 0l0 18.897629l-18.897636 0z" fill-rule="evenodd"/><path stroke="#f3f3f3" stroke-width="1.0" stroke-linejoin="round" stroke-linecap="butt" d="m113.6273 112.94818l18.897636 0l0 18.897629l-18.897636 0z" fill-rule="evenodd"/><path fill="#000000" fill-opacity="0.0" d="m113.6273 131.84581l18.897636 0l0 18.897644l-18.897636 0z" fill-rule="evenodd"/><path stroke="#f3f3f3" stroke-width="1.0" stroke-linejoin="round" stroke-linecap="butt" d="m113.6273 131.84581l18.897636 0l0 18.897644l-18.897636 0z" fill-rule="evenodd"/><path fill="#000000" fill-opacity="0.0" d="m0.24146982 169.83006l18.897636 0l0 18.897644l-18.897636 0z" fill-rule="evenodd"/><path stroke="#f3f3f3" stroke-width="1.0" stroke-linejoin="round" stroke-linecap="butt" d="m0.24146982 169.83006l18.897636 0l0 18.897644l-18.897636 0z" fill-rule="evenodd"/><path fill="#000000" fill-opacity="0.0" d="m19.139107 169.83006l18.89764 0l0 18.897644l-18.89764 0z" fill-rule="evenodd"/><path stroke="#f3f3f3" stroke-width="1.0" stroke-linejoin="round" stroke-linecap="butt" d="m19.139107 169.83006l18.89764 0l0 18.897644l-18.89764 0z" fill-rule="evenodd"/><path fill="#000000" fill-opacity="0.0" d="m38.036747 169.83006l18.897636 0l0 18.897644l-18.897636 0z" fill-rule="evenodd"/><path stroke="#f3f3f3" stroke-width="1.0" stroke-linejoin="round" stroke-linecap="butt" d="m38.036747 169.83006l18.897636 0l0 18.897644l-18.897636 0z" fill-rule="evenodd"/><path fill="#000000" fill-opacity="0.0" d="m56.934383 169.83006l18.89764 0l0 18.897644l-18.89764 0z" fill-rule="evenodd"/><path stroke="#f3f3f3" stroke-width="1.0" stroke-linejoin="round" stroke-linecap="butt" d="m56.934383 169.83006l18.89764 0l0 18.897644l-18.89764 0z" fill-rule="evenodd"/><path fill="#000000" fill-opacity="0.0" d="m75.83202 169.83006l18.897636 0l0 18.897644l-18.897636 0z" fill-rule="evenodd"/><path stroke="#f3f3f3" stroke-width="1.0" stroke-linejoin="round" stroke-linecap="butt" d="m75.83202 169.83006l18.897636 0l0 18.897644l-18.897636 0z" fill-rule="evenodd"/><path fill="#000000" fill-opacity="0.0" d="m94.72966 169.83006l18.897636 0l0 18.897644l-18.897636 0z" fill-rule="evenodd"/><path stroke="#f3f3f3" stroke-width="1.0" stroke-linejoin="round" stroke-linecap="butt" d="m94.72966 169.83006l18.897636 0l0 18.897644l-18.897636 0z" fill-rule="evenodd"/><path fill="#000000" fill-opacity="0.0" d="m132.52493 94.050545l18.897644 0l0 18.897636l-18.897644 0z" fill-rule="evenodd"/><path stroke="#f3f3f3" stroke-width="1.0" stroke-linejoin="round" stroke-linecap="butt" d="m132.52493 94.050545l18.897644 0l0 18.897636l-18.897644 0z" fill-rule="evenodd"/><path fill="#000000" fill-opacity="0.0" d="m132.52493 112.94818l18.897644 0l0 18.897629l-18.897644 0z" fill-rule="evenodd"/><path stroke="#f3f3f3" stroke-width="1.0" stroke-linejoin="round" stroke-linecap="butt" d="m132.52493 112.94818l18.897644 0l0 18.897629l-18.897644 0z" fill-rule="evenodd"/><path fill="#000000" fill-opacity="0.0" d="m132.52493 131.84581l18.897644 0l0 18.897644l-18.897644 0z" fill-rule="evenodd"/><path stroke="#f3f3f3" stroke-width="1.0" stroke-linejoin="round" stroke-linecap="butt" d="m132.52493 131.84581l18.897644 0l0 18.897644l-18.897644 0z" fill-rule="evenodd"/><path fill="#000000" fill-opacity="0.0" d="m113.88256 150.74345l18.897636 0l0 18.897644l-18.897636 0z" fill-rule="evenodd"/><path stroke="#f3f3f3" stroke-width="1.0" stroke-linejoin="round" stroke-linecap="butt" d="m113.88256 150.74345l18.897636 0l0 18.897644l-18.897636 0z" fill-rule="evenodd"/><path fill="#000000" fill-opacity="0.0" d="m132.7802 150.74345l18.897644 0l0 18.897644l-18.897644 0z" fill-rule="evenodd"/><path stroke="#f3f3f3" stroke-width="1.0" stroke-linejoin="round" stroke-linecap="butt" d="m132.7802 150.74345l18.897644 0l0 18.897644l-18.897644 0z" fill-rule="evenodd"/><path fill="#000000" fill-opacity="0.0" d="m113.88256 169.83006l18.897636 0l0 18.897644l-18.897636 0z" fill-rule="evenodd"/><path stroke="#f3f3f3" stroke-width="1.0" stroke-linejoin="round" stroke-linecap="butt" d="m113.88256 169.83006l18.897636 0l0 18.897644l-18.897636 0z" fill-rule="evenodd"/><path fill="#000000" fill-opacity="0.0" d="m132.7802 169.83006l18.897644 0l0 18.897644l-18.897644 0z" fill-rule="evenodd"/><path stroke="#f3f3f3" stroke-width="1.0" stroke-linejoin="round" stroke-linecap="butt" d="m132.7802 169.83006l18.897644 0l0 18.897644l-18.897644 0z" fill-rule="evenodd"/><path fill="#000000" fill-opacity="0.0" d="m151.65129 94.050545l18.897629 0l0 18.897636l-18.897629 0z" fill-rule="evenodd"/><path stroke="#f3f3f3" stroke-width="1.0" stroke-linejoin="round" stroke-linecap="butt" d="m151.65129 94.050545l18.897629 0l0 18.897636l-18.897629 0z" fill-rule="evenodd"/><path fill="#000000" fill-opacity="0.0" d="m151.65129 112.94818l18.897629 0l0 18.897629l-18.897629 0z" fill-rule="evenodd"/><path stroke="#f3f3f3" stroke-width="1.0" stroke-linejoin="round" stroke-linecap="butt" d="m151.65129 112.94818l18.897629 0l0 18.897629l-18.897629 0z" fill-rule="evenodd"/><path fill="#000000" fill-opacity="0.0" d="m151.65129 131.84581l18.897629 0l0 18.897644l-18.897629 0z" fill-rule="evenodd"/><path stroke="#f3f3f3" stroke-width="1.0" stroke-linejoin="round" stroke-linecap="butt" d="m151.65129 131.84581l18.897629 0l0 18.897644l-18.897629 0z" fill-rule="evenodd"/><path fill="#000000" fill-opacity="0.0" d="m151.90656 150.74345l18.897644 0l0 18.897644l-18.897644 0z" fill-rule="evenodd"/><path stroke="#f3f3f3" stroke-width="1.0" stroke-linejoin="round" stroke-linecap="butt" d="m151.90656 150.74345l18.897644 0l0 18.897644l-18.897644 0z" fill-rule="evenodd"/><path fill="#000000" fill-opacity="0.0" d="m151.90656 169.83006l18.897644 0l0 18.897644l-18.897644 0z" fill-rule="evenodd"/><path stroke="#f3f3f3" stroke-width="1.0" stroke-linejoin="round" stroke-linecap="butt" d="m151.90656 169.83006l18.897644 0l0 18.897644l-18.897644 0z" fill-rule="evenodd"/><path fill="#000000" fill-opacity="0.0" d="m18.897638 206.83891l18.897638 0l0 18.897644l-18.897638 0z" fill-rule="evenodd"/><path stroke="#f3f3f3" stroke-width="1.0" stroke-linejoin="round" stroke-linecap="butt" d="m18.897638 206.83891l18.897638 0l0 18.897644l-18.897638 0z" fill-rule="evenodd"/><path fill="#000000" fill-opacity="0.0" d="m18.897638 225.73656l18.897638 0l0 18.897644l-18.897638 0z" fill-rule="evenodd"/><path stroke="#f3f3f3" stroke-width="1.0" stroke-linejoin="round" stroke-linecap="butt" d="m18.897638 225.73656l18.897638 0l0 18.897644l-18.897638 0z" fill-rule="evenodd"/><path fill="#000000" fill-opacity="0.0" d="m0 187.94128l18.897638 0l0 18.897629l-18.897638 0z" fill-rule="evenodd"/><path stroke="#f3f3f3" stroke-width="1.0" stroke-linejoin="round" stroke-linecap="butt" d="m0 187.94128l18.897638 0l0 18.897629l-18.897638 0z" fill-rule="evenodd"/><path fill="#000000" fill-opacity="0.0" d="m0 206.83891l18.897638 0l0 18.897644l-18.897638 0z" fill-rule="evenodd"/><path stroke="#f3f3f3" stroke-width="1.0" stroke-linejoin="round" stroke-linecap="butt" d="m0 206.83891l18.897638 0l0 18.897644l-18.897638 0z" fill-rule="evenodd"/><path fill="#000000" fill-opacity="0.0" d="m0 225.73656l18.897638 0l0 18.897644l-18.897638 0z" fill-rule="evenodd"/><path stroke="#f3f3f3" stroke-width="1.0" stroke-linejoin="round" stroke-linecap="butt" d="m0 225.73656l18.897638 0l0 18.897644l-18.897638 0z" fill-rule="evenodd"/><path fill="#000000" fill-opacity="0.0" d="m18.897638 187.94128l18.897638 0l0 18.897629l-18.897638 0z" fill-rule="evenodd"/><path stroke="#f3f3f3" stroke-width="1.0" stroke-linejoin="round" stroke-linecap="butt" d="m18.897638 187.94128l18.897638 0l0 18.897629l-18.897638 0z" fill-rule="evenodd"/><path fill="#000000" fill-opacity="0.0" d="m37.795277 187.94128l18.897636 0l0 18.897629l-18.897636 0z" fill-rule="evenodd"/><path stroke="#f3f3f3" stroke-width="1.0" stroke-linejoin="round" stroke-linecap="butt" d="m37.795277 187.94128l18.897636 0l0 18.897629l-18.897636 0z" fill-rule="evenodd"/><path fill="#000000" fill-opacity="0.0" d="m37.795277 206.83891l18.897636 0l0 18.897644l-18.897636 0z" fill-rule="evenodd"/><path stroke="#f3f3f3" stroke-width="1.0" stroke-linejoin="round" stroke-linecap="butt" d="m37.795277 206.83891l18.897636 0l0 18.897644l-18.897636 0z" fill-rule="evenodd"/><path fill="#000000" fill-opacity="0.0" d="m37.795277 225.73656l18.897636 0l0 18.897644l-18.897636 0z" fill-rule="evenodd"/><path stroke="#f3f3f3" stroke-width="1.0" stroke-linejoin="round" stroke-linecap="butt" d="m37.795277 225.73656l18.897636 0l0 18.897644l-18.897636 0z" fill-rule="evenodd"/><path fill="#000000" fill-opacity="0.0" d="m56.692913 187.94128l18.89764 0l0 18.897629l-18.89764 0z" fill-rule="evenodd"/><path stroke="#f3f3f3" stroke-width="1.0" stroke-linejoin="round" stroke-linecap="butt" d="m56.692913 187.94128l18.89764 0l0 18.897629l-18.89764 0z" fill-rule="evenodd"/><path fill="#000000" fill-opacity="0.0" d="m56.692913 206.83891l18.89764 0l0 18.897644l-18.89764 0z" fill-rule="evenodd"/><path stroke="#f3f3f3" stroke-width="1.0" stroke-linejoin="round" stroke-linecap="butt" d="m56.692913 206.83891l18.89764 0l0 18.897644l-18.89764 0z" fill-rule="evenodd"/><path fill="#000000" fill-opacity="0.0" d="m56.692913 225.73656l18.89764 0l0 18.897644l-18.89764 0z" fill-rule="evenodd"/><path stroke="#f3f3f3" stroke-width="1.0" stroke-linejoin="round" stroke-linecap="butt" d="m56.692913 225.73656l18.89764 0l0 18.897644l-18.89764 0z" fill-rule="evenodd"/><path fill="#000000" fill-opacity="0.0" d="m75.59055 187.94128l18.897636 0l0 18.897629l-18.897636 0z" fill-rule="evenodd"/><path stroke="#f3f3f3" stroke-width="1.0" stroke-linejoin="round" stroke-linecap="butt" d="m75.59055 187.94128l18.897636 0l0 18.897629l-18.897636 0z" fill-rule="evenodd"/><path fill="#000000" fill-opacity="0.0" d="m75.59055 206.83891l18.897636 0l0 18.897644l-18.897636 0z" fill-rule="evenodd"/><path stroke="#f3f3f3" stroke-width="1.0" stroke-linejoin="round" stroke-linecap="butt" d="m75.59055 206.83891l18.897636 0l0 18.897644l-18.897636 0z" fill-rule="evenodd"/><path fill="#000000" fill-opacity="0.0" d="m75.59055 225.73656l18.897636 0l0 18.897644l-18.897636 0z" fill-rule="evenodd"/><path stroke="#f3f3f3" stroke-width="1.0" stroke-linejoin="round" stroke-linecap="butt" d="m75.59055 225.73656l18.897636 0l0 18.897644l-18.897636 0z" fill-rule="evenodd"/><path fill="#000000" fill-opacity="0.0" d="m94.48819 187.94128l18.897636 0l0 18.897629l-18.897636 0z" fill-rule="evenodd"/><path stroke="#f3f3f3" stroke-width="1.0" stroke-linejoin="round" stroke-linecap="butt" d="m94.48819 187.94128l18.897636 0l0 18.897629l-18.897636 0z" fill-rule="evenodd"/><path fill="#000000" fill-opacity="0.0" d="m94.48819 206.83891l18.897636 0l0 18.897644l-18.897636 0z" fill-rule="evenodd"/><path stroke="#f3f3f3" stroke-width="1.0" stroke-linejoin="round" stroke-linecap="butt" d="m94.48819 206.83891l18.897636 0l0 18.897644l-18.897636 0z" fill-rule="evenodd"/><path fill="#000000" fill-opacity="0.0" d="m94.48819 225.73656l18.897636 0l0 18.897644l-18.897636 0z" fill-rule="evenodd"/><path stroke="#f3f3f3" stroke-width="1.0" stroke-linejoin="round" stroke-linecap="butt" d="m94.48819 225.73656l18.897636 0l0 18.897644l-18.897636 0z" fill-rule="evenodd"/><path fill="#000000" fill-opacity="0.0" d="m113.385826 187.94128l18.897636 0l0 18.897629l-18.897636 0z" fill-rule="evenodd"/><path stroke="#f3f3f3" stroke-width="1.0" stroke-linejoin="round" stroke-linecap="butt" d="m113.385826 187.94128l18.897636 0l0 18.897629l-18.897636 0z" fill-rule="evenodd"/><path fill="#000000" fill-opacity="0.0" d="m113.385826 206.83891l18.897636 0l0 18.897644l-18.897636 0z" fill-rule="evenodd"/><path stroke="#f3f3f3" stroke-width="1.0" stroke-linejoin="round" stroke-linecap="butt" d="m113.385826 206.83891l18.897636 0l0 18.897644l-18.897636 0z" fill-rule="evenodd"/><path fill="#000000" fill-opacity="0.0" d="m113.385826 225.73656l18.897636 0l0 18.897644l-18.897636 0z" fill-rule="evenodd"/><path stroke="#f3f3f3" stroke-width="1.0" stroke-linejoin="round" stroke-linecap="butt" d="m113.385826 225.73656l18.897636 0l0 18.897644l-18.897636 0z" fill-rule="evenodd"/><path fill="#000000" fill-opacity="0.0" d="m132.28346 187.94128l18.897644 0l0 18.897629l-18.897644 0z" fill-rule="evenodd"/><path stroke="#f3f3f3" stroke-width="1.0" stroke-linejoin="round" stroke-linecap="butt" d="m132.28346 187.94128l18.897644 0l0 18.897629l-18.897644 0z" fill-rule="evenodd"/><path fill="#000000" fill-opacity="0.0" d="m132.28346 206.83891l18.897644 0l0 18.897644l-18.897644 0z" fill-rule="evenodd"/><path stroke="#f3f3f3" stroke-width="1.0" stroke-linejoin="round" stroke-linecap="butt" d="m132.28346 206.83891l18.897644 0l0 18.897644l-18.897644 0z" fill-rule="evenodd"/><path fill="#000000" fill-opacity="0.0" d="m132.28346 225.73656l18.897644 0l0 18.897644l-18.897644 0z" fill-rule="evenodd"/><path stroke="#f3f3f3" stroke-width="1.0" stroke-linejoin="round" stroke-linecap="butt" d="m132.28346 225.73656l18.897644 0l0 18.897644l-18.897644 0z" fill-rule="evenodd"/><path fill="#000000" fill-opacity="0.0" d="m151.40982 187.94128l18.897629 0l0 18.897629l-18.897629 0z" fill-rule="evenodd"/><path stroke="#f3f3f3" stroke-width="1.0" stroke-linejoin="round" stroke-linecap="butt" d="m151.40982 187.94128l18.897629 0l0 18.897629l-18.897629 0z" fill-rule="evenodd"/><path fill="#000000" fill-opacity="0.0" d="m151.40982 206.83891l18.897629 0l0 18.897644l-18.897629 0z" fill-rule="evenodd"/><path stroke="#f3f3f3" stroke-width="1.0" stroke-linejoin="round" stroke-linecap="butt" d="m151.40982 206.83891l18.897629 0l0 18.897644l-18.897629 0z" fill-rule="evenodd"/><path fill="#000000" fill-opacity="0.0" d="m151.40982 225.73656l18.897629 0l0 18.897644l-18.897629 0z" fill-rule="evenodd"/><path stroke="#f3f3f3" stroke-width="1.0" stroke-linejoin="round" stroke-linecap="butt" d="m151.40982 225.73656l18.897629 0l0 18.897644l-18.897629 0z" fill-rule="evenodd"/><path fill="#000000" fill-opacity="0.0" d="m18.897638 38.17323l132.28346 -0.37795258" fill-rule="evenodd"/><path stroke="#cccccc" stroke-width="1.0" stroke-linejoin="round" stroke-linecap="butt" d="m18.897638 38.17323l126.283485 -0.36081314" fill-rule="evenodd"/><path fill="#cccccc" stroke="#cccccc" stroke-width="1.0" stroke-linecap="butt" d="m145.18585 39.464146l4.5333557 -1.6646919l-4.542801 -1.6387596z" fill-rule="evenodd"/><path fill="#ffffff" d="m37.795277 18.897638l94.48819 0l0 37.795273l-94.48819 0z" fill-rule="evenodd"/><path stroke="#000000" stroke-width="1.0" stroke-linejoin="round" stroke-linecap="butt" stroke-dasharray="4.0,3.0" d="m37.795277 18.897638l94.48819 0l0 37.795273l-94.48819 0z" fill-rule="evenodd"/><path fill="#000000" d="m58.648746 39.82715l1.59375 0l0 1.1875l-1.59375 0l0 2.640625l-1.4375 0l0 -2.640625l-5.1875 0l0 -0.859375l5.09375 -7.875l1.53125 0l0 7.546875zm-5.03125 0l3.59375 0l0 -5.625l-0.234375 0.4375l-3.359375 5.1875zm15.757809 3.828125l-7.453121 0l0 -1.046875l3.7187462 -4.140625q0.5 -0.546875 0.828125 -0.96875q0.34375 -0.4375 0.546875 -0.796875q0.203125 -0.375 0.28125 -0.6875q0.09375 -0.328125 0.09375 -0.671875q0 -0.421875 -0.140625 -0.796875q-0.125 -0.375 -0.390625 -0.640625q-0.265625 -0.28125 -0.640625 -0.4375q-0.359375 -0.15625 -0.828125 -0.15625q-0.578125 0 -1.0 0.171875q-0.4062462 0.15625 -0.6874962 0.453125q-0.28125 0.296875 -0.421875 0.734375q-0.125 0.421875 -0.125 0.953125l-1.453125 0q0 -0.71875 0.25 -1.34375q0.25 -0.640625 0.71875 -1.109375q0.46875 -0.484375 1.15625 -0.765625q0.6874962 -0.28125 1.5624962 -0.28125q0.796875 0 1.4375 0.234375q0.65625 0.234375 1.09375 0.65625q0.453125 0.421875 0.6875 1.0q0.234375 0.578125 0.234375 1.265625q0 0.5 -0.171875 1.0q-0.171875 0.5 -0.46875 0.984375q-0.28125 0.484375 -0.671875 0.953125q-0.390625 0.46875 -0.8125 0.9375l-3.0624962 3.3125l5.718746 0l0 1.1875zm4.7734375 0l0 -7.34375l-2.328125 0l0 -1.109375l2.328125 0l0 -0.59375q0 -0.8125 0.234375 -1.421875q0.25 -0.625 0.671875 -1.03125q0.4375 -0.4218731 1.046875 -0.6249981q0.609375 -0.21875 1.359375 -0.21875q0.515625 0 1.0 0.09375q0.5 0.078125 1.015625 0.21875l-0.171875 1.1874981q-0.328125 -0.109375 -0.75 -0.1875q-0.421875 -0.078125 -0.90625 -0.078125q-1.015625 0 -1.53125 0.515625q-0.515625 0.5 -0.515625 1.546875l0 0.59375l3.265625 0l0 1.109375l-3.265625 0l0 7.34375l-1.453125 0zm13.0 -8.609375q0.203125 0 0.421875 0.015625q0.21875 0 0.40625 0.03125q0.203125 0.03125 0.375 0.078125q0.171875 0.03125 0.28125 0.078125l-0.203125 1.40625q-0.421875 -0.09375 -0.796875 -0.125q-0.375 -0.046875 -0.796875 -0.046875q-1.015625 0 -1.640625 0.46875q-0.625 0.453125 -0.921875 1.28125l0 5.421875l-1.453125 0l0 -8.453125l1.375 0l0.0625 1.34375q0.515625 -0.703125 1.234375 -1.09375q0.734375 -0.40625 1.65625 -0.40625zm9.6171875 8.609375q-0.09375 -0.171875 -0.140625 -0.40625q-0.046875 -0.25 -0.078125 -0.515625q-0.21875 0.21875 -0.484375 0.421875q-0.265625 0.1875 -0.59375 0.34375q-0.328125 0.140625 -0.703125 0.21875q-0.359375 0.09375 -0.765625 0.09375q-0.671875 0 -1.21875 -0.1875q-0.546875 -0.203125 -0.921875 -0.53125q-0.375 -0.34375 -0.59375 -0.796875q-0.203125 -0.453125 -0.203125 -0.984375q0 -0.703125 0.28125 -1.21875q0.28125 -0.53125 0.78125 -0.875q0.515625 -0.34375 1.21875 -0.515625q0.71875 -0.171875 1.609375 -0.171875l1.578125 0l0 -0.671875q0 -0.375 -0.140625 -0.671875q-0.140625 -0.3125 -0.40625 -0.53125q-0.25 -0.21875 -0.625 -0.328125q-0.375 -0.125 -0.828125 -0.125q-0.4375 0 -0.78125 0.109375q-0.328125 0.109375 -0.5625 0.296875q-0.234375 0.171875 -0.375 0.421875q-0.125 0.25 -0.125 0.515625l-1.453125 0q0.015625 -0.46875 0.234375 -0.90625q0.234375 -0.453125 0.671875 -0.796875q0.4375 -0.359375 1.046875 -0.578125q0.625 -0.21875 1.421875 -0.21875q0.71875 0 1.328125 0.171875q0.625 0.171875 1.0625 0.53125q0.453125 0.359375 0.703125 0.890625q0.265625 0.53125 0.265625 1.234375l0 3.9375q0 0.421875 0.078125 0.890625q0.078125 0.46875 0.21875 0.828125l0 0.125l-1.5 0zm-2.5625 -1.109375q0.421875 0 0.78125 -0.109375q0.375 -0.109375 0.671875 -0.28125q0.3125 -0.1875 0.53125 -0.40625q0.21875 -0.234375 0.34375 -0.484375l0 -1.71875l-1.34375 0q-1.265625 0 -1.96875 0.375q-0.703125 0.375 -0.703125 1.1875q0 0.3125 0.09375 0.578125q0.109375 0.265625 0.3125 0.453125q0.21875 0.1875 0.53125 0.296875q0.328125 0.109375 0.75 0.109375zm7.2734375 -7.34375l0.03125 0.796875q0.265625 -0.453125 0.671875 -0.703125q0.421875 -0.25 1.015625 -0.25q1.171875 0 1.5625 0.90625q0.25 -0.40625 0.65625 -0.65625q0.40625 -0.25 1.0 -0.25q0.921875 0 1.421875 0.578125q0.5 0.5625 0.5 1.71875l0 6.3125l-1.375 0l0 -6.328125q0 -1.0625 -0.96875 -1.0625q-0.265625 0 -0.453125 0.078125q-0.1875 0.0625 -0.3125 0.1875q-0.125 0.125 -0.203125 0.28125q-0.0625 0.15625 -0.078125 0.328125l0 6.515625l-1.375 0l0 -6.34375q0 -0.5 -0.234375 -0.765625q-0.21875 -0.28125 -0.71875 -0.28125q-0.453125 0 -0.703125 0.1875q-0.25 0.171875 -0.359375 0.46875l0 6.734375l-1.375 0l0 -8.453125l1.296875 0zm12.6640625 8.609375q-0.890625 0 -1.640625 -0.296875q-0.734375 -0.3125 -1.265625 -0.859375q-0.53125 -0.546875 -0.828125 -1.296875q-0.296875 -0.75 -0.296875 -1.640625l0 -0.328125q0 -1.015625 0.328125 -1.828125q0.328125 -0.8125 0.859375 -1.359375q0.546875 -0.5625 1.234375 -0.859375q0.703125 -0.296875 1.421875 -0.296875q0.921875 0 1.59375 0.3125q0.6875 0.3125 1.140625 0.875q0.453125 0.5625 0.671875 1.328125q0.234375 0.75 0.234375 1.625l0 0.65625l-6.046875 0q0.03125 0.578125 0.21875 1.09375q0.203125 0.5 0.546875 0.875q0.359375 0.375 0.84375 0.59375q0.484375 0.21875 1.0625 0.21875q0.78125 0 1.375 -0.3125q0.609375 -0.3125 1.0 -0.828125l0.890625 0.6875q-0.21875 0.328125 -0.53125 0.625q-0.3125 0.28125 -0.734375 0.515625q-0.40625 0.21875 -0.9375 0.359375q-0.515625 0.140625 -1.140625 0.140625zm-0.1875 -7.578125q-0.4375 0 -0.828125 0.15625q-0.390625 0.15625 -0.703125 0.46875q-0.3125 0.3125 -0.53125 0.765625q-0.203125 0.4375 -0.296875 1.03125l4.546875 0l0 -0.109375q-0.015625 -0.421875 -0.15625 -0.828125q-0.140625 -0.421875 -0.40625 -0.75q-0.265625 -0.328125 -0.671875 -0.53125q-0.390625 -0.203125 -0.953125 -0.203125z" fill-rule="nonzero"/><path fill="#000000" fill-opacity="0.0" d="m18.897638 94.86614l132.28346 -0.37795258" fill-rule="evenodd"/><path stroke="#cccccc" stroke-width="1.0" stroke-linejoin="round" stroke-linecap="butt" d="m18.897638 94.86614l126.283485 -0.36080933" fill-rule="evenodd"/><path fill="#cccccc" stroke="#cccccc" stroke-width="1.0" stroke-linecap="butt" d="m145.18585 96.15706l4.5333557 -1.6646957l-4.542801 -1.6387558z" fill-rule="evenodd"/><path fill="#ffffff" d="m37.795277 75.59055l94.48819 0l0 37.795273l-94.48819 0z" fill-rule="evenodd"/><path stroke="#000000" stroke-width="1.0" stroke-linejoin="round" stroke-linecap="butt" stroke-dasharray="4.0,3.0" d="m37.795277 75.59055l94.48819 0l0 37.795273l-94.48819 0z" fill-rule="evenodd"/><path fill="#000000" d="m73.05499 96.520065l1.59375 0l0 1.1875l-1.59375 0l0 2.640625l-1.4375 0l0 -2.640625l-5.1875 0l0 -0.859375l5.09375 -7.875l1.53125 0l0 7.546875zm-5.03125 0l3.59375 0l0 -5.625l-0.234375 0.4375l-3.359375 5.1875zm15.7578125 3.828125l-7.453125 0l0 -1.046875l3.71875 -4.140625q0.5 -0.546875 0.828125 -0.96875q0.34375 -0.4375 0.546875 -0.796875q0.203125 -0.375 0.28125 -0.6875q0.09375 -0.328125 0.09375 -0.671875q0 -0.421875 -0.140625 -0.796875q-0.125 -0.375 -0.390625 -0.640625q-0.265625 -0.28125 -0.640625 -0.4375q-0.359375 -0.15625 -0.828125 -0.15625q-0.578125 0 -1.0 0.171875q-0.40625 0.15625 -0.6875 0.453125q-0.28125 0.296875 -0.421875 0.734375q-0.125 0.421875 -0.125 0.953125l-1.453125 0q0 -0.71875 0.25 -1.34375q0.25 -0.640625 0.71875 -1.109375q0.46875 -0.484375 1.15625 -0.765625q0.6875 -0.28125 1.5625 -0.28125q0.796875 0 1.4375 0.234375q0.65625 0.234375 1.09375 0.65625q0.453125 0.421875 0.6875 1.0q0.234375 0.578125 0.234375 1.265625q0 0.5 -0.171875 1.0q-0.171875 0.5 -0.46875 0.984375q-0.28125 0.484375 -0.671875 0.953125q-0.390625 0.46875 -0.8125 0.9375l-3.0625 3.3125l5.71875 0l0 1.1875zm3.2890625 -8.453125l0.03125 0.796875q0.265625 -0.453125 0.671875 -0.703125q0.421875 -0.25 1.015625 -0.25q1.171875 0 1.5625 0.90625q0.25 -0.40625 0.65625 -0.65625q0.40625 -0.25 1.0 -0.25q0.921875 0 1.421875 0.578125q0.5 0.5625 0.5 1.71875l0 6.3125l-1.375 0l0 -6.328125q0 -1.0625 -0.96875 -1.0625q-0.265625 0 -0.453125 0.078125q-0.1875 0.0625 -0.3125 0.1875q-0.125 0.125 -0.203125 0.28125q-0.0625 0.15625 -0.078125 0.328125l0 6.515625l-1.375 0l0 -6.34375q0 -0.5 -0.234375 -0.765625q-0.21875 -0.28125 -0.71875 -0.28125q-0.453125 0 -0.703125 0.1875q-0.25 0.171875 -0.359375 0.46875l0 6.734375l-1.375 0l0 -8.453125l1.296875 0zm14.5546875 6.203125q0 -0.25 -0.109375 -0.453125q-0.09375 -0.21875 -0.34375 -0.390625q-0.234375 -0.171875 -0.640625 -0.3125q-0.390625 -0.140625 -0.984375 -0.265625q-0.734375 -0.140625 -1.328125 -0.34375q-0.59375 -0.21875 -1.03125 -0.515625q-0.421875 -0.296875 -0.65625 -0.6875q-0.234375 -0.390625 -0.234375 -0.921875q0 -0.515625 0.234375 -0.953125q0.25 -0.453125 0.6875 -0.78125q0.4375 -0.34375 1.046875 -0.53125q0.609375 -0.203125 1.328125 -0.203125q0.78125 0 1.40625 0.203125q0.625 0.203125 1.0625 0.5625q0.4375 0.359375 0.671875 0.84375q0.25 0.46875 0.25 1.03125l-1.453125 0q0 -0.28125 -0.140625 -0.53125q-0.140625 -0.265625 -0.390625 -0.46875q-0.25 -0.203125 -0.609375 -0.328125q-0.34375 -0.125 -0.796875 -0.125q-0.453125 0 -0.8125 0.109375q-0.34375 0.09375 -0.578125 0.265625q-0.21875 0.171875 -0.34375 0.40625q-0.109375 0.21875 -0.109375 0.453125q0 0.25 0.09375 0.453125q0.09375 0.1875 0.3125 0.34375q0.234375 0.15625 0.625 0.28125q0.390625 0.125 0.984375 0.25q0.78125 0.15625 1.390625 0.375q0.625 0.21875 1.046875 0.515625q0.421875 0.296875 0.640625 0.703125q0.21875 0.390625 0.21875 0.921875q0 0.5625 -0.25 1.03125q-0.25 0.453125 -0.703125 0.78125q-0.453125 0.328125 -1.09375 0.515625q-0.625 0.171875 -1.375 0.171875q-0.859375 0 -1.53125 -0.234375q-0.671875 -0.234375 -1.140625 -0.609375q-0.46875 -0.375 -0.71875 -0.875q-0.234375 -0.5 -0.234375 -1.046875l1.4375 0q0.03125 0.453125 0.234375 0.765625q0.21875 0.296875 0.515625 0.484375q0.3125 0.1875 0.6875 0.265625q0.375 0.078125 0.75 0.078125q0.90625 0 1.4375 -0.328125q0.53125 -0.34375 0.546875 -0.90625z" fill-rule="nonzero"/><path fill="#000000" fill-opacity="0.0" d="m18.897638 151.55905l132.28346 -0.37794495" fill-rule="evenodd"/><path stroke="#cccccc" stroke-width="1.0" stroke-linejoin="round" stroke-linecap="butt" d="m18.897638 151.55905l126.283485 -0.36080933" fill-rule="evenodd"/><path fill="#cccccc" stroke="#cccccc" stroke-width="1.0" stroke-linecap="butt" d="m145.18585 152.84998l4.5333557 -1.6647034l-4.542801 -1.6387482z" fill-rule="evenodd"/><path fill="#ffffff" d="m37.795277 132.28346l94.48819 0l0 37.795273l-94.48819 0z" fill-rule="evenodd"/><path stroke="#000000" stroke-width="1.0" stroke-linejoin="round" stroke-linecap="butt" stroke-dasharray="4.0,3.0" d="m37.795277 132.28346l94.48819 0l0 37.795273l-94.48819 0z" fill-rule="evenodd"/><path fill="#000000" d="m58.652653 153.21298l1.59375 0l0 1.1875l-1.59375 0l0 2.640625l-1.4375 0l0 -2.640625l-5.1875 0l0 -0.859375l5.09375 -7.875l1.53125 0l0 7.546875zm-5.03125 0l3.59375 0l0 -5.625l-0.234375 0.4375l-3.359375 5.1875zm15.757809 3.828125l-7.453121 0l0 -1.046875l3.7187462 -4.140625q0.5 -0.546875 0.828125 -0.96875q0.34375 -0.4375 0.546875 -0.796875q0.203125 -0.375 0.28125 -0.6875q0.09375 -0.328125 0.09375 -0.671875q0 -0.421875 -0.140625 -0.796875q-0.125 -0.375 -0.390625 -0.640625q-0.265625 -0.28125 -0.640625 -0.4375q-0.359375 -0.15625 -0.828125 -0.15625q-0.578125 0 -1.0 0.171875q-0.4062462 0.15625 -0.6874962 0.453125q-0.28125 0.296875 -0.421875 0.734375q-0.125 0.421875 -0.125 0.953125l-1.453125 0q0 -0.71875 0.25 -1.34375q0.25 -0.640625 0.71875 -1.109375q0.46875 -0.484375 1.15625 -0.765625q0.6874962 -0.28125 1.5624962 -0.28125q0.796875 0 1.4375 0.234375q0.65625 0.234375 1.09375 0.65625q0.453125 0.421875 0.6875 1.0q0.234375 0.578125 0.234375 1.265625q0 0.5 -0.171875 1.0q-0.171875 0.5 -0.46875 0.984375q-0.28125 0.484375 -0.671875 0.953125q-0.390625 0.46875 -0.8125 0.9375l-3.0624962 3.3125l5.718746 0l0 1.1875zm3.2890625 -8.453125l0.03125 0.796875q0.265625 -0.453125 0.671875 -0.703125q0.421875 -0.25 1.015625 -0.25q1.171875 0 1.5625 0.90625q0.25 -0.40625 0.65625 -0.65625q0.40625 -0.25 1.0 -0.25q0.921875 0 1.421875 0.578125q0.5 0.5625 0.5 1.71875l0 6.3125l-1.375 0l0 -6.328125q0 -1.0625 -0.96875 -1.0625q-0.265625 0 -0.453125 0.078125q-0.1875 0.0625 -0.3125 0.1875q-0.125 0.125 -0.203125 0.28125q-0.0625 0.15625 -0.078125 0.328125l0 6.515625l-1.375 0l0 -6.34375q0 -0.5 -0.234375 -0.765625q-0.21875 -0.28125 -0.71875 -0.28125q-0.453125 0 -0.703125 0.1875q-0.25 0.171875 -0.359375 0.46875l0 6.734375l-1.375 0l0 -8.453125l1.296875 0zm8.5234375 4.140625q0 -0.90625 0.265625 -1.6875q0.265625 -0.796875 0.765625 -1.375q0.5 -0.578125 1.203125 -0.90625q0.71875 -0.328125 1.609375 -0.328125q0.890625 0 1.609375 0.328125q0.71875 0.328125 1.203125 0.90625q0.5 0.578125 0.765625 1.375q0.265625 0.78125 0.265625 1.6875l0 0.171875q0 0.921875 -0.265625 1.703125q-0.265625 0.78125 -0.765625 1.359375q-0.484375 0.578125 -1.203125 0.90625q-0.703125 0.328125 -1.59375 0.328125q-0.90625 0 -1.625 -0.328125q-0.703125 -0.328125 -1.203125 -0.90625q-0.5 -0.578125 -0.765625 -1.359375q-0.265625 -0.78125 -0.265625 -1.703125l0 -0.171875zm1.453125 0.171875q0 0.625 0.140625 1.203125q0.15625 0.5625 0.453125 1.0q0.296875 0.421875 0.75 0.671875q0.453125 0.25 1.0625 0.25q0.59375 0 1.03125 -0.25q0.453125 -0.25 0.75 -0.671875q0.3125 -0.4375 0.453125 -1.0q0.15625 -0.578125 0.15625 -1.203125l0 -0.171875q0 -0.609375 -0.15625 -1.171875q-0.15625 -0.578125 -0.453125 -1.0q-0.296875 -0.4375 -0.75 -0.6875q-0.453125 -0.25 -1.046875 -0.25q-0.609375 0 -1.0625 0.25q-0.4375 0.25 -0.734375 0.6875q-0.296875 0.421875 -0.453125 1.0q-0.140625 0.5625 -0.140625 1.171875l0 0.171875zm9.8515625 -4.3125l0.109375 1.25q0.453125 -0.65625 1.125 -1.03125q0.671875 -0.375 1.5 -0.375q0.671875 0 1.203125 0.1875q0.546875 0.1875 0.921875 0.59375q0.390625 0.390625 0.59375 1.0q0.21875 0.609375 0.21875 1.453125l0 5.375l-1.453125 0l0 -5.34375q0 -0.5625 -0.125 -0.953125q-0.125 -0.390625 -0.375 -0.625q-0.234375 -0.25 -0.59375 -0.359375q-0.359375 -0.109375 -0.8125 -0.109375q-0.734375 0 -1.28125 0.375q-0.546875 0.359375 -0.875 0.953125l0 6.0625l-1.453125 0l0 -8.453125l1.296875 0zm11.7265625 -2.046875l0 2.046875l3.21875 0l0 1.109375l-3.21875 0l0 4.59375q0 0.5 0.125 0.828125q0.125 0.3125 0.34375 0.5q0.21875 0.1875 0.5 0.265625q0.296875 0.078125 0.609375 0.078125q0.234375 0 0.484375 -0.015625q0.25 -0.03125 0.484375 -0.0625q0.25 -0.046875 0.453125 -0.09375q0.203125 -0.046875 0.34375 -0.078125l0.203125 1.03125q-0.1875 0.109375 -0.453125 0.1875q-0.25 0.078125 -0.5625 0.140625q-0.296875 0.0625 -0.640625 0.09375q-0.328125 0.03125 -0.671875 0.03125q-0.5625 0 -1.046875 -0.15625q-0.484375 -0.171875 -0.84375 -0.515625q-0.359375 -0.34375 -0.578125 -0.890625q-0.203125 -0.5625 -0.203125 -1.34375l0 -4.59375l-2.21875 0l0 -1.109375l2.21875 0l0 -2.046875l1.453125 0zm7.6328125 3.296875q0.453125 -0.65625 1.109375 -1.03125q0.671875 -0.375 1.5 -0.375q0.65625 0 1.203125 0.1875q0.546875 0.1875 0.921875 0.59375q0.390625 0.40625 0.59375 1.03125q0.203125 0.625 0.203125 1.46875l0 5.328125l-1.4375 0l0 -5.34375q0 -1.03125 -0.5 -1.53125q-0.5 -0.515625 -1.421875 -0.515625q-0.6875 0 -1.265625 0.34375q-0.5625 0.34375 -0.90625 0.90625l0 6.140625l-1.453125 0l0 -12.0l1.453125 0l0 4.796875z" fill-rule="nonzero"/><path fill="#000000" fill-opacity="0.0" d="m18.897638 208.25197l132.28346 -0.3779602" fill-rule="evenodd"/><path stroke="#cccccc" stroke-width="1.0" stroke-linejoin="round" stroke-linecap="butt" d="m18.897638 208.25197l126.283485 -0.36080933" fill-rule="evenodd"/><path fill="#cccccc" stroke="#cccccc" stroke-width="1.0" stroke-linecap="butt" d="m145.18585 209.54288l4.5333557 -1.6646881l-4.542801 -1.6387634z" fill-rule="evenodd"/><path fill="#ffffff" d="m37.795277 188.97638l94.48819 0l0 37.795273l-94.48819 0z" fill-rule="evenodd"/><path stroke="#000000" stroke-width="1.0" stroke-linejoin="round" stroke-linecap="butt" stroke-dasharray="4.0,3.0" d="m37.795277 188.97638l94.48819 0l0 37.795273l-94.48819 0z" fill-rule="evenodd"/><path fill="#000000" d="m53.85187 209.90588l1.59375 0l0 1.1875l-1.59375 0l0 2.640625l-1.4375 0l0 -2.640625l-5.1875 0l0 -0.859375l5.09375 -7.875l1.53125 0l0 7.546875zm-5.03125 0l3.59375 0l0 -5.625l-0.234375 0.4375l-3.359375 5.1875zm15.757809 3.828125l-7.453121 0l0 -1.046875l3.71875 -4.140625q0.5 -0.546875 0.828125 -0.96875q0.34375 -0.4375 0.546875 -0.796875q0.203125 -0.375 0.28125 -0.6875q0.09375 -0.328125 0.09375 -0.671875q0 -0.421875 -0.140625 -0.796875q-0.125 -0.375 -0.390625 -0.640625q-0.265625 -0.28125 -0.640625 -0.4375q-0.359375 -0.15625 -0.828125 -0.15625q-0.578125 0 -1.0 0.171875q-0.40625 0.15625 -0.6875 0.453125q-0.28125 0.296875 -0.421875 0.734375q-0.125 0.421875 -0.125 0.953125l-1.453125 0q0 -0.71875 0.25 -1.34375q0.25 -0.640625 0.71875 -1.109375q0.46875 -0.484375 1.15625 -0.765625q0.6875 -0.28125 1.5625 -0.28125q0.796875 0 1.4375 0.234375q0.65625 0.234375 1.09375 0.65625q0.453125 0.421875 0.6875 1.0q0.23437119 0.578125 0.23437119 1.265625q0 0.5 -0.17187119 1.0q-0.171875 0.5 -0.46875 0.984375q-0.28125 0.484375 -0.671875 0.953125q-0.390625 0.46875 -0.8125 0.9375l-3.0625 3.3125l5.718746 0l0 1.1875zm3.2890625 -8.453125l0.03125 0.796875q0.265625 -0.453125 0.671875 -0.703125q0.421875 -0.25 1.015625 -0.25q1.171875 0 1.5625 0.90625q0.25 -0.40625 0.65625 -0.65625q0.40625 -0.25 1.0 -0.25q0.921875 0 1.421875 0.578125q0.5 0.5625 0.5 1.71875l0 6.3125l-1.375 0l0 -6.328125q0 -1.0625 -0.96875 -1.0625q-0.265625 0 -0.453125 0.078125q-0.1875 0.0625 -0.3125 0.1875q-0.125 0.125 -0.203125 0.28125q-0.0625 0.15625 -0.078125 0.328125l0 6.515625l-1.375 0l0 -6.34375q0 -0.5 -0.234375 -0.765625q-0.21875 -0.28125 -0.71875 -0.28125q-0.453125 0 -0.703125 0.1875q-0.25 0.171875 -0.359375 0.46875l0 6.734375l-1.375 0l0 -8.453125l1.296875 0zm8.5234375 4.140625q0 -0.90625 0.265625 -1.6875q0.265625 -0.796875 0.765625 -1.375q0.5 -0.578125 1.203125 -0.90625q0.71875 -0.328125 1.609375 -0.328125q0.890625 0 1.609375 0.328125q0.71875 0.328125 1.203125 0.90625q0.5 0.578125 0.765625 1.375q0.265625 0.78125 0.265625 1.6875l0 0.171875q0 0.921875 -0.265625 1.703125q-0.265625 0.78125 -0.765625 1.359375q-0.484375 0.578125 -1.203125 0.90625q-0.703125 0.328125 -1.59375 0.328125q-0.90625 0 -1.625 -0.328125q-0.703125 -0.328125 -1.203125 -0.90625q-0.5 -0.578125 -0.765625 -1.359375q-0.265625 -0.78125 -0.265625 -1.703125l0 -0.171875zm1.453125 0.171875q0 0.625 0.140625 1.203125q0.15625 0.5625 0.453125 1.0q0.296875 0.421875 0.75 0.671875q0.453125 0.25 1.0625 0.25q0.59375 0 1.03125 -0.25q0.453125 -0.25 0.75 -0.671875q0.3125 -0.4375 0.453125 -1.0q0.15625 -0.578125 0.15625 -1.203125l0 -0.171875q0 -0.609375 -0.15625 -1.171875q-0.15625 -0.578125 -0.453125 -1.0q-0.296875 -0.4375 -0.75 -0.6875q-0.453125 -0.25 -1.046875 -0.25q-0.609375 0 -1.0625 0.25q-0.4375 0.25 -0.734375 0.6875q-0.296875 0.421875 -0.453125 1.0q-0.140625 0.5625 -0.140625 1.171875l0 0.171875zm9.2265625 -4.3125l0.03125 0.796875q0.265625 -0.453125 0.671875 -0.703125q0.421875 -0.25 1.015625 -0.25q1.171875 0 1.5625 0.90625q0.25 -0.40625 0.65625 -0.65625q0.40625 -0.25 1.0 -0.25q0.921875 0 1.421875 0.578125q0.5 0.5625 0.5 1.71875l0 6.3125l-1.375 0l0 -6.328125q0 -1.0625 -0.96875 -1.0625q-0.265625 0 -0.453125 0.078125q-0.1875 0.0625 -0.3125 0.1875q-0.125 0.125 -0.203125 0.28125q-0.0625 0.15625 -0.078125 0.328125l0 6.515625l-1.375 0l0 -6.34375q0 -0.5 -0.234375 -0.765625q-0.21875 -0.28125 -0.71875 -0.28125q-0.453125 0 -0.703125 0.1875q-0.25 0.171875 -0.359375 0.46875l0 6.734375l-1.375 0l0 -8.453125l1.296875 0zm12.6640625 8.609375q-0.890625 0 -1.640625 -0.296875q-0.734375 -0.3125 -1.265625 -0.859375q-0.53125 -0.546875 -0.828125 -1.296875q-0.296875 -0.75 -0.296875 -1.640625l0 -0.328125q0 -1.015625 0.328125 -1.828125q0.328125 -0.8125 0.859375 -1.359375q0.546875 -0.5625 1.234375 -0.859375q0.703125 -0.296875 1.421875 -0.296875q0.921875 0 1.59375 0.3125q0.6875 0.3125 1.140625 0.875q0.453125 0.5625 0.671875 1.328125q0.234375 0.75 0.234375 1.625l0 0.65625l-6.046875 0q0.03125 0.578125 0.21875 1.09375q0.203125 0.5 0.546875 0.875q0.359375 0.375 0.84375 0.59375q0.484375 0.21875 1.0625 0.21875q0.78125 0 1.375 -0.3125q0.609375 -0.3125 1.0 -0.828125l0.890625 0.6875q-0.21875 0.328125 -0.53125 0.625q-0.3125 0.28125 -0.734375 0.515625q-0.40625 0.21875 -0.9375 0.359375q-0.515625 0.140625 -1.140625 0.140625zm-0.1875 -7.578125q-0.4375 0 -0.828125 0.15625q-0.390625 0.15625 -0.703125 0.46875q-0.3125 0.3125 -0.53125 0.765625q-0.203125 0.4375 -0.296875 1.03125l4.546875 0l0 -0.109375q-0.015625 -0.421875 -0.15625 -0.828125q-0.140625 -0.421875 -0.40625 -0.75q-0.265625 -0.328125 -0.671875 -0.53125q-0.390625 -0.203125 -0.953125 -0.203125zm7.3515625 -1.03125l0.109375 1.25q0.453125 -0.65625 1.125 -1.03125q0.671875 -0.375 1.5 -0.375q0.671875 0 1.203125 0.1875q0.546875 0.1875 0.921875 0.59375q0.390625 0.390625 0.59375 1.0q0.21875 0.609375 0.21875 1.453125l0 5.375l-1.453125 0l0 -5.34375q0 -0.5625 -0.125 -0.953125q-0.125 -0.390625 -0.375 -0.625q-0.234375 -0.25 -0.59375 -0.359375q-0.359375 -0.109375 -0.8125 -0.109375q-0.734375 0 -1.28125 0.375q-0.546875 0.359375 -0.875 0.953125l0 6.0625l-1.453125 0l0 -8.453125l1.296875 0zm11.7265625 -2.046875l0 2.046875l3.21875 0l0 1.109375l-3.21875 0l0 4.59375q0 0.5 0.125 0.828125q0.125 0.3125 0.34375 0.5q0.21875 0.1875 0.5 0.265625q0.296875 0.078125 0.609375 0.078125q0.234375 0 0.484375 -0.015625q0.25 -0.03125 0.484375 -0.0625q0.25 -0.046875 0.453125 -0.09375q0.203125 -0.046875 0.34375 -0.078125l0.203125 1.03125q-0.1875 0.109375 -0.453125 0.1875q-0.25 0.078125 -0.5625 0.140625q-0.296875 0.0625 -0.640625 0.09375q-0.328125 0.03125 -0.671875 0.03125q-0.5625 0 -1.046875 -0.15625q-0.484375 -0.171875 -0.84375 -0.515625q-0.359375 -0.34375 -0.578125 -0.890625q-0.203125 -0.5625 -0.203125 -1.34375l0 -4.59375l-2.21875 0l0 -1.109375l2.21875 0l0 -2.046875l1.453125 0z" fill-rule="nonzero"/><path fill="#000000" fill-opacity="0.0" d="m19.259842 263.91077l132.28346 -0.3779602" fill-rule="evenodd"/><path stroke="#cccccc" stroke-width="1.0" stroke-linejoin="round" stroke-linecap="butt" d="m19.259842 263.91077l126.28349 -0.36080933" fill-rule="evenodd"/><path fill="#cccccc" stroke="#cccccc" stroke-width="1.0" stroke-linecap="butt" d="m145.54805 265.2017l4.5333557 -1.6647034l-4.5427856 -1.6387634z" fill-rule="evenodd"/><path fill="#ffffff" d="m38.157482 244.63518l94.48819 0l0 37.795273l-94.48819 0z" fill-rule="evenodd"/><path stroke="#000000" stroke-width="1.0" stroke-linejoin="round" stroke-linecap="butt" stroke-dasharray="4.0,3.0" d="m38.157482 244.63518l94.48819 0l0 37.795273l-94.48819 0z" fill-rule="evenodd"/><path fill="#000000" d="m74.87423 268.45532q0 -0.234375 0.078125 -0.4375q0.078125 -0.203125 0.21875 -0.359375q0.140625 -0.15625 0.34375 -0.234375q0.21875 -0.09375 0.5 -0.09375q0.28125 0 0.484375 0.09375q0.21875 0.078125 0.359375 0.234375q0.15625 0.15625 0.21875 0.359375q0.078125 0.203125 0.078125 0.4375q0 0.21875 -0.078125 0.421875q-0.0625 0.203125 -0.21875 0.359375q-0.140625 0.140625 -0.359375 0.21875q-0.203125 0.09375 -0.484375 0.09375q-0.28125 0 -0.5 -0.09375q-0.203125 -0.078125 -0.34375 -0.21875q-0.140625 -0.15625 -0.21875 -0.359375q-0.078125 -0.203125 -0.078125 -0.421875zm9.6015625 0q0 -0.234375 0.078125 -0.4375q0.078125 -0.203125 0.21875 -0.359375q0.140625 -0.15625 0.34375 -0.234375q0.21875 -0.09375 0.5 -0.09375q0.28125 0 0.484375 0.09375q0.21875 0.078125 0.359375 0.234375q0.15625 0.15625 0.21875 0.359375q0.078125 0.203125 0.078125 0.4375q0 0.21875 -0.078125 0.421875q-0.0625 0.203125 -0.21875 0.359375q-0.140625 0.140625 -0.359375 0.21875q-0.203125 0.09375 -0.484375 0.09375q-0.28125 0 -0.5 -0.09375q-0.203125 -0.078125 -0.34375 -0.21875q-0.140625 -0.15625 -0.21875 -0.359375q-0.078125 -0.203125 -0.078125 -0.421875zm9.6015625 0q0 -0.234375 0.078125 -0.4375q0.078125 -0.203125 0.21875 -0.359375q0.140625 -0.15625 0.34375 -0.234375q0.21875 -0.09375 0.5 -0.09375q0.28125 0 0.484375 0.09375q0.21875 0.078125 0.359375 0.234375q0.15625 0.15625 0.21875 0.359375q0.078125 0.203125 0.078125 0.4375q0 0.21875 -0.078125 0.421875q-0.0625 0.203125 -0.21875 0.359375q-0.140625 0.140625 -0.359375 0.21875q-0.203125 0.09375 -0.484375 0.09375q-0.28125 0 -0.5 -0.09375q-0.203125 -0.078125 -0.34375 -0.21875q-0.140625 -0.15625 -0.21875 -0.359375q-0.078125 -0.203125 -0.078125 -0.421875z" fill-rule="nonzero"/></g></svg>