<svg version="1.1" viewBox="0.0 0.0 542.3622047244095 388.15748031496065" fill="none" stroke="none" stroke-linecap="square" stroke-miterlimit="10" xmlns:xlink="http://www.w3.org/1999/xlink" xmlns="http://www.w3.org/2000/svg"><clipPath id="p.0"><path d="m0 0l542.3622 0l0 388.15747l-542.3622 0l0 -388.15747z" clip-rule="nonzero"/></clipPath><g clip-path="url(#p.0)"><path fill="#000000" fill-opacity="0.0" d="m0 0l542.3622 0l0 388.15747l-542.3622 0z" fill-rule="evenodd"/><path fill="#000000" fill-opacity="0.0" d="m181.92505 0l22.929138 0l0 22.929134l-22.929138 0z" fill-rule="evenodd"/><path stroke="#f3f3f3" stroke-width="1.0" stroke-linejoin="round" stroke-linecap="butt" d="m181.92505 0l22.929138 0l0 22.929134l-22.929138 0z" fill-rule="evenodd"/><path fill="#000000" fill-opacity="0.0" d="m181.92505 22.906288l22.929138 0l0 22.929134l-22.929138 0z" fill-rule="evenodd"/><path stroke="#f3f3f3" stroke-width="1.0" stroke-linejoin="round" stroke-linecap="butt" d="m181.92505 22.906288l22.929138 0l0 22.929134l-22.929138 0z" fill-rule="evenodd"/><path fill="#000000" fill-opacity="0.0" d="m181.92505 45.812576l22.929138 0l0 22.92913l-22.929138 0z" fill-rule="evenodd"/><path stroke="#f3f3f3" stroke-width="1.0" stroke-linejoin="round" stroke-linecap="butt" d="m181.92505 45.812576l22.929138 0l0 22.92913l-22.929138 0z" fill-rule="evenodd"/><path fill="#000000" fill-opacity="0.0" d="m181.92505 68.718864l22.929138 0l0 22.92913l-22.929138 0z" fill-rule="evenodd"/><path stroke="#f3f3f3" stroke-width="1.0" stroke-linejoin="round" stroke-linecap="butt" d="m181.92505 68.718864l22.929138 0l0 22.92913l-22.929138 0z" fill-rule="evenodd"/><path fill="#000000" fill-opacity="0.0" d="m181.92505 91.62515l22.929138 0l0 22.92913l-22.929138 0z" fill-rule="evenodd"/><path stroke="#f3f3f3" stroke-width="1.0" stroke-linejoin="round" stroke-linecap="butt" d="m181.92505 91.62515l22.929138 0l0 22.92913l-22.929138 0z" fill-rule="evenodd"/><path fill="#000000" fill-opacity="0.0" d="m204.83179 0l22.929123 0l0 22.929134l-22.929123 0z" fill-rule="evenodd"/><path stroke="#f3f3f3" stroke-width="1.0" stroke-linejoin="round" stroke-linecap="butt" d="m204.83179 0l22.929123 0l0 22.929134l-22.929123 0z" fill-rule="evenodd"/><path fill="#000000" fill-opacity="0.0" d="m204.83179 22.906288l22.929123 0l0 22.929134l-22.929123 0z" fill-rule="evenodd"/><path stroke="#f3f3f3" stroke-width="1.0" stroke-linejoin="round" stroke-linecap="butt" d="m204.83179 22.906288l22.929123 0l0 22.929134l-22.929123 0z" fill-rule="evenodd"/><path fill="#000000" fill-opacity="0.0" d="m204.83179 45.812576l22.929123 0l0 22.92913l-22.929123 0z" fill-rule="evenodd"/><path stroke="#f3f3f3" stroke-width="1.0" stroke-linejoin="round" stroke-linecap="butt" d="m204.83179 45.812576l22.929123 0l0 22.92913l-22.929123 0z" fill-rule="evenodd"/><path fill="#000000" fill-opacity="0.0" d="m204.83179 68.718864l22.929123 0l0 22.92913l-22.929123 0z" fill-rule="evenodd"/><path stroke="#f3f3f3" stroke-width="1.0" stroke-linejoin="round" stroke-linecap="butt" d="m204.83179 68.718864l22.929123 0l0 22.92913l-22.929123 0z" fill-rule="evenodd"/><path fill="#000000" fill-opacity="0.0" d="m204.83179 91.62515l22.929123 0l0 22.92913l-22.929123 0z" fill-rule="evenodd"/><path stroke="#f3f3f3" stroke-width="1.0" stroke-linejoin="round" stroke-linecap="butt" d="m204.83179 91.62515l22.929123 0l0 22.92913l-22.929123 0z" fill-rule="evenodd"/><path fill="#000000" fill-opacity="0.0" d="m227.73851 0l22.929138 0l0 22.929134l-22.929138 0z" fill-rule="evenodd"/><path stroke="#f3f3f3" stroke-width="1.0" stroke-linejoin="round" stroke-linecap="butt" d="m227.73851 0l22.929138 0l0 22.929134l-22.929138 0z" fill-rule="evenodd"/><path fill="#000000" fill-opacity="0.0" d="m227.73851 22.906288l22.929138 0l0 22.929134l-22.929138 0z" fill-rule="evenodd"/><path stroke="#f3f3f3" stroke-width="1.0" stroke-linejoin="round" stroke-linecap="butt" d="m227.73851 22.906288l22.929138 0l0 22.929134l-22.929138 0z" fill-rule="evenodd"/><path fill="#000000" fill-opacity="0.0" d="m227.73851 45.812576l22.929138 0l0 22.92913l-22.929138 0z" fill-rule="evenodd"/><path stroke="#f3f3f3" stroke-width="1.0" stroke-linejoin="round" stroke-linecap="butt" d="m227.73851 45.812576l22.929138 0l0 22.92913l-22.929138 0z" fill-rule="evenodd"/><path fill="#000000" fill-opacity="0.0" d="m227.73851 68.718864l22.929138 0l0 22.92913l-22.929138 0z" fill-rule="evenodd"/><path stroke="#f3f3f3" stroke-width="1.0" stroke-linejoin="round" stroke-linecap="butt" d="m227.73851 68.718864l22.929138 0l0 22.92913l-22.929138 0z" fill-rule="evenodd"/><path fill="#000000" fill-opacity="0.0" d="m227.73851 91.62515l22.929138 0l0 22.92913l-22.929138 0z" fill-rule="evenodd"/><path stroke="#f3f3f3" stroke-width="1.0" stroke-linejoin="round" stroke-linecap="butt" d="m227.73851 91.62515l22.929138 0l0 22.92913l-22.929138 0z" fill-rule="evenodd"/><path fill="#000000" fill-opacity="0.0" d="m250.64523 0l22.929138 0l0 22.929134l-22.929138 0z" fill-rule="evenodd"/><path stroke="#f3f3f3" stroke-width="1.0" stroke-linejoin="round" stroke-linecap="butt" d="m250.64523 0l22.929138 0l0 22.929134l-22.929138 0z" fill-rule="evenodd"/><path fill="#000000" fill-opacity="0.0" d="m250.64523 22.906288l22.929138 0l0 22.929134l-22.929138 0z" fill-rule="evenodd"/><path stroke="#f3f3f3" stroke-width="1.0" stroke-linejoin="round" stroke-linecap="butt" d="m250.64523 22.906288l22.929138 0l0 22.929134l-22.929138 0z" fill-rule="evenodd"/><path fill="#000000" fill-opacity="0.0" d="m250.64523 45.812576l22.929138 0l0 22.92913l-22.929138 0z" fill-rule="evenodd"/><path stroke="#f3f3f3" stroke-width="1.0" stroke-linejoin="round" stroke-linecap="butt" d="m250.64523 45.812576l22.929138 0l0 22.92913l-22.929138 0z" fill-rule="evenodd"/><path fill="#000000" fill-opacity="0.0" d="m250.64523 68.718864l22.929138 0l0 22.92913l-22.929138 0z" fill-rule="evenodd"/><path stroke="#f3f3f3" stroke-width="1.0" stroke-linejoin="round" stroke-linecap="butt" d="m250.64523 68.718864l22.929138 0l0 22.92913l-22.929138 0z" fill-rule="evenodd"/><path fill="#000000" fill-opacity="0.0" d="m250.64523 91.62515l22.929138 0l0 22.92913l-22.929138 0z" fill-rule="evenodd"/><path stroke="#f3f3f3" stroke-width="1.0" stroke-linejoin="round" stroke-linecap="butt" d="m250.64523 91.62515l22.929138 0l0 22.92913l-22.929138 0z" fill-rule="evenodd"/><path fill="#000000" fill-opacity="0.0" d="m273.55197 0l22.929138 0l0 22.929134l-22.929138 0z" fill-rule="evenodd"/><path stroke="#f3f3f3" stroke-width="1.0" stroke-linejoin="round" stroke-linecap="butt" d="m273.55197 0l22.929138 0l0 22.929134l-22.929138 0z" fill-rule="evenodd"/><path fill="#000000" fill-opacity="0.0" d="m273.55197 22.906288l22.929138 0l0 22.929134l-22.929138 0z" fill-rule="evenodd"/><path stroke="#f3f3f3" stroke-width="1.0" stroke-linejoin="round" stroke-linecap="butt" d="m273.55197 22.906288l22.929138 0l0 22.929134l-22.929138 0z" fill-rule="evenodd"/><path fill="#000000" fill-opacity="0.0" d="m273.55197 45.812576l22.929138 0l0 22.92913l-22.929138 0z" fill-rule="evenodd"/><path stroke="#f3f3f3" stroke-width="1.0" stroke-linejoin="round" stroke-linecap="butt" d="m273.55197 45.812576l22.929138 0l0 22.92913l-22.929138 0z" fill-rule="evenodd"/><path fill="#000000" fill-opacity="0.0" d="m273.55197 68.718864l22.929138 0l0 22.92913l-22.929138 0z" fill-rule="evenodd"/><path stroke="#f3f3f3" stroke-width="1.0" stroke-linejoin="round" stroke-linecap="butt" d="m273.55197 68.718864l22.929138 0l0 22.92913l-22.929138 0z" fill-rule="evenodd"/><path fill="#000000" fill-opacity="0.0" d="m273.55197 91.62515l22.929138 0l0 22.92913l-22.929138 0z" fill-rule="evenodd"/><path stroke="#f3f3f3" stroke-width="1.0" stroke-linejoin="round" stroke-linecap="butt" d="m273.55197 91.62515l22.929138 0l0 22.92913l-22.929138 0z" fill-rule="evenodd"/><path fill="#000000" fill-opacity="0.0" d="m0 0.9299619l113.385826 0l0 113.385826l-113.385826 0z" fill-rule="evenodd"/><path stroke="#434343" stroke-width="1.0" stroke-linejoin="round" stroke-linecap="butt" d="m0 0.9299619l113.385826 0l0 113.385826l-113.385826 0z" fill-rule="evenodd"/><path fill="#434343" d="m22.702679 66.16287l0 -17.0625l5.078125 0q1.046875 0.015625 2.046875 0.28125q1.015625 0.25 1.796875 0.8125q0.796875 0.546875 1.265625 1.40625q0.46875 0.84375 0.453125 2.046875q-0.015625 0.671875 -0.21875 1.21875q-0.203125 0.546875 -0.5625 0.984375q-0.359375 0.4375 -0.84375 0.765625q-0.46875 0.328125 -1.015625 0.5625q0.6875 0.203125 1.25 0.578125q0.578125 0.359375 0.984375 0.890625q0.40625 0.515625 0.625 1.171875q0.234375 0.65625 0.234375 1.421875q0.015625 1.1875 -0.453125 2.109375q-0.46875 0.90625 -1.25 1.53125q-0.78125 0.609375 -1.8125 0.9375q-1.03125 0.328125 -2.109375 0.34375l-5.46875 0zm2.1875 -7.984375l0 6.140625l3.328125 0q0.6875 -0.015625 1.296875 -0.21875q0.609375 -0.21875 1.078125 -0.609375q0.46875 -0.390625 0.734375 -0.953125q0.28125 -0.5625 0.28125 -1.28125q0.015625 -0.71875 -0.234375 -1.28125q-0.25 -0.5625 -0.703125 -0.953125q-0.4375 -0.390625 -1.046875 -0.59375q-0.59375 -0.21875 -1.28125 -0.25l-3.453125 0zm0 -1.796875l3.015625 0q0.609375 -0.015625 1.1875 -0.1875q0.59375 -0.1875 1.046875 -0.53125q0.46875 -0.359375 0.75 -0.859375q0.28125 -0.5 0.28125 -1.171875q0 -0.71875 -0.28125 -1.21875q-0.28125 -0.5 -0.75 -0.8125q-0.453125 -0.328125 -1.0625 -0.484375q-0.59375 -0.15625 -1.234375 -0.171875l-2.953125 0l0 5.4375zm14.683594 7.9375l8.34375 0l0 1.84375l-10.5 0l0 -17.0625l2.15625 0l0 15.21875zm23.058594 -5.703125q-0.015625 0.90625 -0.171875 1.84375q-0.140625 0.9375 -0.453125 1.8125q-0.296875 0.859375 -0.765625 1.609375q-0.46875 0.75 -1.125 1.3125q-0.65625 0.5625 -1.515625 0.890625q-0.84375 0.3125 -1.90625 0.3125q-1.046875 0 -1.90625 -0.3125q-0.84375 -0.328125 -1.5 -0.890625q-0.65625 -0.5625 -1.140625 -1.3125q-0.46875 -0.765625 -0.78125 -1.625q-0.3125 -0.875 -0.46875 -1.796875q-0.15625 -0.9375 -0.15625 -1.84375l0 -1.953125q0 -0.90625 0.140625 -1.828125q0.15625 -0.9375 0.46875 -1.796875q0.3125 -0.875 0.78125 -1.625q0.484375 -0.765625 1.140625 -1.328125q0.65625 -0.578125 1.5 -0.890625q0.84375 -0.328125 1.90625 -0.328125q1.046875 0 1.90625 0.328125q0.859375 0.3125 1.515625 0.875q0.65625 0.5625 1.125 1.328125q0.484375 0.75 0.78125 1.625q0.3125 0.859375 0.453125 1.796875q0.15625 0.9375 0.171875 1.84375l0 1.953125zm-2.140625 -1.96875q-0.015625 -0.609375 -0.09375 -1.265625q-0.0625 -0.671875 -0.234375 -1.3125q-0.171875 -0.65625 -0.453125 -1.25q-0.28125 -0.59375 -0.703125 -1.046875q-0.421875 -0.453125 -1.0 -0.703125q-0.5625 -0.265625 -1.328125 -0.265625q-0.75 0 -1.328125 0.265625q-0.578125 0.265625 -1.0 0.71875q-0.421875 0.453125 -0.703125 1.046875q-0.28125 0.59375 -0.453125 1.25q-0.15625 0.640625 -0.234375 1.3125q-0.078125 0.65625 -0.09375 1.25l0 1.96875q0.015625 0.59375 0.09375 1.265625q0.078125 0.671875 0.25 1.328125q0.171875 0.640625 0.453125 1.234375q0.28125 0.59375 0.703125 1.046875q0.421875 0.453125 1.0 0.734375q0.578125 0.265625 1.328125 0.265625q0.765625 0 1.34375 -0.265625q0.578125 -0.28125 1.0 -0.734375q0.421875 -0.453125 0.6875 -1.03125q0.28125 -0.59375 0.453125 -1.25q0.171875 -0.65625 0.234375 -1.3125q0.0625 -0.671875 0.078125 -1.28125l0 -1.96875zm16.496098 4.375q-0.15625 1.1875 -0.609375 2.1875q-0.453125 0.984375 -1.1875 1.703125q-0.734375 0.703125 -1.734375 1.09375q-1.0 0.390625 -2.234375 0.390625q-1.0625 0 -1.921875 -0.296875q-0.859375 -0.296875 -1.53125 -0.828125q-0.671875 -0.53125 -1.15625 -1.234375q-0.484375 -0.71875 -0.8125 -1.5625q-0.328125 -0.84375 -0.484375 -1.765625q-0.15625 -0.9375 -0.171875 -1.890625l0 -2.375q0.015625 -0.953125 0.171875 -1.875q0.15625 -0.921875 0.484375 -1.765625q0.328125 -0.84375 0.8125 -1.5625q0.484375 -0.71875 1.15625 -1.25q0.671875 -0.53125 1.53125 -0.828125q0.859375 -0.296875 1.921875 -0.296875q1.28125 0 2.28125 0.390625q1.015625 0.390625 1.734375 1.109375q0.734375 0.71875 1.171875 1.734375q0.4375 1.0 0.578125 2.21875l-2.171875 0q-0.109375 -0.765625 -0.375 -1.4375q-0.25 -0.671875 -0.6875 -1.171875q-0.421875 -0.5 -1.046875 -0.78125q-0.625 -0.296875 -1.484375 -0.296875q-0.78125 0 -1.375 0.25q-0.578125 0.25 -1.015625 0.6875q-0.421875 0.4375 -0.71875 1.015625q-0.28125 0.5625 -0.453125 1.21875q-0.171875 0.640625 -0.25 1.3125q-0.078125 0.671875 -0.078125 1.3125l0 2.390625q0 0.640625 0.078125 1.3125q0.078125 0.671875 0.25 1.328125q0.171875 0.640625 0.453125 1.21875q0.28125 0.578125 0.71875 1.015625q0.4375 0.4375 1.015625 0.6875q0.59375 0.25 1.375 0.25q0.859375 0 1.484375 -0.265625q0.625 -0.265625 1.046875 -0.75q0.4375 -0.484375 0.6875 -1.140625q0.265625 -0.671875 0.375 -1.453125l2.171875 0zm7.4335938 -2.78125l-1.890625 2.15625l0 5.765625l-2.21875 0l0 -17.0625l2.21875 0l0 8.328125l1.65625 -2.0625l5.0 -6.265625l2.640625 0l-5.96875 7.46875l6.359375 9.59375l-2.640625 0l-5.15625 -7.921875z" fill-rule="nonzero"/><path fill="#000000" fill-opacity="0.0" d="m0 114.314964l123.52756 0l0 47.71653l-123.52756 0z" fill-rule="evenodd"/><path fill="#434343" d="m9.890625 133.55496l0 -7.578125l2.25 0q0.46875 0 0.921875 0.125q0.453125 0.109375 0.796875 0.359375q0.34375 0.25 0.546875 0.625q0.21875 0.375 0.21875 0.90625q-0.015625 0.296875 -0.109375 0.546875q-0.078125 0.25 -0.25 0.453125q-0.15625 0.1875 -0.375 0.328125q-0.203125 0.140625 -0.4375 0.25q0.296875 0.09375 0.546875 0.265625q0.25 0.15625 0.4375 0.390625q0.1875 0.21875 0.28125 0.515625q0.109375 0.28125 0.109375 0.625q0 0.53125 -0.21875 0.9375q-0.203125 0.40625 -0.546875 0.6875q-0.34375 0.265625 -0.8125 0.421875q-0.453125 0.140625 -0.9375 0.140625l-2.421875 0zm0.96875 -3.546875l0 2.734375l1.484375 0q0.296875 -0.015625 0.5625 -0.109375q0.28125 -0.09375 0.484375 -0.265625q0.21875 -0.171875 0.328125 -0.421875q0.125 -0.25 0.125 -0.5625q0.015625 -0.328125 -0.109375 -0.578125q-0.109375 -0.25 -0.3125 -0.421875q-0.1875 -0.171875 -0.453125 -0.265625q-0.265625 -0.09375 -0.578125 -0.109375l-1.53125 0zm0 -0.796875l1.34375 0q0.265625 0 0.53125 -0.078125q0.265625 -0.09375 0.46875 -0.234375q0.203125 -0.15625 0.328125 -0.375q0.125 -0.234375 0.125 -0.53125q0 -0.3125 -0.125 -0.53125q-0.125 -0.234375 -0.328125 -0.375q-0.203125 -0.140625 -0.484375 -0.203125q-0.265625 -0.078125 -0.546875 -0.078125l-1.3125 0l0 2.40625zm9.144791 4.34375q-0.0625 -0.109375 -0.09375 -0.265625q-0.03125 -0.171875 -0.046875 -0.34375q-0.15625 0.140625 -0.34375 0.28125q-0.171875 0.125 -0.390625 0.21875q-0.203125 0.09375 -0.453125 0.15625q-0.25 0.0625 -0.515625 0.0625q-0.453125 0 -0.8125 -0.125q-0.359375 -0.140625 -0.609375 -0.359375q-0.25 -0.21875 -0.390625 -0.515625q-0.140625 -0.3125 -0.140625 -0.671875q0 -0.46875 0.1875 -0.8125q0.1875 -0.34375 0.515625 -0.578125q0.34375 -0.234375 0.8125 -0.34375q0.484375 -0.109375 1.0625 -0.109375l1.0625 0l0 -0.453125q0 -0.25 -0.09375 -0.453125q-0.09375 -0.203125 -0.265625 -0.34375q-0.171875 -0.140625 -0.421875 -0.21875q-0.25 -0.078125 -0.5625 -0.078125q-0.28125 0 -0.515625 0.078125q-0.21875 0.0625 -0.375 0.1875q-0.15625 0.109375 -0.25 0.28125q-0.078125 0.15625 -0.078125 0.34375l-0.96875 0q0.015625 -0.3125 0.15625 -0.609375q0.15625 -0.296875 0.4375 -0.53125q0.296875 -0.234375 0.703125 -0.375q0.421875 -0.15625 0.953125 -0.15625q0.46875 0 0.875 0.125q0.421875 0.109375 0.71875 0.34375q0.296875 0.234375 0.46875 0.59375q0.171875 0.359375 0.171875 0.828125l0 2.609375q0 0.28125 0.046875 0.609375q0.0625 0.3125 0.15625 0.546875l0 0.078125l-1.0 0zm-1.703125 -0.734375q0.28125 0 0.515625 -0.0625q0.25 -0.078125 0.453125 -0.203125q0.203125 -0.125 0.34375 -0.265625q0.140625 -0.15625 0.234375 -0.328125l0 -1.140625l-0.90625 0q-0.84375 0 -1.3125 0.25q-0.453125 0.25 -0.453125 0.78125q0 0.21875 0.0625 0.390625q0.078125 0.171875 0.21875 0.3125q0.140625 0.125 0.34375 0.203125q0.21875 0.0625 0.5 0.0625zm8.129166 -0.765625q0 -0.171875 -0.0625 -0.296875q-0.0625 -0.140625 -0.234375 -0.25q-0.15625 -0.125 -0.421875 -0.21875q-0.265625 -0.09375 -0.65625 -0.171875q-0.484375 -0.109375 -0.890625 -0.234375q-0.390625 -0.140625 -0.671875 -0.328125q-0.28125 -0.203125 -0.4375 -0.46875q-0.15625 -0.265625 -0.15625 -0.609375q0 -0.34375 0.15625 -0.640625q0.15625 -0.3125 0.453125 -0.53125q0.296875 -0.21875 0.6875 -0.34375q0.40625 -0.140625 0.890625 -0.140625q0.515625 0 0.9375 0.140625q0.421875 0.125 0.703125 0.375q0.296875 0.234375 0.453125 0.5625q0.15625 0.3125 0.15625 0.6875l-0.953125 0q0 -0.1875 -0.09375 -0.359375q-0.09375 -0.171875 -0.265625 -0.3125q-0.171875 -0.140625 -0.40625 -0.21875q-0.234375 -0.078125 -0.53125 -0.078125q-0.3125 0 -0.546875 0.0625q-0.21875 0.0625 -0.375 0.1875q-0.15625 0.109375 -0.234375 0.265625q-0.078125 0.140625 -0.078125 0.3125q0 0.15625 0.0625 0.296875q0.0625 0.125 0.21875 0.234375q0.15625 0.09375 0.40625 0.1875q0.265625 0.078125 0.65625 0.15625q0.515625 0.109375 0.921875 0.25q0.421875 0.140625 0.703125 0.34375q0.28125 0.203125 0.421875 0.46875q0.15625 0.265625 0.15625 0.609375q0 0.375 -0.171875 0.6875q-0.171875 0.296875 -0.46875 0.515625q-0.296875 0.21875 -0.71875 0.34375q-0.421875 0.125 -0.921875 0.125q-0.578125 0 -1.03125 -0.15625q-0.4375 -0.15625 -0.75 -0.40625q-0.3125 -0.25 -0.484375 -0.578125q-0.15625 -0.34375 -0.15625 -0.703125l0.96875 0q0.015625 0.296875 0.15625 0.5q0.140625 0.203125 0.34375 0.328125q0.203125 0.125 0.453125 0.1875q0.25 0.046875 0.5 0.046875q0.609375 0 0.953125 -0.21875q0.359375 -0.234375 0.359375 -0.609375zm5.1447906 1.609375q-0.59375 0 -1.09375 -0.203125q-0.484375 -0.203125 -0.84375 -0.5625q-0.359375 -0.375 -0.5625 -0.875q-0.1875 -0.5 -0.1875 -1.09375l0 -0.203125q0 -0.6875 0.21875 -1.21875q0.21875 -0.546875 0.578125 -0.921875q0.359375 -0.375 0.8125 -0.5625q0.46875 -0.203125 0.953125 -0.203125q0.609375 0 1.0625 0.21875q0.453125 0.203125 0.75 0.578125q0.3125 0.375 0.453125 0.875q0.15625 0.5 0.15625 1.09375l0 0.421875l-4.015625 0q0.015625 0.390625 0.140625 0.734375q0.140625 0.328125 0.359375 0.59375q0.234375 0.25 0.546875 0.390625q0.328125 0.140625 0.71875 0.140625q0.515625 0 0.921875 -0.203125q0.40625 -0.203125 0.671875 -0.546875l0.578125 0.453125q-0.140625 0.21875 -0.359375 0.421875q-0.203125 0.1875 -0.484375 0.34375q-0.265625 0.140625 -0.625 0.234375q-0.34375 0.09375 -0.75 0.09375zm-0.125 -5.046875q-0.296875 0 -0.5625 0.109375q-0.25 0.09375 -0.453125 0.3125q-0.203125 0.203125 -0.359375 0.5q-0.140625 0.296875 -0.1875 0.6875l3.015625 0l0 -0.078125q-0.015625 -0.28125 -0.109375 -0.546875q-0.078125 -0.28125 -0.265625 -0.5q-0.171875 -0.21875 -0.4375 -0.34375q-0.265625 -0.140625 -0.640625 -0.140625zm15.180206 -2.640625l0.015625 5.125q-0.015625 0.53125 -0.203125 1.0q-0.171875 0.46875 -0.5 0.8125q-0.328125 0.34375 -0.78125 0.546875q-0.453125 0.203125 -1.0 0.203125q-0.546875 0 -1.0 -0.203125q-0.453125 -0.203125 -0.78125 -0.546875q-0.3125 -0.34375 -0.5 -0.8125q-0.171875 -0.46875 -0.1875 -1.0l0.015625 -5.125l0.921875 0l0.015625 5.125q0 0.34375 0.09375 0.65625q0.109375 0.3125 0.296875 0.5625q0.203125 0.234375 0.484375 0.375q0.28125 0.140625 0.640625 0.140625q0.375 0 0.65625 -0.140625q0.28125 -0.140625 0.46875 -0.375q0.1875 -0.25 0.28125 -0.5625q0.109375 -0.3125 0.125 -0.65625l0.015625 -5.125l0.921875 0zm2.5041656 1.953125l0.078125 0.828125q0.296875 -0.4375 0.734375 -0.6875q0.453125 -0.25 1.015625 -0.25q0.4375 0 0.796875 0.125q0.359375 0.125 0.609375 0.390625q0.265625 0.265625 0.40625 0.671875q0.140625 0.40625 0.140625 0.96875l0 3.578125l-0.96875 0l0 -3.546875q0 -0.375 -0.09375 -0.640625q-0.078125 -0.265625 -0.25 -0.421875q-0.15625 -0.15625 -0.390625 -0.234375q-0.234375 -0.078125 -0.546875 -0.078125q-0.484375 0 -0.84375 0.25q-0.359375 0.234375 -0.578125 0.640625l0 4.03125l-0.96875 0l0 -5.625l0.859375 0zm5.6916656 0l2.875 0l0 4.796875l1.828125 0l0 0.828125l-4.703125 0l0 -0.828125l1.90625 0l0 -3.96875l-1.90625 0l0 -0.828125zm1.78125 -1.484375q0 -0.234375 0.140625 -0.390625q0.140625 -0.171875 0.4375 -0.171875q0.28125 0 0.421875 0.171875q0.15625 0.15625 0.15625 0.390625q0 0.234375 -0.15625 0.390625q-0.140625 0.15625 -0.421875 0.15625q-0.296875 0 -0.4375 -0.15625q-0.140625 -0.15625 -0.140625 -0.390625zm6.7385406 0.109375l0 1.375l2.140625 0l0 0.734375l-2.140625 0l0 3.0625q0 0.328125 0.078125 0.546875q0.078125 0.203125 0.21875 0.34375q0.15625 0.125 0.34375 0.171875q0.1875 0.046875 0.40625 0.046875q0.15625 0 0.3125 -0.015625q0.171875 -0.015625 0.328125 -0.03125q0.171875 -0.03125 0.296875 -0.0625q0.140625 -0.03125 0.234375 -0.046875l0.140625 0.671875q-0.125 0.078125 -0.296875 0.140625q-0.171875 0.046875 -0.375 0.078125q-0.203125 0.046875 -0.4375 0.0625q-0.21875 0.03125 -0.4375 0.03125q-0.375 0 -0.703125 -0.109375q-0.328125 -0.109375 -0.5625 -0.34375q-0.234375 -0.234375 -0.375 -0.59375q-0.140625 -0.375 -0.140625 -0.890625l0 -3.0625l-1.484375 0l0 -0.734375l1.484375 0l0 -1.375l0.96875 0zm5.7854156 6.375q0 -0.15625 0.046875 -0.28125q0.046875 -0.140625 0.140625 -0.234375q0.09375 -0.109375 0.234375 -0.171875q0.140625 -0.0625 0.328125 -0.0625q0.1875 0 0.328125 0.0625q0.15625 0.0625 0.25 0.171875q0.09375 0.09375 0.140625 0.234375q0.046875 0.125 0.046875 0.28125q0 0.15625 -0.046875 0.296875q-0.046875 0.125 -0.140625 0.21875q-0.09375 0.09375 -0.25 0.140625q-0.140625 0.0625 -0.328125 0.0625q-0.1875 0 -0.328125 -0.0625q-0.140625 -0.046875 -0.234375 -0.140625q-0.09375 -0.09375 -0.140625 -0.21875q-0.046875 -0.140625 -0.046875 -0.296875zm0 -5.0q0 -0.15625 0.046875 -0.28125q0.046875 -0.140625 0.140625 -0.234375q0.09375 -0.109375 0.234375 -0.171875q0.140625 -0.0625 0.328125 -0.0625q0.1875 0 0.328125 0.0625q0.15625 0.0625 0.25 0.171875q0.09375 0.09375 0.140625 0.234375q0.046875 0.125 0.046875 0.28125q0 0.15625 -0.046875 0.296875q-0.046875 0.125 -0.140625 0.21875q-0.09375 0.09375 -0.25 0.15625q-0.140625 0.046875 -0.328125 0.046875q-0.1875 0 -0.328125 -0.046875q-0.140625 -0.0625 -0.234375 -0.15625q-0.09375 -0.09375 -0.140625 -0.21875q-0.046875 -0.140625 -0.046875 -0.296875zm4.7072906 5.625l0 -7.578125l2.25 0q0.46875 0 0.921875 0.125q0.453125 0.109375 0.796875 0.359375q0.34375 0.25 0.546875 0.625q0.21875 0.375 0.21875 0.90625q-0.015625 0.296875 -0.109375 0.546875q-0.078125 0.25 -0.25 0.453125q-0.15625 0.1875 -0.375 0.328125q-0.203125 0.140625 -0.4375 0.25q0.296875 0.09375 0.546875 0.265625q0.25 0.15625 0.4375 0.390625q0.1875 0.21875 0.28125 0.515625q0.109375 0.28125 0.109375 0.625q0 0.53125 -0.21875 0.9375q-0.203125 0.40625 -0.546875 0.6875q-0.34375 0.265625 -0.8125 0.421875q-0.453125 0.140625 -0.9375 0.140625l-2.421875 0zm0.96875 -3.546875l0 2.734375l1.484375 0q0.296875 -0.015625 0.5625 -0.109375q0.28125 -0.09375 0.484375 -0.265625q0.21875 -0.171875 0.328125 -0.421875q0.125 -0.25 0.125 -0.5625q0.015625 -0.328125 -0.109375 -0.578125q-0.109375 -0.25 -0.3125 -0.421875q-0.1875 -0.171875 -0.453125 -0.265625q-0.265625 -0.09375 -0.578125 -0.109375l-1.53125 0zm0 -0.796875l1.34375 0q0.265625 0 0.53125 -0.078125q0.265625 -0.09375 0.46875 -0.234375q0.203125 -0.15625 0.328125 -0.375q0.125 -0.234375 0.125 -0.53125q0 -0.3125 -0.125 -0.53125q-0.125 -0.234375 -0.328125 -0.375q-0.203125 -0.140625 -0.484375 -0.203125q-0.265625 -0.078125 -0.546875 -0.078125l-1.3125 0l0 2.40625zm5.5979156 -3.65625l2.875 0l0 7.171875l1.828125 0l0 0.828125l-4.703125 0l0 -0.828125l1.90625 0l0 -6.328125l-1.90625 0l0 -0.84375zm5.9729156 5.140625q0 -0.609375 0.171875 -1.125q0.171875 -0.53125 0.5 -0.921875q0.34375 -0.390625 0.8125 -0.609375q0.46875 -0.21875 1.0625 -0.21875q0.59375 0 1.0625 0.21875q0.484375 0.21875 0.8125 0.609375q0.34375 0.390625 0.515625 0.921875q0.171875 0.515625 0.171875 1.125l0 0.109375q0 0.609375 -0.171875 1.125q-0.171875 0.515625 -0.515625 0.90625q-0.328125 0.390625 -0.796875 0.609375q-0.46875 0.21875 -1.0625 0.21875q-0.59375 0 -1.078125 -0.21875q-0.46875 -0.21875 -0.8125 -0.609375q-0.328125 -0.390625 -0.5 -0.90625q-0.171875 -0.515625 -0.171875 -1.125l0 -0.109375zm0.953125 0.109375q0 0.40625 0.09375 0.796875q0.109375 0.375 0.3125 0.65625q0.203125 0.28125 0.5 0.453125q0.296875 0.171875 0.703125 0.171875q0.390625 0 0.6875 -0.171875q0.296875 -0.171875 0.5 -0.453125q0.203125 -0.28125 0.296875 -0.65625q0.109375 -0.390625 0.109375 -0.796875l0 -0.109375q0 -0.421875 -0.109375 -0.796875q-0.09375 -0.375 -0.296875 -0.65625q-0.203125 -0.296875 -0.5 -0.453125q-0.296875 -0.171875 -0.703125 -0.171875q-0.40625 0 -0.703125 0.171875q-0.28125 0.15625 -0.484375 0.453125q-0.203125 0.28125 -0.3125 0.65625q-0.09375 0.375 -0.09375 0.796875l0 0.109375zm8.097916 2.078125q0.265625 0 0.515625 -0.078125q0.25 -0.09375 0.4375 -0.234375q0.1875 -0.15625 0.296875 -0.359375q0.125 -0.203125 0.140625 -0.4375l0.90625 0q0 0.375 -0.203125 0.71875q-0.1875 0.34375 -0.5 0.609375q-0.3125 0.25 -0.734375 0.40625q-0.40625 0.15625 -0.859375 0.15625q-0.625 0 -1.109375 -0.234375q-0.484375 -0.234375 -0.8125 -0.609375q-0.3125 -0.390625 -0.46875 -0.890625q-0.15625 -0.515625 -0.15625 -1.078125l0 -0.21875q0 -0.5625 0.15625 -1.0625q0.15625 -0.515625 0.46875 -0.90625q0.328125 -0.390625 0.8125 -0.609375q0.484375 -0.234375 1.109375 -0.234375q0.5 0 0.921875 0.15625q0.421875 0.15625 0.71875 0.4375q0.3125 0.265625 0.484375 0.640625q0.171875 0.375 0.171875 0.8125l-0.90625 0q-0.015625 -0.265625 -0.125 -0.484375q-0.09375 -0.234375 -0.28125 -0.40625q-0.1875 -0.171875 -0.4375 -0.265625q-0.25 -0.09375 -0.546875 -0.09375q-0.4375 0 -0.75 0.1875q-0.296875 0.171875 -0.484375 0.46875q-0.1875 0.28125 -0.265625 0.640625q-0.078125 0.359375 -0.078125 0.71875l0 0.21875q0 0.359375 0.078125 0.734375q0.078125 0.359375 0.265625 0.65625q0.1875 0.28125 0.484375 0.46875q0.296875 0.171875 0.75 0.171875zm5.6916656 -1.953125l-0.703125 0.671875l0 1.953125l-0.96875 0l0 -8.0l0.96875 0l0 4.90625l0.625 -0.6875l1.84375 -1.84375l1.171875 0l-2.28125 2.34375l2.625 3.28125l-1.21875 0l-2.0625 -2.625z" fill-rule="nonzero"/><path fill="#000000" fill-opacity="0.0" d="m302.3622 195.59055l18.897644 0l0 18.897644l-18.897644 0z" fill-rule="evenodd"/><path stroke="#f3f3f3" stroke-width="1.0" stroke-linejoin="round" stroke-linecap="butt" d="m302.3622 195.59055l18.897644 0l0 18.897644l-18.897644 0z" fill-rule="evenodd"/><path fill="#000000" fill-opacity="0.0" d="m340.15747 195.59055l18.897644 0l0 18.897644l-18.897644 0z" fill-rule="evenodd"/><path stroke="#f3f3f3" stroke-width="1.0" stroke-linejoin="round" stroke-linecap="butt" d="m340.15747 195.59055l18.897644 0l0 18.897644l-18.897644 0z" fill-rule="evenodd"/><path fill="#000000" fill-opacity="0.0" d="m170.07874 195.59055l18.897644 0l0 18.897644l-18.897644 0z" fill-rule="evenodd"/><path stroke="#f3f3f3" stroke-width="1.0" stroke-linejoin="round" stroke-linecap="butt" d="m170.07874 195.59055l18.897644 0l0 18.897644l-18.897644 0z" fill-rule="evenodd"/><path fill="#000000" fill-opacity="0.0" d="m188.97638 195.59055l18.897629 0l0 18.897644l-18.897629 0z" fill-rule="evenodd"/><path stroke="#f3f3f3" stroke-width="1.0" stroke-linejoin="round" stroke-linecap="butt" d="m188.97638 195.59055l18.897629 0l0 18.897644l-18.897629 0z" fill-rule="evenodd"/><path fill="#000000" fill-opacity="0.0" d="m245.6693 195.59055l18.897629 0l0 18.897644l-18.897629 0z" fill-rule="evenodd"/><path stroke="#f3f3f3" stroke-width="1.0" stroke-linejoin="round" stroke-linecap="butt" d="m245.6693 195.59055l18.897629 0l0 18.897644l-18.897629 0z" fill-rule="evenodd"/><path fill="#000000" fill-opacity="0.0" d="m264.56693 195.59055l18.897644 0l0 18.897644l-18.897644 0z" fill-rule="evenodd"/><path stroke="#f3f3f3" stroke-width="1.0" stroke-linejoin="round" stroke-linecap="butt" d="m264.56693 195.59055l18.897644 0l0 18.897644l-18.897644 0z" fill-rule="evenodd"/><path fill="#000000" fill-opacity="0.0" d="m283.46457 195.59055l18.897644 0l0 18.897644l-18.897644 0z" fill-rule="evenodd"/><path stroke="#f3f3f3" stroke-width="1.0" stroke-linejoin="round" stroke-linecap="butt" d="m283.46457 195.59055l18.897644 0l0 18.897644l-18.897644 0z" fill-rule="evenodd"/><path fill="#000000" fill-opacity="0.0" d="m75.59055 195.59055l18.897636 0l0 18.897644l-18.897636 0z" fill-rule="evenodd"/><path stroke="#f3f3f3" stroke-width="1.0" stroke-linejoin="round" stroke-linecap="butt" d="m75.59055 195.59055l18.897636 0l0 18.897644l-18.897636 0z" fill-rule="evenodd"/><path fill="#000000" fill-opacity="0.0" d="m94.48819 195.59055l18.897636 0l0 18.897644l-18.897636 0z" fill-rule="evenodd"/><path stroke="#f3f3f3" stroke-width="1.0" stroke-linejoin="round" stroke-linecap="butt" d="m94.48819 195.59055l18.897636 0l0 18.897644l-18.897636 0z" fill-rule="evenodd"/><path fill="#000000" fill-opacity="0.0" d="m151.1811 195.59055l18.897629 0l0 18.897644l-18.897629 0z" fill-rule="evenodd"/><path stroke="#f3f3f3" stroke-width="1.0" stroke-linejoin="round" stroke-linecap="butt" d="m151.1811 195.59055l18.897629 0l0 18.897644l-18.897629 0z" fill-rule="evenodd"/><path fill="#000000" fill-opacity="0.0" d="m359.0551 195.59055l18.897644 0l0 18.897644l-18.897644 0z" fill-rule="evenodd"/><path stroke="#f3f3f3" stroke-width="1.0" stroke-linejoin="round" stroke-linecap="butt" d="m359.0551 195.59055l18.897644 0l0 18.897644l-18.897644 0z" fill-rule="evenodd"/><path fill="#000000" fill-opacity="0.0" d="m377.95276 195.59055l18.897644 0l0 18.897644l-18.897644 0z" fill-rule="evenodd"/><path stroke="#f3f3f3" stroke-width="1.0" stroke-linejoin="round" stroke-linecap="butt" d="m377.95276 195.59055l18.897644 0l0 18.897644l-18.897644 0z" fill-rule="evenodd"/><path fill="#000000" fill-opacity="0.0" d="m396.8504 195.59055l18.897614 0l0 18.897644l-18.897614 0z" fill-rule="evenodd"/><path stroke="#f3f3f3" stroke-width="1.0" stroke-linejoin="round" stroke-linecap="butt" d="m396.8504 195.59055l18.897614 0l0 18.897644l-18.897614 0z" fill-rule="evenodd"/><path fill="#000000" fill-opacity="0.0" d="m113.385826 195.59055l18.897636 0l0 18.897644l-18.897636 0z" fill-rule="evenodd"/><path stroke="#f3f3f3" stroke-width="1.0" stroke-linejoin="round" stroke-linecap="butt" d="m113.385826 195.59055l18.897636 0l0 18.897644l-18.897636 0z" fill-rule="evenodd"/><path fill="#000000" fill-opacity="0.0" d="m207.87401 195.59055l18.897644 0l0 18.897644l-18.897644 0z" fill-rule="evenodd"/><path stroke="#f3f3f3" stroke-width="1.0" stroke-linejoin="round" stroke-linecap="butt" d="m207.87401 195.59055l18.897644 0l0 18.897644l-18.897644 0z" fill-rule="evenodd"/><path fill="#000000" fill-opacity="0.0" d="m321.25986 195.59055l18.897614 0l0 18.897644l-18.897614 0z" fill-rule="evenodd"/><path stroke="#d9d9d9" stroke-width="1.0" stroke-linejoin="round" stroke-linecap="butt" d="m321.25986 195.59055l18.897614 0l0 18.897644l-18.897614 0z" fill-rule="evenodd"/><path fill="#efefef" d="m328.59512 208.77937l-1.46875 0l0 -5.8125l-1.90625 0.6875l0 -1.265625l3.296875 -1.1875l0.078125 0l0 7.578125zm2.9260254 -3.734375l0.421875 -3.84375l4.203125 0l0 1.234375l-3.0 0l-0.1875 1.65625q0.15625 -0.09375 0.453125 -0.1875q0.296875 -0.09375 0.6875 -0.09375q0.546875 0 0.96875 0.171875q0.4375 0.171875 0.71875 0.5q0.296875 0.328125 0.453125 0.8125q0.15625 0.46875 0.15625 1.0625q0 0.5 -0.15625 0.96875q-0.140625 0.453125 -0.453125 0.8125q-0.3125 0.34375 -0.796875 0.546875q-0.46875 0.203125 -1.109375 0.203125q-0.484375 0 -0.9375 -0.140625q-0.453125 -0.15625 -0.8125 -0.4375q-0.359375 -0.28125 -0.578125 -0.6875q-0.21875 -0.40625 -0.234375 -0.9375l1.421875 0q0.0625 0.5 0.359375 0.765625q0.296875 0.265625 0.78125 0.265625q0.28125 0 0.484375 -0.109375q0.21875 -0.109375 0.34375 -0.296875q0.125 -0.1875 0.1875 -0.453125q0.0625 -0.265625 0.0625 -0.578125q0 -0.296875 -0.078125 -0.546875q-0.078125 -0.25 -0.234375 -0.4375q-0.15625 -0.1875 -0.390625 -0.28125q-0.234375 -0.09375 -0.546875 -0.09375q-0.21875 0 -0.375 0.03125q-0.15625 0.03125 -0.28125 0.09375q-0.109375 0.0625 -0.203125 0.140625q-0.09375 0.0625 -0.171875 0.15625l-1.15625 -0.296875z" fill-rule="nonzero"/><path fill="#000000" fill-opacity="0.0" d="m226.77165 195.59055l18.897644 0l0 18.897644l-18.897644 0z" fill-rule="evenodd"/><path stroke="#d9d9d9" stroke-width="1.0" stroke-linejoin="round" stroke-linecap="butt" d="m226.77165 195.59055l18.897644 0l0 18.897644l-18.897644 0z" fill-rule="evenodd"/><path fill="#d9d9d9" d="m234.10693 208.77937l-1.46875 0l0 -5.8125l-1.90625 0.6875l0 -1.265625l3.296875 -1.1875l0.078125 0l0 7.578125zm7.7854156 -2.875q0 0.71875 -0.171875 1.28125q-0.171875 0.5625 -0.5 0.9375q-0.3125 0.375 -0.765625 0.578125q-0.453125 0.1875 -1.03125 0.1875q-0.5625 0 -1.03125 -0.1875q-0.453125 -0.203125 -0.78125 -0.578125q-0.3125 -0.375 -0.484375 -0.9375q-0.171875 -0.5625 -0.171875 -1.28125l0 -1.8125q0 -0.734375 0.171875 -1.296875q0.171875 -0.5625 0.484375 -0.9375q0.328125 -0.375 0.78125 -0.5625q0.453125 -0.203125 1.015625 -0.203125q0.578125 0 1.03125 0.203125q0.46875 0.1875 0.78125 0.5625q0.328125 0.375 0.5 0.9375q0.171875 0.5625 0.171875 1.296875l0 1.8125zm-3.484375 -0.625l2.015625 -1.515625q-0.015625 -0.765625 -0.265625 -1.125q-0.25 -0.375 -0.75 -0.375q-0.5 0 -0.75 0.390625q-0.25 0.390625 -0.25 1.203125l0 1.421875zm2.015625 -0.53125l-2.015625 1.5q0.03125 0.75 0.28125 1.109375q0.25 0.359375 0.734375 0.359375q0.515625 0 0.75 -0.390625q0.25 -0.390625 0.25 -1.21875l0 -1.359375z" fill-rule="nonzero"/><path fill="#000000" fill-opacity="0.0" d="m132.28346 195.59055l18.897644 0l0 18.897644l-18.897644 0z" fill-rule="evenodd"/><path stroke="#d9d9d9" stroke-width="1.0" stroke-linejoin="round" stroke-linecap="butt" d="m132.28346 195.59055l18.897644 0l0 18.897644l-18.897644 0z" fill-rule="evenodd"/><path fill="#efefef" d="m139.34738 205.045l0.421875 -3.84375l4.203125 0l0 1.234375l-3.0 0l-0.1875 1.65625q0.15625 -0.09375 0.453125 -0.1875q0.296875 -0.09375 0.6875 -0.09375q0.546875 0 0.96875 0.171875q0.4375 0.171875 0.71875 0.5q0.296875 0.328125 0.453125 0.8125q0.15625 0.46875 0.15625 1.0625q0 0.5 -0.15625 0.96875q-0.140625 0.453125 -0.453125 0.8125q-0.3125 0.34375 -0.796875 0.546875q-0.46875 0.203125 -1.109375 0.203125q-0.484375 0 -0.9375 -0.140625q-0.453125 -0.15625 -0.8125 -0.4375q-0.359375 -0.28125 -0.578125 -0.6875q-0.21875 -0.40625 -0.234375 -0.9375l1.421875 0q0.0625 0.5 0.359375 0.765625q0.296875 0.265625 0.78125 0.265625q0.28125 0 0.484375 -0.109375q0.21875 -0.109375 0.34375 -0.296875q0.125 -0.1875 0.1875 -0.453125q0.0625 -0.265625 0.0625 -0.578125q0 -0.296875 -0.078125 -0.546875q-0.078125 -0.25 -0.234375 -0.4375q-0.15625 -0.1875 -0.390625 -0.28125q-0.234375 -0.09375 -0.546875 -0.09375q-0.21875 0 -0.375 0.03125q-0.15625 0.03125 -0.28125 0.09375q-0.109375 0.0625 -0.203125 0.140625q-0.09375 0.0625 -0.171875 0.15625l-1.15625 -0.296875z" fill-rule="nonzero"/><path fill="#000000" fill-opacity="0.0" d="m415.74802 195.59055l18.897644 0l0 18.897644l-18.897644 0z" fill-rule="evenodd"/><path stroke="#d9d9d9" stroke-width="1.0" stroke-linejoin="round" stroke-linecap="butt" d="m415.74802 195.59055l18.897644 0l0 18.897644l-18.897644 0z" fill-rule="evenodd"/><path fill="#d9d9d9" d="m424.48956 208.77937l-5.171875 0l0 -0.984375l2.453125 -2.640625q0.28125 -0.3125 0.484375 -0.5625q0.203125 -0.25 0.3125 -0.453125q0.125 -0.21875 0.171875 -0.40625q0.0625 -0.1875 0.0625 -0.359375q0 -0.25 -0.078125 -0.4375q-0.0625 -0.203125 -0.203125 -0.34375q-0.125 -0.140625 -0.3125 -0.203125q-0.1875 -0.078125 -0.40625 -0.078125q-0.59375 0 -0.890625 0.328125q-0.296875 0.328125 -0.296875 0.9375l-1.453125 0q0 -0.515625 0.1875 -0.953125q0.203125 -0.453125 0.546875 -0.796875q0.359375 -0.34375 0.859375 -0.53125q0.5 -0.203125 1.09375 -0.203125q0.578125 0 1.015625 0.171875q0.453125 0.15625 0.75 0.453125q0.296875 0.28125 0.453125 0.703125q0.15625 0.40625 0.15625 0.890625q0 0.375 -0.125 0.71875q-0.109375 0.34375 -0.328125 0.6875q-0.203125 0.328125 -0.515625 0.671875q-0.296875 0.34375 -0.671875 0.71875l-1.421875 1.515625l3.328125 0l0 1.15625zm6.3791504 -2.875q0 0.71875 -0.171875 1.28125q-0.171875 0.5625 -0.5 0.9375q-0.3125 0.375 -0.765625 0.578125q-0.453125 0.1875 -1.03125 0.1875q-0.5625 0 -1.03125 -0.1875q-0.453125 -0.203125 -0.78125 -0.578125q-0.3125 -0.375 -0.484375 -0.9375q-0.171875 -0.5625 -0.171875 -1.28125l0 -1.8125q0 -0.734375 0.171875 -1.296875q0.171875 -0.5625 0.484375 -0.9375q0.328125 -0.375 0.78125 -0.5625q0.453125 -0.203125 1.015625 -0.203125q0.578125 0 1.03125 0.203125q0.46875 0.1875 0.78125 0.5625q0.328125 0.375 0.5 0.9375q0.171875 0.5625 0.171875 1.296875l0 1.8125zm-3.484375 -0.625l2.015625 -1.515625q-0.015625 -0.765625 -0.265625 -1.125q-0.25 -0.375 -0.75 -0.375q-0.5 0 -0.75 0.390625q-0.25 0.390625 -0.25 1.203125l0 1.421875zm2.015625 -0.53125l-2.015625 1.5q0.03125 0.75 0.28125 1.109375q0.25 0.359375 0.734375 0.359375q0.515625 0 0.75 -0.390625q0.25 -0.390625 0.25 -1.21875l0 -1.359375z" fill-rule="nonzero"/><path fill="#000000" fill-opacity="0.0" d="m56.692913 195.59055l18.89764 0l0 18.897644l-18.89764 0z" fill-rule="evenodd"/><path stroke="#d9d9d9" stroke-width="1.0" stroke-linejoin="round" stroke-linecap="butt" d="m56.692913 195.59055l18.89764 0l0 18.897644l-18.89764 0z" fill-rule="evenodd"/><path fill="#d9d9d9" d="m67.225586 208.77937l-1.46875 0l0 -5.8125l-1.90625 0.6875l0 -1.265625l3.296875 -1.1875l0.078125 0l0 7.578125z" fill-rule="nonzero"/><path fill="#000000" fill-opacity="0.0" d="m94.48819 176.69292l37.795273 0l0 18.897629l-37.795273 0z" fill-rule="evenodd"/><path stroke="#f3f3f3" stroke-width="1.0" stroke-linejoin="round" stroke-linecap="butt" stroke-dasharray="4.0,3.0" d="m94.48819 176.69292l37.795273 0l0 18.897629l-37.795273 0z" fill-rule="evenodd"/><path fill="#000000" fill-opacity="0.0" d="m132.28346 176.69292l37.795273 0l0 18.897629l-37.795273 0z" fill-rule="evenodd"/><path stroke="#f3f3f3" stroke-width="1.0" stroke-linejoin="round" stroke-linecap="butt" stroke-dasharray="4.0,3.0" d="m132.28346 176.69292l37.795273 0l0 18.897629l-37.795273 0z" fill-rule="evenodd"/><path fill="#000000" fill-opacity="0.0" d="m170.07874 176.69292l37.795273 0l0 18.897629l-37.795273 0z" fill-rule="evenodd"/><path stroke="#f3f3f3" stroke-width="1.0" stroke-linejoin="round" stroke-linecap="butt" stroke-dasharray="4.0,3.0" d="m170.07874 176.69292l37.795273 0l0 18.897629l-37.795273 0z" fill-rule="evenodd"/><path fill="#000000" fill-opacity="0.0" d="m207.87401 176.69292l37.795288 0l0 18.897629l-37.795288 0z" fill-rule="evenodd"/><path stroke="#efefef" stroke-width="1.0" stroke-linejoin="round" stroke-linecap="butt" stroke-dasharray="4.0,3.0" d="m207.87401 176.69292l37.795288 0l0 18.897629l-37.795288 0z" fill-rule="evenodd"/><path fill="#efefef" d="m224.38676 186.14735l0.421875 -3.84375l4.203125 0l0 1.234375l-3.0 0l-0.1875 1.65625q0.15625 -0.09375 0.453125 -0.1875q0.296875 -0.09375 0.6875 -0.09375q0.546875 0 0.96875 0.171875q0.4375 0.171875 0.71875 0.5q0.296875 0.328125 0.453125 0.8125q0.15625 0.46875 0.15625 1.0625q0 0.5 -0.15625 0.96875q-0.140625 0.453125 -0.453125 0.8125q-0.3125 0.34375 -0.796875 0.546875q-0.46875 0.203125 -1.109375 0.203125q-0.484375 0 -0.9375 -0.140625q-0.453125 -0.15625 -0.8125 -0.4375q-0.359375 -0.28125 -0.578125 -0.6875q-0.21875 -0.40625 -0.234375 -0.9375l1.421875 0q0.0625 0.5 0.359375 0.765625q0.296875 0.265625 0.78125 0.265625q0.28125 0 0.484375 -0.109375q0.21875 -0.109375 0.34375 -0.296875q0.125 -0.1875 0.1875 -0.453125q0.0625 -0.265625 0.0625 -0.578125q0 -0.296875 -0.078125 -0.546875q-0.078125 -0.25 -0.234375 -0.4375q-0.15625 -0.1875 -0.390625 -0.28125q-0.234375 -0.09375 -0.546875 -0.09375q-0.21875 0 -0.375 0.03125q-0.15625 0.03125 -0.28125 0.09375q-0.109375 0.0625 -0.203125 0.140625q-0.09375 0.0625 -0.171875 0.15625l-1.15625 -0.296875z" fill-rule="nonzero"/><path fill="#000000" fill-opacity="0.0" d="m245.6693 176.69292l37.795273 0l0 18.897629l-37.795273 0z" fill-rule="evenodd"/><path stroke="#f3f3f3" stroke-width="1.0" stroke-linejoin="round" stroke-linecap="butt" stroke-dasharray="4.0,3.0" d="m245.6693 176.69292l37.795273 0l0 18.897629l-37.795273 0z" fill-rule="evenodd"/><path fill="#000000" fill-opacity="0.0" d="m283.46457 176.69292l37.795288 0l0 18.897629l-37.795288 0z" fill-rule="evenodd"/><path stroke="#f3f3f3" stroke-width="1.0" stroke-linejoin="round" stroke-linecap="butt" stroke-dasharray="4.0,3.0" d="m283.46457 176.69292l37.795288 0l0 18.897629l-37.795288 0z" fill-rule="evenodd"/><path fill="#000000" fill-opacity="0.0" d="m321.25986 176.69292l37.795258 0l0 18.897629l-37.795258 0z" fill-rule="evenodd"/><path stroke="#f3f3f3" stroke-width="1.0" stroke-linejoin="round" stroke-linecap="butt" stroke-dasharray="4.0,3.0" d="m321.25986 176.69292l37.795258 0l0 18.897629l-37.795258 0z" fill-rule="evenodd"/><path fill="#000000" fill-opacity="0.0" d="m359.0551 176.69292l37.795288 0l0 18.897629l-37.795288 0z" fill-rule="evenodd"/><path stroke="#f3f3f3" stroke-width="1.0" stroke-linejoin="round" stroke-linecap="butt" stroke-dasharray="4.0,3.0" d="m359.0551 176.69292l37.795288 0l0 18.897629l-37.795288 0z" fill-rule="evenodd"/><path fill="#000000" fill-opacity="0.0" d="m56.692913 176.69292l37.795277 0l0 18.897629l-37.795277 0z" fill-rule="evenodd"/><path stroke="#d9d9d9" stroke-width="1.0" stroke-linejoin="round" stroke-linecap="butt" stroke-dasharray="4.0,3.0" d="m56.692913 176.69292l37.795277 0l0 18.897629l-37.795277 0z" fill-rule="evenodd"/><path fill="#d9d9d9" d="m76.67441 189.88173l-1.46875 0l0 -5.8125l-1.90625 0.6875l0 -1.265625l3.296875 -1.1875l0.078125 0l0 7.578125z" fill-rule="nonzero"/><path fill="#000000" fill-opacity="0.0" d="m396.8504 176.69292l37.795258 0l0 18.897629l-37.795258 0z" fill-rule="evenodd"/><path stroke="#d9d9d9" stroke-width="1.0" stroke-linejoin="round" stroke-linecap="butt" stroke-dasharray="4.0,3.0" d="m396.8504 176.69292l37.795258 0l0 18.897629l-37.795258 0z" fill-rule="evenodd"/><path fill="#d9d9d9" d="m413.6345 189.88173l-1.46875 0l0 -5.8125l-1.90625 0.6875l0 -1.265625l3.296875 -1.1875l0.078125 0l0 7.578125zm7.785431 -2.875q0 0.71875 -0.171875 1.28125q-0.171875 0.5625 -0.5 0.9375q-0.3125 0.375 -0.765625 0.578125q-0.453125 0.1875 -1.03125 0.1875q-0.5625 0 -1.03125 -0.1875q-0.453125 -0.203125 -0.78125 -0.578125q-0.3125 -0.375 -0.484375 -0.9375q-0.171875 -0.5625 -0.171875 -1.28125l0 -1.8125q0 -0.734375 0.171875 -1.296875q0.171875 -0.5625 0.484375 -0.9375q0.328125 -0.375 0.78125 -0.5625q0.453125 -0.203125 1.015625 -0.203125q0.578125 0 1.03125 0.203125q0.46875 0.1875 0.78125 0.5625q0.328125 0.375 0.5 0.9375q0.171875 0.5625 0.171875 1.296875l0 1.8125zm-3.484375 -0.625l2.015625 -1.515625q-0.015625 -0.765625 -0.265625 -1.125q-0.25 -0.375 -0.75 -0.375q-0.5 0 -0.75 0.390625q-0.25 0.390625 -0.25 1.203125l0 1.421875zm2.015625 -0.53125l-2.015625 1.5q0.03125 0.75 0.28125 1.109375q0.25 0.359375 0.734375 0.359375q0.515625 0 0.75 -0.390625q0.25 -0.390625 0.25 -1.21875l0 -1.359375z" fill-rule="nonzero"/><path fill="#000000" fill-opacity="0.0" d="m58.392914 329.6191l58.3937 0l0 58.393707l-58.3937 0z" fill-rule="evenodd"/><path stroke="#d9d9d9" stroke-width="1.0" stroke-linejoin="round" stroke-linecap="butt" d="m58.392914 329.6191l58.3937 0l0 58.393707l-58.3937 0z" fill-rule="evenodd"/><path fill="#000000" d="m68.43806 363.61597l0 -9.46875l3.171875 0q0.78125 0 1.40625 0.15625q0.640625 0.15625 1.09375 0.46875q0.453125 0.3125 0.6875 0.8125q0.25 0.484375 0.25 1.140625q-0.015625 0.671875 -0.359375 1.203125q-0.34375 0.515625 -1.015625 0.796875q0.40625 0.09375 0.703125 0.3125q0.296875 0.203125 0.5 0.484375q0.203125 0.28125 0.296875 0.625q0.09375 0.328125 0.09375 0.6875q0 0.6875 -0.234375 1.21875q-0.234375 0.515625 -0.671875 0.875q-0.4375 0.34375 -1.0625 0.515625q-0.625 0.171875 -1.40625 0.171875l-3.453125 0zm1.828125 -4.171875l0 2.6875l1.625 0q0.75 0 1.140625 -0.359375q0.40625 -0.359375 0.40625 -0.953125q0 -0.640625 -0.359375 -1.0q-0.359375 -0.375 -1.109375 -0.375l-1.703125 0zm0 -1.328125l1.359375 0q0.765625 0 1.171875 -0.3125q0.40625 -0.3125 0.421875 -0.921875q0 -0.671875 -0.421875 -0.953125q-0.40625 -0.296875 -1.171875 -0.296875l-1.359375 0l0 2.484375zm8.138809 4.015625l4.4375 0l0 1.484375l-6.28125 0l0 -9.46875l1.84375 0l0 7.984375zm12.654434 -2.5625q0 0.921875 -0.25 1.6875q-0.234375 0.765625 -0.6875 1.328125q-0.453125 0.546875 -1.109375 0.859375q-0.65625 0.296875 -1.484375 0.296875q-0.8125 0 -1.453125 -0.296875q-0.640625 -0.3125 -1.078125 -0.859375q-0.4375 -0.5625 -0.671875 -1.328125q-0.21875 -0.765625 -0.21875 -1.6875l0 -1.375q0 -0.90625 0.21875 -1.671875q0.234375 -0.78125 0.671875 -1.328125q0.4375 -0.5625 1.078125 -0.875q0.640625 -0.3125 1.453125 -0.3125q0.828125 0 1.484375 0.3125q0.65625 0.3125 1.109375 0.875q0.453125 0.546875 0.6875 1.328125q0.25 0.765625 0.25 1.671875l0 1.375zm-1.859375 -1.390625q0 -0.578125 -0.09375 -1.0625q-0.09375 -0.484375 -0.296875 -0.828125q-0.203125 -0.359375 -0.515625 -0.5625q-0.3125 -0.203125 -0.765625 -0.203125q-0.4375 0 -0.75 0.203125q-0.296875 0.203125 -0.484375 0.5625q-0.171875 0.34375 -0.25 0.828125q-0.078125 0.484375 -0.078125 1.0625l0 1.390625q0 0.578125 0.078125 1.0625q0.078125 0.484375 0.25 0.84375q0.1875 0.359375 0.484375 0.5625q0.3125 0.203125 0.75 0.203125q0.453125 0 0.765625 -0.203125q0.3125 -0.203125 0.515625 -0.546875q0.203125 -0.359375 0.296875 -0.84375q0.09375 -0.5 0.09375 -1.078125l0 -1.390625zm9.826309 2.46875q-0.046875 0.71875 -0.3125 1.296875q-0.265625 0.5625 -0.71875 0.96875q-0.4375 0.40625 -1.046875 0.625q-0.609375 0.21875 -1.34375 0.21875q-0.84375 0 -1.5 -0.3125q-0.640625 -0.3125 -1.09375 -0.859375q-0.4375 -0.5625 -0.671875 -1.34375q-0.234375 -0.78125 -0.234375 -1.71875l0 -1.28125q0 -0.9375 0.25 -1.71875q0.25 -0.78125 0.703125 -1.34375q0.453125 -0.5625 1.09375 -0.859375q0.65625 -0.3125 1.453125 -0.3125q0.78125 0 1.390625 0.21875q0.609375 0.21875 1.03125 0.640625q0.4375 0.40625 0.6875 1.0q0.25 0.578125 0.3125 1.328125l-1.828125 0q-0.015625 -0.421875 -0.125 -0.734375q-0.09375 -0.328125 -0.296875 -0.53125q-0.1875 -0.21875 -0.484375 -0.328125q-0.28125 -0.109375 -0.6875 -0.109375q-0.421875 0 -0.734375 0.1875q-0.3125 0.1875 -0.515625 0.546875q-0.203125 0.34375 -0.296875 0.859375q-0.09375 0.5 -0.09375 1.15625l0 1.28125q0 1.40625 0.390625 2.078125q0.390625 0.65625 1.25 0.65625q0.703125 0 1.125 -0.375q0.421875 -0.375 0.46875 -1.234375l1.828125 0zm4.232559 -0.921875l-1.0 1.09375l0 2.796875l-1.828125 0l0 -9.46875l1.828125 0l0 4.328125l0.859375 -1.15625l2.3125 -3.171875l2.234375 0l-3.1875 4.1875l3.296875 5.28125l-2.171875 0l-2.34375 -3.890625z" fill-rule="nonzero"/><path fill="#000000" fill-opacity="0.0" d="m0 329.6191l58.3937 0l0 58.393707l-58.3937 0z" fill-rule="evenodd"/><path stroke="#d9d9d9" stroke-width="1.0" stroke-linejoin="round" stroke-linecap="butt" d="m0 329.6191l58.3937 0l0 58.393707l-58.3937 0z" fill-rule="evenodd"/><path fill="#000000" d="m10.045139 363.61597l0 -9.46875l3.171875 0q0.78125 0 1.40625 0.15625q0.640625 0.15625 1.09375 0.46875q0.453125 0.3125 0.6875 0.8125q0.25 0.484375 0.25 1.140625q-0.015625 0.671875 -0.359375 1.203125q-0.34375 0.515625 -1.015625 0.796875q0.40625 0.09375 0.703125 0.3125q0.296875 0.203125 0.5 0.484375q0.203125 0.28125 0.296875 0.625q0.09375 0.328125 0.09375 0.6875q0 0.6875 -0.234375 1.21875q-0.234375 0.515625 -0.671875 0.875q-0.4375 0.34375 -1.0625 0.515625q-0.625 0.171875 -1.40625 0.171875l-3.453125 0zm1.828125 -4.171875l0 2.6875l1.625 0q0.75 0 1.140625 -0.359375q0.40625 -0.359375 0.40625 -0.953125q0 -0.640625 -0.359375 -1.0q-0.359375 -0.375 -1.109375 -0.375l-1.703125 0zm0 -1.328125l1.359375 0q0.765625 0 1.171875 -0.3125q0.40625 -0.3125 0.421875 -0.921875q0 -0.671875 -0.421875 -0.953125q-0.40625 -0.296875 -1.171875 -0.296875l-1.359375 0l0 2.484375zm8.138809 4.015625l4.4375 0l0 1.484375l-6.28125 0l0 -9.46875l1.84375 0l0 7.984375zm12.654434 -2.5625q0 0.921875 -0.25 1.6875q-0.234375 0.765625 -0.6875 1.328125q-0.453125 0.546875 -1.109375 0.859375q-0.65625 0.296875 -1.484375 0.296875q-0.8125 0 -1.453125 -0.296875q-0.640625 -0.3125 -1.078125 -0.859375q-0.4375 -0.5625 -0.671875 -1.328125q-0.21875 -0.765625 -0.21875 -1.6875l0 -1.375q0 -0.90625 0.21875 -1.671875q0.234375 -0.78125 0.671875 -1.328125q0.4375 -0.5625 1.078125 -0.875q0.640625 -0.3125 1.453125 -0.3125q0.828125 0 1.484375 0.3125q0.65625 0.3125 1.109375 0.875q0.453125 0.546875 0.6875 1.328125q0.25 0.765625 0.25 1.671875l0 1.375zm-1.859375 -1.390625q0 -0.578125 -0.09375 -1.0625q-0.09375 -0.484375 -0.296875 -0.828125q-0.203125 -0.359375 -0.515625 -0.5625q-0.3125 -0.203125 -0.765625 -0.203125q-0.4375 0 -0.75 0.203125q-0.296875 0.203125 -0.484375 0.5625q-0.171875 0.34375 -0.25 0.828125q-0.078125 0.484375 -0.078125 1.0625l0 1.390625q0 0.578125 0.078125 1.0625q0.078125 0.484375 0.25 0.84375q0.1875 0.359375 0.484375 0.5625q0.3125 0.203125 0.75 0.203125q0.453125 0 0.765625 -0.203125q0.3125 -0.203125 0.515625 -0.546875q0.203125 -0.359375 0.296875 -0.84375q0.09375 -0.5 0.09375 -1.078125l0 -1.390625zm9.826309 2.46875q-0.046875 0.71875 -0.3125 1.296875q-0.265625 0.5625 -0.71875 0.96875q-0.4375 0.40625 -1.046875 0.625q-0.609375 0.21875 -1.34375 0.21875q-0.84375 0 -1.5 -0.3125q-0.640625 -0.3125 -1.09375 -0.859375q-0.4375 -0.5625 -0.671875 -1.34375q-0.234375 -0.78125 -0.234375 -1.71875l0 -1.28125q0 -0.9375 0.25 -1.71875q0.25 -0.78125 0.703125 -1.34375q0.453125 -0.5625 1.09375 -0.859375q0.65625 -0.3125 1.453125 -0.3125q0.78125 0 1.390625 0.21875q0.609375 0.21875 1.03125 0.640625q0.4375 0.40625 0.6875 1.0q0.25 0.578125 0.3125 1.328125l-1.828125 0q-0.015625 -0.421875 -0.125 -0.734375q-0.09375 -0.328125 -0.296875 -0.53125q-0.1875 -0.21875 -0.484375 -0.328125q-0.28125 -0.109375 -0.6875 -0.109375q-0.421875 0 -0.734375 0.1875q-0.3125 0.1875 -0.515625 0.546875q-0.203125 0.34375 -0.296875 0.859375q-0.09375 0.5 -0.09375 1.15625l0 1.28125q0 1.40625 0.390625 2.078125q0.390625 0.65625 1.25 0.65625q0.703125 0 1.125 -0.375q0.421875 -0.375 0.46875 -1.234375l1.828125 0zm4.232559 -0.921875l-1.0 1.09375l0 2.796875l-1.828125 0l0 -9.46875l1.828125 0l0 4.328125l0.859375 -1.15625l2.3125 -3.171875l2.234375 0l-3.1875 4.1875l3.296875 5.28125l-2.171875 0l-2.34375 -3.890625z" fill-rule="nonzero"/><path fill="#000000" fill-opacity="0.0" d="m56.692913 195.59055l377.95276 0" fill-rule="evenodd"/><path stroke="#000000" stroke-width="1.0" stroke-linejoin="round" stroke-linecap="butt" d="m56.692913 195.59055l371.95276 0" fill-rule="evenodd"/><path fill="#000000" stroke="#000000" stroke-width="1.0" stroke-linecap="butt" d="m428.64566 197.24228l4.5381165 -1.6517334l-4.5381165 -1.6517334z" fill-rule="evenodd"/><path fill="#000000" fill-opacity="0.0" d="m0 176.69292l56.692913 0l0 18.897629l-56.692913 0z" fill-rule="evenodd"/><path fill="#000000" d="m17.843855 186.7411l-3.234375 0l0 3.140625l-1.46875 0l0 -7.578125l5.109375 0l0 1.1875l-3.640625 0l0 2.0625l3.234375 0l0 1.1875zm4.1604156 0.3125l-1.109375 0l0 2.828125l-1.453125 0l0 -7.578125l2.53125 0q0.625 0 1.140625 0.15625q0.515625 0.140625 0.875 0.4375q0.359375 0.28125 0.546875 0.703125q0.203125 0.421875 0.203125 0.984375q0 0.40625 -0.09375 0.734375q-0.09375 0.328125 -0.28125 0.59375q-0.171875 0.25 -0.4375 0.453125q-0.25 0.1875 -0.5625 0.328125l1.640625 3.125l0 0.0625l-1.578125 0l-1.421875 -2.828125zm-1.109375 -1.1875l1.078125 0q0.625 0 0.953125 -0.3125q0.34375 -0.3125 0.34375 -0.859375q0 -0.578125 -0.328125 -0.890625q-0.328125 -0.3125 -0.96875 -0.3125l-1.078125 0l0 2.375zm8.660416 2.4375l-2.265625 0l-0.453125 1.578125l-1.546875 0l2.484375 -7.578125l1.328125 0l2.4375 7.578125l-1.546875 0l-0.4375 -1.578125zm-1.90625 -1.25l1.5625 0l-0.78125 -2.78125l-0.78125 2.78125zm6.3791676 -4.75l0.703125 2.84375l0.828125 -2.84375l1.8125 0l0 7.578125l-1.34375 0l0 -2.25l0.0625 -3.53125l-1.0 3.28125l-0.71875 0l-0.890625 -3.140625l0.0625 3.390625l0 2.25l-1.34375 0l0 -7.578125l1.828125 0zm9.254166 4.265625l-3.109375 0l0 2.125l3.640625 0l0 1.1875l-5.109375 0l0 -7.578125l5.09375 0l0 1.1875l-3.625 0l0 1.921875l3.109375 0l0 1.15625z" fill-rule="nonzero"/><path fill="#000000" fill-opacity="0.0" d="m0 195.59055l56.692913 0l0 18.897644l-56.692913 0z" fill-rule="evenodd"/><path fill="#000000" d="m13.031355 208.77937l0 -7.578125l2.546875 0q0.609375 0 1.109375 0.125q0.515625 0.125 0.875 0.390625q0.359375 0.25 0.546875 0.640625q0.203125 0.390625 0.203125 0.921875q0 0.53125 -0.28125 0.953125q-0.28125 0.421875 -0.8125 0.640625q0.328125 0.078125 0.5625 0.25q0.234375 0.15625 0.390625 0.390625q0.171875 0.21875 0.234375 0.484375q0.078125 0.265625 0.078125 0.5625q0 0.546875 -0.1875 0.96875q-0.1875 0.40625 -0.53125 0.6875q-0.34375 0.28125 -0.84375 0.421875q-0.5 0.140625 -1.125 0.140625l-2.765625 0zm1.46875 -3.34375l0 2.15625l1.296875 0q0.59375 0 0.90625 -0.28125q0.328125 -0.296875 0.328125 -0.765625q0 -0.515625 -0.296875 -0.796875q-0.28125 -0.296875 -0.875 -0.3125l-1.359375 0zm0 -1.046875l1.078125 0q0.609375 -0.015625 0.9375 -0.265625q0.328125 -0.25 0.34375 -0.734375q0 -0.53125 -0.328125 -0.75q-0.328125 -0.234375 -0.953125 -0.25l-1.078125 0l0 2.0zm6.5041656 3.203125l3.546875 0l0 1.1875l-5.015625 0l0 -7.578125l1.46875 0l0 6.390625zm10.113541 -2.046875q0 0.734375 -0.203125 1.34375q-0.1875 0.609375 -0.546875 1.0625q-0.359375 0.4375 -0.890625 0.6875q-0.515625 0.25 -1.171875 0.25q-0.65625 0 -1.171875 -0.25q-0.5 -0.25 -0.859375 -0.6875q-0.34375 -0.453125 -0.53125 -1.0625q-0.171875 -0.609375 -0.171875 -1.34375l0 -1.09375q0 -0.734375 0.171875 -1.34375q0.1875 -0.625 0.53125 -1.0625q0.359375 -0.453125 0.859375 -0.703125q0.515625 -0.25 1.15625 -0.25q0.671875 0 1.1875 0.25q0.53125 0.25 0.890625 0.703125q0.359375 0.4375 0.546875 1.0625q0.203125 0.609375 0.203125 1.34375l0 1.09375zm-1.484375 -1.109375q0 -0.46875 -0.078125 -0.859375q-0.078125 -0.390625 -0.234375 -0.671875q-0.15625 -0.28125 -0.421875 -0.4375q-0.25 -0.15625 -0.609375 -0.15625q-0.34375 0 -0.59375 0.15625q-0.234375 0.15625 -0.375 0.4375q-0.140625 0.28125 -0.203125 0.671875q-0.0625 0.390625 -0.0625 0.859375l0 1.109375q0 0.46875 0.0625 0.859375q0.0625 0.375 0.203125 0.671875q0.140625 0.28125 0.375 0.453125q0.25 0.15625 0.609375 0.15625q0.34375 0 0.59375 -0.15625q0.265625 -0.171875 0.421875 -0.453125q0.15625 -0.28125 0.234375 -0.671875q0.078125 -0.390625 0.078125 -0.859375l0 -1.109375zm7.8479176 1.96875q-0.03125 0.578125 -0.25 1.03125q-0.203125 0.453125 -0.5625 0.78125q-0.34375 0.328125 -0.84375 0.5q-0.484375 0.171875 -1.078125 0.171875q-0.671875 0 -1.1875 -0.25q-0.515625 -0.25 -0.875 -0.6875q-0.359375 -0.453125 -0.546875 -1.078125q-0.1875019 -0.625 -0.1875019 -1.359375l0 -1.03125q0 -0.75 0.2031269 -1.375q0.203125 -0.625 0.5625 -1.0625q0.359375 -0.453125 0.875 -0.703125q0.53125 -0.25 1.171875 -0.25q0.625 0 1.109375 0.1875q0.484375 0.171875 0.828125 0.5q0.34375 0.328125 0.53125 0.796875q0.203125 0.46875 0.265625 1.0625l-1.46875 0q-0.015625 -0.328125 -0.09375 -0.578125q-0.078125 -0.265625 -0.234375 -0.4375q-0.15625 -0.171875 -0.390625 -0.25q-0.234375 -0.09375 -0.546875 -0.09375q-0.34375 0 -0.59375 0.15625q-0.25 0.140625 -0.421875 0.421875q-0.15625 0.28125 -0.234375 0.6875q-0.078125 0.40625 -0.078125 0.9375l0 1.03125q0 1.109375 0.3125 1.65625q0.328125 0.53125 1.0 0.53125q0.578125 0 0.90625 -0.296875q0.328125 -0.3125 0.375 -1.0l1.453125 0zm3.3947906 -0.734375l-0.796875 0.875l0 2.234375l-1.46875 0l0 -7.578125l1.46875 0l0 3.46875l0.6875 -0.921875l1.84375 -2.546875l1.78125 0l-2.546875 3.359375l2.640625 4.21875l-1.734375 0l-1.875 -3.109375z" fill-rule="nonzero"/><path fill="#000000" fill-opacity="0.0" d="m0 271.2257l116.7874 0l0 58.393707l-116.7874 0z" fill-rule="evenodd"/><path stroke="#d9d9d9" stroke-width="1.0" stroke-linejoin="round" stroke-linecap="butt" stroke-dasharray="4.0,3.0" d="m0 271.2257l116.7874 0l0 58.393707l-116.7874 0z" fill-rule="evenodd"/><path fill="#000000" d="m45.257614 301.3007l-4.046875 0l0 3.921875l-1.84375 0l0 -9.46875l6.40625 0l0 1.484375l-4.5625 0l0 2.578125l4.046875 0l0 1.484375zm5.201309 0.375l-1.375 0l0 3.546875l-1.828125 0l0 -9.46875l3.171875 0q0.78125 0 1.421875 0.1875q0.640625 0.171875 1.09375 0.53125q0.453125 0.359375 0.6875 0.890625q0.25 0.53125 0.25 1.234375q0 0.515625 -0.125 0.921875q-0.109375 0.40625 -0.34375 0.734375q-0.21875 0.3125 -0.546875 0.5625q-0.3125 0.234375 -0.703125 0.40625l2.046875 3.921875l0 0.078125l-1.96875 0l-1.78125 -3.546875zm-1.375 -1.484375l1.34375 0q0.78125 0 1.203125 -0.390625q0.421875 -0.390625 0.421875 -1.078125q0 -0.703125 -0.421875 -1.09375q-0.40625 -0.390625 -1.203125 -0.390625l-1.34375 0l0 2.953125zm10.826309 3.046875l-2.84375 0l-0.5625 1.984375l-1.921875 0l3.09375 -9.46875l1.671875 0l3.03125 9.46875l-1.921875 0l-0.546875 -1.984375zm-2.390625 -1.546875l1.953125 0l-0.96875 -3.484375l-0.984375 3.484375zm7.966934 -5.9375l0.90625 3.546875l1.015625 -3.546875l2.265625 0l0 9.46875l-1.671875 0l0 -2.8125l0.078125 -4.421875l-1.25 4.109375l-0.890625 0l-1.125 -3.9375l0.078125 4.25l0 2.8125l-1.671875 0l0 -9.46875l2.265625 0zm11.591934 5.3125l-3.890625 0l0 2.671875l4.546875 0l0 1.484375l-6.390625 0l0 -9.46875l6.375 0l0 1.484375l-4.53125 0l0 2.390625l3.890625 0l0 1.4375z" fill-rule="nonzero"/><path fill="#000000" fill-opacity="0.0" d="m322.2362 0l220.06299 0l0 113.385826l-220.06299 0z" fill-rule="evenodd"/><path fill="#434343" d="m340.31433 65.23291l-2.171875 0l0 -14.296875l-4.46875 1.703125l0 -1.984375l6.453125 -2.484375l0.1875 0l0 17.0625zm21.742188 0l0 -17.0625l5.078125 0q1.046875 0.015625 2.046875 0.28125q1.015625 0.25 1.796875 0.8125q0.796875 0.546875 1.265625 1.40625q0.46875 0.84375 0.453125 2.046875q-0.015625 0.671875 -0.21875 1.21875q-0.203125 0.546875 -0.5625 0.984375q-0.359375 0.4375 -0.84375 0.765625q-0.46875 0.328125 -1.015625 0.5625q0.6875 0.203125 1.25 0.578125q0.578125 0.359375 0.984375 0.890625q0.40625 0.515625 0.625 1.171875q0.234375 0.65625 0.234375 1.421875q0.015625 1.1875 -0.453125 2.109375q-0.46875 0.90625 -1.25 1.53125q-0.78125 0.609375 -1.8125 0.9375q-1.03125 0.328125 -2.109375 0.34375l-5.46875 0zm2.1875 -7.984375l0 6.140625l3.328125 0q0.6875 -0.015625 1.296875 -0.21875q0.609375 -0.21875 1.078125 -0.609375q0.46875 -0.390625 0.734375 -0.953125q0.28125 -0.5625 0.28125 -1.28125q0.015625 -0.71875 -0.234375 -1.28125q-0.25 -0.5625 -0.703125 -0.953125q-0.4375 -0.390625 -1.046875 -0.59375q-0.59375 -0.21875 -1.28125 -0.25l-3.453125 0zm0 -1.796875l3.015625 0q0.609375 -0.015625 1.1875 -0.1875q0.59375 -0.1875 1.046875 -0.53125q0.46875 -0.359375 0.75 -0.859375q0.28125 -0.5 0.28125 -1.171875q0 -0.71875 -0.28125 -1.21875q-0.28125 -0.5 -0.75 -0.8125q-0.453125 -0.328125 -1.0625 -0.484375q-0.59375 -0.15625 -1.234375 -0.171875l-2.953125 0l0 5.4375zm12.574219 -8.21875l6.484375 0l0 16.125l4.140625 0l0 1.875l-10.625 0l0 -1.875l4.3125 0l0 -14.234375l-4.3125 0l0 -1.890625zm13.464844 11.546875q0 -1.375 0.390625 -2.546875q0.40625 -1.1875 1.140625 -2.046875q0.75 -0.875 1.8125 -1.375q1.0625 -0.5 2.40625 -0.5q1.34375 0 2.40625 0.5q1.078125 0.5 1.828125 1.375q0.75 0.859375 1.140625 2.046875q0.40625 1.171875 0.40625 2.546875l0 0.25q0 1.375 -0.40625 2.546875q-0.390625 1.171875 -1.140625 2.046875q-0.75 0.859375 -1.8125 1.359375q-1.0625 0.484375 -2.40625 0.484375q-1.34375 0 -2.421875 -0.484375q-1.0625 -0.5 -1.8125 -1.359375q-0.734375 -0.875 -1.140625 -2.046875q-0.390625 -1.171875 -0.390625 -2.546875l0 -0.25zm2.15625 0.25q0 0.9375 0.21875 1.796875q0.234375 0.84375 0.6875 1.484375q0.453125 0.640625 1.125 1.015625q0.6875 0.375 1.578125 0.375q0.890625 0 1.5625 -0.375q0.6875 -0.375 1.125 -1.015625q0.453125 -0.640625 0.671875 -1.484375q0.234375 -0.859375 0.234375 -1.796875l0 -0.25q0 -0.9375 -0.234375 -1.78125q-0.21875 -0.84375 -0.671875 -1.484375q-0.453125 -0.65625 -1.125 -1.03125q-0.671875 -0.390625 -1.578125 -0.390625q-0.90625 0 -1.578125 0.390625q-0.65625 0.375 -1.109375 1.03125q-0.453125 0.640625 -0.6875 1.484375q-0.21875 0.84375 -0.21875 1.78125l0 0.25zm18.246094 4.671875q0.59375 0 1.140625 -0.1875q0.5625 -0.1875 1.0 -0.515625q0.4375 -0.328125 0.6875 -0.78125q0.265625 -0.453125 0.28125 -0.984375l2.046875 0q0 0.84375 -0.4375 1.609375q-0.421875 0.765625 -1.140625 1.359375q-0.71875 0.578125 -1.640625 0.921875q-0.921875 0.34375 -1.9375 0.34375q-1.4375 0 -2.515625 -0.515625q-1.078125 -0.515625 -1.796875 -1.390625q-0.71875 -0.875 -1.09375 -2.015625q-0.359375 -1.140625 -0.359375 -2.40625l0 -0.5q0 -1.25 0.359375 -2.390625q0.375 -1.15625 1.09375 -2.03125q0.71875 -0.875 1.796875 -1.390625q1.078125 -0.515625 2.515625 -0.515625q1.125 0 2.0625 0.359375q0.953125 0.359375 1.640625 0.984375q0.6875 0.609375 1.0625 1.453125q0.390625 0.84375 0.390625 1.796875l-2.046875 0q-0.015625 -0.5625 -0.25 -1.078125q-0.234375 -0.515625 -0.65625 -0.890625q-0.40625 -0.390625 -0.984375 -0.609375q-0.5625 -0.234375 -1.21875 -0.234375q-1.0 0 -1.6875 0.40625q-0.6875 0.40625 -1.109375 1.0625q-0.421875 0.640625 -0.609375 1.453125q-0.171875 0.8125 -0.171875 1.625l0 0.5q0 0.828125 0.171875 1.640625q0.1875 0.8125 0.59375 1.46875q0.421875 0.65625 1.109375 1.0625q0.6875 0.390625 1.703125 0.390625zm12.808594 -4.390625l-1.59375 1.53125l0 4.390625l-2.1875 0l0 -18.0l2.1875 0l0 11.015625l1.40625 -1.53125l4.171875 -4.171875l2.625 0l-5.125 5.296875l5.921875 7.390625l-2.765625 0l-4.640625 -5.921875zm35.460938 -3.21875l-10.46875 0l0 -1.890625l10.46875 0l0 1.890625zm0 4.859375l-10.46875 0l0 -1.875l10.46875 0l0 1.875zm25.382812 4.28125l-2.171875 0l0 -14.296875l-4.46875 1.703125l0 -1.984375l6.453125 -2.484375l0.1875 0l0 17.0625zm12.964844 0.234375q-1.328125 0 -2.453125 -0.453125q-1.125 -0.46875 -1.921875 -1.28125q-0.796875 -0.828125 -1.25 -1.953125q-0.4375 -1.125 -0.4375 -2.4375l0 -0.5q0 -1.53125 0.484375 -2.734375q0.5 -1.21875 1.3125 -2.0625q0.828125 -0.84375 1.859375 -1.28125q1.03125 -0.453125 2.125 -0.453125q1.375 0 2.390625 0.484375q1.03125 0.46875 1.703125 1.3125q0.6875 0.828125 1.015625 1.96875q0.34375 1.140625 0.34375 2.46875l0 0.96875l-9.0625 0q0.03125 0.859375 0.328125 1.625q0.3125 0.765625 0.828125 1.34375q0.515625 0.5625 1.234375 0.890625q0.734375 0.328125 1.625 0.328125q1.15625 0 2.046875 -0.46875q0.90625 -0.46875 1.515625 -1.25l1.3125 1.03125q-0.3125 0.484375 -0.796875 0.921875q-0.46875 0.4375 -1.09375 0.78125q-0.609375 0.34375 -1.40625 0.546875q-0.78125 0.203125 -1.703125 0.203125zm-0.28125 -11.375q-0.65625 0 -1.25 0.25q-0.578125 0.234375 -1.046875 0.703125q-0.46875 0.453125 -0.796875 1.140625q-0.3125 0.671875 -0.4375 1.546875l6.8125 0l0 -0.171875q-0.03125 -0.625 -0.234375 -1.25q-0.203125 -0.625 -0.609375 -1.109375q-0.390625 -0.5 -1.0 -0.796875q-0.609375 -0.3125 -1.4375 -0.3125zm10.074219 -1.546875l0.0625 1.203125q0.390625 -0.671875 1.015625 -1.046875q0.625 -0.375 1.515625 -0.390625q1.75 0 2.328125 1.359375q0.375 -0.609375 0.984375 -0.96875q0.625 -0.375 1.5 -0.390625q1.40625 0 2.15625 0.859375q0.75 0.859375 0.75 2.59375l0 9.46875l-2.0625 0l0 -9.5q0 -1.59375 -1.46875 -1.578125q-0.390625 0 -0.671875 0.109375q-0.28125 0.109375 -0.46875 0.296875q-0.1875 0.171875 -0.296875 0.421875q-0.09375 0.234375 -0.140625 0.484375l0 9.765625l-2.0625 0l0 -9.5q0 -0.765625 -0.34375 -1.171875q-0.328125 -0.421875 -1.0625 -0.40625q-0.6875 0 -1.0625 0.28125q-0.375 0.265625 -0.546875 0.703125l0 10.09375l-2.0625 0l0 -12.6875l1.9375 0z" fill-rule="nonzero"/><path fill="#000000" fill-opacity="0.0" d="m117.614174 271.2257l302.3622 0l0 116.787415l-302.3622 0z" fill-rule="evenodd"/><path fill="#434343" d="m148.2523 338.15942l-2.171875 0l0 -14.296875l-4.46875 1.703125l0 -1.984375l6.453125 -2.484375l0.1875 0l0 17.0625zm31.257812 -7.53125l-7.09375 0l0 7.53125l-2.203125 0l0 -17.0625l10.484375 0l0 1.84375l-8.28125 0l0 5.84375l7.09375 0l0 1.84375zm13.214844 -5.390625q0.3125 0 0.640625 0.03125q0.328125 0.015625 0.625 0.0625q0.296875 0.03125 0.546875 0.09375q0.25 0.046875 0.421875 0.125l-0.296875 2.125q-0.625 -0.140625 -1.203125 -0.203125q-0.5625 -0.078125 -1.1875 -0.078125q-1.515625 0 -2.46875 0.703125q-0.9375 0.6875 -1.390625 1.921875l0 8.140625l-2.171875 0l0 -12.6875l2.0625 0l0.109375 2.015625q0.765625 -1.03125 1.84375 -1.640625q1.09375 -0.609375 2.46875 -0.609375zm14.433594 12.921875q-0.125 -0.25 -0.203125 -0.609375q-0.078125 -0.375 -0.109375 -0.78125q-0.328125 0.328125 -0.734375 0.625q-0.40625 0.296875 -0.890625 0.515625q-0.484375 0.21875 -1.046875 0.34375q-0.546875 0.140625 -1.171875 0.140625q-1.0 0 -1.8125 -0.296875q-0.8125 -0.296875 -1.390625 -0.78125q-0.5625 -0.5 -0.875 -1.1875q-0.3125 -0.6875 -0.3125 -1.484375q0 -1.046875 0.40625 -1.828125q0.421875 -0.78125 1.1875 -1.296875q0.765625 -0.53125 1.828125 -0.78125q1.078125 -0.265625 2.40625 -0.265625l2.359375 0l0 -1.0q0 -0.578125 -0.21875 -1.03125q-0.203125 -0.453125 -0.59375 -0.765625q-0.375 -0.328125 -0.9375 -0.5q-0.546875 -0.1875 -1.25 -0.1875q-0.640625 0 -1.15625 0.171875q-0.5 0.15625 -0.859375 0.4375q-0.34375 0.265625 -0.546875 0.640625q-0.1875 0.359375 -0.1875 0.75l-2.171875 0q0 -0.6875 0.34375 -1.34375q0.359375 -0.671875 1.0 -1.203125q0.65625 -0.546875 1.578125 -0.875q0.9375 -0.328125 2.125 -0.328125q1.078125 0 2.0 0.265625q0.921875 0.265625 1.59375 0.796875q0.6875 0.53125 1.0625 1.328125q0.390625 0.796875 0.390625 1.875l0 5.890625q0 0.625 0.109375 1.34375q0.125 0.703125 0.34375 1.234375l0 0.1875l-2.265625 0zm-3.828125 -1.65625q0.625 0 1.171875 -0.15625q0.5625 -0.171875 1.0 -0.4375q0.453125 -0.265625 0.78125 -0.609375q0.328125 -0.359375 0.515625 -0.734375l0 -2.5625l-2.015625 0q-1.890625 0 -2.953125 0.5625q-1.046875 0.5625 -1.046875 1.765625q0 0.46875 0.15625 0.875q0.15625 0.390625 0.46875 0.6875q0.328125 0.28125 0.796875 0.453125q0.484375 0.15625 1.125 0.15625zm10.886719 -11.03125l0.0625 1.203125q0.390625 -0.671875 1.015625 -1.046875q0.625 -0.375 1.515625 -0.390625q1.75 0 2.328125 1.359375q0.375 -0.609375 0.984375 -0.96875q0.625 -0.375 1.5 -0.390625q1.40625 0 2.15625 0.859375q0.75 0.859375 0.75 2.59375l0 9.46875l-2.0625 0l0 -9.5q0 -1.59375 -1.46875 -1.578125q-0.390625 0 -0.671875 0.109375q-0.28125 0.109375 -0.46875 0.296875q-0.1875 0.171875 -0.296875 0.421875q-0.09375 0.234375 -0.140625 0.484375l0 9.765625l-2.0625 0l0 -9.5q0 -0.765625 -0.34375 -1.171875q-0.328125 -0.421875 -1.0625 -0.40625q-0.6875 0 -1.0625 0.28125q-0.375 0.265625 -0.546875 0.703125l0 10.09375l-2.0625 0l0 -12.6875l1.9375 0zm19.011719 12.921875q-1.328125 0 -2.453125 -0.453125q-1.125 -0.46875 -1.921875 -1.28125q-0.796875 -0.828125 -1.25 -1.953125q-0.4375 -1.125 -0.4375 -2.4375l0 -0.5q0 -1.53125 0.484375 -2.734375q0.5 -1.21875 1.3125 -2.0625q0.828125 -0.84375 1.859375 -1.28125q1.03125 -0.453125 2.125 -0.453125q1.375 0 2.390625 0.484375q1.03125 0.46875 1.703125 1.3125q0.6875 0.828125 1.015625 1.96875q0.34375 1.140625 0.34375 2.46875l0 0.96875l-9.0625 0q0.03125 0.859375 0.328125 1.625q0.3125 0.765625 0.828125 1.34375q0.515625 0.5625 1.234375 0.890625q0.734375 0.328125 1.625 0.328125q1.15625 0 2.046875 -0.46875q0.90625 -0.46875 1.515625 -1.25l1.3125 1.03125q-0.3125 0.484375 -0.796875 0.921875q-0.46875 0.4375 -1.09375 0.78125q-0.609375 0.34375 -1.40625 0.546875q-0.78125 0.203125 -1.703125 0.203125zm-0.28125 -11.375q-0.65625 0 -1.25 0.25q-0.578125 0.234375 -1.046875 0.703125q-0.46875 0.453125 -0.796875 1.140625q-0.3125 0.671875 -0.4375 1.546875l6.8125 0l0 -0.171875q-0.03125 -0.625 -0.234375 -1.25q-0.203125 -0.625 -0.609375 -1.109375q-0.390625 -0.5 -1.0 -0.796875q-0.609375 -0.3125 -1.4375 -0.3125zm33.945328 2.0l-10.46875 0l0 -1.890625l10.46875 0l0 1.890625zm0 4.859375l-10.46875 0l0 -1.875l10.46875 0l0 1.875zm28.804688 4.28125l-11.171875 0l0 -1.5625l5.59375 -6.203125q0.75 -0.84375 1.25 -1.484375q0.5 -0.640625 0.796875 -1.1875q0.3125 -0.546875 0.4375 -1.03125q0.140625 -0.484375 0.140625 -1.0q0 -0.640625 -0.21875 -1.1875q-0.203125 -0.5625 -0.59375 -0.96875q-0.390625 -0.40625 -0.953125 -0.640625q-0.546875 -0.25 -1.25 -0.25q-0.859375 0 -1.484375 0.25q-0.625 0.234375 -1.046875 0.6875q-0.40625 0.453125 -0.625 1.109375q-0.203125 0.640625 -0.203125 1.4375l-2.171875 0q0 -1.078125 0.375 -2.03125q0.375 -0.96875 1.078125 -1.671875q0.71875 -0.71875 1.734375 -1.140625q1.03125 -0.421875 2.34375 -0.421875q1.203125 0 2.171875 0.359375q0.96875 0.359375 1.625 1.0q0.671875 0.625 1.03125 1.5q0.359375 0.859375 0.359375 1.875q0 0.765625 -0.265625 1.515625q-0.25 0.734375 -0.6875 1.46875q-0.4375 0.71875 -1.015625 1.4375q-0.578125 0.703125 -1.234375 1.40625l-4.578125 4.96875l8.5625 0l0 1.765625zm18.320312 0l0 -17.0625l5.078125 0q1.046875 0.015625 2.046875 0.28125q1.015625 0.25 1.796875 0.8125q0.796875 0.546875 1.265625 1.40625q0.46875 0.84375 0.453125 2.046875q-0.015625 0.671875 -0.21875 1.21875q-0.203125 0.546875 -0.5625 0.984375q-0.359375 0.4375 -0.84375 0.765625q-0.46875 0.328125 -1.015625 0.5625q0.6875 0.203125 1.25 0.578125q0.578125 0.359375 0.984375 0.890625q0.40625 0.515625 0.625 1.171875q0.234375 0.65625 0.234375 1.421875q0.015625 1.1875 -0.453125 2.109375q-0.46875 0.90625 -1.25 1.53125q-0.78125 0.609375 -1.8125 0.9375q-1.03125 0.328125 -2.109375 0.34375l-5.46875 0zm2.1875 -7.984375l0 6.140625l3.328125 0q0.6875 -0.015625 1.296875 -0.21875q0.609375 -0.21875 1.078125 -0.609375q0.46875 -0.390625 0.734375 -0.953125q0.28125 -0.5625 0.28125 -1.28125q0.015625 -0.71875 -0.234375 -1.28125q-0.25 -0.5625 -0.703125 -0.953125q-0.4375 -0.390625 -1.046875 -0.59375q-0.59375 -0.21875 -1.28125 -0.25l-3.453125 0zm0 -1.796875l3.015625 0q0.609375 -0.015625 1.1875 -0.1875q0.59375 -0.1875 1.046875 -0.53125q0.46875 -0.359375 0.75 -0.859375q0.28125 -0.5 0.28125 -1.171875q0 -0.71875 -0.28125 -1.21875q-0.28125 -0.5 -0.75 -0.8125q-0.453125 -0.328125 -1.0625 -0.484375q-0.59375 -0.15625 -1.234375 -0.171875l-2.953125 0l0 5.4375zm12.574219 -8.21875l6.484375 0l0 16.125l4.140625 0l0 1.875l-10.625 0l0 -1.875l4.3125 0l0 -14.234375l-4.3125 0l0 -1.890625zm13.464844 11.546875q0 -1.375 0.390625 -2.546875q0.40625 -1.1875 1.140625 -2.046875q0.75 -0.875 1.8125 -1.375q1.0625 -0.5 2.40625 -0.5q1.34375 0 2.40625 0.5q1.078125 0.5 1.828125 1.375q0.75 0.859375 1.140625 2.046875q0.40625 1.171875 0.40625 2.546875l0 0.25q0 1.375 -0.40625 2.546875q-0.390625 1.171875 -1.140625 2.046875q-0.75 0.859375 -1.8125 1.359375q-1.0625 0.484375 -2.40625 0.484375q-1.34375 0 -2.421875 -0.484375q-1.0625 -0.5 -1.8125 -1.359375q-0.734375 -0.875 -1.140625 -2.046875q-0.390625 -1.171875 -0.390625 -2.546875l0 -0.25zm2.15625 0.25q0 0.9375 0.21875 1.796875q0.234375 0.84375 0.6875 1.484375q0.453125 0.640625 1.125 1.015625q0.6875 0.375 1.578125 0.375q0.890625 0 1.5625 -0.375q0.6875 -0.375 1.125 -1.015625q0.453125 -0.640625 0.671875 -1.484375q0.234375 -0.859375 0.234375 -1.796875l0 -0.25q0 -0.9375 -0.234375 -1.78125q-0.21875 -0.84375 -0.671875 -1.484375q-0.453125 -0.65625 -1.125 -1.03125q-0.671875 -0.390625 -1.578125 -0.390625q-0.90625 0 -1.578125 0.390625q-0.65625 0.375 -1.109375 1.03125q-0.453125 0.640625 -0.6875 1.484375q-0.21875 0.84375 -0.21875 1.78125l0 0.25zm18.246094 4.671875q0.59375 0 1.140625 -0.1875q0.5625 -0.1875 1.0 -0.515625q0.4375 -0.328125 0.6875 -0.78125q0.265625 -0.453125 0.28125 -0.984375l2.046875 0q0 0.84375 -0.4375 1.609375q-0.421875 0.765625 -1.140625 1.359375q-0.71875 0.578125 -1.640625 0.921875q-0.921875 0.34375 -1.9375 0.34375q-1.4375 0 -2.515625 -0.515625q-1.078125 -0.515625 -1.796875 -1.390625q-0.71875 -0.875 -1.09375 -2.015625q-0.359375 -1.140625 -0.359375 -2.40625l0 -0.5q0 -1.25 0.359375 -2.390625q0.375 -1.15625 1.09375 -2.03125q0.71875 -0.875 1.796875 -1.390625q1.078125 -0.515625 2.515625 -0.515625q1.125 0 2.0625 0.359375q0.953125 0.359375 1.640625 0.984375q0.6875 0.609375 1.0625 1.453125q0.390625 0.84375 0.390625 1.796875l-2.046875 0q-0.015625 -0.5625 -0.25 -1.078125q-0.234375 -0.515625 -0.65625 -0.890625q-0.40625 -0.390625 -0.984375 -0.609375q-0.5625 -0.234375 -1.21875 -0.234375q-1.0 0 -1.6875 0.40625q-0.6875 0.40625 -1.109375 1.0625q-0.421875 0.640625 -0.609375 1.453125q-0.171875 0.8125 -0.171875 1.625l0 0.5q0 0.828125 0.171875 1.640625q0.1875 0.8125 0.59375 1.46875q0.421875 0.65625 1.109375 1.0625q0.6875 0.390625 1.703125 0.390625zm12.808563 -4.390625l-1.59375 1.53125l0 4.390625l-2.1874695 0l0 -18.0l2.1874695 0l0 11.015625l1.40625 -1.53125l4.171875 -4.171875l2.625 0l-5.125 5.296875l5.921875 7.390625l-2.765625 0l-4.640625 -5.921875zm19.027344 2.5625q0 -0.390625 -0.15625 -0.703125q-0.15625 -0.3125 -0.515625 -0.5625q-0.359375 -0.265625 -0.96875 -0.484375q-0.59375 -0.21875 -1.484375 -0.390625q-1.078125 -0.21875 -1.984375 -0.53125q-0.890625 -0.328125 -1.53125 -0.765625q-0.640625 -0.4375 -1.0 -1.03125q-0.34375 -0.59375 -0.34375 -1.375q0 -0.765625 0.359375 -1.4375q0.375 -0.6875 1.03125 -1.1875q0.65625 -0.5 1.5625 -0.796875q0.90625 -0.296875 2.0 -0.296875q1.171875 0 2.109375 0.3125q0.9375 0.296875 1.59375 0.84375q0.65625 0.53125 1.0 1.265625q0.359375 0.71875 0.359375 1.546875l-2.15625 0q0 -0.40625 -0.21875 -0.796875q-0.203125 -0.40625 -0.578125 -0.703125q-0.375 -0.3125 -0.921875 -0.5q-0.53125 -0.1875 -1.1875 -0.1875q-0.703125 0 -1.21875 0.15625q-0.515625 0.15625 -0.875 0.421875q-0.34375 0.25 -0.515625 0.59375q-0.171875 0.328125 -0.171875 0.703125q0 0.375 0.140625 0.671875q0.140625 0.28125 0.484375 0.515625q0.34375 0.234375 0.921875 0.421875q0.578125 0.1875 1.46875 0.359375q1.171875 0.25 2.09375 0.578125q0.9375 0.3125 1.5625 0.765625q0.640625 0.453125 0.96875 1.0625q0.34375 0.59375 0.34375 1.375q0 0.84375 -0.390625 1.53125q-0.375 0.6875 -1.0625 1.1875q-0.671875 0.484375 -1.625 0.765625q-0.953125 0.265625 -2.078125 0.265625q-1.28125 0 -2.296875 -0.34375q-1.0 -0.34375 -1.703125 -0.90625q-0.6875 -0.578125 -1.0625 -1.328125q-0.375 -0.75 -0.375 -1.5625l2.171875 0q0.046875 0.671875 0.359375 1.125q0.3125 0.453125 0.765625 0.734375q0.46875 0.28125 1.03125 0.40625q0.5625 0.109375 1.109375 0.109375q1.375 0 2.171875 -0.5q0.796875 -0.5 0.8125 -1.328125z" fill-rule="nonzero"/><path fill="#000000" fill-opacity="0.0" d="m182.50919 115.04024l113.38583 0l0 22.929138l-113.38583 0z" fill-rule="evenodd"/><path fill="#434343" d="m192.39981 134.28024l0 -7.578125l2.25 0q0.46875 0 0.921875 0.125q0.453125 0.109375 0.796875 0.359375q0.34375 0.25 0.546875 0.625q0.21875 0.375 0.21875 0.90625q-0.015625 0.296875 -0.109375 0.546875q-0.078125 0.25 -0.25 0.453125q-0.15625 0.1875 -0.375 0.328125q-0.203125 0.140625 -0.4375 0.25q0.296875 0.09375 0.546875 0.265625q0.25 0.15625 0.4375 0.390625q0.1875 0.21875 0.28125 0.515625q0.109375 0.28125 0.109375 0.625q0 0.53125 -0.21875 0.9375q-0.203125 0.40625 -0.546875 0.6875q-0.34375 0.265625 -0.8125 0.421875q-0.453125 0.140625 -0.9375 0.140625l-2.421875 0zm0.96875 -3.546875l0 2.734375l1.484375 0q0.296875 -0.015625 0.5625 -0.109375q0.28125 -0.09375 0.484375 -0.265625q0.21875 -0.171875 0.328125 -0.421875q0.125 -0.25 0.125 -0.5625q0.015625 -0.328125 -0.109375 -0.578125q-0.109375 -0.25 -0.3125 -0.421875q-0.1875 -0.171875 -0.453125 -0.265625q-0.265625 -0.09375 -0.578125 -0.109375l-1.53125 0zm0 -0.796875l1.34375 0q0.265625 0 0.53125 -0.078125q0.265625 -0.09375 0.46875 -0.234375q0.203125 -0.15625 0.328125 -0.375q0.125 -0.234375 0.125 -0.53125q0 -0.3125 -0.125 -0.53125q-0.125 -0.234375 -0.328125 -0.375q-0.203125 -0.140625 -0.484375 -0.203125q-0.265625 -0.078125 -0.546875 -0.078125l-1.3125 0l0 2.40625zm5.5979156 -3.65625l2.875 0l0 7.171875l1.828125 0l0 0.828125l-4.703125 0l0 -0.828125l1.90625 0l0 -6.328125l-1.90625 0l0 -0.84375zm5.9729156 5.140625q0 -0.609375 0.171875 -1.125q0.171875 -0.53125 0.5 -0.921875q0.34375 -0.390625 0.8125 -0.609375q0.46875 -0.21875 1.0625 -0.21875q0.59375 0 1.0625 0.21875q0.484375 0.21875 0.8125 0.609375q0.34375 0.390625 0.515625 0.921875q0.171875 0.515625 0.171875 1.125l0 0.109375q0 0.609375 -0.171875 1.125q-0.171875 0.515625 -0.515625 0.90625q-0.328125 0.390625 -0.796875 0.609375q-0.46875 0.21875 -1.0625 0.21875q-0.59375 0 -1.078125 -0.21875q-0.46875 -0.21875 -0.8125 -0.609375q-0.328125 -0.390625 -0.5 -0.90625q-0.171875 -0.515625 -0.171875 -1.125l0 -0.109375zm0.953125 0.109375q0 0.40625 0.09375 0.796875q0.109375 0.375 0.3125 0.65625q0.203125 0.28125 0.5 0.453125q0.296875 0.171875 0.703125 0.171875q0.390625 0 0.6875 -0.171875q0.296875 -0.171875 0.5 -0.453125q0.203125 -0.28125 0.296875 -0.65625q0.109375 -0.390625 0.109375 -0.796875l0 -0.109375q0 -0.421875 -0.109375 -0.796875q-0.09375 -0.375 -0.296875 -0.65625q-0.203125 -0.296875 -0.5 -0.453125q-0.296875 -0.171875 -0.703125 -0.171875q-0.40625 0 -0.703125 0.171875q-0.28125 0.15625 -0.484375 0.453125q-0.203125 0.28125 -0.3125 0.65625q-0.09375 0.375 -0.09375 0.796875l0 0.109375zm8.097916 2.078125q0.265625 0 0.515625 -0.078125q0.25 -0.09375 0.4375 -0.234375q0.1875 -0.15625 0.296875 -0.359375q0.125 -0.203125 0.140625 -0.4375l0.90625 0q0 0.375 -0.203125 0.71875q-0.1875 0.34375 -0.5 0.609375q-0.3125 0.25 -0.734375 0.40625q-0.40625 0.15625 -0.859375 0.15625q-0.625 0 -1.109375 -0.234375q-0.484375 -0.234375 -0.8125 -0.609375q-0.3125 -0.390625 -0.46875 -0.890625q-0.15625 -0.515625 -0.15625 -1.078125l0 -0.21875q0 -0.5625 0.15625 -1.0625q0.15625 -0.515625 0.46875 -0.90625q0.328125 -0.390625 0.8125 -0.609375q0.484375 -0.234375 1.109375 -0.234375q0.5 0 0.921875 0.15625q0.421875 0.15625 0.71875 0.4375q0.3125 0.265625 0.484375 0.640625q0.171875 0.375 0.171875 0.8125l-0.90625 0q-0.015625 -0.265625 -0.125 -0.484375q-0.09375 -0.234375 -0.28125 -0.40625q-0.1875 -0.171875 -0.4375 -0.265625q-0.25 -0.09375 -0.546875 -0.09375q-0.4375 0 -0.75 0.1875q-0.296875 0.171875 -0.484375 0.46875q-0.1875 0.28125 -0.265625 0.640625q-0.078125 0.359375 -0.078125 0.71875l0 0.21875q0 0.359375 0.078125 0.734375q0.078125 0.359375 0.265625 0.65625q0.1875 0.28125 0.484375 0.46875q0.296875 0.171875 0.75 0.171875zm5.6916656 -1.953125l-0.703125 0.671875l0 1.953125l-0.96875 0l0 -8.0l0.96875 0l0 4.90625l0.625 -0.6875l1.84375 -1.84375l1.171875 0l-2.28125 2.34375l2.625 3.28125l-1.21875 0l-2.0625 -2.625zm16.008331 1.625q-0.484375 0.5625 -1.109375 0.84375q-0.609375 0.265625 -1.359375 0.265625q-0.46875 -0.015625 -0.859375 -0.140625q-0.390625 -0.140625 -0.703125 -0.375q-0.3125 -0.25 -0.546875 -0.578125q-0.234375 -0.328125 -0.390625 -0.703125q-0.15625 -0.390625 -0.234375 -0.8125q-0.078125 -0.421875 -0.09375 -0.84375l0 -0.875q0.015625 -0.421875 0.078125 -0.84375q0.078125 -0.421875 0.21875 -0.796875q0.140625 -0.390625 0.359375 -0.71875q0.21875 -0.34375 0.515625 -0.578125q0.3125 -0.25 0.6875 -0.390625q0.390625 -0.140625 0.875 -0.140625q0.53125 0 0.96875 0.171875q0.453125 0.15625 0.78125 0.46875q0.34375 0.296875 0.546875 0.734375q0.203125 0.421875 0.25 0.953125l-0.953125 0q-0.0625 -0.328125 -0.1875 -0.59375q-0.109375 -0.28125 -0.3125 -0.484375q-0.1875 -0.203125 -0.46875 -0.3125q-0.265625 -0.109375 -0.625 -0.109375q-0.34375 0 -0.609375 0.125q-0.25 0.109375 -0.453125 0.3125q-0.203125 0.1875 -0.328125 0.453125q-0.125 0.265625 -0.21875 0.5625q-0.078125 0.28125 -0.125 0.59375q-0.03125 0.296875 -0.03125 0.578125l0 0.890625q0.015625 0.28125 0.046875 0.59375q0.046875 0.296875 0.140625 0.59375q0.09375 0.28125 0.234375 0.546875q0.15625 0.265625 0.359375 0.46875q0.203125 0.1875 0.46875 0.3125q0.28125 0.109375 0.625 0.109375q0.1875 0.015625 0.40625 0q0.21875 -0.03125 0.421875 -0.09375q0.203125 -0.0625 0.375 -0.171875q0.1875 -0.109375 0.296875 -0.28125l0.015625 -1.6875l-1.546875 0l0 -0.8125l2.46875 0l0.015625 2.765625zm5.1760406 -4.734375q0.140625 0 0.28125 0.015625q0.140625 0 0.265625 0.015625q0.140625 0.015625 0.25 0.046875q0.125 0.03125 0.1875 0.0625l-0.125 0.9375q-0.28125 -0.0625 -0.53125 -0.09375q-0.25 -0.03125 -0.53125 -0.03125q-0.671875 0 -1.09375 0.3125q-0.421875 0.3125 -0.625 0.859375l0 3.609375l-0.953125 0l0 -5.625l0.90625 0l0.046875 0.890625q0.34375 -0.46875 0.828125 -0.734375q0.484375 -0.265625 1.09375 -0.265625zm2.8635406 0.109375l2.875 0l0 4.796875l1.828125 0l0 0.828125l-4.703125 0l0 -0.828125l1.90625 0l0 -3.96875l-1.90625 0l0 -0.828125zm1.78125 -1.484375q0 -0.234375 0.140625 -0.390625q0.140625 -0.171875 0.4375 -0.171875q0.28125 0 0.421875 0.171875q0.15625 0.15625 0.15625 0.390625q0 0.234375 -0.15625 0.390625q-0.140625 0.15625 -0.421875 0.15625q-0.296875 0 -0.4375 -0.15625q-0.140625 -0.15625 -0.140625 -0.390625zm4.2697906 4.25q0 -0.625 0.15625 -1.15625q0.171875 -0.53125 0.453125 -0.90625q0.296875 -0.390625 0.71875 -0.59375q0.421875 -0.21875 0.921875 -0.21875q0.515625 0 0.890625 0.171875q0.375 0.171875 0.65625 0.484375l0 -2.921875l0.953125 0l0 8.0l-0.875 0l-0.046875 -0.59375q-0.28125 0.34375 -0.671875 0.53125q-0.390625 0.171875 -0.90625 0.171875q-0.515625 0 -0.9375 -0.21875q-0.40625 -0.21875 -0.703125 -0.609375q-0.28125 -0.390625 -0.453125 -0.90625q-0.15625 -0.53125 -0.15625 -1.125l0 -0.109375zm0.96875 0.109375q0 0.40625 0.078125 0.78125q0.09375 0.359375 0.28125 0.640625q0.1875 0.28125 0.46875 0.453125q0.28125 0.15625 0.6875 0.15625q0.25 0 0.4375 -0.046875q0.203125 -0.0625 0.359375 -0.171875q0.171875 -0.109375 0.296875 -0.25q0.125 -0.15625 0.21875 -0.328125l0 -2.609375q-0.1875 -0.34375 -0.515625 -0.5625q-0.3125 -0.234375 -0.78125 -0.234375q-0.40625 0 -0.703125 0.171875q-0.28125 0.171875 -0.46875 0.453125q-0.1875 0.28125 -0.28125 0.65625q-0.078125 0.375 -0.078125 0.78125l0 0.109375z" fill-rule="nonzero"/></g></svg>