<svg version="1.1" viewBox="0.0 0.0 542.3622047244095 388.15748031496065" fill="none" stroke="none" stroke-linecap="square" stroke-miterlimit="10" xmlns:xlink="http://www.w3.org/1999/xlink" xmlns="http://www.w3.org/2000/svg"><clipPath id="p.0"><path d="m0 0l542.3622 0l0 388.15747l-542.3622 0l0 -388.15747z" clip-rule="nonzero"/></clipPath><g clip-path="url(#p.0)"><path fill="#000000" fill-opacity="0.0" d="m0 0l542.3622 0l0 388.15747l-542.3622 0z" fill-rule="evenodd"/><path fill="#000000" fill-opacity="0.0" d="m181.95656 0.14435695l22.929123 0l0 22.929132l-22.929123 0z" fill-rule="evenodd"/><path stroke="#f3f3f3" stroke-width="1.0" stroke-linejoin="round" stroke-linecap="butt" d="m181.95656 0.14435695l22.929123 0l0 22.929132l-22.929123 0z" fill-rule="evenodd"/><path fill="#000000" fill-opacity="0.0" d="m181.95656 23.050644l22.929123 0l0 22.929134l-22.929123 0z" fill-rule="evenodd"/><path stroke="#f3f3f3" stroke-width="1.0" stroke-linejoin="round" stroke-linecap="butt" d="m181.95656 23.050644l22.929123 0l0 22.929134l-22.929123 0z" fill-rule="evenodd"/><path fill="#000000" fill-opacity="0.0" d="m181.95656 45.956932l22.929123 0l0 22.92913l-22.929123 0z" fill-rule="evenodd"/><path stroke="#f3f3f3" stroke-width="1.0" stroke-linejoin="round" stroke-linecap="butt" d="m181.95656 45.956932l22.929123 0l0 22.92913l-22.929123 0z" fill-rule="evenodd"/><path fill="#000000" fill-opacity="0.0" d="m181.95656 68.86322l22.929123 0l0 22.92913l-22.929123 0z" fill-rule="evenodd"/><path stroke="#f3f3f3" stroke-width="1.0" stroke-linejoin="round" stroke-linecap="butt" d="m181.95656 68.86322l22.929123 0l0 22.92913l-22.929123 0z" fill-rule="evenodd"/><path fill="#000000" fill-opacity="0.0" d="m181.95656 91.76951l22.929123 0l0 22.92913l-22.929123 0z" fill-rule="evenodd"/><path stroke="#f3f3f3" stroke-width="1.0" stroke-linejoin="round" stroke-linecap="butt" d="m181.95656 91.76951l22.929123 0l0 22.92913l-22.929123 0z" fill-rule="evenodd"/><path fill="#000000" fill-opacity="0.0" d="m204.86328 0.14435695l22.929138 0l0 22.929132l-22.929138 0z" fill-rule="evenodd"/><path stroke="#f3f3f3" stroke-width="1.0" stroke-linejoin="round" stroke-linecap="butt" d="m204.86328 0.14435695l22.929138 0l0 22.929132l-22.929138 0z" fill-rule="evenodd"/><path fill="#000000" fill-opacity="0.0" d="m204.86328 23.050644l22.929138 0l0 22.929134l-22.929138 0z" fill-rule="evenodd"/><path stroke="#f3f3f3" stroke-width="1.0" stroke-linejoin="round" stroke-linecap="butt" d="m204.86328 23.050644l22.929138 0l0 22.929134l-22.929138 0z" fill-rule="evenodd"/><path fill="#000000" fill-opacity="0.0" d="m204.86328 45.956932l22.929138 0l0 22.92913l-22.929138 0z" fill-rule="evenodd"/><path stroke="#f3f3f3" stroke-width="1.0" stroke-linejoin="round" stroke-linecap="butt" d="m204.86328 45.956932l22.929138 0l0 22.92913l-22.929138 0z" fill-rule="evenodd"/><path fill="#000000" fill-opacity="0.0" d="m204.86328 68.86322l22.929138 0l0 22.92913l-22.929138 0z" fill-rule="evenodd"/><path stroke="#f3f3f3" stroke-width="1.0" stroke-linejoin="round" stroke-linecap="butt" d="m204.86328 68.86322l22.929138 0l0 22.92913l-22.929138 0z" fill-rule="evenodd"/><path fill="#000000" fill-opacity="0.0" d="m204.86328 91.76951l22.929138 0l0 22.92913l-22.929138 0z" fill-rule="evenodd"/><path stroke="#f3f3f3" stroke-width="1.0" stroke-linejoin="round" stroke-linecap="butt" d="m204.86328 91.76951l22.929138 0l0 22.92913l-22.929138 0z" fill-rule="evenodd"/><path fill="#000000" fill-opacity="0.0" d="m227.77 0.14435695l22.929138 0l0 22.929132l-22.929138 0z" fill-rule="evenodd"/><path stroke="#f3f3f3" stroke-width="1.0" stroke-linejoin="round" stroke-linecap="butt" d="m227.77 0.14435695l22.929138 0l0 22.929132l-22.929138 0z" fill-rule="evenodd"/><path fill="#000000" fill-opacity="0.0" d="m227.77 23.050644l22.929138 0l0 22.929134l-22.929138 0z" fill-rule="evenodd"/><path stroke="#f3f3f3" stroke-width="1.0" stroke-linejoin="round" stroke-linecap="butt" d="m227.77 23.050644l22.929138 0l0 22.929134l-22.929138 0z" fill-rule="evenodd"/><path fill="#000000" fill-opacity="0.0" d="m227.77 45.956932l22.929138 0l0 22.92913l-22.929138 0z" fill-rule="evenodd"/><path stroke="#f3f3f3" stroke-width="1.0" stroke-linejoin="round" stroke-linecap="butt" d="m227.77 45.956932l22.929138 0l0 22.92913l-22.929138 0z" fill-rule="evenodd"/><path fill="#000000" fill-opacity="0.0" d="m227.77 68.86322l22.929138 0l0 22.92913l-22.929138 0z" fill-rule="evenodd"/><path stroke="#f3f3f3" stroke-width="1.0" stroke-linejoin="round" stroke-linecap="butt" d="m227.77 68.86322l22.929138 0l0 22.92913l-22.929138 0z" fill-rule="evenodd"/><path fill="#000000" fill-opacity="0.0" d="m227.77 91.76951l22.929138 0l0 22.92913l-22.929138 0z" fill-rule="evenodd"/><path stroke="#f3f3f3" stroke-width="1.0" stroke-linejoin="round" stroke-linecap="butt" d="m227.77 91.76951l22.929138 0l0 22.92913l-22.929138 0z" fill-rule="evenodd"/><path fill="#000000" fill-opacity="0.0" d="m250.67673 0.14435695l22.929138 0l0 22.929132l-22.929138 0z" fill-rule="evenodd"/><path stroke="#f3f3f3" stroke-width="1.0" stroke-linejoin="round" stroke-linecap="butt" d="m250.67673 0.14435695l22.929138 0l0 22.929132l-22.929138 0z" fill-rule="evenodd"/><path fill="#000000" fill-opacity="0.0" d="m250.67673 23.050644l22.929138 0l0 22.929134l-22.929138 0z" fill-rule="evenodd"/><path stroke="#f3f3f3" stroke-width="1.0" stroke-linejoin="round" stroke-linecap="butt" d="m250.67673 23.050644l22.929138 0l0 22.929134l-22.929138 0z" fill-rule="evenodd"/><path fill="#000000" fill-opacity="0.0" d="m250.67673 45.956932l22.929138 0l0 22.92913l-22.929138 0z" fill-rule="evenodd"/><path stroke="#f3f3f3" stroke-width="1.0" stroke-linejoin="round" stroke-linecap="butt" d="m250.67673 45.956932l22.929138 0l0 22.92913l-22.929138 0z" fill-rule="evenodd"/><path fill="#000000" fill-opacity="0.0" d="m250.67673 68.86322l22.929138 0l0 22.92913l-22.929138 0z" fill-rule="evenodd"/><path stroke="#f3f3f3" stroke-width="1.0" stroke-linejoin="round" stroke-linecap="butt" d="m250.67673 68.86322l22.929138 0l0 22.92913l-22.929138 0z" fill-rule="evenodd"/><path fill="#000000" fill-opacity="0.0" d="m250.67673 91.76951l22.929138 0l0 22.92913l-22.929138 0z" fill-rule="evenodd"/><path stroke="#f3f3f3" stroke-width="1.0" stroke-linejoin="round" stroke-linecap="butt" d="m250.67673 91.76951l22.929138 0l0 22.92913l-22.929138 0z" fill-rule="evenodd"/><path fill="#000000" fill-opacity="0.0" d="m273.58347 0.14435695l22.929138 0l0 22.929132l-22.929138 0z" fill-rule="evenodd"/><path stroke="#f3f3f3" stroke-width="1.0" stroke-linejoin="round" stroke-linecap="butt" d="m273.58347 0.14435695l22.929138 0l0 22.929132l-22.929138 0z" fill-rule="evenodd"/><path fill="#000000" fill-opacity="0.0" d="m273.58347 23.050644l22.929138 0l0 22.929134l-22.929138 0z" fill-rule="evenodd"/><path stroke="#f3f3f3" stroke-width="1.0" stroke-linejoin="round" stroke-linecap="butt" d="m273.58347 23.050644l22.929138 0l0 22.929134l-22.929138 0z" fill-rule="evenodd"/><path fill="#000000" fill-opacity="0.0" d="m273.58347 45.956932l22.929138 0l0 22.92913l-22.929138 0z" fill-rule="evenodd"/><path stroke="#f3f3f3" stroke-width="1.0" stroke-linejoin="round" stroke-linecap="butt" d="m273.58347 45.956932l22.929138 0l0 22.92913l-22.929138 0z" fill-rule="evenodd"/><path fill="#000000" fill-opacity="0.0" d="m273.58347 68.86322l22.929138 0l0 22.92913l-22.929138 0z" fill-rule="evenodd"/><path stroke="#f3f3f3" stroke-width="1.0" stroke-linejoin="round" stroke-linecap="butt" d="m273.58347 68.86322l22.929138 0l0 22.92913l-22.929138 0z" fill-rule="evenodd"/><path fill="#000000" fill-opacity="0.0" d="m273.58347 91.76951l22.929138 0l0 22.92913l-22.929138 0z" fill-rule="evenodd"/><path stroke="#f3f3f3" stroke-width="1.0" stroke-linejoin="round" stroke-linecap="butt" d="m273.58347 91.76951l22.929138 0l0 22.92913l-22.929138 0z" fill-rule="evenodd"/><path fill="#000000" fill-opacity="0.0" d="m1.6568525 1.0743189l113.385826 0l0 113.385826l-113.385826 0z" fill-rule="evenodd"/><path stroke="#434343" stroke-width="1.0" stroke-linejoin="round" stroke-linecap="butt" d="m1.6568525 1.0743189l113.385826 0l0 113.385826l-113.385826 0z" fill-rule="evenodd"/><path fill="#434343" d="m24.359531 66.30723l0 -17.0625l5.078125 0q1.046875 0.015625 2.046875 0.28125q1.015625 0.25 1.796875 0.8125q0.796875 0.546875 1.265625 1.40625q0.46875 0.84375 0.453125 2.046875q-0.015625 0.671875 -0.21875 1.21875q-0.203125 0.546875 -0.5625 0.984375q-0.359375 0.4375 -0.84375 0.765625q-0.46875 0.328125 -1.015625 0.5625q0.6875 0.203125 1.25 0.578125q0.578125 0.359375 0.984375 0.890625q0.40625 0.515625 0.625 1.171875q0.234375 0.65625 0.234375 1.421875q0.015625 1.1875 -0.453125 2.109375q-0.46875 0.90625 -1.25 1.53125q-0.78125 0.609375 -1.8125 0.9375q-1.03125 0.328125 -2.109375 0.34375l-5.46875 0zm2.1875 -7.984375l0 6.140625l3.328125 0q0.6875 -0.015625 1.296875 -0.21875q0.609375 -0.21875 1.078125 -0.609375q0.46875 -0.390625 0.734375 -0.953125q0.28125 -0.5625 0.28125 -1.28125q0.015625 -0.71875 -0.234375 -1.28125q-0.25 -0.5625 -0.703125 -0.953125q-0.4375 -0.390625 -1.046875 -0.59375q-0.59375 -0.21875 -1.28125 -0.25l-3.453125 0zm0 -1.796875l3.015625 0q0.609375 -0.015625 1.1875 -0.1875q0.59375 -0.1875 1.046875 -0.53125q0.46875 -0.359375 0.75 -0.859375q0.28125 -0.5 0.28125 -1.171875q0 -0.71875 -0.28125 -1.21875q-0.28125 -0.5 -0.75 -0.8125q-0.453125 -0.328125 -1.0625 -0.484375q-0.59375 -0.15625 -1.234375 -0.171875l-2.953125 0l0 5.4375zm14.683594 7.9375l8.34375 0l0 1.84375l-10.5 0l0 -17.0625l2.15625 0l0 15.21875zm23.05859 -5.703125q-0.015625 0.90625 -0.171875 1.84375q-0.14062119 0.9375 -0.4531212 1.8125q-0.296875 0.859375 -0.765625 1.609375q-0.46875 0.75 -1.125 1.3125q-0.65625 0.5625 -1.515625 0.890625q-0.84375 0.3125 -1.90625 0.3125q-1.046875 0 -1.90625 -0.3125q-0.84375 -0.328125 -1.5 -0.890625q-0.65625 -0.5625 -1.140625 -1.3125q-0.46875 -0.765625 -0.78125 -1.625q-0.3125 -0.875 -0.46875 -1.796875q-0.15625 -0.9375 -0.15625 -1.84375l0 -1.953125q0 -0.90625 0.140625 -1.828125q0.15625 -0.9375 0.46875 -1.796875q0.3125 -0.875 0.78125 -1.625q0.484375 -0.765625 1.140625 -1.328125q0.65625 -0.578125 1.5 -0.890625q0.84375 -0.328125 1.90625 -0.328125q1.046875 0 1.90625 0.328125q0.859375 0.3125 1.515625 0.875q0.65625 0.5625 1.125 1.328125q0.484375 0.75 0.78125 1.625q0.3125 0.859375 0.4531212 1.796875q0.15625 0.9375 0.171875 1.84375l0 1.953125zm-2.1406212 -1.96875q-0.015625 -0.609375 -0.09375 -1.265625q-0.0625 -0.671875 -0.234375 -1.3125q-0.171875 -0.65625 -0.453125 -1.25q-0.28125 -0.59375 -0.703125 -1.046875q-0.421875 -0.453125 -1.0 -0.703125q-0.5625 -0.265625 -1.328125 -0.265625q-0.75 0 -1.328125 0.265625q-0.578125 0.265625 -1.0 0.71875q-0.421875 0.453125 -0.703125 1.046875q-0.28125 0.59375 -0.453125 1.25q-0.15625 0.640625 -0.234375 1.3125q-0.078125 0.65625 -0.09375 1.25l0 1.96875q0.015625 0.59375 0.09375 1.265625q0.078125 0.671875 0.25 1.328125q0.171875 0.640625 0.453125 1.234375q0.28125 0.59375 0.703125 1.046875q0.421875 0.453125 1.0 0.734375q0.578125 0.265625 1.328125 0.265625q0.765625 0 1.34375 -0.265625q0.578125 -0.28125 1.0 -0.734375q0.421875 -0.453125 0.6875 -1.03125q0.28125 -0.59375 0.453125 -1.25q0.171875 -0.65625 0.234375 -1.3125q0.0625 -0.671875 0.078125 -1.28125l0 -1.96875zm16.496098 4.375q-0.15625 1.1875 -0.609375 2.1875q-0.453125 0.984375 -1.1875 1.703125q-0.734375 0.703125 -1.734375 1.09375q-1.0 0.390625 -2.234375 0.390625q-1.0625 0 -1.921875 -0.296875q-0.859375 -0.296875 -1.53125 -0.828125q-0.671875 -0.53125 -1.15625 -1.234375q-0.484375 -0.71875 -0.8125 -1.5625q-0.328125 -0.84375 -0.484375 -1.765625q-0.15625 -0.9375 -0.171875 -1.890625l0 -2.375q0.015625 -0.953125 0.171875 -1.875q0.15625 -0.921875 0.484375 -1.765625q0.328125 -0.84375 0.8125 -1.5625q0.484375 -0.71875 1.15625 -1.25q0.671875 -0.53125 1.53125 -0.828125q0.859375 -0.296875 1.921875 -0.296875q1.28125 0 2.28125 0.390625q1.015625 0.390625 1.734375 1.109375q0.734375 0.71875 1.171875 1.734375q0.4375 1.0 0.578125 2.21875l-2.171875 0q-0.109375 -0.765625 -0.375 -1.4375q-0.25 -0.671875 -0.6875 -1.171875q-0.421875 -0.5 -1.046875 -0.78125q-0.625 -0.296875 -1.484375 -0.296875q-0.78125 0 -1.375 0.25q-0.578125 0.25 -1.015625 0.6875q-0.421875 0.4375 -0.71875 1.015625q-0.28125 0.5625 -0.453125 1.21875q-0.171875 0.640625 -0.25 1.3125q-0.078125 0.671875 -0.078125 1.3125l0 2.390625q0 0.640625 0.078125 1.3125q0.078125 0.671875 0.25 1.328125q0.171875 0.640625 0.453125 1.21875q0.28125 0.578125 0.71875 1.015625q0.4375 0.4375 1.015625 0.6875q0.59375 0.25 1.375 0.25q0.859375 0 1.484375 -0.265625q0.625 -0.265625 1.046875 -0.75q0.4375 -0.484375 0.6875 -1.140625q0.265625 -0.671875 0.375 -1.453125l2.171875 0zm7.4335938 -2.78125l-1.890625 2.15625l0 5.765625l-2.21875 0l0 -17.0625l2.21875 0l0 8.328125l1.65625 -2.0625l5.0 -6.265625l2.640625 0l-5.96875 7.46875l6.359375 9.59375l-2.640625 0l-5.15625 -7.921875z" fill-rule="nonzero"/><path fill="#000000" fill-opacity="0.0" d="m-3.4140136 114.45932l123.527565 0l0 47.716537l-123.527565 0z" fill-rule="evenodd"/><path fill="#434343" d="m6.648486 133.69931l0 -6.9843674l1.96875 0q0.53125 0 0.96875 0.09375q0.453125 0.09375 0.765625 0.296875q0.3125 0.203125 0.484375 0.53125q0.1875 0.3125 0.1875 0.7812424q0 0.515625 -0.296875 0.9375q-0.296875 0.421875 -0.9375 0.578125l0 0.046875q0.765625 0.109375 1.1875 0.53125q0.4375 0.421875 0.4375 1.140625q0 0.515625 -0.1875 0.90625q-0.1875 0.375 -0.546875 0.640625q-0.34375 0.25 -0.828125 0.375q-0.484375 0.125 -1.0625 0.125l-2.140625 0zm0.875 -4.046875l0.953125 0q0.890625 0 1.28125 -0.28125q0.390625 -0.296875 0.390625 -0.890625q0 -0.5624924 -0.421875 -0.7968674q-0.40625 -0.234375 -1.203125 -0.234375l-1.0 0l0 2.2031174zm0 3.296875l1.125 0q0.90625 0 1.390625 -0.3125q0.5 -0.3125 0.5 -1.03125q0 -0.640625 -0.484375 -0.921875q-0.46875 -0.28125 -1.40625 -0.28125l-1.125 0l0 2.546875zm7.081314 0.875q-0.359375 0 -0.6875 -0.109375q-0.3125 -0.09375 -0.5625 -0.28125q-0.234375 -0.1875 -0.375 -0.453125q-0.140625 -0.265625 -0.140625 -0.625q0 -0.4375 0.203125 -0.75q0.21875 -0.328125 0.671875 -0.5625q0.453125 -0.25 1.15625 -0.390625q0.71875 -0.15625 1.718751 -0.234375q0 -0.265625 -0.078125 -0.5q-0.078125 -0.234375 -0.234375 -0.40625q-0.15625 -0.1875 -0.42187595 -0.28125q-0.265625 -0.109375 -0.640625 -0.109375q-0.5 0 -0.96875 0.203125q-0.46875 0.1875 -0.84375 0.40625l-0.328125 -0.59375q0.1875 -0.125 0.4375 -0.25q0.265625 -0.140625 0.5625 -0.25q0.296875 -0.109375 0.625 -0.171875q0.328125 -0.078125 0.671875 -0.078125q1.062501 0 1.578126 0.59375q0.515625 0.578125 0.515625 1.546875l0 3.171875l-0.703125 0l-0.078125 -0.703125l-0.03125 0q-0.4375 0.34375 -0.96875095 0.59375q-0.53125 0.234375 -1.078125 0.234375zm0.234375 -0.703125q0.4375 0 0.875 -0.1875q0.43750095 -0.203125 0.87500095 -0.578125l0 -1.359375q-0.82812595 0.0625 -1.390626 0.1875q-0.546875 0.109375 -0.890625 0.28125q-0.328125 0.15625 -0.46875 0.375q-0.140625 0.203125 -0.140625 0.453125q0 0.21875 0.09375 0.375q0.09375 0.15625 0.25 0.265625q0.15625 0.09375 0.359375 0.140625q0.203125 0.046875 0.4375 0.046875zm6.831315 0.703125q-0.765625 0 -1.421875 -0.234375q-0.640625 -0.25 -1.125 -0.578125l0.40625 -0.5625q0.453125 0.3125 0.984375 0.515625q0.546875 0.1875 1.265625 0.1875q0.671875 0 0.984375 -0.234375q0.328125 -0.25 0.328125 -0.578125q0 -0.15625 -0.0625 -0.28125q-0.046875 -0.125 -0.21875 -0.234375q-0.171875 -0.125 -0.5 -0.234375q-0.3125 -0.109375 -0.84375 -0.21875q-1.0 -0.203125 -1.515625 -0.5625q-0.5 -0.359375 -0.5 -0.953125q0 -0.296875 0.140625 -0.5625q0.140625 -0.28125 0.40625 -0.46875q0.265625 -0.203125 0.671875 -0.3125q0.40625 -0.125 0.9375 -0.125q0.59375 0 1.140625 0.203125q0.5625 0.203125 0.9375 0.46875l-0.421875 0.5625q-0.359375 -0.25 -0.796875 -0.390625q-0.4375 -0.15625 -0.9375 -0.15625q-0.65625 0 -0.9375 0.234375q-0.265625 0.21875 -0.265625 0.515625q0 0.34375 0.359375 0.515625q0.359375 0.171875 1.15625 0.34375q0.640625 0.140625 1.046875 0.296875q0.421875 0.15625 0.65625 0.34375q0.25 0.1875 0.34375 0.421875q0.09375 0.234375 0.09375 0.53125q0 0.328125 -0.15625 0.609375q-0.140625 0.265625 -0.4375 0.484375q-0.296875 0.203125 -0.734375 0.328125q-0.421875 0.125 -0.984375 0.125zm6.612564 0q-0.578125 0 -1.09375 -0.171875q-0.5 -0.1875 -0.890625 -0.53125q-0.375 -0.359375 -0.59375 -0.859375q-0.21875 -0.515625 -0.21875 -1.15625q0 -0.640625 0.21875 -1.140625q0.21875 -0.5 0.578125 -0.84375q0.375 -0.359375 0.84375 -0.546875q0.484375 -0.1875 1.015625 -0.1875q0.546875 0 0.984375 0.1875q0.453125 0.171875 0.75 0.5q0.296875 0.3125 0.453125 0.765625q0.171875 0.4375 0.171875 0.984375q0 0.140625 -0.015625 0.28125q0 0.140625 -0.03125 0.25l-4.078125 0q0.078125 0.890625 0.640625 1.328125q0.5625 0.4375 1.375 0.4375q0.46875 0 0.84375 -0.125q0.375 -0.140625 0.734375 -0.359375l0.3125 0.578125q-0.375 0.25 -0.875 0.4375q-0.5 0.171875 -1.125 0.171875zm-0.125 -4.734375q-0.328125 0 -0.625 0.109375q-0.28125 0.09375 -0.515625 0.296875q-0.234375 0.203125 -0.40625 0.5q-0.15625 0.296875 -0.21875 0.671875l3.3125 0q-0.0625 -0.796875 -0.46875 -1.1875q-0.40625 -0.390625 -1.078125 -0.390625zm12.600128 4.734375q-0.5 0 -0.9375 -0.140625q-0.4375 -0.15625 -0.765625 -0.484375q-0.3125 -0.34375 -0.484375 -0.859375q-0.171875 -0.53125 -0.171875 -1.28125l0 -4.3437424l0.890625 0l0 4.3593674q0 0.546875 0.109375 0.921875q0.109375 0.375 0.3125 0.609375q0.203125 0.234375 0.46875 0.34375q0.265625 0.09375 0.578125 0.09375q0.328125 0 0.59375 -0.09375q0.265625 -0.109375 0.46875 -0.34375q0.203125 -0.234375 0.3125 -0.609375q0.109375 -0.375 0.109375 -0.921875l0 -4.3593674l0.859375 0l0 4.3437424q0 0.75 -0.171875 1.28125q-0.171875 0.515625 -0.484375 0.859375q-0.3125 0.328125 -0.75 0.484375q-0.421875 0.140625 -0.9375 0.140625zm4.175064 -0.125l0 -5.171875l0.734375 0l0.078125 0.875l0.03125 0q0.40625 -0.4375 0.875 -0.71875q0.46875 -0.296875 1.078125 -0.296875q0.921875 0 1.359375 0.53125q0.4375 0.53125 0.4375 1.5625l0 3.21875l-0.875 0l0 -3.09375q0 -0.75 -0.28125 -1.09375q-0.28125 -0.359375 -0.921875 -0.359375q-0.234375 0 -0.4375 0.0625q-0.1875 0.046875 -0.375 0.171875q-0.1875 0.109375 -0.390625 0.296875q-0.203125 0.171875 -0.4375 0.40625l0 3.609375l-0.875 0zm8.784439 0l0 -4.46875l-2.421875 0l0 -0.703125l3.28125 0l0 5.171875l-0.859375 0zm0.828125 -6.2656174q-0.296875 0 -0.5 -0.1875q-0.203125 -0.1875 -0.203125 -0.5q0 -0.296875 0.203125 -0.484375q0.203125 -0.1875 0.5 -0.1875q0.296875 0 0.5 0.1875q0.203125 0.1875 0.203125 0.484375q0 0.3125 -0.203125 0.5q-0.203125 0.1875 -0.5 0.1875zm6.393814 6.3906174q-0.5625 0 -0.953125 -0.15625q-0.390625 -0.15625 -0.625 -0.4375q-0.234375 -0.28125 -0.34375 -0.671875q-0.09375 -0.390625 -0.09375 -0.875l0 -2.453125l-1.453125 0l0 -0.65625l1.5 -0.046875l0.109375 -1.6718674l0.71875 0l0 1.6718674l2.546875 0l0 0.703125l-2.546875 0l0 2.46875q0 0.34375 0.0625 0.609375q0.078125 0.265625 0.21875 0.453125q0.15625 0.171875 0.40625 0.265625q0.25 0.078125 0.625 0.078125q0.375 0 0.671875 -0.0625q0.296875 -0.0625 0.578125 -0.171875l0.1875 0.640625q-0.34375 0.140625 -0.734375 0.21875q-0.390625 0.09375 -0.875 0.09375zm5.3938103 -4.0q-0.375 0 -0.625 -0.234375q-0.25 -0.25 -0.25 -0.65625q0 -0.40625 0.25 -0.65625q0.25 -0.25 0.625 -0.25q0.359375 0 0.609375 0.25q0.25 0.25 0.25 0.65625q0 0.40625 -0.25 0.65625q-0.25 0.234375 -0.609375 0.234375zm0 4.0q-0.375 0 -0.625 -0.234375q-0.25 -0.25 -0.25 -0.65625q0 -0.40625 0.25 -0.65625q0.25 -0.25 0.625 -0.25q0.359375 0 0.609375 0.25q0.25 0.25 0.25 0.65625q0 0.40625 -0.25 0.65625q-0.25 0.234375 -0.609375 0.234375zm4.253189 -0.125l0 -6.9843674l1.96875 0q0.53125 0 0.96875 0.09375q0.453125 0.09375 0.765625 0.296875q0.3125 0.203125 0.484375 0.53125q0.1875 0.3125 0.1875 0.7812424q0 0.515625 -0.296875 0.9375q-0.296875 0.421875 -0.9375 0.578125l0 0.046875q0.765625 0.109375 1.1875 0.53125q0.4375 0.421875 0.4375 1.140625q0 0.515625 -0.1875 0.90625q-0.1875 0.375 -0.546875 0.640625q-0.34375 0.25 -0.828125 0.375q-0.484375 0.125 -1.0625 0.125l-2.140625 0zm0.875 -4.046875l0.953125 0q0.890625 0 1.28125 -0.28125q0.390625 -0.296875 0.390625 -0.890625q0 -0.5624924 -0.421875 -0.7968674q-0.40625 -0.234375 -1.203125 -0.234375l-1.0 0l0 2.2031174zm0 3.296875l1.125 0q0.90625 0 1.390625 -0.3125q0.5 -0.3125 0.5 -1.03125q0 -0.640625 -0.484375 -0.921875q-0.46875 -0.28125 -1.40625 -0.28125l-1.125 0l0 2.546875zm8.800064 0.875q-0.84375 0 -1.28125 -0.46875q-0.4375 -0.46875 -0.4375 -1.390625l0 -5.1406174l-1.84375 0l0 -0.71875l2.71875 0l0 5.9218674q0 0.578125 0.28125 0.828125q0.28125 0.25 0.75 0.25q0.453125 0 0.96875 -0.234375l0.21875 0.640625q-0.359375 0.15625 -0.65625 0.234375q-0.296875 0.078125 -0.71875 0.078125zm5.253189 0q-0.515625 0 -0.984375 -0.171875q-0.453125 -0.1875 -0.8125 -0.53125q-0.34375 -0.34375 -0.5625 -0.84375q-0.203125 -0.515625 -0.203125 -1.15625q0 -0.65625 0.203125 -1.15625q0.21875 -0.5 0.5625 -0.84375q0.359375 -0.359375 0.8125 -0.546875q0.46875 -0.1875 0.984375 -0.1875q0.5 0 0.96875 0.1875q0.46875 0.1875 0.8125 0.546875q0.359375 0.34375 0.5625 0.84375q0.203125 0.5 0.203125 1.15625q0 0.640625 -0.203125 1.15625q-0.203125 0.5 -0.5625 0.84375q-0.34375 0.34375 -0.8125 0.53125q-0.46875 0.171875 -0.96875 0.171875zm0 -0.71875q0.359375 0 0.65625 -0.140625q0.3125 -0.15625 0.53125 -0.40625q0.21875 -0.265625 0.328125 -0.625q0.125 -0.359375 0.125 -0.8125q0 -0.453125 -0.125 -0.8125q-0.109375 -0.375 -0.328125 -0.640625q-0.21875 -0.265625 -0.53125 -0.40625q-0.296875 -0.140625 -0.65625 -0.140625q-0.375 0 -0.6875 0.140625q-0.296875 0.140625 -0.515625 0.40625q-0.21875 0.265625 -0.34375 0.640625q-0.109375 0.359375 -0.109375 0.8125q0 0.453125 0.109375 0.8125q0.125 0.359375 0.34375 0.625q0.21875 0.25 0.515625 0.40625q0.3125 0.140625 0.6875 0.140625zm6.878189 0.71875q-0.609375 0 -1.125 -0.171875q-0.515625 -0.1875 -0.90625 -0.53125q-0.375 -0.34375 -0.59375 -0.84375q-0.203125 -0.515625 -0.203125 -1.15625q0 -0.65625 0.21875 -1.15625q0.234375 -0.5 0.625 -0.84375q0.390625 -0.359375 0.921875 -0.546875q0.53125 -0.1875 1.109375 -0.1875q0.640625 0 1.109375 0.234375q0.46875 0.21875 0.78125 0.53125l-0.4375 0.5625q-0.3125 -0.28125 -0.671875 -0.4375q-0.34375 -0.15625 -0.75 -0.15625q-0.4375 0 -0.8125 0.140625q-0.375 0.140625 -0.640625 0.40625q-0.25 0.265625 -0.40625 0.640625q-0.140625 0.359375 -0.140625 0.8125q0 0.453125 0.140625 0.8125q0.140625 0.359375 0.390625 0.625q0.265625 0.25 0.625 0.40625q0.375 0.140625 0.828125 0.140625q0.484375 0 0.875 -0.1875q0.40625 -0.1875 0.71875 -0.46875l0.40625 0.5625q-0.4375 0.390625 -0.96875 0.609375q-0.515625 0.203125 -1.09375 0.203125zm3.831314 -0.125l0 -7.5937424l0.875 0l0 5.1406174l0.046875 0l2.796875 -2.71875l1.0 0l-2.078125 2.03125l2.34375 3.140625l-0.96875 0l-1.90625 -2.609375l-1.234375 1.203125l0 1.40625l-0.875 0z" fill-rule="nonzero"/><path fill="#000000" fill-opacity="0.0" d="m290.95486 195.73491l18.897644 0l0 18.897644l-18.897644 0z" fill-rule="evenodd"/><path stroke="#f3f3f3" stroke-width="1.0" stroke-linejoin="round" stroke-linecap="butt" d="m290.95486 195.73491l18.897644 0l0 18.897644l-18.897644 0z" fill-rule="evenodd"/><path fill="#000000" fill-opacity="0.0" d="m328.75015 195.73491l18.897644 0l0 18.897644l-18.897644 0z" fill-rule="evenodd"/><path stroke="#f3f3f3" stroke-width="1.0" stroke-linejoin="round" stroke-linecap="butt" d="m328.75015 195.73491l18.897644 0l0 18.897644l-18.897644 0z" fill-rule="evenodd"/><path fill="#000000" fill-opacity="0.0" d="m158.6714 195.73491l18.897644 0l0 18.897644l-18.897644 0z" fill-rule="evenodd"/><path stroke="#f3f3f3" stroke-width="1.0" stroke-linejoin="round" stroke-linecap="butt" d="m158.6714 195.73491l18.897644 0l0 18.897644l-18.897644 0z" fill-rule="evenodd"/><path fill="#000000" fill-opacity="0.0" d="m177.56905 195.73491l18.897644 0l0 18.897644l-18.897644 0z" fill-rule="evenodd"/><path stroke="#f3f3f3" stroke-width="1.0" stroke-linejoin="round" stroke-linecap="butt" d="m177.56905 195.73491l18.897644 0l0 18.897644l-18.897644 0z" fill-rule="evenodd"/><path fill="#000000" fill-opacity="0.0" d="m234.26196 195.73491l18.897629 0l0 18.897644l-18.897629 0z" fill-rule="evenodd"/><path stroke="#f3f3f3" stroke-width="1.0" stroke-linejoin="round" stroke-linecap="butt" d="m234.26196 195.73491l18.897629 0l0 18.897644l-18.897629 0z" fill-rule="evenodd"/><path fill="#000000" fill-opacity="0.0" d="m253.15959 195.73491l18.89766 0l0 18.897644l-18.89766 0z" fill-rule="evenodd"/><path stroke="#f3f3f3" stroke-width="1.0" stroke-linejoin="round" stroke-linecap="butt" d="m253.15959 195.73491l18.89766 0l0 18.897644l-18.89766 0z" fill-rule="evenodd"/><path fill="#000000" fill-opacity="0.0" d="m272.05725 195.73491l18.897614 0l0 18.897644l-18.897614 0z" fill-rule="evenodd"/><path stroke="#f3f3f3" stroke-width="1.0" stroke-linejoin="round" stroke-linecap="butt" d="m272.05725 195.73491l18.897614 0l0 18.897644l-18.897614 0z" fill-rule="evenodd"/><path fill="#000000" fill-opacity="0.0" d="m64.18322 195.73491l18.897636 0l0 18.897644l-18.897636 0z" fill-rule="evenodd"/><path stroke="#f3f3f3" stroke-width="1.0" stroke-linejoin="round" stroke-linecap="butt" d="m64.18322 195.73491l18.897636 0l0 18.897644l-18.897636 0z" fill-rule="evenodd"/><path fill="#000000" fill-opacity="0.0" d="m83.08086 195.73491l18.897636 0l0 18.897644l-18.897636 0z" fill-rule="evenodd"/><path stroke="#f3f3f3" stroke-width="1.0" stroke-linejoin="round" stroke-linecap="butt" d="m83.08086 195.73491l18.897636 0l0 18.897644l-18.897636 0z" fill-rule="evenodd"/><path fill="#000000" fill-opacity="0.0" d="m139.77377 195.73491l18.897629 0l0 18.897644l-18.897629 0z" fill-rule="evenodd"/><path stroke="#f3f3f3" stroke-width="1.0" stroke-linejoin="round" stroke-linecap="butt" d="m139.77377 195.73491l18.897629 0l0 18.897644l-18.897629 0z" fill-rule="evenodd"/><path fill="#000000" fill-opacity="0.0" d="m347.6478 195.73491l18.897614 0l0 18.897644l-18.897614 0z" fill-rule="evenodd"/><path stroke="#f3f3f3" stroke-width="1.0" stroke-linejoin="round" stroke-linecap="butt" d="m347.6478 195.73491l18.897614 0l0 18.897644l-18.897614 0z" fill-rule="evenodd"/><path fill="#000000" fill-opacity="0.0" d="m366.5454 195.73491l18.897644 0l0 18.897644l-18.897644 0z" fill-rule="evenodd"/><path stroke="#f3f3f3" stroke-width="1.0" stroke-linejoin="round" stroke-linecap="butt" d="m366.5454 195.73491l18.897644 0l0 18.897644l-18.897644 0z" fill-rule="evenodd"/><path fill="#000000" fill-opacity="0.0" d="m385.44305 195.73491l18.897644 0l0 18.897644l-18.897644 0z" fill-rule="evenodd"/><path stroke="#f3f3f3" stroke-width="1.0" stroke-linejoin="round" stroke-linecap="butt" d="m385.44305 195.73491l18.897644 0l0 18.897644l-18.897644 0z" fill-rule="evenodd"/><path fill="#000000" fill-opacity="0.0" d="m101.97849 195.73491l18.897644 0l0 18.897644l-18.897644 0z" fill-rule="evenodd"/><path stroke="#f3f3f3" stroke-width="1.0" stroke-linejoin="round" stroke-linecap="butt" d="m101.97849 195.73491l18.897644 0l0 18.897644l-18.897644 0z" fill-rule="evenodd"/><path fill="#000000" fill-opacity="0.0" d="m196.46669 195.73491l18.897629 0l0 18.897644l-18.897629 0z" fill-rule="evenodd"/><path stroke="#f3f3f3" stroke-width="1.0" stroke-linejoin="round" stroke-linecap="butt" d="m196.46669 195.73491l18.897629 0l0 18.897644l-18.897629 0z" fill-rule="evenodd"/><path fill="#000000" fill-opacity="0.0" d="m309.8525 195.73491l18.897644 0l0 18.897644l-18.897644 0z" fill-rule="evenodd"/><path stroke="#d9d9d9" stroke-width="1.0" stroke-linejoin="round" stroke-linecap="butt" d="m309.8525 195.73491l18.897644 0l0 18.897644l-18.897644 0z" fill-rule="evenodd"/><path fill="#efefef" d="m317.1878 208.92372l-1.46875 0l0 -5.8125l-1.90625 0.6875l0 -1.265625l3.296875 -1.1875l0.078125 0l0 7.578125zm2.9260254 -3.734375l0.421875 -3.84375l4.203125 0l0 1.234375l-3.0 0l-0.1875 1.65625q0.15625 -0.09375 0.453125 -0.1875q0.296875 -0.09375 0.6875 -0.09375q0.546875 0 0.96875 0.171875q0.4375 0.171875 0.71875 0.5q0.296875 0.328125 0.453125 0.8125q0.15625 0.46875 0.15625 1.0625q0 0.5 -0.15625 0.96875q-0.140625 0.453125 -0.453125 0.8125q-0.3125 0.34375 -0.796875 0.546875q-0.46875 0.203125 -1.109375 0.203125q-0.484375 0 -0.9375 -0.140625q-0.453125 -0.15625 -0.8125 -0.4375q-0.359375 -0.28125 -0.578125 -0.6875q-0.21875 -0.40625 -0.234375 -0.9375l1.421875 0q0.0625 0.5 0.359375 0.765625q0.296875 0.265625 0.78125 0.265625q0.28125 0 0.484375 -0.109375q0.21875 -0.109375 0.34375 -0.296875q0.125 -0.1875 0.1875 -0.453125q0.0625 -0.265625 0.0625 -0.578125q0 -0.296875 -0.078125 -0.546875q-0.078125 -0.25 -0.234375 -0.4375q-0.15625 -0.1875 -0.390625 -0.28125q-0.234375 -0.09375 -0.546875 -0.09375q-0.21875 0 -0.375 0.03125q-0.15625 0.03125 -0.28125 0.09375q-0.109375 0.0625 -0.203125 0.140625q-0.09375 0.0625 -0.171875 0.15625l-1.15625 -0.296875z" fill-rule="nonzero"/><path fill="#000000" fill-opacity="0.0" d="m215.36432 195.73491l18.897644 0l0 18.897644l-18.897644 0z" fill-rule="evenodd"/><path stroke="#d9d9d9" stroke-width="1.0" stroke-linejoin="round" stroke-linecap="butt" d="m215.36432 195.73491l18.897644 0l0 18.897644l-18.897644 0z" fill-rule="evenodd"/><path fill="#d9d9d9" d="m222.6996 208.92372l-1.46875 0l0 -5.8125l-1.90625 0.6875l0 -1.265625l3.296875 -1.1875l0.078125 0l0 7.578125zm7.7854156 -2.875q0 0.71875 -0.171875 1.28125q-0.171875 0.5625 -0.5 0.9375q-0.3125 0.375 -0.765625 0.578125q-0.453125 0.1875 -1.03125 0.1875q-0.5625 0 -1.03125 -0.1875q-0.453125 -0.203125 -0.78125 -0.578125q-0.3125 -0.375 -0.484375 -0.9375q-0.171875 -0.5625 -0.171875 -1.28125l0 -1.8125q0 -0.734375 0.171875 -1.296875q0.171875 -0.5625 0.484375 -0.9375q0.328125 -0.375 0.78125 -0.5625q0.453125 -0.203125 1.015625 -0.203125q0.578125 0 1.03125 0.203125q0.46875 0.1875 0.78125 0.5625q0.328125 0.375 0.5 0.9375q0.171875 0.5625 0.171875 1.296875l0 1.8125zm-3.484375 -0.625l2.015625 -1.515625q-0.015625 -0.765625 -0.265625 -1.125q-0.25 -0.375 -0.75 -0.375q-0.5 0 -0.75 0.390625q-0.25 0.390625 -0.25 1.203125l0 1.421875zm2.015625 -0.53125l-2.015625 1.5q0.03125 0.75 0.28125 1.109375q0.25 0.359375 0.734375 0.359375q0.515625 0 0.75 -0.390625q0.25 -0.390625 0.25 -1.21875l0 -1.359375z" fill-rule="nonzero"/><path fill="#000000" fill-opacity="0.0" d="m120.87614 195.73491l18.897636 0l0 18.897644l-18.897636 0z" fill-rule="evenodd"/><path stroke="#d9d9d9" stroke-width="1.0" stroke-linejoin="round" stroke-linecap="butt" d="m120.87614 195.73491l18.897636 0l0 18.897644l-18.897636 0z" fill-rule="evenodd"/><path fill="#efefef" d="m127.940056 205.18935l0.42188263 -3.84375l4.203125 0l0 1.234375l-3.0 0l-0.1875 1.65625q0.15625 -0.09375 0.453125 -0.1875q0.296875 -0.09375 0.6875 -0.09375q0.546875 0 0.96875 0.171875q0.4375 0.171875 0.71875 0.5q0.296875 0.328125 0.453125 0.8125q0.15625 0.46875 0.15625 1.0625q0 0.5 -0.15625 0.96875q-0.140625 0.453125 -0.453125 0.8125q-0.3125 0.34375 -0.796875 0.546875q-0.46875 0.203125 -1.109375 0.203125q-0.484375 0 -0.9375 -0.140625q-0.453125 -0.15625 -0.8125 -0.4375q-0.359375 -0.28125 -0.5781326 -0.6875q-0.21875 -0.40625 -0.234375 -0.9375l1.4218826 0q0.0625 0.5 0.359375 0.765625q0.296875 0.265625 0.78125 0.265625q0.28125 0 0.484375 -0.109375q0.21875 -0.109375 0.34375 -0.296875q0.125 -0.1875 0.1875 -0.453125q0.0625 -0.265625 0.0625 -0.578125q0 -0.296875 -0.078125 -0.546875q-0.078125 -0.25 -0.234375 -0.4375q-0.15625 -0.1875 -0.390625 -0.28125q-0.234375 -0.09375 -0.546875 -0.09375q-0.21875 0 -0.375 0.03125q-0.15625 0.03125 -0.28125 0.09375q-0.109375 0.0625 -0.203125 0.140625q-0.09375 0.0625 -0.171875 0.15625l-1.1562576 -0.296875z" fill-rule="nonzero"/><path fill="#000000" fill-opacity="0.0" d="m404.3407 195.73491l18.897644 0l0 18.897644l-18.897644 0z" fill-rule="evenodd"/><path stroke="#d9d9d9" stroke-width="1.0" stroke-linejoin="round" stroke-linecap="butt" d="m404.3407 195.73491l18.897644 0l0 18.897644l-18.897644 0z" fill-rule="evenodd"/><path fill="#d9d9d9" d="m413.0822 208.92372l-5.171875 0l0 -0.984375l2.453125 -2.640625q0.28125 -0.3125 0.484375 -0.5625q0.203125 -0.25 0.3125 -0.453125q0.125 -0.21875 0.171875 -0.40625q0.0625 -0.1875 0.0625 -0.359375q0 -0.25 -0.078125 -0.4375q-0.0625 -0.203125 -0.203125 -0.34375q-0.125 -0.140625 -0.3125 -0.203125q-0.1875 -0.078125 -0.40625 -0.078125q-0.59375 0 -0.890625 0.328125q-0.296875 0.328125 -0.296875 0.9375l-1.453125 0q0 -0.515625 0.1875 -0.953125q0.203125 -0.453125 0.546875 -0.796875q0.359375 -0.34375 0.859375 -0.53125q0.5 -0.203125 1.09375 -0.203125q0.578125 0 1.015625 0.171875q0.453125 0.15625 0.75 0.453125q0.296875 0.28125 0.453125 0.703125q0.15625 0.40625 0.15625 0.890625q0 0.375 -0.125 0.71875q-0.109375 0.34375 -0.328125 0.6875q-0.203125 0.328125 -0.515625 0.671875q-0.296875 0.34375 -0.671875 0.71875l-1.421875 1.515625l3.328125 0l0 1.15625zm6.379181 -2.875q0 0.71875 -0.171875 1.28125q-0.171875 0.5625 -0.5 0.9375q-0.3125 0.375 -0.765625 0.578125q-0.453125 0.1875 -1.03125 0.1875q-0.5625 0 -1.03125 -0.1875q-0.453125 -0.203125 -0.78125 -0.578125q-0.3125 -0.375 -0.484375 -0.9375q-0.171875 -0.5625 -0.171875 -1.28125l0 -1.8125q0 -0.734375 0.171875 -1.296875q0.171875 -0.5625 0.484375 -0.9375q0.328125 -0.375 0.78125 -0.5625q0.453125 -0.203125 1.015625 -0.203125q0.578125 0 1.03125 0.203125q0.46875 0.1875 0.78125 0.5625q0.328125 0.375 0.5 0.9375q0.171875 0.5625 0.171875 1.296875l0 1.8125zm-3.484375 -0.625l2.015625 -1.515625q-0.015625 -0.765625 -0.265625 -1.125q-0.25 -0.375 -0.75 -0.375q-0.5 0 -0.75 0.390625q-0.25 0.390625 -0.25 1.203125l0 1.421875zm2.015625 -0.53125l-2.015625 1.5q0.03125 0.75 0.28125 1.109375q0.25 0.359375 0.734375 0.359375q0.515625 0 0.75 -0.390625q0.25 -0.390625 0.25 -1.21875l0 -1.359375z" fill-rule="nonzero"/><path fill="#000000" fill-opacity="0.0" d="m45.285583 195.73491l18.897636 0l0 18.897644l-18.897636 0z" fill-rule="evenodd"/><path stroke="#d9d9d9" stroke-width="1.0" stroke-linejoin="round" stroke-linecap="butt" d="m45.285583 195.73491l18.897636 0l0 18.897644l-18.897636 0z" fill-rule="evenodd"/><path fill="#d9d9d9" d="m55.818256 208.92372l-1.46875 0l0 -5.8125l-1.90625 0.6875l0 -1.265625l3.296875 -1.1875l0.078125 0l0 7.578125z" fill-rule="nonzero"/><path fill="#000000" fill-opacity="0.0" d="m83.08086 176.83727l37.79528 0l0 18.897644l-37.79528 0z" fill-rule="evenodd"/><path stroke="#f3f3f3" stroke-width="1.0" stroke-linejoin="round" stroke-linecap="butt" stroke-dasharray="4.0,3.0" d="m83.08086 176.83727l37.79528 0l0 18.897644l-37.79528 0z" fill-rule="evenodd"/><path fill="#000000" fill-opacity="0.0" d="m120.87614 176.83727l37.795265 0l0 18.897644l-37.795265 0z" fill-rule="evenodd"/><path stroke="#f3f3f3" stroke-width="1.0" stroke-linejoin="round" stroke-linecap="butt" stroke-dasharray="4.0,3.0" d="m120.87614 176.83727l37.795265 0l0 18.897644l-37.795265 0z" fill-rule="evenodd"/><path fill="#000000" fill-opacity="0.0" d="m158.6714 176.83727l37.795288 0l0 18.897644l-37.795288 0z" fill-rule="evenodd"/><path stroke="#f3f3f3" stroke-width="1.0" stroke-linejoin="round" stroke-linecap="butt" stroke-dasharray="4.0,3.0" d="m158.6714 176.83727l37.795288 0l0 18.897644l-37.795288 0z" fill-rule="evenodd"/><path fill="#000000" fill-opacity="0.0" d="m196.46669 176.83727l37.795273 0l0 18.897644l-37.795273 0z" fill-rule="evenodd"/><path stroke="#efefef" stroke-width="1.0" stroke-linejoin="round" stroke-linecap="butt" stroke-dasharray="4.0,3.0" d="m196.46669 176.83727l37.795273 0l0 18.897644l-37.795273 0z" fill-rule="evenodd"/><path fill="#efefef" d="m212.97943 186.29172l0.421875 -3.84375l4.203125 0l0 1.234375l-3.0 0l-0.1875 1.65625q0.15625 -0.09375 0.453125 -0.1875q0.296875 -0.09375 0.6875 -0.09375q0.546875 0 0.96875 0.171875q0.4375 0.171875 0.71875 0.5q0.296875 0.328125 0.453125 0.8125q0.15625 0.46875 0.15625 1.0625q0 0.5 -0.15625 0.96875q-0.140625 0.453125 -0.453125 0.8125q-0.3125 0.34375 -0.796875 0.546875q-0.46875 0.203125 -1.109375 0.203125q-0.484375 0 -0.9375 -0.140625q-0.453125 -0.15625 -0.8125 -0.4375q-0.359375 -0.28125 -0.578125 -0.6875q-0.21875 -0.40625 -0.234375 -0.9375l1.421875 0q0.0625 0.5 0.359375 0.765625q0.296875 0.265625 0.78125 0.265625q0.28125 0 0.484375 -0.109375q0.21875 -0.109375 0.34375 -0.296875q0.125 -0.1875 0.1875 -0.453125q0.0625 -0.265625 0.0625 -0.578125q0 -0.296875 -0.078125 -0.546875q-0.078125 -0.25 -0.234375 -0.4375q-0.15625 -0.1875 -0.390625 -0.28125q-0.234375 -0.09375 -0.546875 -0.09375q-0.21875 0 -0.375 0.03125q-0.15625 0.03125 -0.28125 0.09375q-0.109375 0.0625 -0.203125 0.140625q-0.09375 0.0625 -0.171875 0.15625l-1.15625 -0.296875z" fill-rule="nonzero"/><path fill="#000000" fill-opacity="0.0" d="m234.26196 176.83727l37.795288 0l0 18.897644l-37.795288 0z" fill-rule="evenodd"/><path stroke="#f3f3f3" stroke-width="1.0" stroke-linejoin="round" stroke-linecap="butt" stroke-dasharray="4.0,3.0" d="m234.26196 176.83727l37.795288 0l0 18.897644l-37.795288 0z" fill-rule="evenodd"/><path fill="#000000" fill-opacity="0.0" d="m272.05725 176.83727l37.795258 0l0 18.897644l-37.795258 0z" fill-rule="evenodd"/><path stroke="#f3f3f3" stroke-width="1.0" stroke-linejoin="round" stroke-linecap="butt" stroke-dasharray="4.0,3.0" d="m272.05725 176.83727l37.795258 0l0 18.897644l-37.795258 0z" fill-rule="evenodd"/><path fill="#000000" fill-opacity="0.0" d="m309.8525 176.83727l37.795288 0l0 18.897644l-37.795288 0z" fill-rule="evenodd"/><path stroke="#f3f3f3" stroke-width="1.0" stroke-linejoin="round" stroke-linecap="butt" stroke-dasharray="4.0,3.0" d="m309.8525 176.83727l37.795288 0l0 18.897644l-37.795288 0z" fill-rule="evenodd"/><path fill="#000000" fill-opacity="0.0" d="m347.6478 176.83727l37.795258 0l0 18.897644l-37.795258 0z" fill-rule="evenodd"/><path stroke="#f3f3f3" stroke-width="1.0" stroke-linejoin="round" stroke-linecap="butt" stroke-dasharray="4.0,3.0" d="m347.6478 176.83727l37.795258 0l0 18.897644l-37.795258 0z" fill-rule="evenodd"/><path fill="#000000" fill-opacity="0.0" d="m45.285583 176.83727l37.795273 0l0 18.897644l-37.795273 0z" fill-rule="evenodd"/><path stroke="#d9d9d9" stroke-width="1.0" stroke-linejoin="round" stroke-linecap="butt" stroke-dasharray="4.0,3.0" d="m45.285583 176.83727l37.795273 0l0 18.897644l-37.795273 0z" fill-rule="evenodd"/><path fill="#d9d9d9" d="m65.267075 190.0261l-1.46875 0l0 -5.8125l-1.90625 0.6875l0 -1.265625l3.296875 -1.1875l0.078125 0l0 7.578125z" fill-rule="nonzero"/><path fill="#000000" fill-opacity="0.0" d="m385.44305 176.83727l37.795288 0l0 18.897644l-37.795288 0z" fill-rule="evenodd"/><path stroke="#d9d9d9" stroke-width="1.0" stroke-linejoin="round" stroke-linecap="butt" stroke-dasharray="4.0,3.0" d="m385.44305 176.83727l37.795288 0l0 18.897644l-37.795288 0z" fill-rule="evenodd"/><path fill="#d9d9d9" d="m402.22717 190.0261l-1.46875 0l0 -5.8125l-1.90625 0.6875l0 -1.265625l3.296875 -1.1875l0.078125 0l0 7.578125zm7.7854004 -2.875q0 0.71875 -0.171875 1.28125q-0.171875 0.5625 -0.5 0.9375q-0.3125 0.375 -0.765625 0.578125q-0.453125 0.1875 -1.03125 0.1875q-0.5625 0 -1.03125 -0.1875q-0.453125 -0.203125 -0.78125 -0.578125q-0.3125 -0.375 -0.484375 -0.9375q-0.171875 -0.5625 -0.171875 -1.28125l0 -1.8125q0 -0.734375 0.171875 -1.296875q0.171875 -0.5625 0.484375 -0.9375q0.328125 -0.375 0.78125 -0.5625q0.453125 -0.203125 1.015625 -0.203125q0.578125 0 1.03125 0.203125q0.46875 0.1875 0.78125 0.5625q0.328125 0.375 0.5 0.9375q0.171875 0.5625 0.171875 1.296875l0 1.8125zm-3.484375 -0.625l2.015625 -1.515625q-0.015625 -0.765625 -0.265625 -1.125q-0.25 -0.375 -0.75 -0.375q-0.5 0 -0.75 0.390625q-0.25 0.390625 -0.25 1.203125l0 1.421875zm2.015625 -0.53125l-2.015625 1.5q0.03125 0.75 0.28125 1.109375q0.25 0.359375 0.734375 0.359375q0.515625 0 0.75 -0.390625q0.25 -0.390625 0.25 -1.21875l0 -1.359375z" fill-rule="nonzero"/><path fill="#000000" fill-opacity="0.0" d="m60.129696 329.76346l58.393703 0l0 58.393707l-58.393703 0z" fill-rule="evenodd"/><path stroke="#d9d9d9" stroke-width="1.0" stroke-linejoin="round" stroke-linecap="butt" d="m60.129696 329.76346l58.393703 0l0 58.393707l-58.393703 0z" fill-rule="evenodd"/><path fill="#000000" d="m70.174835 363.7603l0 -9.46875l3.171875 0q0.78125 0 1.40625 0.15625q0.640625 0.15625 1.09375 0.46875q0.453125 0.3125 0.6875 0.8125q0.25 0.484375 0.25 1.140625q-0.015625 0.671875 -0.359375 1.203125q-0.34375 0.515625 -1.015625 0.796875q0.40625 0.09375 0.703125 0.3125q0.296875 0.203125 0.5 0.484375q0.203125 0.28125 0.296875 0.625q0.09375 0.328125 0.09375 0.6875q0 0.6875 -0.234375 1.21875q-0.234375 0.515625 -0.671875 0.875q-0.4375 0.34375 -1.0625 0.515625q-0.625 0.171875 -1.40625 0.171875l-3.453125 0zm1.828125 -4.171875l0 2.6875l1.625 0q0.75 0 1.140625 -0.359375q0.40625 -0.359375 0.40625 -0.953125q0 -0.640625 -0.359375 -1.0q-0.359375 -0.375 -1.109375 -0.375l-1.703125 0zm0 -1.328125l1.359375 0q0.765625 0 1.171875 -0.3125q0.40625 -0.3125 0.421875 -0.921875q0 -0.671875 -0.421875 -0.953125q-0.40625 -0.296875 -1.171875 -0.296875l-1.359375 0l0 2.484375zm8.138809 4.015625l4.4375 0l0 1.484375l-6.28125 0l0 -9.46875l1.84375 0l0 7.984375zm12.654434 -2.5625q0 0.921875 -0.25 1.6875q-0.234375 0.765625 -0.6875 1.328125q-0.453125 0.546875 -1.109375 0.859375q-0.65625 0.296875 -1.484375 0.296875q-0.8125 0 -1.453125 -0.296875q-0.640625 -0.3125 -1.078125 -0.859375q-0.4375 -0.5625 -0.671875 -1.328125q-0.21875 -0.765625 -0.21875 -1.6875l0 -1.375q0 -0.90625 0.21875 -1.671875q0.234375 -0.78125 0.671875 -1.328125q0.4375 -0.5625 1.078125 -0.875q0.640625 -0.3125 1.453125 -0.3125q0.828125 0 1.484375 0.3125q0.65625 0.3125 1.109375 0.875q0.453125 0.546875 0.6875 1.328125q0.25 0.765625 0.25 1.671875l0 1.375zm-1.859375 -1.390625q0 -0.578125 -0.09375 -1.0625q-0.09375 -0.484375 -0.296875 -0.828125q-0.203125 -0.359375 -0.515625 -0.5625q-0.3125 -0.203125 -0.765625 -0.203125q-0.4375 0 -0.75 0.203125q-0.296875 0.203125 -0.484375 0.5625q-0.171875 0.34375 -0.25 0.828125q-0.078125 0.484375 -0.078125 1.0625l0 1.390625q0 0.578125 0.078125 1.0625q0.078125 0.484375 0.25 0.84375q0.1875 0.359375 0.484375 0.5625q0.3125 0.203125 0.75 0.203125q0.453125 0 0.765625 -0.203125q0.3125 -0.203125 0.515625 -0.546875q0.203125 -0.359375 0.296875 -0.84375q0.09375 -0.5 0.09375 -1.078125l0 -1.390625zm9.826309 2.46875q-0.046875 0.71875 -0.3125 1.296875q-0.265625 0.5625 -0.71875 0.96875q-0.4375 0.40625 -1.046875 0.625q-0.609375 0.21875 -1.34375 0.21875q-0.84375 0 -1.5 -0.3125q-0.640625 -0.3125 -1.09375 -0.859375q-0.4375 -0.5625 -0.671875 -1.34375q-0.234375 -0.78125 -0.234375 -1.71875l0 -1.28125q0 -0.9375 0.25 -1.71875q0.25 -0.78125 0.703125 -1.34375q0.453125 -0.5625 1.09375 -0.859375q0.65625 -0.3125 1.453125 -0.3125q0.78125 0 1.390625 0.21875q0.609375 0.21875 1.03125 0.640625q0.4375 0.40625 0.6875 1.0q0.25 0.578125 0.3125 1.328125l-1.828125 0q-0.015625 -0.421875 -0.125 -0.734375q-0.09375 -0.328125 -0.296875 -0.53125q-0.1875 -0.21875 -0.484375 -0.328125q-0.28125 -0.109375 -0.6875 -0.109375q-0.421875 0 -0.734375 0.1875q-0.3125 0.1875 -0.515625 0.546875q-0.203125 0.34375 -0.296875 0.859375q-0.09375 0.5 -0.09375 1.15625l0 1.28125q0 1.40625 0.390625 2.078125q0.390625 0.65625 1.25 0.65625q0.703125 0 1.125 -0.375q0.421875 -0.375 0.46875 -1.234375l1.828125 0zm4.232559 -0.921875l-1.0 1.09375l0 2.796875l-1.828125 0l0 -9.46875l1.828125 0l0 4.328125l0.859375 -1.15625l2.3125 -3.171875l2.234375 0l-3.1875 4.1875l3.296875 5.28125l-2.171875 0l-2.34375 -3.890625z" fill-rule="nonzero"/><path fill="#000000" fill-opacity="0.0" d="m1.7367837 329.76346l58.393703 0l0 58.393707l-58.393703 0z" fill-rule="evenodd"/><path stroke="#d9d9d9" stroke-width="1.0" stroke-linejoin="round" stroke-linecap="butt" d="m1.7367837 329.76346l58.393703 0l0 58.393707l-58.393703 0z" fill-rule="evenodd"/><path fill="#000000" d="m11.781923 363.7603l0 -9.46875l3.171875 0q0.78125 0 1.40625 0.15625q0.640625 0.15625 1.09375 0.46875q0.453125 0.3125 0.6875 0.8125q0.25 0.484375 0.25 1.140625q-0.015625 0.671875 -0.359375 1.203125q-0.34375 0.515625 -1.015625 0.796875q0.40625 0.09375 0.703125 0.3125q0.296875 0.203125 0.5 0.484375q0.203125 0.28125 0.296875 0.625q0.09375 0.328125 0.09375 0.6875q0 0.6875 -0.234375 1.21875q-0.234375 0.515625 -0.671875 0.875q-0.4375 0.34375 -1.0625 0.515625q-0.625 0.171875 -1.40625 0.171875l-3.453125 0zm1.828125 -4.171875l0 2.6875l1.625 0q0.75 0 1.140625 -0.359375q0.40625 -0.359375 0.40625 -0.953125q0 -0.640625 -0.359375 -1.0q-0.359375 -0.375 -1.109375 -0.375l-1.703125 0zm0 -1.328125l1.359375 0q0.765625 0 1.171875 -0.3125q0.40625 -0.3125 0.421875 -0.921875q0 -0.671875 -0.421875 -0.953125q-0.40625 -0.296875 -1.171875 -0.296875l-1.359375 0l0 2.484375zm8.138809 4.015625l4.4375 0l0 1.484375l-6.28125 0l0 -9.46875l1.84375 0l0 7.984375zm12.654432 -2.5625q0 0.921875 -0.25 1.6875q-0.234375 0.765625 -0.6875 1.328125q-0.453125 0.546875 -1.109375 0.859375q-0.6562481 0.296875 -1.4843731 0.296875q-0.8125 0 -1.453125 -0.296875q-0.640625 -0.3125 -1.078125 -0.859375q-0.4375 -0.5625 -0.671875 -1.328125q-0.21875 -0.765625 -0.21875 -1.6875l0 -1.375q0 -0.90625 0.21875 -1.671875q0.234375 -0.78125 0.671875 -1.328125q0.4375 -0.5625 1.078125 -0.875q0.640625 -0.3125 1.453125 -0.3125q0.828125 0 1.4843731 0.3125q0.65625 0.3125 1.109375 0.875q0.453125 0.546875 0.6875 1.328125q0.25 0.765625 0.25 1.671875l0 1.375zm-1.859375 -1.390625q0 -0.578125 -0.09375 -1.0625q-0.09375 -0.484375 -0.296875 -0.828125q-0.2031231 -0.359375 -0.5156231 -0.5625q-0.3125 -0.203125 -0.765625 -0.203125q-0.4375 0 -0.75 0.203125q-0.296875 0.203125 -0.484375 0.5625q-0.171875 0.34375 -0.25 0.828125q-0.078125 0.484375 -0.078125 1.0625l0 1.390625q0 0.578125 0.078125 1.0625q0.078125 0.484375 0.25 0.84375q0.1875 0.359375 0.484375 0.5625q0.3125 0.203125 0.75 0.203125q0.453125 0 0.765625 -0.203125q0.3125 -0.203125 0.5156231 -0.546875q0.203125 -0.359375 0.296875 -0.84375q0.09375 -0.5 0.09375 -1.078125l0 -1.390625zm9.826309 2.46875q-0.046875 0.71875 -0.3125 1.296875q-0.265625 0.5625 -0.71875 0.96875q-0.4375 0.40625 -1.046875 0.625q-0.609375 0.21875 -1.34375 0.21875q-0.84375 0 -1.5 -0.3125q-0.640625 -0.3125 -1.09375 -0.859375q-0.4375 -0.5625 -0.671875 -1.34375q-0.234375 -0.78125 -0.234375 -1.71875l0 -1.28125q0 -0.9375 0.25 -1.71875q0.25 -0.78125 0.703125 -1.34375q0.453125 -0.5625 1.09375 -0.859375q0.65625 -0.3125 1.453125 -0.3125q0.78125 0 1.390625 0.21875q0.609375 0.21875 1.03125 0.640625q0.4375 0.40625 0.6875 1.0q0.25 0.578125 0.3125 1.328125l-1.828125 0q-0.015625 -0.421875 -0.125 -0.734375q-0.09375 -0.328125 -0.296875 -0.53125q-0.1875 -0.21875 -0.484375 -0.328125q-0.28125 -0.109375 -0.6875 -0.109375q-0.421875 0 -0.734375 0.1875q-0.3125 0.1875 -0.515625 0.546875q-0.203125 0.34375 -0.296875 0.859375q-0.09375 0.5 -0.09375 1.15625l0 1.28125q0 1.40625 0.390625 2.078125q0.390625 0.65625 1.25 0.65625q0.703125 0 1.125 -0.375q0.421875 -0.375 0.46875 -1.234375l1.828125 0zm4.232559 -0.921875l-1.0 1.09375l0 2.796875l-1.828125 0l0 -9.46875l1.828125 0l0 4.328125l0.859375 -1.15625l2.3125 -3.171875l2.234375 0l-3.1875 4.1875l3.296875 5.28125l-2.171875 0l-2.34375 -3.890625z" fill-rule="nonzero"/><path fill="#000000" fill-opacity="0.0" d="m45.285583 195.73491l377.95276 0" fill-rule="evenodd"/><path stroke="#000000" stroke-width="1.0" stroke-linejoin="round" stroke-linecap="butt" d="m45.285583 195.73491l371.95276 0" fill-rule="evenodd"/><path fill="#000000" stroke="#000000" stroke-width="1.0" stroke-linecap="butt" d="m417.23834 197.38664l4.5381165 -1.6517334l-4.5381165 -1.6517334z" fill-rule="evenodd"/><path fill="#000000" fill-opacity="0.0" d="m-11.4073305 176.83727l56.692913 0l0 18.897644l-56.692913 0z" fill-rule="evenodd"/><path fill="#000000" d="m2.0795906 190.0261l0 -6.953125l4.609375 0l0 1.328125l-3.0468752 0l0 1.609375l2.5937502 0l0 1.3125l-2.5937502 0l0 2.703125l-1.5625 0zm6.018814 0l0 -6.953125l2.453125 0q0.5625 0 1.046875 0.109375q0.484375 0.109375 0.84375 0.359375q0.375 0.25 0.578125 0.671875q0.21875 0.40625 0.21875 1.03125q0 0.765625 -0.34375 1.265625q-0.328125 0.484375 -0.890625 0.734375l1.5625 2.78125l-1.75 0l-1.328125 -2.5l-0.828125 0l0 2.5l-1.5625 0zm1.5625 -3.75l0.765625 0q1.265625 0 1.265625 -1.03125q0 -0.515625 -0.328125 -0.71875q-0.3125 -0.203125 -0.9375 -0.203125l-0.765625 0l0 1.953125zm6.675063 0.234375l-0.15625 0.640625l1.46875 0l-0.171875 -0.640625q-0.125 -0.515625 -0.28125 -1.09375q-0.15625 -0.59375 -0.265625 -1.140625l-0.046875 0q-0.125 0.546875 -0.265625 1.140625q-0.140625 0.578125 -0.28125 1.09375zm-2.499999 3.515625l2.171874 -6.953125l1.875 0l2.15625 6.953125l-1.65625 0l-0.421875 -1.65625l-2.093749 0l-0.4375 1.65625l-1.59375 0zm6.925065 0l0 -6.953125l1.640625 0l0.671875 2.46875l0.234375 0.953125l0.046875 0l0.234375 -0.953125l0.6875 -2.46875l1.640625 0l0 6.953125l-1.328125 0l0 -2.15625q0 -0.28125 0.015625 -0.71875q0.03125 -0.4375 0.0625 -0.890625q0.03125 -0.46875 0.0625 -0.890625q0.046875 -0.4375 0.0625 -0.71875l-0.03125 0l-0.53125 1.859375l-0.53125 1.671875l-0.765625 0l-0.546875 -1.671875l-0.5 -1.859375l-0.03125 0q0.03125 0.28125 0.0625 0.71875q0.03125 0.421875 0.0625 0.890625q0.03125 0.453125 0.046875 0.890625q0.03125 0.4375 0.03125 0.71875l0 2.15625l-1.296875 0zm6.753189 0l0 -6.953125l4.593752 0l0 1.328125l-3.015627 0l0 1.390625l2.5625 0l0 1.3125l-2.5625 0l0 1.59375l3.125002 0l0 1.328125l-4.703127 0z" fill-rule="nonzero"/><path fill="#000000" fill-opacity="0.0" d="m-11.4073305 195.73491l56.692913 0l0 18.897644l-56.692913 0z" fill-rule="evenodd"/><path fill="#000000" d="m1.7358406 208.92372l0 -6.953125l2.3437502 0q0.546875 0 1.0 0.09375q0.46875 0.078125 0.8125 0.28125q0.34375 0.1875 0.53125 0.53125q0.203125 0.328125 0.203125 0.828125q0 0.234375 -0.078125 0.46875q-0.0625 0.234375 -0.21875 0.4375q-0.140625 0.203125 -0.375 0.359375q-0.21875 0.15625 -0.53125 0.234375l0 0.046875q0.75 0.140625 1.125 0.53125q0.390625 0.390625 0.390625 1.09375q0 0.53125 -0.203125 0.921875q-0.203125 0.375 -0.5625 0.625q-0.359375 0.25 -0.84375 0.375q-0.484375 0.125 -1.046875 0.125l-2.5468752 0zm1.578125 -4.15625l0.68750024 0q0.578125 0 0.828125 -0.21875q0.265625 -0.234375 0.265625 -0.640625q0 -0.375 -0.265625 -0.53125q-0.265625 -0.171875 -0.8125 -0.171875l-0.70312524 0l0 1.5625zm0 2.9375l0.84375024 0q1.25 0 1.25 -0.9375q0 -0.46875 -0.3125 -0.671875q-0.296875 -0.203125 -0.9375 -0.203125l-0.84375024 0l0 1.8125zm5.175064 1.21875l0 -6.953125l1.5625 0l0 5.625l3.09375 0l0 1.328125l-4.65625 0zm8.456313 0.125q-0.625 0 -1.140624 -0.234375q-0.515625 -0.234375 -0.890625 -0.6875q-0.359375 -0.453125 -0.5625 -1.125q-0.203125 -0.6875 -0.203125 -1.578125q0 -0.875 0.203125 -1.546875q0.203125 -0.671875 0.5625 -1.125q0.375 -0.453125 0.890625 -0.671875q0.51562405 -0.234375 1.140624 -0.234375q0.609375 0 1.125 0.234375q0.515625 0.21875 0.875 0.671875q0.375 0.453125 0.578125 1.125q0.203125 0.671875 0.203125 1.546875q0 0.890625 -0.203125 1.578125q-0.203125 0.671875 -0.578125 1.125q-0.359375 0.453125 -0.875 0.6875q-0.515625 0.234375 -1.125 0.234375zm0 -1.34375q0.53125 0 0.84375 -0.578125q0.328125 -0.578125 0.328125 -1.703125q0 -1.09375 -0.328125 -1.65625q-0.3125 -0.5625 -0.84375 -0.5625q-0.546875 0 -0.875 0.5625q-0.31249905 0.5625 -0.31249905 1.65625q0 1.125 0.31249905 1.703125q0.328125 0.578125 0.875 0.578125zm6.987566 1.34375q-0.65625 0 -1.234375 -0.21875q-0.578125 -0.234375 -1.03125 -0.671875q-0.4375 -0.453125 -0.703125 -1.125q-0.25 -0.671875 -0.25 -1.546875q0 -0.859375 0.25 -1.53125q0.265625 -0.671875 0.703125 -1.140625q0.453125 -0.46875 1.0625 -0.71875q0.609375 -0.25 1.296875 -0.25q0.65625 0 1.1875 0.28125q0.53125 0.265625 0.890625 0.609375l-0.859375 0.96875q-0.25 -0.234375 -0.546875 -0.359375q-0.296875 -0.140625 -0.671875 -0.140625q-0.375 0 -0.6875 0.15625q-0.296875 0.15625 -0.53125 0.4375q-0.234375 0.28125 -0.359375 0.703125q-0.125 0.421875 -0.125 0.9375q0 1.078125 0.484375 1.671875q0.5 0.59375 1.28125 0.59375q0.375 0 0.6875 -0.171875q0.3125 -0.171875 0.578125 -0.453125l0.859375 0.953125q-0.859375 1.015625 -2.28125 1.015625zm3.315689 -0.125l0 -6.953125l1.59375 0l0 2.84375l0.03125 0l2.0625 -2.84375l1.7343769 0l-2.093752 2.765625l2.281252 4.1875l-1.7343769 0l-1.484375 -2.953125l-0.796875 1.0625l0 1.890625l-1.59375 0z" fill-rule="nonzero"/><path fill="#000000" fill-opacity="0.0" d="m1.7367837 271.3701l116.7874 0l0 58.393707l-116.7874 0z" fill-rule="evenodd"/><path stroke="#d9d9d9" stroke-width="1.0" stroke-linejoin="round" stroke-linecap="butt" stroke-dasharray="4.0,3.0" d="m1.7367837 271.3701l116.7874 0l0 58.393707l-116.7874 0z" fill-rule="evenodd"/><path fill="#000000" d="m46.994396 301.44504l-4.046875 0l0 3.921875l-1.84375 0l0 -9.46875l6.40625 0l0 1.484375l-4.5625 0l0 2.578125l4.046875 0l0 1.484375zm5.201309 0.375l-1.375 0l0 3.546875l-1.828125 0l0 -9.46875l3.171875 0q0.78125 0 1.421875 0.1875q0.640625 0.171875 1.09375 0.53125q0.453125 0.359375 0.6875 0.890625q0.25 0.53125 0.25 1.234375q0 0.515625 -0.125 0.921875q-0.109375 0.40625 -0.34375 0.734375q-0.21875 0.3125 -0.546875 0.5625q-0.3125 0.234375 -0.703125 0.40625l2.046875 3.921875l0 0.078125l-1.96875 0l-1.78125 -3.546875zm-1.375 -1.484375l1.34375 0q0.78125 0 1.203125 -0.390625q0.421875 -0.390625 0.421875 -1.078125q0 -0.703125 -0.421875 -1.09375q-0.40625 -0.390625 -1.203125 -0.390625l-1.34375 0l0 2.953125zm10.826309 3.046875l-2.84375 0l-0.5625 1.984375l-1.921875 0l3.09375 -9.46875l1.671875 0l3.0312538 9.46875l-1.9218788 0l-0.546875 -1.984375zm-2.390625 -1.546875l1.953125 0l-0.96875 -3.484375l-0.984375 3.484375zm7.966938 -5.9375l0.90625 3.546875l1.015625 -3.546875l2.265625 0l0 9.46875l-1.671875 0l0 -2.8125l0.078125 -4.421875l-1.25 4.109375l-0.890625 0l-1.125 -3.9375l0.078125 4.25l0 2.8125l-1.671875 0l0 -9.46875l2.265625 0zm11.591934 5.3125l-3.890625 0l0 2.671875l4.546875 0l0 1.484375l-6.390625 0l0 -9.46875l6.375 0l0 1.484375l-4.53125 0l0 2.390625l3.890625 0l0 1.4375z" fill-rule="nonzero"/><path fill="#000000" fill-opacity="0.0" d="m322.26773 0.14435695l220.06296 0l0 113.385826l-220.06296 0z" fill-rule="evenodd"/><path fill="#434343" d="m333.59586 65.377266l0 -1.625l4.421875 0l0 -11.28125l-3.4375 0l0 -1.28125q1.375 -0.1875 2.28125 -0.453125q0.90625 -0.265625 1.65625 -0.671875l1.46875 0l0 13.6875l4.0 0l0 1.625l-10.390625 0zm28.846802 0l0 -15.75l4.46875 0q1.203125 0 2.1875 0.21875q1.0 0.21875 1.703125 0.671875q0.71875 0.453125 1.109375 1.1875q0.390625 0.734375 0.390625 1.765625q0 1.171875 -0.671875 2.125q-0.671875 0.953125 -2.078125 1.3125l0 0.09375q1.71875 0.265625 2.671875 1.203125q0.96875 0.9375 0.96875 2.5625q0 1.15625 -0.4375 2.015625q-0.421875 0.859375 -1.203125 1.4375q-0.78125 0.578125 -1.875 0.875q-1.09375 0.28125 -2.40625 0.28125l-4.828125 0zm2.0 -9.125l2.125 0q2.015625 0 2.890625 -0.640625q0.875 -0.65625 0.875 -1.96875q0 -1.296875 -0.921875 -1.8125q-0.921875 -0.515625 -2.75 -0.515625l-2.21875 0l0 4.9375zm0 7.4375l2.53125 0q2.046875 0 3.140625 -0.703125q1.109375 -0.703125 1.109375 -2.3125q0 -1.46875 -1.078125 -2.09375q-1.078125 -0.640625 -3.171875 -0.640625l-2.53125 0l0 5.75zm19.790588 1.96875q-1.875 0 -2.859375 -1.046875q-0.984375 -1.0625 -0.984375 -3.140625l0 -11.578125l-4.140625 0l0 -1.609375l6.109375 0l0 13.328125q0 1.296875 0.625 1.859375q0.625 0.5625 1.6875 0.5625q1.03125 0 2.1875 -0.53125l0.5 1.46875q-0.8125 0.328125 -1.484375 0.5q-0.671875 0.1875 -1.640625 0.1875zm11.837463 0q-1.15625 0 -2.203125 -0.40625q-1.046875 -0.40625 -1.84375 -1.1875q-0.78125 -0.78125 -1.25 -1.921875q-0.46875 -1.140625 -0.46875 -2.578125q0 -1.453125 0.46875 -2.59375q0.46875 -1.140625 1.25 -1.9375q0.796875 -0.796875 1.84375 -1.203125q1.046875 -0.40625 2.203125 -0.40625q1.15625 0 2.1875 0.40625q1.046875 0.40625 1.84375 1.203125q0.796875 0.796875 1.25 1.9375q0.46875 1.140625 0.46875 2.59375q0 1.4375 -0.46875 2.578125q-0.453125 1.140625 -1.25 1.921875q-0.796875 0.78125 -1.84375 1.1875q-1.03125 0.40625 -2.1875 0.40625zm0 -1.625q0.84375 0 1.515625 -0.3125q0.6875 -0.328125 1.171875 -0.921875q0.5 -0.59375 0.765625 -1.40625q0.265625 -0.8125 0.265625 -1.828125q0 -1.0 -0.265625 -1.828125q-0.265625 -0.828125 -0.765625 -1.421875q-0.484375 -0.609375 -1.171875 -0.921875q-0.671875 -0.328125 -1.515625 -0.328125q-0.84375 0 -1.53125 0.328125q-0.6875 0.3125 -1.171875 0.921875q-0.484375 0.59375 -0.75 1.421875q-0.265625 0.828125 -0.265625 1.828125q0 1.015625 0.265625 1.828125q0.265625 0.8125 0.75 1.40625q0.484375 0.59375 1.171875 0.921875q0.6875 0.3125 1.53125 0.3125zm15.493713 1.625q-1.359375 0 -2.53125 -0.40625q-1.15625 -0.40625 -2.03125 -1.1875q-0.859375 -0.78125 -1.34375 -1.921875q-0.46875 -1.140625 -0.46875 -2.578125q0 -1.453125 0.515625 -2.59375q0.515625 -1.140625 1.40625 -1.9375q0.890625 -0.796875 2.078125 -1.203125q1.1875 -0.40625 2.5 -0.40625q1.4375 0 2.484375 0.515625q1.046875 0.5 1.765625 1.1875l-0.984375 1.28125q-0.71875 -0.625 -1.5 -0.984375q-0.78125 -0.359375 -1.6875 -0.359375q-1.015625 0 -1.859375 0.328125q-0.828125 0.3125 -1.421875 0.921875q-0.59375 0.59375 -0.9375 1.421875q-0.328125 0.828125 -0.328125 1.828125q0 1.015625 0.328125 1.828125q0.328125 0.8125 0.90625 1.40625q0.59375 0.59375 1.421875 0.921875q0.828125 0.3125 1.84375 0.3125q1.078125 0 1.96875 -0.421875q0.90625 -0.421875 1.625 -1.046875l0.890625 1.28125q-0.984375 0.859375 -2.171875 1.34375q-1.171875 0.46875 -2.46875 0.46875zm8.649963 -0.28125l0 -17.09375l1.96875 0l0 11.578125l0.09375 0l6.28125 -6.140625l2.265625 0l-4.65625 4.578125l5.28125 7.078125l-2.21875 0l-4.296875 -5.875l-2.75 2.703125l0 3.171875l-1.96875 0zm28.299927 -10.171875l0 -1.484375l10.3125 0l0 1.484375l-10.3125 0zm0 6.0l0 -1.484375l10.3125 0l0 1.484375l-10.3125 0zm29.081177 4.171875l0 -1.625l4.421875 0l0 -11.28125l-3.4375 0l0 -1.28125q1.375 -0.1875 2.28125 -0.453125q0.90625 -0.265625 1.65625 -0.671875l1.46875 0l0 13.6875l4.0 0l0 1.625l-10.390625 0zm19.993713 0.28125q-1.328125 0 -2.46875 -0.40625q-1.140625 -0.40625 -2.0 -1.1875q-0.84375 -0.796875 -1.34375 -1.9375q-0.484375 -1.140625 -0.484375 -2.609375q0 -1.40625 0.484375 -2.53125q0.5 -1.140625 1.328125 -1.921875q0.828125 -0.796875 1.890625 -1.21875q1.078125 -0.421875 2.25 -0.421875q1.25 0 2.25 0.40625q1.0 0.390625 1.671875 1.109375q0.6875 0.71875 1.046875 1.734375q0.359375 1.0 0.359375 2.21875q0 0.34375 -0.03125 0.65625q-0.015625 0.3125 -0.0625 0.546875l-9.1875 0q0.1875 2.0 1.453125 3.0q1.265625 0.984375 3.078125 0.984375q1.0625 0 1.90625 -0.296875q0.859375 -0.296875 1.65625 -0.8125l0.71875 1.296875q-0.875 0.578125 -1.984375 0.984375q-1.109375 0.40625 -2.53125 0.40625zm-0.296875 -10.671875q-0.71875 0 -1.375 0.25q-0.65625 0.234375 -1.1875 0.671875q-0.53125 0.4375 -0.890625 1.109375q-0.359375 0.671875 -0.5 1.546875l7.4375 0q-0.125 -1.796875 -1.046875 -2.6875q-0.921875 -0.890625 -2.4375 -0.890625zm8.165588 10.390625l0 -11.65625l1.578125 0l0.171875 1.53125l0.046875 0q0.453125 -0.8125 1.046875 -1.3125q0.609375 -0.515625 1.625 -0.515625q1.703125 0 2.2030945 2.015625q0.5 -0.9375 1.109375 -1.46875q0.625 -0.546875 1.625 -0.546875q1.234375 0 1.90625 0.921875q0.6875 0.921875 0.6875 2.671875l0 8.359375l-1.96875 0l0 -8.203125q0 -2.046875 -1.25 -2.046875q-0.625 0 -1.015625 0.453125q-0.375 0.4375 -0.859375 1.34375l0 8.453125l-1.8124695 0l0 -8.203125q0 -1.015625 -0.28125 -1.53125q-0.28125 -0.515625 -0.921875 -0.515625q-0.625 0 -1.0625 0.453125q-0.421875 0.4375 -0.859375 1.34375l0 8.453125l-1.96875 0z" fill-rule="nonzero"/><path fill="#000000" fill-opacity="0.0" d="m119.35096 271.3701l302.3622 0l0 116.787384l-302.3622 0z" fill-rule="evenodd"/><path fill="#434343" d="m143.26051 338.30377l0 -1.625l4.421875 0l0 -11.28125l-3.4375 0l0 -1.28125q1.375 -0.1875 2.28125 -0.453125q0.90625 -0.265625 1.65625 -0.671875l1.46875 0l0 13.6875l4.0 0l0 1.625l-10.390625 0zm29.659302 0l0 -15.75l9.671875 0l0 1.6875l-7.65625 0l0 5.328125l6.484375 0l0 1.671875l-6.484375 0l0 7.0625l-2.015625 0zm14.712463 0l0 -11.65625l1.640625 0l0.15625 2.75l0.078125 0q0.90625 -1.40625 2.234375 -2.21875q1.34375 -0.828125 2.96875 -0.828125q0.65625 0 1.203125 0.109375q0.5625 0.109375 1.109375 0.375l-0.453125 1.703125q-0.625 -0.21875 -1.046875 -0.3125q-0.421875 -0.09375 -1.125 -0.09375q-1.3125 0 -2.53125 0.765625q-1.203125 0.75 -2.265625 2.5625l0 6.84375l-1.96875 0zm16.806213 0.28125q-0.8125 0 -1.546875 -0.234375q-0.71875 -0.21875 -1.265625 -0.640625q-0.53125 -0.421875 -0.84375 -1.03125q-0.3125 -0.609375 -0.3125 -1.40625q0 -0.984375 0.46875 -1.703125q0.46875 -0.734375 1.484375 -1.265625q1.03125 -0.53125 2.640625 -0.859375q1.609375 -0.34375 3.859375 -0.53125q-0.015625 -0.59375 -0.1875 -1.125q-0.171875 -0.53125 -0.53125 -0.921875q-0.359375 -0.40625 -0.953125 -0.640625q-0.578125 -0.234375 -1.421875 -0.234375q-1.15625 0 -2.21875 0.4375q-1.046875 0.4375 -1.859375 0.953125l-0.765625 -1.34375q0.421875 -0.296875 1.015625 -0.59375q0.59375 -0.296875 1.25 -0.53125q0.65625 -0.25 1.390625 -0.40625q0.75 -0.15625 1.515625 -0.15625q2.40625 0 3.5625 1.3125q1.171875 1.296875 1.171875 3.484375l0 7.15625l-1.609375 0l-0.171875 -1.578125l-0.0625 0q-0.984375 0.765625 -2.171875 1.3125q-1.1875 0.546875 -2.4375 0.546875zm0.53125 -1.578125q1.0 0 1.96875 -0.4375q0.984375 -0.453125 1.984375 -1.296875l0 -3.0625q-1.875 0.140625 -3.140625 0.40625q-1.25 0.265625 -2.015625 0.640625q-0.75 0.359375 -1.0625 0.828125q-0.3125 0.46875 -0.3125 1.046875q0 0.515625 0.21875 0.859375q0.21875 0.34375 0.5625 0.578125q0.34375 0.21875 0.8125 0.328125q0.46875 0.109375 0.984375 0.109375zm9.353088 1.296875l0 -11.65625l1.578125 0l0.171875 1.53125l0.046875 0q0.453125 -0.8125 1.046875 -1.3125q0.609375 -0.515625 1.625 -0.515625q1.703125 0 2.203125 2.015625q0.5 -0.9375 1.109375 -1.46875q0.625 -0.546875 1.625 -0.546875q1.234375 0 1.90625 0.921875q0.6875 0.921875 0.6875 2.671875l0 8.359375l-1.96875 0l0 -8.203125q0 -2.046875 -1.25 -2.046875q-0.625 0 -1.015625 0.453125q-0.375 0.4375 -0.859375 1.34375l0 8.453125l-1.8125 0l0 -8.203125q0 -1.015625 -0.28125 -1.53125q-0.28125 -0.515625 -0.921875 -0.515625q-0.625 0 -1.0625 0.453125q-0.421875 0.4375 -0.859375 1.34375l0 8.453125l-1.96875 0zm20.931213 0.28125q-1.328125 0 -2.46875 -0.40625q-1.140625 -0.40625 -2.0 -1.1875q-0.84375 -0.796875 -1.34375 -1.9375q-0.484375 -1.140625 -0.484375 -2.609375q0 -1.40625 0.484375 -2.53125q0.5 -1.140625 1.328125 -1.921875q0.828125 -0.796875 1.890625 -1.21875q1.078125 -0.421875 2.25 -0.421875q1.25 0 2.25 0.40625q1.0 0.390625 1.671875 1.109375q0.6875 0.71875 1.046875 1.734375q0.359375 1.0 0.359375 2.21875q0 0.34375 -0.03125 0.65625q-0.015625 0.3125 -0.0625 0.546875l-9.1875 0q0.1875 2.0 1.453125 3.0q1.265625 0.984375 3.078125 0.984375q1.0625 0 1.90625 -0.296875q0.859375 -0.296875 1.65625 -0.8125l0.71875 1.296875q-0.875 0.578125 -1.984375 0.984375q-1.109375 0.40625 -2.53125 0.40625zm-0.296875 -10.671875q-0.71875 0 -1.375 0.25q-0.65625 0.234375 -1.1875 0.671875q-0.53125 0.4375 -0.890625 1.109375q-0.359375 0.671875 -0.5 1.546875l7.4375 0q-0.125 -1.796875 -1.046875 -2.6875q-0.921875 -0.890625 -2.4375 -0.890625zm23.221817 0.21875l0 -1.484375l10.3125 0l0 1.484375l-10.3125 0zm0 6.0l0 -1.484375l10.3125 0l0 1.484375l-10.3125 0zm28.503052 4.171875l0 -1.171875q1.953125 -1.734375 3.453125 -3.125q1.5 -1.390625 2.515625 -2.546875q1.015625 -1.171875 1.546875 -2.171875q0.53125 -1.015625 0.53125 -1.96875q0 -1.328125 -0.828125 -2.15625q-0.8125 -0.84375 -2.515625 -0.84375q-1.078125 0 -2.0 0.546875q-0.921875 0.53125 -1.671875 1.296875l-1.125 -1.125q1.03125 -1.0625 2.21875 -1.6875q1.1875 -0.640625 2.828125 -0.640625q1.140625 0 2.0625 0.328125q0.9375 0.3125 1.578125 0.90625q0.640625 0.578125 0.984375 1.421875q0.359375 0.84375 0.359375 1.84375q0 1.078125 -0.515625 2.171875q-0.515625 1.09375 -1.453125 2.265625q-0.9375 1.15625 -2.234375 2.421875q-1.296875 1.265625 -2.859375 2.671875q0.734375 -0.046875 1.453125 -0.09375q0.71875 -0.046875 1.40625 -0.046875l5.046875 0l0 1.703125l-10.78125 0zm29.424927 0l0 -15.75l4.46875 0q1.203125 0 2.1875 0.21875q1.0 0.21875 1.703125 0.671875q0.71875 0.453125 1.109375 1.1875q0.390625 0.734375 0.390625 1.765625q0 1.171875 -0.671875 2.125q-0.671875 0.953125 -2.078125 1.3125l0 0.09375q1.71875 0.265625 2.671875 1.203125q0.96875 0.9375 0.96875 2.5625q0 1.15625 -0.4375 2.015625q-0.421875 0.859375 -1.203125 1.4375q-0.78125 0.578125 -1.875 0.875q-1.09375 0.28125 -2.40625 0.28125l-4.828125 0zm2.0 -9.125l2.125 0q2.015625 0 2.890625 -0.640625q0.875 -0.65625 0.875 -1.96875q0 -1.296875 -0.921875 -1.8125q-0.921875 -0.515625 -2.75 -0.515625l-2.21875 0l0 4.9375zm0 7.4375l2.53125 0q2.046875 0 3.140625 -0.703125q1.109375 -0.703125 1.109375 -2.3125q0 -1.46875 -1.078125 -2.09375q-1.078125 -0.640625 -3.171875 -0.640625l-2.53125 0l0 5.75zm19.790588 1.96875q-1.875 0 -2.859375 -1.046875q-0.984375 -1.0625 -0.984375 -3.140625l0 -11.578125l-4.140625 0l0 -1.609375l6.109375 0l0 13.328125q0 1.296875 0.625 1.859375q0.625 0.5625 1.6875 0.5625q1.03125 0 2.1875 -0.53125l0.5 1.46875q-0.8125 0.328125 -1.484375 0.5q-0.671875 0.1875 -1.640625 0.1875zm11.837463 0q-1.15625 0 -2.203125 -0.40625q-1.046875 -0.40625 -1.84375 -1.1875q-0.78125 -0.78125 -1.25 -1.921875q-0.46875 -1.140625 -0.46875 -2.578125q0 -1.453125 0.46875 -2.59375q0.46875 -1.140625 1.25 -1.9375q0.796875 -0.796875 1.84375 -1.203125q1.046875 -0.40625 2.203125 -0.40625q1.15625 0 2.1875 0.40625q1.046875 0.40625 1.84375 1.203125q0.796875 0.796875 1.25 1.9375q0.46875 1.140625 0.46875 2.59375q0 1.4375 -0.46875 2.578125q-0.453125 1.140625 -1.25 1.921875q-0.796875 0.78125 -1.84375 1.1875q-1.03125 0.40625 -2.1875 0.40625zm0 -1.625q0.84375 0 1.515625 -0.3125q0.6875 -0.328125 1.171875 -0.921875q0.5 -0.59375 0.765625 -1.40625q0.265625 -0.8125 0.265625 -1.828125q0 -1.0 -0.265625 -1.828125q-0.265625 -0.828125 -0.765625 -1.421875q-0.484375 -0.609375 -1.171875 -0.921875q-0.671875 -0.328125 -1.515625 -0.328125q-0.84375 0 -1.53125 0.328125q-0.6875 0.3125 -1.171875 0.921875q-0.484375 0.59375 -0.75 1.421875q-0.265625 0.828125 -0.265625 1.828125q0 1.015625 0.265625 1.828125q0.265625 0.8125 0.75 1.40625q0.484375 0.59375 1.171875 0.921875q0.6875 0.3125 1.53125 0.3125zm15.493713 1.625q-1.359375 0 -2.53125 -0.40625q-1.15625 -0.40625 -2.03125 -1.1875q-0.859375 -0.78125 -1.34375 -1.921875q-0.46875 -1.140625 -0.46875 -2.578125q0 -1.453125 0.515625 -2.59375q0.515625 -1.140625 1.40625 -1.9375q0.890625 -0.796875 2.078125 -1.203125q1.1875 -0.40625 2.5 -0.40625q1.4375 0 2.484375 0.515625q1.046875 0.5 1.765625 1.1875l-0.984375 1.28125q-0.71875 -0.625 -1.5 -0.984375q-0.78125 -0.359375 -1.6875 -0.359375q-1.015625 0 -1.859375 0.328125q-0.828125 0.3125 -1.421875 0.921875q-0.59375 0.59375 -0.9375 1.421875q-0.328125 0.828125 -0.328125 1.828125q0 1.015625 0.328125 1.828125q0.328125 0.8125 0.90625 1.40625q0.59375 0.59375 1.421875 0.921875q0.828125 0.3125 1.84375 0.3125q1.078125 0 1.96875 -0.421875q0.90625 -0.421875 1.625 -1.046875l0.890625 1.28125q-0.984375 0.859375 -2.171875 1.34375q-1.171875 0.46875 -2.46875 0.46875zm8.649963 -0.28125l0 -17.09375l1.9687195 0l0 11.578125l0.09375 0l6.28125 -6.140625l2.265625 0l-4.65625 4.578125l5.28125 7.078125l-2.21875 0l-4.296875 -5.875l-2.75 2.703125l0 3.171875l-1.9687195 0zm19.290558 0.28125q-1.71875 0 -3.1875 -0.53125q-1.46875 -0.546875 -2.546875 -1.28125l0.90625 -1.296875q1.015625 0.71875 2.21875 1.15625q1.21875 0.421875 2.859375 0.421875q1.484375 0 2.203125 -0.53125q0.734375 -0.546875 0.734375 -1.296875q0 -0.328125 -0.125 -0.609375q-0.109375 -0.296875 -0.515625 -0.5625q-0.390625 -0.265625 -1.109375 -0.5q-0.71875 -0.234375 -1.890625 -0.484375q-2.28125 -0.484375 -3.421875 -1.28125q-1.140625 -0.796875 -1.140625 -2.125q0 -0.703125 0.3125 -1.3125q0.3125 -0.609375 0.921875 -1.046875q0.609375 -0.453125 1.515625 -0.703125q0.90625 -0.25 2.09375 -0.25q1.34375 0 2.59375 0.453125q1.25 0.4375 2.109375 1.03125l-0.953125 1.28125q-0.8125 -0.5625 -1.796875 -0.890625q-0.984375 -0.34375 -2.109375 -0.34375q-1.5 0 -2.09375 0.515625q-0.59375 0.5 -0.59375 1.171875q0 0.765625 0.78125 1.171875q0.796875 0.390625 2.59375 0.765625q1.46875 0.3125 2.40625 0.671875q0.9375 0.34375 1.46875 0.78125q0.546875 0.421875 0.75 0.953125q0.203125 0.53125 0.203125 1.203125q0 0.71875 -0.34375 1.34375q-0.328125 0.625 -1.0 1.109375q-0.65625 0.46875 -1.625 0.734375q-0.96875 0.28125 -2.21875 0.28125z" fill-rule="nonzero"/><path fill="#000000" fill-opacity="0.0" d="m182.54068 115.1846l113.38583 0l0 22.929123l-113.38583 0z" fill-rule="evenodd"/><path fill="#434343" d="m192.60318 134.42459l0 -6.9843674l1.96875 0q0.53125 0 0.96875 0.09375q0.453125 0.09375 0.765625 0.296875q0.3125 0.20311737 0.484375 0.5312424q0.1875 0.3125 0.1875 0.78125q0 0.515625 -0.296875 0.9375q-0.296875 0.421875 -0.9375 0.578125l0 0.046875q0.765625 0.109375 1.1875 0.53125q0.4375 0.421875 0.4375 1.140625q0 0.515625 -0.1875 0.90625q-0.1875 0.375 -0.546875 0.640625q-0.34375 0.25 -0.828125 0.375q-0.484375 0.125 -1.0625 0.125l-2.140625 0zm0.875 -4.046875l0.953125 0q0.890625 0 1.28125 -0.28125q0.390625 -0.296875 0.390625 -0.890625q0 -0.5625 -0.421875 -0.796875q-0.40625 -0.234375 -1.203125 -0.234375l-1.0 0l0 2.203125zm0 3.296875l1.125 0q0.90625 0 1.390625 -0.3125q0.5 -0.3125 0.5 -1.03125q0 -0.640625 -0.484375 -0.921875q-0.46875 -0.28125 -1.40625 -0.28125l-1.125 0l0 2.546875zm8.800064 0.875q-0.84375 0 -1.28125 -0.46875q-0.4375 -0.46875 -0.4375 -1.390625l0 -5.1406174l-1.84375 0l0 -0.71875l2.71875 0l0 5.9218674q0 0.578125 0.28125 0.828125q0.28125 0.25 0.75 0.25q0.453125 0 0.96875 -0.234375l0.21875 0.640625q-0.359375 0.15625 -0.65625 0.234375q-0.296875 0.078125 -0.71875 0.078125zm5.253189 0q-0.515625 0 -0.984375 -0.171875q-0.453125 -0.1875 -0.8125 -0.53125q-0.34375 -0.34375 -0.5625 -0.84375q-0.203125 -0.515625 -0.203125 -1.15625q0 -0.65625 0.203125 -1.15625q0.21875 -0.5 0.5625 -0.84375q0.359375 -0.359375 0.8125 -0.546875q0.46875 -0.1875 0.984375 -0.1875q0.5 0 0.96875 0.1875q0.46875 0.1875 0.8125 0.546875q0.359375 0.34375 0.5625 0.84375q0.203125 0.5 0.203125 1.15625q0 0.640625 -0.203125 1.15625q-0.203125 0.5 -0.5625 0.84375q-0.34375 0.34375 -0.8125 0.53125q-0.46875 0.171875 -0.96875 0.171875zm0 -0.71875q0.359375 0 0.65625 -0.140625q0.3125 -0.15625 0.53125 -0.40625q0.21875 -0.265625 0.328125 -0.625q0.125 -0.359375 0.125 -0.8125q0 -0.453125 -0.125 -0.8125q-0.109375 -0.375 -0.328125 -0.640625q-0.21875 -0.265625 -0.53125 -0.40625q-0.296875 -0.140625 -0.65625 -0.140625q-0.375 0 -0.6875 0.140625q-0.296875 0.140625 -0.515625 0.40625q-0.21875 0.265625 -0.34375 0.640625q-0.109375 0.359375 -0.109375 0.8125q0 0.453125 0.109375 0.8125q0.125 0.359375 0.34375 0.625q0.21875 0.25 0.515625 0.40625q0.3125 0.140625 0.6875 0.140625zm6.878189 0.71875q-0.609375 0 -1.125 -0.171875q-0.515625 -0.1875 -0.90625 -0.53125q-0.375 -0.34375 -0.59375 -0.84375q-0.203125 -0.515625 -0.203125 -1.15625q0 -0.65625 0.21875 -1.15625q0.234375 -0.5 0.625 -0.84375q0.390625 -0.359375 0.921875 -0.546875q0.53125 -0.1875 1.109375 -0.1875q0.640625 0 1.109375 0.234375q0.46875 0.21875 0.78125 0.53125l-0.4375 0.5625q-0.3125 -0.28125 -0.671875 -0.4375q-0.34375 -0.15625 -0.75 -0.15625q-0.4375 0 -0.8125 0.140625q-0.375 0.140625 -0.640625 0.40625q-0.25 0.265625 -0.40625 0.640625q-0.140625 0.359375 -0.140625 0.8125q0 0.453125 0.140625 0.8125q0.140625 0.359375 0.390625 0.625q0.265625 0.25 0.625 0.40625q0.375 0.140625 0.828125 0.140625q0.484375 0 0.875 -0.1875q0.40625 -0.1875 0.71875 -0.46875l0.40625 0.5625q-0.4375 0.390625 -0.96875 0.609375q-0.515625 0.203125 -1.09375 0.203125zm3.831314 -0.125l0 -7.5937424l0.875 0l0 5.1406174l0.046875 0l2.796875 -2.71875l1.0 0l-2.078125 2.03125l2.34375 3.140625l-0.96875 0l-1.90625 -2.609375l-1.234375 1.203125l0 1.40625l-0.875 0zm15.256378 0.125q-0.65625 0 -1.21875 -0.234375q-0.546875 -0.25 -0.953125 -0.71875q-0.40625 -0.46875 -0.640625 -1.140625q-0.21875 -0.671875 -0.21875 -1.53125q0 -0.84375 0.21875 -1.515625q0.234375 -0.671875 0.640625 -1.140625q0.421875 -0.46874237 0.984375 -0.7187424q0.578125 -0.25 1.265625 -0.25q0.34375 0 0.625 0.078125q0.296875 0.078125 0.53125 0.203125q0.25 0.125 0.4375 0.28125q0.1875 0.14061737 0.328125 0.29686737l-0.5 0.5625q-0.25 -0.28125 -0.59375 -0.453125q-0.328125 -0.1875 -0.828125 -0.1875q-0.5 0 -0.90625 0.203125q-0.390625 0.1875 -0.6875 0.5625q-0.28125 0.359375 -0.4375 0.890625q-0.15625 0.515625 -0.15625 1.171875q0 0.65625 0.140625 1.1875q0.15625 0.53125 0.421875 0.90625q0.28125 0.359375 0.6875 0.5625q0.40625 0.203125 0.90625 0.203125q0.375 0 0.6875 -0.109375q0.328125 -0.109375 0.53125 -0.296875l0 -1.828125l-1.390625 0l0 -0.734375l2.21875 0l0 2.9375q-0.34375 0.34375 -0.890625 0.578125q-0.53125 0.234375 -1.203125 0.234375zm4.362564 -0.125l0 -5.171875l0.71875 0l0.078125 1.21875l0.03125 0q0.40625 -0.625 0.984375 -0.984375q0.59375 -0.375 1.328125 -0.375q0.28125 0 0.53125 0.046875q0.25 0.046875 0.484375 0.171875l-0.203125 0.75q-0.265625 -0.09375 -0.453125 -0.125q-0.1875 -0.046875 -0.5 -0.046875q-0.59375 0 -1.125 0.34375q-0.53125 0.328125 -1.015625 1.140625l0 3.03125l-0.859375 0zm8.206314 0l0 -4.46875l-2.421875 0l0 -0.703125l3.28125 0l0 5.171875l-0.859375 0zm0.828125 -6.265625q-0.296875 0 -0.5 -0.18749237q-0.203125 -0.1875 -0.203125 -0.5q0 -0.296875 0.203125 -0.484375q0.203125 -0.1875 0.5 -0.1875q0.296875 0 0.5 0.1875q0.203125 0.1875 0.203125 0.484375q0 0.3125 -0.203125 0.5q-0.203125 0.18749237 -0.5 0.18749237zm5.081314 6.390625q-0.515625 0 -0.921875 -0.171875q-0.40625 -0.1875 -0.71875 -0.53125q-0.296875 -0.34375 -0.453125 -0.84375q-0.15625 -0.5 -0.15625 -1.15625q0 -0.625 0.1875 -1.125q0.203125 -0.515625 0.53125 -0.859375q0.328125 -0.359375 0.75 -0.546875q0.421875 -0.203125 0.890625 -0.203125q0.46875 0 0.828125 0.1875q0.375 0.171875 0.71875 0.484375l0.03125 0l-0.046875 -0.953125l0 -1.9999924l0.875 0l0 7.5937424l-0.734375 0l-0.0625 -0.6875l-0.03125 0q-0.328125 0.328125 -0.765625 0.578125q-0.4375 0.234375 -0.921875 0.234375zm0.171875 -0.734375q0.78125 0 1.46875 -0.78125l0 -2.578125q-0.359375 -0.328125 -0.703125 -0.46875q-0.328125 -0.140625 -0.65625 -0.140625q-0.34375 0 -0.640625 0.15625q-0.296875 0.140625 -0.515625 0.40625q-0.21875 0.25 -0.34375 0.625q-0.125 0.359375 -0.125 0.796875q0 0.9375 0.390625 1.46875q0.40625 0.515625 1.125 0.515625z" fill-rule="nonzero"/></g></svg>