<svg version="1.1" viewBox="0.0 0.0 542.3622047244095 388.15748031496065" fill="none" stroke="none" stroke-linecap="square" stroke-miterlimit="10" xmlns:xlink="http://www.w3.org/1999/xlink" xmlns="http://www.w3.org/2000/svg"><clipPath id="p.0"><path d="m0 0l542.3622 0l0 388.15747l-542.3622 0l0 -388.15747z" clip-rule="nonzero"/></clipPath><g clip-path="url(#p.0)"><path fill="#000000" fill-opacity="0.0" d="m0 0l542.3622 0l0 388.15747l-542.3622 0z" fill-rule="evenodd"/><path fill="#000000" fill-opacity="0.0" d="m181.92505 0l22.929138 0l0 22.929134l-22.929138 0z" fill-rule="evenodd"/><path stroke="#f3f3f3" stroke-width="1.0" stroke-linejoin="round" stroke-linecap="butt" d="m181.92505 0l22.929138 0l0 22.929134l-22.929138 0z" fill-rule="evenodd"/><path fill="#000000" fill-opacity="0.0" d="m181.92505 22.906288l22.929138 0l0 22.929134l-22.929138 0z" fill-rule="evenodd"/><path stroke="#f3f3f3" stroke-width="1.0" stroke-linejoin="round" stroke-linecap="butt" d="m181.92505 22.906288l22.929138 0l0 22.929134l-22.929138 0z" fill-rule="evenodd"/><path fill="#000000" fill-opacity="0.0" d="m181.92505 45.812576l22.929138 0l0 22.92913l-22.929138 0z" fill-rule="evenodd"/><path stroke="#f3f3f3" stroke-width="1.0" stroke-linejoin="round" stroke-linecap="butt" d="m181.92505 45.812576l22.929138 0l0 22.92913l-22.929138 0z" fill-rule="evenodd"/><path fill="#000000" fill-opacity="0.0" d="m181.92505 68.718864l22.929138 0l0 22.92913l-22.929138 0z" fill-rule="evenodd"/><path stroke="#f3f3f3" stroke-width="1.0" stroke-linejoin="round" stroke-linecap="butt" d="m181.92505 68.718864l22.929138 0l0 22.92913l-22.929138 0z" fill-rule="evenodd"/><path fill="#000000" fill-opacity="0.0" d="m181.92505 91.62515l22.929138 0l0 22.92913l-22.929138 0z" fill-rule="evenodd"/><path stroke="#f3f3f3" stroke-width="1.0" stroke-linejoin="round" stroke-linecap="butt" d="m181.92505 91.62515l22.929138 0l0 22.92913l-22.929138 0z" fill-rule="evenodd"/><path fill="#000000" fill-opacity="0.0" d="m204.83179 0l22.929123 0l0 22.929134l-22.929123 0z" fill-rule="evenodd"/><path stroke="#f3f3f3" stroke-width="1.0" stroke-linejoin="round" stroke-linecap="butt" d="m204.83179 0l22.929123 0l0 22.929134l-22.929123 0z" fill-rule="evenodd"/><path fill="#000000" fill-opacity="0.0" d="m204.83179 22.906288l22.929123 0l0 22.929134l-22.929123 0z" fill-rule="evenodd"/><path stroke="#f3f3f3" stroke-width="1.0" stroke-linejoin="round" stroke-linecap="butt" d="m204.83179 22.906288l22.929123 0l0 22.929134l-22.929123 0z" fill-rule="evenodd"/><path fill="#000000" fill-opacity="0.0" d="m204.83179 45.812576l22.929123 0l0 22.92913l-22.929123 0z" fill-rule="evenodd"/><path stroke="#f3f3f3" stroke-width="1.0" stroke-linejoin="round" stroke-linecap="butt" d="m204.83179 45.812576l22.929123 0l0 22.92913l-22.929123 0z" fill-rule="evenodd"/><path fill="#000000" fill-opacity="0.0" d="m204.83179 68.718864l22.929123 0l0 22.92913l-22.929123 0z" fill-rule="evenodd"/><path stroke="#f3f3f3" stroke-width="1.0" stroke-linejoin="round" stroke-linecap="butt" d="m204.83179 68.718864l22.929123 0l0 22.92913l-22.929123 0z" fill-rule="evenodd"/><path fill="#000000" fill-opacity="0.0" d="m204.83179 91.62515l22.929123 0l0 22.92913l-22.929123 0z" fill-rule="evenodd"/><path stroke="#f3f3f3" stroke-width="1.0" stroke-linejoin="round" stroke-linecap="butt" d="m204.83179 91.62515l22.929123 0l0 22.92913l-22.929123 0z" fill-rule="evenodd"/><path fill="#000000" fill-opacity="0.0" d="m227.73851 0l22.929138 0l0 22.929134l-22.929138 0z" fill-rule="evenodd"/><path stroke="#f3f3f3" stroke-width="1.0" stroke-linejoin="round" stroke-linecap="butt" d="m227.73851 0l22.929138 0l0 22.929134l-22.929138 0z" fill-rule="evenodd"/><path fill="#000000" fill-opacity="0.0" d="m227.73851 22.906288l22.929138 0l0 22.929134l-22.929138 0z" fill-rule="evenodd"/><path stroke="#f3f3f3" stroke-width="1.0" stroke-linejoin="round" stroke-linecap="butt" d="m227.73851 22.906288l22.929138 0l0 22.929134l-22.929138 0z" fill-rule="evenodd"/><path fill="#000000" fill-opacity="0.0" d="m227.73851 45.812576l22.929138 0l0 22.92913l-22.929138 0z" fill-rule="evenodd"/><path stroke="#f3f3f3" stroke-width="1.0" stroke-linejoin="round" stroke-linecap="butt" d="m227.73851 45.812576l22.929138 0l0 22.92913l-22.929138 0z" fill-rule="evenodd"/><path fill="#000000" fill-opacity="0.0" d="m227.73851 68.718864l22.929138 0l0 22.92913l-22.929138 0z" fill-rule="evenodd"/><path stroke="#f3f3f3" stroke-width="1.0" stroke-linejoin="round" stroke-linecap="butt" d="m227.73851 68.718864l22.929138 0l0 22.92913l-22.929138 0z" fill-rule="evenodd"/><path fill="#000000" fill-opacity="0.0" d="m227.73851 91.62515l22.929138 0l0 22.92913l-22.929138 0z" fill-rule="evenodd"/><path stroke="#f3f3f3" stroke-width="1.0" stroke-linejoin="round" stroke-linecap="butt" d="m227.73851 91.62515l22.929138 0l0 22.92913l-22.929138 0z" fill-rule="evenodd"/><path fill="#000000" fill-opacity="0.0" d="m250.64523 0l22.929138 0l0 22.929134l-22.929138 0z" fill-rule="evenodd"/><path stroke="#f3f3f3" stroke-width="1.0" stroke-linejoin="round" stroke-linecap="butt" d="m250.64523 0l22.929138 0l0 22.929134l-22.929138 0z" fill-rule="evenodd"/><path fill="#000000" fill-opacity="0.0" d="m250.64523 22.906288l22.929138 0l0 22.929134l-22.929138 0z" fill-rule="evenodd"/><path stroke="#f3f3f3" stroke-width="1.0" stroke-linejoin="round" stroke-linecap="butt" d="m250.64523 22.906288l22.929138 0l0 22.929134l-22.929138 0z" fill-rule="evenodd"/><path fill="#000000" fill-opacity="0.0" d="m250.64523 45.812576l22.929138 0l0 22.92913l-22.929138 0z" fill-rule="evenodd"/><path stroke="#f3f3f3" stroke-width="1.0" stroke-linejoin="round" stroke-linecap="butt" d="m250.64523 45.812576l22.929138 0l0 22.92913l-22.929138 0z" fill-rule="evenodd"/><path fill="#000000" fill-opacity="0.0" d="m250.64523 68.718864l22.929138 0l0 22.92913l-22.929138 0z" fill-rule="evenodd"/><path stroke="#f3f3f3" stroke-width="1.0" stroke-linejoin="round" stroke-linecap="butt" d="m250.64523 68.718864l22.929138 0l0 22.92913l-22.929138 0z" fill-rule="evenodd"/><path fill="#000000" fill-opacity="0.0" d="m250.64523 91.62515l22.929138 0l0 22.92913l-22.929138 0z" fill-rule="evenodd"/><path stroke="#f3f3f3" stroke-width="1.0" stroke-linejoin="round" stroke-linecap="butt" d="m250.64523 91.62515l22.929138 0l0 22.92913l-22.929138 0z" fill-rule="evenodd"/><path fill="#000000" fill-opacity="0.0" d="m273.55197 0l22.929138 0l0 22.929134l-22.929138 0z" fill-rule="evenodd"/><path stroke="#f3f3f3" stroke-width="1.0" stroke-linejoin="round" stroke-linecap="butt" d="m273.55197 0l22.929138 0l0 22.929134l-22.929138 0z" fill-rule="evenodd"/><path fill="#000000" fill-opacity="0.0" d="m273.55197 22.906288l22.929138 0l0 22.929134l-22.929138 0z" fill-rule="evenodd"/><path stroke="#f3f3f3" stroke-width="1.0" stroke-linejoin="round" stroke-linecap="butt" d="m273.55197 22.906288l22.929138 0l0 22.929134l-22.929138 0z" fill-rule="evenodd"/><path fill="#000000" fill-opacity="0.0" d="m273.55197 45.812576l22.929138 0l0 22.92913l-22.929138 0z" fill-rule="evenodd"/><path stroke="#f3f3f3" stroke-width="1.0" stroke-linejoin="round" stroke-linecap="butt" d="m273.55197 45.812576l22.929138 0l0 22.92913l-22.929138 0z" fill-rule="evenodd"/><path fill="#000000" fill-opacity="0.0" d="m273.55197 68.718864l22.929138 0l0 22.92913l-22.929138 0z" fill-rule="evenodd"/><path stroke="#f3f3f3" stroke-width="1.0" stroke-linejoin="round" stroke-linecap="butt" d="m273.55197 68.718864l22.929138 0l0 22.92913l-22.929138 0z" fill-rule="evenodd"/><path fill="#000000" fill-opacity="0.0" d="m273.55197 91.62515l22.929138 0l0 22.92913l-22.929138 0z" fill-rule="evenodd"/><path stroke="#f3f3f3" stroke-width="1.0" stroke-linejoin="round" stroke-linecap="butt" d="m273.55197 91.62515l22.929138 0l0 22.92913l-22.929138 0z" fill-rule="evenodd"/><path fill="#000000" fill-opacity="0.0" d="m13.826772 0.9299619l113.385826 0l0 113.385826l-113.385826 0z" fill-rule="evenodd"/><path stroke="#434343" stroke-width="1.0" stroke-linejoin="round" stroke-linecap="butt" d="m13.826772 0.9299619l113.385826 0l0 113.385826l-113.385826 0z" fill-rule="evenodd"/><path fill="#434343" d="m36.894775 66.16287l0 -15.75l4.46875 0q1.203125 0 2.1875 0.21875q1.0 0.21875 1.703125 0.671875q0.71875 0.453125 1.109375 1.1875q0.390625 0.734375 0.390625 1.765625q0 1.171875 -0.671875 2.125q-0.671875 0.953125 -2.078125 1.3125l0 0.09375q1.71875 0.265625 2.671875 1.203125q0.96875 0.9375 0.96875 2.5625q0 1.15625 -0.4375 2.015625q-0.421875 0.859375 -1.203125 1.4375q-0.78125 0.578125 -1.875 0.875q-1.09375 0.28125 -2.40625 0.28125l-4.828125 0zm2.0 -9.125l2.125 0q2.015625 0 2.890625 -0.640625q0.875 -0.65625 0.875 -1.96875q0 -1.296875 -0.921875 -1.8125q-0.921875 -0.515625 -2.75 -0.515625l-2.21875 0l0 4.9375zm0 7.4375l2.53125 0q2.046875 0 3.140625 -0.703125q1.109375 -0.703125 1.109375 -2.3125q0 -1.46875 -1.078125 -2.09375q-1.078125 -0.640625 -3.171875 -0.640625l-2.53125 0l0 5.75zm13.243713 1.6875l0 -15.75l1.96875 0l0 14.046875l7.796875 0l0 1.703125l-9.765625 0zm18.384338 0.28125q-1.34375 0 -2.453125 -0.5625q-1.109375 -0.5625 -1.90625 -1.609375q-0.796875 -1.0625 -1.25 -2.578125q-0.4375 -1.53125 -0.4375 -3.46875q0 -1.90625 0.4375 -3.40625q0.453125 -1.515625 1.25 -2.546875q0.796875 -1.03125 1.90625 -1.578125q1.109375 -0.5625 2.453125 -0.5625q1.3125 0 2.421875 0.5625q1.125 0.546875 1.921875 1.578125q0.8125 1.03125 1.25 2.546875q0.453125 1.5 0.453125 3.40625q0 1.9375 -0.453125 3.46875q-0.4375 1.515625 -1.25 2.578125q-0.796875 1.046875 -1.921875 1.609375q-1.109375 0.5625 -2.421875 0.5625zm0 -1.75q0.890625 0 1.625 -0.4375q0.75 -0.453125 1.265625 -1.28125q0.515625 -0.84375 0.796875 -2.046875q0.296875 -1.203125 0.296875 -2.703125q0 -1.5 -0.296875 -2.671875q-0.28125 -1.171875 -0.796875 -1.984375q-0.515625 -0.828125 -1.265625 -1.25q-0.734375 -0.4375 -1.625 -0.4375q-0.921875 0 -1.65625 0.4375q-0.71875 0.421875 -1.234375 1.25q-0.515625 0.8125 -0.8125 1.984375q-0.28125 1.171875 -0.28125 2.671875q0 1.5 0.28125 2.703125q0.296875 1.203125 0.8125 2.046875q0.515625 0.828125 1.234375 1.28125q0.734375 0.4375 1.65625 0.4375zm15.618721 1.75q-1.46875 0 -2.71875 -0.546875q-1.234375 -0.546875 -2.171875 -1.59375q-0.921875 -1.046875 -1.453125 -2.5625q-0.515625 -1.53125 -0.515625 -3.453125q0 -1.890625 0.515625 -3.40625q0.53125 -1.515625 1.46875 -2.5625q0.9375 -1.0625 2.234375 -1.625q1.296875 -0.5625 2.828125 -0.5625q1.421875 0 2.515625 0.578125q1.09375 0.578125 1.78125 1.34375l-1.125 1.265625q-0.625 -0.640625 -1.390625 -1.03125q-0.765625 -0.40625 -1.78125 -0.40625q-1.125 0 -2.046875 0.453125q-0.921875 0.4375 -1.578125 1.265625q-0.640625 0.828125 -1.0 2.0q-0.359375 1.171875 -0.359375 2.640625q0 1.484375 0.359375 2.671875q0.359375 1.1875 1.0 2.03125q0.65625 0.84375 1.578125 1.296875q0.921875 0.453125 2.046875 0.453125q1.09375 0 1.9375 -0.453125q0.859375 -0.453125 1.625 -1.296875l1.125 1.234375q-0.9375 1.078125 -2.109375 1.671875q-1.171875 0.59375 -2.765625 0.59375zm8.337463 -0.28125l0 -15.75l2.015625 0l0 7.90625l0.0625 0l6.625 -7.90625l2.28125 0l-4.984375 5.984375l5.5625 9.765625l-2.265625 0l-4.578125 -8.25l-2.703125 3.234375l0 5.015625l-2.015625 0z" fill-rule="nonzero"/><path fill="#000000" fill-opacity="0.0" d="m8.755905 114.314964l123.52756 0l0 47.71653l-123.52756 0z" fill-rule="evenodd"/><path fill="#434343" d="m18.818405 133.55496l0 -6.984375l1.96875 0q0.53125 0 0.96875 0.09375q0.453125 0.09375 0.765625 0.296875q0.3125 0.203125 0.484375 0.53125q0.1875 0.3125 0.1875 0.78125q0 0.515625 -0.296875 0.9375q-0.296875 0.421875 -0.9375 0.578125l0 0.046875q0.765625 0.109375 1.1875 0.53125q0.4375 0.421875 0.4375 1.140625q0 0.515625 -0.1875 0.90625q-0.1875 0.375 -0.546875 0.640625q-0.34375 0.25 -0.828125 0.375q-0.484375 0.125 -1.0625 0.125l-2.140625 0zm0.875 -4.046875l0.953125 0q0.890625 0 1.28125 -0.28125q0.390625 -0.296875 0.390625 -0.890625q0 -0.5625 -0.421875 -0.796875q-0.40625 -0.234375 -1.203125 -0.234375l-1.0 0l0 2.203125zm0 3.296875l1.125 0q0.90625 0 1.390625 -0.3125q0.5 -0.3125 0.5 -1.03125q0 -0.640625 -0.484375 -0.921875q-0.46875 -0.28125 -1.40625 -0.28125l-1.125 0l0 2.546875zm7.081314 0.875q-0.359375 0 -0.6875 -0.109375q-0.3125 -0.09375 -0.5625 -0.28125q-0.234375 -0.1875 -0.375 -0.453125q-0.140625 -0.265625 -0.140625 -0.625q0 -0.4375 0.203125 -0.75q0.21875 -0.328125 0.671875 -0.5625q0.453125 -0.25 1.15625 -0.390625q0.71875 -0.15625 1.71875 -0.234375q0 -0.265625 -0.078125 -0.5q-0.078125 -0.234375 -0.234375 -0.40625q-0.15625 -0.1875 -0.421875 -0.28125q-0.265625 -0.109375 -0.640625 -0.109375q-0.5 0 -0.96875 0.203125q-0.46875 0.1875 -0.84375 0.40625l-0.328125 -0.59375q0.1875 -0.125 0.4375 -0.25q0.265625 -0.140625 0.5625 -0.25q0.296875 -0.109375 0.625 -0.171875q0.328125 -0.078125 0.671875 -0.078125q1.0625 0 1.578125 0.59375q0.515625 0.578125 0.515625 1.546875l0 3.171875l-0.703125 0l-0.078125 -0.703125l-0.03125 0q-0.4375 0.34375 -0.96875 0.59375q-0.53125 0.234375 -1.078125 0.234375zm0.234375 -0.703125q0.4375 0 0.875 -0.1875q0.4375 -0.203125 0.875 -0.578125l0 -1.359375q-0.828125 0.0625 -1.390625 0.1875q-0.546875 0.109375 -0.890625 0.28125q-0.328125 0.15625 -0.46875 0.375q-0.140625 0.203125 -0.140625 0.453125q0 0.21875 0.09375 0.375q0.09375 0.15625 0.25 0.265625q0.15625 0.09375 0.359375 0.140625q0.203125 0.046875 0.4375 0.046875zm6.831314 0.703125q-0.765625 0 -1.421875 -0.234375q-0.640625 -0.25 -1.125 -0.578125l0.40625 -0.5625q0.453125 0.3125 0.984375 0.515625q0.546875 0.1875 1.265625 0.1875q0.671875 0 0.984375 -0.234375q0.328125 -0.25 0.328125 -0.578125q0 -0.15625 -0.0625 -0.28125q-0.046875 -0.125 -0.21875 -0.234375q-0.171875 -0.125 -0.5 -0.234375q-0.3125 -0.109375 -0.84375 -0.21875q-1.0 -0.203125 -1.515625 -0.5625q-0.5 -0.359375 -0.5 -0.953125q0 -0.296875 0.140625 -0.5625q0.140625 -0.28125 0.40625 -0.46875q0.265625 -0.203125 0.671875 -0.3125q0.40625 -0.125 0.9375 -0.125q0.59375 0 1.140625 0.203125q0.5625 0.203125 0.9375 0.46875l-0.421875 0.5625q-0.359375 -0.25 -0.796875 -0.390625q-0.4375 -0.15625 -0.9375 -0.15625q-0.65625 0 -0.9375 0.234375q-0.265625 0.21875 -0.265625 0.515625q0 0.34375 0.359375 0.515625q0.359375 0.171875 1.15625 0.34375q0.640625 0.140625 1.046875 0.296875q0.421875 0.15625 0.65625 0.34375q0.25 0.1875 0.34375 0.421875q0.09375 0.234375 0.09375 0.53125q0 0.328125 -0.15625 0.609375q-0.140625 0.265625 -0.4375 0.484375q-0.296875 0.203125 -0.734375 0.328125q-0.421875 0.125 -0.984375 0.125zm6.612564 0q-0.578125 0 -1.09375 -0.171875q-0.5 -0.1875 -0.890625 -0.53125q-0.375 -0.359375 -0.59375 -0.859375q-0.21875 -0.515625 -0.21875 -1.15625q0 -0.640625 0.21875 -1.140625q0.21875 -0.5 0.578125 -0.84375q0.375 -0.359375 0.84375 -0.546875q0.484375 -0.1875 1.015625 -0.1875q0.546875 0 0.984375 0.1875q0.453125 0.171875 0.75 0.5q0.296875 0.3125 0.453125 0.765625q0.171875 0.4375 0.171875 0.984375q0 0.140625 -0.015625 0.28125q0 0.140625 -0.03125 0.25l-4.078125 0q0.078125 0.890625 0.640625 1.328125q0.5625 0.4375 1.375 0.4375q0.46875 0 0.84375 -0.125q0.375 -0.140625 0.734375 -0.359375l0.3125 0.578125q-0.375 0.25 -0.875 0.4375q-0.5 0.171875 -1.125 0.171875zm-0.125 -4.734375q-0.328125 0 -0.625 0.109375q-0.28125 0.09375 -0.515625 0.296875q-0.234375 0.203125 -0.40625 0.5q-0.15625 0.296875 -0.21875 0.671875l3.3125 0q-0.0625 -0.796875 -0.46875 -1.1875q-0.40625 -0.390625 -1.078125 -0.390625zm12.600128 4.734375q-0.5 0 -0.9375 -0.140625q-0.4375 -0.15625 -0.765625 -0.484375q-0.3125 -0.34375 -0.484375 -0.859375q-0.171875 -0.53125 -0.171875 -1.28125l0 -4.34375l0.890625 0l0 4.359375q0 0.546875 0.109375 0.921875q0.109375 0.375 0.3125 0.609375q0.203125 0.234375 0.46875 0.34375q0.265625 0.09375 0.578125 0.09375q0.328125 0 0.59375 -0.09375q0.265625 -0.109375 0.46875 -0.34375q0.203125 -0.234375 0.3125 -0.609375q0.109375 -0.375 0.109375 -0.921875l0 -4.359375l0.859375 0l0 4.34375q0 0.75 -0.171875 1.28125q-0.171875 0.515625 -0.484375 0.859375q-0.3125 0.328125 -0.75 0.484375q-0.421875 0.140625 -0.9375 0.140625zm4.175064 -0.125l0 -5.171875l0.734375 0l0.078125 0.875l0.03125 0q0.40625 -0.4375 0.875 -0.71875q0.46875 -0.296875 1.078125 -0.296875q0.921875 0 1.359375 0.53125q0.4375 0.53125 0.4375 1.5625l0 3.21875l-0.875 0l0 -3.09375q0 -0.75 -0.28125 -1.09375q-0.28125 -0.359375 -0.921875 -0.359375q-0.234375 0 -0.4375 0.0625q-0.1875 0.046875 -0.375 0.171875q-0.1875 0.109375 -0.390625 0.296875q-0.203125 0.171875 -0.4375 0.40625l0 3.609375l-0.875 0zm8.784439 0l0 -4.46875l-2.421875 0l0 -0.703125l3.28125 0l0 5.171875l-0.859375 0zm0.828125 -6.265625q-0.296875 0 -0.5 -0.1875q-0.203125 -0.1875 -0.203125 -0.5q0 -0.296875 0.203125 -0.484375q0.203125 -0.1875 0.5 -0.1875q0.296875 0 0.5 0.1875q0.203125 0.1875 0.203125 0.484375q0 0.3125 -0.203125 0.5q-0.203125 0.1875 -0.5 0.1875zm6.393814 6.390625q-0.5625 0 -0.953125 -0.15625q-0.390625 -0.15625 -0.625 -0.4375q-0.234375 -0.28125 -0.34375 -0.671875q-0.09375 -0.390625 -0.09375 -0.875l0 -2.453125l-1.453125 0l0 -0.65625l1.5 -0.046875l0.109375 -1.671875l0.71875 0l0 1.671875l2.546875 0l0 0.703125l-2.546875 0l0 2.46875q0 0.34375 0.0625 0.609375q0.078125 0.265625 0.21875 0.453125q0.15625 0.171875 0.40625 0.265625q0.25 0.078125 0.625 0.078125q0.375 0 0.671875 -0.0625q0.296875 -0.0625 0.578125 -0.171875l0.1875 0.640625q-0.34375 0.140625 -0.734375 0.21875q-0.390625 0.09375 -0.875 0.09375zm5.393814 -4.0q-0.375 0 -0.625 -0.234375q-0.25 -0.25 -0.25 -0.65625q0 -0.40625 0.25 -0.65625q0.25 -0.25 0.625 -0.25q0.359375 0 0.609375 0.25q0.25 0.25 0.25 0.65625q0 0.40625 -0.25 0.65625q-0.25 0.234375 -0.609375 0.234375zm0 4.0q-0.375 0 -0.625 -0.234375q-0.25 -0.25 -0.25 -0.65625q0 -0.40625 0.25 -0.65625q0.25 -0.25 0.625 -0.25q0.359375 0 0.609375 0.25q0.25 0.25 0.25 0.65625q0 0.40625 -0.25 0.65625q-0.25 0.234375 -0.609375 0.234375zm4.253189 -0.125l0 -6.984375l1.96875 0q0.53125 0 0.96875 0.09375q0.453125 0.09375 0.765625 0.296875q0.3125 0.203125 0.484375 0.53125q0.1875 0.3125 0.1875 0.78125q0 0.515625 -0.296875 0.9375q-0.296875 0.421875 -0.9375 0.578125l0 0.046875q0.765625 0.109375 1.1875 0.53125q0.4375 0.421875 0.4375 1.140625q0 0.515625 -0.1875 0.90625q-0.1875 0.375 -0.546875 0.640625q-0.34375 0.25 -0.828125 0.375q-0.484375 0.125 -1.0625 0.125l-2.140625 0zm0.875 -4.046875l0.953125 0q0.890625 0 1.28125 -0.28125q0.390625 -0.296875 0.390625 -0.890625q0 -0.5625 -0.421875 -0.796875q-0.40625 -0.234375 -1.203125 -0.234375l-1.0 0l0 2.203125zm0 3.296875l1.125 0q0.90625 0 1.390625 -0.3125q0.5 -0.3125 0.5 -1.03125q0 -0.640625 -0.484375 -0.921875q-0.46875 -0.28125 -1.40625 -0.28125l-1.125 0l0 2.546875zm8.800064 0.875q-0.84375 0 -1.28125 -0.46875q-0.4375 -0.46875 -0.4375 -1.390625l0 -5.140625l-1.84375 0l0 -0.71875l2.71875 0l0 5.921875q0 0.578125 0.28125 0.828125q0.28125 0.25 0.75 0.25q0.453125 0 0.96875 -0.234375l0.21875 0.640625q-0.359375 0.15625 -0.65625 0.234375q-0.296875 0.078125 -0.71875 0.078125zm5.253189 0q-0.515625 0 -0.984375 -0.171875q-0.453125 -0.1875 -0.8125 -0.53125q-0.34375 -0.34375 -0.5625 -0.84375q-0.203125 -0.515625 -0.203125 -1.15625q0 -0.65625 0.203125 -1.15625q0.21875 -0.5 0.5625 -0.84375q0.359375 -0.359375 0.8125 -0.546875q0.46875 -0.1875 0.984375 -0.1875q0.5 0 0.96875 0.1875q0.46875 0.1875 0.8125 0.546875q0.359375 0.34375 0.5625 0.84375q0.203125 0.5 0.203125 1.15625q0 0.640625 -0.203125 1.15625q-0.203125 0.5 -0.5625 0.84375q-0.34375 0.34375 -0.8125 0.53125q-0.46875 0.171875 -0.96875 0.171875zm0 -0.71875q0.359375 0 0.65625 -0.140625q0.3125 -0.15625 0.53125 -0.40625q0.21875 -0.265625 0.328125 -0.625q0.125 -0.359375 0.125 -0.8125q0 -0.453125 -0.125 -0.8125q-0.109375 -0.375 -0.328125 -0.640625q-0.21875 -0.265625 -0.53125 -0.40625q-0.296875 -0.140625 -0.65625 -0.140625q-0.375 0 -0.6875 0.140625q-0.296875 0.140625 -0.515625 0.40625q-0.21875 0.265625 -0.34375 0.640625q-0.109375 0.359375 -0.109375 0.8125q0 0.453125 0.109375 0.8125q0.125 0.359375 0.34375 0.625q0.21875 0.25 0.515625 0.40625q0.3125 0.140625 0.6875 0.140625zm6.878189 0.71875q-0.609375 0 -1.125 -0.171875q-0.515625 -0.1875 -0.90625 -0.53125q-0.375 -0.34375 -0.59375 -0.84375q-0.203125 -0.515625 -0.203125 -1.15625q0 -0.65625 0.21875 -1.15625q0.234375 -0.5 0.625 -0.84375q0.390625 -0.359375 0.921875 -0.546875q0.53125 -0.1875 1.109375 -0.1875q0.640625 0 1.109375 0.234375q0.46875 0.21875 0.78125 0.53125l-0.4375 0.5625q-0.3125 -0.28125 -0.671875 -0.4375q-0.34375 -0.15625 -0.75 -0.15625q-0.4375 0 -0.8125 0.140625q-0.375 0.140625 -0.640625 0.40625q-0.25 0.265625 -0.40625 0.640625q-0.140625 0.359375 -0.140625 0.8125q0 0.453125 0.140625 0.8125q0.140625 0.359375 0.390625 0.625q0.265625 0.25 0.625 0.40625q0.375 0.140625 0.828125 0.140625q0.484375 0 0.875 -0.1875q0.40625 -0.1875 0.71875 -0.46875l0.40625 0.5625q-0.4375 0.390625 -0.96875 0.609375q-0.515625 0.203125 -1.09375 0.203125zm3.831314 -0.125l0 -7.59375l0.875 0l0 5.140625l0.046875 0l2.796875 -2.71875l1.0 0l-2.078125 2.03125l2.34375 3.140625l-0.96875 0l-1.90625 -2.609375l-1.234375 1.203125l0 1.40625l-0.875 0z" fill-rule="nonzero"/><path fill="#000000" fill-opacity="0.0" d="m302.3622 195.59055l18.897644 0l0 18.897644l-18.897644 0z" fill-rule="evenodd"/><path stroke="#f3f3f3" stroke-width="1.0" stroke-linejoin="round" stroke-linecap="butt" d="m302.3622 195.59055l18.897644 0l0 18.897644l-18.897644 0z" fill-rule="evenodd"/><path fill="#000000" fill-opacity="0.0" d="m340.15747 195.59055l18.897644 0l0 18.897644l-18.897644 0z" fill-rule="evenodd"/><path stroke="#f3f3f3" stroke-width="1.0" stroke-linejoin="round" stroke-linecap="butt" d="m340.15747 195.59055l18.897644 0l0 18.897644l-18.897644 0z" fill-rule="evenodd"/><path fill="#000000" fill-opacity="0.0" d="m170.07874 195.59055l18.897644 0l0 18.897644l-18.897644 0z" fill-rule="evenodd"/><path stroke="#f3f3f3" stroke-width="1.0" stroke-linejoin="round" stroke-linecap="butt" d="m170.07874 195.59055l18.897644 0l0 18.897644l-18.897644 0z" fill-rule="evenodd"/><path fill="#000000" fill-opacity="0.0" d="m188.97638 195.59055l18.897629 0l0 18.897644l-18.897629 0z" fill-rule="evenodd"/><path stroke="#f3f3f3" stroke-width="1.0" stroke-linejoin="round" stroke-linecap="butt" d="m188.97638 195.59055l18.897629 0l0 18.897644l-18.897629 0z" fill-rule="evenodd"/><path fill="#000000" fill-opacity="0.0" d="m245.6693 195.59055l18.897629 0l0 18.897644l-18.897629 0z" fill-rule="evenodd"/><path stroke="#f3f3f3" stroke-width="1.0" stroke-linejoin="round" stroke-linecap="butt" d="m245.6693 195.59055l18.897629 0l0 18.897644l-18.897629 0z" fill-rule="evenodd"/><path fill="#000000" fill-opacity="0.0" d="m264.56693 195.59055l18.897644 0l0 18.897644l-18.897644 0z" fill-rule="evenodd"/><path stroke="#f3f3f3" stroke-width="1.0" stroke-linejoin="round" stroke-linecap="butt" d="m264.56693 195.59055l18.897644 0l0 18.897644l-18.897644 0z" fill-rule="evenodd"/><path fill="#000000" fill-opacity="0.0" d="m283.46457 195.59055l18.897644 0l0 18.897644l-18.897644 0z" fill-rule="evenodd"/><path stroke="#f3f3f3" stroke-width="1.0" stroke-linejoin="round" stroke-linecap="butt" d="m283.46457 195.59055l18.897644 0l0 18.897644l-18.897644 0z" fill-rule="evenodd"/><path fill="#000000" fill-opacity="0.0" d="m75.59055 195.59055l18.897636 0l0 18.897644l-18.897636 0z" fill-rule="evenodd"/><path stroke="#f3f3f3" stroke-width="1.0" stroke-linejoin="round" stroke-linecap="butt" d="m75.59055 195.59055l18.897636 0l0 18.897644l-18.897636 0z" fill-rule="evenodd"/><path fill="#000000" fill-opacity="0.0" d="m94.48819 195.59055l18.897636 0l0 18.897644l-18.897636 0z" fill-rule="evenodd"/><path stroke="#f3f3f3" stroke-width="1.0" stroke-linejoin="round" stroke-linecap="butt" d="m94.48819 195.59055l18.897636 0l0 18.897644l-18.897636 0z" fill-rule="evenodd"/><path fill="#000000" fill-opacity="0.0" d="m151.1811 195.59055l18.897629 0l0 18.897644l-18.897629 0z" fill-rule="evenodd"/><path stroke="#f3f3f3" stroke-width="1.0" stroke-linejoin="round" stroke-linecap="butt" d="m151.1811 195.59055l18.897629 0l0 18.897644l-18.897629 0z" fill-rule="evenodd"/><path fill="#000000" fill-opacity="0.0" d="m359.0551 195.59055l18.897644 0l0 18.897644l-18.897644 0z" fill-rule="evenodd"/><path stroke="#f3f3f3" stroke-width="1.0" stroke-linejoin="round" stroke-linecap="butt" d="m359.0551 195.59055l18.897644 0l0 18.897644l-18.897644 0z" fill-rule="evenodd"/><path fill="#000000" fill-opacity="0.0" d="m377.95276 195.59055l18.897644 0l0 18.897644l-18.897644 0z" fill-rule="evenodd"/><path stroke="#f3f3f3" stroke-width="1.0" stroke-linejoin="round" stroke-linecap="butt" d="m377.95276 195.59055l18.897644 0l0 18.897644l-18.897644 0z" fill-rule="evenodd"/><path fill="#000000" fill-opacity="0.0" d="m396.8504 195.59055l18.897614 0l0 18.897644l-18.897614 0z" fill-rule="evenodd"/><path stroke="#f3f3f3" stroke-width="1.0" stroke-linejoin="round" stroke-linecap="butt" d="m396.8504 195.59055l18.897614 0l0 18.897644l-18.897614 0z" fill-rule="evenodd"/><path fill="#000000" fill-opacity="0.0" d="m113.385826 195.59055l18.897636 0l0 18.897644l-18.897636 0z" fill-rule="evenodd"/><path stroke="#f3f3f3" stroke-width="1.0" stroke-linejoin="round" stroke-linecap="butt" d="m113.385826 195.59055l18.897636 0l0 18.897644l-18.897636 0z" fill-rule="evenodd"/><path fill="#000000" fill-opacity="0.0" d="m207.87401 195.59055l18.897644 0l0 18.897644l-18.897644 0z" fill-rule="evenodd"/><path stroke="#f3f3f3" stroke-width="1.0" stroke-linejoin="round" stroke-linecap="butt" d="m207.87401 195.59055l18.897644 0l0 18.897644l-18.897644 0z" fill-rule="evenodd"/><path fill="#000000" fill-opacity="0.0" d="m321.25986 195.59055l18.897614 0l0 18.897644l-18.897614 0z" fill-rule="evenodd"/><path stroke="#d9d9d9" stroke-width="1.0" stroke-linejoin="round" stroke-linecap="butt" d="m321.25986 195.59055l18.897614 0l0 18.897644l-18.897614 0z" fill-rule="evenodd"/><path fill="#efefef" d="m328.59512 208.77937l-1.46875 0l0 -5.8125l-1.90625 0.6875l0 -1.265625l3.296875 -1.1875l0.078125 0l0 7.578125zm2.9260254 -3.734375l0.421875 -3.84375l4.203125 0l0 1.234375l-3.0 0l-0.1875 1.65625q0.15625 -0.09375 0.453125 -0.1875q0.296875 -0.09375 0.6875 -0.09375q0.546875 0 0.96875 0.171875q0.4375 0.171875 0.71875 0.5q0.296875 0.328125 0.453125 0.8125q0.15625 0.46875 0.15625 1.0625q0 0.5 -0.15625 0.96875q-0.140625 0.453125 -0.453125 0.8125q-0.3125 0.34375 -0.796875 0.546875q-0.46875 0.203125 -1.109375 0.203125q-0.484375 0 -0.9375 -0.140625q-0.453125 -0.15625 -0.8125 -0.4375q-0.359375 -0.28125 -0.578125 -0.6875q-0.21875 -0.40625 -0.234375 -0.9375l1.421875 0q0.0625 0.5 0.359375 0.765625q0.296875 0.265625 0.78125 0.265625q0.28125 0 0.484375 -0.109375q0.21875 -0.109375 0.34375 -0.296875q0.125 -0.1875 0.1875 -0.453125q0.0625 -0.265625 0.0625 -0.578125q0 -0.296875 -0.078125 -0.546875q-0.078125 -0.25 -0.234375 -0.4375q-0.15625 -0.1875 -0.390625 -0.28125q-0.234375 -0.09375 -0.546875 -0.09375q-0.21875 0 -0.375 0.03125q-0.15625 0.03125 -0.28125 0.09375q-0.109375 0.0625 -0.203125 0.140625q-0.09375 0.0625 -0.171875 0.15625l-1.15625 -0.296875z" fill-rule="nonzero"/><path fill="#000000" fill-opacity="0.0" d="m226.77165 195.59055l18.897644 0l0 18.897644l-18.897644 0z" fill-rule="evenodd"/><path stroke="#d9d9d9" stroke-width="1.0" stroke-linejoin="round" stroke-linecap="butt" d="m226.77165 195.59055l18.897644 0l0 18.897644l-18.897644 0z" fill-rule="evenodd"/><path fill="#d9d9d9" d="m234.10693 208.77937l-1.46875 0l0 -5.8125l-1.90625 0.6875l0 -1.265625l3.296875 -1.1875l0.078125 0l0 7.578125zm7.7854156 -2.875q0 0.71875 -0.171875 1.28125q-0.171875 0.5625 -0.5 0.9375q-0.3125 0.375 -0.765625 0.578125q-0.453125 0.1875 -1.03125 0.1875q-0.5625 0 -1.03125 -0.1875q-0.453125 -0.203125 -0.78125 -0.578125q-0.3125 -0.375 -0.484375 -0.9375q-0.171875 -0.5625 -0.171875 -1.28125l0 -1.8125q0 -0.734375 0.171875 -1.296875q0.171875 -0.5625 0.484375 -0.9375q0.328125 -0.375 0.78125 -0.5625q0.453125 -0.203125 1.015625 -0.203125q0.578125 0 1.03125 0.203125q0.46875 0.1875 0.78125 0.5625q0.328125 0.375 0.5 0.9375q0.171875 0.5625 0.171875 1.296875l0 1.8125zm-3.484375 -0.625l2.015625 -1.515625q-0.015625 -0.765625 -0.265625 -1.125q-0.25 -0.375 -0.75 -0.375q-0.5 0 -0.75 0.390625q-0.25 0.390625 -0.25 1.203125l0 1.421875zm2.015625 -0.53125l-2.015625 1.5q0.03125 0.75 0.28125 1.109375q0.25 0.359375 0.734375 0.359375q0.515625 0 0.75 -0.390625q0.25 -0.390625 0.25 -1.21875l0 -1.359375z" fill-rule="nonzero"/><path fill="#000000" fill-opacity="0.0" d="m132.28346 195.59055l18.897644 0l0 18.897644l-18.897644 0z" fill-rule="evenodd"/><path stroke="#d9d9d9" stroke-width="1.0" stroke-linejoin="round" stroke-linecap="butt" d="m132.28346 195.59055l18.897644 0l0 18.897644l-18.897644 0z" fill-rule="evenodd"/><path fill="#efefef" d="m139.34738 205.045l0.421875 -3.84375l4.203125 0l0 1.234375l-3.0 0l-0.1875 1.65625q0.15625 -0.09375 0.453125 -0.1875q0.296875 -0.09375 0.6875 -0.09375q0.546875 0 0.96875 0.171875q0.4375 0.171875 0.71875 0.5q0.296875 0.328125 0.453125 0.8125q0.15625 0.46875 0.15625 1.0625q0 0.5 -0.15625 0.96875q-0.140625 0.453125 -0.453125 0.8125q-0.3125 0.34375 -0.796875 0.546875q-0.46875 0.203125 -1.109375 0.203125q-0.484375 0 -0.9375 -0.140625q-0.453125 -0.15625 -0.8125 -0.4375q-0.359375 -0.28125 -0.578125 -0.6875q-0.21875 -0.40625 -0.234375 -0.9375l1.421875 0q0.0625 0.5 0.359375 0.765625q0.296875 0.265625 0.78125 0.265625q0.28125 0 0.484375 -0.109375q0.21875 -0.109375 0.34375 -0.296875q0.125 -0.1875 0.1875 -0.453125q0.0625 -0.265625 0.0625 -0.578125q0 -0.296875 -0.078125 -0.546875q-0.078125 -0.25 -0.234375 -0.4375q-0.15625 -0.1875 -0.390625 -0.28125q-0.234375 -0.09375 -0.546875 -0.09375q-0.21875 0 -0.375 0.03125q-0.15625 0.03125 -0.28125 0.09375q-0.109375 0.0625 -0.203125 0.140625q-0.09375 0.0625 -0.171875 0.15625l-1.15625 -0.296875z" fill-rule="nonzero"/><path fill="#000000" fill-opacity="0.0" d="m415.74802 195.59055l18.897644 0l0 18.897644l-18.897644 0z" fill-rule="evenodd"/><path stroke="#d9d9d9" stroke-width="1.0" stroke-linejoin="round" stroke-linecap="butt" d="m415.74802 195.59055l18.897644 0l0 18.897644l-18.897644 0z" fill-rule="evenodd"/><path fill="#d9d9d9" d="m424.48956 208.77937l-5.171875 0l0 -0.984375l2.453125 -2.640625q0.28125 -0.3125 0.484375 -0.5625q0.203125 -0.25 0.3125 -0.453125q0.125 -0.21875 0.171875 -0.40625q0.0625 -0.1875 0.0625 -0.359375q0 -0.25 -0.078125 -0.4375q-0.0625 -0.203125 -0.203125 -0.34375q-0.125 -0.140625 -0.3125 -0.203125q-0.1875 -0.078125 -0.40625 -0.078125q-0.59375 0 -0.890625 0.328125q-0.296875 0.328125 -0.296875 0.9375l-1.453125 0q0 -0.515625 0.1875 -0.953125q0.203125 -0.453125 0.546875 -0.796875q0.359375 -0.34375 0.859375 -0.53125q0.5 -0.203125 1.09375 -0.203125q0.578125 0 1.015625 0.171875q0.453125 0.15625 0.75 0.453125q0.296875 0.28125 0.453125 0.703125q0.15625 0.40625 0.15625 0.890625q0 0.375 -0.125 0.71875q-0.109375 0.34375 -0.328125 0.6875q-0.203125 0.328125 -0.515625 0.671875q-0.296875 0.34375 -0.671875 0.71875l-1.421875 1.515625l3.328125 0l0 1.15625zm6.3791504 -2.875q0 0.71875 -0.171875 1.28125q-0.171875 0.5625 -0.5 0.9375q-0.3125 0.375 -0.765625 0.578125q-0.453125 0.1875 -1.03125 0.1875q-0.5625 0 -1.03125 -0.1875q-0.453125 -0.203125 -0.78125 -0.578125q-0.3125 -0.375 -0.484375 -0.9375q-0.171875 -0.5625 -0.171875 -1.28125l0 -1.8125q0 -0.734375 0.171875 -1.296875q0.171875 -0.5625 0.484375 -0.9375q0.328125 -0.375 0.78125 -0.5625q0.453125 -0.203125 1.015625 -0.203125q0.578125 0 1.03125 0.203125q0.46875 0.1875 0.78125 0.5625q0.328125 0.375 0.5 0.9375q0.171875 0.5625 0.171875 1.296875l0 1.8125zm-3.484375 -0.625l2.015625 -1.515625q-0.015625 -0.765625 -0.265625 -1.125q-0.25 -0.375 -0.75 -0.375q-0.5 0 -0.75 0.390625q-0.25 0.390625 -0.25 1.203125l0 1.421875zm2.015625 -0.53125l-2.015625 1.5q0.03125 0.75 0.28125 1.109375q0.25 0.359375 0.734375 0.359375q0.515625 0 0.75 -0.390625q0.25 -0.390625 0.25 -1.21875l0 -1.359375z" fill-rule="nonzero"/><path fill="#000000" fill-opacity="0.0" d="m56.692913 195.59055l18.89764 0l0 18.897644l-18.89764 0z" fill-rule="evenodd"/><path stroke="#d9d9d9" stroke-width="1.0" stroke-linejoin="round" stroke-linecap="butt" d="m56.692913 195.59055l18.89764 0l0 18.897644l-18.89764 0z" fill-rule="evenodd"/><path fill="#d9d9d9" d="m67.225586 208.77937l-1.46875 0l0 -5.8125l-1.90625 0.6875l0 -1.265625l3.296875 -1.1875l0.078125 0l0 7.578125z" fill-rule="nonzero"/><path fill="#000000" fill-opacity="0.0" d="m94.48819 176.69292l37.795273 0l0 18.897629l-37.795273 0z" fill-rule="evenodd"/><path stroke="#f3f3f3" stroke-width="1.0" stroke-linejoin="round" stroke-linecap="butt" stroke-dasharray="4.0,3.0" d="m94.48819 176.69292l37.795273 0l0 18.897629l-37.795273 0z" fill-rule="evenodd"/><path fill="#000000" fill-opacity="0.0" d="m132.28346 176.69292l37.795273 0l0 18.897629l-37.795273 0z" fill-rule="evenodd"/><path stroke="#f3f3f3" stroke-width="1.0" stroke-linejoin="round" stroke-linecap="butt" stroke-dasharray="4.0,3.0" d="m132.28346 176.69292l37.795273 0l0 18.897629l-37.795273 0z" fill-rule="evenodd"/><path fill="#000000" fill-opacity="0.0" d="m170.07874 176.69292l37.795273 0l0 18.897629l-37.795273 0z" fill-rule="evenodd"/><path stroke="#f3f3f3" stroke-width="1.0" stroke-linejoin="round" stroke-linecap="butt" stroke-dasharray="4.0,3.0" d="m170.07874 176.69292l37.795273 0l0 18.897629l-37.795273 0z" fill-rule="evenodd"/><path fill="#000000" fill-opacity="0.0" d="m207.87401 176.69292l37.795288 0l0 18.897629l-37.795288 0z" fill-rule="evenodd"/><path stroke="#efefef" stroke-width="1.0" stroke-linejoin="round" stroke-linecap="butt" stroke-dasharray="4.0,3.0" d="m207.87401 176.69292l37.795288 0l0 18.897629l-37.795288 0z" fill-rule="evenodd"/><path fill="#efefef" d="m224.38676 186.14735l0.421875 -3.84375l4.203125 0l0 1.234375l-3.0 0l-0.1875 1.65625q0.15625 -0.09375 0.453125 -0.1875q0.296875 -0.09375 0.6875 -0.09375q0.546875 0 0.96875 0.171875q0.4375 0.171875 0.71875 0.5q0.296875 0.328125 0.453125 0.8125q0.15625 0.46875 0.15625 1.0625q0 0.5 -0.15625 0.96875q-0.140625 0.453125 -0.453125 0.8125q-0.3125 0.34375 -0.796875 0.546875q-0.46875 0.203125 -1.109375 0.203125q-0.484375 0 -0.9375 -0.140625q-0.453125 -0.15625 -0.8125 -0.4375q-0.359375 -0.28125 -0.578125 -0.6875q-0.21875 -0.40625 -0.234375 -0.9375l1.421875 0q0.0625 0.5 0.359375 0.765625q0.296875 0.265625 0.78125 0.265625q0.28125 0 0.484375 -0.109375q0.21875 -0.109375 0.34375 -0.296875q0.125 -0.1875 0.1875 -0.453125q0.0625 -0.265625 0.0625 -0.578125q0 -0.296875 -0.078125 -0.546875q-0.078125 -0.25 -0.234375 -0.4375q-0.15625 -0.1875 -0.390625 -0.28125q-0.234375 -0.09375 -0.546875 -0.09375q-0.21875 0 -0.375 0.03125q-0.15625 0.03125 -0.28125 0.09375q-0.109375 0.0625 -0.203125 0.140625q-0.09375 0.0625 -0.171875 0.15625l-1.15625 -0.296875z" fill-rule="nonzero"/><path fill="#000000" fill-opacity="0.0" d="m245.6693 176.69292l37.795273 0l0 18.897629l-37.795273 0z" fill-rule="evenodd"/><path stroke="#f3f3f3" stroke-width="1.0" stroke-linejoin="round" stroke-linecap="butt" stroke-dasharray="4.0,3.0" d="m245.6693 176.69292l37.795273 0l0 18.897629l-37.795273 0z" fill-rule="evenodd"/><path fill="#000000" fill-opacity="0.0" d="m283.46457 176.69292l37.795288 0l0 18.897629l-37.795288 0z" fill-rule="evenodd"/><path stroke="#f3f3f3" stroke-width="1.0" stroke-linejoin="round" stroke-linecap="butt" stroke-dasharray="4.0,3.0" d="m283.46457 176.69292l37.795288 0l0 18.897629l-37.795288 0z" fill-rule="evenodd"/><path fill="#000000" fill-opacity="0.0" d="m321.25986 176.69292l37.795258 0l0 18.897629l-37.795258 0z" fill-rule="evenodd"/><path stroke="#f3f3f3" stroke-width="1.0" stroke-linejoin="round" stroke-linecap="butt" stroke-dasharray="4.0,3.0" d="m321.25986 176.69292l37.795258 0l0 18.897629l-37.795258 0z" fill-rule="evenodd"/><path fill="#000000" fill-opacity="0.0" d="m359.0551 176.69292l37.795288 0l0 18.897629l-37.795288 0z" fill-rule="evenodd"/><path stroke="#f3f3f3" stroke-width="1.0" stroke-linejoin="round" stroke-linecap="butt" stroke-dasharray="4.0,3.0" d="m359.0551 176.69292l37.795288 0l0 18.897629l-37.795288 0z" fill-rule="evenodd"/><path fill="#000000" fill-opacity="0.0" d="m56.692913 176.69292l37.795277 0l0 18.897629l-37.795277 0z" fill-rule="evenodd"/><path stroke="#d9d9d9" stroke-width="1.0" stroke-linejoin="round" stroke-linecap="butt" stroke-dasharray="4.0,3.0" d="m56.692913 176.69292l37.795277 0l0 18.897629l-37.795277 0z" fill-rule="evenodd"/><path fill="#d9d9d9" d="m76.67441 189.88173l-1.46875 0l0 -5.8125l-1.90625 0.6875l0 -1.265625l3.296875 -1.1875l0.078125 0l0 7.578125z" fill-rule="nonzero"/><path fill="#000000" fill-opacity="0.0" d="m396.8504 176.69292l37.795258 0l0 18.897629l-37.795258 0z" fill-rule="evenodd"/><path stroke="#d9d9d9" stroke-width="1.0" stroke-linejoin="round" stroke-linecap="butt" stroke-dasharray="4.0,3.0" d="m396.8504 176.69292l37.795258 0l0 18.897629l-37.795258 0z" fill-rule="evenodd"/><path fill="#d9d9d9" d="m413.6345 189.88173l-1.46875 0l0 -5.8125l-1.90625 0.6875l0 -1.265625l3.296875 -1.1875l0.078125 0l0 7.578125zm7.785431 -2.875q0 0.71875 -0.171875 1.28125q-0.171875 0.5625 -0.5 0.9375q-0.3125 0.375 -0.765625 0.578125q-0.453125 0.1875 -1.03125 0.1875q-0.5625 0 -1.03125 -0.1875q-0.453125 -0.203125 -0.78125 -0.578125q-0.3125 -0.375 -0.484375 -0.9375q-0.171875 -0.5625 -0.171875 -1.28125l0 -1.8125q0 -0.734375 0.171875 -1.296875q0.171875 -0.5625 0.484375 -0.9375q0.328125 -0.375 0.78125 -0.5625q0.453125 -0.203125 1.015625 -0.203125q0.578125 0 1.03125 0.203125q0.46875 0.1875 0.78125 0.5625q0.328125 0.375 0.5 0.9375q0.171875 0.5625 0.171875 1.296875l0 1.8125zm-3.484375 -0.625l2.015625 -1.515625q-0.015625 -0.765625 -0.265625 -1.125q-0.25 -0.375 -0.75 -0.375q-0.5 0 -0.75 0.390625q-0.25 0.390625 -0.25 1.203125l0 1.421875zm2.015625 -0.53125l-2.015625 1.5q0.03125 0.75 0.28125 1.109375q0.25 0.359375 0.734375 0.359375q0.515625 0 0.75 -0.390625q0.25 -0.390625 0.25 -1.21875l0 -1.359375z" fill-rule="nonzero"/><path fill="#000000" fill-opacity="0.0" d="m73.0622 329.6191l58.3937 0l0 58.393707l-58.3937 0z" fill-rule="evenodd"/><path stroke="#d9d9d9" stroke-width="1.0" stroke-linejoin="round" stroke-linecap="butt" d="m73.0622 329.6191l58.3937 0l0 58.393707l-58.3937 0z" fill-rule="evenodd"/><path fill="#000000" d="m83.25133 363.61597l0 -8.6875l2.921875 0q0.671875 0 1.25 0.109375q0.59375 0.09375 1.015625 0.34375q0.421875 0.25 0.671875 0.671875q0.25 0.40625 0.25 1.03125q0 0.296875 -0.09375 0.59375q-0.078125 0.28125 -0.265625 0.546875q-0.1875 0.25 -0.46875 0.453125q-0.28125 0.1875 -0.671875 0.28125l0 0.0625q0.9375 0.171875 1.40625 0.671875q0.484375 0.484375 0.484375 1.359375q0 0.671875 -0.25 1.15625q-0.25 0.46875 -0.703125 0.78125q-0.453125 0.3125 -1.0625 0.46875q-0.609375 0.15625 -1.3125 0.15625l-3.171875 0zm1.96875 -5.203125l0.859375 0q0.71875 0 1.03125 -0.265625q0.328125 -0.28125 0.328125 -0.796875q0 -0.484375 -0.328125 -0.6875q-0.328125 -0.203125 -1.015625 -0.203125l-0.875 0l0 1.953125zm0 3.671875l1.046875 0q1.578125 0 1.578125 -1.171875q0 -0.578125 -0.390625 -0.828125q-0.375 -0.25 -1.1875 -0.25l-1.046875 0l0 2.25zm6.4655914 1.53125l0 -8.6875l1.96875 0l0 7.03125l3.859375 0l0 1.65625l-5.828125 0zm10.574966 0.15625q-0.78125 0 -1.421875 -0.28125q-0.640625 -0.296875 -1.109375 -0.875q-0.453125 -0.578125 -0.71875 -1.421875q-0.25 -0.84375 -0.25 -1.96875q0 -1.09375 0.25 -1.921875q0.265625 -0.828125 0.71875 -1.390625q0.46875 -0.578125 1.109375 -0.859375q0.640625 -0.28125 1.421875 -0.28125q0.765625 0 1.40625 0.28125q0.65625 0.28125 1.109375 0.859375q0.46875 0.5625 0.71875 1.390625q0.25 0.828125 0.25 1.921875q0 1.125 -0.25 1.96875q-0.25 0.84375 -0.71875 1.421875q-0.453125 0.578125 -1.109375 0.875q-0.640625 0.28125 -1.40625 0.28125zm0 -1.6875q0.671875 0 1.078125 -0.71875q0.40625 -0.71875 0.40625 -2.140625q0 -1.359375 -0.40625 -2.0625q-0.40625 -0.703125 -1.078125 -0.703125q-0.6875 0 -1.09375 0.703125q-0.390625 0.703125 -0.390625 2.0625q0 1.421875 0.390625 2.140625q0.40625 0.71875 1.09375 0.71875zm8.746841 1.6875q-0.8125 0 -1.546875 -0.28125q-0.71875 -0.28125 -1.28125 -0.84375q-0.546875 -0.5625 -0.875 -1.390625q-0.328125 -0.84375 -0.328125 -1.9375q0 -1.078125 0.3125 -1.921875q0.328125 -0.84375 0.890625 -1.421875q0.5625 -0.59375 1.3125 -0.890625q0.765625 -0.3125 1.625 -0.3125q0.828125 0 1.5 0.34375q0.671875 0.328125 1.109375 0.75l-1.078125 1.21875q-0.3125 -0.28125 -0.6875 -0.453125q-0.359375 -0.171875 -0.84375 -0.171875q-0.46875 0 -0.859375 0.203125q-0.375 0.1875 -0.671875 0.546875q-0.28125 0.359375 -0.4375 0.875q-0.15625 0.515625 -0.15625 1.171875q0 1.34375 0.609375 2.09375q0.609375 0.734375 1.59375 0.734375q0.46875 0 0.859375 -0.203125q0.40625 -0.21875 0.71875 -0.578125l1.078125 1.1875q-1.078125 1.28125 -2.84375 1.28125zm4.1530914 -0.15625l0 -8.6875l1.984375 0l0 3.5625l0.046875 0l2.5625 -3.5625l2.171875 0l-2.609375 3.453125l2.859375 5.234375l-2.171875 0l-1.859375 -3.6875l-1.0 1.3125l0 2.375l-1.984375 0z" fill-rule="nonzero"/><path fill="#000000" fill-opacity="0.0" d="m14.6692915 329.6191l58.393703 0l0 58.393707l-58.393703 0z" fill-rule="evenodd"/><path stroke="#d9d9d9" stroke-width="1.0" stroke-linejoin="round" stroke-linecap="butt" d="m14.6692915 329.6191l58.393703 0l0 58.393707l-58.393703 0z" fill-rule="evenodd"/><path fill="#000000" d="m24.858412 363.61597l0 -8.6875l2.921875 0q0.671875 0 1.25 0.109375q0.59375 0.09375 1.015625 0.34375q0.421875 0.25 0.671875 0.671875q0.25 0.40625 0.25 1.03125q0 0.296875 -0.09375 0.59375q-0.078125 0.28125 -0.265625 0.546875q-0.1875 0.25 -0.46875 0.453125q-0.28125 0.1875 -0.671875 0.28125l0 0.0625q0.9375 0.171875 1.40625 0.671875q0.484375 0.484375 0.484375 1.359375q0 0.671875 -0.25 1.15625q-0.25 0.46875 -0.703125 0.78125q-0.453125 0.3125 -1.0625 0.46875q-0.609375 0.15625 -1.3125 0.15625l-3.171875 0zm1.96875 -5.203125l0.859375 0q0.71875 0 1.03125 -0.265625q0.328125 -0.28125 0.328125 -0.796875q0 -0.484375 -0.328125 -0.6875q-0.328125 -0.203125 -1.015625 -0.203125l-0.875 0l0 1.953125zm0 3.671875l1.046875 0q1.578125 0 1.578125 -1.171875q0 -0.578125 -0.390625 -0.828125q-0.375 -0.25 -1.1875 -0.25l-1.046875 0l0 2.25zm6.4655933 1.53125l0 -8.6875l1.96875 0l0 7.03125l3.859375 0l0 1.65625l-5.828125 0zm10.574966 0.15625q-0.78125 0 -1.421875 -0.28125q-0.640625 -0.296875 -1.109375 -0.875q-0.453125 -0.578125 -0.71875 -1.421875q-0.25 -0.84375 -0.25 -1.96875q0 -1.09375 0.25 -1.921875q0.265625 -0.828125 0.71875 -1.390625q0.46875 -0.578125 1.109375 -0.859375q0.640625 -0.28125 1.421875 -0.28125q0.765625 0 1.40625 0.28125q0.65625 0.28125 1.109375 0.859375q0.46875 0.5625 0.71875 1.390625q0.25 0.828125 0.25 1.921875q0 1.125 -0.25 1.96875q-0.25 0.84375 -0.71875 1.421875q-0.453125 0.578125 -1.109375 0.875q-0.640625 0.28125 -1.40625 0.28125zm0 -1.6875q0.671875 0 1.078125 -0.71875q0.40625 -0.71875 0.40625 -2.140625q0 -1.359375 -0.40625 -2.0625q-0.40625 -0.703125 -1.078125 -0.703125q-0.6875 0 -1.09375 0.703125q-0.390625 0.703125 -0.390625 2.0625q0 1.421875 0.390625 2.140625q0.40625 0.71875 1.09375 0.71875zm8.746841 1.6875q-0.8125 0 -1.546875 -0.28125q-0.71875 -0.28125 -1.28125 -0.84375q-0.546875 -0.5625 -0.875 -1.390625q-0.328125 -0.84375 -0.328125 -1.9375q0 -1.078125 0.3125 -1.921875q0.328125 -0.84375 0.890625 -1.421875q0.5625 -0.59375 1.3125 -0.890625q0.765625 -0.3125 1.625 -0.3125q0.828125 0 1.5 0.34375q0.671875 0.328125 1.109375 0.75l-1.078125 1.21875q-0.3125 -0.28125 -0.6875 -0.453125q-0.359375 -0.171875 -0.84375 -0.171875q-0.46875 0 -0.859375 0.203125q-0.375 0.1875 -0.671875 0.546875q-0.28125 0.359375 -0.4375 0.875q-0.15625 0.515625 -0.15625 1.171875q0 1.34375 0.609375 2.09375q0.609375 0.734375 1.59375 0.734375q0.46875 0 0.859375 -0.203125q0.40625 -0.21875 0.71875 -0.578125l1.078125 1.1875q-1.078125 1.28125 -2.84375 1.28125zm4.1530914 -0.15625l0 -8.6875l1.984375 0l0 3.5625l0.046875 0l2.5625 -3.5625l2.171875 0l-2.609375 3.453125l2.859375 5.234375l-2.171875 0l-1.859375 -3.6875l-1.0 1.3125l0 2.375l-1.984375 0z" fill-rule="nonzero"/><path fill="#000000" fill-opacity="0.0" d="m56.692913 195.59055l377.95276 0" fill-rule="evenodd"/><path stroke="#000000" stroke-width="1.0" stroke-linejoin="round" stroke-linecap="butt" d="m56.692913 195.59055l371.95276 0" fill-rule="evenodd"/><path fill="#000000" stroke="#000000" stroke-width="1.0" stroke-linecap="butt" d="m428.64566 197.24228l4.5381165 -1.6517334l-4.5381165 -1.6517334z" fill-rule="evenodd"/><path fill="#000000" fill-opacity="0.0" d="m0 176.69292l56.692913 0l0 18.897629l-56.692913 0z" fill-rule="evenodd"/><path fill="#000000" d="m13.486921 189.88173l0 -6.953125l4.609375 0l0 1.328125l-3.046875 0l0 1.609375l2.59375 0l0 1.3125l-2.59375 0l0 2.703125l-1.5625 0zm6.018814 0l0 -6.953125l2.453125 0q0.5625 0 1.046875 0.109375q0.484375 0.109375 0.84375 0.359375q0.375 0.25 0.578125 0.671875q0.21875 0.40625 0.21875 1.03125q0 0.765625 -0.34375 1.265625q-0.328125 0.484375 -0.890625 0.734375l1.5625 2.78125l-1.75 0l-1.328125 -2.5l-0.828125 0l0 2.5l-1.5625 0zm1.5625 -3.75l0.765625 0q1.265625 0 1.265625 -1.03125q0 -0.515625 -0.328125 -0.71875q-0.3125 -0.203125 -0.9375 -0.203125l-0.765625 0l0 1.953125zm6.675064 0.234375l-0.15625 0.640625l1.46875 0l-0.171875 -0.640625q-0.125 -0.515625 -0.28125 -1.09375q-0.15625 -0.59375 -0.265625 -1.140625l-0.046875 0q-0.125 0.546875 -0.265625 1.140625q-0.140625 0.578125 -0.28125 1.09375zm-2.5 3.515625l2.171875 -6.953125l1.875 0l2.15625 6.953125l-1.65625 0l-0.421875 -1.65625l-2.09375 0l-0.4375 1.65625l-1.59375 0zm6.925066 0l0 -6.953125l1.640625 0l0.671875 2.46875l0.234375 0.953125l0.046875 0l0.234375 -0.953125l0.6875 -2.46875l1.640625 0l0 6.953125l-1.328125 0l0 -2.15625q0 -0.28125 0.015625 -0.71875q0.03125 -0.4375 0.0625 -0.890625q0.03125 -0.46875 0.0625 -0.890625q0.046875 -0.4375 0.0625 -0.71875l-0.03125 0l-0.53125 1.859375l-0.53125 1.671875l-0.765625 0l-0.546875 -1.671875l-0.5 -1.859375l-0.03125 0q0.03125 0.28125 0.0625 0.71875q0.03125 0.421875 0.0625 0.890625q0.03125 0.453125 0.046875 0.890625q0.03125 0.4375 0.03125 0.71875l0 2.15625l-1.296875 0zm6.753189 0l0 -6.953125l4.59375 0l0 1.328125l-3.015625 0l0 1.390625l2.5625 0l0 1.3125l-2.5625 0l0 1.59375l3.125 0l0 1.328125l-4.703125 0z" fill-rule="nonzero"/><path fill="#000000" fill-opacity="0.0" d="m0 195.59055l56.692913 0l0 18.897644l-56.692913 0z" fill-rule="evenodd"/><path fill="#000000" d="m13.143171 208.77937l0 -6.953125l2.34375 0q0.546875 0 1.0 0.09375q0.46875 0.078125 0.8125 0.28125q0.34375 0.1875 0.53125 0.53125q0.203125 0.328125 0.203125 0.828125q0 0.234375 -0.078125 0.46875q-0.0625 0.234375 -0.21875 0.4375q-0.140625 0.203125 -0.375 0.359375q-0.21875 0.15625 -0.53125 0.234375l0 0.046875q0.75 0.140625 1.125 0.53125q0.390625 0.390625 0.390625 1.09375q0 0.53125 -0.203125 0.921875q-0.203125 0.375 -0.5625 0.625q-0.359375 0.25 -0.84375 0.375q-0.484375 0.125 -1.046875 0.125l-2.546875 0zm1.578125 -4.15625l0.6875 0q0.578125 0 0.828125 -0.21875q0.265625 -0.234375 0.265625 -0.640625q0 -0.375 -0.265625 -0.53125q-0.265625 -0.171875 -0.8125 -0.171875l-0.703125 0l0 1.5625zm0 2.9375l0.84375 0q1.25 0 1.25 -0.9375q0 -0.46875 -0.3125 -0.671875q-0.296875 -0.203125 -0.9375 -0.203125l-0.84375 0l0 1.8125zm5.175064 1.21875l0 -6.953125l1.5625 0l0 5.625l3.09375 0l0 1.328125l-4.65625 0zm8.456314 0.125q-0.625 0 -1.140625 -0.234375q-0.515625 -0.234375 -0.890625 -0.6875q-0.359375 -0.453125 -0.5625 -1.125q-0.203125 -0.6875 -0.203125 -1.578125q0 -0.875 0.203125 -1.546875q0.203125 -0.671875 0.5625 -1.125q0.375 -0.453125 0.890625 -0.671875q0.515625 -0.234375 1.140625 -0.234375q0.609375 0 1.125 0.234375q0.515625 0.21875 0.875 0.671875q0.375 0.453125 0.578125 1.125q0.203125 0.671875 0.203125 1.546875q0 0.890625 -0.203125 1.578125q-0.203125 0.671875 -0.578125 1.125q-0.359375 0.453125 -0.875 0.6875q-0.515625 0.234375 -1.125 0.234375zm0 -1.34375q0.53125 0 0.84375 -0.578125q0.328125 -0.578125 0.328125 -1.703125q0 -1.09375 -0.328125 -1.65625q-0.3125 -0.5625 -0.84375 -0.5625q-0.546875 0 -0.875 0.5625q-0.3125 0.5625 -0.3125 1.65625q0 1.125 0.3125 1.703125q0.328125 0.578125 0.875 0.578125zm6.987566 1.34375q-0.65625 0 -1.234375 -0.21875q-0.578125 -0.234375 -1.03125 -0.671875q-0.4375 -0.453125 -0.703125 -1.125q-0.25 -0.671875 -0.25 -1.546875q0 -0.859375 0.25 -1.53125q0.265625 -0.671875 0.703125 -1.140625q0.453125 -0.46875 1.0625 -0.71875q0.609375 -0.25 1.296875 -0.25q0.65625 0 1.1875 0.28125q0.53125 0.265625 0.890625 0.609375l-0.859375 0.96875q-0.25 -0.234375 -0.546875 -0.359375q-0.296875 -0.140625 -0.671875 -0.140625q-0.375 0 -0.6875 0.15625q-0.296875 0.15625 -0.53125 0.4375q-0.234375 0.28125 -0.359375 0.703125q-0.125 0.421875 -0.125 0.9375q0 1.078125 0.484375 1.671875q0.5 0.59375 1.28125 0.59375q0.375 0 0.6875 -0.171875q0.3125 -0.171875 0.578125 -0.453125l0.859375 0.953125q-0.859375 1.015625 -2.28125 1.015625zm3.315689 -0.125l0 -6.953125l1.59375 0l0 2.84375l0.03125 0l2.0625 -2.84375l1.734375 0l-2.09375 2.765625l2.28125 4.1875l-1.734375 0l-1.484375 -2.953125l-0.796875 1.0625l0 1.890625l-1.59375 0z" fill-rule="nonzero"/><path fill="#000000" fill-opacity="0.0" d="m14.6692915 271.2257l116.78741 0l0 58.393707l-116.78741 0z" fill-rule="evenodd"/><path stroke="#d9d9d9" stroke-width="1.0" stroke-linejoin="round" stroke-linecap="butt" stroke-dasharray="4.0,3.0" d="m14.6692915 271.2257l116.78741 0l0 58.393707l-116.78741 0z" fill-rule="evenodd"/><path fill="#000000" d="m54.47714 305.22256l0 -8.6875l5.765625 0l0 1.65625l-3.8125 0l0 2.0l3.25 0l0 1.65625l-3.25 0l0 3.375l-1.953125 0zm7.5280914 0l0 -8.6875l3.0781212 0q0.6875 0 1.296875 0.140625q0.609375 0.125 1.0625 0.4375q0.46875 0.3125 0.734375 0.84375q0.265625 0.515625 0.265625 1.28125q0 0.953125 -0.4375 1.578125q-0.421875 0.625 -1.109375 0.921875l1.953125 3.484375l-2.203125 0l-1.65625 -3.125l-1.0312462 0l0 3.125l-1.953125 0zm1.953125 -4.6875l0.9687462 0q1.578125 0 1.578125 -1.296875q0 -0.640625 -0.40625 -0.890625q-0.390625 -0.25 -1.171875 -0.25l-0.9687462 0l0 2.4375zm8.356213 0.296875l-0.203125 0.796875l1.828125 0l-0.203125 -0.796875q-0.171875 -0.65625 -0.359375 -1.375q-0.1875 -0.734375 -0.328125 -1.4375l-0.046875 0q-0.171875 0.703125 -0.34375 1.4375q-0.171875 0.71875 -0.34375 1.375zm-3.125 4.390625l2.703125 -8.6875l2.34375 0l2.703125 8.6875l-2.078125 0l-0.515625 -2.0625l-2.625 0l-0.53125 2.0625l-2.0 0zm8.637466 0l0 -8.6875l2.0625 0l0.84375 3.078125l0.296875 1.203125l0.0625 0l0.28125 -1.203125l0.859375 -3.078125l2.046875 0l0 8.6875l-1.640625 0l0 -2.6875q0 -0.359375 0.015625 -0.90625q0.03125 -0.546875 0.0625 -1.125q0.046875 -0.578125 0.09375 -1.109375q0.046875 -0.546875 0.078125 -0.890625l-0.046875 0l-0.65625 2.328125l-0.671875 2.078125l-0.96875 0l-0.671875 -2.078125l-0.625 -2.328125l-0.046875 0q0.046875 0.34375 0.078125 0.890625q0.046875 0.53125 0.078125 1.109375q0.046875 0.578125 0.078125 1.125q0.03125 0.546875 0.03125 0.90625l0 2.6875l-1.640625 0zm8.449966 0l0 -8.6875l5.765625 0l0 1.65625l-3.78125 0l0 1.734375l3.203125 0l0 1.640625l-3.203125 0l0 2.0l3.921875 0l0 1.65625l-5.90625 0z" fill-rule="nonzero"/><path fill="#000000" fill-opacity="0.0" d="m322.2362 0l220.06299 0l0 113.385826l-220.06299 0z" fill-rule="evenodd"/><path fill="#434343" d="m333.56433 65.23291l0 -1.625l4.421875 0l0 -11.28125l-3.4375 0l0 -1.28125q1.375 -0.1875 2.28125 -0.453125q0.90625 -0.265625 1.65625 -0.671875l1.46875 0l0 13.6875l4.0 0l0 1.625l-10.390625 0zm28.846802 0l0 -15.75l4.46875 0q1.203125 0 2.1875 0.21875q1.0 0.21875 1.703125 0.671875q0.71875 0.453125 1.109375 1.1875q0.390625 0.734375 0.390625 1.765625q0 1.171875 -0.671875 2.125q-0.671875 0.953125 -2.078125 1.3125l0 0.09375q1.71875 0.265625 2.671875 1.203125q0.96875 0.9375 0.96875 2.5625q0 1.15625 -0.4375 2.015625q-0.421875 0.859375 -1.203125 1.4375q-0.78125 0.578125 -1.875 0.875q-1.09375 0.28125 -2.40625 0.28125l-4.828125 0zm2.0 -9.125l2.125 0q2.015625 0 2.890625 -0.640625q0.875 -0.65625 0.875 -1.96875q0 -1.296875 -0.921875 -1.8125q-0.921875 -0.515625 -2.75 -0.515625l-2.21875 0l0 4.9375zm0 7.4375l2.53125 0q2.046875 0 3.140625 -0.703125q1.109375 -0.703125 1.109375 -2.3125q0 -1.46875 -1.078125 -2.09375q-1.078125 -0.640625 -3.171875 -0.640625l-2.53125 0l0 5.75zm19.790588 1.96875q-1.875 0 -2.859375 -1.046875q-0.984375 -1.0625 -0.984375 -3.140625l0 -11.578125l-4.140625 0l0 -1.609375l6.109375 0l0 13.328125q0 1.296875 0.625 1.859375q0.625 0.5625 1.6875 0.5625q1.03125 0 2.1875 -0.53125l0.5 1.46875q-0.8125 0.328125 -1.484375 0.5q-0.671875 0.1875 -1.640625 0.1875zm11.837463 0q-1.15625 0 -2.203125 -0.40625q-1.046875 -0.40625 -1.84375 -1.1875q-0.78125 -0.78125 -1.25 -1.921875q-0.46875 -1.140625 -0.46875 -2.578125q0 -1.453125 0.46875 -2.59375q0.46875 -1.140625 1.25 -1.9375q0.796875 -0.796875 1.84375 -1.203125q1.046875 -0.40625 2.203125 -0.40625q1.15625 0 2.1875 0.40625q1.046875 0.40625 1.84375 1.203125q0.796875 0.796875 1.25 1.9375q0.46875 1.140625 0.46875 2.59375q0 1.4375 -0.46875 2.578125q-0.453125 1.140625 -1.25 1.921875q-0.796875 0.78125 -1.84375 1.1875q-1.03125 0.40625 -2.1875 0.40625zm0 -1.625q0.84375 0 1.515625 -0.3125q0.6875 -0.328125 1.171875 -0.921875q0.5 -0.59375 0.765625 -1.40625q0.265625 -0.8125 0.265625 -1.828125q0 -1.0 -0.265625 -1.828125q-0.265625 -0.828125 -0.765625 -1.421875q-0.484375 -0.609375 -1.171875 -0.921875q-0.671875 -0.328125 -1.515625 -0.328125q-0.84375 0 -1.53125 0.328125q-0.6875 0.3125 -1.171875 0.921875q-0.484375 0.59375 -0.75 1.421875q-0.265625 0.828125 -0.265625 1.828125q0 1.015625 0.265625 1.828125q0.265625 0.8125 0.75 1.40625q0.484375 0.59375 1.171875 0.921875q0.6875 0.3125 1.53125 0.3125zm15.493713 1.625q-1.359375 0 -2.53125 -0.40625q-1.15625 -0.40625 -2.03125 -1.1875q-0.859375 -0.78125 -1.34375 -1.921875q-0.46875 -1.140625 -0.46875 -2.578125q0 -1.453125 0.515625 -2.59375q0.515625 -1.140625 1.40625 -1.9375q0.890625 -0.796875 2.078125 -1.203125q1.1875 -0.40625 2.5 -0.40625q1.4375 0 2.484375 0.515625q1.046875 0.5 1.765625 1.1875l-0.984375 1.28125q-0.71875 -0.625 -1.5 -0.984375q-0.78125 -0.359375 -1.6875 -0.359375q-1.015625 0 -1.859375 0.328125q-0.828125 0.3125 -1.421875 0.921875q-0.59375 0.59375 -0.9375 1.421875q-0.328125 0.828125 -0.328125 1.828125q0 1.015625 0.328125 1.828125q0.328125 0.8125 0.90625 1.40625q0.59375 0.59375 1.421875 0.921875q0.828125 0.3125 1.84375 0.3125q1.078125 0 1.96875 -0.421875q0.90625 -0.421875 1.625 -1.046875l0.890625 1.28125q-0.984375 0.859375 -2.171875 1.34375q-1.171875 0.46875 -2.46875 0.46875zm8.649963 -0.28125l0 -17.09375l1.96875 0l0 11.578125l0.09375 0l6.28125 -6.140625l2.265625 0l-4.65625 4.578125l5.28125 7.078125l-2.21875 0l-4.296875 -5.875l-2.75 2.703125l0 3.171875l-1.96875 0zm28.299927 -10.171875l0 -1.484375l10.3125 0l0 1.484375l-10.3125 0zm0 6.0l0 -1.484375l10.3125 0l0 1.484375l-10.3125 0zm29.081177 4.171875l0 -1.625l4.421875 0l0 -11.28125l-3.4375 0l0 -1.28125q1.375 -0.1875 2.28125 -0.453125q0.90625 -0.265625 1.65625 -0.671875l1.46875 0l0 13.6875l4.0 0l0 1.625l-10.390625 0zm19.993713 0.28125q-1.328125 0 -2.46875 -0.40625q-1.140625 -0.40625 -2.0 -1.1875q-0.84375 -0.796875 -1.34375 -1.9375q-0.484375 -1.140625 -0.484375 -2.609375q0 -1.40625 0.484375 -2.53125q0.5 -1.140625 1.328125 -1.921875q0.828125 -0.796875 1.890625 -1.21875q1.078125 -0.421875 2.25 -0.421875q1.25 0 2.25 0.40625q1.0 0.390625 1.671875 1.109375q0.6875 0.71875 1.046875 1.734375q0.359375 1.0 0.359375 2.21875q0 0.34375 -0.03125 0.65625q-0.015625 0.3125 -0.0625 0.546875l-9.1875 0q0.1875 2.0 1.453125 3.0q1.265625 0.984375 3.078125 0.984375q1.0625 0 1.90625 -0.296875q0.859375 -0.296875 1.65625 -0.8125l0.71875 1.296875q-0.875 0.578125 -1.984375 0.984375q-1.109375 0.40625 -2.53125 0.40625zm-0.296875 -10.671875q-0.71875 0 -1.375 0.25q-0.65625 0.234375 -1.1875 0.671875q-0.53125 0.4375 -0.890625 1.109375q-0.359375 0.671875 -0.5 1.546875l7.4375 0q-0.125 -1.796875 -1.046875 -2.6875q-0.921875 -0.890625 -2.4375 -0.890625zm8.165588 10.390625l0 -11.65625l1.578125 0l0.171875 1.53125l0.046875 0q0.453125 -0.8125 1.046875 -1.3125q0.609375 -0.515625 1.625 -0.515625q1.703125 0 2.203125 2.015625q0.5 -0.9375 1.109375 -1.46875q0.625 -0.546875 1.625 -0.546875q1.234375 0 1.90625 0.921875q0.6875 0.921875 0.6875 2.671875l0 8.359375l-1.96875 0l0 -8.203125q0 -2.046875 -1.25 -2.046875q-0.625 0 -1.015625 0.453125q-0.375 0.4375 -0.859375 1.34375l0 8.453125l-1.8125 0l0 -8.203125q0 -1.015625 -0.28125 -1.53125q-0.28125 -0.515625 -0.921875 -0.515625q-0.625 0 -1.0625 0.453125q-0.421875 0.4375 -0.859375 1.34375l0 8.453125l-1.96875 0z" fill-rule="nonzero"/><path fill="#000000" fill-opacity="0.0" d="m132.28346 271.2257l302.36218 0l0 116.787415l-302.36218 0z" fill-rule="evenodd"/><path fill="#434343" d="m156.19302 338.15942l0 -1.625l4.421875 0l0 -11.28125l-3.4375 0l0 -1.28125q1.375 -0.1875 2.28125 -0.453125q0.90625 -0.265625 1.65625 -0.671875l1.46875 0l0 13.6875l4.0 0l0 1.625l-10.390625 0zm29.659302 0l0 -15.75l9.671875 0l0 1.6875l-7.65625 0l0 5.328125l6.484375 0l0 1.671875l-6.484375 0l0 7.0625l-2.015625 0zm14.712463 0l0 -11.65625l1.640625 0l0.15625 2.75l0.078125 0q0.90625 -1.40625 2.234375 -2.21875q1.34375 -0.828125 2.96875 -0.828125q0.65625 0 1.203125 0.109375q0.5625 0.109375 1.109375 0.375l-0.453125 1.703125q-0.625 -0.21875 -1.046875 -0.3125q-0.421875 -0.09375 -1.125 -0.09375q-1.3125 0 -2.53125 0.765625q-1.203125 0.75 -2.265625 2.5625l0 6.84375l-1.96875 0zm16.806213 0.28125q-0.8125 0 -1.546875 -0.234375q-0.71875 -0.21875 -1.265625 -0.640625q-0.53125 -0.421875 -0.84375 -1.03125q-0.3125 -0.609375 -0.3125 -1.40625q0 -0.984375 0.46875 -1.703125q0.46875 -0.734375 1.484375 -1.265625q1.03125 -0.53125 2.640625 -0.859375q1.609375 -0.34375 3.859375 -0.53125q-0.015625 -0.59375 -0.1875 -1.125q-0.171875 -0.53125 -0.53125 -0.921875q-0.359375 -0.40625 -0.953125 -0.640625q-0.578125 -0.234375 -1.421875 -0.234375q-1.15625 0 -2.21875 0.4375q-1.046875 0.4375 -1.859375 0.953125l-0.765625 -1.34375q0.421875 -0.296875 1.015625 -0.59375q0.59375 -0.296875 1.25 -0.53125q0.65625 -0.25 1.390625 -0.40625q0.75 -0.15625 1.515625 -0.15625q2.40625 0 3.5625 1.3125q1.171875 1.296875 1.171875 3.484375l0 7.15625l-1.609375 0l-0.171875 -1.578125l-0.0625 0q-0.984375 0.765625 -2.171875 1.3125q-1.1875 0.546875 -2.4375 0.546875zm0.53125 -1.578125q1.0 0 1.96875 -0.4375q0.984375 -0.453125 1.984375 -1.296875l0 -3.0625q-1.875 0.140625 -3.140625 0.40625q-1.25 0.265625 -2.015625 0.640625q-0.75 0.359375 -1.0625 0.828125q-0.3125 0.46875 -0.3125 1.046875q0 0.515625 0.21875 0.859375q0.21875 0.34375 0.5625 0.578125q0.34375 0.21875 0.8125 0.328125q0.46875 0.109375 0.984375 0.109375zm9.353088 1.296875l0 -11.65625l1.578125 0l0.171875 1.53125l0.046875 0q0.453125 -0.8125 1.046875 -1.3125q0.609375 -0.515625 1.625 -0.515625q1.703125 0 2.203125 2.015625q0.5 -0.9375 1.109375 -1.46875q0.625 -0.546875 1.625 -0.546875q1.234375 0 1.90625 0.921875q0.6875 0.921875 0.6875 2.671875l0 8.359375l-1.96875 0l0 -8.203125q0 -2.046875 -1.25 -2.046875q-0.625 0 -1.015625 0.453125q-0.375 0.4375 -0.859375 1.34375l0 8.453125l-1.8125 0l0 -8.203125q0 -1.015625 -0.28125 -1.53125q-0.28125 -0.515625 -0.921875 -0.515625q-0.625 0 -1.0625 0.453125q-0.421875 0.4375 -0.859375 1.34375l0 8.453125l-1.96875 0zm20.931213 0.28125q-1.328125 0 -2.46875 -0.40625q-1.140625 -0.40625 -2.0 -1.1875q-0.84375 -0.796875 -1.34375 -1.9375q-0.484375 -1.140625 -0.484375 -2.609375q0 -1.40625 0.484375 -2.53125q0.5 -1.140625 1.328125 -1.921875q0.828125 -0.796875 1.890625 -1.21875q1.078125 -0.421875 2.25 -0.421875q1.25 0 2.25 0.40625q1.0 0.390625 1.671875 1.109375q0.6875 0.71875 1.046875 1.734375q0.359375 1.0 0.359375 2.21875q0 0.34375 -0.03125 0.65625q-0.015625 0.3125 -0.0625 0.546875l-9.1875 0q0.1875 2.0 1.453125 3.0q1.265625 0.984375 3.078125 0.984375q1.0625 0 1.90625 -0.296875q0.859375 -0.296875 1.65625 -0.8125l0.71875 1.296875q-0.875 0.578125 -1.984375 0.984375q-1.109375 0.40625 -2.53125 0.40625zm-0.296875 -10.671875q-0.71875 0 -1.375 0.25q-0.65625 0.234375 -1.1875 0.671875q-0.53125 0.4375 -0.890625 1.109375q-0.359375 0.671875 -0.5 1.546875l7.4375 0q-0.125 -1.796875 -1.046875 -2.6875q-0.921875 -0.890625 -2.4375 -0.890625zm23.221802 0.21875l0 -1.484375l10.3125 0l0 1.484375l-10.3125 0zm0 6.0l0 -1.484375l10.3125 0l0 1.484375l-10.3125 0zm28.503052 4.171875l0 -1.171875q1.953125 -1.734375 3.453125 -3.125q1.5 -1.390625 2.515625 -2.546875q1.015625 -1.171875 1.546875 -2.171875q0.53125 -1.015625 0.53125 -1.96875q0 -1.328125 -0.828125 -2.15625q-0.8125 -0.84375 -2.515625 -0.84375q-1.078125 0 -2.0 0.546875q-0.921875 0.53125 -1.671875 1.296875l-1.125 -1.125q1.03125 -1.0625 2.21875 -1.6875q1.1875 -0.640625 2.828125 -0.640625q1.140625 0 2.0625 0.328125q0.9375 0.3125 1.578125 0.90625q0.640625 0.578125 0.984375 1.421875q0.359375 0.84375 0.359375 1.84375q0 1.078125 -0.515625 2.171875q-0.515625 1.09375 -1.453125 2.265625q-0.9375 1.15625 -2.234375 2.421875q-1.296875 1.265625 -2.859375 2.671875q0.734375 -0.046875 1.453125 -0.09375q0.71875 -0.046875 1.40625 -0.046875l5.046875 0l0 1.703125l-10.78125 0zm29.424927 0l0 -15.75l4.46875 0q1.203125 0 2.1875 0.21875q1.0 0.21875 1.703125 0.671875q0.71875 0.453125 1.109375 1.1875q0.390625 0.734375 0.390625 1.765625q0 1.171875 -0.671875 2.125q-0.671875 0.953125 -2.078125 1.3125l0 0.09375q1.71875 0.265625 2.671875 1.203125q0.96875 0.9375 0.96875 2.5625q0 1.15625 -0.4375 2.015625q-0.421875 0.859375 -1.203125 1.4375q-0.78125 0.578125 -1.875 0.875q-1.09375 0.28125 -2.40625 0.28125l-4.828125 0zm2.0 -9.125l2.125 0q2.015625 0 2.890625 -0.640625q0.875 -0.65625 0.875 -1.96875q0 -1.296875 -0.921875 -1.8125q-0.921875 -0.515625 -2.75 -0.515625l-2.21875 0l0 4.9375zm0 7.4375l2.53125 0q2.046875 0 3.140625 -0.703125q1.109375 -0.703125 1.109375 -2.3125q0 -1.46875 -1.078125 -2.09375q-1.078125 -0.640625 -3.171875 -0.640625l-2.53125 0l0 5.75zm19.790588 1.96875q-1.875 0 -2.859375 -1.046875q-0.984375 -1.0625 -0.984375 -3.140625l0 -11.578125l-4.140625 0l0 -1.609375l6.109375 0l0 13.328125q0 1.296875 0.625 1.859375q0.625 0.5625 1.6875 0.5625q1.03125 0 2.1875 -0.53125l0.5 1.46875q-0.8125 0.328125 -1.484375 0.5q-0.671875 0.1875 -1.640625 0.1875zm11.837463 0q-1.15625 0 -2.203125 -0.40625q-1.046875 -0.40625 -1.84375 -1.1875q-0.78125 -0.78125 -1.25 -1.921875q-0.46875 -1.140625 -0.46875 -2.578125q0 -1.453125 0.46875 -2.59375q0.46875 -1.140625 1.25 -1.9375q0.796875 -0.796875 1.84375 -1.203125q1.046875 -0.40625 2.203125 -0.40625q1.15625 0 2.1875 0.40625q1.046875 0.40625 1.84375 1.203125q0.796875 0.796875 1.25 1.9375q0.46875 1.140625 0.46875 2.59375q0 1.4375 -0.46875 2.578125q-0.453125 1.140625 -1.25 1.921875q-0.796875 0.78125 -1.84375 1.1875q-1.03125 0.40625 -2.1875 0.40625zm0 -1.625q0.84375 0 1.515625 -0.3125q0.6875 -0.328125 1.171875 -0.921875q0.5 -0.59375 0.765625 -1.40625q0.265625 -0.8125 0.265625 -1.828125q0 -1.0 -0.265625 -1.828125q-0.265625 -0.828125 -0.765625 -1.421875q-0.484375 -0.609375 -1.171875 -0.921875q-0.671875 -0.328125 -1.515625 -0.328125q-0.84375 0 -1.53125 0.328125q-0.6875 0.3125 -1.171875 0.921875q-0.484375 0.59375 -0.75 1.421875q-0.265625 0.828125 -0.265625 1.828125q0 1.015625 0.265625 1.828125q0.265625 0.8125 0.75 1.40625q0.484375 0.59375 1.171875 0.921875q0.6875 0.3125 1.53125 0.3125zm15.493713 1.625q-1.359375 0 -2.53125 -0.40625q-1.15625 -0.40625 -2.03125 -1.1875q-0.859375 -0.78125 -1.34375 -1.921875q-0.46875 -1.140625 -0.46875 -2.578125q0 -1.453125 0.515625 -2.59375q0.515625 -1.140625 1.40625 -1.9375q0.890625 -0.796875 2.078125 -1.203125q1.1875 -0.40625 2.5 -0.40625q1.4375 0 2.484375 0.515625q1.046875 0.5 1.765625 1.1875l-0.984375 1.28125q-0.71875 -0.625 -1.5 -0.984375q-0.78125 -0.359375 -1.6875 -0.359375q-1.015625 0 -1.859375 0.328125q-0.828125 0.3125 -1.421875 0.921875q-0.59375 0.59375 -0.9375 1.421875q-0.328125 0.828125 -0.328125 1.828125q0 1.015625 0.328125 1.828125q0.328125 0.8125 0.90625 1.40625q0.59375 0.59375 1.421875 0.921875q0.828125 0.3125 1.84375 0.3125q1.078125 0 1.96875 -0.421875q0.90625 -0.421875 1.625 -1.046875l0.890625 1.28125q-0.984375 0.859375 -2.171875 1.34375q-1.171875 0.46875 -2.46875 0.46875zm8.649963 -0.28125l0 -17.09375l1.96875 0l0 11.578125l0.09375 0l6.28125 -6.140625l2.265625 0l-4.65625 4.578125l5.28125 7.078125l-2.21875 0l-4.296875 -5.875l-2.75 2.703125l0 3.171875l-1.96875 0zm19.290588 0.28125q-1.71875 0 -3.1875 -0.53125q-1.46875 -0.546875 -2.546875 -1.28125l0.90625 -1.296875q1.015625 0.71875 2.21875 1.15625q1.21875 0.421875 2.859375 0.421875q1.484375 0 2.203125 -0.53125q0.734375 -0.546875 0.734375 -1.296875q0 -0.328125 -0.125 -0.609375q-0.109375 -0.296875 -0.515625 -0.5625q-0.390625 -0.265625 -1.109375 -0.5q-0.71875 -0.234375 -1.890625 -0.484375q-2.28125 -0.484375 -3.421875 -1.28125q-1.140625 -0.796875 -1.140625 -2.125q0 -0.703125 0.3125 -1.3125q0.3125 -0.609375 0.921875 -1.046875q0.609375 -0.453125 1.515625 -0.703125q0.90625 -0.25 2.09375 -0.25q1.34375 0 2.59375 0.453125q1.25 0.4375 2.109375 1.03125l-0.953125 1.28125q-0.8125 -0.5625 -1.796875 -0.890625q-0.984375 -0.34375 -2.109375 -0.34375q-1.5 0 -2.09375 0.515625q-0.59375 0.5 -0.59375 1.171875q0 0.765625 0.78125 1.171875q0.796875 0.390625 2.59375 0.765625q1.46875 0.3125 2.40625 0.671875q0.9375 0.34375 1.46875 0.78125q0.546875 0.421875 0.75 0.953125q0.203125 0.53125 0.203125 1.203125q0 0.71875 -0.34375 1.34375q-0.328125 0.625 -1.0 1.109375q-0.65625 0.46875 -1.625 0.734375q-0.96875 0.28125 -2.21875 0.28125z" fill-rule="nonzero"/><path fill="#000000" fill-opacity="0.0" d="m182.50919 115.04024l113.38583 0l0 22.929138l-113.38583 0z" fill-rule="evenodd"/><path fill="#434343" d="m192.57169 134.28024l0 -6.984375l1.96875 0q0.53125 0 0.96875 0.09375q0.453125 0.09375 0.765625 0.296875q0.3125 0.203125 0.484375 0.53125q0.1875 0.3125 0.1875 0.78125q0 0.515625 -0.296875 0.9375q-0.296875 0.421875 -0.9375 0.578125l0 0.046875q0.765625 0.109375 1.1875 0.53125q0.4375 0.421875 0.4375 1.140625q0 0.515625 -0.1875 0.90625q-0.1875 0.375 -0.546875 0.640625q-0.34375 0.25 -0.828125 0.375q-0.484375 0.125 -1.0625 0.125l-2.140625 0zm0.875 -4.046875l0.953125 0q0.890625 0 1.28125 -0.28125q0.390625 -0.296875 0.390625 -0.890625q0 -0.5625 -0.421875 -0.796875q-0.40625 -0.234375 -1.203125 -0.234375l-1.0 0l0 2.203125zm0 3.296875l1.125 0q0.90625 0 1.390625 -0.3125q0.5 -0.3125 0.5 -1.03125q0 -0.640625 -0.484375 -0.921875q-0.46875 -0.28125 -1.40625 -0.28125l-1.125 0l0 2.546875zm8.800064 0.875q-0.84375 0 -1.28125 -0.46875q-0.4375 -0.46875 -0.4375 -1.390625l0 -5.140625l-1.84375 0l0 -0.71875l2.71875 0l0 5.921875q0 0.578125 0.28125 0.828125q0.28125 0.25 0.75 0.25q0.453125 0 0.96875 -0.234375l0.21875 0.640625q-0.359375 0.15625 -0.65625 0.234375q-0.296875 0.078125 -0.71875 0.078125zm5.253189 0q-0.515625 0 -0.984375 -0.171875q-0.453125 -0.1875 -0.8125 -0.53125q-0.34375 -0.34375 -0.5625 -0.84375q-0.203125 -0.515625 -0.203125 -1.15625q0 -0.65625 0.203125 -1.15625q0.21875 -0.5 0.5625 -0.84375q0.359375 -0.359375 0.8125 -0.546875q0.46875 -0.1875 0.984375 -0.1875q0.5 0 0.96875 0.1875q0.46875 0.1875 0.8125 0.546875q0.359375 0.34375 0.5625 0.84375q0.203125 0.5 0.203125 1.15625q0 0.640625 -0.203125 1.15625q-0.203125 0.5 -0.5625 0.84375q-0.34375 0.34375 -0.8125 0.53125q-0.46875 0.171875 -0.96875 0.171875zm0 -0.71875q0.359375 0 0.65625 -0.140625q0.3125 -0.15625 0.53125 -0.40625q0.21875 -0.265625 0.328125 -0.625q0.125 -0.359375 0.125 -0.8125q0 -0.453125 -0.125 -0.8125q-0.109375 -0.375 -0.328125 -0.640625q-0.21875 -0.265625 -0.53125 -0.40625q-0.296875 -0.140625 -0.65625 -0.140625q-0.375 0 -0.6875 0.140625q-0.296875 0.140625 -0.515625 0.40625q-0.21875 0.265625 -0.34375 0.640625q-0.109375 0.359375 -0.109375 0.8125q0 0.453125 0.109375 0.8125q0.125 0.359375 0.34375 0.625q0.21875 0.25 0.515625 0.40625q0.3125 0.140625 0.6875 0.140625zm6.878189 0.71875q-0.609375 0 -1.125 -0.171875q-0.515625 -0.1875 -0.90625 -0.53125q-0.375 -0.34375 -0.59375 -0.84375q-0.203125 -0.515625 -0.203125 -1.15625q0 -0.65625 0.21875 -1.15625q0.234375 -0.5 0.625 -0.84375q0.390625 -0.359375 0.921875 -0.546875q0.53125 -0.1875 1.109375 -0.1875q0.640625 0 1.109375 0.234375q0.46875 0.21875 0.78125 0.53125l-0.4375 0.5625q-0.3125 -0.28125 -0.671875 -0.4375q-0.34375 -0.15625 -0.75 -0.15625q-0.4375 0 -0.8125 0.140625q-0.375 0.140625 -0.640625 0.40625q-0.25 0.265625 -0.40625 0.640625q-0.140625 0.359375 -0.140625 0.8125q0 0.453125 0.140625 0.8125q0.140625 0.359375 0.390625 0.625q0.265625 0.25 0.625 0.40625q0.375 0.140625 0.828125 0.140625q0.484375 0 0.875 -0.1875q0.40625 -0.1875 0.71875 -0.46875l0.40625 0.5625q-0.4375 0.390625 -0.96875 0.609375q-0.515625 0.203125 -1.09375 0.203125zm3.831314 -0.125l0 -7.59375l0.875 0l0 5.140625l0.046875 0l2.796875 -2.71875l1.0 0l-2.078125 2.03125l2.34375 3.140625l-0.96875 0l-1.90625 -2.609375l-1.234375 1.203125l0 1.40625l-0.875 0zm15.256378 0.125q-0.65625 0 -1.21875 -0.234375q-0.546875 -0.25 -0.953125 -0.71875q-0.40625 -0.46875 -0.640625 -1.140625q-0.21875 -0.671875 -0.21875 -1.53125q0 -0.84375 0.21875 -1.515625q0.234375 -0.671875 0.640625 -1.140625q0.421875 -0.46875 0.984375 -0.71875q0.578125 -0.25 1.265625 -0.25q0.34375 0 0.625 0.078125q0.296875 0.078125 0.53125 0.203125q0.25 0.125 0.4375 0.28125q0.1875 0.140625 0.328125 0.296875l-0.5 0.5625q-0.25 -0.28125 -0.59375 -0.453125q-0.328125 -0.1875 -0.828125 -0.1875q-0.5 0 -0.90625 0.203125q-0.390625 0.1875 -0.6875 0.5625q-0.28125 0.359375 -0.4375 0.890625q-0.15625 0.515625 -0.15625 1.171875q0 0.65625 0.140625 1.1875q0.15625 0.53125 0.421875 0.90625q0.28125 0.359375 0.6875 0.5625q0.40625 0.203125 0.90625 0.203125q0.375 0 0.6875 -0.109375q0.328125 -0.109375 0.53125 -0.296875l0 -1.828125l-1.390625 0l0 -0.734375l2.21875 0l0 2.9375q-0.34375 0.34375 -0.890625 0.578125q-0.53125 0.234375 -1.203125 0.234375zm4.362564 -0.125l0 -5.171875l0.71875 0l0.078125 1.21875l0.03125 0q0.40625 -0.625 0.984375 -0.984375q0.59375 -0.375 1.328125 -0.375q0.28125 0 0.53125 0.046875q0.25 0.046875 0.484375 0.171875l-0.203125 0.75q-0.265625 -0.09375 -0.453125 -0.125q-0.1875 -0.046875 -0.5 -0.046875q-0.59375 0 -1.125 0.34375q-0.53125 0.328125 -1.015625 1.140625l0 3.03125l-0.859375 0zm8.206314 0l0 -4.46875l-2.421875 0l0 -0.703125l3.28125 0l0 5.171875l-0.859375 0zm0.828125 -6.265625q-0.296875 0 -0.5 -0.1875q-0.203125 -0.1875 -0.203125 -0.5q0 -0.296875 0.203125 -0.484375q0.203125 -0.1875 0.5 -0.1875q0.296875 0 0.5 0.1875q0.203125 0.1875 0.203125 0.484375q0 0.3125 -0.203125 0.5q-0.203125 0.1875 -0.5 0.1875zm5.081314 6.390625q-0.515625 0 -0.921875 -0.171875q-0.40625 -0.1875 -0.71875 -0.53125q-0.296875 -0.34375 -0.453125 -0.84375q-0.15625 -0.5 -0.15625 -1.15625q0 -0.625 0.1875 -1.125q0.203125 -0.515625 0.53125 -0.859375q0.328125 -0.359375 0.75 -0.546875q0.421875 -0.203125 0.890625 -0.203125q0.46875 0 0.828125 0.1875q0.375 0.171875 0.71875 0.484375l0.03125 0l-0.046875 -0.953125l0 -2.0l0.875 0l0 7.59375l-0.734375 0l-0.0625 -0.6875l-0.03125 0q-0.328125 0.328125 -0.765625 0.578125q-0.4375 0.234375 -0.921875 0.234375zm0.171875 -0.734375q0.78125 0 1.46875 -0.78125l0 -2.578125q-0.359375 -0.328125 -0.703125 -0.46875q-0.328125 -0.140625 -0.65625 -0.140625q-0.34375 0 -0.640625 0.15625q-0.296875 0.140625 -0.515625 0.40625q-0.21875 0.25 -0.34375 0.625q-0.125 0.359375 -0.125 0.796875q0 0.9375 0.390625 1.46875q0.40625 0.515625 1.125 0.515625z" fill-rule="nonzero"/></g></svg>