<svg version="1.1" viewBox="0.0 0.0 170.83464566929135 244.53543307086613" fill="none" stroke="none" stroke-linecap="square" stroke-miterlimit="10" xmlns:xlink="http://www.w3.org/1999/xlink" xmlns="http://www.w3.org/2000/svg"><clipPath id="p.0"><path d="m0 0l170.83464 0l0 244.53543l-170.83464 0l0 -244.53543z" clip-rule="nonzero"/></clipPath><g clip-path="url(#p.0)"><path fill="#000000" fill-opacity="0.0" d="m0 0l170.83464 0l0 244.53543l-170.83464 0z" fill-rule="evenodd"/><path fill="#000000" fill-opacity="0.0" d="m19.139107 18.897638l18.89764 0l0 18.897638l-18.89764 0z" fill-rule="evenodd"/><path stroke="#f3f3f3" stroke-width="1.0" stroke-linejoin="round" stroke-linecap="butt" d="m19.139107 18.897638l18.89764 0l0 18.897638l-18.89764 0z" fill-rule="evenodd"/><path fill="#000000" fill-opacity="0.0" d="m19.139107 37.795277l18.89764 0l0 18.897636l-18.89764 0z" fill-rule="evenodd"/><path stroke="#f3f3f3" stroke-width="1.0" stroke-linejoin="round" stroke-linecap="butt" d="m19.139107 37.795277l18.89764 0l0 18.897636l-18.89764 0z" fill-rule="evenodd"/><path fill="#000000" fill-opacity="0.0" d="m0.24146982 0l18.897636 0l0 18.897638l-18.897636 0z" fill-rule="evenodd"/><path stroke="#f3f3f3" stroke-width="1.0" stroke-linejoin="round" stroke-linecap="butt" d="m0.24146982 0l18.897636 0l0 18.897638l-18.897636 0z" fill-rule="evenodd"/><path fill="#000000" fill-opacity="0.0" d="m0.24146982 18.897638l18.897636 0l0 18.897638l-18.897636 0z" fill-rule="evenodd"/><path stroke="#f3f3f3" stroke-width="1.0" stroke-linejoin="round" stroke-linecap="butt" d="m0.24146982 18.897638l18.897636 0l0 18.897638l-18.897636 0z" fill-rule="evenodd"/><path fill="#000000" fill-opacity="0.0" d="m0.24146982 37.795277l18.897636 0l0 18.897636l-18.897636 0z" fill-rule="evenodd"/><path stroke="#f3f3f3" stroke-width="1.0" stroke-linejoin="round" stroke-linecap="butt" d="m0.24146982 37.795277l18.897636 0l0 18.897636l-18.897636 0z" fill-rule="evenodd"/><path fill="#000000" fill-opacity="0.0" d="m0.24146982 56.692913l18.897636 0l0 18.89764l-18.897636 0z" fill-rule="evenodd"/><path stroke="#f3f3f3" stroke-width="1.0" stroke-linejoin="round" stroke-linecap="butt" d="m0.24146982 56.692913l18.897636 0l0 18.89764l-18.897636 0z" fill-rule="evenodd"/><path fill="#000000" fill-opacity="0.0" d="m19.139107 0l18.89764 0l0 18.897638l-18.89764 0z" fill-rule="evenodd"/><path stroke="#f3f3f3" stroke-width="1.0" stroke-linejoin="round" stroke-linecap="butt" d="m19.139107 0l18.89764 0l0 18.897638l-18.89764 0z" fill-rule="evenodd"/><path fill="#000000" fill-opacity="0.0" d="m19.139107 56.692913l18.89764 0l0 18.89764l-18.89764 0z" fill-rule="evenodd"/><path stroke="#f3f3f3" stroke-width="1.0" stroke-linejoin="round" stroke-linecap="butt" d="m19.139107 56.692913l18.89764 0l0 18.89764l-18.89764 0z" fill-rule="evenodd"/><path fill="#000000" fill-opacity="0.0" d="m38.036747 0l18.897636 0l0 18.897638l-18.897636 0z" fill-rule="evenodd"/><path stroke="#f3f3f3" stroke-width="1.0" stroke-linejoin="round" stroke-linecap="butt" d="m38.036747 0l18.897636 0l0 18.897638l-18.897636 0z" fill-rule="evenodd"/><path fill="#000000" fill-opacity="0.0" d="m38.036747 18.897638l18.897636 0l0 18.897638l-18.897636 0z" fill-rule="evenodd"/><path stroke="#f3f3f3" stroke-width="1.0" stroke-linejoin="round" stroke-linecap="butt" d="m38.036747 18.897638l18.897636 0l0 18.897638l-18.897636 0z" fill-rule="evenodd"/><path fill="#000000" fill-opacity="0.0" d="m38.036747 37.795277l18.897636 0l0 18.897636l-18.897636 0z" fill-rule="evenodd"/><path stroke="#f3f3f3" stroke-width="1.0" stroke-linejoin="round" stroke-linecap="butt" d="m38.036747 37.795277l18.897636 0l0 18.897636l-18.897636 0z" fill-rule="evenodd"/><path fill="#000000" fill-opacity="0.0" d="m38.036747 56.692913l18.897636 0l0 18.89764l-18.897636 0z" fill-rule="evenodd"/><path stroke="#f3f3f3" stroke-width="1.0" stroke-linejoin="round" stroke-linecap="butt" d="m38.036747 56.692913l18.897636 0l0 18.89764l-18.897636 0z" fill-rule="evenodd"/><path fill="#000000" fill-opacity="0.0" d="m56.934383 0l18.89764 0l0 18.897638l-18.89764 0z" fill-rule="evenodd"/><path stroke="#f3f3f3" stroke-width="1.0" stroke-linejoin="round" stroke-linecap="butt" d="m56.934383 0l18.89764 0l0 18.897638l-18.89764 0z" fill-rule="evenodd"/><path fill="#000000" fill-opacity="0.0" d="m56.934383 18.897638l18.89764 0l0 18.897638l-18.89764 0z" fill-rule="evenodd"/><path stroke="#f3f3f3" stroke-width="1.0" stroke-linejoin="round" stroke-linecap="butt" d="m56.934383 18.897638l18.89764 0l0 18.897638l-18.89764 0z" fill-rule="evenodd"/><path fill="#000000" fill-opacity="0.0" d="m56.934383 37.795277l18.89764 0l0 18.897636l-18.89764 0z" fill-rule="evenodd"/><path stroke="#f3f3f3" stroke-width="1.0" stroke-linejoin="round" stroke-linecap="butt" d="m56.934383 37.795277l18.89764 0l0 18.897636l-18.89764 0z" fill-rule="evenodd"/><path fill="#000000" fill-opacity="0.0" d="m56.934383 56.692913l18.89764 0l0 18.89764l-18.89764 0z" fill-rule="evenodd"/><path stroke="#f3f3f3" stroke-width="1.0" stroke-linejoin="round" stroke-linecap="butt" d="m56.934383 56.692913l18.89764 0l0 18.89764l-18.89764 0z" fill-rule="evenodd"/><path fill="#000000" fill-opacity="0.0" d="m75.83202 0l18.897636 0l0 18.897638l-18.897636 0z" fill-rule="evenodd"/><path stroke="#f3f3f3" stroke-width="1.0" stroke-linejoin="round" stroke-linecap="butt" d="m75.83202 0l18.897636 0l0 18.897638l-18.897636 0z" fill-rule="evenodd"/><path fill="#000000" fill-opacity="0.0" d="m75.83202 18.897638l18.897636 0l0 18.897638l-18.897636 0z" fill-rule="evenodd"/><path stroke="#f3f3f3" stroke-width="1.0" stroke-linejoin="round" stroke-linecap="butt" d="m75.83202 18.897638l18.897636 0l0 18.897638l-18.897636 0z" fill-rule="evenodd"/><path fill="#000000" fill-opacity="0.0" d="m75.83202 37.795277l18.897636 0l0 18.897636l-18.897636 0z" fill-rule="evenodd"/><path stroke="#f3f3f3" stroke-width="1.0" stroke-linejoin="round" stroke-linecap="butt" d="m75.83202 37.795277l18.897636 0l0 18.897636l-18.897636 0z" fill-rule="evenodd"/><path fill="#000000" fill-opacity="0.0" d="m75.83202 56.692913l18.897636 0l0 18.89764l-18.897636 0z" fill-rule="evenodd"/><path stroke="#f3f3f3" stroke-width="1.0" stroke-linejoin="round" stroke-linecap="butt" d="m75.83202 56.692913l18.897636 0l0 18.89764l-18.897636 0z" fill-rule="evenodd"/><path fill="#000000" fill-opacity="0.0" d="m94.72966 0l18.897636 0l0 18.897638l-18.897636 0z" fill-rule="evenodd"/><path stroke="#f3f3f3" stroke-width="1.0" stroke-linejoin="round" stroke-linecap="butt" d="m94.72966 0l18.897636 0l0 18.897638l-18.897636 0z" fill-rule="evenodd"/><path fill="#000000" fill-opacity="0.0" d="m94.72966 18.897638l18.897636 0l0 18.897638l-18.897636 0z" fill-rule="evenodd"/><path stroke="#f3f3f3" stroke-width="1.0" stroke-linejoin="round" stroke-linecap="butt" d="m94.72966 18.897638l18.897636 0l0 18.897638l-18.897636 0z" fill-rule="evenodd"/><path fill="#000000" fill-opacity="0.0" d="m94.72966 37.795277l18.897636 0l0 18.897636l-18.897636 0z" fill-rule="evenodd"/><path stroke="#f3f3f3" stroke-width="1.0" stroke-linejoin="round" stroke-linecap="butt" d="m94.72966 37.795277l18.897636 0l0 18.897636l-18.897636 0z" fill-rule="evenodd"/><path fill="#000000" fill-opacity="0.0" d="m94.72966 56.692913l18.897636 0l0 18.89764l-18.897636 0z" fill-rule="evenodd"/><path stroke="#f3f3f3" stroke-width="1.0" stroke-linejoin="round" stroke-linecap="butt" d="m94.72966 56.692913l18.897636 0l0 18.89764l-18.897636 0z" fill-rule="evenodd"/><path fill="#000000" fill-opacity="0.0" d="m113.6273 0l18.897636 0l0 18.897638l-18.897636 0z" fill-rule="evenodd"/><path stroke="#f3f3f3" stroke-width="1.0" stroke-linejoin="round" stroke-linecap="butt" d="m113.6273 0l18.897636 0l0 18.897638l-18.897636 0z" fill-rule="evenodd"/><path fill="#000000" fill-opacity="0.0" d="m113.6273 18.897638l18.897636 0l0 18.897638l-18.897636 0z" fill-rule="evenodd"/><path stroke="#f3f3f3" stroke-width="1.0" stroke-linejoin="round" stroke-linecap="butt" d="m113.6273 18.897638l18.897636 0l0 18.897638l-18.897636 0z" fill-rule="evenodd"/><path fill="#000000" fill-opacity="0.0" d="m113.6273 37.795277l18.897636 0l0 18.897636l-18.897636 0z" fill-rule="evenodd"/><path stroke="#f3f3f3" stroke-width="1.0" stroke-linejoin="round" stroke-linecap="butt" d="m113.6273 37.795277l18.897636 0l0 18.897636l-18.897636 0z" fill-rule="evenodd"/><path fill="#000000" fill-opacity="0.0" d="m0.24146982 75.779526l18.897636 0l0 18.897636l-18.897636 0z" fill-rule="evenodd"/><path stroke="#f3f3f3" stroke-width="1.0" stroke-linejoin="round" stroke-linecap="butt" d="m0.24146982 75.779526l18.897636 0l0 18.897636l-18.897636 0z" fill-rule="evenodd"/><path fill="#000000" fill-opacity="0.0" d="m19.139107 75.779526l18.89764 0l0 18.897636l-18.89764 0z" fill-rule="evenodd"/><path stroke="#f3f3f3" stroke-width="1.0" stroke-linejoin="round" stroke-linecap="butt" d="m19.139107 75.779526l18.89764 0l0 18.897636l-18.89764 0z" fill-rule="evenodd"/><path fill="#000000" fill-opacity="0.0" d="m38.036747 75.779526l18.897636 0l0 18.897636l-18.897636 0z" fill-rule="evenodd"/><path stroke="#f3f3f3" stroke-width="1.0" stroke-linejoin="round" stroke-linecap="butt" d="m38.036747 75.779526l18.897636 0l0 18.897636l-18.897636 0z" fill-rule="evenodd"/><path fill="#000000" fill-opacity="0.0" d="m56.934383 75.779526l18.89764 0l0 18.897636l-18.89764 0z" fill-rule="evenodd"/><path stroke="#f3f3f3" stroke-width="1.0" stroke-linejoin="round" stroke-linecap="butt" d="m56.934383 75.779526l18.89764 0l0 18.897636l-18.89764 0z" fill-rule="evenodd"/><path fill="#000000" fill-opacity="0.0" d="m75.83202 75.779526l18.897636 0l0 18.897636l-18.897636 0z" fill-rule="evenodd"/><path stroke="#f3f3f3" stroke-width="1.0" stroke-linejoin="round" stroke-linecap="butt" d="m75.83202 75.779526l18.897636 0l0 18.897636l-18.897636 0z" fill-rule="evenodd"/><path fill="#000000" fill-opacity="0.0" d="m94.72966 75.779526l18.897636 0l0 18.897636l-18.897636 0z" fill-rule="evenodd"/><path stroke="#f3f3f3" stroke-width="1.0" stroke-linejoin="round" stroke-linecap="butt" d="m94.72966 75.779526l18.897636 0l0 18.897636l-18.897636 0z" fill-rule="evenodd"/><path fill="#000000" fill-opacity="0.0" d="m132.52493 0l18.897644 0l0 18.897638l-18.897644 0z" fill-rule="evenodd"/><path stroke="#f3f3f3" stroke-width="1.0" stroke-linejoin="round" stroke-linecap="butt" d="m132.52493 0l18.897644 0l0 18.897638l-18.897644 0z" fill-rule="evenodd"/><path fill="#000000" fill-opacity="0.0" d="m132.52493 18.897638l18.897644 0l0 18.897638l-18.897644 0z" fill-rule="evenodd"/><path stroke="#f3f3f3" stroke-width="1.0" stroke-linejoin="round" stroke-linecap="butt" d="m132.52493 18.897638l18.897644 0l0 18.897638l-18.897644 0z" fill-rule="evenodd"/><path fill="#000000" fill-opacity="0.0" d="m132.52493 37.795277l18.897644 0l0 18.897636l-18.897644 0z" fill-rule="evenodd"/><path stroke="#f3f3f3" stroke-width="1.0" stroke-linejoin="round" stroke-linecap="butt" d="m132.52493 37.795277l18.897644 0l0 18.897636l-18.897644 0z" fill-rule="evenodd"/><path fill="#000000" fill-opacity="0.0" d="m113.88256 56.692913l18.897636 0l0 18.89764l-18.897636 0z" fill-rule="evenodd"/><path stroke="#f3f3f3" stroke-width="1.0" stroke-linejoin="round" stroke-linecap="butt" d="m113.88256 56.692913l18.897636 0l0 18.89764l-18.897636 0z" fill-rule="evenodd"/><path fill="#000000" fill-opacity="0.0" d="m132.7802 56.692913l18.897644 0l0 18.89764l-18.897644 0z" fill-rule="evenodd"/><path stroke="#f3f3f3" stroke-width="1.0" stroke-linejoin="round" stroke-linecap="butt" d="m132.7802 56.692913l18.897644 0l0 18.89764l-18.897644 0z" fill-rule="evenodd"/><path fill="#000000" fill-opacity="0.0" d="m113.88256 75.779526l18.897636 0l0 18.897636l-18.897636 0z" fill-rule="evenodd"/><path stroke="#f3f3f3" stroke-width="1.0" stroke-linejoin="round" stroke-linecap="butt" d="m113.88256 75.779526l18.897636 0l0 18.897636l-18.897636 0z" fill-rule="evenodd"/><path fill="#000000" fill-opacity="0.0" d="m132.7802 75.779526l18.897644 0l0 18.897636l-18.897644 0z" fill-rule="evenodd"/><path stroke="#f3f3f3" stroke-width="1.0" stroke-linejoin="round" stroke-linecap="butt" d="m132.7802 75.779526l18.897644 0l0 18.897636l-18.897644 0z" fill-rule="evenodd"/><path fill="#000000" fill-opacity="0.0" d="m151.65129 0l18.897629 0l0 18.897638l-18.897629 0z" fill-rule="evenodd"/><path stroke="#f3f3f3" stroke-width="1.0" stroke-linejoin="round" stroke-linecap="butt" d="m151.65129 0l18.897629 0l0 18.897638l-18.897629 0z" fill-rule="evenodd"/><path fill="#000000" fill-opacity="0.0" d="m151.65129 18.897638l18.897629 0l0 18.897638l-18.897629 0z" fill-rule="evenodd"/><path stroke="#f3f3f3" stroke-width="1.0" stroke-linejoin="round" stroke-linecap="butt" d="m151.65129 18.897638l18.897629 0l0 18.897638l-18.897629 0z" fill-rule="evenodd"/><path fill="#000000" fill-opacity="0.0" d="m151.65129 37.795277l18.897629 0l0 18.897636l-18.897629 0z" fill-rule="evenodd"/><path stroke="#f3f3f3" stroke-width="1.0" stroke-linejoin="round" stroke-linecap="butt" d="m151.65129 37.795277l18.897629 0l0 18.897636l-18.897629 0z" fill-rule="evenodd"/><path fill="#000000" fill-opacity="0.0" d="m151.90656 56.692913l18.897644 0l0 18.89764l-18.897644 0z" fill-rule="evenodd"/><path stroke="#f3f3f3" stroke-width="1.0" stroke-linejoin="round" stroke-linecap="butt" d="m151.90656 56.692913l18.897644 0l0 18.89764l-18.897644 0z" fill-rule="evenodd"/><path fill="#000000" fill-opacity="0.0" d="m151.90656 75.779526l18.897644 0l0 18.897636l-18.897644 0z" fill-rule="evenodd"/><path stroke="#f3f3f3" stroke-width="1.0" stroke-linejoin="round" stroke-linecap="butt" d="m151.90656 75.779526l18.897644 0l0 18.897636l-18.897644 0z" fill-rule="evenodd"/><path fill="#000000" fill-opacity="0.0" d="m19.139107 112.94818l18.89764 0l0 18.897629l-18.89764 0z" fill-rule="evenodd"/><path stroke="#f3f3f3" stroke-width="1.0" stroke-linejoin="round" stroke-linecap="butt" d="m19.139107 112.94818l18.89764 0l0 18.897629l-18.89764 0z" fill-rule="evenodd"/><path fill="#000000" fill-opacity="0.0" d="m19.139107 131.84581l18.89764 0l0 18.897644l-18.89764 0z" fill-rule="evenodd"/><path stroke="#f3f3f3" stroke-width="1.0" stroke-linejoin="round" stroke-linecap="butt" d="m19.139107 131.84581l18.89764 0l0 18.897644l-18.89764 0z" fill-rule="evenodd"/><path fill="#000000" fill-opacity="0.0" d="m0.24146982 94.050545l18.897636 0l0 18.897636l-18.897636 0z" fill-rule="evenodd"/><path stroke="#f3f3f3" stroke-width="1.0" stroke-linejoin="round" stroke-linecap="butt" d="m0.24146982 94.050545l18.897636 0l0 18.897636l-18.897636 0z" fill-rule="evenodd"/><path fill="#000000" fill-opacity="0.0" d="m0.24146982 112.94818l18.897636 0l0 18.897629l-18.897636 0z" fill-rule="evenodd"/><path stroke="#f3f3f3" stroke-width="1.0" stroke-linejoin="round" stroke-linecap="butt" d="m0.24146982 112.94818l18.897636 0l0 18.897629l-18.897636 0z" fill-rule="evenodd"/><path fill="#000000" fill-opacity="0.0" d="m0.24146982 131.84581l18.897636 0l0 18.897644l-18.897636 0z" fill-rule="evenodd"/><path stroke="#f3f3f3" stroke-width="1.0" stroke-linejoin="round" stroke-linecap="butt" d="m0.24146982 131.84581l18.897636 0l0 18.897644l-18.897636 0z" fill-rule="evenodd"/><path fill="#000000" fill-opacity="0.0" d="m0.24146982 150.74345l18.897636 0l0 18.897644l-18.897636 0z" fill-rule="evenodd"/><path stroke="#f3f3f3" stroke-width="1.0" stroke-linejoin="round" stroke-linecap="butt" d="m0.24146982 150.74345l18.897636 0l0 18.897644l-18.897636 0z" fill-rule="evenodd"/><path fill="#000000" fill-opacity="0.0" d="m19.139107 94.050545l18.89764 0l0 18.897636l-18.89764 0z" fill-rule="evenodd"/><path stroke="#f3f3f3" stroke-width="1.0" stroke-linejoin="round" stroke-linecap="butt" d="m19.139107 94.050545l18.89764 0l0 18.897636l-18.89764 0z" fill-rule="evenodd"/><path fill="#000000" fill-opacity="0.0" d="m19.139107 150.74345l18.89764 0l0 18.897644l-18.89764 0z" fill-rule="evenodd"/><path stroke="#f3f3f3" stroke-width="1.0" stroke-linejoin="round" stroke-linecap="butt" d="m19.139107 150.74345l18.89764 0l0 18.897644l-18.89764 0z" fill-rule="evenodd"/><path fill="#000000" fill-opacity="0.0" d="m38.036747 94.050545l18.897636 0l0 18.897636l-18.897636 0z" fill-rule="evenodd"/><path stroke="#f3f3f3" stroke-width="1.0" stroke-linejoin="round" stroke-linecap="butt" d="m38.036747 94.050545l18.897636 0l0 18.897636l-18.897636 0z" fill-rule="evenodd"/><path fill="#000000" fill-opacity="0.0" d="m38.036747 112.94818l18.897636 0l0 18.897629l-18.897636 0z" fill-rule="evenodd"/><path stroke="#f3f3f3" stroke-width="1.0" stroke-linejoin="round" stroke-linecap="butt" d="m38.036747 112.94818l18.897636 0l0 18.897629l-18.897636 0z" fill-rule="evenodd"/><path fill="#000000" fill-opacity="0.0" d="m38.036747 131.84581l18.897636 0l0 18.897644l-18.897636 0z" fill-rule="evenodd"/><path stroke="#f3f3f3" stroke-width="1.0" stroke-linejoin="round" stroke-linecap="butt" d="m38.036747 131.84581l18.897636 0l0 18.897644l-18.897636 0z" fill-rule="evenodd"/><path fill="#000000" fill-opacity="0.0" d="m38.036747 150.74345l18.897636 0l0 18.897644l-18.897636 0z" fill-rule="evenodd"/><path stroke="#f3f3f3" stroke-width="1.0" stroke-linejoin="round" stroke-linecap="butt" d="m38.036747 150.74345l18.897636 0l0 18.897644l-18.897636 0z" fill-rule="evenodd"/><path fill="#000000" fill-opacity="0.0" d="m56.934383 94.050545l18.89764 0l0 18.897636l-18.89764 0z" fill-rule="evenodd"/><path stroke="#f3f3f3" stroke-width="1.0" stroke-linejoin="round" stroke-linecap="butt" d="m56.934383 94.050545l18.89764 0l0 18.897636l-18.89764 0z" fill-rule="evenodd"/><path fill="#000000" fill-opacity="0.0" d="m56.934383 112.94818l18.89764 0l0 18.897629l-18.89764 0z" fill-rule="evenodd"/><path stroke="#f3f3f3" stroke-width="1.0" stroke-linejoin="round" stroke-linecap="butt" d="m56.934383 112.94818l18.89764 0l0 18.897629l-18.89764 0z" fill-rule="evenodd"/><path fill="#000000" fill-opacity="0.0" d="m56.934383 131.84581l18.89764 0l0 18.897644l-18.89764 0z" fill-rule="evenodd"/><path stroke="#f3f3f3" stroke-width="1.0" stroke-linejoin="round" stroke-linecap="butt" d="m56.934383 131.84581l18.89764 0l0 18.897644l-18.89764 0z" fill-rule="evenodd"/><path fill="#000000" fill-opacity="0.0" d="m56.934383 150.74345l18.89764 0l0 18.897644l-18.89764 0z" fill-rule="evenodd"/><path stroke="#f3f3f3" stroke-width="1.0" stroke-linejoin="round" stroke-linecap="butt" d="m56.934383 150.74345l18.89764 0l0 18.897644l-18.89764 0z" fill-rule="evenodd"/><path fill="#000000" fill-opacity="0.0" d="m75.83202 94.050545l18.897636 0l0 18.897636l-18.897636 0z" fill-rule="evenodd"/><path stroke="#f3f3f3" stroke-width="1.0" stroke-linejoin="round" stroke-linecap="butt" d="m75.83202 94.050545l18.897636 0l0 18.897636l-18.897636 0z" fill-rule="evenodd"/><path fill="#000000" fill-opacity="0.0" d="m75.83202 112.94818l18.897636 0l0 18.897629l-18.897636 0z" fill-rule="evenodd"/><path stroke="#f3f3f3" stroke-width="1.0" stroke-linejoin="round" stroke-linecap="butt" d="m75.83202 112.94818l18.897636 0l0 18.897629l-18.897636 0z" fill-rule="evenodd"/><path fill="#000000" fill-opacity="0.0" d="m75.83202 131.84581l18.897636 0l0 18.897644l-18.897636 0z" fill-rule="evenodd"/><path stroke="#f3f3f3" stroke-width="1.0" stroke-linejoin="round" stroke-linecap="butt" d="m75.83202 131.84581l18.897636 0l0 18.897644l-18.897636 0z" fill-rule="evenodd"/><path fill="#000000" fill-opacity="0.0" d="m75.83202 150.74345l18.897636 0l0 18.897644l-18.897636 0z" fill-rule="evenodd"/><path stroke="#f3f3f3" stroke-width="1.0" stroke-linejoin="round" stroke-linecap="butt" d="m75.83202 150.74345l18.897636 0l0 18.897644l-18.897636 0z" fill-rule="evenodd"/><path fill="#000000" fill-opacity="0.0" d="m94.72966 94.050545l18.897636 0l0 18.897636l-18.897636 0z" fill-rule="evenodd"/><path stroke="#f3f3f3" stroke-width="1.0" stroke-linejoin="round" stroke-linecap="butt" d="m94.72966 94.050545l18.897636 0l0 18.897636l-18.897636 0z" fill-rule="evenodd"/><path fill="#000000" fill-opacity="0.0" d="m94.72966 112.94818l18.897636 0l0 18.897629l-18.897636 0z" fill-rule="evenodd"/><path stroke="#f3f3f3" stroke-width="1.0" stroke-linejoin="round" stroke-linecap="butt" d="m94.72966 112.94818l18.897636 0l0 18.897629l-18.897636 0z" fill-rule="evenodd"/><path fill="#000000" fill-opacity="0.0" d="m94.72966 131.84581l18.897636 0l0 18.897644l-18.897636 0z" fill-rule="evenodd"/><path stroke="#f3f3f3" stroke-width="1.0" stroke-linejoin="round" stroke-linecap="butt" d="m94.72966 131.84581l18.897636 0l0 18.897644l-18.897636 0z" fill-rule="evenodd"/><path fill="#000000" fill-opacity="0.0" d="m94.72966 150.74345l18.897636 0l0 18.897644l-18.897636 0z" fill-rule="evenodd"/><path stroke="#f3f3f3" stroke-width="1.0" stroke-linejoin="round" stroke-linecap="butt" d="m94.72966 150.74345l18.897636 0l0 18.897644l-18.897636 0z" fill-rule="evenodd"/><path fill="#000000" fill-opacity="0.0" d="m113.6273 94.050545l18.897636 0l0 18.897636l-18.897636 0z" fill-rule="evenodd"/><path stroke="#f3f3f3" stroke-width="1.0" stroke-linejoin="round" stroke-linecap="butt" d="m113.6273 94.050545l18.897636 0l0 18.897636l-18.897636 0z" fill-rule="evenodd"/><path fill="#000000" fill-opacity="0.0" d="m113.6273 112.94818l18.897636 0l0 18.897629l-18.897636 0z" fill-rule="evenodd"/><path stroke="#f3f3f3" stroke-width="1.0" stroke-linejoin="round" stroke-linecap="butt" d="m113.6273 112.94818l18.897636 0l0 18.897629l-18.897636 0z" fill-rule="evenodd"/><path fill="#000000" fill-opacity="0.0" d="m113.6273 131.84581l18.897636 0l0 18.897644l-18.897636 0z" fill-rule="evenodd"/><path stroke="#f3f3f3" stroke-width="1.0" stroke-linejoin="round" stroke-linecap="butt" d="m113.6273 131.84581l18.897636 0l0 18.897644l-18.897636 0z" fill-rule="evenodd"/><path fill="#000000" fill-opacity="0.0" d="m0.24146982 169.83006l18.897636 0l0 18.897644l-18.897636 0z" fill-rule="evenodd"/><path stroke="#f3f3f3" stroke-width="1.0" stroke-linejoin="round" stroke-linecap="butt" d="m0.24146982 169.83006l18.897636 0l0 18.897644l-18.897636 0z" fill-rule="evenodd"/><path fill="#000000" fill-opacity="0.0" d="m19.139107 169.83006l18.89764 0l0 18.897644l-18.89764 0z" fill-rule="evenodd"/><path stroke="#f3f3f3" stroke-width="1.0" stroke-linejoin="round" stroke-linecap="butt" d="m19.139107 169.83006l18.89764 0l0 18.897644l-18.89764 0z" fill-rule="evenodd"/><path fill="#000000" fill-opacity="0.0" d="m38.036747 169.83006l18.897636 0l0 18.897644l-18.897636 0z" fill-rule="evenodd"/><path stroke="#f3f3f3" stroke-width="1.0" stroke-linejoin="round" stroke-linecap="butt" d="m38.036747 169.83006l18.897636 0l0 18.897644l-18.897636 0z" fill-rule="evenodd"/><path fill="#000000" fill-opacity="0.0" d="m56.934383 169.83006l18.89764 0l0 18.897644l-18.89764 0z" fill-rule="evenodd"/><path stroke="#f3f3f3" stroke-width="1.0" stroke-linejoin="round" stroke-linecap="butt" d="m56.934383 169.83006l18.89764 0l0 18.897644l-18.89764 0z" fill-rule="evenodd"/><path fill="#000000" fill-opacity="0.0" d="m75.83202 169.83006l18.897636 0l0 18.897644l-18.897636 0z" fill-rule="evenodd"/><path stroke="#f3f3f3" stroke-width="1.0" stroke-linejoin="round" stroke-linecap="butt" d="m75.83202 169.83006l18.897636 0l0 18.897644l-18.897636 0z" fill-rule="evenodd"/><path fill="#000000" fill-opacity="0.0" d="m94.72966 169.83006l18.897636 0l0 18.897644l-18.897636 0z" fill-rule="evenodd"/><path stroke="#f3f3f3" stroke-width="1.0" stroke-linejoin="round" stroke-linecap="butt" d="m94.72966 169.83006l18.897636 0l0 18.897644l-18.897636 0z" fill-rule="evenodd"/><path fill="#000000" fill-opacity="0.0" d="m132.52493 94.050545l18.897644 0l0 18.897636l-18.897644 0z" fill-rule="evenodd"/><path stroke="#f3f3f3" stroke-width="1.0" stroke-linejoin="round" stroke-linecap="butt" d="m132.52493 94.050545l18.897644 0l0 18.897636l-18.897644 0z" fill-rule="evenodd"/><path fill="#000000" fill-opacity="0.0" d="m132.52493 112.94818l18.897644 0l0 18.897629l-18.897644 0z" fill-rule="evenodd"/><path stroke="#f3f3f3" stroke-width="1.0" stroke-linejoin="round" stroke-linecap="butt" d="m132.52493 112.94818l18.897644 0l0 18.897629l-18.897644 0z" fill-rule="evenodd"/><path fill="#000000" fill-opacity="0.0" d="m132.52493 131.84581l18.897644 0l0 18.897644l-18.897644 0z" fill-rule="evenodd"/><path stroke="#f3f3f3" stroke-width="1.0" stroke-linejoin="round" stroke-linecap="butt" d="m132.52493 131.84581l18.897644 0l0 18.897644l-18.897644 0z" fill-rule="evenodd"/><path fill="#000000" fill-opacity="0.0" d="m113.88256 150.74345l18.897636 0l0 18.897644l-18.897636 0z" fill-rule="evenodd"/><path stroke="#f3f3f3" stroke-width="1.0" stroke-linejoin="round" stroke-linecap="butt" d="m113.88256 150.74345l18.897636 0l0 18.897644l-18.897636 0z" fill-rule="evenodd"/><path fill="#000000" fill-opacity="0.0" d="m132.7802 150.74345l18.897644 0l0 18.897644l-18.897644 0z" fill-rule="evenodd"/><path stroke="#f3f3f3" stroke-width="1.0" stroke-linejoin="round" stroke-linecap="butt" d="m132.7802 150.74345l18.897644 0l0 18.897644l-18.897644 0z" fill-rule="evenodd"/><path fill="#000000" fill-opacity="0.0" d="m113.88256 169.83006l18.897636 0l0 18.897644l-18.897636 0z" fill-rule="evenodd"/><path stroke="#f3f3f3" stroke-width="1.0" stroke-linejoin="round" stroke-linecap="butt" d="m113.88256 169.83006l18.897636 0l0 18.897644l-18.897636 0z" fill-rule="evenodd"/><path fill="#000000" fill-opacity="0.0" d="m132.7802 169.83006l18.897644 0l0 18.897644l-18.897644 0z" fill-rule="evenodd"/><path stroke="#f3f3f3" stroke-width="1.0" stroke-linejoin="round" stroke-linecap="butt" d="m132.7802 169.83006l18.897644 0l0 18.897644l-18.897644 0z" fill-rule="evenodd"/><path fill="#000000" fill-opacity="0.0" d="m151.65129 94.050545l18.897629 0l0 18.897636l-18.897629 0z" fill-rule="evenodd"/><path stroke="#f3f3f3" stroke-width="1.0" stroke-linejoin="round" stroke-linecap="butt" d="m151.65129 94.050545l18.897629 0l0 18.897636l-18.897629 0z" fill-rule="evenodd"/><path fill="#000000" fill-opacity="0.0" d="m151.65129 112.94818l18.897629 0l0 18.897629l-18.897629 0z" fill-rule="evenodd"/><path stroke="#f3f3f3" stroke-width="1.0" stroke-linejoin="round" stroke-linecap="butt" d="m151.65129 112.94818l18.897629 0l0 18.897629l-18.897629 0z" fill-rule="evenodd"/><path fill="#000000" fill-opacity="0.0" d="m151.65129 131.84581l18.897629 0l0 18.897644l-18.897629 0z" fill-rule="evenodd"/><path stroke="#f3f3f3" stroke-width="1.0" stroke-linejoin="round" stroke-linecap="butt" d="m151.65129 131.84581l18.897629 0l0 18.897644l-18.897629 0z" fill-rule="evenodd"/><path fill="#000000" fill-opacity="0.0" d="m151.90656 150.74345l18.897644 0l0 18.897644l-18.897644 0z" fill-rule="evenodd"/><path stroke="#f3f3f3" stroke-width="1.0" stroke-linejoin="round" stroke-linecap="butt" d="m151.90656 150.74345l18.897644 0l0 18.897644l-18.897644 0z" fill-rule="evenodd"/><path fill="#000000" fill-opacity="0.0" d="m151.90656 169.83006l18.897644 0l0 18.897644l-18.897644 0z" fill-rule="evenodd"/><path stroke="#f3f3f3" stroke-width="1.0" stroke-linejoin="round" stroke-linecap="butt" d="m151.90656 169.83006l18.897644 0l0 18.897644l-18.897644 0z" fill-rule="evenodd"/><path fill="#000000" fill-opacity="0.0" d="m18.897638 206.83891l18.897638 0l0 18.897644l-18.897638 0z" fill-rule="evenodd"/><path stroke="#f3f3f3" stroke-width="1.0" stroke-linejoin="round" stroke-linecap="butt" d="m18.897638 206.83891l18.897638 0l0 18.897644l-18.897638 0z" fill-rule="evenodd"/><path fill="#000000" fill-opacity="0.0" d="m18.897638 225.73656l18.897638 0l0 18.897644l-18.897638 0z" fill-rule="evenodd"/><path stroke="#f3f3f3" stroke-width="1.0" stroke-linejoin="round" stroke-linecap="butt" d="m18.897638 225.73656l18.897638 0l0 18.897644l-18.897638 0z" fill-rule="evenodd"/><path fill="#000000" fill-opacity="0.0" d="m0 187.94128l18.897638 0l0 18.897629l-18.897638 0z" fill-rule="evenodd"/><path stroke="#f3f3f3" stroke-width="1.0" stroke-linejoin="round" stroke-linecap="butt" d="m0 187.94128l18.897638 0l0 18.897629l-18.897638 0z" fill-rule="evenodd"/><path fill="#000000" fill-opacity="0.0" d="m0 206.83891l18.897638 0l0 18.897644l-18.897638 0z" fill-rule="evenodd"/><path stroke="#f3f3f3" stroke-width="1.0" stroke-linejoin="round" stroke-linecap="butt" d="m0 206.83891l18.897638 0l0 18.897644l-18.897638 0z" fill-rule="evenodd"/><path fill="#000000" fill-opacity="0.0" d="m0 225.73656l18.897638 0l0 18.897644l-18.897638 0z" fill-rule="evenodd"/><path stroke="#f3f3f3" stroke-width="1.0" stroke-linejoin="round" stroke-linecap="butt" d="m0 225.73656l18.897638 0l0 18.897644l-18.897638 0z" fill-rule="evenodd"/><path fill="#000000" fill-opacity="0.0" d="m18.897638 187.94128l18.897638 0l0 18.897629l-18.897638 0z" fill-rule="evenodd"/><path stroke="#f3f3f3" stroke-width="1.0" stroke-linejoin="round" stroke-linecap="butt" d="m18.897638 187.94128l18.897638 0l0 18.897629l-18.897638 0z" fill-rule="evenodd"/><path fill="#000000" fill-opacity="0.0" d="m37.795277 187.94128l18.897636 0l0 18.897629l-18.897636 0z" fill-rule="evenodd"/><path stroke="#f3f3f3" stroke-width="1.0" stroke-linejoin="round" stroke-linecap="butt" d="m37.795277 187.94128l18.897636 0l0 18.897629l-18.897636 0z" fill-rule="evenodd"/><path fill="#000000" fill-opacity="0.0" d="m37.795277 206.83891l18.897636 0l0 18.897644l-18.897636 0z" fill-rule="evenodd"/><path stroke="#f3f3f3" stroke-width="1.0" stroke-linejoin="round" stroke-linecap="butt" d="m37.795277 206.83891l18.897636 0l0 18.897644l-18.897636 0z" fill-rule="evenodd"/><path fill="#000000" fill-opacity="0.0" d="m37.795277 225.73656l18.897636 0l0 18.897644l-18.897636 0z" fill-rule="evenodd"/><path stroke="#f3f3f3" stroke-width="1.0" stroke-linejoin="round" stroke-linecap="butt" d="m37.795277 225.73656l18.897636 0l0 18.897644l-18.897636 0z" fill-rule="evenodd"/><path fill="#000000" fill-opacity="0.0" d="m56.692913 187.94128l18.89764 0l0 18.897629l-18.89764 0z" fill-rule="evenodd"/><path stroke="#f3f3f3" stroke-width="1.0" stroke-linejoin="round" stroke-linecap="butt" d="m56.692913 187.94128l18.89764 0l0 18.897629l-18.89764 0z" fill-rule="evenodd"/><path fill="#000000" fill-opacity="0.0" d="m56.692913 206.83891l18.89764 0l0 18.897644l-18.89764 0z" fill-rule="evenodd"/><path stroke="#f3f3f3" stroke-width="1.0" stroke-linejoin="round" stroke-linecap="butt" d="m56.692913 206.83891l18.89764 0l0 18.897644l-18.89764 0z" fill-rule="evenodd"/><path fill="#000000" fill-opacity="0.0" d="m56.692913 225.73656l18.89764 0l0 18.897644l-18.89764 0z" fill-rule="evenodd"/><path stroke="#f3f3f3" stroke-width="1.0" stroke-linejoin="round" stroke-linecap="butt" d="m56.692913 225.73656l18.89764 0l0 18.897644l-18.89764 0z" fill-rule="evenodd"/><path fill="#000000" fill-opacity="0.0" d="m75.59055 187.94128l18.897636 0l0 18.897629l-18.897636 0z" fill-rule="evenodd"/><path stroke="#f3f3f3" stroke-width="1.0" stroke-linejoin="round" stroke-linecap="butt" d="m75.59055 187.94128l18.897636 0l0 18.897629l-18.897636 0z" fill-rule="evenodd"/><path fill="#000000" fill-opacity="0.0" d="m75.59055 206.83891l18.897636 0l0 18.897644l-18.897636 0z" fill-rule="evenodd"/><path stroke="#f3f3f3" stroke-width="1.0" stroke-linejoin="round" stroke-linecap="butt" d="m75.59055 206.83891l18.897636 0l0 18.897644l-18.897636 0z" fill-rule="evenodd"/><path fill="#000000" fill-opacity="0.0" d="m75.59055 225.73656l18.897636 0l0 18.897644l-18.897636 0z" fill-rule="evenodd"/><path stroke="#f3f3f3" stroke-width="1.0" stroke-linejoin="round" stroke-linecap="butt" d="m75.59055 225.73656l18.897636 0l0 18.897644l-18.897636 0z" fill-rule="evenodd"/><path fill="#000000" fill-opacity="0.0" d="m94.48819 187.94128l18.897636 0l0 18.897629l-18.897636 0z" fill-rule="evenodd"/><path stroke="#f3f3f3" stroke-width="1.0" stroke-linejoin="round" stroke-linecap="butt" d="m94.48819 187.94128l18.897636 0l0 18.897629l-18.897636 0z" fill-rule="evenodd"/><path fill="#000000" fill-opacity="0.0" d="m94.48819 206.83891l18.897636 0l0 18.897644l-18.897636 0z" fill-rule="evenodd"/><path stroke="#f3f3f3" stroke-width="1.0" stroke-linejoin="round" stroke-linecap="butt" d="m94.48819 206.83891l18.897636 0l0 18.897644l-18.897636 0z" fill-rule="evenodd"/><path fill="#000000" fill-opacity="0.0" d="m94.48819 225.73656l18.897636 0l0 18.897644l-18.897636 0z" fill-rule="evenodd"/><path stroke="#f3f3f3" stroke-width="1.0" stroke-linejoin="round" stroke-linecap="butt" d="m94.48819 225.73656l18.897636 0l0 18.897644l-18.897636 0z" fill-rule="evenodd"/><path fill="#000000" fill-opacity="0.0" d="m113.385826 187.94128l18.897636 0l0 18.897629l-18.897636 0z" fill-rule="evenodd"/><path stroke="#f3f3f3" stroke-width="1.0" stroke-linejoin="round" stroke-linecap="butt" d="m113.385826 187.94128l18.897636 0l0 18.897629l-18.897636 0z" fill-rule="evenodd"/><path fill="#000000" fill-opacity="0.0" d="m113.385826 206.83891l18.897636 0l0 18.897644l-18.897636 0z" fill-rule="evenodd"/><path stroke="#f3f3f3" stroke-width="1.0" stroke-linejoin="round" stroke-linecap="butt" d="m113.385826 206.83891l18.897636 0l0 18.897644l-18.897636 0z" fill-rule="evenodd"/><path fill="#000000" fill-opacity="0.0" d="m113.385826 225.73656l18.897636 0l0 18.897644l-18.897636 0z" fill-rule="evenodd"/><path stroke="#f3f3f3" stroke-width="1.0" stroke-linejoin="round" stroke-linecap="butt" d="m113.385826 225.73656l18.897636 0l0 18.897644l-18.897636 0z" fill-rule="evenodd"/><path fill="#000000" fill-opacity="0.0" d="m132.28346 187.94128l18.897644 0l0 18.897629l-18.897644 0z" fill-rule="evenodd"/><path stroke="#f3f3f3" stroke-width="1.0" stroke-linejoin="round" stroke-linecap="butt" d="m132.28346 187.94128l18.897644 0l0 18.897629l-18.897644 0z" fill-rule="evenodd"/><path fill="#000000" fill-opacity="0.0" d="m132.28346 206.83891l18.897644 0l0 18.897644l-18.897644 0z" fill-rule="evenodd"/><path stroke="#f3f3f3" stroke-width="1.0" stroke-linejoin="round" stroke-linecap="butt" d="m132.28346 206.83891l18.897644 0l0 18.897644l-18.897644 0z" fill-rule="evenodd"/><path fill="#000000" fill-opacity="0.0" d="m132.28346 225.73656l18.897644 0l0 18.897644l-18.897644 0z" fill-rule="evenodd"/><path stroke="#f3f3f3" stroke-width="1.0" stroke-linejoin="round" stroke-linecap="butt" d="m132.28346 225.73656l18.897644 0l0 18.897644l-18.897644 0z" fill-rule="evenodd"/><path fill="#000000" fill-opacity="0.0" d="m151.40982 187.94128l18.897629 0l0 18.897629l-18.897629 0z" fill-rule="evenodd"/><path stroke="#f3f3f3" stroke-width="1.0" stroke-linejoin="round" stroke-linecap="butt" d="m151.40982 187.94128l18.897629 0l0 18.897629l-18.897629 0z" fill-rule="evenodd"/><path fill="#000000" fill-opacity="0.0" d="m151.40982 206.83891l18.897629 0l0 18.897644l-18.897629 0z" fill-rule="evenodd"/><path stroke="#f3f3f3" stroke-width="1.0" stroke-linejoin="round" stroke-linecap="butt" d="m151.40982 206.83891l18.897629 0l0 18.897644l-18.897629 0z" fill-rule="evenodd"/><path fill="#000000" fill-opacity="0.0" d="m151.40982 225.73656l18.897629 0l0 18.897644l-18.897629 0z" fill-rule="evenodd"/><path stroke="#f3f3f3" stroke-width="1.0" stroke-linejoin="round" stroke-linecap="butt" d="m151.40982 225.73656l18.897629 0l0 18.897644l-18.897629 0z" fill-rule="evenodd"/><path fill="#000000" fill-opacity="0.0" d="m18.897638 38.17323l132.28346 -0.37795258" fill-rule="evenodd"/><path stroke="#cccccc" stroke-width="1.0" stroke-linejoin="round" stroke-linecap="butt" d="m18.897638 38.17323l126.283485 -0.36081314" fill-rule="evenodd"/><path fill="#cccccc" stroke="#cccccc" stroke-width="1.0" stroke-linecap="butt" d="m145.18585 39.464146l4.5333557 -1.6646919l-4.542801 -1.6387596z" fill-rule="evenodd"/><path fill="#ffffff" d="m37.795277 37.795277l0 0c0 -10.436878 8.460758 -18.897638 18.897636 -18.897638l0 0c5.0119667 0 9.818653 1.9909954 13.362652 5.5349903c3.543991 3.543993 5.5349884 8.350681 5.5349884 13.362648l0 0c0 10.436874 -8.460762 18.897636 -18.89764 18.897636l0 0c-10.436878 0 -18.897636 -8.460762 -18.897636 -18.897636z" fill-rule="evenodd"/><path stroke="#000000" stroke-width="1.0" stroke-linejoin="round" stroke-linecap="butt" stroke-dasharray="4.0,3.0" d="m37.795277 37.795277l0 0c0 -10.436878 8.460758 -18.897638 18.897636 -18.897638l0 0c5.0119667 0 9.818653 1.9909954 13.362652 5.5349903c3.543991 3.543993 5.5349884 8.350681 5.5349884 13.362648l0 0c0 10.436874 -8.460762 18.897636 -18.89764 18.897636l0 0c-10.436878 0 -18.897636 -8.460762 -18.897636 -18.897636z" fill-rule="evenodd"/><path fill="#000000" fill-opacity="0.0" d="m18.897638 94.86614l132.28346 -0.37795258" fill-rule="evenodd"/><path stroke="#cccccc" stroke-width="1.0" stroke-linejoin="round" stroke-linecap="butt" d="m18.897638 94.86614l126.283485 -0.36080933" fill-rule="evenodd"/><path fill="#cccccc" stroke="#cccccc" stroke-width="1.0" stroke-linecap="butt" d="m145.18585 96.15706l4.5333557 -1.6646957l-4.542801 -1.6387558z" fill-rule="evenodd"/><path fill="#ffffff" d="m37.795277 94.48819l0 0c0 -10.436874 8.460758 -18.897636 18.897636 -18.897636l0 0c5.0119667 0 9.818653 1.9909897 13.362652 5.5349884c3.543991 3.543991 5.5349884 8.350685 5.5349884 13.362648l0 0c0 10.436874 -8.460762 18.897636 -18.89764 18.897636l0 0c-10.436878 0 -18.897636 -8.460762 -18.897636 -18.897636z" fill-rule="evenodd"/><path stroke="#000000" stroke-width="1.0" stroke-linejoin="round" stroke-linecap="butt" stroke-dasharray="4.0,3.0" d="m37.795277 94.48819l0 0c0 -10.436874 8.460758 -18.897636 18.897636 -18.897636l0 0c5.0119667 0 9.818653 1.9909897 13.362652 5.5349884c3.543991 3.543991 5.5349884 8.350685 5.5349884 13.362648l0 0c0 10.436874 -8.460762 18.897636 -18.89764 18.897636l0 0c-10.436878 0 -18.897636 -8.460762 -18.897636 -18.897636z" fill-rule="evenodd"/><path fill="#000000" d="m51.8726 89.84819l0 2.046875l3.21875 0l0 1.109375l-3.21875 0l0 4.59375q0 0.5 0.125 0.828125q0.125 0.3125 0.34375 0.5q0.21875 0.1875 0.5 0.265625q0.296875 0.078125 0.609375 0.078125q0.234375 0 0.484375 -0.015625q0.25 -0.03125 0.484375 -0.0625q0.25 -0.046875 0.453125 -0.09375q0.203125 -0.046875 0.34375 -0.078125l0.203125 1.03125q-0.1875 0.109375 -0.453125 0.1875q-0.25 0.078125 -0.5625 0.140625q-0.296875 0.0625 -0.640625 0.09375q-0.328125 0.03125 -0.671875 0.03125q-0.5625 0 -1.046875 -0.15625q-0.484375 -0.171875 -0.84375 -0.515625q-0.359375 -0.34375 -0.578125 -0.890625q-0.203125 -0.5625 -0.203125 -1.34375l0 -4.59375l-2.21875 0l0 -1.109375l2.21875 0l0 -2.046875l1.453125 0zm13.164066 10.5l-7.453129 0l0 -1.046875l3.71875 -4.140625q0.5 -0.546875 0.828125 -0.96875q0.34375 -0.4375 0.546875 -0.796875q0.203125 -0.375 0.28125 -0.6875q0.09375 -0.328125 0.09375 -0.671875q0 -0.421875 -0.140625 -0.796875q-0.125 -0.375 -0.390625 -0.640625q-0.265625 -0.28125 -0.640625 -0.4375q-0.359375 -0.15625 -0.828125 -0.15625q-0.578125 0 -1.0 0.171875q-0.40625 0.15625 -0.6875 0.453125q-0.28125 0.296875 -0.421875 0.734375q-0.125 0.421875 -0.125 0.953125l-1.453125 0q0 -0.71875 0.25 -1.34375q0.25 -0.640625 0.71875 -1.109375q0.46875 -0.484375 1.15625 -0.765625q0.6875 -0.28125 1.5625 -0.28125q0.796875 0 1.4375 0.234375q0.65625 0.234375 1.09375 0.65625q0.4531288 0.421875 0.6875038 1.0q0.234375 0.578125 0.234375 1.265625q0 0.5 -0.171875 1.0q-0.171875 0.5 -0.4687538 0.984375q-0.28125 0.484375 -0.671875 0.953125q-0.390625 0.46875 -0.8125 0.9375l-3.0625 3.3125l5.718754 0l0 1.1875z" fill-rule="nonzero"/><path fill="#000000" fill-opacity="0.0" d="m18.897638 151.55905l132.28346 -0.37794495" fill-rule="evenodd"/><path stroke="#cccccc" stroke-width="1.0" stroke-linejoin="round" stroke-linecap="butt" d="m18.897638 151.55905l126.283485 -0.36080933" fill-rule="evenodd"/><path fill="#cccccc" stroke="#cccccc" stroke-width="1.0" stroke-linecap="butt" d="m145.18585 152.84998l4.5333557 -1.6647034l-4.542801 -1.6387482z" fill-rule="evenodd"/><path fill="#ffffff" d="m37.795277 151.1811l0 0c0 -10.436874 8.460758 -18.897644 18.897636 -18.897644l0 0c5.0119667 0 9.818653 1.9909973 13.362652 5.5349884c3.543991 3.543991 5.5349884 8.350693 5.5349884 13.362656l0 0c0 10.436874 -8.460762 18.897629 -18.89764 18.897629l0 0c-10.436878 0 -18.897636 -8.460754 -18.897636 -18.897629z" fill-rule="evenodd"/><path stroke="#000000" stroke-width="1.0" stroke-linejoin="round" stroke-linecap="butt" stroke-dasharray="4.0,3.0" d="m37.795277 151.1811l0 0c0 -10.436874 8.460758 -18.897644 18.897636 -18.897644l0 0c5.0119667 0 9.818653 1.9909973 13.362652 5.5349884c3.543991 3.543991 5.5349884 8.350693 5.5349884 13.362656l0 0c0 10.436874 -8.460762 18.897629 -18.89764 18.897629l0 0c-10.436878 0 -18.897636 -8.460754 -18.897636 -18.897629z" fill-rule="evenodd"/><path fill="#000000" d="m50.60307 157.0411l0 -7.34375l-2.328125 0l0 -1.109375l2.328125 0l0 -0.59375q0 -0.8125 0.234375 -1.421875q0.25 -0.625 0.671875 -1.03125q0.4375 -0.421875 1.046875 -0.625q0.609375 -0.21875 1.359375 -0.21875q0.515625 0 1.0 0.09375q0.5 0.078125 1.015625 0.21875l-0.171875 1.1875q-0.328125 -0.109375 -0.75 -0.1875q-0.421875 -0.078125 -0.90625 -0.078125q-1.015625 0 -1.53125 0.515625q-0.515625 0.5 -0.515625 1.546875l0 0.59375l3.265625 0l0 1.109375l-3.265625 0l0 7.34375l-1.453125 0zm8.75 -8.453125l0.109375 1.25q0.453125 -0.65625 1.125 -1.03125q0.671875 -0.375 1.5 -0.375q0.671875 0 1.203125 0.1875q0.546875 0.1875 0.9218788 0.59375q0.390625 0.390625 0.59375 1.0q0.21875 0.609375 0.21875 1.453125l0 5.375l-1.4531288 0l0 -5.34375q0 -0.5625 -0.125 -0.953125q-0.125 -0.390625 -0.375 -0.625q-0.234375 -0.25 -0.59375 -0.359375q-0.359375 -0.109375 -0.8125 -0.109375q-0.734375 0 -1.28125 0.375q-0.546875 0.359375 -0.875 0.953125l0 6.0625l-1.453125 0l0 -8.453125l1.296875 0z" fill-rule="nonzero"/><path fill="#000000" fill-opacity="0.0" d="m18.897638 208.25197l132.28346 -0.3779602" fill-rule="evenodd"/><path stroke="#cccccc" stroke-width="1.0" stroke-linejoin="round" stroke-linecap="butt" d="m18.897638 208.25197l126.283485 -0.36080933" fill-rule="evenodd"/><path fill="#cccccc" stroke="#cccccc" stroke-width="1.0" stroke-linecap="butt" d="m145.18585 209.54288l4.5333557 -1.6646881l-4.542801 -1.6387634z" fill-rule="evenodd"/></g></svg>