<svg version="1.1" viewBox="0.0 0.0 151.1811023622047 94.48818897637796" fill="none" stroke="none" stroke-linecap="square" stroke-miterlimit="10" xmlns:xlink="http://www.w3.org/1999/xlink" xmlns="http://www.w3.org/2000/svg"><clipPath id="p.0"><path d="m0 0l151.1811 0l0 94.48819l-151.1811 0l0 -94.48819z" clip-rule="nonzero"/></clipPath><g clip-path="url(#p.0)"><path fill="#000000" fill-opacity="0.0" d="m0 0l151.1811 0l0 94.48819l-151.1811 0z" fill-rule="evenodd"/><path fill="#000000" fill-opacity="0.0" d="m19.27559 37.83202l94.48819 -0.37795258" fill-rule="evenodd"/><path stroke="#cccccc" stroke-width="1.0" stroke-linejoin="round" stroke-linecap="butt" d="m19.27559 37.83202l88.48824 -0.35395432" fill-rule="evenodd"/><path fill="#cccccc" stroke="#cccccc" stroke-width="1.0" stroke-linecap="butt" d="m107.77043 39.129787l4.531456 -1.6698723l-4.54467 -1.6335678z" fill-rule="evenodd"/><path fill="#ffffff" d="m37.796204 37.984253l0 0c0 -10.436878 8.460762 -18.897638 18.89764 -18.897638l0 0c5.011963 0 9.818653 1.9909954 13.362644 5.5349903c3.5439987 3.543993 5.5349884 8.350681 5.5349884 13.362648l0 0c0 10.436874 -8.460754 18.897636 -18.897633 18.897636l0 0c-10.436878 0 -18.89764 -8.460762 -18.89764 -18.897636z" fill-rule="evenodd"/><path stroke="#434343" stroke-width="1.0" stroke-linejoin="round" stroke-linecap="butt" stroke-dasharray="4.0,3.0" d="m37.796204 37.984253l0 0c0 -10.436878 8.460762 -18.897638 18.89764 -18.897638l0 0c5.011963 0 9.818653 1.9909954 13.362644 5.5349903c3.5439987 3.543993 5.5349884 8.350681 5.5349884 13.362648l0 0c0 10.436874 -8.460754 18.897636 -18.897633 18.897636l0 0c-10.436878 0 -18.89764 -8.460762 -18.89764 -18.897636z" fill-rule="evenodd"/><path fill="#b7b7b7" d="m50.604 43.84425l0 -7.34375l-2.328125 0l0 -1.109375l2.328125 0l0 -0.59375q0 -0.8125 0.234375 -1.421875q0.25 -0.625 0.671875 -1.03125q0.4375 -0.4218731 1.046875 -0.6249981q0.609375 -0.21875 1.359375 -0.21875q0.515625 0 1.0 0.09375q0.5 0.078125 1.015625 0.21875l-0.171875 1.1874981q-0.328125 -0.109375 -0.75 -0.1875q-0.421875 -0.078125 -0.90625 -0.078125q-1.015625 0 -1.53125 0.515625q-0.515625 0.5 -0.515625 1.546875l0 0.59375l3.265625 0l0 1.109375l-3.265625 0l0 7.34375l-1.453125 0zm8.75 -8.453125l0.109375 1.25q0.453125 -0.65625 1.125 -1.03125q0.671875 -0.375 1.5 -0.375q0.671875 0 1.203125 0.1875q0.546875 0.1875 0.9218712 0.59375q0.390625 0.390625 0.59375 1.0q0.21875 0.609375 0.21875 1.453125l0 5.375l-1.4531212 0l0 -5.34375q0 -0.5625 -0.125 -0.953125q-0.125 -0.390625 -0.375 -0.625q-0.234375 -0.25 -0.59375 -0.359375q-0.359375 -0.109375 -0.8125 -0.109375q-0.734375 0 -1.28125 0.375q-0.546875 0.359375 -0.875 0.953125l0 6.0625l-1.453125 0l0 -8.453125l1.296875 0z" fill-rule="nonzero"/><path fill="#000000" fill-opacity="0.0" d="m113.385826 56.692913l37.79528 0l0 37.795277l-37.79528 0z" fill-rule="evenodd"/><path fill="#000000" d="m132.81862 81.450554l0 -2.3125l-4.6875 0l0 -1.921875l4.96875 -7.265625l1.84375 0l0 7.265625l1.421875 0l0 1.921875l-1.421875 0l0 2.3125l-2.125 0zm0 -4.234375l0 -3.921875l-2.625 3.921875l2.625 0z" fill-rule="nonzero"/><path fill="#000000" fill-opacity="0.0" d="m18.897638 18.897638l18.897638 0l0 18.897638l-18.897638 0z" fill-rule="evenodd"/><path stroke="#f3f3f3" stroke-width="1.0" stroke-linejoin="round" stroke-linecap="butt" d="m18.897638 18.897638l18.897638 0l0 18.897638l-18.897638 0z" fill-rule="evenodd"/><path fill="#000000" fill-opacity="0.0" d="m18.897638 37.795277l18.897638 0l0 18.897636l-18.897638 0z" fill-rule="evenodd"/><path stroke="#f3f3f3" stroke-width="1.0" stroke-linejoin="round" stroke-linecap="butt" d="m18.897638 37.795277l18.897638 0l0 18.897636l-18.897638 0z" fill-rule="evenodd"/><path fill="#000000" fill-opacity="0.0" d="m0 0l18.897638 0l0 18.897638l-18.897638 0z" fill-rule="evenodd"/><path stroke="#f3f3f3" stroke-width="1.0" stroke-linejoin="round" stroke-linecap="butt" d="m0 0l18.897638 0l0 18.897638l-18.897638 0z" fill-rule="evenodd"/><path fill="#000000" fill-opacity="0.0" d="m0 18.897638l18.897638 0l0 18.897638l-18.897638 0z" fill-rule="evenodd"/><path stroke="#f3f3f3" stroke-width="1.0" stroke-linejoin="round" stroke-linecap="butt" d="m0 18.897638l18.897638 0l0 18.897638l-18.897638 0z" fill-rule="evenodd"/><path fill="#000000" fill-opacity="0.0" d="m0 37.795277l18.897638 0l0 18.897636l-18.897638 0z" fill-rule="evenodd"/><path stroke="#f3f3f3" stroke-width="1.0" stroke-linejoin="round" stroke-linecap="butt" d="m0 37.795277l18.897638 0l0 18.897636l-18.897638 0z" fill-rule="evenodd"/><path fill="#000000" fill-opacity="0.0" d="m0 56.692913l18.897638 0l0 18.89764l-18.897638 0z" fill-rule="evenodd"/><path stroke="#f3f3f3" stroke-width="1.0" stroke-linejoin="round" stroke-linecap="butt" d="m0 56.692913l18.897638 0l0 18.89764l-18.897638 0z" fill-rule="evenodd"/><path fill="#000000" fill-opacity="0.0" d="m18.897638 0l18.897638 0l0 18.897638l-18.897638 0z" fill-rule="evenodd"/><path stroke="#f3f3f3" stroke-width="1.0" stroke-linejoin="round" stroke-linecap="butt" d="m18.897638 0l18.897638 0l0 18.897638l-18.897638 0z" fill-rule="evenodd"/><path fill="#000000" fill-opacity="0.0" d="m18.897638 56.692913l18.897638 0l0 18.89764l-18.897638 0z" fill-rule="evenodd"/><path stroke="#f3f3f3" stroke-width="1.0" stroke-linejoin="round" stroke-linecap="butt" d="m18.897638 56.692913l18.897638 0l0 18.89764l-18.897638 0z" fill-rule="evenodd"/><path fill="#000000" fill-opacity="0.0" d="m37.795277 0l18.897636 0l0 18.897638l-18.897636 0z" fill-rule="evenodd"/><path stroke="#f3f3f3" stroke-width="1.0" stroke-linejoin="round" stroke-linecap="butt" d="m37.795277 0l18.897636 0l0 18.897638l-18.897636 0z" fill-rule="evenodd"/><path fill="#000000" fill-opacity="0.0" d="m37.795277 18.897638l18.897636 0l0 18.897638l-18.897636 0z" fill-rule="evenodd"/><path stroke="#f3f3f3" stroke-width="1.0" stroke-linejoin="round" stroke-linecap="butt" d="m37.795277 18.897638l18.897636 0l0 18.897638l-18.897636 0z" fill-rule="evenodd"/><path fill="#000000" fill-opacity="0.0" d="m37.795277 37.795277l18.897636 0l0 18.897636l-18.897636 0z" fill-rule="evenodd"/><path stroke="#f3f3f3" stroke-width="1.0" stroke-linejoin="round" stroke-linecap="butt" d="m37.795277 37.795277l18.897636 0l0 18.897636l-18.897636 0z" fill-rule="evenodd"/><path fill="#000000" fill-opacity="0.0" d="m37.795277 56.692913l18.897636 0l0 18.89764l-18.897636 0z" fill-rule="evenodd"/><path stroke="#f3f3f3" stroke-width="1.0" stroke-linejoin="round" stroke-linecap="butt" d="m37.795277 56.692913l18.897636 0l0 18.89764l-18.897636 0z" fill-rule="evenodd"/><path fill="#000000" fill-opacity="0.0" d="m56.692913 0l18.89764 0l0 18.897638l-18.89764 0z" fill-rule="evenodd"/><path stroke="#f3f3f3" stroke-width="1.0" stroke-linejoin="round" stroke-linecap="butt" d="m56.692913 0l18.89764 0l0 18.897638l-18.89764 0z" fill-rule="evenodd"/><path fill="#000000" fill-opacity="0.0" d="m56.692913 18.897638l18.89764 0l0 18.897638l-18.89764 0z" fill-rule="evenodd"/><path stroke="#f3f3f3" stroke-width="1.0" stroke-linejoin="round" stroke-linecap="butt" d="m56.692913 18.897638l18.89764 0l0 18.897638l-18.89764 0z" fill-rule="evenodd"/><path fill="#000000" fill-opacity="0.0" d="m56.692913 37.795277l18.89764 0l0 18.897636l-18.89764 0z" fill-rule="evenodd"/><path stroke="#f3f3f3" stroke-width="1.0" stroke-linejoin="round" stroke-linecap="butt" d="m56.692913 37.795277l18.89764 0l0 18.897636l-18.89764 0z" fill-rule="evenodd"/><path fill="#000000" fill-opacity="0.0" d="m56.692913 56.692913l18.89764 0l0 18.89764l-18.89764 0z" fill-rule="evenodd"/><path stroke="#f3f3f3" stroke-width="1.0" stroke-linejoin="round" stroke-linecap="butt" d="m56.692913 56.692913l18.89764 0l0 18.89764l-18.89764 0z" fill-rule="evenodd"/><path fill="#000000" fill-opacity="0.0" d="m75.59055 0l18.897636 0l0 18.897638l-18.897636 0z" fill-rule="evenodd"/><path stroke="#f3f3f3" stroke-width="1.0" stroke-linejoin="round" stroke-linecap="butt" d="m75.59055 0l18.897636 0l0 18.897638l-18.897636 0z" fill-rule="evenodd"/><path fill="#000000" fill-opacity="0.0" d="m75.59055 18.897638l18.897636 0l0 18.897638l-18.897636 0z" fill-rule="evenodd"/><path stroke="#f3f3f3" stroke-width="1.0" stroke-linejoin="round" stroke-linecap="butt" d="m75.59055 18.897638l18.897636 0l0 18.897638l-18.897636 0z" fill-rule="evenodd"/><path fill="#000000" fill-opacity="0.0" d="m75.59055 37.795277l18.897636 0l0 18.897636l-18.897636 0z" fill-rule="evenodd"/><path stroke="#f3f3f3" stroke-width="1.0" stroke-linejoin="round" stroke-linecap="butt" d="m75.59055 37.795277l18.897636 0l0 18.897636l-18.897636 0z" fill-rule="evenodd"/><path fill="#000000" fill-opacity="0.0" d="m75.59055 56.692913l18.897636 0l0 18.89764l-18.897636 0z" fill-rule="evenodd"/><path stroke="#f3f3f3" stroke-width="1.0" stroke-linejoin="round" stroke-linecap="butt" d="m75.59055 56.692913l18.897636 0l0 18.89764l-18.897636 0z" fill-rule="evenodd"/><path fill="#000000" fill-opacity="0.0" d="m94.48819 0l18.897636 0l0 18.897638l-18.897636 0z" fill-rule="evenodd"/><path stroke="#f3f3f3" stroke-width="1.0" stroke-linejoin="round" stroke-linecap="butt" d="m94.48819 0l18.897636 0l0 18.897638l-18.897636 0z" fill-rule="evenodd"/><path fill="#000000" fill-opacity="0.0" d="m94.48819 18.897638l18.897636 0l0 18.897638l-18.897636 0z" fill-rule="evenodd"/><path stroke="#f3f3f3" stroke-width="1.0" stroke-linejoin="round" stroke-linecap="butt" d="m94.48819 18.897638l18.897636 0l0 18.897638l-18.897636 0z" fill-rule="evenodd"/><path fill="#000000" fill-opacity="0.0" d="m94.48819 37.795277l18.897636 0l0 18.897636l-18.897636 0z" fill-rule="evenodd"/><path stroke="#f3f3f3" stroke-width="1.0" stroke-linejoin="round" stroke-linecap="butt" d="m94.48819 37.795277l18.897636 0l0 18.897636l-18.897636 0z" fill-rule="evenodd"/><path fill="#000000" fill-opacity="0.0" d="m94.48819 56.692913l18.897636 0l0 18.89764l-18.897636 0z" fill-rule="evenodd"/><path stroke="#f3f3f3" stroke-width="1.0" stroke-linejoin="round" stroke-linecap="butt" d="m94.48819 56.692913l18.897636 0l0 18.89764l-18.897636 0z" fill-rule="evenodd"/><path fill="#000000" fill-opacity="0.0" d="m113.385826 0l18.897636 0l0 18.897638l-18.897636 0z" fill-rule="evenodd"/><path stroke="#f3f3f3" stroke-width="1.0" stroke-linejoin="round" stroke-linecap="butt" d="m113.385826 0l18.897636 0l0 18.897638l-18.897636 0z" fill-rule="evenodd"/><path fill="#000000" fill-opacity="0.0" d="m113.385826 18.897638l18.897636 0l0 18.897638l-18.897636 0z" fill-rule="evenodd"/><path stroke="#f3f3f3" stroke-width="1.0" stroke-linejoin="round" stroke-linecap="butt" d="m113.385826 18.897638l18.897636 0l0 18.897638l-18.897636 0z" fill-rule="evenodd"/><path fill="#000000" fill-opacity="0.0" d="m113.385826 37.795277l18.897636 0l0 18.897636l-18.897636 0z" fill-rule="evenodd"/><path stroke="#f3f3f3" stroke-width="1.0" stroke-linejoin="round" stroke-linecap="butt" d="m113.385826 37.795277l18.897636 0l0 18.897636l-18.897636 0z" fill-rule="evenodd"/><path fill="#000000" fill-opacity="0.0" d="m0 75.779526l18.897638 0l0 18.897636l-18.897638 0z" fill-rule="evenodd"/><path stroke="#f3f3f3" stroke-width="1.0" stroke-linejoin="round" stroke-linecap="butt" d="m0 75.779526l18.897638 0l0 18.897636l-18.897638 0z" fill-rule="evenodd"/><path fill="#000000" fill-opacity="0.0" d="m18.897638 75.779526l18.897638 0l0 18.897636l-18.897638 0z" fill-rule="evenodd"/><path stroke="#f3f3f3" stroke-width="1.0" stroke-linejoin="round" stroke-linecap="butt" d="m18.897638 75.779526l18.897638 0l0 18.897636l-18.897638 0z" fill-rule="evenodd"/><path fill="#000000" fill-opacity="0.0" d="m37.795277 75.779526l18.897636 0l0 18.897636l-18.897636 0z" fill-rule="evenodd"/><path stroke="#f3f3f3" stroke-width="1.0" stroke-linejoin="round" stroke-linecap="butt" d="m37.795277 75.779526l18.897636 0l0 18.897636l-18.897636 0z" fill-rule="evenodd"/><path fill="#000000" fill-opacity="0.0" d="m56.692913 75.779526l18.89764 0l0 18.897636l-18.89764 0z" fill-rule="evenodd"/><path stroke="#f3f3f3" stroke-width="1.0" stroke-linejoin="round" stroke-linecap="butt" d="m56.692913 75.779526l18.89764 0l0 18.897636l-18.89764 0z" fill-rule="evenodd"/><path fill="#000000" fill-opacity="0.0" d="m75.59055 75.779526l18.897636 0l0 18.897636l-18.897636 0z" fill-rule="evenodd"/><path stroke="#f3f3f3" stroke-width="1.0" stroke-linejoin="round" stroke-linecap="butt" d="m75.59055 75.779526l18.897636 0l0 18.897636l-18.897636 0z" fill-rule="evenodd"/><path fill="#000000" fill-opacity="0.0" d="m94.48819 75.779526l18.897636 0l0 18.897636l-18.897636 0z" fill-rule="evenodd"/><path stroke="#f3f3f3" stroke-width="1.0" stroke-linejoin="round" stroke-linecap="butt" d="m94.48819 75.779526l18.897636 0l0 18.897636l-18.897636 0z" fill-rule="evenodd"/><path fill="#000000" fill-opacity="0.0" d="m132.28346 0l18.897644 0l0 18.897638l-18.897644 0z" fill-rule="evenodd"/><path stroke="#f3f3f3" stroke-width="1.0" stroke-linejoin="round" stroke-linecap="butt" d="m132.28346 0l18.897644 0l0 18.897638l-18.897644 0z" fill-rule="evenodd"/><path fill="#000000" fill-opacity="0.0" d="m132.28346 18.897638l18.897644 0l0 18.897638l-18.897644 0z" fill-rule="evenodd"/><path stroke="#f3f3f3" stroke-width="1.0" stroke-linejoin="round" stroke-linecap="butt" d="m132.28346 18.897638l18.897644 0l0 18.897638l-18.897644 0z" fill-rule="evenodd"/><path fill="#000000" fill-opacity="0.0" d="m132.28346 37.795277l18.897644 0l0 18.897636l-18.897644 0z" fill-rule="evenodd"/><path stroke="#f3f3f3" stroke-width="1.0" stroke-linejoin="round" stroke-linecap="butt" d="m132.28346 37.795277l18.897644 0l0 18.897636l-18.897644 0z" fill-rule="evenodd"/></g></svg>