<svg version="1.1" viewBox="0.0 0.0 302.74015748031496 320.503937007874" fill="none" stroke="none" stroke-linecap="square" stroke-miterlimit="10" xmlns:xlink="http://www.w3.org/1999/xlink" xmlns="http://www.w3.org/2000/svg"><clipPath id="p.0"><path d="m0 0l302.74014 0l0 320.50394l-302.74014 0l0 -320.50394z" clip-rule="nonzero"/></clipPath><g clip-path="url(#p.0)"><path fill="#000000" fill-opacity="0.0" d="m0 0l302.74014 0l0 320.50394l-302.74014 0z" fill-rule="evenodd"/><path fill="#000000" fill-opacity="0.0" d="m94.48819 225.64626l18.897636 0l0 18.897644l-18.897636 0z" fill-rule="evenodd"/><path stroke="#f3f3f3" stroke-width="1.0" stroke-linejoin="round" stroke-linecap="butt" d="m94.48819 225.64626l18.897636 0l0 18.897644l-18.897636 0z" fill-rule="evenodd"/><path fill="#000000" fill-opacity="0.0" d="m113.385826 225.64626l18.897636 0l0 18.897644l-18.897636 0z" fill-rule="evenodd"/><path stroke="#f3f3f3" stroke-width="1.0" stroke-linejoin="round" stroke-linecap="butt" d="m113.385826 225.64626l18.897636 0l0 18.897644l-18.897636 0z" fill-rule="evenodd"/><path fill="#000000" fill-opacity="0.0" d="m189.21785 18.89008l18.897629 0l0 18.897636l-18.897629 0z" fill-rule="evenodd"/><path stroke="#f3f3f3" stroke-width="1.0" stroke-linejoin="round" stroke-linecap="butt" d="m189.21785 18.89008l18.897629 0l0 18.897636l-18.897629 0z" fill-rule="evenodd"/><path fill="#000000" fill-opacity="0.0" d="m189.21785 37.78016l18.897629 0l0 18.897636l-18.897629 0z" fill-rule="evenodd"/><path stroke="#f3f3f3" stroke-width="1.0" stroke-linejoin="round" stroke-linecap="butt" d="m189.21785 37.78016l18.897629 0l0 18.897636l-18.897629 0z" fill-rule="evenodd"/><path fill="#000000" fill-opacity="0.0" d="m170.3202 0l18.897644 0l0 18.897638l-18.897644 0z" fill-rule="evenodd"/><path stroke="#f3f3f3" stroke-width="1.0" stroke-linejoin="round" stroke-linecap="butt" d="m170.3202 0l18.897644 0l0 18.897638l-18.897644 0z" fill-rule="evenodd"/><path fill="#000000" fill-opacity="0.0" d="m170.3202 18.89008l18.897644 0l0 18.897636l-18.897644 0z" fill-rule="evenodd"/><path stroke="#f3f3f3" stroke-width="1.0" stroke-linejoin="round" stroke-linecap="butt" d="m170.3202 18.89008l18.897644 0l0 18.897636l-18.897644 0z" fill-rule="evenodd"/><path fill="#000000" fill-opacity="0.0" d="m170.3202 37.78016l18.897644 0l0 18.897636l-18.897644 0z" fill-rule="evenodd"/><path stroke="#f3f3f3" stroke-width="1.0" stroke-linejoin="round" stroke-linecap="butt" d="m170.3202 37.78016l18.897644 0l0 18.897636l-18.897644 0z" fill-rule="evenodd"/><path fill="#000000" fill-opacity="0.0" d="m170.3202 56.670235l18.897644 0l0 18.897636l-18.897644 0z" fill-rule="evenodd"/><path stroke="#f3f3f3" stroke-width="1.0" stroke-linejoin="round" stroke-linecap="butt" d="m170.3202 56.670235l18.897644 0l0 18.897636l-18.897644 0z" fill-rule="evenodd"/><path fill="#000000" fill-opacity="0.0" d="m189.21785 0l18.897629 0l0 18.897638l-18.897629 0z" fill-rule="evenodd"/><path stroke="#f3f3f3" stroke-width="1.0" stroke-linejoin="round" stroke-linecap="butt" d="m189.21785 0l18.897629 0l0 18.897638l-18.897629 0z" fill-rule="evenodd"/><path fill="#000000" fill-opacity="0.0" d="m189.21785 56.670235l18.897629 0l0 18.897636l-18.897629 0z" fill-rule="evenodd"/><path stroke="#f3f3f3" stroke-width="1.0" stroke-linejoin="round" stroke-linecap="butt" d="m189.21785 56.670235l18.897629 0l0 18.897636l-18.897629 0z" fill-rule="evenodd"/><path fill="#000000" fill-opacity="0.0" d="m208.11548 0l18.897644 0l0 18.897638l-18.897644 0z" fill-rule="evenodd"/><path stroke="#f3f3f3" stroke-width="1.0" stroke-linejoin="round" stroke-linecap="butt" d="m208.11548 0l18.897644 0l0 18.897638l-18.897644 0z" fill-rule="evenodd"/><path fill="#000000" fill-opacity="0.0" d="m208.11548 18.89008l18.897644 0l0 18.897636l-18.897644 0z" fill-rule="evenodd"/><path stroke="#f3f3f3" stroke-width="1.0" stroke-linejoin="round" stroke-linecap="butt" d="m208.11548 18.89008l18.897644 0l0 18.897636l-18.897644 0z" fill-rule="evenodd"/><path fill="#000000" fill-opacity="0.0" d="m208.11548 37.78016l18.897644 0l0 18.897636l-18.897644 0z" fill-rule="evenodd"/><path stroke="#f3f3f3" stroke-width="1.0" stroke-linejoin="round" stroke-linecap="butt" d="m208.11548 37.78016l18.897644 0l0 18.897636l-18.897644 0z" fill-rule="evenodd"/><path fill="#000000" fill-opacity="0.0" d="m208.11548 56.670235l18.897644 0l0 18.897636l-18.897644 0z" fill-rule="evenodd"/><path stroke="#f3f3f3" stroke-width="1.0" stroke-linejoin="round" stroke-linecap="butt" d="m208.11548 56.670235l18.897644 0l0 18.897636l-18.897644 0z" fill-rule="evenodd"/><path fill="#000000" fill-opacity="0.0" d="m227.01312 0l18.897644 0l0 18.897638l-18.897644 0z" fill-rule="evenodd"/><path stroke="#f3f3f3" stroke-width="1.0" stroke-linejoin="round" stroke-linecap="butt" d="m227.01312 0l18.897644 0l0 18.897638l-18.897644 0z" fill-rule="evenodd"/><path fill="#000000" fill-opacity="0.0" d="m227.01312 18.89008l18.897644 0l0 18.897636l-18.897644 0z" fill-rule="evenodd"/><path stroke="#f3f3f3" stroke-width="1.0" stroke-linejoin="round" stroke-linecap="butt" d="m227.01312 18.89008l18.897644 0l0 18.897636l-18.897644 0z" fill-rule="evenodd"/><path fill="#000000" fill-opacity="0.0" d="m227.01312 37.78016l18.897644 0l0 18.897636l-18.897644 0z" fill-rule="evenodd"/><path stroke="#f3f3f3" stroke-width="1.0" stroke-linejoin="round" stroke-linecap="butt" d="m227.01312 37.78016l18.897644 0l0 18.897636l-18.897644 0z" fill-rule="evenodd"/><path fill="#000000" fill-opacity="0.0" d="m227.01312 56.670235l18.897644 0l0 18.897636l-18.897644 0z" fill-rule="evenodd"/><path stroke="#f3f3f3" stroke-width="1.0" stroke-linejoin="round" stroke-linecap="butt" d="m227.01312 56.670235l18.897644 0l0 18.897636l-18.897644 0z" fill-rule="evenodd"/><path fill="#000000" fill-opacity="0.0" d="m245.91077 0l18.897644 0l0 18.897638l-18.897644 0z" fill-rule="evenodd"/><path stroke="#f3f3f3" stroke-width="1.0" stroke-linejoin="round" stroke-linecap="butt" d="m245.91077 0l18.897644 0l0 18.897638l-18.897644 0z" fill-rule="evenodd"/><path fill="#000000" fill-opacity="0.0" d="m245.91077 18.89008l18.897644 0l0 18.897636l-18.897644 0z" fill-rule="evenodd"/><path stroke="#f3f3f3" stroke-width="1.0" stroke-linejoin="round" stroke-linecap="butt" d="m245.91077 18.89008l18.897644 0l0 18.897636l-18.897644 0z" fill-rule="evenodd"/><path fill="#000000" fill-opacity="0.0" d="m245.91077 37.78016l18.897644 0l0 18.897636l-18.897644 0z" fill-rule="evenodd"/><path stroke="#f3f3f3" stroke-width="1.0" stroke-linejoin="round" stroke-linecap="butt" d="m245.91077 37.78016l18.897644 0l0 18.897636l-18.897644 0z" fill-rule="evenodd"/><path fill="#000000" fill-opacity="0.0" d="m245.91077 56.670235l18.897644 0l0 18.897636l-18.897644 0z" fill-rule="evenodd"/><path stroke="#f3f3f3" stroke-width="1.0" stroke-linejoin="round" stroke-linecap="butt" d="m245.91077 56.670235l18.897644 0l0 18.897636l-18.897644 0z" fill-rule="evenodd"/><path fill="#000000" fill-opacity="0.0" d="m264.8084 0l18.897614 0l0 18.897638l-18.897614 0z" fill-rule="evenodd"/><path stroke="#f3f3f3" stroke-width="1.0" stroke-linejoin="round" stroke-linecap="butt" d="m264.8084 0l18.897614 0l0 18.897638l-18.897614 0z" fill-rule="evenodd"/><path fill="#000000" fill-opacity="0.0" d="m264.8084 18.89008l18.897614 0l0 18.897636l-18.897614 0z" fill-rule="evenodd"/><path stroke="#f3f3f3" stroke-width="1.0" stroke-linejoin="round" stroke-linecap="butt" d="m264.8084 18.89008l18.897614 0l0 18.897636l-18.897614 0z" fill-rule="evenodd"/><path fill="#000000" fill-opacity="0.0" d="m264.8084 37.78016l18.897614 0l0 18.897636l-18.897614 0z" fill-rule="evenodd"/><path stroke="#f3f3f3" stroke-width="1.0" stroke-linejoin="round" stroke-linecap="butt" d="m264.8084 37.78016l18.897614 0l0 18.897636l-18.897614 0z" fill-rule="evenodd"/><path fill="#000000" fill-opacity="0.0" d="m264.8084 56.670235l18.897614 0l0 18.897636l-18.897614 0z" fill-rule="evenodd"/><path stroke="#f3f3f3" stroke-width="1.0" stroke-linejoin="round" stroke-linecap="butt" d="m264.8084 56.670235l18.897614 0l0 18.897636l-18.897614 0z" fill-rule="evenodd"/><path fill="#000000" fill-opacity="0.0" d="m283.70602 0l18.897644 0l0 18.897638l-18.897644 0z" fill-rule="evenodd"/><path stroke="#f3f3f3" stroke-width="1.0" stroke-linejoin="round" stroke-linecap="butt" d="m283.70602 0l18.897644 0l0 18.897638l-18.897644 0z" fill-rule="evenodd"/><path fill="#000000" fill-opacity="0.0" d="m283.70602 18.89008l18.897644 0l0 18.897636l-18.897644 0z" fill-rule="evenodd"/><path stroke="#f3f3f3" stroke-width="1.0" stroke-linejoin="round" stroke-linecap="butt" d="m283.70602 18.89008l18.897644 0l0 18.897636l-18.897644 0z" fill-rule="evenodd"/><path fill="#000000" fill-opacity="0.0" d="m283.70602 37.78016l18.897644 0l0 18.897636l-18.897644 0z" fill-rule="evenodd"/><path stroke="#f3f3f3" stroke-width="1.0" stroke-linejoin="round" stroke-linecap="butt" d="m283.70602 37.78016l18.897644 0l0 18.897636l-18.897644 0z" fill-rule="evenodd"/><path fill="#000000" fill-opacity="0.0" d="m170.3202 75.749214l18.897644 0l0 18.897636l-18.897644 0z" fill-rule="evenodd"/><path stroke="#f3f3f3" stroke-width="1.0" stroke-linejoin="round" stroke-linecap="butt" d="m170.3202 75.749214l18.897644 0l0 18.897636l-18.897644 0z" fill-rule="evenodd"/><path fill="#000000" fill-opacity="0.0" d="m189.21785 75.749214l18.897629 0l0 18.897636l-18.897629 0z" fill-rule="evenodd"/><path stroke="#f3f3f3" stroke-width="1.0" stroke-linejoin="round" stroke-linecap="butt" d="m189.21785 75.749214l18.897629 0l0 18.897636l-18.897629 0z" fill-rule="evenodd"/><path fill="#000000" fill-opacity="0.0" d="m208.11548 75.749214l18.897644 0l0 18.897636l-18.897644 0z" fill-rule="evenodd"/><path stroke="#f3f3f3" stroke-width="1.0" stroke-linejoin="round" stroke-linecap="butt" d="m208.11548 75.749214l18.897644 0l0 18.897636l-18.897644 0z" fill-rule="evenodd"/><path fill="#000000" fill-opacity="0.0" d="m227.01312 75.749214l18.897644 0l0 18.897636l-18.897644 0z" fill-rule="evenodd"/><path stroke="#f3f3f3" stroke-width="1.0" stroke-linejoin="round" stroke-linecap="butt" d="m227.01312 75.749214l18.897644 0l0 18.897636l-18.897644 0z" fill-rule="evenodd"/><path fill="#000000" fill-opacity="0.0" d="m245.91077 75.749214l18.897644 0l0 18.897636l-18.897644 0z" fill-rule="evenodd"/><path stroke="#f3f3f3" stroke-width="1.0" stroke-linejoin="round" stroke-linecap="butt" d="m245.91077 75.749214l18.897644 0l0 18.897636l-18.897644 0z" fill-rule="evenodd"/><path fill="#000000" fill-opacity="0.0" d="m264.8084 75.749214l18.897614 0l0 18.897636l-18.897614 0z" fill-rule="evenodd"/><path stroke="#f3f3f3" stroke-width="1.0" stroke-linejoin="round" stroke-linecap="butt" d="m264.8084 75.749214l18.897614 0l0 18.897636l-18.897614 0z" fill-rule="evenodd"/><path fill="#000000" fill-opacity="0.0" d="m283.9613 56.670235l18.897644 0l0 18.897636l-18.897644 0z" fill-rule="evenodd"/><path stroke="#f3f3f3" stroke-width="1.0" stroke-linejoin="round" stroke-linecap="butt" d="m283.9613 56.670235l18.897644 0l0 18.897636l-18.897644 0z" fill-rule="evenodd"/><path fill="#000000" fill-opacity="0.0" d="m283.9613 75.749214l18.897644 0l0 18.897636l-18.897644 0z" fill-rule="evenodd"/><path stroke="#f3f3f3" stroke-width="1.0" stroke-linejoin="round" stroke-linecap="butt" d="m283.9613 75.749214l18.897644 0l0 18.897636l-18.897644 0z" fill-rule="evenodd"/><path fill="#000000" fill-opacity="0.0" d="m189.21785 112.903l18.897629 0l0 18.897644l-18.897629 0z" fill-rule="evenodd"/><path stroke="#f3f3f3" stroke-width="1.0" stroke-linejoin="round" stroke-linecap="butt" d="m189.21785 112.903l18.897629 0l0 18.897644l-18.897629 0z" fill-rule="evenodd"/><path fill="#000000" fill-opacity="0.0" d="m189.21785 131.79308l18.897629 0l0 18.897644l-18.897629 0z" fill-rule="evenodd"/><path stroke="#f3f3f3" stroke-width="1.0" stroke-linejoin="round" stroke-linecap="butt" d="m189.21785 131.79308l18.897629 0l0 18.897644l-18.897629 0z" fill-rule="evenodd"/><path fill="#000000" fill-opacity="0.0" d="m170.3202 94.012924l18.897644 0l0 18.897636l-18.897644 0z" fill-rule="evenodd"/><path stroke="#f3f3f3" stroke-width="1.0" stroke-linejoin="round" stroke-linecap="butt" d="m170.3202 94.012924l18.897644 0l0 18.897636l-18.897644 0z" fill-rule="evenodd"/><path fill="#000000" fill-opacity="0.0" d="m170.3202 112.903l18.897644 0l0 18.897644l-18.897644 0z" fill-rule="evenodd"/><path stroke="#f3f3f3" stroke-width="1.0" stroke-linejoin="round" stroke-linecap="butt" d="m170.3202 112.903l18.897644 0l0 18.897644l-18.897644 0z" fill-rule="evenodd"/><path fill="#000000" fill-opacity="0.0" d="m170.3202 131.79308l18.897644 0l0 18.897644l-18.897644 0z" fill-rule="evenodd"/><path stroke="#f3f3f3" stroke-width="1.0" stroke-linejoin="round" stroke-linecap="butt" d="m170.3202 131.79308l18.897644 0l0 18.897644l-18.897644 0z" fill-rule="evenodd"/><path fill="#000000" fill-opacity="0.0" d="m170.3202 150.68315l18.897644 0l0 18.897644l-18.897644 0z" fill-rule="evenodd"/><path stroke="#f3f3f3" stroke-width="1.0" stroke-linejoin="round" stroke-linecap="butt" d="m170.3202 150.68315l18.897644 0l0 18.897644l-18.897644 0z" fill-rule="evenodd"/><path fill="#000000" fill-opacity="0.0" d="m189.21785 94.012924l18.897629 0l0 18.897636l-18.897629 0z" fill-rule="evenodd"/><path stroke="#f3f3f3" stroke-width="1.0" stroke-linejoin="round" stroke-linecap="butt" d="m189.21785 94.012924l18.897629 0l0 18.897636l-18.897629 0z" fill-rule="evenodd"/><path fill="#000000" fill-opacity="0.0" d="m189.21785 150.68315l18.897629 0l0 18.897644l-18.897629 0z" fill-rule="evenodd"/><path stroke="#f3f3f3" stroke-width="1.0" stroke-linejoin="round" stroke-linecap="butt" d="m189.21785 150.68315l18.897629 0l0 18.897644l-18.897629 0z" fill-rule="evenodd"/><path fill="#000000" fill-opacity="0.0" d="m208.11548 94.012924l18.897644 0l0 18.897636l-18.897644 0z" fill-rule="evenodd"/><path stroke="#f3f3f3" stroke-width="1.0" stroke-linejoin="round" stroke-linecap="butt" d="m208.11548 94.012924l18.897644 0l0 18.897636l-18.897644 0z" fill-rule="evenodd"/><path fill="#000000" fill-opacity="0.0" d="m208.11548 112.903l18.897644 0l0 18.897644l-18.897644 0z" fill-rule="evenodd"/><path stroke="#f3f3f3" stroke-width="1.0" stroke-linejoin="round" stroke-linecap="butt" d="m208.11548 112.903l18.897644 0l0 18.897644l-18.897644 0z" fill-rule="evenodd"/><path fill="#000000" fill-opacity="0.0" d="m208.11548 131.79308l18.897644 0l0 18.897644l-18.897644 0z" fill-rule="evenodd"/><path stroke="#f3f3f3" stroke-width="1.0" stroke-linejoin="round" stroke-linecap="butt" d="m208.11548 131.79308l18.897644 0l0 18.897644l-18.897644 0z" fill-rule="evenodd"/><path fill="#000000" fill-opacity="0.0" d="m208.11548 150.68315l18.897644 0l0 18.897644l-18.897644 0z" fill-rule="evenodd"/><path stroke="#f3f3f3" stroke-width="1.0" stroke-linejoin="round" stroke-linecap="butt" d="m208.11548 150.68315l18.897644 0l0 18.897644l-18.897644 0z" fill-rule="evenodd"/><path fill="#000000" fill-opacity="0.0" d="m227.01312 94.012924l18.897644 0l0 18.897636l-18.897644 0z" fill-rule="evenodd"/><path stroke="#f3f3f3" stroke-width="1.0" stroke-linejoin="round" stroke-linecap="butt" d="m227.01312 94.012924l18.897644 0l0 18.897636l-18.897644 0z" fill-rule="evenodd"/><path fill="#000000" fill-opacity="0.0" d="m227.01312 112.903l18.897644 0l0 18.897644l-18.897644 0z" fill-rule="evenodd"/><path stroke="#f3f3f3" stroke-width="1.0" stroke-linejoin="round" stroke-linecap="butt" d="m227.01312 112.903l18.897644 0l0 18.897644l-18.897644 0z" fill-rule="evenodd"/><path fill="#000000" fill-opacity="0.0" d="m227.01312 131.79308l18.897644 0l0 18.897644l-18.897644 0z" fill-rule="evenodd"/><path stroke="#f3f3f3" stroke-width="1.0" stroke-linejoin="round" stroke-linecap="butt" d="m227.01312 131.79308l18.897644 0l0 18.897644l-18.897644 0z" fill-rule="evenodd"/><path fill="#000000" fill-opacity="0.0" d="m227.01312 150.68315l18.897644 0l0 18.897644l-18.897644 0z" fill-rule="evenodd"/><path stroke="#f3f3f3" stroke-width="1.0" stroke-linejoin="round" stroke-linecap="butt" d="m227.01312 150.68315l18.897644 0l0 18.897644l-18.897644 0z" fill-rule="evenodd"/><path fill="#000000" fill-opacity="0.0" d="m245.91077 94.012924l18.897644 0l0 18.897636l-18.897644 0z" fill-rule="evenodd"/><path stroke="#f3f3f3" stroke-width="1.0" stroke-linejoin="round" stroke-linecap="butt" d="m245.91077 94.012924l18.897644 0l0 18.897636l-18.897644 0z" fill-rule="evenodd"/><path fill="#000000" fill-opacity="0.0" d="m245.91077 112.903l18.897644 0l0 18.897644l-18.897644 0z" fill-rule="evenodd"/><path stroke="#f3f3f3" stroke-width="1.0" stroke-linejoin="round" stroke-linecap="butt" d="m245.91077 112.903l18.897644 0l0 18.897644l-18.897644 0z" fill-rule="evenodd"/><path fill="#000000" fill-opacity="0.0" d="m245.91077 131.79308l18.897644 0l0 18.897644l-18.897644 0z" fill-rule="evenodd"/><path stroke="#f3f3f3" stroke-width="1.0" stroke-linejoin="round" stroke-linecap="butt" d="m245.91077 131.79308l18.897644 0l0 18.897644l-18.897644 0z" fill-rule="evenodd"/><path fill="#000000" fill-opacity="0.0" d="m245.91077 150.68315l18.897644 0l0 18.897644l-18.897644 0z" fill-rule="evenodd"/><path stroke="#f3f3f3" stroke-width="1.0" stroke-linejoin="round" stroke-linecap="butt" d="m245.91077 150.68315l18.897644 0l0 18.897644l-18.897644 0z" fill-rule="evenodd"/><path fill="#000000" fill-opacity="0.0" d="m264.8084 94.012924l18.897614 0l0 18.897636l-18.897614 0z" fill-rule="evenodd"/><path stroke="#f3f3f3" stroke-width="1.0" stroke-linejoin="round" stroke-linecap="butt" d="m264.8084 94.012924l18.897614 0l0 18.897636l-18.897614 0z" fill-rule="evenodd"/><path fill="#000000" fill-opacity="0.0" d="m264.8084 112.903l18.897614 0l0 18.897644l-18.897614 0z" fill-rule="evenodd"/><path stroke="#f3f3f3" stroke-width="1.0" stroke-linejoin="round" stroke-linecap="butt" d="m264.8084 112.903l18.897614 0l0 18.897644l-18.897614 0z" fill-rule="evenodd"/><path fill="#000000" fill-opacity="0.0" d="m264.8084 131.79308l18.897614 0l0 18.897644l-18.897614 0z" fill-rule="evenodd"/><path stroke="#f3f3f3" stroke-width="1.0" stroke-linejoin="round" stroke-linecap="butt" d="m264.8084 131.79308l18.897614 0l0 18.897644l-18.897614 0z" fill-rule="evenodd"/><path fill="#000000" fill-opacity="0.0" d="m264.8084 150.68315l18.897614 0l0 18.897644l-18.897614 0z" fill-rule="evenodd"/><path stroke="#f3f3f3" stroke-width="1.0" stroke-linejoin="round" stroke-linecap="butt" d="m264.8084 150.68315l18.897614 0l0 18.897644l-18.897614 0z" fill-rule="evenodd"/><path fill="#000000" fill-opacity="0.0" d="m283.70602 94.012924l18.897644 0l0 18.897636l-18.897644 0z" fill-rule="evenodd"/><path stroke="#f3f3f3" stroke-width="1.0" stroke-linejoin="round" stroke-linecap="butt" d="m283.70602 94.012924l18.897644 0l0 18.897636l-18.897644 0z" fill-rule="evenodd"/><path fill="#000000" fill-opacity="0.0" d="m283.70602 112.903l18.897644 0l0 18.897644l-18.897644 0z" fill-rule="evenodd"/><path stroke="#f3f3f3" stroke-width="1.0" stroke-linejoin="round" stroke-linecap="butt" d="m283.70602 112.903l18.897644 0l0 18.897644l-18.897644 0z" fill-rule="evenodd"/><path fill="#000000" fill-opacity="0.0" d="m283.70602 131.79308l18.897644 0l0 18.897644l-18.897644 0z" fill-rule="evenodd"/><path stroke="#f3f3f3" stroke-width="1.0" stroke-linejoin="round" stroke-linecap="butt" d="m283.70602 131.79308l18.897644 0l0 18.897644l-18.897644 0z" fill-rule="evenodd"/><path fill="#000000" fill-opacity="0.0" d="m170.3202 169.76213l18.897644 0l0 18.897644l-18.897644 0z" fill-rule="evenodd"/><path stroke="#f3f3f3" stroke-width="1.0" stroke-linejoin="round" stroke-linecap="butt" d="m170.3202 169.76213l18.897644 0l0 18.897644l-18.897644 0z" fill-rule="evenodd"/><path fill="#000000" fill-opacity="0.0" d="m189.21785 169.76213l18.897629 0l0 18.897644l-18.897629 0z" fill-rule="evenodd"/><path stroke="#f3f3f3" stroke-width="1.0" stroke-linejoin="round" stroke-linecap="butt" d="m189.21785 169.76213l18.897629 0l0 18.897644l-18.897629 0z" fill-rule="evenodd"/><path fill="#000000" fill-opacity="0.0" d="m208.11548 169.76213l18.897644 0l0 18.897644l-18.897644 0z" fill-rule="evenodd"/><path stroke="#f3f3f3" stroke-width="1.0" stroke-linejoin="round" stroke-linecap="butt" d="m208.11548 169.76213l18.897644 0l0 18.897644l-18.897644 0z" fill-rule="evenodd"/><path fill="#000000" fill-opacity="0.0" d="m227.01312 169.76213l18.897644 0l0 18.897644l-18.897644 0z" fill-rule="evenodd"/><path stroke="#f3f3f3" stroke-width="1.0" stroke-linejoin="round" stroke-linecap="butt" d="m227.01312 169.76213l18.897644 0l0 18.897644l-18.897644 0z" fill-rule="evenodd"/><path fill="#000000" fill-opacity="0.0" d="m245.91077 169.76213l18.897644 0l0 18.897644l-18.897644 0z" fill-rule="evenodd"/><path stroke="#f3f3f3" stroke-width="1.0" stroke-linejoin="round" stroke-linecap="butt" d="m245.91077 169.76213l18.897644 0l0 18.897644l-18.897644 0z" fill-rule="evenodd"/><path fill="#000000" fill-opacity="0.0" d="m264.8084 169.76213l18.897614 0l0 18.897644l-18.897614 0z" fill-rule="evenodd"/><path stroke="#f3f3f3" stroke-width="1.0" stroke-linejoin="round" stroke-linecap="butt" d="m264.8084 169.76213l18.897614 0l0 18.897644l-18.897614 0z" fill-rule="evenodd"/><path fill="#000000" fill-opacity="0.0" d="m283.9613 150.68315l18.897644 0l0 18.897644l-18.897644 0z" fill-rule="evenodd"/><path stroke="#f3f3f3" stroke-width="1.0" stroke-linejoin="round" stroke-linecap="butt" d="m283.9613 150.68315l18.897644 0l0 18.897644l-18.897644 0z" fill-rule="evenodd"/><path fill="#000000" fill-opacity="0.0" d="m283.9613 169.76213l18.897644 0l0 18.897644l-18.897644 0z" fill-rule="evenodd"/><path stroke="#f3f3f3" stroke-width="1.0" stroke-linejoin="round" stroke-linecap="butt" d="m283.9613 169.76213l18.897644 0l0 18.897644l-18.897644 0z" fill-rule="evenodd"/><path fill="#000000" fill-opacity="0.0" d="m188.97638 206.75618l18.897629 0l0 18.897644l-18.897629 0z" fill-rule="evenodd"/><path stroke="#f3f3f3" stroke-width="1.0" stroke-linejoin="round" stroke-linecap="butt" d="m188.97638 206.75618l18.897629 0l0 18.897644l-18.897629 0z" fill-rule="evenodd"/><path fill="#000000" fill-opacity="0.0" d="m188.97638 225.64626l18.897629 0l0 18.897644l-18.897629 0z" fill-rule="evenodd"/><path stroke="#f3f3f3" stroke-width="1.0" stroke-linejoin="round" stroke-linecap="butt" d="m188.97638 225.64626l18.897629 0l0 18.897644l-18.897629 0z" fill-rule="evenodd"/><path fill="#000000" fill-opacity="0.0" d="m170.07874 187.8661l18.897644 0l0 18.897644l-18.897644 0z" fill-rule="evenodd"/><path stroke="#f3f3f3" stroke-width="1.0" stroke-linejoin="round" stroke-linecap="butt" d="m170.07874 187.8661l18.897644 0l0 18.897644l-18.897644 0z" fill-rule="evenodd"/><path fill="#000000" fill-opacity="0.0" d="m170.07874 206.75618l18.897644 0l0 18.897644l-18.897644 0z" fill-rule="evenodd"/><path stroke="#f3f3f3" stroke-width="1.0" stroke-linejoin="round" stroke-linecap="butt" d="m170.07874 206.75618l18.897644 0l0 18.897644l-18.897644 0z" fill-rule="evenodd"/><path fill="#000000" fill-opacity="0.0" d="m170.07874 225.64626l18.897644 0l0 18.897644l-18.897644 0z" fill-rule="evenodd"/><path stroke="#f3f3f3" stroke-width="1.0" stroke-linejoin="round" stroke-linecap="butt" d="m170.07874 225.64626l18.897644 0l0 18.897644l-18.897644 0z" fill-rule="evenodd"/><path fill="#000000" fill-opacity="0.0" d="m188.97638 187.8661l18.897629 0l0 18.897644l-18.897629 0z" fill-rule="evenodd"/><path stroke="#f3f3f3" stroke-width="1.0" stroke-linejoin="round" stroke-linecap="butt" d="m188.97638 187.8661l18.897629 0l0 18.897644l-18.897629 0z" fill-rule="evenodd"/><path fill="#000000" fill-opacity="0.0" d="m207.87401 187.8661l18.897644 0l0 18.897644l-18.897644 0z" fill-rule="evenodd"/><path stroke="#f3f3f3" stroke-width="1.0" stroke-linejoin="round" stroke-linecap="butt" d="m207.87401 187.8661l18.897644 0l0 18.897644l-18.897644 0z" fill-rule="evenodd"/><path fill="#000000" fill-opacity="0.0" d="m207.87401 206.75618l18.897644 0l0 18.897644l-18.897644 0z" fill-rule="evenodd"/><path stroke="#f3f3f3" stroke-width="1.0" stroke-linejoin="round" stroke-linecap="butt" d="m207.87401 206.75618l18.897644 0l0 18.897644l-18.897644 0z" fill-rule="evenodd"/><path fill="#000000" fill-opacity="0.0" d="m207.87401 225.64626l18.897644 0l0 18.897644l-18.897644 0z" fill-rule="evenodd"/><path stroke="#f3f3f3" stroke-width="1.0" stroke-linejoin="round" stroke-linecap="butt" d="m207.87401 225.64626l18.897644 0l0 18.897644l-18.897644 0z" fill-rule="evenodd"/><path fill="#000000" fill-opacity="0.0" d="m226.77165 187.8661l18.897644 0l0 18.897644l-18.897644 0z" fill-rule="evenodd"/><path stroke="#f3f3f3" stroke-width="1.0" stroke-linejoin="round" stroke-linecap="butt" d="m226.77165 187.8661l18.897644 0l0 18.897644l-18.897644 0z" fill-rule="evenodd"/><path fill="#000000" fill-opacity="0.0" d="m226.77165 206.75618l18.897644 0l0 18.897644l-18.897644 0z" fill-rule="evenodd"/><path stroke="#f3f3f3" stroke-width="1.0" stroke-linejoin="round" stroke-linecap="butt" d="m226.77165 206.75618l18.897644 0l0 18.897644l-18.897644 0z" fill-rule="evenodd"/><path fill="#000000" fill-opacity="0.0" d="m226.77165 225.64626l18.897644 0l0 18.897644l-18.897644 0z" fill-rule="evenodd"/><path stroke="#f3f3f3" stroke-width="1.0" stroke-linejoin="round" stroke-linecap="butt" d="m226.77165 225.64626l18.897644 0l0 18.897644l-18.897644 0z" fill-rule="evenodd"/><path fill="#000000" fill-opacity="0.0" d="m245.6693 187.8661l18.897629 0l0 18.897644l-18.897629 0z" fill-rule="evenodd"/><path stroke="#f3f3f3" stroke-width="1.0" stroke-linejoin="round" stroke-linecap="butt" d="m245.6693 187.8661l18.897629 0l0 18.897644l-18.897629 0z" fill-rule="evenodd"/><path fill="#000000" fill-opacity="0.0" d="m245.6693 206.75618l18.897629 0l0 18.897644l-18.897629 0z" fill-rule="evenodd"/><path stroke="#f3f3f3" stroke-width="1.0" stroke-linejoin="round" stroke-linecap="butt" d="m245.6693 206.75618l18.897629 0l0 18.897644l-18.897629 0z" fill-rule="evenodd"/><path fill="#000000" fill-opacity="0.0" d="m245.6693 225.64626l18.897629 0l0 18.897644l-18.897629 0z" fill-rule="evenodd"/><path stroke="#f3f3f3" stroke-width="1.0" stroke-linejoin="round" stroke-linecap="butt" d="m245.6693 225.64626l18.897629 0l0 18.897644l-18.897629 0z" fill-rule="evenodd"/><path fill="#000000" fill-opacity="0.0" d="m264.56693 187.8661l18.897644 0l0 18.897644l-18.897644 0z" fill-rule="evenodd"/><path stroke="#f3f3f3" stroke-width="1.0" stroke-linejoin="round" stroke-linecap="butt" d="m264.56693 187.8661l18.897644 0l0 18.897644l-18.897644 0z" fill-rule="evenodd"/><path fill="#000000" fill-opacity="0.0" d="m264.56693 206.75618l18.897644 0l0 18.897644l-18.897644 0z" fill-rule="evenodd"/><path stroke="#f3f3f3" stroke-width="1.0" stroke-linejoin="round" stroke-linecap="butt" d="m264.56693 206.75618l18.897644 0l0 18.897644l-18.897644 0z" fill-rule="evenodd"/><path fill="#000000" fill-opacity="0.0" d="m264.56693 225.64626l18.897644 0l0 18.897644l-18.897644 0z" fill-rule="evenodd"/><path stroke="#f3f3f3" stroke-width="1.0" stroke-linejoin="round" stroke-linecap="butt" d="m264.56693 225.64626l18.897644 0l0 18.897644l-18.897644 0z" fill-rule="evenodd"/><path fill="#000000" fill-opacity="0.0" d="m283.46457 187.8661l18.897644 0l0 18.897644l-18.897644 0z" fill-rule="evenodd"/><path stroke="#f3f3f3" stroke-width="1.0" stroke-linejoin="round" stroke-linecap="butt" d="m283.46457 187.8661l18.897644 0l0 18.897644l-18.897644 0z" fill-rule="evenodd"/><path fill="#000000" fill-opacity="0.0" d="m283.46457 206.75618l18.897644 0l0 18.897644l-18.897644 0z" fill-rule="evenodd"/><path stroke="#f3f3f3" stroke-width="1.0" stroke-linejoin="round" stroke-linecap="butt" d="m283.46457 206.75618l18.897644 0l0 18.897644l-18.897644 0z" fill-rule="evenodd"/><path fill="#000000" fill-opacity="0.0" d="m283.46457 225.64626l18.897644 0l0 18.897644l-18.897644 0z" fill-rule="evenodd"/><path stroke="#f3f3f3" stroke-width="1.0" stroke-linejoin="round" stroke-linecap="butt" d="m283.46457 225.64626l18.897644 0l0 18.897644l-18.897644 0z" fill-rule="evenodd"/><path fill="#000000" fill-opacity="0.0" d="m19.139107 18.89008l18.89764 0l0 18.897636l-18.89764 0z" fill-rule="evenodd"/><path stroke="#f3f3f3" stroke-width="1.0" stroke-linejoin="round" stroke-linecap="butt" d="m19.139107 18.89008l18.89764 0l0 18.897636l-18.89764 0z" fill-rule="evenodd"/><path fill="#000000" fill-opacity="0.0" d="m19.139107 37.78016l18.89764 0l0 18.897636l-18.89764 0z" fill-rule="evenodd"/><path stroke="#f3f3f3" stroke-width="1.0" stroke-linejoin="round" stroke-linecap="butt" d="m19.139107 37.78016l18.89764 0l0 18.897636l-18.89764 0z" fill-rule="evenodd"/><path fill="#000000" fill-opacity="0.0" d="m0.24146982 0l18.897636 0l0 18.897638l-18.897636 0z" fill-rule="evenodd"/><path stroke="#f3f3f3" stroke-width="1.0" stroke-linejoin="round" stroke-linecap="butt" d="m0.24146982 0l18.897636 0l0 18.897638l-18.897636 0z" fill-rule="evenodd"/><path fill="#000000" fill-opacity="0.0" d="m0.24146982 18.89008l18.897636 0l0 18.897636l-18.897636 0z" fill-rule="evenodd"/><path stroke="#f3f3f3" stroke-width="1.0" stroke-linejoin="round" stroke-linecap="butt" d="m0.24146982 18.89008l18.897636 0l0 18.897636l-18.897636 0z" fill-rule="evenodd"/><path fill="#000000" fill-opacity="0.0" d="m0.24146982 37.78016l18.897636 0l0 18.897636l-18.897636 0z" fill-rule="evenodd"/><path stroke="#f3f3f3" stroke-width="1.0" stroke-linejoin="round" stroke-linecap="butt" d="m0.24146982 37.78016l18.897636 0l0 18.897636l-18.897636 0z" fill-rule="evenodd"/><path fill="#000000" fill-opacity="0.0" d="m0.24146982 56.670235l18.897636 0l0 18.897636l-18.897636 0z" fill-rule="evenodd"/><path stroke="#f3f3f3" stroke-width="1.0" stroke-linejoin="round" stroke-linecap="butt" d="m0.24146982 56.670235l18.897636 0l0 18.897636l-18.897636 0z" fill-rule="evenodd"/><path fill="#000000" fill-opacity="0.0" d="m19.139107 0l18.89764 0l0 18.897638l-18.89764 0z" fill-rule="evenodd"/><path stroke="#f3f3f3" stroke-width="1.0" stroke-linejoin="round" stroke-linecap="butt" d="m19.139107 0l18.89764 0l0 18.897638l-18.89764 0z" fill-rule="evenodd"/><path fill="#000000" fill-opacity="0.0" d="m19.139107 56.670235l18.89764 0l0 18.897636l-18.89764 0z" fill-rule="evenodd"/><path stroke="#f3f3f3" stroke-width="1.0" stroke-linejoin="round" stroke-linecap="butt" d="m19.139107 56.670235l18.89764 0l0 18.897636l-18.89764 0z" fill-rule="evenodd"/><path fill="#000000" fill-opacity="0.0" d="m38.036747 0l18.897636 0l0 18.897638l-18.897636 0z" fill-rule="evenodd"/><path stroke="#f3f3f3" stroke-width="1.0" stroke-linejoin="round" stroke-linecap="butt" d="m38.036747 0l18.897636 0l0 18.897638l-18.897636 0z" fill-rule="evenodd"/><path fill="#000000" fill-opacity="0.0" d="m38.036747 18.89008l18.897636 0l0 18.897636l-18.897636 0z" fill-rule="evenodd"/><path stroke="#f3f3f3" stroke-width="1.0" stroke-linejoin="round" stroke-linecap="butt" d="m38.036747 18.89008l18.897636 0l0 18.897636l-18.897636 0z" fill-rule="evenodd"/><path fill="#000000" fill-opacity="0.0" d="m38.036747 37.78016l18.897636 0l0 18.897636l-18.897636 0z" fill-rule="evenodd"/><path stroke="#f3f3f3" stroke-width="1.0" stroke-linejoin="round" stroke-linecap="butt" d="m38.036747 37.78016l18.897636 0l0 18.897636l-18.897636 0z" fill-rule="evenodd"/><path fill="#000000" fill-opacity="0.0" d="m38.036747 56.670235l18.897636 0l0 18.897636l-18.897636 0z" fill-rule="evenodd"/><path stroke="#f3f3f3" stroke-width="1.0" stroke-linejoin="round" stroke-linecap="butt" d="m38.036747 56.670235l18.897636 0l0 18.897636l-18.897636 0z" fill-rule="evenodd"/><path fill="#000000" fill-opacity="0.0" d="m56.934383 0l18.89764 0l0 18.897638l-18.89764 0z" fill-rule="evenodd"/><path stroke="#f3f3f3" stroke-width="1.0" stroke-linejoin="round" stroke-linecap="butt" d="m56.934383 0l18.89764 0l0 18.897638l-18.89764 0z" fill-rule="evenodd"/><path fill="#000000" fill-opacity="0.0" d="m56.934383 18.89008l18.89764 0l0 18.897636l-18.89764 0z" fill-rule="evenodd"/><path stroke="#f3f3f3" stroke-width="1.0" stroke-linejoin="round" stroke-linecap="butt" d="m56.934383 18.89008l18.89764 0l0 18.897636l-18.89764 0z" fill-rule="evenodd"/><path fill="#000000" fill-opacity="0.0" d="m56.934383 37.78016l18.89764 0l0 18.897636l-18.89764 0z" fill-rule="evenodd"/><path stroke="#f3f3f3" stroke-width="1.0" stroke-linejoin="round" stroke-linecap="butt" d="m56.934383 37.78016l18.89764 0l0 18.897636l-18.89764 0z" fill-rule="evenodd"/><path fill="#000000" fill-opacity="0.0" d="m56.934383 56.670235l18.89764 0l0 18.897636l-18.89764 0z" fill-rule="evenodd"/><path stroke="#f3f3f3" stroke-width="1.0" stroke-linejoin="round" stroke-linecap="butt" d="m56.934383 56.670235l18.89764 0l0 18.897636l-18.89764 0z" fill-rule="evenodd"/><path fill="#000000" fill-opacity="0.0" d="m75.83202 0l18.897636 0l0 18.897638l-18.897636 0z" fill-rule="evenodd"/><path stroke="#f3f3f3" stroke-width="1.0" stroke-linejoin="round" stroke-linecap="butt" d="m75.83202 0l18.897636 0l0 18.897638l-18.897636 0z" fill-rule="evenodd"/><path fill="#000000" fill-opacity="0.0" d="m75.83202 18.89008l18.897636 0l0 18.897636l-18.897636 0z" fill-rule="evenodd"/><path stroke="#f3f3f3" stroke-width="1.0" stroke-linejoin="round" stroke-linecap="butt" d="m75.83202 18.89008l18.897636 0l0 18.897636l-18.897636 0z" fill-rule="evenodd"/><path fill="#000000" fill-opacity="0.0" d="m75.83202 37.78016l18.897636 0l0 18.897636l-18.897636 0z" fill-rule="evenodd"/><path stroke="#f3f3f3" stroke-width="1.0" stroke-linejoin="round" stroke-linecap="butt" d="m75.83202 37.78016l18.897636 0l0 18.897636l-18.897636 0z" fill-rule="evenodd"/><path fill="#000000" fill-opacity="0.0" d="m75.83202 56.670235l18.897636 0l0 18.897636l-18.897636 0z" fill-rule="evenodd"/><path stroke="#f3f3f3" stroke-width="1.0" stroke-linejoin="round" stroke-linecap="butt" d="m75.83202 56.670235l18.897636 0l0 18.897636l-18.897636 0z" fill-rule="evenodd"/><path fill="#000000" fill-opacity="0.0" d="m94.72966 0l18.897636 0l0 18.897638l-18.897636 0z" fill-rule="evenodd"/><path stroke="#f3f3f3" stroke-width="1.0" stroke-linejoin="round" stroke-linecap="butt" d="m94.72966 0l18.897636 0l0 18.897638l-18.897636 0z" fill-rule="evenodd"/><path fill="#000000" fill-opacity="0.0" d="m94.72966 18.89008l18.897636 0l0 18.897636l-18.897636 0z" fill-rule="evenodd"/><path stroke="#f3f3f3" stroke-width="1.0" stroke-linejoin="round" stroke-linecap="butt" d="m94.72966 18.89008l18.897636 0l0 18.897636l-18.897636 0z" fill-rule="evenodd"/><path fill="#000000" fill-opacity="0.0" d="m94.72966 37.78016l18.897636 0l0 18.897636l-18.897636 0z" fill-rule="evenodd"/><path stroke="#f3f3f3" stroke-width="1.0" stroke-linejoin="round" stroke-linecap="butt" d="m94.72966 37.78016l18.897636 0l0 18.897636l-18.897636 0z" fill-rule="evenodd"/><path fill="#000000" fill-opacity="0.0" d="m94.72966 56.670235l18.897636 0l0 18.897636l-18.897636 0z" fill-rule="evenodd"/><path stroke="#f3f3f3" stroke-width="1.0" stroke-linejoin="round" stroke-linecap="butt" d="m94.72966 56.670235l18.897636 0l0 18.897636l-18.897636 0z" fill-rule="evenodd"/><path fill="#000000" fill-opacity="0.0" d="m113.6273 0l18.897636 0l0 18.897638l-18.897636 0z" fill-rule="evenodd"/><path stroke="#f3f3f3" stroke-width="1.0" stroke-linejoin="round" stroke-linecap="butt" d="m113.6273 0l18.897636 0l0 18.897638l-18.897636 0z" fill-rule="evenodd"/><path fill="#000000" fill-opacity="0.0" d="m113.6273 18.89008l18.897636 0l0 18.897636l-18.897636 0z" fill-rule="evenodd"/><path stroke="#f3f3f3" stroke-width="1.0" stroke-linejoin="round" stroke-linecap="butt" d="m113.6273 18.89008l18.897636 0l0 18.897636l-18.897636 0z" fill-rule="evenodd"/><path fill="#000000" fill-opacity="0.0" d="m113.6273 37.78016l18.897636 0l0 18.897636l-18.897636 0z" fill-rule="evenodd"/><path stroke="#f3f3f3" stroke-width="1.0" stroke-linejoin="round" stroke-linecap="butt" d="m113.6273 37.78016l18.897636 0l0 18.897636l-18.897636 0z" fill-rule="evenodd"/><path fill="#000000" fill-opacity="0.0" d="m0.24146982 75.749214l18.897636 0l0 18.897636l-18.897636 0z" fill-rule="evenodd"/><path stroke="#f3f3f3" stroke-width="1.0" stroke-linejoin="round" stroke-linecap="butt" d="m0.24146982 75.749214l18.897636 0l0 18.897636l-18.897636 0z" fill-rule="evenodd"/><path fill="#000000" fill-opacity="0.0" d="m19.139107 75.749214l18.89764 0l0 18.897636l-18.89764 0z" fill-rule="evenodd"/><path stroke="#f3f3f3" stroke-width="1.0" stroke-linejoin="round" stroke-linecap="butt" d="m19.139107 75.749214l18.89764 0l0 18.897636l-18.89764 0z" fill-rule="evenodd"/><path fill="#000000" fill-opacity="0.0" d="m38.036747 75.749214l18.897636 0l0 18.897636l-18.897636 0z" fill-rule="evenodd"/><path stroke="#f3f3f3" stroke-width="1.0" stroke-linejoin="round" stroke-linecap="butt" d="m38.036747 75.749214l18.897636 0l0 18.897636l-18.897636 0z" fill-rule="evenodd"/><path fill="#000000" fill-opacity="0.0" d="m56.934383 75.749214l18.89764 0l0 18.897636l-18.89764 0z" fill-rule="evenodd"/><path stroke="#f3f3f3" stroke-width="1.0" stroke-linejoin="round" stroke-linecap="butt" d="m56.934383 75.749214l18.89764 0l0 18.897636l-18.89764 0z" fill-rule="evenodd"/><path fill="#000000" fill-opacity="0.0" d="m75.83202 75.749214l18.897636 0l0 18.897636l-18.897636 0z" fill-rule="evenodd"/><path stroke="#f3f3f3" stroke-width="1.0" stroke-linejoin="round" stroke-linecap="butt" d="m75.83202 75.749214l18.897636 0l0 18.897636l-18.897636 0z" fill-rule="evenodd"/><path fill="#000000" fill-opacity="0.0" d="m94.72966 75.749214l18.897636 0l0 18.897636l-18.897636 0z" fill-rule="evenodd"/><path stroke="#f3f3f3" stroke-width="1.0" stroke-linejoin="round" stroke-linecap="butt" d="m94.72966 75.749214l18.897636 0l0 18.897636l-18.897636 0z" fill-rule="evenodd"/><path fill="#000000" fill-opacity="0.0" d="m132.52493 0l18.897644 0l0 18.897638l-18.897644 0z" fill-rule="evenodd"/><path stroke="#f3f3f3" stroke-width="1.0" stroke-linejoin="round" stroke-linecap="butt" d="m132.52493 0l18.897644 0l0 18.897638l-18.897644 0z" fill-rule="evenodd"/><path fill="#000000" fill-opacity="0.0" d="m132.52493 18.89008l18.897644 0l0 18.897636l-18.897644 0z" fill-rule="evenodd"/><path stroke="#f3f3f3" stroke-width="1.0" stroke-linejoin="round" stroke-linecap="butt" d="m132.52493 18.89008l18.897644 0l0 18.897636l-18.897644 0z" fill-rule="evenodd"/><path fill="#000000" fill-opacity="0.0" d="m132.52493 37.78016l18.897644 0l0 18.897636l-18.897644 0z" fill-rule="evenodd"/><path stroke="#f3f3f3" stroke-width="1.0" stroke-linejoin="round" stroke-linecap="butt" d="m132.52493 37.78016l18.897644 0l0 18.897636l-18.897644 0z" fill-rule="evenodd"/><path fill="#000000" fill-opacity="0.0" d="m113.88256 56.670235l18.897636 0l0 18.897636l-18.897636 0z" fill-rule="evenodd"/><path stroke="#f3f3f3" stroke-width="1.0" stroke-linejoin="round" stroke-linecap="butt" d="m113.88256 56.670235l18.897636 0l0 18.897636l-18.897636 0z" fill-rule="evenodd"/><path fill="#000000" fill-opacity="0.0" d="m132.7802 56.670235l18.897644 0l0 18.897636l-18.897644 0z" fill-rule="evenodd"/><path stroke="#f3f3f3" stroke-width="1.0" stroke-linejoin="round" stroke-linecap="butt" d="m132.7802 56.670235l18.897644 0l0 18.897636l-18.897644 0z" fill-rule="evenodd"/><path fill="#000000" fill-opacity="0.0" d="m113.88256 75.749214l18.897636 0l0 18.897636l-18.897636 0z" fill-rule="evenodd"/><path stroke="#f3f3f3" stroke-width="1.0" stroke-linejoin="round" stroke-linecap="butt" d="m113.88256 75.749214l18.897636 0l0 18.897636l-18.897636 0z" fill-rule="evenodd"/><path fill="#000000" fill-opacity="0.0" d="m132.7802 75.749214l18.897644 0l0 18.897636l-18.897644 0z" fill-rule="evenodd"/><path stroke="#f3f3f3" stroke-width="1.0" stroke-linejoin="round" stroke-linecap="butt" d="m132.7802 75.749214l18.897644 0l0 18.897636l-18.897644 0z" fill-rule="evenodd"/><path fill="#000000" fill-opacity="0.0" d="m151.65129 0l18.897629 0l0 18.897638l-18.897629 0z" fill-rule="evenodd"/><path stroke="#f3f3f3" stroke-width="1.0" stroke-linejoin="round" stroke-linecap="butt" d="m151.65129 0l18.897629 0l0 18.897638l-18.897629 0z" fill-rule="evenodd"/><path fill="#000000" fill-opacity="0.0" d="m151.65129 18.89008l18.897629 0l0 18.897636l-18.897629 0z" fill-rule="evenodd"/><path stroke="#f3f3f3" stroke-width="1.0" stroke-linejoin="round" stroke-linecap="butt" d="m151.65129 18.89008l18.897629 0l0 18.897636l-18.897629 0z" fill-rule="evenodd"/><path fill="#000000" fill-opacity="0.0" d="m151.65129 37.78016l18.897629 0l0 18.897636l-18.897629 0z" fill-rule="evenodd"/><path stroke="#f3f3f3" stroke-width="1.0" stroke-linejoin="round" stroke-linecap="butt" d="m151.65129 37.78016l18.897629 0l0 18.897636l-18.897629 0z" fill-rule="evenodd"/><path fill="#000000" fill-opacity="0.0" d="m151.90656 56.670235l18.897644 0l0 18.897636l-18.897644 0z" fill-rule="evenodd"/><path stroke="#f3f3f3" stroke-width="1.0" stroke-linejoin="round" stroke-linecap="butt" d="m151.90656 56.670235l18.897644 0l0 18.897636l-18.897644 0z" fill-rule="evenodd"/><path fill="#000000" fill-opacity="0.0" d="m151.90656 75.749214l18.897644 0l0 18.897636l-18.897644 0z" fill-rule="evenodd"/><path stroke="#f3f3f3" stroke-width="1.0" stroke-linejoin="round" stroke-linecap="butt" d="m151.90656 75.749214l18.897644 0l0 18.897636l-18.897644 0z" fill-rule="evenodd"/><path fill="#000000" fill-opacity="0.0" d="m19.139107 112.903l18.89764 0l0 18.897644l-18.89764 0z" fill-rule="evenodd"/><path stroke="#f3f3f3" stroke-width="1.0" stroke-linejoin="round" stroke-linecap="butt" d="m19.139107 112.903l18.89764 0l0 18.897644l-18.89764 0z" fill-rule="evenodd"/><path fill="#000000" fill-opacity="0.0" d="m19.139107 131.79308l18.89764 0l0 18.897644l-18.89764 0z" fill-rule="evenodd"/><path stroke="#f3f3f3" stroke-width="1.0" stroke-linejoin="round" stroke-linecap="butt" d="m19.139107 131.79308l18.89764 0l0 18.897644l-18.89764 0z" fill-rule="evenodd"/><path fill="#000000" fill-opacity="0.0" d="m0.24146982 94.012924l18.897636 0l0 18.897636l-18.897636 0z" fill-rule="evenodd"/><path stroke="#f3f3f3" stroke-width="1.0" stroke-linejoin="round" stroke-linecap="butt" d="m0.24146982 94.012924l18.897636 0l0 18.897636l-18.897636 0z" fill-rule="evenodd"/><path fill="#000000" fill-opacity="0.0" d="m0.24146982 112.903l18.897636 0l0 18.897644l-18.897636 0z" fill-rule="evenodd"/><path stroke="#f3f3f3" stroke-width="1.0" stroke-linejoin="round" stroke-linecap="butt" d="m0.24146982 112.903l18.897636 0l0 18.897644l-18.897636 0z" fill-rule="evenodd"/><path fill="#000000" fill-opacity="0.0" d="m0.24146982 131.79308l18.897636 0l0 18.897644l-18.897636 0z" fill-rule="evenodd"/><path stroke="#f3f3f3" stroke-width="1.0" stroke-linejoin="round" stroke-linecap="butt" d="m0.24146982 131.79308l18.897636 0l0 18.897644l-18.897636 0z" fill-rule="evenodd"/><path fill="#000000" fill-opacity="0.0" d="m0.24146982 150.68315l18.897636 0l0 18.897644l-18.897636 0z" fill-rule="evenodd"/><path stroke="#f3f3f3" stroke-width="1.0" stroke-linejoin="round" stroke-linecap="butt" d="m0.24146982 150.68315l18.897636 0l0 18.897644l-18.897636 0z" fill-rule="evenodd"/><path fill="#000000" fill-opacity="0.0" d="m19.139107 94.012924l18.89764 0l0 18.897636l-18.89764 0z" fill-rule="evenodd"/><path stroke="#f3f3f3" stroke-width="1.0" stroke-linejoin="round" stroke-linecap="butt" d="m19.139107 94.012924l18.89764 0l0 18.897636l-18.89764 0z" fill-rule="evenodd"/><path fill="#000000" fill-opacity="0.0" d="m19.139107 150.68315l18.89764 0l0 18.897644l-18.89764 0z" fill-rule="evenodd"/><path stroke="#f3f3f3" stroke-width="1.0" stroke-linejoin="round" stroke-linecap="butt" d="m19.139107 150.68315l18.89764 0l0 18.897644l-18.89764 0z" fill-rule="evenodd"/><path fill="#000000" fill-opacity="0.0" d="m38.036747 94.012924l18.897636 0l0 18.897636l-18.897636 0z" fill-rule="evenodd"/><path stroke="#f3f3f3" stroke-width="1.0" stroke-linejoin="round" stroke-linecap="butt" d="m38.036747 94.012924l18.897636 0l0 18.897636l-18.897636 0z" fill-rule="evenodd"/><path fill="#000000" fill-opacity="0.0" d="m38.036747 112.903l18.897636 0l0 18.897644l-18.897636 0z" fill-rule="evenodd"/><path stroke="#f3f3f3" stroke-width="1.0" stroke-linejoin="round" stroke-linecap="butt" d="m38.036747 112.903l18.897636 0l0 18.897644l-18.897636 0z" fill-rule="evenodd"/><path fill="#000000" fill-opacity="0.0" d="m38.036747 131.79308l18.897636 0l0 18.897644l-18.897636 0z" fill-rule="evenodd"/><path stroke="#f3f3f3" stroke-width="1.0" stroke-linejoin="round" stroke-linecap="butt" d="m38.036747 131.79308l18.897636 0l0 18.897644l-18.897636 0z" fill-rule="evenodd"/><path fill="#000000" fill-opacity="0.0" d="m38.036747 150.68315l18.897636 0l0 18.897644l-18.897636 0z" fill-rule="evenodd"/><path stroke="#f3f3f3" stroke-width="1.0" stroke-linejoin="round" stroke-linecap="butt" d="m38.036747 150.68315l18.897636 0l0 18.897644l-18.897636 0z" fill-rule="evenodd"/><path fill="#000000" fill-opacity="0.0" d="m56.934383 94.012924l18.89764 0l0 18.897636l-18.89764 0z" fill-rule="evenodd"/><path stroke="#f3f3f3" stroke-width="1.0" stroke-linejoin="round" stroke-linecap="butt" d="m56.934383 94.012924l18.89764 0l0 18.897636l-18.89764 0z" fill-rule="evenodd"/><path fill="#000000" fill-opacity="0.0" d="m56.934383 112.903l18.89764 0l0 18.897644l-18.89764 0z" fill-rule="evenodd"/><path stroke="#f3f3f3" stroke-width="1.0" stroke-linejoin="round" stroke-linecap="butt" d="m56.934383 112.903l18.89764 0l0 18.897644l-18.89764 0z" fill-rule="evenodd"/><path fill="#000000" fill-opacity="0.0" d="m56.934383 131.79308l18.89764 0l0 18.897644l-18.89764 0z" fill-rule="evenodd"/><path stroke="#f3f3f3" stroke-width="1.0" stroke-linejoin="round" stroke-linecap="butt" d="m56.934383 131.79308l18.89764 0l0 18.897644l-18.89764 0z" fill-rule="evenodd"/><path fill="#000000" fill-opacity="0.0" d="m56.934383 150.68315l18.89764 0l0 18.897644l-18.89764 0z" fill-rule="evenodd"/><path stroke="#f3f3f3" stroke-width="1.0" stroke-linejoin="round" stroke-linecap="butt" d="m56.934383 150.68315l18.89764 0l0 18.897644l-18.89764 0z" fill-rule="evenodd"/><path fill="#000000" fill-opacity="0.0" d="m75.83202 94.012924l18.897636 0l0 18.897636l-18.897636 0z" fill-rule="evenodd"/><path stroke="#f3f3f3" stroke-width="1.0" stroke-linejoin="round" stroke-linecap="butt" d="m75.83202 94.012924l18.897636 0l0 18.897636l-18.897636 0z" fill-rule="evenodd"/><path fill="#000000" fill-opacity="0.0" d="m75.83202 112.903l18.897636 0l0 18.897644l-18.897636 0z" fill-rule="evenodd"/><path stroke="#f3f3f3" stroke-width="1.0" stroke-linejoin="round" stroke-linecap="butt" d="m75.83202 112.903l18.897636 0l0 18.897644l-18.897636 0z" fill-rule="evenodd"/><path fill="#000000" fill-opacity="0.0" d="m75.83202 131.79308l18.897636 0l0 18.897644l-18.897636 0z" fill-rule="evenodd"/><path stroke="#f3f3f3" stroke-width="1.0" stroke-linejoin="round" stroke-linecap="butt" d="m75.83202 131.79308l18.897636 0l0 18.897644l-18.897636 0z" fill-rule="evenodd"/><path fill="#000000" fill-opacity="0.0" d="m75.83202 150.68315l18.897636 0l0 18.897644l-18.897636 0z" fill-rule="evenodd"/><path stroke="#f3f3f3" stroke-width="1.0" stroke-linejoin="round" stroke-linecap="butt" d="m75.83202 150.68315l18.897636 0l0 18.897644l-18.897636 0z" fill-rule="evenodd"/><path fill="#000000" fill-opacity="0.0" d="m94.72966 94.012924l18.897636 0l0 18.897636l-18.897636 0z" fill-rule="evenodd"/><path stroke="#f3f3f3" stroke-width="1.0" stroke-linejoin="round" stroke-linecap="butt" d="m94.72966 94.012924l18.897636 0l0 18.897636l-18.897636 0z" fill-rule="evenodd"/><path fill="#000000" fill-opacity="0.0" d="m94.72966 112.903l18.897636 0l0 18.897644l-18.897636 0z" fill-rule="evenodd"/><path stroke="#f3f3f3" stroke-width="1.0" stroke-linejoin="round" stroke-linecap="butt" d="m94.72966 112.903l18.897636 0l0 18.897644l-18.897636 0z" fill-rule="evenodd"/><path fill="#000000" fill-opacity="0.0" d="m94.72966 131.79308l18.897636 0l0 18.897644l-18.897636 0z" fill-rule="evenodd"/><path stroke="#f3f3f3" stroke-width="1.0" stroke-linejoin="round" stroke-linecap="butt" d="m94.72966 131.79308l18.897636 0l0 18.897644l-18.897636 0z" fill-rule="evenodd"/><path fill="#000000" fill-opacity="0.0" d="m94.72966 150.68315l18.897636 0l0 18.897644l-18.897636 0z" fill-rule="evenodd"/><path stroke="#f3f3f3" stroke-width="1.0" stroke-linejoin="round" stroke-linecap="butt" d="m94.72966 150.68315l18.897636 0l0 18.897644l-18.897636 0z" fill-rule="evenodd"/><path fill="#000000" fill-opacity="0.0" d="m113.6273 94.012924l18.897636 0l0 18.897636l-18.897636 0z" fill-rule="evenodd"/><path stroke="#f3f3f3" stroke-width="1.0" stroke-linejoin="round" stroke-linecap="butt" d="m113.6273 94.012924l18.897636 0l0 18.897636l-18.897636 0z" fill-rule="evenodd"/><path fill="#000000" fill-opacity="0.0" d="m113.6273 112.903l18.897636 0l0 18.897644l-18.897636 0z" fill-rule="evenodd"/><path stroke="#f3f3f3" stroke-width="1.0" stroke-linejoin="round" stroke-linecap="butt" d="m113.6273 112.903l18.897636 0l0 18.897644l-18.897636 0z" fill-rule="evenodd"/><path fill="#000000" fill-opacity="0.0" d="m113.6273 131.79308l18.897636 0l0 18.897644l-18.897636 0z" fill-rule="evenodd"/><path stroke="#f3f3f3" stroke-width="1.0" stroke-linejoin="round" stroke-linecap="butt" d="m113.6273 131.79308l18.897636 0l0 18.897644l-18.897636 0z" fill-rule="evenodd"/><path fill="#000000" fill-opacity="0.0" d="m0.24146982 169.76213l18.897636 0l0 18.897644l-18.897636 0z" fill-rule="evenodd"/><path stroke="#f3f3f3" stroke-width="1.0" stroke-linejoin="round" stroke-linecap="butt" d="m0.24146982 169.76213l18.897636 0l0 18.897644l-18.897636 0z" fill-rule="evenodd"/><path fill="#000000" fill-opacity="0.0" d="m19.139107 169.76213l18.89764 0l0 18.897644l-18.89764 0z" fill-rule="evenodd"/><path stroke="#f3f3f3" stroke-width="1.0" stroke-linejoin="round" stroke-linecap="butt" d="m19.139107 169.76213l18.89764 0l0 18.897644l-18.89764 0z" fill-rule="evenodd"/><path fill="#000000" fill-opacity="0.0" d="m38.036747 169.76213l18.897636 0l0 18.897644l-18.897636 0z" fill-rule="evenodd"/><path stroke="#f3f3f3" stroke-width="1.0" stroke-linejoin="round" stroke-linecap="butt" d="m38.036747 169.76213l18.897636 0l0 18.897644l-18.897636 0z" fill-rule="evenodd"/><path fill="#000000" fill-opacity="0.0" d="m56.934383 169.76213l18.89764 0l0 18.897644l-18.89764 0z" fill-rule="evenodd"/><path stroke="#f3f3f3" stroke-width="1.0" stroke-linejoin="round" stroke-linecap="butt" d="m56.934383 169.76213l18.89764 0l0 18.897644l-18.89764 0z" fill-rule="evenodd"/><path fill="#000000" fill-opacity="0.0" d="m75.83202 169.76213l18.897636 0l0 18.897644l-18.897636 0z" fill-rule="evenodd"/><path stroke="#f3f3f3" stroke-width="1.0" stroke-linejoin="round" stroke-linecap="butt" d="m75.83202 169.76213l18.897636 0l0 18.897644l-18.897636 0z" fill-rule="evenodd"/><path fill="#000000" fill-opacity="0.0" d="m94.72966 169.76213l18.897636 0l0 18.897644l-18.897636 0z" fill-rule="evenodd"/><path stroke="#f3f3f3" stroke-width="1.0" stroke-linejoin="round" stroke-linecap="butt" d="m94.72966 169.76213l18.897636 0l0 18.897644l-18.897636 0z" fill-rule="evenodd"/><path fill="#000000" fill-opacity="0.0" d="m132.52493 94.012924l18.897644 0l0 18.897636l-18.897644 0z" fill-rule="evenodd"/><path stroke="#f3f3f3" stroke-width="1.0" stroke-linejoin="round" stroke-linecap="butt" d="m132.52493 94.012924l18.897644 0l0 18.897636l-18.897644 0z" fill-rule="evenodd"/><path fill="#000000" fill-opacity="0.0" d="m132.52493 112.903l18.897644 0l0 18.897644l-18.897644 0z" fill-rule="evenodd"/><path stroke="#f3f3f3" stroke-width="1.0" stroke-linejoin="round" stroke-linecap="butt" d="m132.52493 112.903l18.897644 0l0 18.897644l-18.897644 0z" fill-rule="evenodd"/><path fill="#000000" fill-opacity="0.0" d="m132.52493 131.79308l18.897644 0l0 18.897644l-18.897644 0z" fill-rule="evenodd"/><path stroke="#f3f3f3" stroke-width="1.0" stroke-linejoin="round" stroke-linecap="butt" d="m132.52493 131.79308l18.897644 0l0 18.897644l-18.897644 0z" fill-rule="evenodd"/><path fill="#000000" fill-opacity="0.0" d="m113.88256 150.68315l18.897636 0l0 18.897644l-18.897636 0z" fill-rule="evenodd"/><path stroke="#f3f3f3" stroke-width="1.0" stroke-linejoin="round" stroke-linecap="butt" d="m113.88256 150.68315l18.897636 0l0 18.897644l-18.897636 0z" fill-rule="evenodd"/><path fill="#000000" fill-opacity="0.0" d="m132.7802 150.68315l18.897644 0l0 18.897644l-18.897644 0z" fill-rule="evenodd"/><path stroke="#f3f3f3" stroke-width="1.0" stroke-linejoin="round" stroke-linecap="butt" d="m132.7802 150.68315l18.897644 0l0 18.897644l-18.897644 0z" fill-rule="evenodd"/><path fill="#000000" fill-opacity="0.0" d="m113.88256 169.76213l18.897636 0l0 18.897644l-18.897636 0z" fill-rule="evenodd"/><path stroke="#f3f3f3" stroke-width="1.0" stroke-linejoin="round" stroke-linecap="butt" d="m113.88256 169.76213l18.897636 0l0 18.897644l-18.897636 0z" fill-rule="evenodd"/><path fill="#000000" fill-opacity="0.0" d="m132.7802 169.76213l18.897644 0l0 18.897644l-18.897644 0z" fill-rule="evenodd"/><path stroke="#f3f3f3" stroke-width="1.0" stroke-linejoin="round" stroke-linecap="butt" d="m132.7802 169.76213l18.897644 0l0 18.897644l-18.897644 0z" fill-rule="evenodd"/><path fill="#000000" fill-opacity="0.0" d="m151.65129 94.012924l18.897629 0l0 18.897636l-18.897629 0z" fill-rule="evenodd"/><path stroke="#f3f3f3" stroke-width="1.0" stroke-linejoin="round" stroke-linecap="butt" d="m151.65129 94.012924l18.897629 0l0 18.897636l-18.897629 0z" fill-rule="evenodd"/><path fill="#000000" fill-opacity="0.0" d="m151.65129 112.903l18.897629 0l0 18.897644l-18.897629 0z" fill-rule="evenodd"/><path stroke="#f3f3f3" stroke-width="1.0" stroke-linejoin="round" stroke-linecap="butt" d="m151.65129 112.903l18.897629 0l0 18.897644l-18.897629 0z" fill-rule="evenodd"/><path fill="#000000" fill-opacity="0.0" d="m151.65129 131.79308l18.897629 0l0 18.897644l-18.897629 0z" fill-rule="evenodd"/><path stroke="#f3f3f3" stroke-width="1.0" stroke-linejoin="round" stroke-linecap="butt" d="m151.65129 131.79308l18.897629 0l0 18.897644l-18.897629 0z" fill-rule="evenodd"/><path fill="#000000" fill-opacity="0.0" d="m151.90656 150.68315l18.897644 0l0 18.897644l-18.897644 0z" fill-rule="evenodd"/><path stroke="#f3f3f3" stroke-width="1.0" stroke-linejoin="round" stroke-linecap="butt" d="m151.90656 150.68315l18.897644 0l0 18.897644l-18.897644 0z" fill-rule="evenodd"/><path fill="#000000" fill-opacity="0.0" d="m151.90656 169.76213l18.897644 0l0 18.897644l-18.897644 0z" fill-rule="evenodd"/><path stroke="#f3f3f3" stroke-width="1.0" stroke-linejoin="round" stroke-linecap="butt" d="m151.90656 169.76213l18.897644 0l0 18.897644l-18.897644 0z" fill-rule="evenodd"/><path fill="#000000" fill-opacity="0.0" d="m18.897638 206.75618l18.897638 0l0 18.897644l-18.897638 0z" fill-rule="evenodd"/><path stroke="#f3f3f3" stroke-width="1.0" stroke-linejoin="round" stroke-linecap="butt" d="m18.897638 206.75618l18.897638 0l0 18.897644l-18.897638 0z" fill-rule="evenodd"/><path fill="#000000" fill-opacity="0.0" d="m18.897638 225.64626l18.897638 0l0 18.897644l-18.897638 0z" fill-rule="evenodd"/><path stroke="#f3f3f3" stroke-width="1.0" stroke-linejoin="round" stroke-linecap="butt" d="m18.897638 225.64626l18.897638 0l0 18.897644l-18.897638 0z" fill-rule="evenodd"/><path fill="#000000" fill-opacity="0.0" d="m0 187.8661l18.897638 0l0 18.897644l-18.897638 0z" fill-rule="evenodd"/><path stroke="#f3f3f3" stroke-width="1.0" stroke-linejoin="round" stroke-linecap="butt" d="m0 187.8661l18.897638 0l0 18.897644l-18.897638 0z" fill-rule="evenodd"/><path fill="#000000" fill-opacity="0.0" d="m0 206.75618l18.897638 0l0 18.897644l-18.897638 0z" fill-rule="evenodd"/><path stroke="#f3f3f3" stroke-width="1.0" stroke-linejoin="round" stroke-linecap="butt" d="m0 206.75618l18.897638 0l0 18.897644l-18.897638 0z" fill-rule="evenodd"/><path fill="#000000" fill-opacity="0.0" d="m0 225.64626l18.897638 0l0 18.897644l-18.897638 0z" fill-rule="evenodd"/><path stroke="#f3f3f3" stroke-width="1.0" stroke-linejoin="round" stroke-linecap="butt" d="m0 225.64626l18.897638 0l0 18.897644l-18.897638 0z" fill-rule="evenodd"/><path fill="#000000" fill-opacity="0.0" d="m18.897638 187.8661l18.897638 0l0 18.897644l-18.897638 0z" fill-rule="evenodd"/><path stroke="#f3f3f3" stroke-width="1.0" stroke-linejoin="round" stroke-linecap="butt" d="m18.897638 187.8661l18.897638 0l0 18.897644l-18.897638 0z" fill-rule="evenodd"/><path fill="#000000" fill-opacity="0.0" d="m37.795277 187.8661l18.897636 0l0 18.897644l-18.897636 0z" fill-rule="evenodd"/><path stroke="#f3f3f3" stroke-width="1.0" stroke-linejoin="round" stroke-linecap="butt" d="m37.795277 187.8661l18.897636 0l0 18.897644l-18.897636 0z" fill-rule="evenodd"/><path fill="#000000" fill-opacity="0.0" d="m37.795277 206.75618l18.897636 0l0 18.897644l-18.897636 0z" fill-rule="evenodd"/><path stroke="#f3f3f3" stroke-width="1.0" stroke-linejoin="round" stroke-linecap="butt" d="m37.795277 206.75618l18.897636 0l0 18.897644l-18.897636 0z" fill-rule="evenodd"/><path fill="#000000" fill-opacity="0.0" d="m37.795277 225.64626l18.897636 0l0 18.897644l-18.897636 0z" fill-rule="evenodd"/><path stroke="#f3f3f3" stroke-width="1.0" stroke-linejoin="round" stroke-linecap="butt" d="m37.795277 225.64626l18.897636 0l0 18.897644l-18.897636 0z" fill-rule="evenodd"/><path fill="#000000" fill-opacity="0.0" d="m56.692913 187.8661l18.89764 0l0 18.897644l-18.89764 0z" fill-rule="evenodd"/><path stroke="#f3f3f3" stroke-width="1.0" stroke-linejoin="round" stroke-linecap="butt" d="m56.692913 187.8661l18.89764 0l0 18.897644l-18.89764 0z" fill-rule="evenodd"/><path fill="#000000" fill-opacity="0.0" d="m56.692913 206.75618l18.89764 0l0 18.897644l-18.89764 0z" fill-rule="evenodd"/><path stroke="#f3f3f3" stroke-width="1.0" stroke-linejoin="round" stroke-linecap="butt" d="m56.692913 206.75618l18.89764 0l0 18.897644l-18.89764 0z" fill-rule="evenodd"/><path fill="#000000" fill-opacity="0.0" d="m56.692913 225.64626l18.89764 0l0 18.897644l-18.89764 0z" fill-rule="evenodd"/><path stroke="#f3f3f3" stroke-width="1.0" stroke-linejoin="round" stroke-linecap="butt" d="m56.692913 225.64626l18.89764 0l0 18.897644l-18.89764 0z" fill-rule="evenodd"/><path fill="#000000" fill-opacity="0.0" d="m75.59055 187.8661l18.897636 0l0 18.897644l-18.897636 0z" fill-rule="evenodd"/><path stroke="#f3f3f3" stroke-width="1.0" stroke-linejoin="round" stroke-linecap="butt" d="m75.59055 187.8661l18.897636 0l0 18.897644l-18.897636 0z" fill-rule="evenodd"/><path fill="#000000" fill-opacity="0.0" d="m75.59055 206.75618l18.897636 0l0 18.897644l-18.897636 0z" fill-rule="evenodd"/><path stroke="#f3f3f3" stroke-width="1.0" stroke-linejoin="round" stroke-linecap="butt" d="m75.59055 206.75618l18.897636 0l0 18.897644l-18.897636 0z" fill-rule="evenodd"/><path fill="#000000" fill-opacity="0.0" d="m75.59055 225.64626l18.897636 0l0 18.897644l-18.897636 0z" fill-rule="evenodd"/><path stroke="#f3f3f3" stroke-width="1.0" stroke-linejoin="round" stroke-linecap="butt" d="m75.59055 225.64626l18.897636 0l0 18.897644l-18.897636 0z" fill-rule="evenodd"/><path fill="#000000" fill-opacity="0.0" d="m94.48819 187.8661l18.897636 0l0 18.897644l-18.897636 0z" fill-rule="evenodd"/><path stroke="#f3f3f3" stroke-width="1.0" stroke-linejoin="round" stroke-linecap="butt" d="m94.48819 187.8661l18.897636 0l0 18.897644l-18.897636 0z" fill-rule="evenodd"/><path fill="#000000" fill-opacity="0.0" d="m94.48819 206.75618l18.897636 0l0 18.897644l-18.897636 0z" fill-rule="evenodd"/><path stroke="#f3f3f3" stroke-width="1.0" stroke-linejoin="round" stroke-linecap="butt" d="m94.48819 206.75618l18.897636 0l0 18.897644l-18.897636 0z" fill-rule="evenodd"/><path fill="#000000" fill-opacity="0.0" d="m113.385826 187.8661l18.897636 0l0 18.897644l-18.897636 0z" fill-rule="evenodd"/><path stroke="#f3f3f3" stroke-width="1.0" stroke-linejoin="round" stroke-linecap="butt" d="m113.385826 187.8661l18.897636 0l0 18.897644l-18.897636 0z" fill-rule="evenodd"/><path fill="#000000" fill-opacity="0.0" d="m113.385826 206.75618l18.897636 0l0 18.897644l-18.897636 0z" fill-rule="evenodd"/><path stroke="#f3f3f3" stroke-width="1.0" stroke-linejoin="round" stroke-linecap="butt" d="m113.385826 206.75618l18.897636 0l0 18.897644l-18.897636 0z" fill-rule="evenodd"/><path fill="#000000" fill-opacity="0.0" d="m132.28346 187.8661l18.897644 0l0 18.897644l-18.897644 0z" fill-rule="evenodd"/><path stroke="#f3f3f3" stroke-width="1.0" stroke-linejoin="round" stroke-linecap="butt" d="m132.28346 187.8661l18.897644 0l0 18.897644l-18.897644 0z" fill-rule="evenodd"/><path fill="#000000" fill-opacity="0.0" d="m132.28346 206.75618l18.897644 0l0 18.897644l-18.897644 0z" fill-rule="evenodd"/><path stroke="#f3f3f3" stroke-width="1.0" stroke-linejoin="round" stroke-linecap="butt" d="m132.28346 206.75618l18.897644 0l0 18.897644l-18.897644 0z" fill-rule="evenodd"/><path fill="#000000" fill-opacity="0.0" d="m132.28346 225.64626l18.897644 0l0 18.897644l-18.897644 0z" fill-rule="evenodd"/><path stroke="#f3f3f3" stroke-width="1.0" stroke-linejoin="round" stroke-linecap="butt" d="m132.28346 225.64626l18.897644 0l0 18.897644l-18.897644 0z" fill-rule="evenodd"/><path fill="#000000" fill-opacity="0.0" d="m151.40982 187.8661l18.897629 0l0 18.897644l-18.897629 0z" fill-rule="evenodd"/><path stroke="#f3f3f3" stroke-width="1.0" stroke-linejoin="round" stroke-linecap="butt" d="m151.40982 187.8661l18.897629 0l0 18.897644l-18.897629 0z" fill-rule="evenodd"/><path fill="#000000" fill-opacity="0.0" d="m151.40982 206.75618l18.897629 0l0 18.897644l-18.897629 0z" fill-rule="evenodd"/><path stroke="#f3f3f3" stroke-width="1.0" stroke-linejoin="round" stroke-linecap="butt" d="m151.40982 206.75618l18.897629 0l0 18.897644l-18.897629 0z" fill-rule="evenodd"/><path fill="#000000" fill-opacity="0.0" d="m151.40982 225.64626l18.897629 0l0 18.897644l-18.897629 0z" fill-rule="evenodd"/><path stroke="#f3f3f3" stroke-width="1.0" stroke-linejoin="round" stroke-linecap="butt" d="m151.40982 225.64626l18.897629 0l0 18.897644l-18.897629 0z" fill-rule="evenodd"/><path fill="#000000" fill-opacity="0.0" d="m170.07874 245.66833l18.897644 0l0 18.897644l-18.897644 0z" fill-rule="evenodd"/><path stroke="#f3f3f3" stroke-width="1.0" stroke-linejoin="round" stroke-linecap="butt" d="m170.07874 245.66833l18.897644 0l0 18.897644l-18.897644 0z" fill-rule="evenodd"/><path fill="#000000" fill-opacity="0.0" d="m188.97638 245.66833l18.897629 0l0 18.897644l-18.897629 0z" fill-rule="evenodd"/><path stroke="#f3f3f3" stroke-width="1.0" stroke-linejoin="round" stroke-linecap="butt" d="m188.97638 245.66833l18.897629 0l0 18.897644l-18.897629 0z" fill-rule="evenodd"/><path fill="#000000" fill-opacity="0.0" d="m207.87401 245.66833l18.897644 0l0 18.897644l-18.897644 0z" fill-rule="evenodd"/><path stroke="#f3f3f3" stroke-width="1.0" stroke-linejoin="round" stroke-linecap="butt" d="m207.87401 245.66833l18.897644 0l0 18.897644l-18.897644 0z" fill-rule="evenodd"/><path fill="#000000" fill-opacity="0.0" d="m226.77165 245.66833l18.897644 0l0 18.897644l-18.897644 0z" fill-rule="evenodd"/><path stroke="#f3f3f3" stroke-width="1.0" stroke-linejoin="round" stroke-linecap="butt" d="m226.77165 245.66833l18.897644 0l0 18.897644l-18.897644 0z" fill-rule="evenodd"/><path fill="#000000" fill-opacity="0.0" d="m245.6693 245.66833l18.897629 0l0 18.897644l-18.897629 0z" fill-rule="evenodd"/><path stroke="#f3f3f3" stroke-width="1.0" stroke-linejoin="round" stroke-linecap="butt" d="m245.6693 245.66833l18.897629 0l0 18.897644l-18.897629 0z" fill-rule="evenodd"/><path fill="#000000" fill-opacity="0.0" d="m264.56693 245.66833l18.897644 0l0 18.897644l-18.897644 0z" fill-rule="evenodd"/><path stroke="#f3f3f3" stroke-width="1.0" stroke-linejoin="round" stroke-linecap="butt" d="m264.56693 245.66833l18.897644 0l0 18.897644l-18.897644 0z" fill-rule="evenodd"/><path fill="#000000" fill-opacity="0.0" d="m283.71982 245.66833l18.897644 0l0 18.897644l-18.897644 0z" fill-rule="evenodd"/><path stroke="#f3f3f3" stroke-width="1.0" stroke-linejoin="round" stroke-linecap="butt" d="m283.71982 245.66833l18.897644 0l0 18.897644l-18.897644 0z" fill-rule="evenodd"/><path fill="#000000" fill-opacity="0.0" d="m188.97638 282.66238l18.897629 0l0 18.897644l-18.897629 0z" fill-rule="evenodd"/><path stroke="#f3f3f3" stroke-width="1.0" stroke-linejoin="round" stroke-linecap="butt" d="m188.97638 282.66238l18.897629 0l0 18.897644l-18.897629 0z" fill-rule="evenodd"/><path fill="#000000" fill-opacity="0.0" d="m188.97638 301.55246l18.897629 0l0 18.897644l-18.897629 0z" fill-rule="evenodd"/><path stroke="#f3f3f3" stroke-width="1.0" stroke-linejoin="round" stroke-linecap="butt" d="m188.97638 301.55246l18.897629 0l0 18.897644l-18.897629 0z" fill-rule="evenodd"/><path fill="#000000" fill-opacity="0.0" d="m170.07874 263.7723l18.897644 0l0 18.897644l-18.897644 0z" fill-rule="evenodd"/><path stroke="#f3f3f3" stroke-width="1.0" stroke-linejoin="round" stroke-linecap="butt" d="m170.07874 263.7723l18.897644 0l0 18.897644l-18.897644 0z" fill-rule="evenodd"/><path fill="#000000" fill-opacity="0.0" d="m170.07874 282.66238l18.897644 0l0 18.897644l-18.897644 0z" fill-rule="evenodd"/><path stroke="#f3f3f3" stroke-width="1.0" stroke-linejoin="round" stroke-linecap="butt" d="m170.07874 282.66238l18.897644 0l0 18.897644l-18.897644 0z" fill-rule="evenodd"/><path fill="#000000" fill-opacity="0.0" d="m170.07874 301.55246l18.897644 0l0 18.897644l-18.897644 0z" fill-rule="evenodd"/><path stroke="#f3f3f3" stroke-width="1.0" stroke-linejoin="round" stroke-linecap="butt" d="m170.07874 301.55246l18.897644 0l0 18.897644l-18.897644 0z" fill-rule="evenodd"/><path fill="#000000" fill-opacity="0.0" d="m188.97638 263.7723l18.897629 0l0 18.897644l-18.897629 0z" fill-rule="evenodd"/><path stroke="#f3f3f3" stroke-width="1.0" stroke-linejoin="round" stroke-linecap="butt" d="m188.97638 263.7723l18.897629 0l0 18.897644l-18.897629 0z" fill-rule="evenodd"/><path fill="#000000" fill-opacity="0.0" d="m207.87401 263.7723l18.897644 0l0 18.897644l-18.897644 0z" fill-rule="evenodd"/><path stroke="#f3f3f3" stroke-width="1.0" stroke-linejoin="round" stroke-linecap="butt" d="m207.87401 263.7723l18.897644 0l0 18.897644l-18.897644 0z" fill-rule="evenodd"/><path fill="#000000" fill-opacity="0.0" d="m207.87401 282.66238l18.897644 0l0 18.897644l-18.897644 0z" fill-rule="evenodd"/><path stroke="#f3f3f3" stroke-width="1.0" stroke-linejoin="round" stroke-linecap="butt" d="m207.87401 282.66238l18.897644 0l0 18.897644l-18.897644 0z" fill-rule="evenodd"/><path fill="#000000" fill-opacity="0.0" d="m207.87401 301.55246l18.897644 0l0 18.897644l-18.897644 0z" fill-rule="evenodd"/><path stroke="#f3f3f3" stroke-width="1.0" stroke-linejoin="round" stroke-linecap="butt" d="m207.87401 301.55246l18.897644 0l0 18.897644l-18.897644 0z" fill-rule="evenodd"/><path fill="#000000" fill-opacity="0.0" d="m226.77165 263.7723l18.897644 0l0 18.897644l-18.897644 0z" fill-rule="evenodd"/><path stroke="#f3f3f3" stroke-width="1.0" stroke-linejoin="round" stroke-linecap="butt" d="m226.77165 263.7723l18.897644 0l0 18.897644l-18.897644 0z" fill-rule="evenodd"/><path fill="#000000" fill-opacity="0.0" d="m226.77165 282.66238l18.897644 0l0 18.897644l-18.897644 0z" fill-rule="evenodd"/><path stroke="#f3f3f3" stroke-width="1.0" stroke-linejoin="round" stroke-linecap="butt" d="m226.77165 282.66238l18.897644 0l0 18.897644l-18.897644 0z" fill-rule="evenodd"/><path fill="#000000" fill-opacity="0.0" d="m226.77165 301.55246l18.897644 0l0 18.897644l-18.897644 0z" fill-rule="evenodd"/><path stroke="#f3f3f3" stroke-width="1.0" stroke-linejoin="round" stroke-linecap="butt" d="m226.77165 301.55246l18.897644 0l0 18.897644l-18.897644 0z" fill-rule="evenodd"/><path fill="#000000" fill-opacity="0.0" d="m245.6693 263.7723l18.897629 0l0 18.897644l-18.897629 0z" fill-rule="evenodd"/><path stroke="#f3f3f3" stroke-width="1.0" stroke-linejoin="round" stroke-linecap="butt" d="m245.6693 263.7723l18.897629 0l0 18.897644l-18.897629 0z" fill-rule="evenodd"/><path fill="#000000" fill-opacity="0.0" d="m245.6693 282.66238l18.897629 0l0 18.897644l-18.897629 0z" fill-rule="evenodd"/><path stroke="#f3f3f3" stroke-width="1.0" stroke-linejoin="round" stroke-linecap="butt" d="m245.6693 282.66238l18.897629 0l0 18.897644l-18.897629 0z" fill-rule="evenodd"/><path fill="#000000" fill-opacity="0.0" d="m245.6693 301.55246l18.897629 0l0 18.897644l-18.897629 0z" fill-rule="evenodd"/><path stroke="#f3f3f3" stroke-width="1.0" stroke-linejoin="round" stroke-linecap="butt" d="m245.6693 301.55246l18.897629 0l0 18.897644l-18.897629 0z" fill-rule="evenodd"/><path fill="#000000" fill-opacity="0.0" d="m264.56693 263.7723l18.897644 0l0 18.897644l-18.897644 0z" fill-rule="evenodd"/><path stroke="#f3f3f3" stroke-width="1.0" stroke-linejoin="round" stroke-linecap="butt" d="m264.56693 263.7723l18.897644 0l0 18.897644l-18.897644 0z" fill-rule="evenodd"/><path fill="#000000" fill-opacity="0.0" d="m264.56693 282.66238l18.897644 0l0 18.897644l-18.897644 0z" fill-rule="evenodd"/><path stroke="#f3f3f3" stroke-width="1.0" stroke-linejoin="round" stroke-linecap="butt" d="m264.56693 282.66238l18.897644 0l0 18.897644l-18.897644 0z" fill-rule="evenodd"/><path fill="#000000" fill-opacity="0.0" d="m264.56693 301.55246l18.897644 0l0 18.897644l-18.897644 0z" fill-rule="evenodd"/><path stroke="#f3f3f3" stroke-width="1.0" stroke-linejoin="round" stroke-linecap="butt" d="m264.56693 301.55246l18.897644 0l0 18.897644l-18.897644 0z" fill-rule="evenodd"/><path fill="#000000" fill-opacity="0.0" d="m283.46457 263.7723l18.897644 0l0 18.897644l-18.897644 0z" fill-rule="evenodd"/><path stroke="#f3f3f3" stroke-width="1.0" stroke-linejoin="round" stroke-linecap="butt" d="m283.46457 263.7723l18.897644 0l0 18.897644l-18.897644 0z" fill-rule="evenodd"/><path fill="#000000" fill-opacity="0.0" d="m283.46457 282.66238l18.897644 0l0 18.897644l-18.897644 0z" fill-rule="evenodd"/><path stroke="#f3f3f3" stroke-width="1.0" stroke-linejoin="round" stroke-linecap="butt" d="m283.46457 282.66238l18.897644 0l0 18.897644l-18.897644 0z" fill-rule="evenodd"/><path fill="#000000" fill-opacity="0.0" d="m283.46457 301.55246l18.897644 0l0 18.897644l-18.897644 0z" fill-rule="evenodd"/><path stroke="#f3f3f3" stroke-width="1.0" stroke-linejoin="round" stroke-linecap="butt" d="m283.46457 301.55246l18.897644 0l0 18.897644l-18.897644 0z" fill-rule="evenodd"/><path fill="#000000" fill-opacity="0.0" d="m0 245.66833l18.897638 0l0 18.897644l-18.897638 0z" fill-rule="evenodd"/><path stroke="#f3f3f3" stroke-width="1.0" stroke-linejoin="round" stroke-linecap="butt" d="m0 245.66833l18.897638 0l0 18.897644l-18.897638 0z" fill-rule="evenodd"/><path fill="#000000" fill-opacity="0.0" d="m19.27559 245.66833l18.897638 0l0 18.897644l-18.897638 0z" fill-rule="evenodd"/><path stroke="#f3f3f3" stroke-width="1.0" stroke-linejoin="round" stroke-linecap="butt" d="m19.27559 245.66833l18.897638 0l0 18.897644l-18.897638 0z" fill-rule="evenodd"/><path fill="#000000" fill-opacity="0.0" d="m38.17323 245.66833l18.897636 0l0 18.897644l-18.897636 0z" fill-rule="evenodd"/><path stroke="#f3f3f3" stroke-width="1.0" stroke-linejoin="round" stroke-linecap="butt" d="m38.17323 245.66833l18.897636 0l0 18.897644l-18.897636 0z" fill-rule="evenodd"/><path fill="#000000" fill-opacity="0.0" d="m57.070866 245.66833l18.89764 0l0 18.897644l-18.89764 0z" fill-rule="evenodd"/><path stroke="#f3f3f3" stroke-width="1.0" stroke-linejoin="round" stroke-linecap="butt" d="m57.070866 245.66833l18.89764 0l0 18.897644l-18.89764 0z" fill-rule="evenodd"/><path fill="#000000" fill-opacity="0.0" d="m75.59055 245.66833l18.897636 0l0 18.897644l-18.897636 0z" fill-rule="evenodd"/><path stroke="#f3f3f3" stroke-width="1.0" stroke-linejoin="round" stroke-linecap="butt" d="m75.59055 245.66833l18.897636 0l0 18.897644l-18.897636 0z" fill-rule="evenodd"/><path fill="#000000" fill-opacity="0.0" d="m94.48819 245.66833l18.897636 0l0 18.897644l-18.897636 0z" fill-rule="evenodd"/><path stroke="#f3f3f3" stroke-width="1.0" stroke-linejoin="round" stroke-linecap="butt" d="m94.48819 245.66833l18.897636 0l0 18.897644l-18.897636 0z" fill-rule="evenodd"/><path fill="#000000" fill-opacity="0.0" d="m113.64109 245.66833l18.897636 0l0 18.897644l-18.897636 0z" fill-rule="evenodd"/><path stroke="#f3f3f3" stroke-width="1.0" stroke-linejoin="round" stroke-linecap="butt" d="m113.64109 245.66833l18.897636 0l0 18.897644l-18.897636 0z" fill-rule="evenodd"/><path fill="#000000" fill-opacity="0.0" d="m132.53873 245.66833l18.897644 0l0 18.897644l-18.897644 0z" fill-rule="evenodd"/><path stroke="#f3f3f3" stroke-width="1.0" stroke-linejoin="round" stroke-linecap="butt" d="m132.53873 245.66833l18.897644 0l0 18.897644l-18.897644 0z" fill-rule="evenodd"/><path fill="#000000" fill-opacity="0.0" d="m151.66508 245.66833l18.897644 0l0 18.897644l-18.897644 0z" fill-rule="evenodd"/><path stroke="#f3f3f3" stroke-width="1.0" stroke-linejoin="round" stroke-linecap="butt" d="m151.66508 245.66833l18.897644 0l0 18.897644l-18.897644 0z" fill-rule="evenodd"/><path fill="#000000" fill-opacity="0.0" d="m18.897638 282.66238l18.897638 0l0 18.897644l-18.897638 0z" fill-rule="evenodd"/><path stroke="#f3f3f3" stroke-width="1.0" stroke-linejoin="round" stroke-linecap="butt" d="m18.897638 282.66238l18.897638 0l0 18.897644l-18.897638 0z" fill-rule="evenodd"/><path fill="#000000" fill-opacity="0.0" d="m18.897638 301.55246l18.897638 0l0 18.897644l-18.897638 0z" fill-rule="evenodd"/><path stroke="#f3f3f3" stroke-width="1.0" stroke-linejoin="round" stroke-linecap="butt" d="m18.897638 301.55246l18.897638 0l0 18.897644l-18.897638 0z" fill-rule="evenodd"/><path fill="#000000" fill-opacity="0.0" d="m0 263.7723l18.897638 0l0 18.897644l-18.897638 0z" fill-rule="evenodd"/><path stroke="#f3f3f3" stroke-width="1.0" stroke-linejoin="round" stroke-linecap="butt" d="m0 263.7723l18.897638 0l0 18.897644l-18.897638 0z" fill-rule="evenodd"/><path fill="#000000" fill-opacity="0.0" d="m0 282.66238l18.897638 0l0 18.897644l-18.897638 0z" fill-rule="evenodd"/><path stroke="#f3f3f3" stroke-width="1.0" stroke-linejoin="round" stroke-linecap="butt" d="m0 282.66238l18.897638 0l0 18.897644l-18.897638 0z" fill-rule="evenodd"/><path fill="#000000" fill-opacity="0.0" d="m0 301.55246l18.897638 0l0 18.897644l-18.897638 0z" fill-rule="evenodd"/><path stroke="#f3f3f3" stroke-width="1.0" stroke-linejoin="round" stroke-linecap="butt" d="m0 301.55246l18.897638 0l0 18.897644l-18.897638 0z" fill-rule="evenodd"/><path fill="#000000" fill-opacity="0.0" d="m18.897638 263.7723l18.897638 0l0 18.897644l-18.897638 0z" fill-rule="evenodd"/><path stroke="#f3f3f3" stroke-width="1.0" stroke-linejoin="round" stroke-linecap="butt" d="m18.897638 263.7723l18.897638 0l0 18.897644l-18.897638 0z" fill-rule="evenodd"/><path fill="#000000" fill-opacity="0.0" d="m37.795277 263.7723l18.897636 0l0 18.897644l-18.897636 0z" fill-rule="evenodd"/><path stroke="#f3f3f3" stroke-width="1.0" stroke-linejoin="round" stroke-linecap="butt" d="m37.795277 263.7723l18.897636 0l0 18.897644l-18.897636 0z" fill-rule="evenodd"/><path fill="#000000" fill-opacity="0.0" d="m37.795277 282.66238l18.897636 0l0 18.897644l-18.897636 0z" fill-rule="evenodd"/><path stroke="#f3f3f3" stroke-width="1.0" stroke-linejoin="round" stroke-linecap="butt" d="m37.795277 282.66238l18.897636 0l0 18.897644l-18.897636 0z" fill-rule="evenodd"/><path fill="#000000" fill-opacity="0.0" d="m37.795277 301.55246l18.897636 0l0 18.897644l-18.897636 0z" fill-rule="evenodd"/><path stroke="#f3f3f3" stroke-width="1.0" stroke-linejoin="round" stroke-linecap="butt" d="m37.795277 301.55246l18.897636 0l0 18.897644l-18.897636 0z" fill-rule="evenodd"/><path fill="#000000" fill-opacity="0.0" d="m56.692913 263.7723l18.89764 0l0 18.897644l-18.89764 0z" fill-rule="evenodd"/><path stroke="#f3f3f3" stroke-width="1.0" stroke-linejoin="round" stroke-linecap="butt" d="m56.692913 263.7723l18.89764 0l0 18.897644l-18.89764 0z" fill-rule="evenodd"/><path fill="#000000" fill-opacity="0.0" d="m56.692913 282.66238l18.89764 0l0 18.897644l-18.89764 0z" fill-rule="evenodd"/><path stroke="#f3f3f3" stroke-width="1.0" stroke-linejoin="round" stroke-linecap="butt" d="m56.692913 282.66238l18.89764 0l0 18.897644l-18.89764 0z" fill-rule="evenodd"/><path fill="#000000" fill-opacity="0.0" d="m56.692913 301.55246l18.89764 0l0 18.897644l-18.89764 0z" fill-rule="evenodd"/><path stroke="#f3f3f3" stroke-width="1.0" stroke-linejoin="round" stroke-linecap="butt" d="m56.692913 301.55246l18.89764 0l0 18.897644l-18.89764 0z" fill-rule="evenodd"/><path fill="#000000" fill-opacity="0.0" d="m75.59055 263.7723l18.897636 0l0 18.897644l-18.897636 0z" fill-rule="evenodd"/><path stroke="#f3f3f3" stroke-width="1.0" stroke-linejoin="round" stroke-linecap="butt" d="m75.59055 263.7723l18.897636 0l0 18.897644l-18.897636 0z" fill-rule="evenodd"/><path fill="#000000" fill-opacity="0.0" d="m75.59055 282.66238l18.897636 0l0 18.897644l-18.897636 0z" fill-rule="evenodd"/><path stroke="#f3f3f3" stroke-width="1.0" stroke-linejoin="round" stroke-linecap="butt" d="m75.59055 282.66238l18.897636 0l0 18.897644l-18.897636 0z" fill-rule="evenodd"/><path fill="#000000" fill-opacity="0.0" d="m75.59055 301.55246l18.897636 0l0 18.897644l-18.897636 0z" fill-rule="evenodd"/><path stroke="#f3f3f3" stroke-width="1.0" stroke-linejoin="round" stroke-linecap="butt" d="m75.59055 301.55246l18.897636 0l0 18.897644l-18.897636 0z" fill-rule="evenodd"/><path fill="#000000" fill-opacity="0.0" d="m94.48819 263.7723l18.897636 0l0 18.897644l-18.897636 0z" fill-rule="evenodd"/><path stroke="#f3f3f3" stroke-width="1.0" stroke-linejoin="round" stroke-linecap="butt" d="m94.48819 263.7723l18.897636 0l0 18.897644l-18.897636 0z" fill-rule="evenodd"/><path fill="#000000" fill-opacity="0.0" d="m94.48819 282.66238l18.897636 0l0 18.897644l-18.897636 0z" fill-rule="evenodd"/><path stroke="#f3f3f3" stroke-width="1.0" stroke-linejoin="round" stroke-linecap="butt" d="m94.48819 282.66238l18.897636 0l0 18.897644l-18.897636 0z" fill-rule="evenodd"/><path fill="#000000" fill-opacity="0.0" d="m94.48819 301.55246l18.897636 0l0 18.897644l-18.897636 0z" fill-rule="evenodd"/><path stroke="#f3f3f3" stroke-width="1.0" stroke-linejoin="round" stroke-linecap="butt" d="m94.48819 301.55246l18.897636 0l0 18.897644l-18.897636 0z" fill-rule="evenodd"/><path fill="#000000" fill-opacity="0.0" d="m113.385826 263.7723l18.897636 0l0 18.897644l-18.897636 0z" fill-rule="evenodd"/><path stroke="#f3f3f3" stroke-width="1.0" stroke-linejoin="round" stroke-linecap="butt" d="m113.385826 263.7723l18.897636 0l0 18.897644l-18.897636 0z" fill-rule="evenodd"/><path fill="#000000" fill-opacity="0.0" d="m113.385826 282.66238l18.897636 0l0 18.897644l-18.897636 0z" fill-rule="evenodd"/><path stroke="#f3f3f3" stroke-width="1.0" stroke-linejoin="round" stroke-linecap="butt" d="m113.385826 282.66238l18.897636 0l0 18.897644l-18.897636 0z" fill-rule="evenodd"/><path fill="#000000" fill-opacity="0.0" d="m113.385826 301.55246l18.897636 0l0 18.897644l-18.897636 0z" fill-rule="evenodd"/><path stroke="#f3f3f3" stroke-width="1.0" stroke-linejoin="round" stroke-linecap="butt" d="m113.385826 301.55246l18.897636 0l0 18.897644l-18.897636 0z" fill-rule="evenodd"/><path fill="#000000" fill-opacity="0.0" d="m132.28346 263.7723l18.897644 0l0 18.897644l-18.897644 0z" fill-rule="evenodd"/><path stroke="#f3f3f3" stroke-width="1.0" stroke-linejoin="round" stroke-linecap="butt" d="m132.28346 263.7723l18.897644 0l0 18.897644l-18.897644 0z" fill-rule="evenodd"/><path fill="#000000" fill-opacity="0.0" d="m132.28346 282.66238l18.897644 0l0 18.897644l-18.897644 0z" fill-rule="evenodd"/><path stroke="#f3f3f3" stroke-width="1.0" stroke-linejoin="round" stroke-linecap="butt" d="m132.28346 282.66238l18.897644 0l0 18.897644l-18.897644 0z" fill-rule="evenodd"/><path fill="#000000" fill-opacity="0.0" d="m132.28346 301.55246l18.897644 0l0 18.897644l-18.897644 0z" fill-rule="evenodd"/><path stroke="#f3f3f3" stroke-width="1.0" stroke-linejoin="round" stroke-linecap="butt" d="m132.28346 301.55246l18.897644 0l0 18.897644l-18.897644 0z" fill-rule="evenodd"/><path fill="#000000" fill-opacity="0.0" d="m151.40982 263.7723l18.897629 0l0 18.897644l-18.897629 0z" fill-rule="evenodd"/><path stroke="#f3f3f3" stroke-width="1.0" stroke-linejoin="round" stroke-linecap="butt" d="m151.40982 263.7723l18.897629 0l0 18.897644l-18.897629 0z" fill-rule="evenodd"/><path fill="#000000" fill-opacity="0.0" d="m151.40982 282.66238l18.897629 0l0 18.897644l-18.897629 0z" fill-rule="evenodd"/><path stroke="#f3f3f3" stroke-width="1.0" stroke-linejoin="round" stroke-linecap="butt" d="m151.40982 282.66238l18.897629 0l0 18.897644l-18.897629 0z" fill-rule="evenodd"/><path fill="#000000" fill-opacity="0.0" d="m151.40982 301.55246l18.897629 0l0 18.897644l-18.897629 0z" fill-rule="evenodd"/><path stroke="#f3f3f3" stroke-width="1.0" stroke-linejoin="round" stroke-linecap="butt" d="m151.40982 301.55246l18.897629 0l0 18.897644l-18.897629 0z" fill-rule="evenodd"/><path fill="#ffffff" d="m18.897638 18.896683l264.56693 0l0 37.795277l-264.56693 0z" fill-rule="evenodd"/><path stroke="#cccccc" stroke-width="1.0" stroke-linejoin="round" stroke-linecap="butt" d="m18.897638 18.896683l264.56693 0l0 37.795277l-264.56693 0z" fill-rule="evenodd"/><path fill="#000000" d="m137.73189 39.34182q0 -0.90625 0.265625 -1.6875q0.265625 -0.796875 0.765625 -1.375q0.5 -0.578125 1.203125 -0.90625q0.71875 -0.328125 1.609375 -0.328125q0.890625 0 1.609375 0.328125q0.71875 0.328125 1.203125 0.90625q0.5 0.578125 0.765625 1.375q0.265625 0.78125 0.265625 1.6875l0 0.171875q0 0.921875 -0.265625 1.703125q-0.265625 0.78125 -0.765625 1.359375q-0.484375 0.578125 -1.203125 0.90625q-0.703125 0.328125 -1.59375 0.328125q-0.90625 0 -1.625 -0.328125q-0.703125 -0.328125 -1.203125 -0.90625q-0.5 -0.578125 -0.765625 -1.359375q-0.265625 -0.78125 -0.265625 -1.703125l0 -0.171875zm1.453125 0.171875q0 0.625 0.140625 1.203125q0.15625 0.5625 0.453125 1.0q0.296875 0.421875 0.75 0.671875q0.453125 0.25 1.0625 0.25q0.59375 0 1.03125 -0.25q0.453125 -0.25 0.75 -0.671875q0.3125 -0.4375 0.453125 -1.0q0.15625 -0.578125 0.15625 -1.203125l0 -0.171875q0 -0.609375 -0.15625 -1.171875q-0.15625 -0.578125 -0.453125 -1.0q-0.296875 -0.4375 -0.75 -0.6875q-0.453125 -0.25 -1.046875 -0.25q-0.609375 0 -1.0625 0.25q-0.4375 0.25 -0.734375 0.6875q-0.296875 0.421875 -0.453125 1.0q-0.140625 0.5625 -0.140625 1.171875l0 0.171875zm15.6953125 0q0 0.90625 -0.21875 1.703125q-0.21875 0.78125 -0.640625 1.359375q-0.421875 0.578125 -1.046875 0.90625q-0.625 0.328125 -1.421875 0.328125q-0.765625 0 -1.359375 -0.25q-0.59375 -0.25 -1.015625 -0.71875l0 4.0625l-1.4375 0l0 -11.703125l1.3125 0l0.078125 0.921875q0.421875 -0.53125 1.015625 -0.796875q0.59375 -0.28125 1.390625 -0.28125q0.8125 0 1.4375 0.328125q0.625 0.3125 1.046875 0.890625q0.421875 0.5625 0.640625 1.359375q0.21875 0.78125 0.21875 1.734375l0 0.15625zm-1.453125 -0.15625q0 -0.625 -0.140625 -1.171875q-0.125 -0.5625 -0.421875 -0.984375q-0.28125 -0.4375 -0.71875 -0.6875q-0.4375 -0.25 -1.046875 -0.25q-0.6875 0 -1.171875 0.328125q-0.46875 0.328125 -0.75 0.828125l0 4.078125q0.28125 0.5 0.75 0.8125q0.46875 0.3125 1.1875 0.3125q0.609375 0 1.046875 -0.25q0.4375 -0.25 0.71875 -0.671875q0.28125 -0.4375 0.40625 -1.0q0.140625 -0.5625 0.140625 -1.1875l0 -0.15625zm9.4609375 -4.3125q0.203125 0 0.421875 0.015625q0.21875 0 0.40625 0.03125q0.203125 0.03125 0.375 0.078125q0.171875 0.03125 0.28125 0.078125l-0.203125 1.40625q-0.421875 -0.09375 -0.796875 -0.125q-0.375 -0.046875 -0.796875 -0.046875q-1.015625 0 -1.640625 0.46875q-0.625 0.453125 -0.921875 1.28125l0 5.421875l-1.453125 0l0 -8.453125l1.375 0l0.0625 1.34375q0.515625 -0.703125 1.234375 -1.09375q0.734375 -0.40625 1.65625 -0.40625z" fill-rule="nonzero"/><path fill="#ffffff" d="m18.897638 75.5896l264.56693 0l0 37.795273l-264.56693 0z" fill-rule="evenodd"/><path stroke="#cccccc" stroke-width="1.0" stroke-linejoin="round" stroke-linecap="butt" d="m18.897638 75.5896l264.56693 0l0 37.795273l-264.56693 0z" fill-rule="evenodd"/><path fill="#000000" d="m94.52485 96.03474q0 -0.90625 0.265625 -1.6875q0.265625 -0.796875 0.765625 -1.375q0.5 -0.578125 1.203125 -0.90625q0.71875 -0.328125 1.609375 -0.328125q0.890625 0 1.609375 0.328125q0.71875 0.328125 1.203125 0.90625q0.5 0.578125 0.765625 1.375q0.265625 0.78125 0.265625 1.6875l0 0.171875q0 0.921875 -0.265625 1.703125q-0.265625 0.78125 -0.765625 1.359375q-0.484375 0.578125 -1.203125 0.90625q-0.703125 0.328125 -1.59375 0.328125q-0.90625 0 -1.625 -0.328125q-0.703125 -0.328125 -1.203125 -0.90625q-0.5 -0.578125 -0.765625 -1.359375q-0.265625 -0.78125 -0.265625 -1.703125l0 -0.171875zm1.453125 0.171875q0 0.625 0.140625 1.203125q0.15625 0.5625 0.453125 1.0q0.296875 0.421875 0.75 0.671875q0.453125 0.25 1.0625 0.25q0.59375 0 1.03125 -0.25q0.453125 -0.25 0.75 -0.671875q0.3125 -0.4375 0.453125 -1.0q0.15625 -0.578125 0.15625 -1.203125l0 -0.171875q0 -0.609375 -0.15625 -1.171875q-0.15625 -0.578125 -0.453125 -1.0q-0.296875 -0.4375 -0.75 -0.6875q-0.453125 -0.25 -1.046875 -0.25q-0.609375 0 -1.0625 0.25q-0.4375 0.25 -0.734375 0.6875q-0.296875 0.421875 -0.453125 1.0q-0.140625 0.5625 -0.140625 1.171875l0 0.171875zm15.6953125 0q0 0.90625 -0.21875 1.703125q-0.21875 0.78125 -0.640625 1.359375q-0.421875 0.578125 -1.046875 0.90625q-0.625 0.328125 -1.421875 0.328125q-0.765625 0 -1.359375 -0.25q-0.59375 -0.25 -1.015625 -0.71875l0 4.0625l-1.4375 0l0 -11.703125l1.3125 0l0.078125 0.921875q0.421875 -0.53125 1.015625 -0.796875q0.59375 -0.28125 1.390625 -0.28125q0.8125 0 1.4375 0.328125q0.625 0.3125 1.046875 0.890625q0.421875 0.5625 0.640625 1.359375q0.21875 0.78125 0.21875 1.734375l0 0.15625zm-1.453125 -0.15625q0 -0.625 -0.140625 -1.171875q-0.125 -0.5625 -0.421875 -0.984375q-0.28125 -0.4375 -0.71875 -0.6875q-0.4375 -0.25 -1.046875 -0.25q-0.6875 0 -1.171875 0.328125q-0.46875 0.328125 -0.75 0.828125l0 4.078125q0.28125 0.5 0.75 0.8125q0.46875 0.3125 1.1875 0.3125q0.609375 0 1.046875 -0.25q0.4375 -0.25 0.71875 -0.671875q0.28125 -0.4375 0.40625 -1.0q0.140625 -0.5625 0.140625 -1.1875l0 -0.15625zm9.4609375 -4.3125q0.203125 0 0.421875 0.015625q0.21875 0 0.40625 0.03125q0.203125 0.03125 0.375 0.078125q0.171875 0.03125 0.28125 0.078125l-0.203125 1.40625q-0.421875 -0.09375 -0.796875 -0.125q-0.375 -0.046875 -0.796875 -0.046875q-1.015625 0 -1.640625 0.46875q-0.625 0.453125 -0.921875 1.28125l0 5.421875l-1.453125 0l0 -8.453125l1.375 0l0.0625 1.34375q0.515625 -0.703125 1.234375 -1.09375q0.734375 -0.40625 1.65625 -0.40625zm5.4921875 3.984375q0 -1.109375 0.171875 -2.09375q0.171875 -0.984375 0.46875 -1.828125q0.296875 -0.84375 0.6875 -1.53125q0.390625 -0.703125 0.8125 -1.234375q0.421875 -0.546875 0.8437576 -0.921875q0.4375 -0.390625 0.828125 -0.609375l0.3125 0.953125q-0.484375 0.375 -0.96875 1.015625q-0.48438263 0.625 -0.8593826 1.53125q-0.375 0.890625 -0.625 2.078125q-0.234375 1.171875 -0.234375 2.625l0 0.109375q0 1.46875 0.234375 2.65625q0.25 1.171875 0.625 2.078125q0.375 0.90625 0.8593826 1.546875q0.484375 0.65625 0.96875 1.046875l-0.3125 0.875q-0.390625 -0.21875 -0.828125 -0.59375q-0.42188263 -0.375 -0.8593826 -0.921875q-0.421875 -0.546875 -0.8125 -1.234375q-0.375 -0.6875 -0.671875 -1.53125q-0.296875 -0.84375 -0.46875 -1.828125q-0.171875 -0.984375 -0.171875 -2.109375l0 -0.078125zm11.47657 2.546875l0.140625 0.515625l0.140625 -0.515625l2.359375 -6.375l1.484375 0l-3.453125 8.453125l-1.09375 0l-3.484375 -8.453125l1.484375 0l2.421875 6.375zm22.859375 -4.015625l-6.96875 0l0 -1.265625l6.96875 0l0 1.265625zm0 3.234375l-6.96875 0l0 -1.25l6.96875 0l0 1.25zm2.6640625 -4.25l0 -1.484375l6.90625 2.953125l0 1.140625l-6.90625 2.953125l0 -1.5l5.0625 -1.90625l0.46875 -0.125l-0.46875 -0.15625l-5.0625 -1.875zm23.203125 3.421875l-1.453125 0l0 -7.6875l1.453125 0l0 7.6875zm-1.59375 2.921875q0 -0.375 0.21875 -0.625q0.234375 -0.25 0.671875 -0.25q0.453125 0 0.671875 0.25q0.234375 0.25 0.234375 0.625q0 0.359375 -0.234375 0.609375q-0.21875 0.25 -0.671875 0.25q-0.4375 0 -0.671875 -0.25q-0.21875 -0.25 -0.21875 -0.609375zm10.4765625 -1.3125l0.140625 0.515625l0.140625 -0.515625l2.359375 -6.375l1.484375 0l-3.453125 8.453125l-1.09375 0l-3.484375 -8.453125l1.484375 0l2.421875 6.375zm11.5703125 -2.46875q0 1.125 -0.1875 2.109375q-0.171875 0.984375 -0.46875 1.828125q-0.296875 0.84375 -0.6875 1.53125q-0.375 0.6875 -0.8125 1.234375q-0.421875 0.546875 -0.859375 0.921875q-0.421875 0.375 -0.8125 0.59375l-0.3125 -0.875q0.484375 -0.359375 0.96875 -1.015625q0.484375 -0.640625 0.859375 -1.5625q0.375 -0.90625 0.609375 -2.09375q0.25 -1.1875 0.25 -2.65625l0 -0.109375q0 -1.453125 -0.25 -2.640625q-0.25 -1.203125 -0.65625 -2.109375q-0.390625 -0.921875 -0.859375 -1.5625q-0.46875 -0.640625 -0.921875 -1.0l0.3125 -0.890625q0.390625 0.21875 0.8125 0.609375q0.4375 0.375 0.859375 0.921875q0.4375 0.53125 0.8125 1.234375q0.390625 0.6875 0.6875 1.53125q0.296875 0.84375 0.46875 1.828125q0.1875 0.984375 0.1875 2.09375l0 0.078125z" fill-rule="nonzero"/><path fill="#ffffff" d="m18.897638 132.28252l264.56693 0l0 37.795273l-264.56693 0z" fill-rule="evenodd"/><path stroke="#cccccc" stroke-width="1.0" stroke-linejoin="round" stroke-linecap="butt" d="m18.897638 132.28252l264.56693 0l0 37.795273l-264.56693 0z" fill-rule="evenodd"/><path fill="#000000" d="m36.915474 151.22765q0 -0.90625 0.265625 -1.6875q0.265625 -0.796875 0.765625 -1.375q0.5 -0.578125 1.203125 -0.90625q0.71875 -0.328125 1.609375 -0.328125q0.890625 0 1.609375 0.328125q0.71875 0.328125 1.203125 0.90625q0.5 0.578125 0.765625 1.375q0.265625 0.78125 0.265625 1.6875l0 0.171875q0 0.921875 -0.265625 1.703125q-0.265625 0.78125 -0.765625 1.359375q-0.484375 0.578125 -1.203125 0.90625q-0.703125 0.328125 -1.59375 0.328125q-0.90625 0 -1.625 -0.328125q-0.703125 -0.328125 -1.203125 -0.90625q-0.5 -0.578125 -0.765625 -1.359375q-0.265625 -0.78125 -0.265625 -1.703125l0 -0.171875zm1.453125 0.171875q0 0.625 0.140625 1.203125q0.15625 0.5625 0.453125 1.0q0.296875 0.421875 0.75 0.671875q0.453125 0.25 1.0625 0.25q0.59375 0 1.03125 -0.25q0.453125 -0.25 0.75 -0.671875q0.3125 -0.4375 0.453125 -1.0q0.15625 -0.578125 0.15625 -1.203125l0 -0.171875q0 -0.609375 -0.15625 -1.171875q-0.15625 -0.578125 -0.453125 -1.0q-0.296875 -0.4375 -0.75 -0.6875q-0.453125 -0.25 -1.046875 -0.25q-0.609375 0 -1.0625 0.25q-0.4375 0.25 -0.734375 0.6875q-0.296875 0.421875 -0.453125 1.0q-0.140625 0.5625 -0.140625 1.171875l0 0.171875zm15.6953125 0q0 0.90625 -0.21875 1.703125q-0.21875 0.78125 -0.640625 1.359375q-0.421875 0.578125 -1.046875 0.90625q-0.625 0.328125 -1.421875 0.328125q-0.765625 0 -1.359375 -0.25q-0.59375 -0.25 -1.015625 -0.71875l0 4.0625l-1.4375 0l0 -11.703125l1.3125 0l0.078125 0.921875q0.421875 -0.53125 1.015625 -0.796875q0.59375 -0.28125 1.390625 -0.28125q0.8125 0 1.4375 0.328125q0.625 0.3125 1.046875 0.890625q0.421875 0.5625 0.640625 1.359375q0.21875 0.78125 0.21875 1.734375l0 0.15625zm-1.453125 -0.15625q0 -0.625 -0.140625 -1.171875q-0.125 -0.5625 -0.421875 -0.984375q-0.28125 -0.4375 -0.71875 -0.6875q-0.4375 -0.25 -1.046875 -0.25q-0.6875 0 -1.171875 0.328125q-0.46875 0.328125 -0.75 0.828125l0 4.078125q0.28125 0.5 0.75 0.8125q0.46875 0.3125 1.1875 0.3125q0.609375 0 1.046875 -0.25q0.4375 -0.25 0.71875 -0.671875q0.28125 -0.4375 0.40625 -1.0q0.140625 -0.5625 0.140625 -1.1875l0 -0.15625zm9.4609375 -4.3125q0.203125 0 0.421875 0.015625q0.21875 0 0.40625 0.03125q0.203125 0.03125 0.375 0.078125q0.171875 0.03125 0.28125 0.078125l-0.203125 1.40625q-0.421875 -0.09375 -0.796875 -0.125q-0.375 -0.046875 -0.796875 -0.046875q-1.015625 0 -1.640625 0.46875q-0.625 0.453125 -0.921875 1.28125l0 5.421875l-1.453125 0l0 -8.453125l1.375 0l0.0625 1.34375q0.515625 -0.703125 1.234375 -1.09375q0.734375 -0.40625 1.65625 -0.40625zm5.4921875 3.984375q0 -1.109375 0.171875 -2.09375q0.171875 -0.984375 0.46875 -1.828125q0.296875 -0.84375 0.6875 -1.53125q0.390625 -0.703125 0.8125 -1.234375q0.421875 -0.546875 0.84375 -0.921875q0.4375 -0.390625 0.828125 -0.609375l0.3125 0.953125q-0.484375 0.375 -0.96875 1.015625q-0.484375 0.625 -0.859375 1.53125q-0.375 0.890625 -0.625 2.078125q-0.234375 1.171875 -0.234375 2.625l0 0.109375q0 1.46875 0.234375 2.65625q0.25 1.171875 0.625 2.078125q0.375 0.90625 0.859375 1.546875q0.484375 0.65625 0.96875 1.046875l-0.3125 0.875q-0.390625 -0.21875 -0.828125 -0.59375q-0.421875 -0.375 -0.859375 -0.921875q-0.421875 -0.546875 -0.8125 -1.234375q-0.375 -0.6875 -0.671875 -1.53125q-0.296875 -0.84375 -0.46875 -1.828125q-0.171875 -0.984375 -0.171875 -2.109375l0 -0.078125zm80.43751 -7.1875l-1.71875 0l0 13.0625l1.71875 0l0 1.1875l-3.09375 0l0 -15.4375l3.09375 0l0 1.1875zm6.3515625 -1.1875l3.09375 0l0 15.4375l-3.09375 0l0 -1.1875l1.734375 0l0 -13.0625l-1.734375 0l0 -1.1875zm24.359375 6.90625l-6.96875 0l0 -1.265625l6.96875 0l0 1.265625zm0 3.234375l-6.96875 0l0 -1.25l6.96875 0l0 1.25zm2.6640625 -4.25l0 -1.484375l6.90625 2.953125l0 1.140625l-6.90625 2.953125l0 -1.5l5.0625 -1.90625l0.46875 -0.125l-0.46875 -0.15625l-5.0625 -1.875zm82.062485 2.5625q0 1.125 -0.1875 2.109375q-0.171875 0.984375 -0.46875 1.828125q-0.296875 0.84375 -0.6875 1.53125q-0.375 0.6875 -0.8125 1.234375q-0.421875 0.546875 -0.859375 0.921875q-0.421875 0.375 -0.8125 0.59375l-0.3125 -0.875q0.484375 -0.359375 0.96875 -1.015625q0.484375 -0.640625 0.859375 -1.5625q0.375 -0.90625 0.609375 -2.09375q0.25 -1.1875 0.25 -2.65625l0 -0.109375q0 -1.453125 -0.25 -2.640625q-0.25 -1.203125 -0.65625 -2.109375q-0.390625 -0.921875 -0.859375 -1.5625q-0.46875 -0.640625 -0.921875 -1.0l0.3125 -0.890625q0.390625 0.21875 0.8125 0.609375q0.4375 0.375 0.859375 0.921875q0.4375 0.53125 0.8125 1.234375q0.390625 0.6875 0.6875 1.53125q0.296875 0.84375 0.46875 1.828125q0.1875 0.984375 0.1875 2.09375l0 0.078125z" fill-rule="nonzero"/><path fill="#ffffff" d="m75.59055 188.97542l207.87402 0l0 75.59056l-207.87402 0z" fill-rule="evenodd"/><path stroke="#cccccc" stroke-width="1.0" stroke-linejoin="round" stroke-linecap="butt" d="m75.59055 188.97542l207.87402 0l0 75.59056l-207.87402 0z" fill-rule="evenodd"/><path fill="#000000" fill-opacity="0.0" d="m80.267715 151.18015l56.692917 0" fill-rule="evenodd"/><path stroke="#000000" stroke-width="1.0" stroke-linejoin="round" stroke-linecap="butt" d="m80.267715 151.18015l50.692917 0" fill-rule="evenodd"/><path fill="#000000" stroke="#000000" stroke-width="1.0" stroke-linecap="butt" d="m130.96063 152.83188l4.538101 -1.6517334l-4.538101 -1.6517334z" fill-rule="evenodd"/><path fill="#f77c00" d="m99.16535 151.18015l9.448822 -9.448822l9.448822 9.448822l-9.448822 9.448822z" fill-rule="evenodd"/><path fill="#000000" fill-opacity="0.0" d="m199.05511 151.18015l56.692917 0" fill-rule="evenodd"/><path stroke="#000000" stroke-width="1.0" stroke-linejoin="round" stroke-linecap="butt" d="m199.05511 151.18015l50.692917 0" fill-rule="evenodd"/><path fill="#000000" stroke="#000000" stroke-width="1.0" stroke-linecap="butt" d="m249.74803 152.83188l4.538101 -1.6517334l-4.538101 -1.6517334z" fill-rule="evenodd"/><path fill="#f77c00" d="m217.95276 151.18015l9.448822 -9.448822l9.448807 9.448822l-9.448807 9.448822z" fill-rule="evenodd"/><path fill="#000000" fill-opacity="0.0" d="m0 188.97542l75.59055 0l0 37.795288l-75.59055 0z" fill-rule="evenodd"/><path fill="#cccccc" d="m38.738987 209.02292q0 -0.90625 0.265625 -1.6875q0.265625 -0.796875 0.765625 -1.375q0.5 -0.578125 1.203125 -0.90625q0.71875 -0.328125 1.609375 -0.328125q0.890625 0 1.609375 0.328125q0.71875 0.328125 1.203125 0.90625q0.5 0.578125 0.765625 1.375q0.265625 0.78125 0.265625 1.6875l0 0.171875q0 0.921875 -0.265625 1.703125q-0.265625 0.78125 -0.765625 1.359375q-0.484375 0.578125 -1.203125 0.90625q-0.703125 0.328125 -1.59375 0.328125q-0.90625 0 -1.625 -0.328125q-0.703125 -0.328125 -1.203125 -0.90625q-0.5 -0.578125 -0.765625 -1.359375q-0.265625 -0.78125 -0.265625 -1.703125l0 -0.171875zm1.453125 0.171875q0 0.625 0.140625 1.203125q0.15625 0.5625 0.453125 1.0q0.296875 0.421875 0.75 0.671875q0.453125 0.25 1.0625 0.25q0.59375 0 1.03125 -0.25q0.453125 -0.25 0.75 -0.671875q0.3125 -0.4375 0.453125 -1.0q0.15625 -0.578125 0.15625 -1.203125l0 -0.171875q0 -0.609375 -0.15625 -1.171875q-0.15625 -0.578125 -0.453125 -1.0q-0.296875 -0.4375 -0.75 -0.6875q-0.453125 -0.25 -1.046875 -0.25q-0.609375 0 -1.0625 0.25q-0.4375 0.25 -0.734375 0.6875q-0.296875 0.421875 -0.453125 1.0q-0.140625 0.5625 -0.140625 1.171875l0 0.171875zm15.6953125 0q0 0.90625 -0.21875 1.703125q-0.21875 0.78125 -0.640625 1.359375q-0.421875 0.578125 -1.046875 0.90625q-0.625 0.328125 -1.421875 0.328125q-0.765625 0 -1.359375 -0.25q-0.59375 -0.25 -1.015625 -0.71875l0 4.0625l-1.4375 0l0 -11.703125l1.3125 0l0.078125 0.921875q0.421875 -0.53125 1.015625 -0.796875q0.59375 -0.28125 1.390625 -0.28125q0.8125 0 1.4375 0.328125q0.625 0.3125 1.046875 0.890625q0.421875 0.5625 0.640625 1.359375q0.21875 0.78125 0.21875 1.734375l0 0.15625zm-1.453125 -0.15625q0 -0.625 -0.140625 -1.171875q-0.125 -0.5625 -0.421875 -0.984375q-0.28125 -0.4375 -0.71875 -0.6875q-0.4375 -0.25 -1.046875 -0.25q-0.6875 0 -1.171875 0.328125q-0.46875 0.328125 -0.75 0.828125l0 4.078125q0.28125 0.5 0.75 0.8125q0.46875 0.3125 1.1875 0.3125q0.609375 0 1.046875 -0.25q0.4375 -0.25 0.71875 -0.671875q0.28125 -0.4375 0.40625 -1.0q0.140625 -0.5625 0.140625 -1.1875l0 -0.15625zm9.4609375 -4.3125q0.20312119 0 0.4218712 0.015625q0.21875 0 0.40625 0.03125q0.203125 0.03125 0.375 0.078125q0.171875 0.03125 0.28125 0.078125l-0.203125 1.40625q-0.421875 -0.09375 -0.796875 -0.125q-0.375 -0.046875 -0.7968712 -0.046875q-1.015625 0 -1.640625 0.46875q-0.625 0.453125 -0.921875 1.28125l0 5.421875l-1.453125 0l0 -8.453125l1.375 0l0.0625 1.34375q0.515625 -0.703125 1.234375 -1.09375q0.734375 -0.40625 1.65625 -0.40625z" fill-rule="nonzero"/><path fill="#000000" fill-opacity="0.0" d="m94.48819 226.7707l170.07874 0" fill-rule="evenodd"/><path stroke="#434343" stroke-width="1.0" stroke-linejoin="round" stroke-linecap="butt" d="m94.48819 226.77069l164.07874 0" fill-rule="evenodd"/><path fill="#434343" stroke="#434343" stroke-width="1.0" stroke-linecap="butt" d="m258.56693 228.42242l4.5381165 -1.6517334l-4.5381165 -1.6517334z" fill-rule="evenodd"/><path fill="#89c540" d="m94.48819 226.7707l0 0c0 -10.43689 8.460762 -18.897644 18.897636 -18.897644l0 0c5.011963 0 9.818657 1.9909973 13.362648 5.5349884c3.543991 3.543991 5.5349884 8.3506775 5.5349884 13.362656l0 0c0 10.436874 -8.460762 18.897629 -18.897636 18.897629l0 0c-10.436874 0 -18.897636 -8.460754 -18.897636 -18.897629z" fill-rule="evenodd"/><path fill="#f3f3f3" d="m115.22554 231.6907q-0.09375 -0.1875 -0.15625 -0.421875q-0.0625 -0.234375 -0.109375 -0.5q-0.203125 0.234375 -0.484375 0.4375q-0.265625 0.1875 -0.609375 0.34375q-0.328125 0.15625 -0.734375 0.234375q-0.390625 0.09375 -0.859375 0.09375q-0.75 0 -1.390625 -0.21875q-0.625 -0.21875 -1.078125 -0.609375q-0.453125 -0.390625 -0.71875 -0.9375q-0.25 -0.546875 -0.25 -1.1875q0 -1.546875 1.15625 -2.390625q1.171875 -0.859375 3.46875 -0.859375l1.421875 0l0 -0.59375q0 -0.703125 -0.46875 -1.109375q-0.46875 -0.421875 -1.34375 -0.421875q-0.765625 0 -1.125 0.328125q-0.359375 0.328125 -0.359375 0.890625l-2.53125 0q0 -0.625 0.28125 -1.1875q0.28125 -0.578125 0.8125 -1.0q0.53125 -0.421875 1.296875 -0.671875q0.765625 -0.25 1.765625 -0.25q0.890625 0 1.65625 0.21875q0.78125 0.21875 1.34375 0.640625q0.5625 0.421875 0.875 1.078125q0.328125 0.65625 0.328125 1.5l0 4.234375q0 0.796875 0.09375 1.3125q0.09375 0.515625 0.296875 0.890625l0 0.15625l-2.578125 0zm-2.40625 -1.78125q0.375 0 0.703125 -0.078125q0.328125 -0.09375 0.59375 -0.234375q0.265625 -0.15625 0.453125 -0.34375q0.203125 -0.1875 0.3125 -0.375l0 -1.703125l-1.296875 0q-0.59375 0 -1.015625 0.125q-0.421875 0.109375 -0.6875 0.3125q-0.265625 0.203125 -0.390625 0.5q-0.125 0.28125 -0.125 0.625q0 0.5 0.359375 0.84375q0.359375 0.328125 1.09375 0.328125z" fill-rule="nonzero"/><path fill="#434343" d="m264.56693 207.87306l3.779541 0l0 37.795273l-3.779541 0z" fill-rule="evenodd"/></g></svg>