<svg version="1.1" viewBox="0.0 0.0 151.1811023622047 94.48818897637796" fill="none" stroke="none" stroke-linecap="square" stroke-miterlimit="10" xmlns:xlink="http://www.w3.org/1999/xlink" xmlns="http://www.w3.org/2000/svg"><clipPath id="p.0"><path d="m0 0l151.1811 0l0 94.48819l-151.1811 0l0 -94.48819z" clip-rule="nonzero"/></clipPath><g clip-path="url(#p.0)"><path fill="#000000" fill-opacity="0.0" d="m0 0l151.1811 0l0 94.48819l-151.1811 0z" fill-rule="evenodd"/><path fill="#000000" fill-opacity="0.0" d="m113.385826 56.692913l37.79528 0l0 37.795277l-37.79528 0z" fill-rule="evenodd"/><path fill="#000000" d="m128.52174 72.18493l0 -2.03125l7.5 0l0 1.59375q-0.921875 0.90625 -1.890625 2.625q-0.953125 1.703125 -1.46875 3.640625q-0.5 1.921875 -0.484375 3.4375l-2.125 0q0.0625 -2.375 0.984375 -4.84375q0.921875 -2.46875 2.46875 -4.421875l-4.984375 0z" fill-rule="nonzero"/><path fill="#000000" fill-opacity="0.0" d="m18.897638 18.897638l18.897638 0l0 18.897638l-18.897638 0z" fill-rule="evenodd"/><path stroke="#f3f3f3" stroke-width="1.0" stroke-linejoin="round" stroke-linecap="butt" d="m18.897638 18.897638l18.897638 0l0 18.897638l-18.897638 0z" fill-rule="evenodd"/><path fill="#000000" fill-opacity="0.0" d="m18.897638 37.795277l18.897638 0l0 18.897636l-18.897638 0z" fill-rule="evenodd"/><path stroke="#f3f3f3" stroke-width="1.0" stroke-linejoin="round" stroke-linecap="butt" d="m18.897638 37.795277l18.897638 0l0 18.897636l-18.897638 0z" fill-rule="evenodd"/><path fill="#000000" fill-opacity="0.0" d="m0 0l18.897638 0l0 18.897638l-18.897638 0z" fill-rule="evenodd"/><path stroke="#f3f3f3" stroke-width="1.0" stroke-linejoin="round" stroke-linecap="butt" d="m0 0l18.897638 0l0 18.897638l-18.897638 0z" fill-rule="evenodd"/><path fill="#000000" fill-opacity="0.0" d="m0 18.897638l18.897638 0l0 18.897638l-18.897638 0z" fill-rule="evenodd"/><path stroke="#f3f3f3" stroke-width="1.0" stroke-linejoin="round" stroke-linecap="butt" d="m0 18.897638l18.897638 0l0 18.897638l-18.897638 0z" fill-rule="evenodd"/><path fill="#000000" fill-opacity="0.0" d="m0 37.795277l18.897638 0l0 18.897636l-18.897638 0z" fill-rule="evenodd"/><path stroke="#f3f3f3" stroke-width="1.0" stroke-linejoin="round" stroke-linecap="butt" d="m0 37.795277l18.897638 0l0 18.897636l-18.897638 0z" fill-rule="evenodd"/><path fill="#000000" fill-opacity="0.0" d="m0 56.692913l18.897638 0l0 18.89764l-18.897638 0z" fill-rule="evenodd"/><path stroke="#f3f3f3" stroke-width="1.0" stroke-linejoin="round" stroke-linecap="butt" d="m0 56.692913l18.897638 0l0 18.89764l-18.897638 0z" fill-rule="evenodd"/><path fill="#000000" fill-opacity="0.0" d="m18.897638 0l18.897638 0l0 18.897638l-18.897638 0z" fill-rule="evenodd"/><path stroke="#f3f3f3" stroke-width="1.0" stroke-linejoin="round" stroke-linecap="butt" d="m18.897638 0l18.897638 0l0 18.897638l-18.897638 0z" fill-rule="evenodd"/><path fill="#000000" fill-opacity="0.0" d="m18.897638 56.692913l18.897638 0l0 18.89764l-18.897638 0z" fill-rule="evenodd"/><path stroke="#f3f3f3" stroke-width="1.0" stroke-linejoin="round" stroke-linecap="butt" d="m18.897638 56.692913l18.897638 0l0 18.89764l-18.897638 0z" fill-rule="evenodd"/><path fill="#000000" fill-opacity="0.0" d="m37.795277 0l18.897636 0l0 18.897638l-18.897636 0z" fill-rule="evenodd"/><path stroke="#f3f3f3" stroke-width="1.0" stroke-linejoin="round" stroke-linecap="butt" d="m37.795277 0l18.897636 0l0 18.897638l-18.897636 0z" fill-rule="evenodd"/><path fill="#000000" fill-opacity="0.0" d="m37.795277 18.897638l18.897636 0l0 18.897638l-18.897636 0z" fill-rule="evenodd"/><path stroke="#f3f3f3" stroke-width="1.0" stroke-linejoin="round" stroke-linecap="butt" d="m37.795277 18.897638l18.897636 0l0 18.897638l-18.897636 0z" fill-rule="evenodd"/><path fill="#000000" fill-opacity="0.0" d="m37.795277 37.795277l18.897636 0l0 18.897636l-18.897636 0z" fill-rule="evenodd"/><path stroke="#f3f3f3" stroke-width="1.0" stroke-linejoin="round" stroke-linecap="butt" d="m37.795277 37.795277l18.897636 0l0 18.897636l-18.897636 0z" fill-rule="evenodd"/><path fill="#000000" fill-opacity="0.0" d="m37.795277 56.692913l18.897636 0l0 18.89764l-18.897636 0z" fill-rule="evenodd"/><path stroke="#f3f3f3" stroke-width="1.0" stroke-linejoin="round" stroke-linecap="butt" d="m37.795277 56.692913l18.897636 0l0 18.89764l-18.897636 0z" fill-rule="evenodd"/><path fill="#000000" fill-opacity="0.0" d="m56.692913 0l18.89764 0l0 18.897638l-18.89764 0z" fill-rule="evenodd"/><path stroke="#f3f3f3" stroke-width="1.0" stroke-linejoin="round" stroke-linecap="butt" d="m56.692913 0l18.89764 0l0 18.897638l-18.89764 0z" fill-rule="evenodd"/><path fill="#000000" fill-opacity="0.0" d="m56.692913 18.897638l18.89764 0l0 18.897638l-18.89764 0z" fill-rule="evenodd"/><path stroke="#f3f3f3" stroke-width="1.0" stroke-linejoin="round" stroke-linecap="butt" d="m56.692913 18.897638l18.89764 0l0 18.897638l-18.89764 0z" fill-rule="evenodd"/><path fill="#000000" fill-opacity="0.0" d="m56.692913 37.795277l18.89764 0l0 18.897636l-18.89764 0z" fill-rule="evenodd"/><path stroke="#f3f3f3" stroke-width="1.0" stroke-linejoin="round" stroke-linecap="butt" d="m56.692913 37.795277l18.89764 0l0 18.897636l-18.89764 0z" fill-rule="evenodd"/><path fill="#000000" fill-opacity="0.0" d="m56.692913 56.692913l18.89764 0l0 18.89764l-18.89764 0z" fill-rule="evenodd"/><path stroke="#f3f3f3" stroke-width="1.0" stroke-linejoin="round" stroke-linecap="butt" d="m56.692913 56.692913l18.89764 0l0 18.89764l-18.89764 0z" fill-rule="evenodd"/><path fill="#000000" fill-opacity="0.0" d="m75.59055 0l18.897636 0l0 18.897638l-18.897636 0z" fill-rule="evenodd"/><path stroke="#f3f3f3" stroke-width="1.0" stroke-linejoin="round" stroke-linecap="butt" d="m75.59055 0l18.897636 0l0 18.897638l-18.897636 0z" fill-rule="evenodd"/><path fill="#000000" fill-opacity="0.0" d="m75.59055 18.897638l18.897636 0l0 18.897638l-18.897636 0z" fill-rule="evenodd"/><path stroke="#f3f3f3" stroke-width="1.0" stroke-linejoin="round" stroke-linecap="butt" d="m75.59055 18.897638l18.897636 0l0 18.897638l-18.897636 0z" fill-rule="evenodd"/><path fill="#000000" fill-opacity="0.0" d="m75.59055 37.795277l18.897636 0l0 18.897636l-18.897636 0z" fill-rule="evenodd"/><path stroke="#f3f3f3" stroke-width="1.0" stroke-linejoin="round" stroke-linecap="butt" d="m75.59055 37.795277l18.897636 0l0 18.897636l-18.897636 0z" fill-rule="evenodd"/><path fill="#000000" fill-opacity="0.0" d="m75.59055 56.692913l18.897636 0l0 18.89764l-18.897636 0z" fill-rule="evenodd"/><path stroke="#f3f3f3" stroke-width="1.0" stroke-linejoin="round" stroke-linecap="butt" d="m75.59055 56.692913l18.897636 0l0 18.89764l-18.897636 0z" fill-rule="evenodd"/><path fill="#000000" fill-opacity="0.0" d="m94.48819 0l18.897636 0l0 18.897638l-18.897636 0z" fill-rule="evenodd"/><path stroke="#f3f3f3" stroke-width="1.0" stroke-linejoin="round" stroke-linecap="butt" d="m94.48819 0l18.897636 0l0 18.897638l-18.897636 0z" fill-rule="evenodd"/><path fill="#000000" fill-opacity="0.0" d="m94.48819 18.897638l18.897636 0l0 18.897638l-18.897636 0z" fill-rule="evenodd"/><path stroke="#f3f3f3" stroke-width="1.0" stroke-linejoin="round" stroke-linecap="butt" d="m94.48819 18.897638l18.897636 0l0 18.897638l-18.897636 0z" fill-rule="evenodd"/><path fill="#000000" fill-opacity="0.0" d="m94.48819 37.795277l18.897636 0l0 18.897636l-18.897636 0z" fill-rule="evenodd"/><path stroke="#f3f3f3" stroke-width="1.0" stroke-linejoin="round" stroke-linecap="butt" d="m94.48819 37.795277l18.897636 0l0 18.897636l-18.897636 0z" fill-rule="evenodd"/><path fill="#000000" fill-opacity="0.0" d="m94.48819 56.692913l18.897636 0l0 18.89764l-18.897636 0z" fill-rule="evenodd"/><path stroke="#f3f3f3" stroke-width="1.0" stroke-linejoin="round" stroke-linecap="butt" d="m94.48819 56.692913l18.897636 0l0 18.89764l-18.897636 0z" fill-rule="evenodd"/><path fill="#000000" fill-opacity="0.0" d="m113.385826 0l18.897636 0l0 18.897638l-18.897636 0z" fill-rule="evenodd"/><path stroke="#f3f3f3" stroke-width="1.0" stroke-linejoin="round" stroke-linecap="butt" d="m113.385826 0l18.897636 0l0 18.897638l-18.897636 0z" fill-rule="evenodd"/><path fill="#000000" fill-opacity="0.0" d="m113.385826 18.897638l18.897636 0l0 18.897638l-18.897636 0z" fill-rule="evenodd"/><path stroke="#f3f3f3" stroke-width="1.0" stroke-linejoin="round" stroke-linecap="butt" d="m113.385826 18.897638l18.897636 0l0 18.897638l-18.897636 0z" fill-rule="evenodd"/><path fill="#000000" fill-opacity="0.0" d="m113.385826 37.795277l18.897636 0l0 18.897636l-18.897636 0z" fill-rule="evenodd"/><path stroke="#f3f3f3" stroke-width="1.0" stroke-linejoin="round" stroke-linecap="butt" d="m113.385826 37.795277l18.897636 0l0 18.897636l-18.897636 0z" fill-rule="evenodd"/><path fill="#000000" fill-opacity="0.0" d="m0 75.779526l18.897638 0l0 18.897636l-18.897638 0z" fill-rule="evenodd"/><path stroke="#f3f3f3" stroke-width="1.0" stroke-linejoin="round" stroke-linecap="butt" d="m0 75.779526l18.897638 0l0 18.897636l-18.897638 0z" fill-rule="evenodd"/><path fill="#000000" fill-opacity="0.0" d="m18.897638 75.779526l18.897638 0l0 18.897636l-18.897638 0z" fill-rule="evenodd"/><path stroke="#f3f3f3" stroke-width="1.0" stroke-linejoin="round" stroke-linecap="butt" d="m18.897638 75.779526l18.897638 0l0 18.897636l-18.897638 0z" fill-rule="evenodd"/><path fill="#000000" fill-opacity="0.0" d="m37.795277 75.779526l18.897636 0l0 18.897636l-18.897636 0z" fill-rule="evenodd"/><path stroke="#f3f3f3" stroke-width="1.0" stroke-linejoin="round" stroke-linecap="butt" d="m37.795277 75.779526l18.897636 0l0 18.897636l-18.897636 0z" fill-rule="evenodd"/><path fill="#000000" fill-opacity="0.0" d="m56.692913 75.779526l18.89764 0l0 18.897636l-18.89764 0z" fill-rule="evenodd"/><path stroke="#f3f3f3" stroke-width="1.0" stroke-linejoin="round" stroke-linecap="butt" d="m56.692913 75.779526l18.89764 0l0 18.897636l-18.89764 0z" fill-rule="evenodd"/><path fill="#000000" fill-opacity="0.0" d="m75.59055 75.779526l18.897636 0l0 18.897636l-18.897636 0z" fill-rule="evenodd"/><path stroke="#f3f3f3" stroke-width="1.0" stroke-linejoin="round" stroke-linecap="butt" d="m75.59055 75.779526l18.897636 0l0 18.897636l-18.897636 0z" fill-rule="evenodd"/><path fill="#000000" fill-opacity="0.0" d="m94.48819 75.779526l18.897636 0l0 18.897636l-18.897636 0z" fill-rule="evenodd"/><path stroke="#f3f3f3" stroke-width="1.0" stroke-linejoin="round" stroke-linecap="butt" d="m94.48819 75.779526l18.897636 0l0 18.897636l-18.897636 0z" fill-rule="evenodd"/><path fill="#000000" fill-opacity="0.0" d="m132.28346 0l18.897644 0l0 18.897638l-18.897644 0z" fill-rule="evenodd"/><path stroke="#f3f3f3" stroke-width="1.0" stroke-linejoin="round" stroke-linecap="butt" d="m132.28346 0l18.897644 0l0 18.897638l-18.897644 0z" fill-rule="evenodd"/><path fill="#000000" fill-opacity="0.0" d="m132.28346 18.897638l18.897644 0l0 18.897638l-18.897644 0z" fill-rule="evenodd"/><path stroke="#f3f3f3" stroke-width="1.0" stroke-linejoin="round" stroke-linecap="butt" d="m132.28346 18.897638l18.897644 0l0 18.897638l-18.897644 0z" fill-rule="evenodd"/><path fill="#000000" fill-opacity="0.0" d="m132.28346 37.795277l18.897644 0l0 18.897636l-18.897644 0z" fill-rule="evenodd"/><path stroke="#f3f3f3" stroke-width="1.0" stroke-linejoin="round" stroke-linecap="butt" d="m132.28346 37.795277l18.897644 0l0 18.897636l-18.897644 0z" fill-rule="evenodd"/><path fill="#ffffff" d="m19.301838 18.616798l75.590546 0l0 37.795277l-75.590546 0z" fill-rule="evenodd"/><path stroke="#cccccc" stroke-width="1.0" stroke-linejoin="round" stroke-linecap="butt" d="m19.301838 18.616798l75.590546 0l0 37.795277l-75.590546 0z" fill-rule="evenodd"/></g></svg>