<?xml version="1.0" encoding="utf-8"?>
<!-- Generator: Adobe Illustrator 22.1.0, SVG Export Plug-In . SVG Version: 6.00 Build 0)  -->
<svg version="1.1" id="Ebene_1" xmlns="http://www.w3.org/2000/svg" xmlns:xlink="http://www.w3.org/1999/xlink" x="0px" y="0px"
	 viewBox="0 0 323.2 105.5" style="enable-background:new 0 0 323.2 105.5;" xml:space="preserve">
<style type="text/css">
	.st0{fill:#1A171B;}
	.st1{fill:#FFFFFF;}
</style>
<path class="st0" d="M62.4,19.7c14.1,0,25.6,14.8,25.6,33c0,18.2-11.4,33-25.6,33c18.2,0,33-14.8,33-33
	C95.4,34.5,80.6,19.7,62.4,19.7z"/>
<path class="st0" d="M32.6,52.7c0-21.2,13.3-38.5,29.8-38.5c-21.2,0-38.5,17.2-38.5,38.5c0,21.2,17.2,38.5,38.5,38.5
	C45.9,91.2,32.6,74,32.6,52.7z"/>
<circle class="st0" cx="84" cy="74.3" r="11.5"/>
<g>
	<path class="st1" d="M81.7,69.8l2.3,6.6l2.3-6.6h2.4v9.1h-1.9v-2.5l0.2-4.3l-2.4,6.7h-1.3L81,72.1l0.2,4.3v2.5h-1.9v-9.1H81.7z"/>
</g>
<g>
	<g>
		<path class="st0" d="M119.3,81V61.3h5.6c1.7,0,3.2,0.4,4.6,1.1c1.3,0.8,2.3,1.8,3.1,3.2c0.7,1.4,1.1,3,1.1,4.8v1.3
			c0,1.9-0.4,3.5-1.1,4.9c-0.7,1.4-1.7,2.5-3.1,3.2c-1.3,0.8-2.9,1.1-4.7,1.2H119.3z M121.9,63.4v15.5h2.7c2,0,3.6-0.6,4.7-1.9
			c1.1-1.3,1.7-3,1.7-5.3v-1.2c0-2.2-0.5-4-1.6-5.2c-1.1-1.2-2.6-1.9-4.5-1.9H121.9z"/>
		<path class="st0" d="M143.2,81.3c-2,0-3.6-0.7-4.9-2c-1.3-1.3-1.9-3.1-1.9-5.3v-0.5c0-1.5,0.3-2.8,0.8-3.9c0.6-1.1,1.3-2,2.3-2.7
			c1-0.6,2.1-1,3.3-1c1.9,0,3.4,0.6,4.5,1.9c1.1,1.3,1.6,3.1,1.6,5.4v1h-10c0,1.5,0.5,2.6,1.3,3.5c0.8,0.9,1.8,1.3,3.1,1.3
			c0.9,0,1.6-0.2,2.3-0.5c0.6-0.4,1.2-0.8,1.6-1.4l1.5,1.2C147.6,80.4,145.7,81.3,143.2,81.3z M142.9,68.1c-1,0-1.9,0.4-2.6,1.1
			c-0.7,0.7-1.1,1.8-1.3,3.1h7.4v-0.2c-0.1-1.3-0.4-2.3-1-3C144.8,68.5,144,68.1,142.9,68.1z"/>
		<path class="st0" d="M160.4,77.1c0-0.7-0.3-1.2-0.8-1.6c-0.5-0.4-1.4-0.7-2.7-1c-1.3-0.3-2.3-0.6-3-1c-0.7-0.4-1.3-0.8-1.7-1.4
			c-0.4-0.5-0.5-1.2-0.5-1.9c0-1.2,0.5-2.2,1.5-3.1c1-0.8,2.3-1.3,3.9-1.3c1.7,0,3,0.4,4.1,1.3s1.6,2,1.6,3.3h-2.5
			c0-0.7-0.3-1.3-0.9-1.8c-0.6-0.5-1.3-0.7-2.2-0.7c-0.9,0-1.6,0.2-2.1,0.6c-0.5,0.4-0.8,0.9-0.8,1.6c0,0.6,0.2,1.1,0.7,1.4
			c0.5,0.3,1.3,0.6,2.6,0.9c1.3,0.3,2.3,0.6,3.1,1c0.8,0.4,1.4,0.9,1.7,1.4c0.4,0.5,0.6,1.2,0.6,2c0,1.3-0.5,2.4-1.6,3.2
			c-1,0.8-2.4,1.2-4.1,1.2c-1.2,0-2.2-0.2-3.1-0.6c-0.9-0.4-1.6-1-2.1-1.7c-0.5-0.7-0.8-1.6-0.8-2.4h2.5c0,0.8,0.4,1.5,1,2
			c0.6,0.5,1.5,0.7,2.5,0.7c1,0,1.7-0.2,2.3-0.6C160.2,78.3,160.4,77.8,160.4,77.1z"/>
		<path class="st0" d="M166.2,62.4c0-0.4,0.1-0.8,0.4-1c0.2-0.3,0.6-0.4,1.1-0.4c0.5,0,0.9,0.1,1.1,0.4c0.3,0.3,0.4,0.6,0.4,1
			s-0.1,0.7-0.4,1c-0.3,0.3-0.6,0.4-1.1,0.4c-0.5,0-0.9-0.1-1.1-0.4C166.4,63.2,166.2,62.9,166.2,62.4z M169,81h-2.5V66.3h2.5V81z"
			/>
		<path class="st0" d="M172.4,73.6c0-2.3,0.5-4.1,1.6-5.5c1.1-1.4,2.5-2,4.2-2c1.8,0,3.2,0.6,4.2,1.9l0.1-1.6h2.3v14.3
			c0,1.9-0.6,3.4-1.7,4.5c-1.1,1.1-2.6,1.6-4.5,1.6c-1.1,0-2.1-0.2-3.1-0.7c-1-0.5-1.8-1.1-2.3-1.9l1.3-1.5c1.1,1.3,2.4,2,4,2
			c1.2,0,2.2-0.3,2.9-1c0.7-0.7,1-1.7,1-2.9v-1.3c-1,1.2-2.4,1.7-4.1,1.7c-1.7,0-3.1-0.7-4.2-2.1C172.9,77.9,172.4,76,172.4,73.6z
			 M174.9,73.9c0,1.7,0.3,3,1,3.9s1.6,1.4,2.9,1.4c1.6,0,2.7-0.7,3.5-2.2v-6.7c-0.8-1.4-1.9-2.1-3.5-2.1c-1.2,0-2.2,0.5-2.9,1.4
			C175.3,70.6,174.9,72,174.9,73.9z"/>
		<path class="st0" d="M191,66.3l0.1,1.8c1.1-1.4,2.6-2.1,4.4-2.1c3.1,0,4.7,1.8,4.7,5.3V81h-2.5v-9.7c0-1.1-0.3-1.8-0.7-2.4
			c-0.5-0.5-1.2-0.8-2.2-0.8c-0.8,0-1.5,0.2-2.1,0.7c-0.6,0.4-1.1,1-1.4,1.7V81h-2.5V66.3H191z"/>
		<path class="st0" d="M217.1,72.2c-2.2-0.6-3.9-1.4-4.9-2.4c-1-0.9-1.5-2.1-1.5-3.5c0-1.6,0.6-2.8,1.9-3.9c1.2-1,2.9-1.5,4.9-1.5
			c1.4,0,2.6,0.3,3.6,0.8c1.1,0.5,1.9,1.2,2.5,2.2c0.6,0.9,0.9,1.9,0.9,3h-2.6c0-1.2-0.4-2.1-1.1-2.8c-0.8-0.7-1.8-1-3.2-1
			c-1.3,0-2.3,0.3-3,0.9c-0.7,0.6-1.1,1.4-1.1,2.4c0,0.8,0.3,1.5,1,2c0.7,0.6,1.8,1.1,3.5,1.5c1.6,0.5,2.9,1,3.9,1.5
			c0.9,0.6,1.6,1.2,2.1,1.9c0.4,0.7,0.7,1.6,0.7,2.6c0,1.6-0.6,2.9-1.9,3.9c-1.3,1-2.9,1.4-5,1.4c-1.4,0-2.6-0.3-3.8-0.8
			c-1.2-0.5-2.1-1.2-2.7-2.1c-0.6-0.9-1-1.9-1-3.1h2.6c0,1.2,0.4,2.1,1.3,2.8c0.9,0.7,2.1,1,3.5,1c1.4,0,2.4-0.3,3.2-0.8
			c0.7-0.6,1.1-1.3,1.1-2.3c0-1-0.3-1.7-1-2.2S218.8,72.7,217.1,72.2z"/>
		<path class="st0" d="M232.1,77.4l3.4-11h2.7l-5.9,17c-0.9,2.4-2.4,3.7-4.4,3.7l-0.5,0l-0.9-0.2v-2l0.7,0.1c0.9,0,1.5-0.2,2-0.5
			c0.5-0.3,0.9-1,1.2-1.9l0.6-1.5l-5.2-14.5h2.7L232.1,77.4z"/>
		<path class="st0" d="M249.1,77.1c0-0.7-0.3-1.2-0.8-1.6c-0.5-0.4-1.4-0.7-2.7-1c-1.3-0.3-2.3-0.6-3-1c-0.7-0.4-1.3-0.8-1.7-1.4
			c-0.4-0.5-0.5-1.2-0.5-1.9c0-1.2,0.5-2.2,1.5-3.1c1-0.8,2.3-1.3,3.9-1.3c1.7,0,3,0.4,4.1,1.3s1.6,2,1.6,3.3h-2.5
			c0-0.7-0.3-1.3-0.9-1.8c-0.6-0.5-1.3-0.7-2.2-0.7c-0.9,0-1.6,0.2-2.1,0.6c-0.5,0.4-0.8,0.9-0.8,1.6c0,0.6,0.2,1.1,0.7,1.4
			c0.5,0.3,1.3,0.6,2.6,0.9c1.3,0.3,2.3,0.6,3.1,1c0.8,0.4,1.4,0.9,1.7,1.4c0.4,0.5,0.6,1.2,0.6,2c0,1.3-0.5,2.4-1.6,3.2
			c-1,0.8-2.4,1.2-4.1,1.2c-1.2,0-2.2-0.2-3.1-0.6c-0.9-0.4-1.6-1-2.1-1.7c-0.5-0.7-0.8-1.6-0.8-2.4h2.5c0,0.8,0.4,1.5,1,2
			c0.6,0.5,1.5,0.7,2.5,0.7c1,0,1.7-0.2,2.3-0.6C248.8,78.3,249.1,77.8,249.1,77.1z"/>
		<path class="st0" d="M258.3,62.8v3.6h2.7v1.9h-2.7v9.1c0,0.6,0.1,1,0.4,1.3c0.2,0.3,0.7,0.4,1.3,0.4c0.3,0,0.7-0.1,1.2-0.2v2
			c-0.7,0.2-1.3,0.3-1.9,0.3c-1.1,0-2-0.3-2.5-1c-0.6-0.7-0.9-1.6-0.9-2.9v-9.1h-2.7v-1.9h2.7v-3.6H258.3z"/>
		<path class="st0" d="M270,81.3c-2,0-3.6-0.7-4.9-2c-1.3-1.3-1.9-3.1-1.9-5.3v-0.5c0-1.5,0.3-2.8,0.8-3.9c0.6-1.1,1.3-2,2.3-2.7
			c1-0.6,2.1-1,3.3-1c1.9,0,3.4,0.6,4.5,1.9c1.1,1.3,1.6,3.1,1.6,5.4v1h-10c0,1.5,0.5,2.6,1.3,3.5c0.8,0.9,1.8,1.3,3.1,1.3
			c0.9,0,1.6-0.2,2.3-0.5c0.6-0.4,1.2-0.8,1.6-1.4l1.5,1.2C274.4,80.4,272.5,81.3,270,81.3z M269.7,68.1c-1,0-1.9,0.4-2.6,1.1
			c-0.7,0.7-1.1,1.8-1.3,3.1h7.4v-0.2c-0.1-1.3-0.4-2.3-1-3C271.6,68.5,270.8,68.1,269.7,68.1z"/>
		<path class="st0" d="M281,66.3l0.1,1.6c1.1-1.3,2.5-1.9,4.4-1.9c2.1,0,3.5,0.8,4.2,2.4c0.5-0.7,1.1-1.3,1.9-1.7s1.7-0.7,2.8-0.7
			c3.2,0,4.9,1.7,4.9,5.1V81h-2.5v-9.7c0-1.1-0.2-1.8-0.7-2.4c-0.5-0.5-1.3-0.8-2.4-0.8c-0.9,0-1.7,0.3-2.3,0.8
			c-0.6,0.6-1,1.3-1.1,2.2V81h-2.5v-9.6c0-2.1-1-3.2-3.1-3.2c-1.6,0-2.8,0.7-3.4,2.1V81h-2.5V66.3H281z"/>
	</g>
	<g>
		<path class="st0" d="M129.9,42.4h-4.7v10.5h-5.9V24.1H130c3.4,0,6,0.8,7.9,2.3s2.8,3.7,2.8,6.4c0,2-0.4,3.6-1.3,4.9
			c-0.8,1.3-2.1,2.4-3.9,3.1l6.2,11.7v0.3h-6.4L129.9,42.4z M125.2,37.6h4.8c1.5,0,2.6-0.4,3.5-1.1c0.8-0.8,1.2-1.8,1.2-3.1
			c0-1.4-0.4-2.4-1.2-3.2c-0.8-0.8-2-1.2-3.5-1.2h-4.8V37.6z"/>
		<path class="st0" d="M152.8,37.9l3.6-6.4h6.1L156.5,42l6.3,10.9h-6.1l-3.8-6.7l-3.8,6.7h-6.1l6.3-10.9l-6.1-10.5h6.1L152.8,37.9z"
			/>
		<path class="st0" d="M183.5,24.1l7.4,20.8l7.3-20.8h7.8v28.7H200V45l0.6-13.6l-7.8,21.4h-4.1l-7.7-21.4l0.6,13.5v7.9h-5.9V24.1
			H183.5z"/>
		<path class="st0" d="M223.1,52.9c-0.3-0.5-0.5-1.2-0.6-1.9c-1.4,1.5-3.2,2.3-5.4,2.3c-2.1,0-3.8-0.6-5.2-1.8
			c-1.4-1.2-2.1-2.7-2.1-4.6c0-2.3,0.8-4,2.5-5.2c1.7-1.2,4.1-1.8,7.3-1.8h2.6v-1.2c0-1-0.3-1.8-0.8-2.4c-0.5-0.6-1.3-0.9-2.4-0.9
			c-1,0-1.7,0.2-2.3,0.7c-0.5,0.5-0.8,1.1-0.8,1.9h-5.7c0-1.2,0.4-2.4,1.1-3.4c0.8-1.1,1.8-1.9,3.2-2.5c1.4-0.6,3-0.9,4.7-0.9
			c2.6,0,4.7,0.7,6.3,2c1.5,1.3,2.3,3.2,2.3,5.6v9.3c0,2,0.3,3.6,0.8,4.6v0.3H223.1z M218.4,48.9c0.8,0,1.6-0.2,2.3-0.6
			c0.7-0.4,1.2-0.9,1.6-1.5v-3.7h-2.1c-2.9,0-4.4,1-4.6,3l0,0.3c0,0.7,0.3,1.3,0.8,1.8S217.6,48.9,218.4,48.9z"/>
		<path class="st0" d="M244.4,36.9c-0.8-0.1-1.5-0.2-2.1-0.2c-2.2,0-3.6,0.7-4.2,2.2v14h-5.7V31.5h5.4l0.2,2.5
			c1.1-2,2.7-2.9,4.8-2.9c0.6,0,1.2,0.1,1.8,0.3L244.4,36.9z"/>
		<path class="st0" d="M266.4,42.4c0,3.4-0.7,6.1-2.2,8c-1.5,1.9-3.5,2.9-6.1,2.9c-2.3,0-4.2-0.9-5.5-2.7l-0.3,2.3h-5.1V22.6h5.7
			v10.9c1.3-1.5,3-2.3,5.2-2.3c2.6,0,4.6,1,6.1,2.9s2.2,4.6,2.2,8.1V42.4z M260.7,42c0-2.2-0.3-3.7-1-4.7c-0.7-1-1.7-1.5-3.1-1.5
			c-1.8,0-3.1,0.7-3.8,2.2v8.4c0.7,1.5,2,2.3,3.8,2.3c1.8,0,3.1-0.9,3.6-2.7C260.6,45.1,260.7,43.8,260.7,42z"/>
		<path class="st0" d="M276,52.9h-5.7V22.6h5.7V52.9z"/>
		<path class="st0" d="M290.5,53.3c-3.1,0-5.7-1-7.6-2.9s-3-4.5-3-7.7v-0.6c0-2.1,0.4-4.1,1.2-5.8c0.8-1.7,2-3,3.5-3.9
			c1.5-0.9,3.3-1.4,5.2-1.4c2.9,0,5.2,0.9,6.9,2.8c1.7,1.8,2.5,4.5,2.5,7.8v2.3h-13.6c0.2,1.4,0.7,2.5,1.7,3.4
			c0.9,0.8,2.1,1.3,3.5,1.3c2.2,0,3.9-0.8,5.2-2.4l2.8,3.1c-0.9,1.2-2,2.2-3.5,2.8S292.3,53.3,290.5,53.3z M289.8,35.7
			c-1.1,0-2,0.4-2.8,1.1c-0.7,0.8-1.2,1.9-1.4,3.3h7.9v-0.5c0-1.3-0.4-2.3-1-2.9C292,36.1,291.1,35.7,289.8,35.7z"/>
	</g>
</g>
</svg>
