<?xml version="1.0" encoding="UTF-8"?>
<svg width="1000px" height="563px" viewBox="0 0 1000 563" version="1.1" xmlns="http://www.w3.org/2000/svg" xmlns:xlink="http://www.w3.org/1999/xlink">
    <!-- Generator: Sketch 61.2 (89653) - https://sketch.com -->
    <title>no-preview</title>
    <desc>Created with Sketch.</desc>
    <defs>
        <linearGradient x1="49.9988159%" y1="100%" x2="49.9988159%" y2="0%" id="linearGradient-1">
            <stop stop-color="#808080" stop-opacity="0.25" offset="0%"></stop>
            <stop stop-color="#808080" stop-opacity="0.12" offset="54%"></stop>
            <stop stop-color="#808080" stop-opacity="0.1" offset="100%"></stop>
        </linearGradient>
        <linearGradient x1="50%" y1="100%" x2="50%" y2="0%" id="linearGradient-2">
            <stop stop-color="#808080" stop-opacity="0.25" offset="0%"></stop>
            <stop stop-color="#808080" stop-opacity="0.12" offset="54%"></stop>
            <stop stop-color="#808080" stop-opacity="0.1" offset="100%"></stop>
        </linearGradient>
        <linearGradient x1="59.7116715%" y1="98.8803643%" x2="40.3421081%" y2="1.02948481%" id="linearGradient-3">
            <stop stop-color="#808080" stop-opacity="0.25" offset="0%"></stop>
            <stop stop-color="#808080" stop-opacity="0.12" offset="54%"></stop>
            <stop stop-color="#808080" stop-opacity="0.1" offset="100%"></stop>
        </linearGradient>
        <linearGradient x1="49.9988159%" y1="100%" x2="49.9988159%" y2="0%" id="linearGradient-4">
            <stop stop-color="#808080" stop-opacity="0.25" offset="0%"></stop>
            <stop stop-color="#808080" stop-opacity="0.12" offset="54%"></stop>
            <stop stop-color="#808080" stop-opacity="0.1" offset="100%"></stop>
        </linearGradient>
        <linearGradient x1="50%" y1="100%" x2="50%" y2="0%" id="linearGradient-5">
            <stop stop-color="#808080" stop-opacity="0.25" offset="0%"></stop>
            <stop stop-color="#808080" stop-opacity="0.12" offset="54%"></stop>
            <stop stop-color="#808080" stop-opacity="0.1" offset="100%"></stop>
        </linearGradient>
        <linearGradient x1="50%" y1="99.9144422%" x2="50%" y2="-0.0855578371%" id="linearGradient-6">
            <stop stop-color="#808080" stop-opacity="0.25" offset="0%"></stop>
            <stop stop-color="#808080" stop-opacity="0.12" offset="54%"></stop>
            <stop stop-color="#808080" stop-opacity="0.1" offset="100%"></stop>
        </linearGradient>
    </defs>
    <g id="Page-1" stroke="none" stroke-width="1" fill="none" fill-rule="evenodd">
        <g id="Desktop" transform="translate(0.000000, -952.000000)">
            <g id="no-preview" transform="translate(0.000000, 952.000000)">
                <rect id="Rectangle" fill="#FFFFFF" x="0" y="0" width="1000" height="562.5"></rect>
                <g id="Group" transform="translate(351.000000, 113.000000)">
                    <text id="No-Details-Available" font-family="SourceSansPro-Regular, Source Sans Pro" font-size="36" font-weight="normal" fill="#191D1F">
                        <tspan x="0" y="326">No Details Available</tspan>
                    </text>
                    <g id="undraw_no_data_qbuo" transform="translate(10.000000, 0.000000)" fill-rule="nonzero">
                        <polygon id="Rectangle" fill="#E0E0E0" transform="translate(118.038208, 131.072318) rotate(-12.110000) translate(-118.038208, -131.072318) " points="43.491933 28.2184533 192.527694 28.2595554 192.584484 233.926183 43.5487228 233.885081"></polygon>
                        <g id="Group" opacity="0.5" transform="translate(26.000000, 19.000000)" fill="url(#linearGradient-1)">
                            <polygon id="Rectangle" transform="translate(91.537838, 112.446816) rotate(-12.110000) translate(-91.537838, -112.446816) " points="19.4302648 12.9733619 163.584522 13.0174319 163.645412 211.920269 19.4911549 211.876199"></polygon>
                        </g>
                        <polygon id="Rectangle" fill="#FAFAFA" transform="translate(117.884552, 130.357469) rotate(-12.110000) translate(-117.884552, -130.357469) " points="47.6913509 33.1759465 188.024094 33.2146484 188.077752 227.538991 47.7450088 227.500289"></polygon>
                        <polygon id="Rectangle" fill="url(#linearGradient-2)" transform="translate(97.654062, 35.321924) rotate(-12.110000) translate(-97.654062, -35.321924) " points="62.8430773 26.8907625 132.460395 26.9099621 132.465046 43.7530854 62.8477281 43.7338859"></polygon>
                        <path d="M92.4659859,11.2148668 C87.3396175,12.3487296 84.0961333,17.6480823 85.2238678,23.0502021 C86.3516023,28.4523218 91.418091,31.918996 96.5344795,30.7851332 C101.650868,29.6512704 104.904332,24.3519177 103.776598,18.9497979 C102.648863,13.5476782 97.5923544,10.081004 92.4659859,11.2148668 Z M95.682857,26.6641756 C93.4668151,27.2083856 91.1512538,26.3182208 89.8236956,24.4117545 C88.4961373,22.5052882 88.4203629,19.9613278 89.6319603,17.9746656 C90.8435578,15.9880033 93.1017874,14.9533812 95.3460529,15.3567182 C97.5903184,15.7600552 99.3746928,17.5212097 99.86113,19.8130409 C100.192999,21.2923787 99.9387287,22.8469123 99.1545776,24.1326886 C98.3704265,25.4184649 97.1210408,26.329484 95.682857,26.6641756 Z" id="Shape" fill="url(#linearGradient-3)"></path>
                        <polygon id="Rectangle" fill="#19216C" transform="translate(97.424254, 34.252622) rotate(-12.110000) translate(-97.424254, -34.252622) " points="63.3465811 26.1929272 131.497481 26.2117223 131.501927 42.3123177 63.3510269 42.2935226"></polygon>
                        <path d="M92.5067914,11.2115547 C87.3781201,12.3124554 84.1127978,17.3628502 85.2133875,22.4920855 C86.3139773,27.6213208 91.3637321,30.8871711 96.4924887,29.7866685 C101.621245,28.6861658 104.88696,23.6360244 103.786768,18.5067037 C103.258382,16.0432621 101.773069,13.89067 99.6576252,12.5225398 C97.5421815,11.1544096 94.969921,10.6828289 92.5067914,11.2115547 L92.5067914,11.2115547 Z M95.6489976,25.8698727 C93.4810388,26.3351043 91.2463389,25.4483844 89.9870147,23.623221 C88.7276906,21.7980575 88.6917682,19.3939193 89.8959993,17.5319381 C91.1002304,15.6699569 93.3074399,14.716853 95.4883305,15.1170912 C97.6692211,15.5173294 99.3942629,17.1920822 99.85901,19.3603552 C100.493493,22.3205301 98.6087437,25.2347281 95.6489976,25.8698727 L95.6489976,25.8698727 Z" id="Shape" fill="#19216C"></path>
                        <rect id="Rectangle" fill="#E0E0E0" x="88" y="40" width="149" height="205"></rect>
                        <g id="Group" opacity="0.5" transform="translate(90.000000, 43.000000)" fill="url(#linearGradient-4)">
                            <rect id="Rectangle" x="0.0953191489" y="0.040890411" width="143.744681" height="198.798955"></rect>
                        </g>
                        <rect id="Rectangle" fill="#FFFFFF" x="93" y="45" width="140" height="194"></rect>
                        <rect id="Rectangle" fill="url(#linearGradient-5)" x="128" y="37" width="70" height="17"></rect>
                        <path d="M162.5,20 C157.254029,20 153,24.476386 153,30 C153,35.523614 157.254029,40 162.5,40 C167.745971,40 172,35.523614 172,30 C172,24.476386 167.745971,20 162.5,20 Z M162.5,35.7700205 C160.218771,35.8256805 158.131879,34.4556988 157.221123,32.3045959 C156.310366,30.1534931 156.757091,27.649591 158.351133,25.9708737 C159.945175,24.2921564 162.369131,23.7728855 164.48263,24.6573569 C166.596128,25.5418283 167.978335,27.6539284 167.978977,30 C168.001183,33.1383408 165.552322,35.7050489 162.5,35.742642 L162.5,35.7700205 Z" id="Shape" fill="url(#linearGradient-6)"></path>
                        <rect id="Rectangle" fill="#19216C" x="129" y="36" width="68" height="16"></rect>
                        <path d="M162.500139,20 C158.657804,20 155.19381,22.3145669 153.723412,25.8644217 C152.253014,29.4142765 153.065781,33.5003362 155.782723,36.2172774 C158.499664,38.9342187 162.585723,39.7469865 166.135578,38.2765884 C169.685433,36.8061904 172,33.3421963 172,29.4998612 C172,24.2532327 167.746767,20 162.500139,20 L162.500139,20 Z M162.500139,34.9827742 C159.474671,34.9790112 157.024045,32.5253258 157.024045,29.4998556 C157.024045,26.4743853 159.474691,24.0207087 162.500159,24.0169522 C165.525626,24.0132044 167.982345,26.460795 167.989855,29.4862559 C167.988953,30.9410048 167.409959,32.335763 166.380339,33.3634687 C165.35072,34.3911744 163.954887,34.9675728 162.500139,34.9657677 L162.500139,34.9827742 Z" id="Shape" fill="#19216C"></path>
                        <g id="Group" opacity="0.5" transform="translate(1.000000, 251.000000)" fill="#47E6B1">
                            <rect id="Rectangle" x="3.37090909" y="0.0181818182" width="1.36727273" height="7.75636364"></rect>
                            <polygon id="Rectangle" transform="translate(4.056364, 3.898182) rotate(90.000000) translate(-4.056364, -3.898182) " points="3.37272727 0.02 4.74 0.02 4.74 7.77636364 3.37272727 7.77636364"></polygon>
                        </g>
                        <g id="Group" opacity="0.5" transform="translate(151.000000, 0.000000)" fill="#47E6B1">
                            <rect id="Rectangle" x="3.30086957" y="0" width="1.30782609" height="7.75636364"></rect>
                            <polygon id="Rectangle" transform="translate(3.956522, 3.876364) rotate(90.000000) translate(-3.956522, -3.876364) " points="3.27288538 0.166798419 4.6401581 0.166798419 4.6401581 7.58592885 3.27288538 7.58592885"></polygon>
                        </g>
                        <path d="M262.592005,263.541721 C261.952215,263.263214 261.62283,262.549334 261.826128,261.881825 C261.841978,261.832506 261.85198,261.781495 261.855929,261.729842 L261.855929,261.729842 C261.874187,261.426793 261.691762,261.147564 261.406906,261.042545 C261.12205,260.937526 260.802029,261.031516 260.619203,261.273892 L260.619203,261.273892 C260.588214,261.315406 260.562209,261.360415 260.541721,261.407995 C260.263214,262.047785 259.549334,262.37717 258.881825,262.173872 C258.832506,262.158022 258.781495,262.14802 258.729842,262.144071 L258.729842,262.144071 C258.426793,262.125813 258.147564,262.308238 258.042545,262.593094 C257.937526,262.87795 258.031516,263.197971 258.273892,263.380797 L258.273892,263.380797 C258.315406,263.411786 258.360415,263.437791 258.407995,263.458279 C259.047785,263.736786 259.37717,264.450666 259.173872,265.118175 C259.158022,265.167494 259.14802,265.218505 259.144071,265.270158 L259.144071,265.270158 C259.125813,265.573207 259.308238,265.852436 259.593094,265.957455 C259.87795,266.062474 260.197971,265.968484 260.380797,265.726108 L260.380797,265.726108 C260.411786,265.684594 260.437791,265.639585 260.458279,265.592005 C260.736786,264.952215 261.450666,264.62283 262.118175,264.826128 C262.167494,264.841978 262.218505,264.85198 262.270158,264.855929 L262.270158,264.855929 C262.573207,264.874187 262.852436,264.691762 262.957455,264.406906 C263.062474,264.12205 262.968484,263.802029 262.726108,263.619203 L262.726108,263.619203 C262.684594,263.588214 262.639585,263.562209 262.592005,263.541721 Z" id="Path" fill="#4D8AF0" opacity="0.5"></path>
                        <path d="M45.5920048,193.541721 C44.9522149,193.263214 44.6228302,192.549334 44.8261284,191.881825 C44.8419781,191.832506 44.8519802,191.781495 44.855929,191.729842 L44.855929,191.729842 C44.8741874,191.426793 44.6917622,191.147564 44.4069063,191.042545 C44.1220504,190.937526 43.8020288,191.031516 43.6192026,191.273892 L43.6192026,191.273892 C43.588214,191.315406 43.5622086,191.360415 43.5417209,191.407995 C43.2632139,192.047785 42.5493335,192.37717 41.8818254,192.173872 C41.8325058,192.158022 41.7814952,192.14802 41.7298421,192.144071 L41.7298421,192.144071 C41.4267933,192.125813 41.1475641,192.308238 41.0425449,192.593094 C40.9375257,192.87795 41.0315156,193.197971 41.2738923,193.380797 L41.2738923,193.380797 C41.3154056,193.411786 41.3604149,193.437791 41.4079952,193.458279 C42.0477851,193.736786 42.3771698,194.450666 42.1738716,195.118175 C42.1580219,195.167494 42.1480198,195.218505 42.144071,195.270158 L42.144071,195.270158 C42.1258126,195.573207 42.3082378,195.852436 42.5930937,195.957455 C42.8779496,196.062474 43.1979712,195.968484 43.3807974,195.726108 L43.3807974,195.726108 C43.411786,195.684594 43.4377914,195.639585 43.4582791,195.592005 C43.7367861,194.952215 44.4506665,194.62283 45.1181746,194.826128 C45.1674942,194.841978 45.2185048,194.85198 45.2701579,194.855929 L45.2701579,194.855929 C45.5732067,194.874187 45.8524359,194.691762 45.9574551,194.406906 C46.0624743,194.12205 45.9684844,193.802029 45.7261077,193.619203 L45.7261077,193.619203 C45.6845944,193.588214 45.6395851,193.562209 45.5920048,193.541721 Z" id="Path" fill="#FDD835" opacity="0.5"></path>
                        <path d="M226.592005,22.5417209 C225.952215,22.2632139 225.62283,21.5493335 225.826128,20.8818254 C225.841978,20.8325058 225.85198,20.7814952 225.855929,20.7298421 L225.855929,20.7298421 C225.874187,20.4267933 225.691762,20.1475641 225.406906,20.0425449 C225.12205,19.9375257 224.802029,20.0315156 224.619203,20.2738923 L224.619203,20.2738923 C224.588214,20.3154056 224.562209,20.3604149 224.541721,20.4079952 C224.263214,21.0477851 223.549334,21.3771698 222.881825,21.1738716 C222.832506,21.1580219 222.781495,21.1480198 222.729842,21.144071 L222.729842,21.144071 C222.426793,21.1258126 222.147564,21.3082378 222.042545,21.5930937 C221.937526,21.8779496 222.031516,22.1979712 222.273892,22.3807974 L222.273892,22.3807974 C222.315406,22.411786 222.360415,22.4377914 222.407995,22.4582791 C223.047785,22.7367861 223.37717,23.4506665 223.173872,24.1181746 C223.158022,24.1674942 223.14802,24.2185048 223.144071,24.2701579 L223.144071,24.2701579 C223.125813,24.5732067 223.308238,24.8524359 223.593094,24.9574551 C223.87795,25.0624743 224.197971,24.9684844 224.380797,24.7261077 L224.380797,24.7261077 C224.411786,24.6845944 224.437791,24.6395851 224.458279,24.5920048 C224.736786,23.9522149 225.450666,23.6228302 226.118175,23.8261284 C226.167494,23.8419781 226.218505,23.8519802 226.270158,23.855929 L226.270158,23.855929 C226.573207,23.8741874 226.852436,23.6917622 226.957455,23.4069063 C227.062474,23.1220504 226.968484,22.8020288 226.726108,22.6192026 L226.726108,22.6192026 C226.684594,22.588214 226.639585,22.5622086 226.592005,22.5417209 L226.592005,22.5417209 Z" id="Path" fill="#FDD835" opacity="0.5"></path>
                        <circle id="Oval" fill="#F55F44" opacity="0.5" cx="277.5" cy="106.5" r="2.5"></circle>
                        <circle id="Oval" fill="#F55F44" opacity="0.5" cx="78.5" cy="253.5" r="2.5"></circle>
                        <circle id="Oval" fill="#F55F44" opacity="0.5" cx="250.5" cy="162.5" r="2.5"></circle>
                        <circle id="Oval" fill="#4D8AF0" opacity="0.5" cx="29.5" cy="33.5" r="2.5"></circle>
                        <circle id="Oval" fill="#47E6B1" opacity="0.5" cx="2.5" cy="103.5" r="2.5"></circle>
                    </g>
                </g>
            </g>
        </g>
    </g>
</svg>