<?xml version="1.0" encoding="UTF-8"?>
<svg width="1000px" height="563px" viewBox="0 0 1000 563" version="1.1" xmlns="http://www.w3.org/2000/svg" xmlns:xlink="http://www.w3.org/1999/xlink">
    <!-- Generator: Sketch 61.2 (89653) - https://sketch.com -->
    <title>no-preview</title>
    <desc>Created with Sketch.</desc>
    <g id="Page-1" stroke="none" stroke-width="1" fill="none" fill-rule="evenodd">
        <g id="Desktop" transform="translate(0.000000, -243.000000)">
            <g id="no-preview" transform="translate(0.000000, 243.000000)">
                <rect id="Rectangle" fill="#FFFFFF" x="0" y="0" width="1000" height="562.5"></rect>
                <g id="Group" transform="translate(343.000000, 171.000000)">
                    <text id="No-Preview-Available" font-family="SourceSansPro-Regular, Source Sans Pro" font-size="36" font-weight="normal" fill="#191D1F">
                        <tspan x="0" y="210">No Preview Available</tspan>
                    </text>
                    <g id="photography" transform="translate(83.000000, 0.000000)" fill-rule="nonzero">
                        <circle id="Oval" fill="#556080" cx="75" cy="75" r="75"></circle>
                        <g id="Group" transform="translate(23.148148, 38.888889)" fill="#FFFFFF">
                            <path d="M2.71738858,20.9516353 C1.28926554,20.9516353 0.131240845,19.7859842 0.131240845,18.3477972 C0.142372881,8.2863874 8.24063612,0.133023447 18.2333961,0.121815263 C19.6615191,0.121815263 20.8195438,1.2874664 20.8195438,2.72565338 C20.8195438,4.16384035 19.6618121,5.32949149 18.2333961,5.32949149 C11.0957104,5.3380451 5.31173886,11.1615815 5.30324336,18.3480921 C5.30324336,19.0385753 5.03080142,19.7010379 4.54567901,20.1891838 C4.06084955,20.6773297 3.40318058,20.9516353 2.71738858,20.9516353 Z" id="Path"></path>
                            <path d="M18.2333961,73.0260379 C8.24034317,73.0148297 0.142372881,64.8611708 0.131240845,54.800056 C0.131240845,53.362164 1.28897259,52.1962179 2.71738858,52.1962179 C4.14551161,52.1962179 5.3035363,53.361869 5.3035363,54.800056 C5.31203181,61.9865666 11.0960033,67.810103 18.2336891,67.8186567 C19.6618121,67.8186567 20.8198368,68.9843078 20.8198368,70.4224948 C20.8198368,71.8606818 19.6618121,73.0260379 18.2333961,73.0260379 Z" id="Path"></path>
                            <path d="M85.4703076,73.0260379 C84.0421846,73.0260379 82.8841599,71.8603868 82.8841599,70.4221998 C82.8841599,68.9840128 84.0418916,67.8183617 85.4703076,67.8183617 C92.6079933,67.8098081 98.3919648,61.9862717 98.4004603,54.7997611 C98.4004603,53.361869 99.5581921,52.1959229 100.986608,52.1959229 C102.414731,52.1959229 103.572756,53.3615741 103.572756,54.7997611 C103.561038,64.8614658 95.4630676,73.0148297 85.4703076,73.0260379 Z" id="Path"></path>
                            <path d="M100.986315,20.9516355 C100.300523,20.9519303 99.6425612,20.6776247 99.1574388,20.1891838 C98.6723164,19.700743 98.4001674,19.0385753 98.4001674,18.3477972 C98.3916719,11.1612866 92.6077004,5.33775015 85.4700146,5.32919654 C84.0418916,5.32919654 82.8838669,4.1635454 82.8838669,2.72535842 C82.8838669,1.2874664 84.0415987,0.121520311 85.4700146,0.121520311 C95.4630676,0.132728495 103.561038,8.2863874 103.57217,18.3475022 C103.572463,19.0379854 103.300021,19.700448 102.814899,20.1888889 C102.330069,20.6776247 101.6724,20.9519303 100.986315,20.9516355 Z" id="Path"></path>
                            <path d="M18.2333961,13.1407109 L85.4700146,13.1407109 C88.3265537,13.1407109 90.6420172,15.4720131 90.6420172,18.3480921 L90.6420172,54.800056 C90.6420172,57.676135 88.3265537,60.0074373 85.4700146,60.0074373 L18.2333961,60.0074373 C15.3768571,60.0074373 13.0613936,57.6758401 13.0613936,54.800056 L13.0613936,18.3480921 C13.0613936,15.4720131 15.37715,13.1407109 18.2333961,13.1407109 Z" id="Path"></path>
                            <polygon id="Path" points="64.7820046 13.1407109 38.9216991 13.1407109 41.5078468 2.72565338 62.1958569 2.72565338"></polygon>
                        </g>
                        <circle id="Oval" fill="#8697CB" cx="75" cy="75" r="12.962963"></circle>
                    </g>
                </g>
            </g>
        </g>
    </g>
</svg>