<?xml version="1.0" encoding="UTF-8"?>
<svg width="300px" height="200px" viewBox="0 0 300 200" version="1.1" xmlns="http://www.w3.org/2000/svg" xmlns:xlink="http://www.w3.org/1999/xlink">
    <!-- Generator: Sketch 61.2 (89653) - https://sketch.com -->
    <title>no-preview</title>
    <desc>Created with Sketch.</desc>
    <g id="Page-1" stroke="none" stroke-width="1" fill="none" fill-rule="evenodd">
        <g id="Desktop" transform="translate(-306.000000, 0.000000)">
            <g id="no-preview" transform="translate(306.000000, 0.000000)">
                <rect id="Rectangle" fill="#F6F6FA" x="0" y="0" width="300" height="200"></rect>
                <g id="Group" transform="translate(80.000000, 38.000000)">
                    <text id="No-Preview-Available" font-family="SourceSansPro-Regular, Source Sans Pro" font-size="16" font-weight="normal" fill="#191D1F">
                        <tspan x="0" y="121">No Preview Available</tspan>
                    </text>
                    <g id="photography" transform="translate(25.000000, 0.000000)" fill-rule="nonzero">
                        <circle id="Oval" fill="#556080" cx="45" cy="45" r="45"></circle>
                        <g id="Group" transform="translate(13.888889, 23.333333)" fill="#FFFFFF">
                            <path d="M1.63043315,12.5709812 C0.773559322,12.5709812 0.0787445072,11.8715905 0.0787445072,11.0086783 C0.0854237288,4.97183244 4.94438167,0.0798140681 10.9400377,0.0730891577 C11.7969115,0.0730891577 12.4917263,0.772479839 12.4917263,1.63539203 C12.4917263,2.49830421 11.7970873,3.19769489 10.9400377,3.19769489 C6.65742624,3.20282706 3.18704331,6.69694892 3.18194601,11.0088553 C3.18194601,11.4231452 3.01848085,11.8206228 2.72740741,12.1135103 C2.43650973,12.4063978 2.04190835,12.5709812 1.63043315,12.5709812 Z" id="Path"></path>
                            <path d="M10.9400377,43.8156228 C4.9442059,43.8088978 0.0854237288,38.9167025 0.0787445072,32.8800336 C0.0787445072,32.0172984 0.773383553,31.3177307 1.63043315,31.3177307 C2.48730697,31.3177307 3.18212178,32.0171214 3.18212178,32.8800336 C3.18721908,37.19194 6.65760201,40.6860618 10.9402134,40.691194 C11.7970873,40.691194 12.4919021,41.3905847 12.4919021,42.2534969 C12.4919021,43.1164091 11.7970873,43.8156228 10.9400377,43.8156228 Z" id="Path"></path>
                            <path d="M51.2821846,43.8156228 C50.4253107,43.8156228 49.7304959,43.1162321 49.7304959,42.2533199 C49.7304959,41.3904077 50.425135,40.691017 51.2821846,40.691017 C55.564796,40.6858849 59.0351789,37.191763 59.0402762,32.8798566 C59.0402762,32.0171214 59.7349153,31.3175538 60.5919648,31.3175538 C61.4488387,31.3175538 62.1436535,32.0169444 62.1436535,32.8798566 C62.1366227,38.9168795 57.2778406,43.8088978 51.2821846,43.8156228 Z" id="Path"></path>
                            <path d="M60.5917891,12.5709813 C60.1803139,12.5711582 59.7855367,12.4065748 59.4944633,12.1135103 C59.2033898,11.8204458 59.0401004,11.4231452 59.0401004,11.0086783 C59.0350031,6.69677195 55.5646202,3.20265009 51.2820088,3.19751792 C50.425135,3.19751792 49.7303202,2.49812724 49.7303202,1.63521505 C49.7303202,0.772479839 50.4249592,0.0729121864 51.2820088,0.0729121864 C57.2778406,0.0796370968 62.1366227,4.97183244 62.1433021,11.0085013 C62.1434777,11.4227912 61.9800126,11.8202688 61.6889391,12.1133333 C61.3980414,12.4065748 61.0034401,12.5711582 60.5917891,12.5709813 Z" id="Path"></path>
                            <path d="M10.9400377,7.88442652 L51.2820088,7.88442652 C52.9959322,7.88442652 54.3852103,9.28320789 54.3852103,11.0088553 L54.3852103,32.8800336 C54.3852103,34.605681 52.9959322,36.0044624 51.2820088,36.0044624 L10.9400377,36.0044624 C9.22611425,36.0044624 7.83683616,34.605504 7.83683616,32.8800336 L7.83683616,11.0088553 C7.83683616,9.28320789 9.22629002,7.88442652 10.9400377,7.88442652 Z" id="Path"></path>
                            <polygon id="Path" points="38.8692028 7.88442652 23.3530195 7.88442652 24.9047081 1.63539203 37.3175141 1.63539203"></polygon>
                        </g>
                        <circle id="Oval" fill="#8697CB" cx="45" cy="45" r="7.77777778"></circle>
                    </g>
                </g>
            </g>
        </g>
    </g>
</svg>