<?xml version="1.0" encoding="UTF-8"?>
<svg width="1000px" height="563px" viewBox="0 0 1000 563" version="1.1" xmlns="http://www.w3.org/2000/svg" xmlns:xlink="http://www.w3.org/1999/xlink">
    <!-- Generator: Sketch 61.2 (89653) - https://sketch.com -->
    <title>no-preview</title>
    <desc>Created with Sketch.</desc>
    <g id="Page-1" stroke="none" stroke-width="1" fill="none" fill-rule="evenodd">
        <g id="Desktop" transform="translate(0.000000, -243.000000)">
            <g id="no-preview" transform="translate(0.000000, 243.000000)">
                <rect id="Rectangle" fill="#FFFFFF" x="0" y="0" width="1000" height="562.5"></rect>
                <g id="Group" transform="translate(343.000000, 113.000000)">
                    <text id="No-Preview-Available" font-family="SourceSansPro-Regular, Source Sans Pro" font-size="36" font-weight="normal" fill="#191D1F">
                        <tspan x="0" y="326">No Preview Available</tspan>
                    </text>
                    <g id="photography" transform="translate(25.000000, 0.000000)" fill-rule="nonzero">
                        <circle id="Oval" fill="#556080" cx="133" cy="133" r="133"></circle>
                        <g id="Group" transform="translate(41.049383, 68.962963)" fill="#FFFFFF">
                            <path d="M4.81883574,37.1542333 C2.28629755,37.1542333 0.232733766,35.0871453 0.232733766,32.5367604 C0.252474576,14.694527 14.6133947,0.235894912 32.3338891,0.216019066 C34.8664273,0.216019066 36.9199911,2.28310708 36.9199911,4.83349199 C36.9199911,7.38387689 34.8669468,9.4509649 32.3338891,9.4509649 C19.6763931,9.46613331 9.41948357,19.7932046 9.40441822,32.5372834 C9.40441822,33.7617401 8.92128786,34.9365073 8.06100412,35.8021527 C7.20123987,36.6677981 6.03497356,37.1542333 4.81883574,37.1542333 Z" id="Path"></path>
                            <path d="M32.3338891,129.499507 C14.6128752,129.479631 0.252474576,115.020476 0.232733766,97.178766 C0.232733766,94.6289041 2.28577806,92.5612931 4.81883574,92.5612931 C7.35137393,92.5612931 9.40493771,94.6283811 9.40493771,97.178766 C9.42000307,109.922845 19.6769126,120.249916 32.3344086,120.265084 C34.8669468,120.265084 36.9205106,122.332172 36.9205106,124.882557 C36.9205106,127.432942 34.8669468,129.499507 32.3338891,129.499507 Z" id="Path"></path>
                            <path d="M151.567345,129.499507 C149.034807,129.499507 146.981243,127.432419 146.981243,124.882034 C146.981243,122.331649 149.034288,120.264561 151.567345,120.264561 C164.224841,120.249393 174.481751,109.922322 174.496816,97.1782429 C174.496816,94.6283811 176.549861,92.56077 179.082918,92.56077 C181.615457,92.56077 183.66902,94.627858 183.66902,97.1782429 C183.64824,115.020999 169.28784,129.479631 151.567345,129.499507 Z" id="Path"></path>
                            <path d="M179.082399,37.1542337 C177.866261,37.1547563 176.699475,36.6683211 175.839191,35.8021527 C174.978908,34.9359842 174.496297,33.7617401 174.496297,32.5367604 C174.481231,19.7926816 164.224322,9.46561026 151.566826,9.45044186 C149.034288,9.45044186 146.980724,7.38335384 146.980724,4.83296894 C146.980724,2.28310708 149.033768,0.215496018 151.566826,0.215496018 C169.28784,0.235371864 183.64824,14.694527 183.667982,32.5362373 C183.668501,33.760694 183.18537,34.9354612 182.325087,35.8016296 C181.465322,36.6683211 180.299056,37.1547563 179.082399,37.1542337 Z" id="Path"></path>
                            <path d="M32.3338891,23.3028606 L151.566826,23.3028606 C156.632422,23.3028606 160.73851,27.4370366 160.73851,32.5372834 L160.73851,97.178766 C160.73851,102.279013 156.632422,106.413189 151.566826,106.413189 L32.3338891,106.413189 C27.2682932,106.413189 23.1622046,102.27849 23.1622046,97.178766 L23.1622046,32.5372834 C23.1622046,27.4370366 27.2688127,23.3028606 32.3338891,23.3028606 Z" id="Path"></path>
                            <polygon id="Path" points="114.880088 23.3028606 69.0211464 23.3028606 73.6072484 4.83349199 110.293986 4.83349199"></polygon>
                        </g>
                        <circle id="Oval" fill="#8697CB" cx="133" cy="133" r="22.9876543"></circle>
                    </g>
                </g>
            </g>
        </g>
    </g>
</svg>