<svg version="1.1" viewBox="0.0 0.0 211.6535433070866 80.1259842519685" fill="none" stroke="none" stroke-linecap="square" stroke-miterlimit="10" xmlns:xlink="http://www.w3.org/1999/xlink" xmlns="http://www.w3.org/2000/svg"><clipPath id="p.0"><path d="m0 0l211.65355 0l0 80.125984l-211.65355 0l0 -80.125984z" clip-rule="nonzero"/></clipPath><g clip-path="url(#p.0)"><path fill="#000000" fill-opacity="0.0" d="m0 0l211.65355 0l0 80.125984l-211.65355 0z" fill-rule="evenodd"/><path fill="#000000" fill-opacity="0.0" d="m-9.448819 0l225.44882 0l0 80.0l-225.44882 0z" fill-rule="evenodd"/><path fill="#b7b7b7" d="m-0.4956939 32.72l8.796875 -22.90625l3.265625 0l9.375001 22.90625l-3.453125 0l-2.671876 -6.9375l-9.578125 0l-2.5156252 6.9375l-3.21875 0zm6.609375 -9.40625l7.7656245 0l-2.390625 -6.34375q-1.09375 -2.890625 -1.625 -4.75q-0.4375 2.203125 -1.234375 4.375l-2.5156245 6.71875zm17.125 9.40625l0 -22.90625l8.59375 0q2.625 0 4.203125 0.703125q1.59375 0.6875 2.484375 2.140625q0.90625 1.4375 0.90625 3.015625q0 1.46875 -0.796875 2.765625q-0.796875 1.296875 -2.40625 2.09375q2.078125 0.609375 3.1875 2.078125q1.125 1.46875 1.125 3.46875q0 1.609375 -0.6875 3.0q-0.671875 1.375 -1.671875 2.125q-1.0 0.75 -2.515625 1.140625q-1.5 0.375 -3.6875 0.375l-8.734375 0zm3.03125 -13.28125l4.953125 0q2.015625 0 2.890625 -0.265625q1.15625 -0.34375 1.734375 -1.140625q0.59375 -0.796875 0.59375 -2.0q0 -1.140625 -0.546875 -2.0q-0.546875 -0.875 -1.5625 -1.1875q-1.015625 -0.328125 -3.484375 -0.328125l-4.578125 0l0 6.921875zm0 10.578125l5.703125 0q1.46875 0 2.0625 -0.109375q1.046875 -0.1875 1.75 -0.625q0.703125 -0.4375 1.15625 -1.265625q0.453125 -0.84375 0.453125 -1.9375q0 -1.28125 -0.65625 -2.21875q-0.65625 -0.953125 -1.828125 -1.328125q-1.15625 -0.390625 -3.34375 -0.390625l-5.296875 0l0 7.875zm34.78125 -5.328125l3.0312462 0.765625q-0.9531212 3.734375 -3.4374962 5.703125q-2.46875 1.953125 -6.046875 1.953125q-3.703125 0 -6.03125 -1.5q-2.3125 -1.515625 -3.53125 -4.375q-1.203125 -2.859375 -1.203125 -6.140625q0 -3.578125 1.359375 -6.234375q1.375 -2.671875 3.890625 -4.046875q2.53125 -1.390625 5.5625 -1.390625q3.4375 0 5.78125 1.75q2.34375 1.75 3.265625 4.921875l-2.984375 0.703125q-0.796875 -2.5 -2.3125 -3.640625q-1.515625 -1.140625 -3.8125 -1.140625q-2.640625 0 -4.421875 1.265625q-1.765625 1.265625 -2.484375 3.40625q-0.71875 2.125 -0.71875 4.390625q0 2.921875 0.84375 5.109375q0.859375 2.171875 2.65625 3.25q1.796875 1.078125 3.890625 1.078125q2.546875 0 4.3125 -1.46875q1.765625 -1.46875 2.390625 -4.359375zm6.765621 8.03125l0 -22.90625l7.890625 0q2.671875 0 4.078125 0.328125q1.96875 0.453125 3.359375 1.640625q1.8125 1.53125 2.703125 3.921875q0.90625 2.375 0.90625 5.4375q0 2.609375 -0.609375 4.625q-0.609375 2.015625 -1.5625 3.34375q-0.953125 1.3125 -2.09375 2.078125q-1.125 0.75 -2.734375 1.140625q-1.59375 0.390625 -3.671875 0.390625l-8.265625 0zm3.03125 -2.703125l4.890625 0q2.265625 0 3.546875 -0.421875q1.296875 -0.421875 2.0625 -1.1875q1.078125 -1.078125 1.671875 -2.890625q0.609375 -1.828125 0.609375 -4.421875q0 -3.59375 -1.1875 -5.515625q-1.171875 -1.9375 -2.859375 -2.59375q-1.21875 -0.46875 -3.921875 -0.46875l-4.8125 0l0 17.5zm20.140625 2.703125l0 -22.90625l16.5625 0l0 2.703125l-13.53125 0l0 7.015625l12.671875 0l0 2.6875l-12.671875 0l0 7.796875l14.0625 0l0 2.703125l-17.09375 0zm21.4375 0l0 -22.90625l15.453125 0l0 2.703125l-12.421875 0l0 7.09375l10.75 0l0 2.703125l-10.75 0l0 10.40625l-3.03125 0zm30.109375 -8.984375l0 -2.6875l9.703125 -0.015625l0 8.5q-2.234375 1.78125 -4.609375 2.6875q-2.375 0.890625 -4.875 0.890625q-3.375 0 -6.140625 -1.4375q-2.75 -1.453125 -4.15625 -4.1875q-1.40625 -2.734375 -1.40625 -6.109375q0 -3.34375 1.390625 -6.234375q1.40625 -2.90625 4.03125 -4.3125q2.625 -1.40625 6.046875 -1.40625q2.484375 0 4.484375 0.8125q2.015625 0.796875 3.15625 2.234375q1.140625 1.4375 1.734375 3.75l-2.734375 0.75q-0.515625 -1.75 -1.28125 -2.75q-0.765625 -1.0 -2.1875 -1.59375q-1.421875 -0.609375 -3.15625 -0.609375q-2.078125 0 -3.59375 0.640625q-1.515625 0.625 -2.453125 1.65625q-0.921875 1.03125 -1.4375 2.265625q-0.875 2.125 -0.875 4.609375q0 3.0625 1.046875 5.125q1.0625 2.0625 3.078125 3.0625q2.015625 1.0 4.28125 1.0q1.96875 0 3.84375 -0.75q1.875 -0.765625 2.84375 -1.625l0 -4.265625l-6.734375 0zm14.265625 8.984375l0 -22.90625l3.03125 0l0 9.40625l11.90625 0l0 -9.40625l3.03125 0l0 22.90625l-3.03125 0l0 -10.796875l-11.90625 0l0 10.796875l-3.03125 0zm23.53125 0l0 -22.90625l3.03125 0l0 22.90625l-3.03125 0zm6.828125 -6.5l2.734375 -0.375q0.109375 2.625 0.984375 3.59375q0.875 0.96875 2.421875 0.96875q1.140625 0 1.96875 -0.515625q0.828125 -0.53125 1.140625 -1.421875q0.3125 -0.90625 0.3125 -2.875l0 -15.78125l3.03125 0l0 15.609375q0 2.875 -0.703125 4.453125q-0.6875 1.578125 -2.203125 2.40625q-1.5 0.828125 -3.53125 0.828125q-3.015625 0 -4.625 -1.734375q-1.59375 -1.734375 -1.53125 -5.15625z" fill-rule="nonzero"/><path fill="#b7b7b7" d="m0.5355561 65.76688l2.78125 -0.4375q0.234375 1.671875 1.2968752 2.5625q1.078125 0.890625 3.0 0.890625q1.9374995 0 2.8749995 -0.78125q0.9375 -0.796875 0.9375 -1.859375q0 -0.953125 -0.828125 -1.5q-0.578125 -0.375 -2.8749995 -0.953125q-3.09375 -0.78125 -4.296875 -1.34375q-1.1875 -0.578125 -1.8125 -1.578125q-0.609375 -1.015625 -0.609375 -2.234375q0 -1.109375 0.5 -2.046875q0.515625 -0.953125 1.390625 -1.578125q0.65625 -0.484375 1.7812502 -0.8125q1.140625 -0.34375 2.4375 -0.34375q1.9531245 0 3.4218745 0.5625q1.484375 0.5625 2.1875 1.53125q0.703125 0.953125 0.96875 2.5625l-2.75 0.375q-0.1875 -1.28125 -1.09375 -2.0q-0.890625 -0.71875 -2.5312495 -0.71875q-1.9375 0 -2.765625 0.640625q-0.82812524 0.640625 -0.82812524 1.5q0 0.546875 0.34375024 0.984375q0.34375 0.453125 1.078125 0.75q0.421875 0.15625 2.484375 0.71875q2.9843745 0.796875 4.1562495 1.3125q1.1875 0.5 1.859375 1.46875q0.671875 0.96875 0.671875 2.40625q0 1.40625 -0.828125 2.65625q-0.8125 1.234375 -2.359375 1.921875q-1.546875 0.671875 -3.4999995 0.671875q-3.234375 0 -4.9375 -1.34375q-1.6875 -1.34375 -2.15625 -3.984375zm23.265625 2.4375l0.40625 2.484375q-1.1875 0.25 -2.125 0.25q-1.53125 0 -2.375 -0.484375q-0.84375 -0.484375 -1.1875 -1.265625q-0.34375 -0.796875 -0.34375 -3.328125l0 -9.546875l-2.0625 0l0 -2.1875l2.0625 0l0 -4.109375l2.796875 -1.6875l0 5.796875l2.828125 0l0 2.1875l-2.828125 0l0 9.703125q0 1.203125 0.140625 1.546875q0.15625 0.34375 0.484375 0.546875q0.34375 0.203125 0.96875 0.203125q0.46875 0 1.234375 -0.109375zm13.625 2.515625l0 -2.4375q-1.9375 2.8125 -5.265625 2.8125q-1.46875 0 -2.75 -0.5625q-1.265625 -0.5625 -1.890625 -1.40625q-0.609375 -0.859375 -0.859375 -2.09375q-0.171875 -0.828125 -0.171875 -2.625l0 -10.28125l2.8125 0l0 9.203125q0 2.203125 0.171875 2.96875q0.265625 1.109375 1.125 1.75q0.859375 0.625 2.125 0.625q1.265625 0 2.375 -0.640625q1.109375 -0.65625 1.5625 -1.765625q0.46875 -1.125 0.46875 -3.25l0 -8.890625l2.8125 0l0 16.59375l-2.515625 0zm11.53125 0l-6.3125 -16.59375l2.96875 0l3.5625 9.9375q0.578125 1.609375 1.0625 3.34375q0.375 -1.3125 1.046875 -3.15625l3.6875 -10.125l2.890625 0l-6.28125 16.59375l-2.625 0zm14.453125 0l-5.078125 -16.59375l2.90625 0l2.640625 9.578125l0.9843712 3.5625q0.0625 -0.265625 0.859375 -3.421875l2.640625 -9.71875l2.890625 0l2.484375 9.625l0.828125 3.171875l0.953125 -3.203125l2.84375 -9.59375l2.734375 0l-5.1875 16.59375l-2.921875 0l-2.640625 -9.9375l-0.640625 -2.828125l-3.359375 12.765625l-2.9374962 0zm18.171871 0l6.0625 -8.625l-5.609375 -7.96875l3.515625 0l2.546875 3.890625q0.71875 1.109375 1.15625 1.859375q0.6875 -1.03125 1.265625 -1.828125l2.796875 -3.921875l3.359375 0l-5.734375 7.8125l6.171875 8.78125l-3.453125 0l-3.40625 -5.15625l-0.90625 -1.390625l-4.359375 6.546875l-3.40625 0zm17.75 6.390625l-0.3125 -2.640625q0.921875 0.25 1.609375 0.25q0.9375 0 1.5 -0.3125q0.5625 -0.3125 0.921875 -0.875q0.265625 -0.421875 0.859375 -2.09375q0.078125 -0.234375 0.25 -0.6875l-6.296875 -16.625l3.03125 0l3.453125 9.609375q0.671875 1.828125 1.203125 3.84375q0.484375 -1.9375 1.15625 -3.78125l3.546875 -9.671875l2.8125 0l-6.3125 16.875q-1.015625 2.734375 -1.578125 3.765625q-0.75 1.390625 -1.71875 2.03125q-0.96875 0.65625 -2.3125 0.65625q-0.8125 0 -1.8125 -0.34375zm14.640625 -6.390625l0 -2.28125l10.5625 -12.125q-1.796875 0.09375 -3.171875 0.09375l-6.765625 0l0 -2.28125l13.5625 0l0 1.859375l-8.984375 10.53125l-1.734375 1.921875q1.890625 -0.140625 3.546875 -0.140625l7.671875 0l0 2.421875l-14.6875 0zm16.703125 -11.296875q0 -4.0625 0.828125 -6.53125q0.84375 -2.484375 2.484375 -3.828125q1.65625 -1.34375 4.15625 -1.34375q1.84375 0 3.234375 0.75q1.390625 0.734375 2.296875 2.140625q0.90625 1.390625 1.421875 3.40625q0.515625 2.0 0.515625 5.40625q0 4.03125 -0.828125 6.515625q-0.828125 2.46875 -2.484375 3.828125q-1.640625 1.34375 -4.15625 1.34375q-3.3125 0 -5.203125 -2.375q-2.265625 -2.859375 -2.265625 -9.3125zm2.890625 0q0 5.640625 1.3125 7.515625q1.328125 1.859375 3.265625 1.859375q1.9375 0 3.25 -1.875q1.328125 -1.875 1.328125 -7.5q0 -5.65625 -1.328125 -7.515625q-1.3125 -1.859375 -3.28125 -1.859375q-1.9375 0 -3.09375 1.640625q-1.453125 2.09375 -1.453125 7.734375zm25.5 11.296875l-2.8125 0l0 -17.921875q-1.015625 0.96875 -2.671875 1.9375q-1.640625 0.96875 -2.953125 1.453125l0 -2.71875q2.359375 -1.109375 4.125 -2.6875q1.765625 -1.578125 2.5 -3.0625l1.8125 0l0 23.0z" fill-rule="nonzero"/><path fill="#000000" fill-opacity="0.0" d="m0.7154433 32.60905l19.086615 0l0 20.220474l-19.086615 0z" fill-rule="evenodd"/><path stroke="#cccccc" stroke-width="1.0" stroke-linejoin="round" stroke-linecap="butt" d="m0.7154433 32.60905l19.086615 0l0 20.220474l-19.086615 0z" fill-rule="evenodd"/><path fill="#000000" fill-opacity="0.0" d="m19.802057 32.60905l19.086615 0l0 20.220474l-19.086615 0z" fill-rule="evenodd"/><path stroke="#cccccc" stroke-width="1.0" stroke-linejoin="round" stroke-linecap="butt" d="m19.802057 32.60905l19.086615 0l0 20.220474l-19.086615 0z" fill-rule="evenodd"/><path fill="#000000" fill-opacity="0.0" d="m38.88867 32.60905l19.086613 0l0 20.220474l-19.086613 0z" fill-rule="evenodd"/><path stroke="#cccccc" stroke-width="1.0" stroke-linejoin="round" stroke-linecap="butt" d="m38.88867 32.60905l19.086613 0l0 20.220474l-19.086613 0z" fill-rule="evenodd"/><path fill="#000000" fill-opacity="0.0" d="m57.975285 32.60905l19.086613 0l0 20.220474l-19.086613 0z" fill-rule="evenodd"/><path stroke="#cccccc" stroke-width="1.0" stroke-linejoin="round" stroke-linecap="butt" d="m57.975285 32.60905l19.086613 0l0 20.220474l-19.086613 0z" fill-rule="evenodd"/><path fill="#000000" fill-opacity="0.0" d="m77.0619 32.60905l19.086617 0l0 20.220474l-19.086617 0z" fill-rule="evenodd"/><path stroke="#cccccc" stroke-width="1.0" stroke-linejoin="round" stroke-linecap="butt" d="m77.0619 32.60905l19.086617 0l0 20.220474l-19.086617 0z" fill-rule="evenodd"/><path fill="#000000" fill-opacity="0.0" d="m96.14851 32.60905l19.086617 0l0 20.220474l-19.086617 0z" fill-rule="evenodd"/><path stroke="#cccccc" stroke-width="1.0" stroke-linejoin="round" stroke-linecap="butt" d="m96.14851 32.60905l19.086617 0l0 20.220474l-19.086617 0z" fill-rule="evenodd"/><path fill="#000000" fill-opacity="0.0" d="m115.23513 32.60905l19.086617 0l0 20.220474l-19.086617 0z" fill-rule="evenodd"/><path stroke="#cccccc" stroke-width="1.0" stroke-linejoin="round" stroke-linecap="butt" d="m115.23513 32.60905l19.086617 0l0 20.220474l-19.086617 0z" fill-rule="evenodd"/><path fill="#000000" fill-opacity="0.0" d="m134.32175 32.60905l19.086609 0l0 20.220474l-19.086609 0z" fill-rule="evenodd"/><path stroke="#cccccc" stroke-width="1.0" stroke-linejoin="round" stroke-linecap="butt" d="m134.32175 32.60905l19.086609 0l0 20.220474l-19.086609 0z" fill-rule="evenodd"/><path fill="#000000" fill-opacity="0.0" d="m153.40836 32.60905l19.086609 0l0 20.220474l-19.086609 0z" fill-rule="evenodd"/><path stroke="#cccccc" stroke-width="1.0" stroke-linejoin="round" stroke-linecap="butt" d="m153.40836 32.60905l19.086609 0l0 20.220474l-19.086609 0z" fill-rule="evenodd"/><path fill="#000000" fill-opacity="0.0" d="m172.49496 32.60905l19.086624 0l0 20.220474l-19.086624 0z" fill-rule="evenodd"/><path stroke="#cccccc" stroke-width="1.0" stroke-linejoin="round" stroke-linecap="butt" d="m172.49496 32.60905l19.086624 0l0 20.220474l-19.086624 0z" fill-rule="evenodd"/></g></svg>