<svg version="1.1" viewBox="0.0 0.0 211.6535433070866 80.1259842519685" fill="none" stroke="none" stroke-linecap="square" stroke-miterlimit="10" xmlns:xlink="http://www.w3.org/1999/xlink" xmlns="http://www.w3.org/2000/svg"><clipPath id="p.0"><path d="m0 0l211.65355 0l0 80.125984l-211.65355 0l0 -80.125984z" clip-rule="nonzero"/></clipPath><g clip-path="url(#p.0)"><path fill="#000000" fill-opacity="0.0" d="m0 0l211.65355 0l0 80.125984l-211.65355 0z" fill-rule="evenodd"/><path fill="#000000" fill-opacity="0.0" d="m-9.448819 0l211.62206 0l0 80.0l-211.62206 0z" fill-rule="evenodd"/><path fill="#b7b7b7" d="m13.129306 26.829376l-7.5937495 0l-1.8281252 5.890625l-2.890625 0l7.34375 -22.75l2.421875 0l7.218751 22.75l-2.875001 0l-1.796875 -5.890625zm-6.8124995 -2.515625l6.0468745 0l-3.0 -9.875l-3.0468745 9.875zm15.125 8.40625l0 -22.75l6.765625 0q1.40625 0.015625 2.75 0.375q1.34375 0.34375 2.390625 1.078125q1.046875 0.734375 1.671875 1.875q0.625 1.140625 0.609375 2.734375q-0.015625 0.890625 -0.296875 1.625q-0.265625 0.734375 -0.75 1.328125q-0.46875 0.578125 -1.109375 1.015625q-0.640625 0.4375 -1.359375 0.75q0.90625 0.265625 1.65625 0.765625q0.765625 0.484375 1.3125 1.1875q0.546875 0.6875 0.84375 1.5625q0.3125 0.875 0.3125 1.890625q0.015625 1.59375 -0.609375 2.8125q-0.625 1.21875 -1.671875 2.046875q-1.046875 0.8125 -2.421875 1.25q-1.359375 0.4375 -2.8125 0.453125l-7.28125 0zm2.90625 -10.640625l0 8.1875l4.453125 0q0.90625 -0.015625 1.71875 -0.296875q0.8125 -0.296875 1.4375 -0.8125q0.625 -0.515625 0.984375 -1.265625q0.375 -0.75 0.375 -1.703125q0.015625 -0.96875 -0.328125 -1.71875q-0.328125 -0.75 -0.921875 -1.265625q-0.59375 -0.53125 -1.390625 -0.8125q-0.796875 -0.28125 -1.71875 -0.3125l-4.609375 0zm0 -2.40625l4.03125 0q0.8125 -0.015625 1.59375 -0.25q0.78125 -0.25 1.390625 -0.703125q0.609375 -0.46875 0.984375 -1.140625q0.375 -0.671875 0.375 -1.5625q0 -0.953125 -0.375 -1.625q-0.359375 -0.671875 -0.984375 -1.09375q-0.609375 -0.4375 -1.421875 -0.640625q-0.796875 -0.203125 -1.640625 -0.21875l-3.953125 0l0 7.234375zm31.0625 6.203125q-0.203125 1.578125 -0.8125 2.90625q-0.609375 1.3125 -1.59375 2.265625q-0.96875 0.9375 -2.3125 1.46875q-1.328125 0.515625 -2.96875 0.515625q-1.40625 0 -2.5625 -0.390625q-1.140625 -0.40625 -2.046875 -1.109375q-0.890625 -0.703125 -1.546875 -1.65625q-0.640625 -0.953125 -1.078125 -2.078125q-0.421875 -1.125 -0.640625 -2.359375q-0.203125 -1.234375 -0.21875 -2.5l0 -3.171875q0.015625 -1.265625 0.21875 -2.5q0.21875 -1.234375 0.640625 -2.359375q0.4375 -1.125 1.078125 -2.078125q0.65625 -0.96875 1.546875 -1.671875q0.90625 -0.703125 2.046875 -1.09375q1.140625 -0.40625 2.5625 -0.40625q1.703125 0 3.046875 0.53125q1.34375 0.515625 2.3125 1.484375q0.96875 0.953125 1.546875 2.296875q0.59375 1.34375 0.78125 2.96875l-2.890625 0q-0.140625 -1.03125 -0.484375 -1.921875q-0.34375 -0.890625 -0.921875 -1.5625q-0.578125 -0.671875 -1.421875 -1.046875q-0.828125 -0.390625 -1.96875 -0.390625q-1.03125 0 -1.828125 0.34375q-0.78125 0.328125 -1.359375 0.90625q-0.5625 0.578125 -0.953125 1.34375q-0.375 0.765625 -0.609375 1.625q-0.234375 0.859375 -0.34375 1.765625q-0.09375 0.890625 -0.09375 1.734375l0 3.203125q0 0.84375 0.09375 1.75q0.109375 0.890625 0.34375 1.765625q0.234375 0.859375 0.609375 1.625q0.375 0.765625 0.953125 1.359375q0.578125 0.578125 1.359375 0.921875q0.78125 0.328125 1.828125 0.328125q1.140625 0 1.96875 -0.359375q0.84375 -0.359375 1.421875 -1.0q0.578125 -0.65625 0.921875 -1.53125q0.34375 -0.890625 0.484375 -1.921875l2.890625 0zm4.171875 6.84375l0 -22.75l5.265621 0q2.375 0.03125 4.234375 0.8125q1.875 0.765625 3.15625 2.15625q1.296875 1.375 1.96875 3.3125q0.6875 1.921875 0.703125 4.265625l0 1.671875q-0.015625 2.34375 -0.703125 4.28125q-0.671875 1.921875 -1.96875 3.3125q-1.28125 1.375 -3.15625 2.15625q-1.859375 0.765625 -4.234375 0.78125l-5.265621 0zm2.9375 -20.375l0 18.015625l2.3281212 0q1.84375 -0.015625 3.1875 -0.640625q1.34375 -0.640625 2.21875 -1.734375q0.890625 -1.09375 1.3125 -2.578125q0.4375 -1.484375 0.453125 -3.21875l0 -1.703125q-0.015625 -1.734375 -0.453125 -3.203125q-0.4375 -1.484375 -1.3125 -2.5625q-0.875 -1.09375 -2.21875 -1.71875q-1.34375 -0.625 -3.1875 -0.65625l-2.3281212 0zm29.078121 9.859375l-9.5 0l0 8.0625l11.078125 0l0 2.453125l-13.96875 0l0 -22.75l13.828125 0l0 2.46875l-10.9375 0l0 7.3125l9.5 0l0 2.453125zm19.34375 0.46875l-9.46875 0l0 10.046875l-2.921875 0l0 -22.75l13.96875 0l0 2.46875l-11.046875 0l0 7.78125l9.46875 0l0 2.453125zm21.265625 7.0625q-1.4375 1.6875 -3.296875 2.5q-1.859375 0.8125 -4.078125 0.796875q-1.40625 -0.015625 -2.59375 -0.421875q-1.171875 -0.421875 -2.109375 -1.140625q-0.9375 -0.734375 -1.640625 -1.71875q-0.703125 -0.984375 -1.1875 -2.125q-0.46875 -1.15625 -0.71875 -2.40625q-0.234375 -1.265625 -0.25 -2.546875l0 -2.640625q0.015625 -1.265625 0.21875 -2.515625q0.21875 -1.265625 0.65625 -2.421875q0.4375 -1.15625 1.09375 -2.140625q0.65625 -1.0 1.5625 -1.71875q0.921875 -0.734375 2.078125 -1.15625q1.15625 -0.421875 2.59375 -0.421875q1.59375 0 2.9375 0.5q1.34375 0.484375 2.34375 1.40625q1.0 0.90625 1.609375 2.203125q0.609375 1.28125 0.75 2.875l-2.859375 0q-0.171875 -0.984375 -0.53125 -1.8125q-0.359375 -0.84375 -0.953125 -1.4375q-0.578125 -0.59375 -1.390625 -0.921875q-0.8125 -0.34375 -1.890625 -0.34375q-1.03125 0 -1.828125 0.359375q-0.796875 0.34375 -1.390625 0.9375q-0.59375 0.59375 -0.984375 1.390625q-0.390625 0.78125 -0.640625 1.65625q-0.25 0.875 -0.359375 1.78125q-0.109375 0.90625 -0.109375 1.75l0 2.671875q0.015625 0.859375 0.140625 1.78125q0.140625 0.90625 0.421875 1.78125q0.28125 0.875 0.71875 1.65625q0.4375 0.78125 1.046875 1.375q0.625 0.59375 1.4375 0.953125q0.8125 0.34375 1.84375 0.359375q0.59375 0.015625 1.234375 -0.046875q0.65625 -0.0625 1.265625 -0.25q0.609375 -0.1875 1.140625 -0.5q0.53125 -0.328125 0.890625 -0.84375l0.03125 -5.109375l-4.625 0l0 -2.4375l7.375 0l0.046875 8.34375zm18.75 2.984375l-2.734375 0l0 -10.515625l-9.328125 0l0 10.515625l-2.71875 0l0 -22.75l2.71875 0l0 9.78125l9.328125 0l0 -9.78125l2.734375 0l0 22.75zm4.9375 -22.75l13.75 0l0 2.515625l-5.453125 0l0 17.734375l5.453125 0l0 2.5l-13.75 0l0 -2.5l5.328125 0l0 -17.734375l-5.328125 0l0 -2.515625zm29.875 0l2.953125 0l0 15.828125q-0.03125 1.578125 -0.609375 2.90625q-0.5625 1.328125 -1.546875 2.296875q-0.984375 0.953125 -2.328125 1.5q-1.328125 0.53125 -2.90625 0.53125q-1.59375 0 -2.90625 -0.484375q-1.296875 -0.484375 -2.265625 -1.375q-0.953125 -0.90625 -1.53125 -2.171875q-0.578125 -1.28125 -0.71875 -2.859375l2.9375 0q0.046875 0.953125 0.375 1.765625q0.34375 0.8125 0.921875 1.421875q0.578125 0.59375 1.375 0.921875q0.8125 0.328125 1.8125 0.328125q1.03125 0 1.84375 -0.375q0.8125 -0.390625 1.375 -1.046875q0.578125 -0.65625 0.875 -1.515625q0.3125 -0.875 0.34375 -1.84375l0 -15.828125z" fill-rule="nonzero"/><path fill="#b7b7b7" d="m13.504306 66.23563q0 -0.515625 -0.203125 -0.921875q-0.203125 -0.421875 -0.6875 -0.765625q-0.484375 -0.34375 -1.28125 -0.625q-0.796875 -0.296875 -1.984375 -0.53125q-1.4531245 -0.296875 -2.6562495 -0.71875q-1.1875 -0.421875 -2.046875 -1.0q-0.84375024 -0.59375 -1.3125002 -1.375q-0.46875 -0.796875 -0.46875 -1.84375q0 -1.03125 0.484375 -1.921875q0.484375 -0.90625 1.3593752 -1.578125q0.875 -0.671875 2.078125 -1.0625q1.2187495 -0.390625 2.6718745 -0.390625q1.5625 0 2.8125 0.40625q1.25 0.40625 2.125 1.125q0.875 0.71875 1.34375 1.6875q0.48437595 0.953125 0.48437595 2.0625l-2.890626 0q0 -0.546875 -0.28125 -1.0625q-0.28125 -0.53125 -0.78125 -0.9375q-0.5 -0.40625 -1.21875 -0.65625q-0.703125 -0.25 -1.59375 -0.25q-0.921875 0 -1.6249995 0.203125q-0.6875 0.203125 -1.15625 0.546875q-0.453125 0.34375 -0.6875 0.796875q-0.234375 0.453125 -0.234375 0.9375q0 0.5 0.1875 0.890625q0.1875 0.390625 0.640625 0.703125q0.46875 0.3125 1.234375 0.5625q0.7812495 0.25 1.9687495 0.484375q1.5625 0.328125 2.796875 0.765625q1.234375 0.421875 2.078125 1.03125q0.84375 0.59375 1.28125 1.390625q0.45312595 0.796875 0.45312595 1.84375q0 1.125 -0.51562595 2.046875q-0.5 0.921875 -1.40625 1.578125q-0.90625 0.65625 -2.171875 1.015625q-1.265625 0.359375 -2.765625 0.359375q-1.7187495 0 -3.0624995 -0.453125q-1.34375 -0.46875 -2.28125 -1.21875q-0.92187524 -0.765625 -1.4218752 -1.765625q-0.484375 -1.0 -0.484375 -2.078125l2.8906252 0q0.0625 0.890625 0.46875 1.5q0.421875 0.609375 1.03125 0.984375q0.625 0.375 1.3749995 0.53125q0.75 0.15625 1.484375 0.15625q1.828125 0 2.890625 -0.671875q1.0625 -0.671875 1.078125 -1.78125zm14.812501 -16.515625l0 4.09375l6.4375 0l0 2.234375l-6.4375 0l0 9.1875q0 0.984375 0.25 1.625q0.25 0.640625 0.6875 1.03125q0.4375 0.375 1.0 0.53125q0.578125 0.15625 1.21875 0.15625q0.46875 0 0.96875 -0.046875q0.5 -0.0625 0.96875 -0.140625q0.484375 -0.078125 0.890625 -0.15625q0.421875 -0.09375 0.6875 -0.15625l0.40625 2.046875q-0.359375 0.21875 -0.875 0.390625q-0.515625 0.15625 -1.125 0.265625q-0.609375 0.125 -1.296875 0.1875q-0.671875 0.0625 -1.34375 0.0625q-1.125 0 -2.109375 -0.3125q-0.96875 -0.328125 -1.6875 -1.015625q-0.71875 -0.703125 -1.140625 -1.796875q-0.40625 -1.109375 -0.40625 -2.671875l0 -9.1875l-4.4375 0l0 -2.234375l4.4375 0l0 -4.09375l2.90625 0zm23.328125 18.671875q-0.84375 1.25 -2.109375 1.953125q-1.265625 0.6875 -2.921875 0.6875q-1.328125 0 -2.40625 -0.40625q-1.078125 -0.421875 -1.84375 -1.296875q-0.765625 -0.875 -1.1875 -2.21875q-0.40625 -1.359375 -0.40625 -3.25l0 -10.046875l2.890625 0l0 10.078125q0 1.375 0.21875 2.28125q0.21875 0.90625 0.65625 1.453125q0.4375 0.53125 1.0625 0.75q0.640625 0.21875 1.46875 0.21875q1.765625 0 2.84375 -0.71875q1.09375 -0.71875 1.625 -1.9375l0 -12.125l2.90625 0l0 16.90625l-2.625 0l-0.171875 -2.328125zm14.859371 -1.828125l0.265625 1.046875l0.28125 -1.046875l4.734375 -12.75l2.953125 0l-6.890625 16.90625l-2.203125 0l-6.953121 -16.90625l2.96875 0l4.843746 12.75zm15.140625 -1.96875l0.34375 2.421875l0.421875 -2.421875l2.703125 -10.78125l1.859375 0l2.6875 10.78125l0.453125 2.65625l0.421875 -2.65625l1.875 -10.78125l2.5625 0l-3.59375 16.90625l-2.28125 0l-2.640625 -10.359375l-0.4375 -2.625l-0.421875 2.625l-2.609375 10.359375l-2.28125 0l-3.59375 -16.90625l2.5625 0l1.96875 10.78125zm23.625 -4.515625l4.515625 -6.265625l3.390625 0l-6.296875 8.359375l6.46875 8.546875l-3.34375 0l-4.671875 -6.4375l-4.671875 6.4375l-3.375 0l6.46875 -8.546875l-6.296875 -8.359375l3.34375 0l4.46875 6.265625zm18.4375 4.640625l0.75 2.046875l5.15625 -12.953125l3.234375 0l-8.578125 19.515625q-0.296875 0.65625 -0.765625 1.390625q-0.453125 0.734375 -1.109375 1.359375q-0.65625 0.625 -1.53125 1.046875q-0.875 0.421875 -2.015625 0.421875q-0.203125 0 -0.453125 -0.03125q-0.25 -0.015625 -0.5 -0.0625q-0.25 -0.03125 -0.46875 -0.078125q-0.21875 -0.046875 -0.359375 -0.078125l0.46875 -2.359375q0.109375 0 0.296875 0.015625q0.1875 0.015625 0.390625 0.03125q0.203125 0.015625 0.390625 0.015625q0.1875 0.015625 0.296875 0.015625q0.59375 0 1.078125 -0.328125q0.5 -0.328125 0.875 -0.78125q0.390625 -0.453125 0.65625 -0.9375q0.28125 -0.484375 0.4375 -0.796875l1.15625 -2.25l-7.28125 -16.109375l3.234375 0l4.640625 10.90625zm16.453125 3.640625l10.765625 0l0 2.359375l-14.453125 0l0 -2.125l10.09375 -12.390625l-9.953125 0l0 -2.390625l13.75 0l0 2.046875l-10.203125 12.5zm30.015625 -6.34375q0 2.171875 -0.5 3.859375q-0.5 1.671875 -1.4375 2.828125q-0.9375 1.140625 -2.296875 1.734375q-1.359375 0.59375 -3.109375 0.59375q-1.734375 0 -3.109375 -0.59375q-1.359375 -0.59375 -2.3125 -1.734375q-0.953125 -1.15625 -1.46875 -2.828125q-0.5 -1.6875 -0.5 -3.859375l0 -5.328125q0 -2.171875 0.5 -3.84375q0.5 -1.6875 1.4375 -2.84375q0.953125 -1.15625 2.3125 -1.75q1.375 -0.609375 3.109375 -0.609375q1.75 0 3.109375 0.609375q1.375 0.59375 2.3125 1.75q0.953125 1.15625 1.453125 2.84375q0.5 1.671875 0.5 3.84375l0 5.328125zm-11.828125 -0.578125l8.859375 -6.796875q-0.25 -2.265625 -1.328125 -3.4375q-1.0625 -1.1875 -3.078125 -1.1875q-2.28125 0 -3.375 1.546875q-1.078125 1.53125 -1.078125 4.484375l0 5.390625zm8.921875 -4.03125l-8.84375 6.765625q0.265625 2.203125 1.359375 3.359375q1.09375 1.15625 3.046875 1.15625q2.296875 0 3.359375 -1.5625q1.078125 -1.5625 1.078125 -4.5l0 -5.21875zm17.203125 13.3125l-2.890625 0l0 -19.0625l-5.953125 2.265625l0 -2.640625l8.609375 -3.3125l0.234375 0l0 22.75z" fill-rule="nonzero"/><path fill="#000000" fill-opacity="0.0" d="m0.7154433 32.60905l19.086615 0l0 20.220474l-19.086615 0z" fill-rule="evenodd"/><path stroke="#000000" stroke-width="1.0" stroke-linejoin="round" stroke-linecap="butt" d="m0.7154433 32.60905l19.086615 0l0 20.220474l-19.086615 0z" fill-rule="evenodd"/><path fill="#000000" fill-opacity="0.0" d="m19.802057 32.60905l19.086615 0l0 20.220474l-19.086615 0z" fill-rule="evenodd"/><path stroke="#000000" stroke-width="1.0" stroke-linejoin="round" stroke-linecap="butt" d="m19.802057 32.60905l19.086615 0l0 20.220474l-19.086615 0z" fill-rule="evenodd"/><path fill="#000000" fill-opacity="0.0" d="m38.88867 32.60905l19.086613 0l0 20.220474l-19.086613 0z" fill-rule="evenodd"/><path stroke="#000000" stroke-width="1.0" stroke-linejoin="round" stroke-linecap="butt" d="m38.88867 32.60905l19.086613 0l0 20.220474l-19.086613 0z" fill-rule="evenodd"/><path fill="#000000" fill-opacity="0.0" d="m57.975285 32.60905l19.086613 0l0 20.220474l-19.086613 0z" fill-rule="evenodd"/><path stroke="#000000" stroke-width="1.0" stroke-linejoin="round" stroke-linecap="butt" d="m57.975285 32.60905l19.086613 0l0 20.220474l-19.086613 0z" fill-rule="evenodd"/><path fill="#000000" fill-opacity="0.0" d="m77.0619 32.60905l19.086617 0l0 20.220474l-19.086617 0z" fill-rule="evenodd"/><path stroke="#000000" stroke-width="1.0" stroke-linejoin="round" stroke-linecap="butt" d="m77.0619 32.60905l19.086617 0l0 20.220474l-19.086617 0z" fill-rule="evenodd"/><path fill="#000000" fill-opacity="0.0" d="m96.14851 32.60905l19.086617 0l0 20.220474l-19.086617 0z" fill-rule="evenodd"/><path stroke="#000000" stroke-width="1.0" stroke-linejoin="round" stroke-linecap="butt" d="m96.14851 32.60905l19.086617 0l0 20.220474l-19.086617 0z" fill-rule="evenodd"/><path fill="#000000" fill-opacity="0.0" d="m115.23513 32.60905l19.086617 0l0 20.220474l-19.086617 0z" fill-rule="evenodd"/><path stroke="#000000" stroke-width="1.0" stroke-linejoin="round" stroke-linecap="butt" d="m115.23513 32.60905l19.086617 0l0 20.220474l-19.086617 0z" fill-rule="evenodd"/><path fill="#000000" fill-opacity="0.0" d="m134.32175 32.60905l19.086609 0l0 20.220474l-19.086609 0z" fill-rule="evenodd"/><path stroke="#000000" stroke-width="1.0" stroke-linejoin="round" stroke-linecap="butt" d="m134.32175 32.60905l19.086609 0l0 20.220474l-19.086609 0z" fill-rule="evenodd"/><path fill="#000000" fill-opacity="0.0" d="m153.40836 32.60905l19.086609 0l0 20.220474l-19.086609 0z" fill-rule="evenodd"/><path stroke="#000000" stroke-width="1.0" stroke-linejoin="round" stroke-linecap="butt" d="m153.40836 32.60905l19.086609 0l0 20.220474l-19.086609 0z" fill-rule="evenodd"/><path fill="#000000" fill-opacity="0.0" d="m172.49496 32.60905l19.086624 0l0 20.220474l-19.086624 0z" fill-rule="evenodd"/><path stroke="#000000" stroke-width="1.0" stroke-linejoin="round" stroke-linecap="butt" d="m172.49496 32.60905l19.086624 0l0 20.220474l-19.086624 0z" fill-rule="evenodd"/></g></svg>