<svg version="1.1" viewBox="0.0 0.0 211.6535433070866 80.1259842519685" fill="none" stroke="none" stroke-linecap="square" stroke-miterlimit="10" xmlns:xlink="http://www.w3.org/1999/xlink" xmlns="http://www.w3.org/2000/svg"><clipPath id="p.0"><path d="m0 0l211.65355 0l0 80.125984l-211.65355 0l0 -80.125984z" clip-rule="nonzero"/></clipPath><g clip-path="url(#p.0)"><path fill="#000000" fill-opacity="0.0" d="m0 0l211.65355 0l0 80.125984l-211.65355 0z" fill-rule="evenodd"/><path fill="#000000" fill-opacity="0.0" d="m-9.448819 0l225.44882 0l0 80.0l-225.44882 0z" fill-rule="evenodd"/><path fill="#b7b7b7" d="m8.832431 8.751251l3.515625 0l7.781251 22.078125l1.984375 0.328125l0 1.5625l-8.453126 0l0 -1.5625l2.656251 -0.328125l-1.500001 -4.734375l-9.34375 0l-1.5000002 4.734375l2.7500002 0.328125l0 1.5625l-7.59375 0l0 -1.5625l1.984375 -0.328125l7.71875 -22.078125zm2.015625 5.125l-0.796875 -2.8125l-0.765625 2.875l-3.2343745 10.265625l8.15625 0l-3.359375 -10.328125zm14.972169 -2.953125l-2.625 -0.375l0 -1.609375l4.328125 0q1.078125 0 2.75 -0.125q1.53125 -0.125 2.265625 -0.125q4.421875 0 6.328125 1.375q1.90625 1.375 1.90625 4.03125q0 2.265625 -1.3125 3.90625q-1.3125 1.625 -3.59375 2.046875q3.078125 -0.0625 4.828125 1.4375q1.765625 1.5 1.765625 4.09375q0 3.234375 -2.296875 5.28125q-2.28125 2.046875 -7.5625 2.046875q-1.140625 0 -2.203125 -0.09375q-2.5 -0.09375 -2.96875 -0.09375l-4.265625 0l0 -1.5625l2.65625 -0.328125l0 -19.90625zm3.390625 8.515625q0.453125 0.03125 1.828125 0.03125l1.765625 0q2.234375 0 3.375 -1.25q1.15625 -1.25 1.15625 -3.546875q0 -2.234375 -1.15625 -3.28125q-1.140625 -1.046875 -3.921875 -1.046875q-1.15625 0 -2.375 0.140625l-0.671875 0.0625l0 8.890625zm0 11.484375q0.734375 0.265625 3.328125 0.265625q3.234375 0 4.6875 -1.328125q1.453125 -1.328125 1.453125 -3.828125q0 -2.46875 -1.265625 -3.578125q-1.25 -1.125 -4.078125 -1.125q-3.25 0 -4.125 0.0625l0 9.53125zm26.498169 2.15625q-3.515625 0 -6.0 -1.515625q-2.484375 -1.53125 -3.765625 -4.28125q-1.265625 -2.75 -1.265625 -6.46875q0 -3.578125 1.5 -6.328125q1.5 -2.75 4.125 -4.265625q2.625 -1.53125 5.890625 -1.53125q2.46875 0 5.921875 0.765625l1.046875 0.1875l-0.3125 5.765625l-2.140625 0l-0.8125 -4.0625q-0.4375 -0.390625 -1.546875 -0.65625q-1.109375 -0.265625 -2.703125 -0.265625q-2.046875 0 -3.65625 1.171875q-1.59375 1.15625 -2.515625 3.4375q-0.90625 2.265625 -0.90625 5.4375q0 3.0 0.796875 5.46875q0.8125 2.46875 2.4375 3.921875q1.640625 1.453125 4.03125 1.453125q1.703125 0 2.609375 -0.28125q0.921875 -0.296875 1.5625 -0.84375l1.34375 -3.125l2.015625 0.25l-0.78125 4.546875q-0.671875 0.03125 -1.984375 0.4375q-1.140625 0.359375 -2.21875 0.5625q-1.0625 0.21875 -2.671875 0.21875zm12.927288 -22.15625l-2.5 -0.375l0 -1.609375l4.203125 0q0.984375 0 2.84375 -0.125q1.859375 -0.125 2.78125 -0.125q5.953125 0 8.84375 3.0q2.90625 2.984375 2.90625 8.390625q0 3.78125 -1.5 6.703125q-1.484375 2.921875 -4.171875 4.5625q-2.6875 1.625 -6.171875 1.625q-0.765625 0 -2.625 -0.125q-1.921875 -0.125 -2.875 -0.125l-4.390625 0l0 -1.5625l2.65625 -0.328125l0 -19.90625zm3.390625 20.0q1.125 0.265625 2.890625 0.265625l0.953125 0q2.40625 -0.03125 4.234375 -1.21875q1.84375 -1.1875 2.859375 -3.53125q1.03125 -2.359375 1.03125 -5.71875q0 -5.0625 -2.1875 -7.671875q-2.1875 -2.625 -6.609375 -2.625q-0.921875 0 -2.203125 0.125q-0.546875 0.09375 -0.96875 0.09375l0 20.28125zm20.865417 -20.0l-2.625 -0.375l0 -1.609375l16.296875 0l0.4375 4.96875l-1.8125 0l-0.9375 -3.109375l-7.9375 -0.1875l0 9.015625l5.34375 -0.09375l0.453125 -2.65625l1.765625 0l0 7.359375l-1.765625 0l-0.453125 -2.75l-5.34375 -0.09375l0 9.53125l9.03125 -0.3125l1.6875 -4.03125l1.890625 0.578125l-0.921875 5.5625l-17.765625 0l0 -1.5625l2.65625 -0.328125l0 -19.90625zm20.832047 0l-2.75 -0.375l0 -1.609375l17.125 0l0.3125 5.4375l-2.078125 0l-0.953125 -3.546875l-8.234375 -0.21875l0 9.28125l5.796875 -0.09375l0.546875 -2.65625l1.6875 0l0 7.484375l-1.65625 0l-0.578125 -2.78125l-5.796875 -0.140625l0 9.125l5.0 0.328125l0 1.5625l-10.984375 0l0 -1.5625l2.5625 -0.328125l0 -19.90625zm28.16742 22.15625q-3.453125 0 -5.96875 -1.53125q-2.515625 -1.546875 -3.828125 -4.25q-1.3125 -2.703125 -1.3125 -6.125q0 -3.9375 1.546875 -6.75q1.5625 -2.828125 4.3125 -4.28125q2.75 -1.453125 6.265625 -1.453125q3.234375 0 7.453125 0.984375l-0.28125 5.546875l-2.265625 0l-0.78125 -3.84375q-0.4375 -0.359375 -1.515625 -0.671875q-1.0625 -0.328125 -2.859375 -0.328125q-2.34375 0 -4.140625 1.15625q-1.78125 1.15625 -2.796875 3.4375q-1.0 2.265625 -1.0 5.5q0 2.96875 0.8125 5.4375q0.8125 2.453125 2.484375 3.953125q1.6875 1.484375 4.125 1.484375q1.53125 0 2.90625 -0.359375q1.390625 -0.375 2.125 -0.984375l0 -7.140625l-4.03125 -0.3125l0 -1.890625l9.34375 0l0 1.890625l-1.859375 0.28125l0 8.609375q-0.703125 0.03125 -2.34375 0.546875q-1.65625 0.515625 -3.140625 0.796875q-1.46875 0.296875 -3.25 0.296875zm15.383179 -22.15625l-2.53125 -0.375l0 -1.609375l8.71875 0l0 1.609375l-2.765625 0.375l0 8.609375l11.265625 0l0 -8.609375l-2.59375 -0.375l0 -1.609375l8.578125 0l0 1.609375l-2.515625 0.375l0 19.90625l2.515625 0.328125l0 1.5625l-8.609375 0l0 -1.5625l2.625 -0.328125l0 -9.3125l-11.265625 0l0 9.3125l2.796875 0.328125l0 1.5625l-8.8125 0l0 -1.5625l2.59375 -0.328125l0 -19.90625zm27.011673 0l-2.96875 -0.375l0 -1.609375l9.40625 0l0 1.609375l-2.984375 0.375l0 19.90625l2.984375 0.359375l0 1.53125l-9.375 0l0 -1.5625l2.9375 -0.328125l0 -19.90625zm8.005402 26.1875q1.40625 -0.421875 2.515625 -1.5q1.125 -1.0625 1.640625 -2.640625q0.421875 -1.203125 0.546875 -2.8125q0.125 -1.625 0.125 -4.984375l0 -14.21875l-3.078125 -0.40625l0 -1.609375l9.40625 0l0 1.609375l-2.90625 0.40625l0 12.96875l0 1.5q0 2.53125 -0.0625 4.0625q-0.0625 1.53125 -0.28125 2.625q-0.578125 2.5625 -2.53125 4.21875q-1.953125 1.671875 -4.515625 2.125l-0.859375 -1.34375z" fill-rule="nonzero"/><path fill="#b7b7b7" d="m3.973056 68.1575q0.31250024 0.484375 1.3437502 0.875q1.046875 0.375 2.203125 0.375q1.8281245 0 2.6874995 -0.703125q0.859375 -0.703125 0.859375 -1.953125q0 -0.859375 -0.546875 -1.5q-0.53125 -0.640625 -1.515625 -1.140625q-0.96875 -0.5 -2.7968745 -1.203125q-2.4687502 -0.921875 -3.6093752 -2.21875q-1.125 -1.296875 -1.125 -3.40625q0 -1.40625 0.84375 -2.453125q0.84375 -1.0625 2.3281252 -1.65625q1.5 -0.59375 3.328125 -0.59375q1.4687495 0 2.5624995 0.21875q1.109375 0.21875 1.78125 0.453125q0.671875 0.21875 0.890625 0.28125l0 3.96875l-1.9375 0l-0.640625 -2.359375q-0.203125 -0.390625 -1.03125 -0.65625q-0.828125 -0.28125 -1.8593745 -0.28125q-1.4375 0 -2.328125 0.640625q-0.875 0.640625 -0.875 1.734375q0 0.953125 0.46875 1.578125q0.46875 0.625 1.171875 1.015625q0.703125 0.375 1.9218745 0.890625l0.640625 0.25q1.78125 0.703125 2.90625 1.34375q1.125 0.640625 1.875 1.6875q0.75 1.03125 0.75 2.546875q0 2.359375 -1.84375 3.78125q-1.828125 1.40625 -5.0312495 1.40625q-1.578125 0 -3.296875 -0.4375q-1.7031252 -0.4375 -2.7812502 -0.875l0 -4.109375l2.078125 0l0.578125 2.5zm18.64441 2.875q-1.8125 0 -2.71875 -0.828125q-0.890625 -0.828125 -0.890625 -2.84375l0 -12.28125l-2.3125 0l0 -1.453125q0.171875 -0.03125 0.90625 -0.21875q0.734375 -0.1875 0.984375 -0.34375q0.515625 -0.296875 0.8125 -1.15625q0.25 -0.609375 0.59375 -1.953125q0.359375 -1.34375 0.421875 -1.609375l1.890625 0l0.0625 4.609375l5.34375 0l0 2.125l-5.34375 0l0 9.8125q0 1.828125 0.109375 2.5625q0.109375 0.734375 0.46875 0.96875q0.375 0.21875 1.28125 0.21875q0.859375 0 1.890625 -0.21875q1.046875 -0.234375 1.625 -0.484375l0.484375 1.4375q-0.765625 0.578125 -2.484375 1.125q-1.71875 0.53125 -3.125 0.53125zm22.117783 -0.03125q-0.890625 0 -1.328125 -0.34375q-0.4375 -0.359375 -0.4375 -1.15625l0 -1.078125q-1.046875 1.046875 -2.640625 1.859375q-1.578125 0.796875 -3.171875 0.796875q-2.984375 0 -4.234375 -1.59375q-1.25 -1.609375 -1.25 -5.296875l0 -9.28125l-1.78125 -0.5l0 -1.421875l4.46875 -0.40625l0.03125 0l0.609375 0.375l0 10.984375q0 1.859375 0.265625 2.90625q0.28125 1.03125 0.96875 1.53125q0.6875 0.484375 2.0 0.484375q1.28125 0 2.40625 -0.53125q1.125 -0.546875 1.953125 -1.296875l0 -12.125l-2.3125 -0.5l0 -1.421875l4.875 -0.40625l0.03125 0l0.734375 0.375l0 16.140625l1.921875 0l-0.03125 1.4375q-0.90625 0.21875 -1.5625 0.34375q-0.65625 0.125 -1.515625 0.125zm4.192795 -18.046875l7.421875 0l0 1.515625l-2.265625 0.40625l3.234375 9.21875l1.34375 4.0625l1.140625 -3.9375l3.234375 -9.34375l-2.171875 -0.40625l0 -1.515625l6.499996 0l0 1.515625l-1.671875 0.40625l-6.171871 16.09375l-2.71875 0l-6.4375 -16.09375l-1.4375 -0.40625l0 -1.515625zm17.988537 0l7.453125 0l0 1.515625l-2.4375 0.375l2.65625 9.40625l0.9375 4.0625l0.921875 -4.09375l3.078125 -11.265625l3.125 0l3.171875 11.265625l0.921875 4.125l1.03125 -4.09375l2.59375 -9.375l-2.4375 -0.40625l0 -1.515625l6.5 0l0 1.515625l-1.703125 0.40625l-4.953125 16.09375l-3.015625 0l-3.390625 -11.296875l-0.828125 -3.96875l-0.671875 3.96875l-3.234375 11.296875l-2.96875 0l-5.125 -16.125l-1.625 -0.375l0 -1.515625zm34.879303 8.90625l-5.40625 -7.015625l-1.796875 -0.375l0 -1.515625l8.125 0l0 1.515625l-2.234375 0.375l2.90625 4.125l0.890625 1.375l0.875 -1.375l3.03125 -4.125l-2.328125 -0.375l0 -1.515625l6.75 0l0 1.515625l-1.921875 0.375l-5.3125 6.625l5.671875 7.421875l1.84375 0.296875l0 1.53125l-8.21875 0l0 -1.53125l2.109375 -0.328125l-2.90625 -4.3125l-0.96875 -1.4375l-0.859375 1.40625l-3.078125 4.34375l2.65625 0.328125l0 1.53125l-7.453125 0l0 -1.53125l2.15625 -0.328125l5.46875 -7.0zm15.258789 16.828125q-0.546875 0 -1.078125 -0.0625q-0.515625 -0.0625 -0.75 -0.1875l0 -2.796875q0.203125 0.140625 0.75 0.203125q0.5625 0.0625 1.078125 0.0625q1.53125 0 2.703125 -1.078125q1.171875 -1.0625 2.25 -4.109375l-1.53125 0l-6.078125 -15.84375l-1.46875 -0.40625l0 -1.515625l7.703125 0l0 1.515625l-2.453125 0.375l3.125 9.4375l1.484375 4.671875l1.375 -4.703125l2.84375 -9.40625l-2.140625 -0.375l0 -1.515625l6.421875 0l0 1.515625l-1.59375 0.375q-4.703125 14.40625 -5.53125 16.359375q-1.09375 2.75 -2.0 4.296875q-0.890625 1.5625 -2.109375 2.375q-1.203125 0.8125 -3.0 0.8125zm18.944656 -23.6875l-0.578125 3.046875l-1.953125 0l0 -5.09375l13.609375 0l0.640625 1.375l-9.421875 12.609375l-2.203125 1.984375l8.609375 -0.28125l1.34375 -3.578125l1.859375 0.21875l-0.578125 5.4375l-14.375 0l-0.671875 -1.40625l9.578125 -12.484375l2.109375 -2.046875l-7.96875 0.21875zm23.196793 16.0q-4.09375 0 -6.125 -2.828125q-2.03125 -2.828125 -2.03125 -7.3125q0 -3.125 1.140625 -5.484375q1.15625 -2.359375 3.140625 -3.59375q1.984375 -1.25 4.359375 -1.25q4.15625 0 6.078125 2.671875q1.921875 2.671875 1.921875 7.3125q0 3.09375 -1.109375 5.484375q-1.09375 2.375 -3.03125 3.6875q-1.9375 1.3125 -4.34375 1.3125zm0.125 -1.625q4.78125 0 4.78125 -8.546875q0 -4.15625 -1.078125 -6.390625q-1.078125 -2.25 -3.59375 -2.25q-2.46875 0 -3.65625 2.140625q-1.1875 2.125 -1.1875 6.09375q0 4.0625 1.140625 6.515625q1.140625 2.4375 3.59375 2.4375zm16.326035 -15.171875q-0.671875 0.265625 -2.109375 0.625q-1.4375 0.34375 -2.34375 0.46875l-0.3125 -1.796875q1.625 -0.34375 3.328125 -1.171875q1.71875 -0.84375 2.875 -1.828125l0.03125 0l1.953125 0.3125l0 18.046875l3.96875 0.296875l0 1.5625l-11.515625 0l0 -1.5625l4.125 -0.296875l0 -14.65625z" fill-rule="nonzero"/><path fill="#000000" fill-opacity="0.0" d="m0.7154433 32.60905l19.086615 0l0 20.220474l-19.086615 0z" fill-rule="evenodd"/><path stroke="#cccccc" stroke-width="1.0" stroke-linejoin="round" stroke-linecap="butt" d="m0.7154433 32.60905l19.086615 0l0 20.220474l-19.086615 0z" fill-rule="evenodd"/><path fill="#000000" fill-opacity="0.0" d="m19.802057 32.60905l19.086615 0l0 20.220474l-19.086615 0z" fill-rule="evenodd"/><path stroke="#cccccc" stroke-width="1.0" stroke-linejoin="round" stroke-linecap="butt" d="m19.802057 32.60905l19.086615 0l0 20.220474l-19.086615 0z" fill-rule="evenodd"/><path fill="#000000" fill-opacity="0.0" d="m38.88867 32.60905l19.086613 0l0 20.220474l-19.086613 0z" fill-rule="evenodd"/><path stroke="#cccccc" stroke-width="1.0" stroke-linejoin="round" stroke-linecap="butt" d="m38.88867 32.60905l19.086613 0l0 20.220474l-19.086613 0z" fill-rule="evenodd"/><path fill="#000000" fill-opacity="0.0" d="m57.975285 32.60905l19.086613 0l0 20.220474l-19.086613 0z" fill-rule="evenodd"/><path stroke="#cccccc" stroke-width="1.0" stroke-linejoin="round" stroke-linecap="butt" d="m57.975285 32.60905l19.086613 0l0 20.220474l-19.086613 0z" fill-rule="evenodd"/><path fill="#000000" fill-opacity="0.0" d="m77.0619 32.60905l19.086617 0l0 20.220474l-19.086617 0z" fill-rule="evenodd"/><path stroke="#cccccc" stroke-width="1.0" stroke-linejoin="round" stroke-linecap="butt" d="m77.0619 32.60905l19.086617 0l0 20.220474l-19.086617 0z" fill-rule="evenodd"/><path fill="#000000" fill-opacity="0.0" d="m96.14851 32.60905l19.086617 0l0 20.220474l-19.086617 0z" fill-rule="evenodd"/><path stroke="#cccccc" stroke-width="1.0" stroke-linejoin="round" stroke-linecap="butt" d="m96.14851 32.60905l19.086617 0l0 20.220474l-19.086617 0z" fill-rule="evenodd"/><path fill="#000000" fill-opacity="0.0" d="m115.23513 32.60905l19.086617 0l0 20.220474l-19.086617 0z" fill-rule="evenodd"/><path stroke="#cccccc" stroke-width="1.0" stroke-linejoin="round" stroke-linecap="butt" d="m115.23513 32.60905l19.086617 0l0 20.220474l-19.086617 0z" fill-rule="evenodd"/><path fill="#000000" fill-opacity="0.0" d="m134.32175 32.60905l19.086609 0l0 20.220474l-19.086609 0z" fill-rule="evenodd"/><path stroke="#cccccc" stroke-width="1.0" stroke-linejoin="round" stroke-linecap="butt" d="m134.32175 32.60905l19.086609 0l0 20.220474l-19.086609 0z" fill-rule="evenodd"/><path fill="#000000" fill-opacity="0.0" d="m153.40836 32.60905l19.086609 0l0 20.220474l-19.086609 0z" fill-rule="evenodd"/><path stroke="#cccccc" stroke-width="1.0" stroke-linejoin="round" stroke-linecap="butt" d="m153.40836 32.60905l19.086609 0l0 20.220474l-19.086609 0z" fill-rule="evenodd"/><path fill="#000000" fill-opacity="0.0" d="m172.49496 32.60905l19.086624 0l0 20.220474l-19.086624 0z" fill-rule="evenodd"/><path stroke="#cccccc" stroke-width="1.0" stroke-linejoin="round" stroke-linecap="butt" d="m172.49496 32.60905l19.086624 0l0 20.220474l-19.086624 0z" fill-rule="evenodd"/></g></svg>