<svg version="1.1" viewBox="0.0 0.0 85.03937007874016 56.69291338582677" fill="none" stroke="none" stroke-linecap="square" stroke-miterlimit="10" xmlns:xlink="http://www.w3.org/1999/xlink" xmlns="http://www.w3.org/2000/svg"><clipPath id="p.0"><path d="m0 0l85.03937 0l0 56.692913l-85.03937 0l0 -56.692913z" clip-rule="nonzero"/></clipPath><g clip-path="url(#p.0)"><path fill="#000000" fill-opacity="0.0" d="m0 0l85.03937 0l0 56.692913l-85.03937 0z" fill-rule="evenodd"/><path fill="#000000" d="m28.347113 9.301837l0 0c0 -5.1372623 4.164572 -9.301837 9.301836 -9.301837l37.20735 0l0 0c2.4669952 0 4.8329544 0.9800122 6.5773926 2.724445c1.7444305 1.7444327 2.7244415 4.1103916 2.7244415 6.5773916l0 38.089237c0 5.1372643 -4.1645737 9.301838 -9.301834 9.301838l-37.20735 0c-5.1372643 0 -9.301836 -4.1645737 -9.301836 -9.301838z" fill-rule="evenodd"/><path fill="#000000" fill-opacity="0.0" d="m56.69357 28.341843l28.346455 0l0 28.31496l-28.346455 0z" fill-rule="evenodd"/><path stroke="#cccccc" stroke-width="1.0" stroke-linejoin="round" stroke-linecap="butt" d="m56.69357 28.341843l28.346455 0l0 28.31496l-28.346455 0z" fill-rule="evenodd"/><path fill="#000000" d="m28.347113 0.0475895l28.346457 0l0 56.598427l-28.346457 0z" fill-rule="evenodd"/><path fill="#000000" d="m0 9.301837l0 0c0 -5.1372623 4.1645746 -9.301837 9.301837 -9.301837l37.207348 0l0 0c2.4670029 0 4.832958 0.9800122 6.5773926 2.724445c1.7444344 1.7444327 2.7244453 4.1103916 2.7244453 6.5773916l0 38.089237c0 5.1372643 -4.1645737 9.301838 -9.301838 9.301838l-37.207348 0c-5.1372623 0 -9.301837 -4.1645737 -9.301837 -9.301838z" fill-rule="evenodd"/><path fill="#000000" fill-opacity="0.0" d="m28.338434 0.0475895l28.346457 0l0 28.31496l-28.346457 0z" fill-rule="evenodd"/><path stroke="#cccccc" stroke-width="1.0" stroke-linejoin="round" stroke-linecap="butt" d="m28.338434 0.0475895l28.346457 0l0 28.31496l-28.346457 0z" fill-rule="evenodd"/><path fill="#000000" fill-opacity="0.0" d="m28.338434 28.341843l28.346457 0l0 28.31496l-28.346457 0z" fill-rule="evenodd"/><path stroke="#cccccc" stroke-width="1.0" stroke-linejoin="round" stroke-linecap="butt" d="m28.338434 28.341843l28.346457 0l0 28.31496l-28.346457 0z" fill-rule="evenodd"/><path fill="#000000" fill-opacity="0.0" d="m6.551181E-4 0.0475895l28.346458 0l0 28.31496l-28.346458 0z" fill-rule="evenodd"/><path stroke="#cccccc" stroke-width="1.0" stroke-linejoin="round" stroke-linecap="butt" d="m6.551181E-4 0.0475895l28.346458 0l0 28.31496l-28.346458 0z" fill-rule="evenodd"/><path fill="#000000" fill-opacity="0.0" d="m6.551181E-4 28.341843l28.346458 0l0 28.31496l-28.346458 0z" fill-rule="evenodd"/><path stroke="#cccccc" stroke-width="1.0" stroke-linejoin="round" stroke-linecap="butt" d="m6.551181E-4 28.341843l28.346458 0l0 28.31496l-28.346458 0z" fill-rule="evenodd"/><path fill="#000000" fill-opacity="0.0" d="m56.69357 0.0475895l28.346455 0l0 28.31496l-28.346455 0z" fill-rule="evenodd"/><path stroke="#cccccc" stroke-width="1.0" stroke-linejoin="round" stroke-linecap="butt" d="m56.69357 0.0475895l28.346455 0l0 28.31496l-28.346455 0z" fill-rule="evenodd"/><path fill="#000000" fill-opacity="0.0" d="m6.551181E-4 0.0475895l85.03937 0l0 56.692913l-85.03937 0z" fill-rule="evenodd"/></g></svg>