<svg version="1.1" viewBox="0.0 0.0 85.03937007874016 56.69291338582677" fill="none" stroke="none" stroke-linecap="square" stroke-miterlimit="10" xmlns:xlink="http://www.w3.org/1999/xlink" xmlns="http://www.w3.org/2000/svg"><clipPath id="p.0"><path d="m0 0l85.03937 0l0 56.692913l-85.03937 0l0 -56.692913z" clip-rule="nonzero"/></clipPath><g clip-path="url(#p.0)"><path fill="#000000" fill-opacity="0.0" d="m0 0l85.03937 0l0 56.692913l-85.03937 0z" fill-rule="evenodd"/><path fill="#ffffff" d="m14.5798855 28.39299l0 0c0 -15.629224 12.669989 -28.299212 28.299212 -28.299212c15.629223 0 28.29921 12.669989 28.29921 28.299212c0 15.629223 -12.669987 28.299213 -28.29921 28.299213c-15.629223 0 -28.299212 -12.669991 -28.299212 -28.299213z" fill-rule="evenodd"/><path fill="#cbcbcb" d="m30.865034 19.92943c0 -1.6280441 1.3197918 -2.947836 2.947836 -2.947836c1.6280441 0 2.947834 1.3197918 2.947834 2.947836c0 1.6280441 -1.3197899 2.947834 -2.947834 2.947834c-1.6280441 0 -2.947836 -1.3197899 -2.947836 -2.947834m18.13246 0c0 -1.6280441 1.3197899 -2.947836 2.947834 -2.947836c1.6280441 0 2.947834 1.3197918 2.947834 2.947836c0 1.6280441 -1.3197899 2.947834 -2.947834 2.947834c-1.6280441 0 -2.947834 -1.3197899 -2.947834 -2.947834" fill-rule="evenodd"/><path fill="#000000" fill-opacity="0.0" d="m27.54074 40.734467q15.338358 10.5341 30.640894 0" fill-rule="evenodd"/><path fill="#000000" fill-opacity="0.0" d="m14.5798855 28.39299l0 0c0 -15.629224 12.669989 -28.299212 28.299212 -28.299212c15.629223 0 28.29921 12.669989 28.29921 28.299212c0 15.629223 -12.669987 28.299213 -28.29921 28.299213c-15.629223 0 -28.299212 -12.669991 -28.299212 -28.299213z" fill-rule="evenodd"/><path stroke="#000000" stroke-width="1.0" stroke-linejoin="round" stroke-linecap="butt" d="m30.865034 19.92943c0 -1.6280441 1.3197918 -2.947836 2.947836 -2.947836c1.6280441 0 2.947834 1.3197918 2.947834 2.947836c0 1.6280441 -1.3197899 2.947834 -2.947834 2.947834c-1.6280441 0 -2.947836 -1.3197899 -2.947836 -2.947834m18.13246 0c0 -1.6280441 1.3197899 -2.947836 2.947834 -2.947836c1.6280441 0 2.947834 1.3197918 2.947834 2.947836c0 1.6280441 -1.3197899 2.947834 -2.947834 2.947834c-1.6280441 0 -2.947834 -1.3197899 -2.947834 -2.947834" fill-rule="evenodd"/><path stroke="#000000" stroke-width="1.0" stroke-linejoin="round" stroke-linecap="butt" d="m27.54074 40.734467q15.338358 10.5341 30.640894 0" fill-rule="evenodd"/><path stroke="#000000" stroke-width="1.0" stroke-linejoin="round" stroke-linecap="butt" d="m14.5798855 28.39299l0 0c0 -15.629224 12.669989 -28.299212 28.299212 -28.299212c15.629223 0 28.29921 12.669989 28.29921 28.299212c0 15.629223 -12.669987 28.299213 -28.29921 28.299213c-15.629223 0 -28.299212 -12.669991 -28.299212 -28.299213z" fill-rule="evenodd"/><path fill="#000000" fill-opacity="0.0" d="m28.337778 0l28.346457 0l0 28.31496l-28.346457 0z" fill-rule="evenodd"/><path stroke="#cccccc" stroke-width="1.0" stroke-linejoin="round" stroke-linecap="butt" d="m28.337778 0l28.346457 0l0 28.31496l-28.346457 0z" fill-rule="evenodd"/><path fill="#000000" fill-opacity="0.0" d="m28.337778 28.294252l28.346457 0l0 28.314962l-28.346457 0z" fill-rule="evenodd"/><path stroke="#cccccc" stroke-width="1.0" stroke-linejoin="round" stroke-linecap="butt" d="m28.337778 28.294252l28.346457 0l0 28.314962l-28.346457 0z" fill-rule="evenodd"/><path fill="#000000" fill-opacity="0.0" d="m0 28.294252l28.346457 0l0 28.314962l-28.346457 0z" fill-rule="evenodd"/><path stroke="#cccccc" stroke-width="1.0" stroke-linejoin="round" stroke-linecap="butt" d="m0 28.294252l28.346457 0l0 28.314962l-28.346457 0z" fill-rule="evenodd"/><path fill="#000000" fill-opacity="0.0" d="m0 0l28.346457 0l0 28.31496l-28.346457 0z" fill-rule="evenodd"/><path stroke="#cccccc" stroke-width="1.0" stroke-linejoin="round" stroke-linecap="butt" d="m0 0l28.346457 0l0 28.31496l-28.346457 0z" fill-rule="evenodd"/><path fill="#000000" fill-opacity="0.0" d="m56.692913 0l28.346455 0l0 28.31496l-28.346455 0z" fill-rule="evenodd"/><path stroke="#cccccc" stroke-width="1.0" stroke-linejoin="round" stroke-linecap="butt" d="m56.692913 0l28.346455 0l0 28.31496l-28.346455 0z" fill-rule="evenodd"/><path fill="#000000" fill-opacity="0.0" d="m56.692913 28.294252l28.346455 0l0 28.314962l-28.346455 0z" fill-rule="evenodd"/><path stroke="#cccccc" stroke-width="1.0" stroke-linejoin="round" stroke-linecap="butt" d="m56.692913 28.294252l28.346455 0l0 28.314962l-28.346455 0z" fill-rule="evenodd"/><path fill="#000000" fill-opacity="0.0" d="m0 0l85.03937 0l0 56.692913l-85.03937 0z" fill-rule="evenodd"/></g></svg>