<svg version="1.1" viewBox="0.0 0.0 102.4251968503937 103.18110236220473" fill="none" stroke="none" stroke-linecap="square" stroke-miterlimit="10" xmlns:xlink="http://www.w3.org/1999/xlink" xmlns="http://www.w3.org/2000/svg"><clipPath id="p.0"><path d="m0 0l102.42519 0l0 103.1811l-102.42519 0l0 -103.1811z" clip-rule="nonzero"/></clipPath><g clip-path="url(#p.0)"><path fill="#000000" fill-opacity="0.0" d="m0 0l102.42519 0l0 103.1811l-102.42519 0z" fill-rule="evenodd"/><path fill="#ffffff" d="m0 51.212597l0 0c0 -28.283936 22.928661 -51.212597 51.212597 -51.212597c28.28394 0 51.212597 22.928661 51.212597 51.212597c0 28.28394 -22.928658 51.212597 -51.212597 51.212597c-28.283936 0 -51.212597 -22.928658 -51.212597 -51.212597z" fill-rule="evenodd"/><path fill="#cbcbcb" d="m29.470953 35.896236c0 -2.9462433 2.388403 -5.3346443 5.334646 -5.3346443c2.9462433 0 5.3346443 2.388401 5.3346443 5.3346443c0 2.9462433 -2.388401 5.334648 -5.3346443 5.334648c-2.9462433 0 -5.334646 -2.3884048 -5.334646 -5.334648m32.813995 0c0 -2.9462433 2.3884048 -5.3346443 5.334648 -5.3346443c2.9462433 0 5.334648 2.388401 5.334648 5.3346443c0 2.9462433 -2.3884048 5.334648 -5.334648 5.334648c-2.9462433 0 -5.334648 -2.3884048 -5.334648 -5.334648" fill-rule="evenodd"/><path fill="#000000" fill-opacity="0.0" d="m23.455034 73.54675q27.757563 19.063377 55.450302 0" fill-rule="evenodd"/><path fill="#000000" fill-opacity="0.0" d="m0 51.212597l0 0c0 -28.283936 22.928661 -51.212597 51.212597 -51.212597c28.28394 0 51.212597 22.928661 51.212597 51.212597c0 28.28394 -22.928658 51.212597 -51.212597 51.212597c-28.283936 0 -51.212597 -22.928658 -51.212597 -51.212597z" fill-rule="evenodd"/><path stroke="#000000" stroke-width="1.0" stroke-linejoin="round" stroke-linecap="butt" d="m29.470953 35.896236c0 -2.9462433 2.388403 -5.3346443 5.334646 -5.3346443c2.9462433 0 5.3346443 2.388401 5.3346443 5.3346443c0 2.9462433 -2.388401 5.334648 -5.3346443 5.334648c-2.9462433 0 -5.334646 -2.3884048 -5.334646 -5.334648m32.813995 0c0 -2.9462433 2.3884048 -5.3346443 5.334648 -5.3346443c2.9462433 0 5.334648 2.388401 5.334648 5.3346443c0 2.9462433 -2.3884048 5.334648 -5.334648 5.334648c-2.9462433 0 -5.334648 -2.3884048 -5.334648 -5.334648" fill-rule="evenodd"/><path stroke="#000000" stroke-width="1.0" stroke-linejoin="round" stroke-linecap="butt" d="m23.455034 73.54675q27.757563 19.063377 55.450302 0" fill-rule="evenodd"/><path stroke="#000000" stroke-width="1.0" stroke-linejoin="round" stroke-linecap="butt" d="m0 51.212597l0 0c0 -28.283936 22.928661 -51.212597 51.212597 -51.212597c28.28394 0 51.212597 22.928661 51.212597 51.212597c0 28.28394 -22.928658 51.212597 -51.212597 51.212597c-28.283936 0 -51.212597 -22.928658 -51.212597 -51.212597z" fill-rule="evenodd"/><path fill="#000000" fill-opacity="0.0" d="m0.09581785 52.049477l51.212597 0l0 51.2126l-51.212597 0z" fill-rule="evenodd"/><path stroke="#cccccc" stroke-width="1.0" stroke-linejoin="round" stroke-linecap="butt" d="m0.09581785 52.049477l51.212597 0l0 51.2126l-51.212597 0z" fill-rule="evenodd"/><path fill="#000000" fill-opacity="0.0" d="m51.308414 52.049477l51.212597 0l0 51.2126l-51.212597 0z" fill-rule="evenodd"/><path stroke="#cccccc" stroke-width="1.0" stroke-linejoin="round" stroke-linecap="butt" d="m51.308414 52.049477l51.212597 0l0 51.2126l-51.212597 0z" fill-rule="evenodd"/><path fill="#000000" fill-opacity="0.0" d="m0.09581785 0.83687824l51.212597 0l0 51.212597l-51.212597 0z" fill-rule="evenodd"/><path stroke="#cccccc" stroke-width="1.0" stroke-linejoin="round" stroke-linecap="butt" d="m0.09581785 0.83687824l51.212597 0l0 51.212597l-51.212597 0z" fill-rule="evenodd"/><path fill="#000000" fill-opacity="0.0" d="m51.308414 0.83687824l51.212597 0l0 51.212597l-51.212597 0z" fill-rule="evenodd"/><path stroke="#cccccc" stroke-width="1.0" stroke-linejoin="round" stroke-linecap="butt" d="m51.308414 0.83687824l51.212597 0l0 51.212597l-51.212597 0z" fill-rule="evenodd"/><path fill="#000000" fill-opacity="0.0" d="m0.0017790026 0.9175554l102.4252 0l0 102.42519l-102.4252 0z" fill-rule="evenodd"/><path fill="#ffffff" d="m44.540546 37.63015l13.347656 0l0 28.800003l-13.347656 0l0 -28.800003z" fill-rule="nonzero"/><path fill="#000000" fill-opacity="0.0" d="m44.540546 38.94359l13.347656 0l0 27.597656l-13.347656 0l0 -27.597656z" fill-rule="nonzero"/><path fill="#000000" d="m45.446796 56.10765l3.1875 -0.390625q0.15625 1.21875 0.8125 1.875q0.671875 0.640625 1.625 0.640625q1.015625 0 1.703125 -0.765625q0.703125 -0.78125 0.703125 -2.09375q0 -1.25 -0.671875 -1.96875q-0.65625 -0.734375 -1.625 -0.734375q-0.625 0 -1.5 0.25l0.359375 -2.6875q1.328125 0.046875 2.03125 -0.5625q0.703125 -0.625 0.703125 -1.640625q0 -0.875 -0.515625 -1.390625q-0.515625 -0.515625 -1.359375 -0.515625q-0.84375 0 -1.453125 0.59375q-0.59375 0.578125 -0.71875 1.703125l-3.03125 -0.515625q0.3125 -1.5625 0.953125 -2.484375q0.640625 -0.9375 1.78125 -1.46875q1.140625 -0.53125 2.5625 -0.53125q2.421875 0 3.890625 1.546875q1.203125 1.265625 1.203125 2.859375q0 2.265625 -2.46875 3.609375q1.46875 0.3125 2.34375 1.421875q0.890625 1.09375 0.890625 2.65625q0 2.265625 -1.65625 3.859375q-1.640625 1.59375 -4.109375 1.59375q-2.328125 0 -3.859375 -1.34375q-1.53125 -1.34375 -1.78125 -3.515625z" fill-rule="nonzero"/><path fill="#000000" fill-opacity="0.0" d="m57.888203 38.94359l0 0l0 27.597656l0 0l0 -27.597656z" fill-rule="nonzero"/></g></svg>