<svg version="1.1" viewBox="0.0 0.0 103.93700787401575 102.4251968503937" fill="none" stroke="none" stroke-linecap="square" stroke-miterlimit="10" xmlns:xlink="http://www.w3.org/1999/xlink" xmlns="http://www.w3.org/2000/svg"><clipPath id="p.0"><path d="m0 0l103.937004 0l0 102.42519l-103.937004 0l0 -102.42519z" clip-rule="nonzero"/></clipPath><g clip-path="url(#p.0)"><path fill="#000000" fill-opacity="0.0" d="m0 0l103.937004 0l0 102.42519l-103.937004 0z" fill-rule="evenodd"/><path fill="#000000" fill-opacity="0.0" d="m1.5586058 6.87664E-4l51.2126 0l0 51.2126l-51.2126 0z" fill-rule="evenodd"/><path stroke="#cccccc" stroke-width="1.0" stroke-linejoin="round" stroke-linecap="butt" d="m1.5586058 6.87664E-4l51.2126 0l0 51.2126l-51.2126 0z" fill-rule="evenodd"/><path fill="#000000" d="m1.6240585 17.070866l0 0c0 -9.4279785 7.642887 -17.070866 17.070868 -17.070866l68.28346 0l0 0c4.527481 0 8.869522 1.7985325 12.0709305 4.999941c3.2014084 3.2014084 4.999939 7.5434504 4.999939 12.070925l0 68.47244c0 9.4279785 -7.6428833 17.07087 -17.07087 17.07087l-68.28346 0c-9.427979 0 -17.070868 -7.642891 -17.070868 -17.07087z" fill-rule="evenodd"/><path fill="#000000" fill-opacity="0.0" d="m1.5586058 51.213287l51.2126 0l0 51.2126l-51.2126 0z" fill-rule="evenodd"/><path stroke="#cccccc" stroke-width="1.0" stroke-linejoin="round" stroke-linecap="butt" d="m1.5586058 51.213287l51.2126 0l0 51.2126l-51.2126 0z" fill-rule="evenodd"/><path fill="#000000" fill-opacity="0.0" d="m52.771206 6.87664E-4l51.212597 0l0 51.2126l-51.212597 0z" fill-rule="evenodd"/><path stroke="#cccccc" stroke-width="1.0" stroke-linejoin="round" stroke-linecap="butt" d="m52.771206 6.87664E-4l51.212597 0l0 51.2126l-51.212597 0z" fill-rule="evenodd"/><path fill="#000000" fill-opacity="0.0" d="m52.771206 51.213287l51.212597 0l0 51.2126l-51.212597 0z" fill-rule="evenodd"/><path stroke="#cccccc" stroke-width="1.0" stroke-linejoin="round" stroke-linecap="butt" d="m52.771206 51.213287l51.212597 0l0 51.2126l-51.212597 0z" fill-rule="evenodd"/><path fill="#000000" fill-opacity="0.0" d="m0 0.09973753l102.42519 0l0 102.42519l-102.42519 0z" fill-rule="evenodd"/><path fill="#000000" d="m44.53877 36.812332l13.347656 0l0 28.800003l-13.347656 0l0 -28.800003z" fill-rule="nonzero"/><path fill="#000000" fill-opacity="0.0" d="m44.53877 38.12577l13.347656 0l0 27.597656l-13.347656 0l0 -27.597656z" fill-rule="nonzero"/><path fill="#ffffff" d="m52.023144 59.852333l0 -3.453125l-7.03125 0l0 -2.890625l7.453125 -10.90625l2.765625 0l0 10.890625l2.125 0l0 2.90625l-2.125 0l0 3.453125l-3.1875 0zm0 -6.359375l0 -5.859375l-3.953125 5.859375l3.953125 0z" fill-rule="nonzero"/><path fill="#000000" fill-opacity="0.0" d="m57.886425 38.12577l0 0l0 27.597656l0 0l0 -27.597656z" fill-rule="nonzero"/></g></svg>