<svg version="1.1" viewBox="0.0 0.0 102.4251968503937 102.4251968503937" fill="none" stroke="none" stroke-linecap="square" stroke-miterlimit="10" xmlns:xlink="http://www.w3.org/1999/xlink" xmlns="http://www.w3.org/2000/svg"><clipPath id="p.0"><path d="m0 0l102.42519 0l0 102.42519l-102.42519 0l0 -102.42519z" clip-rule="nonzero"/></clipPath><g clip-path="url(#p.0)"><path fill="#000000" fill-opacity="0.0" d="m0 0l102.42519 0l0 102.42519l-102.42519 0z" fill-rule="evenodd"/><path fill="#000000" fill-opacity="0.0" d="m51.212597 51.212597l51.212597 0l0 51.212597l-51.212597 0z" fill-rule="evenodd"/><path stroke="#cccccc" stroke-width="1.0" stroke-linejoin="round" stroke-linecap="butt" d="m51.212597 51.212597l51.212597 0l0 51.212597l-51.212597 0z" fill-rule="evenodd"/><path fill="#000000" fill-opacity="0.0" d="m0 0.08067717l102.42519 0l0 102.42519l-102.42519 0z" fill-rule="evenodd"/><path fill="#000000" d="m44.53877 36.793274l13.347656 0l0 28.799995l-13.347656 0l0 -28.799995z" fill-rule="nonzero"/><path fill="#000000" fill-opacity="0.0" d="m44.53877 38.10671l13.347656 0l0 27.59766l-13.347656 0l0 -27.59766z" fill-rule="nonzero"/><path fill="#ffffff" d="m53.991894 59.83327l-3.296875 0l0 -12.40625q-1.8125 1.6875 -4.25 2.484375l0 -2.984375q1.28125 -0.421875 2.796875 -1.59375q1.515625 -1.1875 2.078125 -2.75l2.671875 0l0 17.25z" fill-rule="nonzero"/><path fill="#000000" fill-opacity="0.0" d="m57.886425 38.10671l0 0l0 27.59766l0 0l0 -27.59766z" fill-rule="nonzero"/><path fill="#000000" d="m9.246378 34.150024l0 0c-0.82580185 -8.261826 1.8854685 -16.440533 6.9833183 -21.065594c5.097851 -4.625061 11.688229 -4.8853397 16.974592 -0.6703911l0 0c1.8725929 -4.8037686 5.29998 -8.12044 9.245449 -8.946784c3.945469 -0.8263445 7.945606 0.9346945 10.790447 4.750437l0 0c1.5952072 -4.355405 4.7274246 -7.2816806 8.285179 -7.7404323c3.5577583 -0.45875156 7.037533 1.6149457 9.20454 5.485236l0 0c2.8819733 -4.6167183 7.46727 -6.560549 11.771797 -4.9903846c4.304535 1.5701638 7.555168 6.372307 8.345345 12.328514l0 0c3.5309067 1.3111677 6.4720764 4.64433 8.063606 9.138303c1.5915375 4.4939747 1.6772995 9.707911 0.23513794 14.294695l0 0c3.476921 6.160557 4.2902527 14.369419 2.1364899 21.56319c-2.1537628 7.1937714 -6.951042 12.291672 -12.601585 13.391251c-0.03983307 6.75161 -2.7597046 12.946808 -7.1112747 16.197693c-4.35157 3.250885 -9.655319 3.0498123 -13.866943 -0.52570343c-1.79393 8.086227 -6.8432503 14.035988 -12.966457 15.278778c-6.123211 1.2427902 -12.222607 -2.444191 -15.663029 -9.468025c-4.2172356 3.4620743 -9.277569 4.459381 -14.03949 2.7669678c-4.761919 -1.692421 -8.8243065 -5.9320145 -11.270767 -11.762413l0 0c-4.3094854 0.6865463 -8.476163 -2.3530884 -10.432124 -7.610344c-1.9559617 -5.2572556 -1.2848303 -11.612984 1.6803138 -15.912865l0 0c-3.844173 -3.080227 -5.8057017 -9.192425 -4.861726 -15.149315c0.9439757 -5.956894 4.5795474 -10.40863 9.010907 -11.033802z" fill-rule="evenodd"/><path fill="#000000" fill-opacity="0.0" d="m5.012011 60.651566l0 0c1.8140769 1.4535675 3.909761 2.1129417 6.005673 1.8895874m2.7451944 21.634148c0.90131855 -0.14359283 1.7847824 -0.44766235 2.6276073 -0.90436554m22.681387 9.899429c-0.6339264 -1.2942047 -1.1646843 -2.6771774 -1.5832291 -4.125351m30.21381 -1.6856384l0 0c0.32705688 -1.4742432 0.53897095 -2.9915543 0.6321869 -4.526619m20.345238 -11.144806c0.042404175 -7.1881332 -2.9565353 -13.769665 -7.708679 -16.91763m18.173683 -18.036053c-0.7695999 2.4476929 -1.9444656 4.619011 -3.4325027 6.343704m-4.865532 -29.777346l0 0c0.13113403 0.9884348 0.19181824 1.991725 0.18122101 2.995964m-20.29802 -10.333795l0 0c-0.7189102 1.1516418 -1.3111954 2.4385862 -1.7584152 3.8207626m-15.731464 -1.5660686l0 0c-0.38311768 1.0460272 -0.6692047 2.1529036 -0.8516693 3.2951307m-19.18452 0.90130234l0 0c1.1185913 0.89188004 2.1534424 1.965353 3.0818138 3.1968384m-27.039415 18.539263l0 0c0.113817215 1.1386948 0.2936535 2.2633476 0.5378256 3.3634377" fill-rule="evenodd"/><path fill="#000000" fill-opacity="0.0" d="m0 0l51.212597 0l0 51.212597l-51.212597 0z" fill-rule="evenodd"/><path stroke="#cccccc" stroke-width="1.0" stroke-linejoin="round" stroke-linecap="butt" d="m0 0l51.212597 0l0 51.212597l-51.212597 0z" fill-rule="evenodd"/><path fill="#000000" fill-opacity="0.0" d="m0 51.212597l51.212597 0l0 51.212597l-51.212597 0z" fill-rule="evenodd"/><path stroke="#cccccc" stroke-width="1.0" stroke-linejoin="round" stroke-linecap="butt" d="m0 51.212597l51.212597 0l0 51.212597l-51.212597 0z" fill-rule="evenodd"/><path fill="#000000" fill-opacity="0.0" d="m51.212597 0l51.212597 0l0 51.212597l-51.212597 0z" fill-rule="evenodd"/><path stroke="#cccccc" stroke-width="1.0" stroke-linejoin="round" stroke-linecap="butt" d="m51.212597 0l51.212597 0l0 51.212597l-51.212597 0z" fill-rule="evenodd"/></g></svg>