<svg version="1.1" viewBox="0.0 0.0 85.03937007874016 56.69291338582677" fill="none" stroke="none" stroke-linecap="square" stroke-miterlimit="10" xmlns:xlink="http://www.w3.org/1999/xlink" xmlns="http://www.w3.org/2000/svg"><clipPath id="p.0"><path d="m0 0l85.03937 0l0 56.692913l-85.03937 0l0 -56.692913z" clip-rule="nonzero"/></clipPath><g clip-path="url(#p.0)"><path fill="#000000" fill-opacity="0.0" d="m0 0l85.03937 0l0 56.692913l-85.03937 0z" fill-rule="evenodd"/><path fill="#000000" fill-opacity="0.0" d="m56.693043 28.294252l28.346455 0l0 28.314962l-28.346455 0z" fill-rule="evenodd"/><path stroke="#cccccc" stroke-width="1.0" stroke-linejoin="round" stroke-linecap="butt" d="m56.693043 28.294252l28.346455 0l0 28.314962l-28.346455 0z" fill-rule="evenodd"/><path fill="#000000" fill-opacity="0.0" d="m0 0.044584777l85.03937 0l0 56.598423l-85.03937 0z" fill-rule="evenodd"/><path fill="#000000" d="m7.6771684 18.872679l0 0c-0.6856537 -4.565818 1.5654845 -9.0857 5.7981725 -11.641695c4.23269 -2.555995 9.704606 -2.6998358 14.093816 -0.3704853l0 0c1.5547924 -2.654756 4.4005165 -4.4876823 7.6763954 -4.944353c3.275879 -0.45667136 6.597149 0.51654994 8.95919 2.6252828l0 0c1.324482 -2.4069724 3.9251251 -4.0241504 6.8790894 -4.277675c2.9539642 -0.2535246 5.8431892 0.8924841 7.6424255 3.0313628l0 0c2.3928719 -2.5513847 6.1999893 -3.6256237 9.773994 -2.7578878c3.5740051 0.86773586 6.272972 3.5215938 6.9290466 6.8132343l0 0c2.9316711 0.7246041 5.3736954 2.5666432 6.6951294 5.0501943c1.3214264 2.483551 1.3926392 5.3649826 0.19522858 7.899826l0 0c2.8868484 3.4045715 3.562149 7.94112 1.7739029 11.916689c-1.7882385 3.9755669 -5.77137 6.7928696 -10.462959 7.400543c-0.033065796 3.7312126 -2.2913513 7.15493 -5.9044113 8.951496c-3.61306 1.7965698 -8.016701 1.6854515 -11.513569 -0.29052353c-1.4894829 4.468773 -5.6818733 7.756855 -10.765907 8.443672c-5.08403 0.68681335 -10.148296 -1.3507576 -13.004837 -5.2324142c-3.5015259 1.9132805 -7.703064 2.4644356 -11.656834 1.5291367c-3.9537697 -0.9352989 -7.326724 -3.2782707 -9.357993 -6.5003815l0 0c-3.5781183 0.3794098 -7.0376644 -1.300415 -8.661677 -4.205784c-1.6240134 -2.9053726 -1.0667806 -6.4178047 1.3951461 -8.79409l0 0c-3.1917744 -1.7022591 -4.8204103 -5.080105 -4.0366373 -8.372124c0.7837726 -3.292019 3.8023477 -5.752228 7.4816566 -6.097725z" fill-rule="evenodd"/><path fill="#000000" fill-opacity="0.0" d="m4.1614203 33.5185l0 0c1.506208 0.80329895 3.2462316 1.1676941 4.986444 1.0442619m2.2793045 11.955902c0.7483549 -0.07935333 1.481885 -0.24739456 2.181674 -0.4997902m18.832106 5.470825c-0.5263443 -0.71523285 -0.96702766 -1.4795189 -1.314539 -2.2798386m25.086191 -0.9315529l0 0c0.27155685 -0.81472397 0.44749832 -1.6532478 0.5248985 -2.5015907m16.892422 -6.159069c0.035209656 -3.9724503 -2.454773 -7.6096687 -6.400429 -9.349361m15.089409 -9.967451c-0.6389847 1.3526955 -1.6144714 2.5526524 -2.849968 3.505787m-4.039795 -16.456161l0 0c0.10887146 0.5462489 0.15926361 1.100707 0.15045929 1.6556911m-16.853218 -5.710872l0 0c-0.59690094 0.6364436 -1.0886688 1.347661 -1.4599953 2.1115074m-13.061657 -0.8654728l0 0c-0.31809616 0.57807684 -0.55563354 1.1897812 -0.70713043 1.8210225m-15.928696 0.4980955l0 0c0.9287529 0.49288893 1.7879772 1.086134 2.558796 1.7667027m-22.45053 10.245543l0 0c0.09450102 0.6292896 0.24381733 1.2508183 0.44655085 1.8587723" fill-rule="evenodd"/><path fill="#000000" fill-opacity="0.0" d="m28.33791 0l28.346455 0l0 28.31496l-28.346455 0z" fill-rule="evenodd"/><path stroke="#cccccc" stroke-width="1.0" stroke-linejoin="round" stroke-linecap="butt" d="m28.33791 0l28.346455 0l0 28.31496l-28.346455 0z" fill-rule="evenodd"/><path fill="#000000" fill-opacity="0.0" d="m28.33791 28.294252l28.346455 0l0 28.314962l-28.346455 0z" fill-rule="evenodd"/><path stroke="#cccccc" stroke-width="1.0" stroke-linejoin="round" stroke-linecap="butt" d="m28.33791 28.294252l28.346455 0l0 28.314962l-28.346455 0z" fill-rule="evenodd"/><path fill="#000000" fill-opacity="0.0" d="m1.3044619E-4 0l28.346457 0l0 28.31496l-28.346457 0z" fill-rule="evenodd"/><path stroke="#cccccc" stroke-width="1.0" stroke-linejoin="round" stroke-linecap="butt" d="m1.3044619E-4 0l28.346457 0l0 28.31496l-28.346457 0z" fill-rule="evenodd"/><path fill="#000000" fill-opacity="0.0" d="m1.3044619E-4 28.294252l28.346457 0l0 28.314962l-28.346457 0z" fill-rule="evenodd"/><path stroke="#cccccc" stroke-width="1.0" stroke-linejoin="round" stroke-linecap="butt" d="m1.3044619E-4 28.294252l28.346457 0l0 28.314962l-28.346457 0z" fill-rule="evenodd"/><path fill="#000000" fill-opacity="0.0" d="m56.693043 0l28.346455 0l0 28.31496l-28.346455 0z" fill-rule="evenodd"/><path stroke="#cccccc" stroke-width="1.0" stroke-linejoin="round" stroke-linecap="butt" d="m56.693043 0l28.346455 0l0 28.31496l-28.346455 0z" fill-rule="evenodd"/></g></svg>