<svg version="1.1" viewBox="0.0 0.0 650.0787401574803 435.7795275590551" fill="none" stroke="none" stroke-linecap="square" stroke-miterlimit="10" xmlns:xlink="http://www.w3.org/1999/xlink" xmlns="http://www.w3.org/2000/svg"><clipPath id="p.0"><path d="m0 0l650.07874 0l0 435.77954l-650.07874 0l0 -435.77954z" clip-rule="nonzero"/></clipPath><g clip-path="url(#p.0)"><path fill="#000000" fill-opacity="0.0" d="m0 0l650.07874 0l0 435.77954l-650.07874 0z" fill-rule="evenodd"/><path fill="#ffffff" d="m447.6957 97.90551l191.02365 0l0 37.79528l-191.02365 0z" fill-rule="evenodd"/><path stroke="#000000" stroke-width="1.0" stroke-linejoin="round" stroke-linecap="butt" d="m447.6957 97.90551l191.02365 0l0 37.79528l-191.02365 0z" fill-rule="evenodd"/><path fill="#ffffff" d="m3.824331 97.90551l191.02362 0l0 37.79528l-191.02362 0z" fill-rule="evenodd"/><path stroke="#000000" stroke-width="1.0" stroke-linejoin="round" stroke-linecap="butt" d="m3.824331 97.90551l191.02362 0l0 37.79528l-191.02362 0z" fill-rule="evenodd"/><path fill="#000000" fill-opacity="0.0" d="m-11.293779 48.70866l200.94489 0l0 49.19685l-200.94489 0z" fill-rule="evenodd"/><path fill="#000000" d="m3.5187206 80.748665l0 -10.0625l-3.34375 0l0 -1.484375l3.34375 -0.109375l0 -0.984375q0 -2.140625 1.140625 -3.4375q1.140625 -1.2968788 3.5625 -1.2968788q1.71875 0 3.359375 0.6718788l-0.453125 1.484375q-0.71875 -0.328125 -1.34375 -0.4375q-0.609375 -0.109375 -1.375 -0.109375q-1.578125 0 -2.265625 0.8125q-0.6875 0.796875 -0.6875 2.234375l0 1.0625l4.890625 0l0 1.59375l-4.890625 0l0 10.0625l-1.9375 0zm10.821838 0l0 -11.65625l1.625 0l0.171875 1.984375l0.09375 0q0.921875 -0.984375 1.96875 -1.625q1.0625 -0.65625 2.421875 -0.65625q2.09375 0 3.0625 1.1875q0.96875 1.1875 0.96875 3.515625l0 7.25l-1.96875 0l0 -6.984375q0 -1.65625 -0.625 -2.453125q-0.609375 -0.8125 -2.0625 -0.8125q-0.515625 0 -0.96875 0.140625q-0.4375 0.125 -0.875 0.390625q-0.4375 0.265625 -0.890625 0.671875q-0.453125 0.390625 -0.953125 0.90625l0 8.140625l-1.96875 0zm14.134338 0l0 -15.75l2.203125 0l5.046877 9.890625l1.515625 3.265625l0.046875 0q-0.046875 -1.171875 -0.15625 -2.453125q-0.109375 -1.296875 -0.109375 -2.53125l0 -8.171875l1.921875 0l0 15.75l-2.21875 0l-5.031252 -9.890625l-1.515625 -3.265625l-0.046875 0q0.046875 1.234375 0.15625 2.46875q0.109375 1.234375 0.109375 2.453125l0 8.234375l-1.921875 0zm18.337465 0.28125q-0.8125 0 -1.546875 -0.234375q-0.71875 -0.21875 -1.265625 -0.640625q-0.53125 -0.421875 -0.84375 -1.03125q-0.3125 -0.609375 -0.3125 -1.40625q0 -0.984375 0.46875 -1.703125q0.46875 -0.734375 1.484375 -1.265625q1.03125 -0.53125 2.640625 -0.859375q1.609375 -0.34375 3.859375 -0.53125q-0.015625 -0.59375 -0.1875 -1.125q-0.171875 -0.53125 -0.53125 -0.921875q-0.359375 -0.40625 -0.953125 -0.640625q-0.578125 -0.234375 -1.421875 -0.234375q-1.15625 0 -2.21875 0.4375q-1.046875 0.4375 -1.859375 0.953125l-0.765625 -1.34375q0.421875 -0.296875 1.015625 -0.59375q0.59375 -0.296875 1.25 -0.53125q0.65625 -0.25 1.390625 -0.40625q0.75 -0.15625 1.515625 -0.15625q2.40625 0 3.5625 1.3125q1.171875 1.296875 1.171875 3.484375l0 7.15625l-1.609375 0l-0.171875 -1.578125l-0.0625 0q-0.984375 0.765625 -2.171875 1.3125q-1.1875 0.546875 -2.4375 0.546875zm0.53125 -1.578125q1.0 0 1.96875 -0.4375q0.984375 -0.453125 1.984375 -1.296875l0 -3.0625q-1.875 0.140625 -3.140625 0.40625q-1.25 0.265625 -2.015625 0.640625q-0.75 0.359375 -1.0625 0.828125q-0.3125 0.46875 -0.3125 1.046875q0 0.515625 0.21875 0.859375q0.21875 0.34375 0.5625 0.578125q0.34375 0.21875 0.8125 0.328125q0.46875 0.109375 0.984375 0.109375zm9.353088 1.296875l0 -11.65625l1.578125 0l0.171875 1.53125l0.046875 0q0.453125 -0.8125 1.046875 -1.3125q0.609375 -0.515625 1.625 -0.515625q1.703125 0 2.203125 2.015625q0.5 -0.9375 1.109375 -1.46875q0.625 -0.546875 1.625 -0.546875q1.234375 0 1.90625 0.921875q0.6875 0.921875 0.6875 2.671875l0 8.359375l-1.96875 0l0 -8.203125q0 -2.046875 -1.25 -2.046875q-0.625 0 -1.015625 0.453125q-0.375 0.4375 -0.859375 1.34375l0 8.453125l-1.8125 0l0 -8.203125q0 -1.015625 -0.28125 -1.53125q-0.28125 -0.515625 -0.921875 -0.515625q-0.625 0 -1.0625 0.453125q-0.421875 0.4375 -0.859375 1.34375l0 8.453125l-1.96875 0zm20.931213 0.28125q-1.328125 0 -2.46875 -0.40625q-1.140625 -0.40625 -2.0 -1.1875q-0.84375 -0.796875 -1.34375 -1.9375q-0.484375 -1.140625 -0.484375 -2.609375q0 -1.40625 0.484375 -2.53125q0.5 -1.140625 1.328125 -1.921875q0.828125 -0.796875 1.890625 -1.21875q1.078125 -0.421875 2.25 -0.421875q1.25 0 2.25 0.40625q1.0 0.390625 1.671875 1.109375q0.6875 0.71875 1.046875 1.734375q0.359375 1.0 0.359375 2.21875q0 0.34375 -0.03125 0.65625q-0.015625 0.3125 -0.0625 0.546875l-9.1875 0q0.1875 2.0 1.453125 3.0q1.265625 0.984375 3.078125 0.984375q1.0625 0 1.90625 -0.296875q0.859375 -0.296875 1.65625 -0.8125l0.71875 1.296875q-0.875 0.578125 -1.984375 0.984375q-1.109375 0.40625 -2.53125 0.40625zm-0.296875 -10.671875q-0.71875 0 -1.375 0.25q-0.65625 0.234375 -1.1875 0.671875q-0.53125 0.4375 -0.890625 1.109375q-0.359375 0.671875 -0.5 1.546875l7.4375 0q-0.125 -1.796875 -1.046875 -2.6875q-0.921875 -0.890625 -2.4375 -0.890625zm17.165588 14.609375q-2.5 -1.9375 -3.953125 -4.671875q-1.453125 -2.734375 -1.453125 -6.21875q0 -3.484375 1.453125 -6.21875q1.453125 -2.734375 3.953125 -4.671879l1.078125 1.0000038q-2.421875 2.046875 -3.5625 4.453125q-1.140625 2.390625 -1.140625 5.4375q0 3.046875 1.140625 5.453125q1.140625 2.390625 3.5625 4.4375l-1.078125 1.0zm9.915588 -3.9375q-0.8125 0 -1.546875 -0.234375q-0.71875 -0.21875 -1.265625 -0.640625q-0.53125 -0.421875 -0.84375 -1.03125q-0.3125 -0.609375 -0.3125 -1.40625q0 -0.984375 0.46875 -1.703125q0.46875 -0.734375 1.484375 -1.265625q1.03125 -0.53125 2.640625 -0.859375q1.609375 -0.34375 3.859375 -0.53125q-0.015625 -0.59375 -0.1875 -1.125q-0.171875 -0.53125 -0.53125 -0.921875q-0.359375 -0.40625 -0.953125 -0.640625q-0.578125 -0.234375 -1.421875 -0.234375q-1.15625 0 -2.21875 0.4375q-1.046875 0.4375 -1.859375 0.953125l-0.765625 -1.34375q0.421875 -0.296875 1.015625 -0.59375q0.59375 -0.296875 1.25 -0.53125q0.65625 -0.25 1.390625 -0.40625q0.75 -0.15625 1.515625 -0.15625q2.40625 0 3.5625 1.3125q1.171875 1.296875 1.171875 3.484375l0 7.15625l-1.609375 0l-0.171875 -1.578125l-0.0625 0q-0.984375 0.765625 -2.171875 1.3125q-1.1875 0.546875 -2.4375 0.546875zm0.53125 -1.578125q1.0 0 1.96875 -0.4375q0.984375 -0.453125 1.984375 -1.296875l0 -3.0625q-1.875 0.140625 -3.140625 0.40625q-1.25 0.265625 -2.015625 0.640625q-0.75 0.359375 -1.0625 0.828125q-0.3125 0.46875 -0.3125 1.046875q0 0.515625 0.21875 0.859375q0.21875 0.34375 0.5625 0.578125q0.34375 0.21875 0.8125 0.328125q0.46875 0.109375 0.984375 0.109375zm11.978088 5.515625l-1.09375 -1.0q2.4375 -2.046875 3.5625 -4.4375q1.140625 -2.40625 1.140625 -5.453125q0 -3.046875 -1.140625 -5.4375q-1.125 -2.40625 -3.5625 -4.453125l1.09375 -1.0000038q2.484375 1.9375038 3.9375 4.671879q1.453125 2.734375 1.453125 6.21875q0 3.484375 -1.453125 6.21875q-1.453125 2.734375 -3.9375 4.671875zm35.362427 -0.578125q-1.125 0 -1.96875 -0.15625q-0.828125 -0.140625 -1.390625 -0.515625q-0.546875 -0.359375 -0.8125 -0.96875q-0.265625 -0.609375 -0.265625 -1.546875q0 -0.640625 0.03125 -1.234375q0.046875 -0.59375 0.078125 -1.140625q0.03125 -0.546875 0.0625 -1.09375q0.046875 -0.5625 0.046875 -1.15625q0 -0.359375 -0.140625 -0.6875q-0.140625 -0.328125 -0.53125 -0.59375q-0.390625 -0.265625 -1.078125 -0.421875q-0.671875 -0.171875 -1.734375 -0.171875l0 -1.25q1.0625 0 1.734375 -0.15625q0.6875 -0.171875 1.078125 -0.4375q0.390625 -0.265625 0.53125 -0.59375q0.140625 -0.328125 0.140625 -0.6875q0 -1.140625 -0.109375 -2.25q-0.109375 -1.125 -0.109375 -2.375q0 -0.9375 0.265625 -1.546875q0.265625 -0.609375 0.8125 -0.96875q0.5625 -0.375 1.390625 -0.5156288q0.84375 -0.15625 1.96875 -0.15625l1.46875 0l0 1.1250038l-1.25 0q-0.90625 0 -1.5 0.125q-0.578125 0.109375 -0.90625 0.375q-0.328125 0.265625 -0.453125 0.6875q-0.109375 0.421875 -0.109375 0.984375q0 1.046875 0.0625 2.140625q0.078125 1.078125 0.078125 2.203125q0 1.1875 -0.46875 1.796875q-0.46875 0.609375 -1.71875 0.828125l0 0.09375q1.25 0.21875 1.71875 0.828125q0.46875 0.609375 0.46875 1.78125q0 1.234375 -0.078125 2.25q-0.0625 1.0 -0.0625 2.109375q0 0.5625 0.109375 0.984375q0.125 0.421875 0.453125 0.6875q0.328125 0.265625 0.90625 0.375q0.59375 0.125 1.5 0.125l1.25 0l0 1.125l-1.46875 0z" fill-rule="nonzero"/><path fill="#000000" fill-opacity="0.0" d="m-11.293779 135.60106l167.1181 0l0 60.125977l-167.1181 0z" fill-rule="evenodd"/><path fill="#000000" d="m0.08122074 171.28168l0 -1.125l1.21875 0q0.9218749 0 1.4999999 -0.125q0.59375 -0.109375 0.921875 -0.375q0.34375 -0.265625 0.453125 -0.6875q0.125 -0.421875 0.125 -0.984375q0 -1.109375 -0.078125 -2.109375q-0.0625 -1.015625 -0.0625 -2.25q0 -1.171875 0.453125 -1.78125q0.46875 -0.609375 1.703125 -0.828125l0 -0.09375q-1.234375 -0.21875 -1.703125 -0.828125q-0.453125 -0.609375 -0.453125 -1.796875q0 -1.125 0.0625 -2.203125q0.078125 -1.09375 0.078125 -2.140625q0 -0.5625 -0.125 -0.984375q-0.109375 -0.421875 -0.453125 -0.6875q-0.328125 -0.265625 -0.921875 -0.375q-0.578125 -0.125 -1.4999999 -0.125l-1.21875 0l0 -1.125l1.46875 0q1.1249999 0 1.9531249 0.15625q0.828125 0.140625 1.375 0.515625q0.5625 0.359375 0.8125 0.96875q0.265625 0.609375 0.265625 1.546875q0 1.25 -0.109375 2.375q-0.09375 1.109375 -0.09375 2.25q0 0.359375 0.140625 0.6875q0.140625 0.328125 0.515625 0.59375q0.390625 0.265625 1.078125 0.4375q0.6875 0.15625 1.734375 0.15625l0 1.25q-1.046875 0 -1.734375 0.171875q-0.6875 0.15625 -1.078125 0.421875q-0.375 0.265625 -0.515625 0.59375q-0.140625 0.328125 -0.140625 0.6875q0 0.59375 0.03125 1.15625q0.03125 0.546875 0.0625 1.09375q0.046875 0.546875 0.078125 1.140625q0.03125 0.59375 0.03125 1.234375q0 0.9375 -0.265625 1.546875q-0.25 0.609375 -0.8125 0.96875q-0.546875 0.375 -1.375 0.515625q-0.828125 0.15625 -1.9531249 0.15625l-1.46875 0z" fill-rule="nonzero"/><path fill="#ffcb21" d="m524.3087 41.213497l0 0c0 -10.436878 8.460754 -18.897638 18.897644 -18.897638l0 0c5.011963 0 9.818665 1.9909954 13.362671 5.5349903c3.5439453 3.543993 5.534973 8.350681 5.534973 13.362648l0 0c0 10.436874 -8.460754 18.897636 -18.897644 18.897636l0 0c-10.43689 0 -18.897644 -8.460762 -18.897644 -18.897636z" fill-rule="evenodd"/><path fill="#ffcb21" d="m524.3087 192.39375l0 0c0 -10.436874 8.460754 -18.897644 18.897644 -18.897644l0 0c5.011963 0 9.818665 1.9909973 13.362671 5.5349884c3.5439453 3.5440063 5.534973 8.350693 5.534973 13.362656l0 0c0 10.436874 -8.460754 18.897644 -18.897644 18.897644l0 0c-10.43689 0 -18.897644 -8.46077 -18.897644 -18.897644z" fill-rule="evenodd"/><path fill="#000000" fill-opacity="0.0" d="m543.20636 60.111134l0 113.38583" fill-rule="evenodd"/><path stroke="#000000" stroke-width="1.0" stroke-linejoin="round" stroke-linecap="butt" stroke-dasharray="4.0,3.0" d="m543.20636 60.111134l0 107.38583" fill-rule="evenodd"/><path fill="#000000" stroke="#000000" stroke-width="1.0" stroke-linecap="butt" d="m541.5546 167.49696l1.6517334 4.538101l1.6517334 -4.538101z" fill-rule="evenodd"/><path fill="#000000" fill-opacity="0.0" d="m-11.398767 0l389.13385 0l0 49.19685l-389.13385 0z" fill-rule="evenodd"/><path fill="#000000" d="m2.7106075 32.04l0 -9.140625l-3.140625 0l0 -2.625l3.140625 -0.140625l0 -0.3125q0 -1.03125 0.3125 -1.921875q0.3125 -0.890625 0.953125 -1.546875q0.65625 -0.65625 1.65625 -1.03125q1.015625 -0.390625 2.40625 -0.390625q1.03125 0 1.921875 0.1875q0.90625 0.1875 1.6875 0.453125l-0.671875 2.59375q-1.1875 -0.453125 -2.5 -0.453125q-1.15625 0 -1.703125 0.515625q-0.53125 0.5 -0.53125 1.578125l0 0.328125l4.109375 0l0 2.765625l-4.109375 0l0 9.140625l-3.53125 0zm11.024963 0l0 -11.90625l2.875 0l0.265625 1.59375l0.09375 0q0.765625 -0.78125 1.765625 -1.328125q1.0 -0.546875 2.34375 -0.546875q2.015625 0 2.9375 1.296875q0.9375 1.296875 0.9375 3.546875l0 7.34375l-3.515625 0l0 -6.890625q0 -1.203125 -0.390625 -1.75q-0.390625 -0.546875 -1.359375 -0.546875q-0.734375 0 -1.28125 0.3125q-0.53125 0.3125 -1.15625 0.9375l0 7.9375l-3.515625 0zm14.243713 0l0 -15.640625l3.625 0l3.296877 7.765625l1.34375 3.453125l0.09375 0q-0.125 -1.234375 -0.3125 -2.765625q-0.1875 -1.53125 -0.1875 -2.921875l0 -5.53125l3.375 0l0 15.640625l-3.625 0l-3.28125 -7.796875l-1.3437519 -3.40625l-0.09375 0q0.109375 1.296875 0.296875 2.78125q0.203125 1.484375 0.203125 2.875l0 5.546875l-3.390625 0zm18.19684 0.28125q-0.90625 0 -1.625 -0.28125q-0.71875 -0.265625 -1.234375 -0.75q-0.5 -0.5 -0.78125 -1.140625q-0.265625 -0.65625 -0.265625 -1.421875q0 -1.0 0.421875 -1.75q0.4375 -0.765625 1.375 -1.296875q0.953125 -0.53125 2.4375 -0.84375q1.5 -0.328125 3.609375 -0.453125q-0.09375 -0.8125 -0.71875 -1.265625q-0.609375 -0.46875 -1.828125 -0.46875q-0.859375 0 -1.734375 0.3125q-0.875 0.296875 -1.890625 0.796875l-1.25 -2.296875q1.234375 -0.703125 2.625 -1.15625q1.40625 -0.453125 2.953125 -0.453125q2.484375 0 3.921875 1.328125q1.453125 1.3125 1.453125 4.046875l0 6.8125l-2.890625 0l-0.25 -1.34375l-0.109375 0q-0.90625 0.703125 -1.984375 1.171875q-1.078125 0.453125 -2.234375 0.453125zm1.125 -2.734375q0.796875 0 1.484375 -0.3125q0.703125 -0.328125 1.328125 -0.8125l0 -1.96875q-1.328125 0.078125 -2.1875 0.25q-0.859375 0.15625 -1.375 0.421875q-0.5 0.25 -0.703125 0.59375q-0.203125 0.328125 -0.203125 0.703125q0 0.578125 0.4375 0.859375q0.453125 0.265625 1.21875 0.265625zm8.743713 2.453125l0 -11.90625l2.65625 0l0.25 1.46875l0.09375 0q0.328125 -0.71875 0.921875 -1.234375q0.609375 -0.515625 1.640625 -0.515625q0.765625 0 1.296875 0.5q0.546875 0.484375 0.765625 1.4375q0.34375 -0.8125 0.96875 -1.375q0.640625 -0.5625 1.671875 -0.5625q1.296875 0 1.984375 1.015625q0.6875 1.015625 0.6875 2.8125l0 8.359375l-3.359375 0l0 -8.109375q0 -0.546875 -0.15625 -0.8125q-0.140625 -0.265625 -0.5 -0.265625q-0.328125 0 -0.578125 0.296875q-0.234375 0.28125 -0.5 0.84375l0 8.046875l-2.765625 0l0 -8.109375q0 -1.078125 -0.671875 -1.078125q-0.328125 0 -0.578125 0.296875q-0.234375 0.28125 -0.46875 0.84375l0 8.046875l-3.359375 0zm21.478088 0.28125q-1.390625 0 -2.609375 -0.40625q-1.203125 -0.421875 -2.09375 -1.21875q-0.890625 -0.796875 -1.40625 -1.953125q-0.5 -1.171875 -0.5 -2.65625q0 -1.46875 0.515625 -2.625q0.53125 -1.171875 1.390625 -1.96875q0.859375 -0.8125 1.96875 -1.21875q1.125 -0.421875 2.328125 -0.421875q1.359375 0 2.40625 0.4375q1.0625 0.421875 1.765625 1.1875q0.71875 0.765625 1.078125 1.8125q0.359375 1.046875 0.359375 2.265625q0 0.484375 -0.0625 0.9375q-0.046875 0.4375 -0.109375 0.65625l-8.109375 0q0.265625 1.296875 1.171875 1.890625q0.921875 0.59375 2.390625 0.59375q0.8125 0 1.546875 -0.203125q0.734375 -0.21875 1.515625 -0.625l1.171875 2.125q-1.03125 0.65625 -2.28125 1.03125q-1.234375 0.359375 -2.4375 0.359375zm-0.296875 -9.78125q-1.046875 0 -1.765625 0.546875q-0.703125 0.546875 -0.96875 1.6875l5.09375 0q-0.265625 -2.234375 -2.359375 -2.234375zm16.181213 13.796875q-2.34375 -2.09375 -3.703125 -4.828125q-1.359375 -2.734375 -1.359375 -6.140625q0 -3.40625 1.359375 -6.140625q1.359375 -2.734375 3.703125 -4.828125l1.96875 1.5625q-2.140625 2.09375 -3.109375 4.34375q-0.96875 2.234375 -0.96875 5.0625q0 1.421875 0.234375 2.6875q0.25 1.25 0.734375 2.40625q0.5 1.140625 1.265625 2.203125q0.765625 1.078125 1.84375 2.109375l-1.96875 1.5625zm10.368713 -4.015625q-0.90625 0 -1.625 -0.28125q-0.71875 -0.265625 -1.234375 -0.75q-0.5 -0.5 -0.78125 -1.140625q-0.265625 -0.65625 -0.265625 -1.421875q0 -1.0 0.421875 -1.75q0.4375 -0.765625 1.375 -1.296875q0.953125 -0.53125 2.4375 -0.84375q1.5 -0.328125 3.609375 -0.453125q-0.09375 -0.8125 -0.71875 -1.265625q-0.609375 -0.46875 -1.828125 -0.46875q-0.859375 0 -1.734375 0.3125q-0.875 0.296875 -1.890625 0.796875l-1.25 -2.296875q1.234375 -0.703125 2.625 -1.15625q1.40625 -0.453125 2.953125 -0.453125q2.484375 0 3.921875 1.328125q1.453125 1.3125 1.453125 4.046875l0 6.8125l-2.890625 0l-0.25 -1.34375l-0.109375 0q-0.90625 0.703125 -1.984375 1.171875q-1.078125 0.453125 -2.234375 0.453125zm1.125 -2.734375q0.796875 0 1.484375 -0.3125q0.703125 -0.328125 1.328125 -0.8125l0 -1.96875q-1.328125 0.078125 -2.1875 0.25q-0.859375 0.15625 -1.375 0.421875q-0.5 0.25 -0.703125 0.59375q-0.203125 0.328125 -0.203125 0.703125q0 0.578125 0.4375 0.859375q0.453125 0.265625 1.21875 0.265625zm12.884338 6.75l-1.953125 -1.5625q1.078125 -1.03125 1.84375 -2.109375q0.765625 -1.0625 1.25 -2.203125q0.5 -1.15625 0.734375 -2.40625q0.25 -1.265625 0.25 -2.6875q0 -2.828125 -0.984375 -5.0625q-0.96875 -2.25 -3.09375 -4.34375l1.953125 -1.5625q2.359375 2.09375 3.71875 4.828125q1.359375 2.734375 1.359375 6.140625q0 3.40625 -1.359375 6.140625q-1.359375 2.734375 -3.71875 4.828125zm33.878044 -0.65625q-2.3125 0 -3.390625 -0.734375q-1.078125 -0.71875 -1.078125 -2.671875q0 -0.640625 0.03125 -1.140625q0.03125 -0.515625 0.078125 -0.984375q0.0625 -0.46875 0.09375 -0.921875q0.03125 -0.46875 0.03125 -1.046875q0 -0.3125 -0.140625 -0.625q-0.140625 -0.3125 -0.53125 -0.5625q-0.375 -0.25 -1.015625 -0.40625q-0.640625 -0.15625 -1.59375 -0.1875l0 -2.0625q0.953125 -0.03125 1.59375 -0.1875q0.640625 -0.15625 1.015625 -0.40625q0.390625 -0.25 0.53125 -0.5625q0.140625 -0.3125 0.140625 -0.625q0 -0.546875 -0.03125 -1.015625q-0.03125 -0.484375 -0.09375 -0.953125q-0.046875 -0.46875 -0.078125 -0.984375q-0.03125 -0.515625 -0.03125 -1.140625q0 -1.953125 1.078125 -2.671875q1.078125 -0.734375 3.390625 -0.734375l1.84375 0l0 1.859375l-0.984375 0q-0.75 0 -1.234375 0.078125q-0.46875 0.078125 -0.734375 0.265625q-0.265625 0.1875 -0.375 0.515625q-0.109375 0.328125 -0.109375 0.828125q0 0.953125 0.0625 1.890625q0.0625 0.9375 0.0625 2.015625q0 1.375 -0.5625 1.984375q-0.546875 0.609375 -1.84375 0.828125l0 0.09375q1.296875 0.21875 1.84375 0.828125q0.5625 0.609375 0.5625 1.984375q0 1.09375 -0.0625 2.015625q-0.0625 0.90625 -0.0625 1.890625q0 0.5 0.109375 0.828125q0.109375 0.328125 0.375 0.515625q0.265625 0.1875 0.734375 0.265625q0.484375 0.078125 1.234375 0.078125l0.984375 0l0 1.859375l-1.84375 0zm21.518677 -3.640625l0 -11.90625l2.875 0l0.296875 2.59375l0.078125 0q0.875 -1.46875 2.125 -2.171875q1.25 -0.703125 2.6875 -0.703125q0.796875 0 1.28125 0.125q0.5 0.109375 1.03125 0.34375l-0.71875 2.953125q-0.5625 -0.15625 -1.015625 -0.234375q-0.4375 -0.09375 -1.109375 -0.09375q-1.09375 0 -2.171875 0.65625q-1.0625 0.640625 -1.828125 2.25l0 6.1875l-3.53125 0zm19.540588 0.28125q-1.390625 0 -2.609375 -0.40625q-1.203125 -0.421875 -2.09375 -1.21875q-0.890625 -0.796875 -1.40625 -1.953125q-0.5 -1.171875 -0.5 -2.65625q0 -1.46875 0.515625 -2.625q0.53125 -1.171875 1.390625 -1.96875q0.859375 -0.8125 1.96875 -1.21875q1.125 -0.421875 2.328125 -0.421875q1.359375 0 2.40625 0.4375q1.0625 0.421875 1.765625 1.1875q0.71875 0.765625 1.078125 1.8125q0.359375 1.046875 0.359375 2.265625q0 0.484375 -0.0625 0.9375q-0.046875 0.4375 -0.109375 0.65625l-8.109375 0q0.265625 1.296875 1.171875 1.890625q0.921875 0.59375 2.390625 0.59375q0.8125 0 1.546875 -0.203125q0.734375 -0.21875 1.515625 -0.625l1.171875 2.125q-1.03125 0.65625 -2.28125 1.03125q-1.234375 0.359375 -2.4375 0.359375zm-0.296875 -9.78125q-1.046875 0 -1.765625 0.546875q-0.703125 0.546875 -0.96875 1.6875l5.09375 0q-0.265625 -2.234375 -2.359375 -2.234375zm16.087463 9.78125q-1.421875 0 -2.40625 -0.375q-0.984375 -0.390625 -1.59375 -1.0625q-0.609375 -0.6875 -0.875 -1.640625q-0.265625 -0.96875 -0.265625 -2.140625l0 -4.203125l-3.0 0l0 -2.625l3.171875 -0.140625l0.453125 -3.640625l2.90625 0l0 3.640625l5.046875 0l0 2.765625l-5.046875 0l0 4.171875q0 1.375 0.59375 1.9375q0.609375 0.5625 1.921875 0.5625q0.671875 0 1.234375 -0.125q0.578125 -0.125 1.125 -0.3125l0.625 2.546875q-0.796875 0.234375 -1.75 0.4375q-0.9375 0.203125 -2.140625 0.203125zm10.446838 0q-2.046875 0 -2.96875 -1.28125q-0.90625 -1.296875 -0.90625 -3.5625l0 -7.34375l3.53125 0l0 6.890625q0 1.203125 0.359375 1.75q0.359375 0.546875 1.375 0.546875q0.671875 0 1.1875 -0.28125q0.515625 -0.28125 1.140625 -1.078125l0 -7.828125l3.515625 0l0 11.90625l-2.875 0l-0.265625 -1.703125l-0.09375 0q-0.796875 0.90625 -1.765625 1.453125q-0.953125 0.53125 -2.234375 0.53125zm11.821838 -0.28125l0 -11.90625l2.875 0l0.296875 2.59375l0.078125 0q0.875 -1.46875 2.125 -2.171875q1.25 -0.703125 2.6875 -0.703125q0.796875 0 1.28125 0.125q0.5 0.109375 1.03125 0.34375l-0.71875 2.953125q-0.5625 -0.15625 -1.015625 -0.234375q-0.4375 -0.09375 -1.109375 -0.09375q-1.09375 0 -2.171875 0.65625q-1.0625 0.640625 -1.828125 2.25l0 6.1875l-3.53125 0zm13.353088 0l0 -11.90625l2.875 0l0.265625 1.59375l0.09375 0q0.765625 -0.78125 1.765625 -1.328125q1.0 -0.546875 2.34375 -0.546875q2.015625 0 2.9375 1.296875q0.9375 1.296875 0.9375 3.546875l0 7.34375l-3.515625 0l0 -6.890625q0 -1.203125 -0.390625 -1.75q-0.390625 -0.546875 -1.359375 -0.546875q-0.734375 0 -1.28125 0.3125q-0.53125 0.3125 -1.15625 0.9375l0 7.9375l-3.515625 0zm32.44055 0.28125q-0.90625 0 -1.625 -0.28125q-0.71875 -0.265625 -1.234375 -0.75q-0.5 -0.5 -0.78125 -1.140625q-0.265625 -0.65625 -0.265625 -1.421875q0 -1.0 0.421875 -1.75q0.4375 -0.765625 1.375 -1.296875q0.953125 -0.53125 2.4375 -0.84375q1.5 -0.328125 3.609375 -0.453125q-0.09375 -0.8125 -0.71875 -1.265625q-0.609375 -0.46875 -1.828125 -0.46875q-0.859375 0 -1.734375 0.3125q-0.875 0.296875 -1.890625 0.796875l-1.25 -2.296875q1.234375 -0.703125 2.625 -1.15625q1.40625 -0.453125 2.953125 -0.453125q2.484375 0 3.921875 1.328125q1.453125 1.3125 1.453125 4.046875l0 6.8125l-2.890625 0l-0.25 -1.34375l-0.109375 0q-0.90625 0.703125 -1.984375 1.171875q-1.078125 0.453125 -2.234375 0.453125zm1.125 -2.734375q0.796875 0 1.484375 -0.3125q0.703125 -0.328125 1.328125 -0.8125l0 -1.96875q-1.328125 0.078125 -2.1875 0.25q-0.859375 0.15625 -1.375 0.421875q-0.5 0.25 -0.703125 0.59375q-0.203125 0.328125 -0.203125 0.703125q0 0.578125 0.4375 0.859375q0.453125 0.265625 1.21875 0.265625zm15.103088 -5.265625q-1.25 0 -2.015625 -0.796875q-0.765625 -0.796875 -0.765625 -2.0q0 -0.609375 0.203125 -1.125q0.203125 -0.515625 0.5625 -0.890625q0.359375 -0.390625 0.875 -0.609375q0.515625 -0.21875 1.140625 -0.21875q0.625 0 1.140625 0.21875q0.515625 0.21875 0.875 0.609375q0.359375 0.375 0.5625 0.890625q0.203125 0.515625 0.203125 1.125q0 1.203125 -0.765625 2.0q-0.765625 0.796875 -2.015625 0.796875zm-1.953125 12.921875l-0.875 -2.0625q1.59375 -0.546875 2.375 -1.421875q0.78125 -0.875 0.734375 -1.984375q-0.09375 0.03125 -0.265625 0.03125q-0.5 0 -0.96875 -0.15625q-0.46875 -0.15625 -0.828125 -0.46875q-0.359375 -0.3125 -0.578125 -0.765625q-0.21875 -0.46875 -0.21875 -1.0625q0 -1.125 0.78125 -1.796875q0.78125 -0.671875 1.90625 -0.671875q1.5 0 2.234375 1.09375q0.75 1.09375 0.75 3.03125q0 2.296875 -1.28125 3.875q-1.265625 1.59375 -3.765625 2.359375zm26.065552 -1.5625l0 -1.859375l0.984375 0q0.75 0 1.21875 -0.078125q0.46875 -0.078125 0.734375 -0.265625q0.265625 -0.1875 0.359375 -0.515625q0.109375 -0.328125 0.109375 -0.828125q0 -0.984375 -0.046875 -1.890625q-0.046875 -0.921875 -0.046875 -2.015625q0 -1.375 0.546875 -1.984375q0.5625 -0.609375 1.859375 -0.828125l0 -0.09375q-1.296875 -0.21875 -1.859375 -0.828125q-0.546875 -0.609375 -0.546875 -1.984375q0 -1.078125 0.046875 -2.015625q0.046875 -0.9375 0.046875 -1.890625q0 -0.5 -0.109375 -0.828125q-0.09375 -0.328125 -0.359375 -0.515625q-0.265625 -0.1875 -0.734375 -0.265625q-0.46875 -0.078125 -1.21875 -0.078125l-0.984375 0l0 -1.859375l1.859375 0q2.296875 0 3.375 0.734375q1.078125 0.71875 1.078125 2.671875q0 0.625 -0.03125 1.140625q-0.03125 0.515625 -0.09375 0.984375q-0.0625 0.46875 -0.109375 0.953125q-0.03125 0.46875 -0.03125 1.015625q0 0.3125 0.140625 0.625q0.15625 0.3125 0.53125 0.5625q0.390625 0.25 1.015625 0.40625q0.640625 0.15625 1.625 0.1875l0 2.0625q-0.984375 0.03125 -1.625 0.1875q-0.625 0.15625 -1.015625 0.40625q-0.375 0.25 -0.53125 0.5625q-0.140625 0.3125 -0.140625 0.625q0 0.578125 0.03125 1.046875q0.046875 0.453125 0.109375 0.921875q0.0625 0.46875 0.09375 0.984375q0.03125 0.5 0.03125 1.140625q0 1.953125 -1.078125 2.671875q-1.078125 0.734375 -3.375 0.734375l-1.859375 0z" fill-rule="nonzero"/><path fill="#000000" fill-opacity="0.0" d="m245.13142 92.20473l200.94487 0l0 49.196854l-200.94487 0z" fill-rule="evenodd"/><path fill="#000000" d="m327.6891 124.24473l0 -10.0625l-3.34375 0l0 -1.484375l3.34375 -0.109375l0 -0.984375q0 -2.140625 1.140625 -3.4375q1.140625 -1.296875 3.5625 -1.296875q1.71875 0 3.359375 0.671875l-0.453125 1.484375q-0.71875 -0.328125 -1.34375 -0.4375q-0.609375 -0.109375 -1.375 -0.109375q-1.578125 0 -2.265625 0.8125q-0.6875 0.796875 -0.6875 2.234375l0 1.0625l4.890625 0l0 1.59375l-4.890625 0l0 10.0625l-1.9375 0zm10.821838 0l0 -11.65625l1.625 0l0.171875 1.984375l0.09375 0q0.921875 -0.984375 1.96875 -1.625q1.0625 -0.65625 2.421875 -0.65625q2.09375 0 3.0625 1.1875q0.96875 1.1875 0.96875 3.515625l0 7.25l-1.96875 0l0 -6.984375q0 -1.65625 -0.625 -2.453125q-0.609375 -0.8125 -2.0625 -0.8125q-0.515625 0 -0.96875 0.140625q-0.4375 0.125 -0.875 0.390625q-0.4375 0.265625 -0.890625 0.671875q-0.453125 0.390625 -0.953125 0.90625l0 8.140625l-1.96875 0zm14.134338 0l0 -15.75l2.203125 0l5.046875 9.890625l1.515625 3.265625l0.046875 0q-0.046875 -1.171875 -0.15625 -2.453125q-0.109375 -1.296875 -0.109375 -2.53125l0 -8.171875l1.921875 0l0 15.75l-2.21875 0l-5.03125 -9.890625l-1.515625 -3.265625l-0.046875 0q0.046875 1.234375 0.15625 2.46875q0.109375 1.234375 0.109375 2.453125l0 8.234375l-1.921875 0zm18.337463 0.28125q-0.8125 0 -1.546875 -0.234375q-0.71875 -0.21875 -1.265625 -0.640625q-0.53125 -0.421875 -0.84375 -1.03125q-0.3125 -0.609375 -0.3125 -1.40625q0 -0.984375 0.46875 -1.703125q0.46875 -0.734375 1.484375 -1.265625q1.03125 -0.53125 2.640625 -0.859375q1.609375 -0.34375 3.859375 -0.53125q-0.015625 -0.59375 -0.1875 -1.125q-0.171875 -0.53125 -0.53125 -0.921875q-0.359375 -0.40625 -0.953125 -0.640625q-0.578125 -0.234375 -1.421875 -0.234375q-1.15625 0 -2.21875 0.4375q-1.046875 0.4375 -1.859375 0.953125l-0.765625 -1.34375q0.421875 -0.296875 1.015625 -0.59375q0.59375 -0.296875 1.25 -0.53125q0.65625 -0.25 1.390625 -0.40625q0.75 -0.15625 1.515625 -0.15625q2.40625 0 3.5625 1.3125q1.171875 1.296875 1.171875 3.484375l0 7.15625l-1.609375 0l-0.171875 -1.578125l-0.0625 0q-0.984375 0.765625 -2.171875 1.3125q-1.1875 0.546875 -2.4375 0.546875zm0.53125 -1.578125q1.0 0 1.96875 -0.4375q0.984375 -0.453125 1.984375 -1.296875l0 -3.0625q-1.875 0.140625 -3.140625 0.40625q-1.25 0.265625 -2.015625 0.640625q-0.75 0.359375 -1.0625 0.828125q-0.3125 0.46875 -0.3125 1.046875q0 0.515625 0.21875 0.859375q0.21875 0.34375 0.5625 0.578125q0.34375 0.21875 0.8125 0.328125q0.46875 0.109375 0.984375 0.109375zm9.353088 1.296875l0 -11.65625l1.578125 0l0.171875 1.53125l0.046875 0q0.453125 -0.8125 1.046875 -1.3125q0.609375 -0.515625 1.625 -0.515625q1.703125 0 2.203125 2.015625q0.5 -0.9375 1.109375 -1.46875q0.625 -0.546875 1.625 -0.546875q1.234375 0 1.90625 0.921875q0.6875 0.921875 0.6875 2.671875l0 8.359375l-1.96875 0l0 -8.203125q0 -2.046875 -1.25 -2.046875q-0.625 0 -1.015625 0.453125q-0.375 0.4375 -0.859375 1.34375l0 8.453125l-1.8125 0l0 -8.203125q0 -1.015625 -0.28125 -1.53125q-0.28125 -0.515625 -0.921875 -0.515625q-0.625 0 -1.0625 0.453125q-0.421875 0.4375 -0.859375 1.34375l0 8.453125l-1.96875 0zm20.931213 0.28125q-1.328125 0 -2.46875 -0.40625q-1.140625 -0.40625 -2.0 -1.1875q-0.84375 -0.796875 -1.34375 -1.9375q-0.484375 -1.140625 -0.484375 -2.609375q0 -1.40625 0.484375 -2.53125q0.5 -1.140625 1.328125 -1.921875q0.828125 -0.796875 1.890625 -1.21875q1.078125 -0.421875 2.25 -0.421875q1.25 0 2.25 0.40625q1.0 0.390625 1.671875 1.109375q0.6875 0.71875 1.046875 1.734375q0.359375 1.0 0.359375 2.21875q0 0.34375 -0.03125 0.65625q-0.015625 0.3125 -0.0625 0.546875l-9.1875 0q0.1875 2.0 1.453125 3.0q1.265625 0.984375 3.078125 0.984375q1.0625 0 1.90625 -0.296875q0.859375 -0.296875 1.65625 -0.8125l0.71875 1.296875q-0.875 0.578125 -1.984375 0.984375q-1.109375 0.40625 -2.53125 0.40625zm-0.296875 -10.671875q-0.71875 0 -1.375 0.25q-0.65625 0.234375 -1.1875 0.671875q-0.53125 0.4375 -0.890625 1.109375q-0.359375 0.671875 -0.5 1.546875l7.4375 0q-0.125 -1.796875 -1.046875 -2.6875q-0.921875 -0.890625 -2.4375 -0.890625zm17.165588 14.609367q-2.5 -1.9374924 -3.953125 -4.6718674q-1.453125 -2.734375 -1.453125 -6.21875q0 -3.484375 1.453125 -6.21875q1.453125 -2.734375 3.953125 -4.671875l1.078125 1.0q-2.421875 2.046875 -3.5625 4.453125q-1.140625 2.390625 -1.140625 5.4375q0 3.046875 1.140625 5.453125q1.140625 2.390625 3.5625 4.4375l-1.078125 0.9999924zm8.024963 0l-1.09375 -0.9999924q2.4375 -2.046875 3.5625 -4.4375q1.140625 -2.40625 1.140625 -5.453125q0 -3.046875 -1.140625 -5.4375q-1.125 -2.40625 -3.5625 -4.453125l1.09375 -1.0q2.484375 1.9375 3.9375 4.671875q1.453125 2.734375 1.453125 6.21875q0 3.484375 -1.453125 6.21875q-1.453125 2.734375 -3.9375 4.6718674z" fill-rule="nonzero"/><path fill="#ffffff" d="m447.6957 337.90552l191.02365 0l0 37.795258l-191.02365 0z" fill-rule="evenodd"/><path stroke="#000000" stroke-width="1.0" stroke-linejoin="round" stroke-linecap="butt" d="m447.6957 337.90552l191.02365 0l0 37.795258l-191.02365 0z" fill-rule="evenodd"/><path fill="#ffffff" d="m3.824331 337.90552l191.02362 0l0 37.795258l-191.02362 0z" fill-rule="evenodd"/><path stroke="#000000" stroke-width="1.0" stroke-linejoin="round" stroke-linecap="butt" d="m3.824331 337.90552l191.02362 0l0 37.795258l-191.02362 0z" fill-rule="evenodd"/><path fill="#000000" fill-opacity="0.0" d="m-11.293779 288.70865l200.94489 0l0 49.19687l-200.94489 0z" fill-rule="evenodd"/><path fill="#000000" d="m3.5187206 320.74866l0 -10.0625l-3.34375 0l0 -1.484375l3.34375 -0.109375l0 -0.984375q0 -2.140625 1.140625 -3.4375q1.140625 -1.296875 3.5625 -1.296875q1.71875 0 3.359375 0.671875l-0.453125 1.484375q-0.71875 -0.328125 -1.34375 -0.4375q-0.609375 -0.109375 -1.375 -0.109375q-1.578125 0 -2.265625 0.8125q-0.6875 0.796875 -0.6875 2.234375l0 1.0625l4.890625 0l0 1.59375l-4.890625 0l0 10.0625l-1.9375 0zm10.821838 0l0 -11.65625l1.625 0l0.171875 1.984375l0.09375 0q0.921875 -0.984375 1.96875 -1.625q1.0625 -0.65625 2.421875 -0.65625q2.09375 0 3.0625 1.1875q0.96875 1.1875 0.96875 3.515625l0 7.25l-1.96875 0l0 -6.984375q0 -1.65625 -0.625 -2.453125q-0.609375 -0.8125 -2.0625 -0.8125q-0.515625 0 -0.96875 0.140625q-0.4375 0.125 -0.875 0.390625q-0.4375 0.265625 -0.890625 0.671875q-0.453125 0.390625 -0.953125 0.90625l0 8.140625l-1.96875 0zm14.134338 0l0 -15.75l2.203125 0l5.046877 9.890625l1.515625 3.265625l0.046875 0q-0.046875 -1.171875 -0.15625 -2.453125q-0.109375 -1.296875 -0.109375 -2.53125l0 -8.171875l1.921875 0l0 15.75l-2.21875 0l-5.031252 -9.890625l-1.515625 -3.265625l-0.046875 0q0.046875 1.234375 0.15625 2.46875q0.109375 1.234375 0.109375 2.453125l0 8.234375l-1.921875 0zm18.337465 0.28125q-0.8125 0 -1.546875 -0.234375q-0.71875 -0.21875 -1.265625 -0.640625q-0.53125 -0.421875 -0.84375 -1.03125q-0.3125 -0.609375 -0.3125 -1.40625q0 -0.984375 0.46875 -1.703125q0.46875 -0.734375 1.484375 -1.265625q1.03125 -0.53125 2.640625 -0.859375q1.609375 -0.34375 3.859375 -0.53125q-0.015625 -0.59375 -0.1875 -1.125q-0.171875 -0.53125 -0.53125 -0.921875q-0.359375 -0.40625 -0.953125 -0.640625q-0.578125 -0.234375 -1.421875 -0.234375q-1.15625 0 -2.21875 0.4375q-1.046875 0.4375 -1.859375 0.953125l-0.765625 -1.34375q0.421875 -0.296875 1.015625 -0.59375q0.59375 -0.296875 1.25 -0.53125q0.65625 -0.25 1.390625 -0.40625q0.75 -0.15625 1.515625 -0.15625q2.40625 0 3.5625 1.3125q1.171875 1.296875 1.171875 3.484375l0 7.15625l-1.609375 0l-0.171875 -1.578125l-0.0625 0q-0.984375 0.765625 -2.171875 1.3125q-1.1875 0.546875 -2.4375 0.546875zm0.53125 -1.578125q1.0 0 1.96875 -0.4375q0.984375 -0.453125 1.984375 -1.296875l0 -3.0625q-1.875 0.140625 -3.140625 0.40625q-1.25 0.265625 -2.015625 0.640625q-0.75 0.359375 -1.0625 0.828125q-0.3125 0.46875 -0.3125 1.046875q0 0.515625 0.21875 0.859375q0.21875 0.34375 0.5625 0.578125q0.34375 0.21875 0.8125 0.328125q0.46875 0.109375 0.984375 0.109375zm9.353088 1.296875l0 -11.65625l1.578125 0l0.171875 1.53125l0.046875 0q0.453125 -0.8125 1.046875 -1.3125q0.609375 -0.515625 1.625 -0.515625q1.703125 0 2.203125 2.015625q0.5 -0.9375 1.109375 -1.46875q0.625 -0.546875 1.625 -0.546875q1.234375 0 1.90625 0.921875q0.6875 0.921875 0.6875 2.671875l0 8.359375l-1.96875 0l0 -8.203125q0 -2.046875 -1.25 -2.046875q-0.625 0 -1.015625 0.453125q-0.375 0.4375 -0.859375 1.34375l0 8.453125l-1.8125 0l0 -8.203125q0 -1.015625 -0.28125 -1.53125q-0.28125 -0.515625 -0.921875 -0.515625q-0.625 0 -1.0625 0.453125q-0.421875 0.4375 -0.859375 1.34375l0 8.453125l-1.96875 0zm20.931213 0.28125q-1.328125 0 -2.46875 -0.40625q-1.140625 -0.40625 -2.0 -1.1875q-0.84375 -0.796875 -1.34375 -1.9375q-0.484375 -1.140625 -0.484375 -2.609375q0 -1.40625 0.484375 -2.53125q0.5 -1.140625 1.328125 -1.921875q0.828125 -0.796875 1.890625 -1.21875q1.078125 -0.421875 2.25 -0.421875q1.25 0 2.25 0.40625q1.0 0.390625 1.671875 1.109375q0.6875 0.71875 1.046875 1.734375q0.359375 1.0 0.359375 2.21875q0 0.34375 -0.03125 0.65625q-0.015625 0.3125 -0.0625 0.546875l-9.1875 0q0.1875 2.0 1.453125 3.0q1.265625 0.984375 3.078125 0.984375q1.0625 0 1.90625 -0.296875q0.859375 -0.296875 1.65625 -0.8125l0.71875 1.296875q-0.875 0.578125 -1.984375 0.984375q-1.109375 0.40625 -2.53125 0.40625zm-0.296875 -10.671875q-0.71875 0 -1.375 0.25q-0.65625 0.234375 -1.1875 0.671875q-0.53125 0.4375 -0.890625 1.109375q-0.359375 0.671875 -0.5 1.546875l7.4375 0q-0.125 -1.796875 -1.046875 -2.6875q-0.921875 -0.890625 -2.4375 -0.890625zm17.165588 14.609375q-2.5 -1.9375 -3.953125 -4.671875q-1.453125 -2.734375 -1.453125 -6.21875q0 -3.484375 1.453125 -6.21875q1.453125 -2.734375 3.953125 -4.671875l1.078125 1.0q-2.421875 2.046875 -3.5625 4.453125q-1.140625 2.390625 -1.140625 5.4375q0 3.046875 1.140625 5.453125q1.140625 2.390625 3.5625 4.4375l-1.078125 1.0zm9.915588 -3.9375q-0.8125 0 -1.546875 -0.234375q-0.71875 -0.21875 -1.265625 -0.640625q-0.53125 -0.421875 -0.84375 -1.03125q-0.3125 -0.609375 -0.3125 -1.40625q0 -0.984375 0.46875 -1.703125q0.46875 -0.734375 1.484375 -1.265625q1.03125 -0.53125 2.640625 -0.859375q1.609375 -0.34375 3.859375 -0.53125q-0.015625 -0.59375 -0.1875 -1.125q-0.171875 -0.53125 -0.53125 -0.921875q-0.359375 -0.40625 -0.953125 -0.640625q-0.578125 -0.234375 -1.421875 -0.234375q-1.15625 0 -2.21875 0.4375q-1.046875 0.4375 -1.859375 0.953125l-0.765625 -1.34375q0.421875 -0.296875 1.015625 -0.59375q0.59375 -0.296875 1.25 -0.53125q0.65625 -0.25 1.390625 -0.40625q0.75 -0.15625 1.515625 -0.15625q2.40625 0 3.5625 1.3125q1.171875 1.296875 1.171875 3.484375l0 7.15625l-1.609375 0l-0.171875 -1.578125l-0.0625 0q-0.984375 0.765625 -2.171875 1.3125q-1.1875 0.546875 -2.4375 0.546875zm0.53125 -1.578125q1.0 0 1.96875 -0.4375q0.984375 -0.453125 1.984375 -1.296875l0 -3.0625q-1.875 0.140625 -3.140625 0.40625q-1.25 0.265625 -2.015625 0.640625q-0.75 0.359375 -1.0625 0.828125q-0.3125 0.46875 -0.3125 1.046875q0 0.515625 0.21875 0.859375q0.21875 0.34375 0.5625 0.578125q0.34375 0.21875 0.8125 0.328125q0.46875 0.109375 0.984375 0.109375zm11.978088 5.515625l-1.09375 -1.0q2.4375 -2.046875 3.5625 -4.4375q1.140625 -2.40625 1.140625 -5.453125q0 -3.046875 -1.140625 -5.4375q-1.125 -2.40625 -3.5625 -4.453125l1.09375 -1.0q2.484375 1.9375 3.9375 4.671875q1.453125 2.734375 1.453125 6.21875q0 3.484375 -1.453125 6.21875q-1.453125 2.734375 -3.9375 4.671875zm35.362427 -0.578125q-1.125 0 -1.96875 -0.15625q-0.828125 -0.140625 -1.390625 -0.515625q-0.546875 -0.359375 -0.8125 -0.96875q-0.265625 -0.609375 -0.265625 -1.546875q0 -0.640625 0.03125 -1.234375q0.046875 -0.59375 0.078125 -1.140625q0.03125 -0.546875 0.0625 -1.09375q0.046875 -0.5625 0.046875 -1.15625q0 -0.359375 -0.140625 -0.6875q-0.140625 -0.328125 -0.53125 -0.59375q-0.390625 -0.265625 -1.078125 -0.421875q-0.671875 -0.171875 -1.734375 -0.171875l0 -1.25q1.0625 0 1.734375 -0.15625q0.6875 -0.171875 1.078125 -0.4375q0.390625 -0.265625 0.53125 -0.59375q0.140625 -0.328125 0.140625 -0.6875q0 -1.140625 -0.109375 -2.25q-0.109375 -1.125 -0.109375 -2.375q0 -0.9375 0.265625 -1.546875q0.265625 -0.609375 0.8125 -0.96875q0.5625 -0.375 1.390625 -0.515625q0.84375 -0.15625 1.96875 -0.15625l1.46875 0l0 1.125l-1.25 0q-0.90625 0 -1.5 0.125q-0.578125 0.109375 -0.90625 0.375q-0.328125 0.265625 -0.453125 0.6875q-0.109375 0.421875 -0.109375 0.984375q0 1.046875 0.0625 2.140625q0.078125 1.078125 0.078125 2.203125q0 1.1875 -0.46875 1.796875q-0.46875 0.609375 -1.71875 0.828125l0 0.09375q1.25 0.21875 1.71875 0.828125q0.46875 0.609375 0.46875 1.78125q0 1.234375 -0.078125 2.25q-0.0625 1.0 -0.0625 2.109375q0 0.5625 0.109375 0.984375q0.125 0.421875 0.453125 0.6875q0.328125 0.265625 0.90625 0.375q0.59375 0.125 1.5 0.125l1.25 0l0 1.125l-1.46875 0z" fill-rule="nonzero"/><path fill="#000000" fill-opacity="0.0" d="m-11.293779 375.60104l167.1181 0l0 60.126007l-167.1181 0z" fill-rule="evenodd"/><path fill="#000000" d="m0.08122074 411.28168l0 -1.125l1.21875 0q0.9218749 0 1.4999999 -0.125q0.59375 -0.109375 0.921875 -0.375q0.34375 -0.265625 0.453125 -0.6875q0.125 -0.421875 0.125 -0.984375q0 -1.109375 -0.078125 -2.109375q-0.0625 -1.015625 -0.0625 -2.25q0 -1.171875 0.453125 -1.78125q0.46875 -0.609375 1.703125 -0.828125l0 -0.09375q-1.234375 -0.21875 -1.703125 -0.828125q-0.453125 -0.609375 -0.453125 -1.796875q0 -1.125 0.0625 -2.203125q0.078125 -1.09375 0.078125 -2.140625q0 -0.5625 -0.125 -0.984375q-0.109375 -0.421875 -0.453125 -0.6875q-0.328125 -0.265625 -0.921875 -0.375q-0.578125 -0.125 -1.4999999 -0.125l-1.21875 0l0 -1.125l1.46875 0q1.1249999 0 1.9531249 0.15625q0.828125 0.140625 1.375 0.515625q0.5625 0.359375 0.8125 0.96875q0.265625 0.609375 0.265625 1.546875q0 1.25 -0.109375 2.375q-0.09375 1.109375 -0.09375 2.25q0 0.359375 0.140625 0.6875q0.140625 0.328125 0.515625 0.59375q0.390625 0.265625 1.078125 0.4375q0.6875 0.15625 1.734375 0.15625l0 1.25q-1.046875 0 -1.734375 0.171875q-0.6875 0.15625 -1.078125 0.421875q-0.375 0.265625 -0.515625 0.59375q-0.140625 0.328125 -0.140625 0.6875q0 0.59375 0.03125 1.15625q0.03125 0.546875 0.0625 1.09375q0.046875 0.546875 0.078125 1.140625q0.03125 0.59375 0.03125 1.234375q0 0.9375 -0.265625 1.546875q-0.25 0.609375 -0.8125 0.96875q-0.546875 0.375 -1.375 0.515625q-0.828125 0.15625 -1.9531249 0.15625l-1.46875 0z" fill-rule="nonzero"/><path fill="#ffcb21" d="m468.30872 281.2135l0 0c0 -10.43689 8.460754 -18.897644 18.897644 -18.897644l0 0c5.011963 0 9.818634 1.9909973 13.36264 5.5350037c3.5440063 3.5439758 5.5350037 8.3506775 5.5350037 13.36264l0 0c0 10.436859 -8.460785 18.897644 -18.897644 18.897644l0 0c-10.43689 0 -18.897644 -8.460785 -18.897644 -18.897644z" fill-rule="evenodd"/><path fill="#000000" fill-opacity="0.0" d="m487.2079 300.11115l0 38.141724" fill-rule="evenodd"/><path stroke="#000000" stroke-width="1.0" stroke-linejoin="round" stroke-linecap="butt" stroke-dasharray="4.0,3.0" d="m487.2079 300.11115l0 32.141724" fill-rule="evenodd"/><path fill="#000000" stroke="#000000" stroke-width="1.0" stroke-linecap="butt" d="m485.55615 332.25287l1.6517334 4.538086l1.6517334 -4.538086z" fill-rule="evenodd"/><path fill="#000000" fill-opacity="0.0" d="m-11.398767 240.0l389.13385 0l0 49.19684l-389.13385 0z" fill-rule="evenodd"/><path fill="#000000" d="m2.7106075 272.04l0 -9.140625l-3.140625 0l0 -2.625l3.140625 -0.140625l0 -0.3125q0 -1.03125 0.3125 -1.921875q0.3125 -0.890625 0.953125 -1.546875q0.65625 -0.65625 1.65625 -1.03125q1.015625 -0.390625 2.40625 -0.390625q1.03125 0 1.921875 0.1875q0.90625 0.1875 1.6875 0.453125l-0.671875 2.59375q-1.1875 -0.453125 -2.5 -0.453125q-1.15625 0 -1.703125 0.515625q-0.53125 0.5 -0.53125 1.578125l0 0.328125l4.109375 0l0 2.765625l-4.109375 0l0 9.140625l-3.53125 0zm11.024963 0l0 -11.90625l2.875 0l0.265625 1.59375l0.09375 0q0.765625 -0.78125 1.765625 -1.328125q1.0 -0.546875 2.34375 -0.546875q2.015625 0 2.9375 1.296875q0.9375 1.296875 0.9375 3.546875l0 7.34375l-3.515625 0l0 -6.890625q0 -1.203125 -0.390625 -1.75q-0.390625 -0.546875 -1.359375 -0.546875q-0.734375 0 -1.28125 0.3125q-0.53125 0.3125 -1.15625 0.9375l0 7.9375l-3.515625 0zm14.243713 0l0 -15.640625l3.625 0l3.296877 7.765625l1.34375 3.453125l0.09375 0q-0.125 -1.234375 -0.3125 -2.765625q-0.1875 -1.53125 -0.1875 -2.921875l0 -5.53125l3.375 0l0 15.640625l-3.625 0l-3.28125 -7.796875l-1.3437519 -3.40625l-0.09375 0q0.109375 1.296875 0.296875 2.78125q0.203125 1.484375 0.203125 2.875l0 5.546875l-3.390625 0zm18.19684 0.28125q-0.90625 0 -1.625 -0.28125q-0.71875 -0.265625 -1.234375 -0.75q-0.5 -0.5 -0.78125 -1.140625q-0.265625 -0.65625 -0.265625 -1.421875q0 -1.0 0.421875 -1.75q0.4375 -0.765625 1.375 -1.296875q0.953125 -0.53125 2.4375 -0.84375q1.5 -0.328125 3.609375 -0.453125q-0.09375 -0.8125 -0.71875 -1.265625q-0.609375 -0.46875 -1.828125 -0.46875q-0.859375 0 -1.734375 0.3125q-0.875 0.296875 -1.890625 0.796875l-1.25 -2.296875q1.234375 -0.703125 2.625 -1.15625q1.40625 -0.453125 2.953125 -0.453125q2.484375 0 3.921875 1.328125q1.453125 1.3125 1.453125 4.046875l0 6.8125l-2.890625 0l-0.25 -1.34375l-0.109375 0q-0.90625 0.703125 -1.984375 1.171875q-1.078125 0.453125 -2.234375 0.453125zm1.125 -2.734375q0.796875 0 1.484375 -0.3125q0.703125 -0.328125 1.328125 -0.8125l0 -1.96875q-1.328125 0.078125 -2.1875 0.25q-0.859375 0.15625 -1.375 0.421875q-0.5 0.25 -0.703125 0.59375q-0.203125 0.328125 -0.203125 0.703125q0 0.578125 0.4375 0.859375q0.453125 0.265625 1.21875 0.265625zm8.743713 2.453125l0 -11.90625l2.65625 0l0.25 1.46875l0.09375 0q0.328125 -0.71875 0.921875 -1.234375q0.609375 -0.515625 1.640625 -0.515625q0.765625 0 1.296875 0.5q0.546875 0.484375 0.765625 1.4375q0.34375 -0.8125 0.96875 -1.375q0.640625 -0.5625 1.671875 -0.5625q1.296875 0 1.984375 1.015625q0.6875 1.015625 0.6875 2.8125l0 8.359375l-3.359375 0l0 -8.109375q0 -0.546875 -0.15625 -0.8125q-0.140625 -0.265625 -0.5 -0.265625q-0.328125 0 -0.578125 0.296875q-0.234375 0.28125 -0.5 0.84375l0 8.046875l-2.765625 0l0 -8.109375q0 -1.078125 -0.671875 -1.078125q-0.328125 0 -0.578125 0.296875q-0.234375 0.28125 -0.46875 0.84375l0 8.046875l-3.359375 0zm21.478088 0.28125q-1.390625 0 -2.609375 -0.40625q-1.203125 -0.421875 -2.09375 -1.21875q-0.890625 -0.796875 -1.40625 -1.953125q-0.5 -1.171875 -0.5 -2.65625q0 -1.46875 0.515625 -2.625q0.53125 -1.171875 1.390625 -1.96875q0.859375 -0.8125 1.96875 -1.21875q1.125 -0.421875 2.328125 -0.421875q1.359375 0 2.40625 0.4375q1.0625 0.421875 1.765625 1.1875q0.71875 0.765625 1.078125 1.8125q0.359375 1.046875 0.359375 2.265625q0 0.484375 -0.0625 0.9375q-0.046875 0.4375 -0.109375 0.65625l-8.109375 0q0.265625 1.296875 1.171875 1.890625q0.921875 0.59375 2.390625 0.59375q0.8125 0 1.546875 -0.203125q0.734375 -0.21875 1.515625 -0.625l1.171875 2.125q-1.03125 0.65625 -2.28125 1.03125q-1.234375 0.359375 -2.4375 0.359375zm-0.296875 -9.78125q-1.046875 0 -1.765625 0.546875q-0.703125 0.546875 -0.96875 1.6875l5.09375 0q-0.265625 -2.234375 -2.359375 -2.234375zm16.181213 13.796875q-2.34375 -2.09375 -3.703125 -4.828125q-1.359375 -2.734375 -1.359375 -6.140625q0 -3.40625 1.359375 -6.140625q1.359375 -2.734375 3.703125 -4.828125l1.96875 1.5625q-2.140625 2.09375 -3.109375 4.34375q-0.96875 2.234375 -0.96875 5.0625q0 1.421875 0.234375 2.6875q0.25 1.25 0.734375 2.40625q0.5 1.140625 1.265625 2.203125q0.765625 1.078125 1.84375 2.109375l-1.96875 1.5625zm10.368713 -4.015625q-0.90625 0 -1.625 -0.28125q-0.71875 -0.265625 -1.234375 -0.75q-0.5 -0.5 -0.78125 -1.140625q-0.265625 -0.65625 -0.265625 -1.421875q0 -1.0 0.421875 -1.75q0.4375 -0.765625 1.375 -1.296875q0.953125 -0.53125 2.4375 -0.84375q1.5 -0.328125 3.609375 -0.453125q-0.09375 -0.8125 -0.71875 -1.265625q-0.609375 -0.46875 -1.828125 -0.46875q-0.859375 0 -1.734375 0.3125q-0.875 0.296875 -1.890625 0.796875l-1.25 -2.296875q1.234375 -0.703125 2.625 -1.15625q1.40625 -0.453125 2.953125 -0.453125q2.484375 0 3.921875 1.328125q1.453125 1.3125 1.453125 4.046875l0 6.8125l-2.890625 0l-0.25 -1.34375l-0.109375 0q-0.90625 0.703125 -1.984375 1.171875q-1.078125 0.453125 -2.234375 0.453125zm1.125 -2.734375q0.796875 0 1.484375 -0.3125q0.703125 -0.328125 1.328125 -0.8125l0 -1.96875q-1.328125 0.078125 -2.1875 0.25q-0.859375 0.15625 -1.375 0.421875q-0.5 0.25 -0.703125 0.59375q-0.203125 0.328125 -0.203125 0.703125q0 0.578125 0.4375 0.859375q0.453125 0.265625 1.21875 0.265625zm12.884338 6.75l-1.953125 -1.5625q1.078125 -1.03125 1.84375 -2.109375q0.765625 -1.0625 1.25 -2.203125q0.5 -1.15625 0.734375 -2.40625q0.25 -1.265625 0.25 -2.6875q0 -2.828125 -0.984375 -5.0625q-0.96875 -2.25 -3.09375 -4.34375l1.953125 -1.5625q2.359375 2.09375 3.71875 4.828125q1.359375 2.734375 1.359375 6.140625q0 3.40625 -1.359375 6.140625q-1.359375 2.734375 -3.71875 4.828125zm33.878044 -0.65625q-2.3125 0 -3.390625 -0.734375q-1.078125 -0.71875 -1.078125 -2.671875q0 -0.640625 0.03125 -1.140625q0.03125 -0.515625 0.078125 -0.984375q0.0625 -0.46875 0.09375 -0.921875q0.03125 -0.46875 0.03125 -1.046875q0 -0.3125 -0.140625 -0.625q-0.140625 -0.3125 -0.53125 -0.5625q-0.375 -0.25 -1.015625 -0.40625q-0.640625 -0.15625 -1.59375 -0.1875l0 -2.0625q0.953125 -0.03125 1.59375 -0.1875q0.640625 -0.15625 1.015625 -0.40625q0.390625 -0.25 0.53125 -0.5625q0.140625 -0.3125 0.140625 -0.625q0 -0.546875 -0.03125 -1.015625q-0.03125 -0.484375 -0.09375 -0.953125q-0.046875 -0.46875 -0.078125 -0.984375q-0.03125 -0.515625 -0.03125 -1.140625q0 -1.953125 1.078125 -2.671875q1.078125 -0.734375 3.390625 -0.734375l1.84375 0l0 1.859375l-0.984375 0q-0.75 0 -1.234375 0.078125q-0.46875 0.078125 -0.734375 0.265625q-0.265625 0.1875 -0.375 0.515625q-0.109375 0.328125 -0.109375 0.828125q0 0.953125 0.0625 1.890625q0.0625 0.9375 0.0625 2.015625q0 1.375 -0.5625 1.984375q-0.546875 0.609375 -1.84375 0.828125l0 0.09375q1.296875 0.21875 1.84375 0.828125q0.5625 0.609375 0.5625 1.984375q0 1.09375 -0.0625 2.015625q-0.0625 0.90625 -0.0625 1.890625q0 0.5 0.109375 0.828125q0.109375 0.328125 0.375 0.515625q0.265625 0.1875 0.734375 0.265625q0.484375 0.078125 1.234375 0.078125l0.984375 0l0 1.859375l-1.84375 0zm21.253052 0l0 -1.859375l0.984375 0q0.75 0 1.21875 -0.078125q0.46875 -0.078125 0.734375 -0.265625q0.265625 -0.1875 0.359375 -0.515625q0.109375 -0.328125 0.109375 -0.828125q0 -0.984375 -0.046875 -1.890625q-0.046875 -0.921875 -0.046875 -2.015625q0 -1.375 0.546875 -1.984375q0.5625 -0.609375 1.859375 -0.828125l0 -0.09375q-1.296875 -0.21875 -1.859375 -0.828125q-0.546875 -0.609375 -0.546875 -1.984375q0 -1.078125 0.046875 -2.015625q0.046875 -0.9375 0.046875 -1.890625q0 -0.5 -0.109375 -0.828125q-0.09375 -0.328125 -0.359375 -0.515625q-0.265625 -0.1875 -0.734375 -0.265625q-0.46875 -0.078125 -1.21875 -0.078125l-0.984375 0l0 -1.859375l1.859375 0q2.296875 0 3.375 0.734375q1.078125 0.71875 1.078125 2.671875q0 0.625 -0.03125 1.140625q-0.03125 0.515625 -0.09375 0.984375q-0.0625 0.46875 -0.109375 0.953125q-0.03125 0.46875 -0.03125 1.015625q0 0.3125 0.140625 0.625q0.15625 0.3125 0.53125 0.5625q0.390625 0.25 1.015625 0.40625q0.640625 0.15625 1.625 0.1875l0 2.0625q-0.984375 0.03125 -1.625 0.1875q-0.625 0.15625 -1.015625 0.40625q-0.375 0.25 -0.53125 0.5625q-0.140625 0.3125 -0.140625 0.625q0 0.578125 0.03125 1.046875q0.046875 0.453125 0.109375 0.921875q0.0625 0.46875 0.09375 0.984375q0.03125 0.5 0.03125 1.140625q0 1.953125 -1.078125 2.671875q-1.078125 0.734375 -3.375 0.734375l-1.859375 0z" fill-rule="nonzero"/><path fill="#000000" fill-opacity="0.0" d="m245.13142 332.2047l200.94487 0l0 49.19687l-200.94487 0z" fill-rule="evenodd"/><path fill="#000000" d="m327.6891 364.24472l0 -10.0625l-3.34375 0l0 -1.484375l3.34375 -0.109375l0 -0.984375q0 -2.140625 1.140625 -3.4375q1.140625 -1.296875 3.5625 -1.296875q1.71875 0 3.359375 0.671875l-0.453125 1.484375q-0.71875 -0.328125 -1.34375 -0.4375q-0.609375 -0.109375 -1.375 -0.109375q-1.578125 0 -2.265625 0.8125q-0.6875 0.796875 -0.6875 2.234375l0 1.0625l4.890625 0l0 1.59375l-4.890625 0l0 10.0625l-1.9375 0zm10.821838 0l0 -11.65625l1.625 0l0.171875 1.984375l0.09375 0q0.921875 -0.984375 1.96875 -1.625q1.0625 -0.65625 2.421875 -0.65625q2.09375 0 3.0625 1.1875q0.96875 1.1875 0.96875 3.515625l0 7.25l-1.96875 0l0 -6.984375q0 -1.65625 -0.625 -2.453125q-0.609375 -0.8125 -2.0625 -0.8125q-0.515625 0 -0.96875 0.140625q-0.4375 0.125 -0.875 0.390625q-0.4375 0.265625 -0.890625 0.671875q-0.453125 0.390625 -0.953125 0.90625l0 8.140625l-1.96875 0zm14.134338 0l0 -15.75l2.203125 0l5.046875 9.890625l1.515625 3.265625l0.046875 0q-0.046875 -1.171875 -0.15625 -2.453125q-0.109375 -1.296875 -0.109375 -2.53125l0 -8.171875l1.921875 0l0 15.75l-2.21875 0l-5.03125 -9.890625l-1.515625 -3.265625l-0.046875 0q0.046875 1.234375 0.15625 2.46875q0.109375 1.234375 0.109375 2.453125l0 8.234375l-1.921875 0zm18.337463 0.28125q-0.8125 0 -1.546875 -0.234375q-0.71875 -0.21875 -1.265625 -0.640625q-0.53125 -0.421875 -0.84375 -1.03125q-0.3125 -0.609375 -0.3125 -1.40625q0 -0.984375 0.46875 -1.703125q0.46875 -0.734375 1.484375 -1.265625q1.03125 -0.53125 2.640625 -0.859375q1.609375 -0.34375 3.859375 -0.53125q-0.015625 -0.59375 -0.1875 -1.125q-0.171875 -0.53125 -0.53125 -0.921875q-0.359375 -0.40625 -0.953125 -0.640625q-0.578125 -0.234375 -1.421875 -0.234375q-1.15625 0 -2.21875 0.4375q-1.046875 0.4375 -1.859375 0.953125l-0.765625 -1.34375q0.421875 -0.296875 1.015625 -0.59375q0.59375 -0.296875 1.25 -0.53125q0.65625 -0.25 1.390625 -0.40625q0.75 -0.15625 1.515625 -0.15625q2.40625 0 3.5625 1.3125q1.171875 1.296875 1.171875 3.484375l0 7.15625l-1.609375 0l-0.171875 -1.578125l-0.0625 0q-0.984375 0.765625 -2.171875 1.3125q-1.1875 0.546875 -2.4375 0.546875zm0.53125 -1.578125q1.0 0 1.96875 -0.4375q0.984375 -0.453125 1.984375 -1.296875l0 -3.0625q-1.875 0.140625 -3.140625 0.40625q-1.25 0.265625 -2.015625 0.640625q-0.75 0.359375 -1.0625 0.828125q-0.3125 0.46875 -0.3125 1.046875q0 0.515625 0.21875 0.859375q0.21875 0.34375 0.5625 0.578125q0.34375 0.21875 0.8125 0.328125q0.46875 0.109375 0.984375 0.109375zm9.353088 1.296875l0 -11.65625l1.578125 0l0.171875 1.53125l0.046875 0q0.453125 -0.8125 1.046875 -1.3125q0.609375 -0.515625 1.625 -0.515625q1.703125 0 2.203125 2.015625q0.5 -0.9375 1.109375 -1.46875q0.625 -0.546875 1.625 -0.546875q1.234375 0 1.90625 0.921875q0.6875 0.921875 0.6875 2.671875l0 8.359375l-1.96875 0l0 -8.203125q0 -2.046875 -1.25 -2.046875q-0.625 0 -1.015625 0.453125q-0.375 0.4375 -0.859375 1.34375l0 8.453125l-1.8125 0l0 -8.203125q0 -1.015625 -0.28125 -1.53125q-0.28125 -0.515625 -0.921875 -0.515625q-0.625 0 -1.0625 0.453125q-0.421875 0.4375 -0.859375 1.34375l0 8.453125l-1.96875 0zm20.931213 0.28125q-1.328125 0 -2.46875 -0.40625q-1.140625 -0.40625 -2.0 -1.1875q-0.84375 -0.796875 -1.34375 -1.9375q-0.484375 -1.140625 -0.484375 -2.609375q0 -1.40625 0.484375 -2.53125q0.5 -1.140625 1.328125 -1.921875q0.828125 -0.796875 1.890625 -1.21875q1.078125 -0.421875 2.25 -0.421875q1.25 0 2.25 0.40625q1.0 0.390625 1.671875 1.109375q0.6875 0.71875 1.046875 1.734375q0.359375 1.0 0.359375 2.21875q0 0.34375 -0.03125 0.65625q-0.015625 0.3125 -0.0625 0.546875l-9.1875 0q0.1875 2.0 1.453125 3.0q1.265625 0.984375 3.078125 0.984375q1.0625 0 1.90625 -0.296875q0.859375 -0.296875 1.65625 -0.8125l0.71875 1.296875q-0.875 0.578125 -1.984375 0.984375q-1.109375 0.40625 -2.53125 0.40625zm-0.296875 -10.671875q-0.71875 0 -1.375 0.25q-0.65625 0.234375 -1.1875 0.671875q-0.53125 0.4375 -0.890625 1.109375q-0.359375 0.671875 -0.5 1.546875l7.4375 0q-0.125 -1.796875 -1.046875 -2.6875q-0.921875 -0.890625 -2.4375 -0.890625zm17.165588 14.609375q-2.5 -1.9375 -3.953125 -4.671875q-1.453125 -2.734375 -1.453125 -6.21875q0 -3.484375 1.453125 -6.21875q1.453125 -2.734375 3.953125 -4.671875l1.078125 1.0q-2.421875 2.046875 -3.5625 4.453125q-1.140625 2.390625 -1.140625 5.4375q0 3.046875 1.140625 5.453125q1.140625 2.390625 3.5625 4.4375l-1.078125 1.0zm8.024963 0l-1.09375 -1.0q2.4375 -2.046875 3.5625 -4.4375q1.140625 -2.40625 1.140625 -5.453125q0 -3.046875 -1.140625 -5.4375q-1.125 -2.40625 -3.5625 -4.453125l1.09375 -1.0q2.484375 1.9375 3.9375 4.671875q1.453125 2.734375 1.453125 6.21875q0 3.484375 -1.453125 6.21875q-1.453125 2.734375 -3.9375 4.671875z" fill-rule="nonzero"/><path fill="#ffcb21" d="m524.3087 281.2135l0 0c0 -10.43689 8.460754 -18.897644 18.897644 -18.897644l0 0c5.011963 0 9.818665 1.9909973 13.362671 5.5350037c3.5439453 3.5439758 5.534973 8.3506775 5.534973 13.36264l0 0c0 10.436859 -8.460754 18.897644 -18.897644 18.897644l0 0c-10.43689 0 -18.897644 -8.460785 -18.897644 -18.897644z" fill-rule="evenodd"/><path fill="#000000" fill-opacity="0.0" d="m543.2075 300.10974l0 60.126007" fill-rule="evenodd"/><path stroke="#000000" stroke-width="1.0" stroke-linejoin="round" stroke-linecap="butt" stroke-dasharray="4.0,3.0" d="m543.2075 300.10974l0 54.125977" fill-rule="evenodd"/><path fill="#000000" stroke="#000000" stroke-width="1.0" stroke-linecap="butt" d="m541.5558 354.23572l1.6517334 4.5381165l1.6517334 -4.5381165z" fill-rule="evenodd"/><path fill="#ffcb21" d="m580.3087 281.2135l0 0c0 -10.43689 8.460754 -18.897644 18.897644 -18.897644l0 0c5.011963 0 9.818665 1.9909973 13.362671 5.5350037c3.5439453 3.5439758 5.534973 8.3506775 5.534973 13.36264l0 0c0 10.436859 -8.460754 18.897644 -18.897644 18.897644l0 0c-10.43689 0 -18.897644 -8.460785 -18.897644 -18.897644z" fill-rule="evenodd"/><path fill="#000000" fill-opacity="0.0" d="m599.2075 300.10974l0 76.031494" fill-rule="evenodd"/><path stroke="#000000" stroke-width="1.0" stroke-linejoin="round" stroke-linecap="butt" stroke-dasharray="4.0,3.0" d="m599.2075 300.10974l0 70.031494" fill-rule="evenodd"/><path fill="#000000" stroke="#000000" stroke-width="1.0" stroke-linecap="butt" d="m597.5558 370.14124l1.6517334 4.5381165l1.6517334 -4.5381165z" fill-rule="evenodd"/></g></svg>