<svg version="1.1" viewBox="0.0 0.0 264.56692913385825 311.81102362204723" fill="none" stroke="none" stroke-linecap="square" stroke-miterlimit="10" xmlns:xlink="http://www.w3.org/1999/xlink" xmlns="http://www.w3.org/2000/svg"><clipPath id="p.0"><path d="m0 0l264.56693 0l0 311.81104l-264.56693 0l0 -311.81104z" clip-rule="nonzero"/></clipPath><g clip-path="url(#p.0)"><path fill="#000000" fill-opacity="0.0" d="m0 0l264.56693 0l0 311.81104l-264.56693 0z" fill-rule="evenodd"/><path fill="#ffffff" d="m0 180.72409l264.56693 0l0 75.590546l-264.56693 0z" fill-rule="evenodd"/><path stroke="#000000" stroke-width="1.0" stroke-linejoin="round" stroke-linecap="butt" d="m0 180.72409l264.56693 0l0 75.590546l-264.56693 0z" fill-rule="evenodd"/><path fill="#000000" fill-opacity="0.0" d="m0 18.897638l264.56693 0" fill-rule="evenodd"/><path stroke="#434343" stroke-width="1.0" stroke-linejoin="round" stroke-linecap="butt" d="m0 18.897638l258.56693 0" fill-rule="evenodd"/><path fill="#434343" stroke="#434343" stroke-width="1.0" stroke-linecap="butt" d="m258.56693 20.54937l4.5381165 -1.6517315l-4.5381165 -1.6517334z" fill-rule="evenodd"/><path fill="#000000" fill-opacity="0.0" d="m0 141.95276l264.56693 0" fill-rule="evenodd"/><path stroke="#434343" stroke-width="1.0" stroke-linejoin="round" stroke-linecap="butt" d="m0 141.95276l258.56693 0" fill-rule="evenodd"/><path fill="#434343" stroke="#434343" stroke-width="1.0" stroke-linecap="butt" d="m258.56693 143.60449l4.5381165 -1.6517334l-4.5381165 -1.6517334z" fill-rule="evenodd"/><path fill="#6aa84f" d="m37.795277 18.897638l0 0c0 -10.436877 8.460758 -18.897638 18.897636 -18.897638l0 0c5.0119667 0 9.818653 1.9909954 13.362652 5.53499c3.543991 3.5439944 5.5349884 8.350683 5.5349884 13.362648l0 0c0 10.436876 -8.460762 18.897638 -18.89764 18.897638l0 0c-10.436878 0 -18.897636 -8.460762 -18.897636 -18.897638z" fill-rule="evenodd"/><path fill="#ffffff" d="m58.579502 25.817636l-2.5625 0l0 -10.171875l-3.34375 1.203125l0 -2.203125l5.765625 -2.09375l0.140625 0l0 13.265625z" fill-rule="nonzero"/><path fill="#000000" fill-opacity="0.0" d="m170.07874 37.795277l0 85.03937" fill-rule="evenodd"/><path stroke="#434343" stroke-width="1.0" stroke-linejoin="round" stroke-linecap="butt" stroke-dasharray="4.0,3.0" d="m170.07874 37.795277l0 79.03937" fill-rule="evenodd"/><path fill="#434343" stroke="#434343" stroke-width="1.0" stroke-linecap="butt" d="m168.427 116.83465l1.6517334 4.5380936l1.6517334 -4.5380936z" fill-rule="evenodd"/><path fill="#000000" fill-opacity="0.0" d="m56.692913 37.795277l0 85.03937" fill-rule="evenodd"/><path stroke="#434343" stroke-width="1.0" stroke-linejoin="round" stroke-linecap="butt" stroke-dasharray="4.0,3.0" d="m56.692913 37.795277l0 79.03937" fill-rule="evenodd"/><path fill="#434343" stroke="#434343" stroke-width="1.0" stroke-linecap="butt" d="m55.04118 116.83465l1.6517334 4.5380936l1.6517334 -4.5380936z" fill-rule="evenodd"/><path fill="#6aa84f" d="m151.1811 18.897638l0 0c0 -10.436877 8.460754 -18.897638 18.897629 -18.897638l0 0c5.011963 0 9.818665 1.9909954 13.362656 5.53499c3.543991 3.5439944 5.5349884 8.350683 5.5349884 13.362648l0 0c0 10.436876 -8.46077 18.897638 -18.897644 18.897638l0 0c-10.436874 0 -18.897629 -8.460762 -18.897629 -18.897638z" fill-rule="evenodd"/><path fill="#ffffff" d="m174.43408 25.817636l-9.046875 0l0 -1.734375l4.296875 -4.609375q0.5 -0.546875 0.84375 -0.984375q0.34375 -0.453125 0.5625 -0.8125q0.21875 -0.375 0.3125 -0.6875q0.09375 -0.328125 0.09375 -0.625q0 -0.453125 -0.125 -0.796875q-0.125 -0.34375 -0.359375 -0.578125q-0.234375 -0.25 -0.5625 -0.375q-0.328125 -0.125 -0.71875 -0.125q-1.046875 0 -1.5625 0.578125q-0.515625 0.578125 -0.515625 1.625l-2.53125 0q0 -0.875 0.328125 -1.65625q0.34375 -0.796875 0.953125 -1.390625q0.625 -0.59375 1.484375 -0.9375q0.875 -0.34375 1.9375 -0.34375q1.0 0 1.78125 0.296875q0.78125 0.28125 1.296875 0.796875q0.53125 0.5 0.796875 1.21875q0.28125 0.703125 0.28125 1.578125q0 0.65625 -0.203125 1.25q-0.203125 0.59375 -0.59375 1.1875q-0.375 0.578125 -0.90625 1.1875q-0.515625 0.59375 -1.171875 1.265625l-2.484375 2.640625l5.8125 0l0 2.03125z" fill-rule="nonzero"/><path fill="#6aa84f" d="m151.1811 141.73228l0 0c0 -10.436874 8.460754 -18.897636 18.897629 -18.897636l0 0c5.011963 0 9.818665 1.9909897 13.362656 5.534981c3.543991 3.5440063 5.5349884 8.350693 5.5349884 13.362656l0 0c0 10.436874 -8.46077 18.897644 -18.897644 18.897644l0 0c-10.436874 0 -18.897629 -8.46077 -18.897629 -18.897644z" fill-rule="evenodd"/><path fill="#ffffff" d="m173.16846 143.73041l1.53125 0l0 2.046875l-1.53125 0l0 2.875l-2.53125 0l0 -2.875l-5.515625 0l-0.109375 -1.59375l5.578125 -8.796875l2.578125 0l0 8.34375zm-5.65625 0l3.125 0l0 -4.9375l-0.25 0.4375l-2.875 4.5z" fill-rule="nonzero"/><path fill="#6aa84f" d="m37.795277 141.73228l0 0c0 -10.436874 8.460758 -18.897636 18.897636 -18.897636l0 0c5.0119667 0 9.818653 1.9909897 13.362652 5.534981c3.543991 3.5440063 5.5349884 8.350693 5.5349884 13.362656l0 0c0 10.436874 -8.460762 18.897644 -18.89764 18.897644l0 0c-10.436878 0 -18.897636 -8.46077 -18.897636 -18.897644z" fill-rule="evenodd"/><path fill="#ffffff" d="m61.048252 148.65228l-9.046875 0l0 -1.734375l4.296875 -4.609375q0.5 -0.546875 0.84375 -0.984375q0.34375 -0.453125 0.5625 -0.8125q0.21875 -0.375 0.3125 -0.6875q0.09375 -0.328125 0.09375 -0.625q0 -0.453125 -0.125 -0.796875q-0.125 -0.34375 -0.359375 -0.578125q-0.234375 -0.25 -0.5625 -0.375q-0.328125 -0.125 -0.71875 -0.125q-1.046875 0 -1.5625 0.578125q-0.515625 0.578125 -0.515625 1.625l-2.53125 0q0 -0.875 0.328125 -1.65625q0.34375 -0.796875 0.953125 -1.390625q0.625 -0.59375 1.484375 -0.9375q0.875 -0.34375 1.9375 -0.34375q1.0 0 1.78125 0.296875q0.78125 0.28125 1.296875 0.796875q0.53125 0.5 0.796875 1.21875q0.28125 0.703125 0.28125 1.578125q0 0.65625 -0.203125 1.25q-0.203125 0.59375 -0.59375 1.1875q-0.375 0.578125 -0.90625 1.1875q-0.515625 0.59375 -1.171875 1.265625l-2.484375 2.640625l5.8125 0l0 2.03125z" fill-rule="nonzero"/><path fill="#ffffff" d="m5.32021E-4 57.889908l264.56696 0l0 37.795273l-264.56696 0z" fill-rule="evenodd"/><path stroke="#000000" stroke-width="1.0" stroke-linejoin="round" stroke-linecap="butt" d="m5.32021E-4 57.889908l264.56696 0l0 37.795273l-264.56696 0z" fill-rule="evenodd"/><path fill="#000000" d="m49.408947 81.70754l0 -9.0625l1.234375 0l0.125 1.1875l0.046875 0q0.34375 -0.625 0.8125 -1.015625q0.46875 -0.40625 1.25 -0.40625q1.328125 0 1.71875 1.578125q0.390625 -0.734375 0.859375 -1.15625q0.484375 -0.421875 1.265625 -0.421875q0.953125 0 1.484375 0.71875q0.53125 0.71875 0.53125 2.078125l0 6.5l-1.53125 0l0 -6.375q0 -1.59375 -0.96875 -1.59375q-0.484375 0 -0.78125 0.34375q-0.296875 0.34375 -0.671875 1.0625l0 6.5625l-1.421875 0l0 -6.375q0 -0.78125 -0.21875 -1.1875q-0.203125 -0.40625 -0.703125 -0.40625q-0.484375 0 -0.828125 0.34375q-0.328125 0.34375 -0.671875 1.0625l0 6.5625l-1.53125 0zm14.709385 0.21875q-0.6406288 0 -1.2031288 -0.171875q-0.5625 -0.171875 -0.984375 -0.5q-0.40625 -0.328125 -0.65625 -0.796875q-0.234375 -0.484375 -0.234375 -1.09375q0 -0.765625 0.359375 -1.328125q0.359375 -0.578125 1.15625 -0.984375q0.796875 -0.421875 2.0468788 -0.671875q1.25 -0.265625 3.0 -0.421875q-0.015625 -0.46875 -0.15625 -0.875q-0.125 -0.40625 -0.40625 -0.71875q-0.28125 -0.3125 -0.734375 -0.484375q-0.453125 -0.1875 -1.109375 -0.1875q-0.890625 0 -1.7187538 0.34375q-0.8125 0.34375 -1.453125 0.734375l-0.59375 -1.046875q0.328125 -0.21875 0.78125 -0.453125q0.46875 -0.234375 0.96875 -0.421875q0.515625 -0.1875 1.0937538 -0.3125q0.578125 -0.125 1.1875 -0.125q1.859375 0 2.765625 1.03125q0.90625 1.015625 0.90625 2.703125l0 5.5625l-1.25 0l-0.125 -1.234375l-0.0625 0q-0.765625 0.59375 -1.6875 1.03125q-0.921875 0.421875 -1.890625 0.421875zm0.40625 -1.21875q0.78125 0 1.53125 -0.34375q0.765625 -0.359375 1.546875 -1.0l0 -2.390625q-1.453125 0.109375 -2.4375 0.3125q-0.96875 0.203125 -1.5625038 0.5q-0.59375 0.28125 -0.84375 0.65625q-0.234375 0.359375 -0.234375 0.796875q0 0.390625 0.171875 0.671875q0.171875 0.265625 0.4375 0.453125q0.265625 0.171875 0.625 0.265625q0.3750038 0.078125 0.7656288 0.078125zm7.928131 4.828125l0 -12.890625l1.265625 0l0.140625 1.15625l0.046875 0q0.640625 -0.59375 1.46875 -0.984375q0.828125 -0.40625 1.671875 -0.40625q0.90625 0 1.609375 0.328125q0.703125 0.328125 1.171875 0.9375q0.484375 0.609375 0.71875 1.453125q0.25 0.84375 0.25 1.90625q0 1.171875 -0.34375 2.078125q-0.328125 0.890625 -0.90625 1.53125q-0.5625 0.640625 -1.3125 0.96875q-0.75 0.3125 -1.5625 0.3125q-0.640625 0 -1.375 -0.296875q-0.734375 -0.3125 -1.328125 -0.875l-0.0625 0l0.078125 1.71875l0 3.0625l-1.53125 0zm3.953125 -4.890625q1.234375 0 2.015625 -0.953125q0.78125 -0.953125 0.78125 -2.65625q0 -0.734375 -0.15625 -1.34375q-0.140625 -0.625 -0.453125 -1.0625q-0.296875 -0.4375 -0.78125 -0.671875q-0.484375 -0.25 -1.15625 -0.25q-0.609375 0 -1.296875 0.328125q-0.671875 0.328125 -1.375 1.03125l0 4.515625q0.65625 0.578125 1.296875 0.828125q0.65625 0.234375 1.125 0.234375zm13.584381 4.34375q-1.9375 -1.515625 -3.078125 -3.640625q-1.125 -2.125 -1.125 -4.828125q0 -2.703125 1.125 -4.828125q1.140625 -2.125 3.078125 -3.640625l0.84375 0.78125q-1.890625 1.59375 -2.78125 3.453125q-0.875 1.859375 -0.875 4.234375q0 2.375 0.875 4.25q0.890625 1.859375 2.78125 3.4375l-0.84375 0.78125zm7.896881 -3.28125l-3.828125 -9.0625l1.546875 0l2.09375 5.140625q0.28125 0.6875 0.53125 1.359375q0.25 0.65625 0.484375 1.3125l0.078125 0q0.25 -0.65625 0.484375 -1.3125q0.234375 -0.671875 0.5 -1.359375l2.09375 -5.140625l1.484375 0l-3.75 9.0625l-1.71875 0zm19.184387 -7.578125l0 -1.15625l8.03125 0l0 1.15625l-8.03125 0zm0 4.0l0 -1.15625l8.03125 0l0 1.15625l-8.03125 0zm11.615631 2.6875l0 -1.484375l5.609375 -3.78125l0 -0.078125l-5.609375 -3.78125l0 -1.484375l6.953125 4.734375l0 1.15625l-6.953125 4.71875zm25.168762 0.890625l-3.828125 -9.0625l1.546875 0l2.09375 5.140625q0.28125 0.6875 0.53125 1.359375q0.25 0.65625 0.484375 1.3125l0.078125 0q0.25 -0.65625 0.484375 -1.3125q0.234375 -0.671875 0.5 -1.359375l2.09375 -5.140625l1.484375 0l-3.75 9.0625l-1.71875 0zm20.965637 -2.078125l-0.78125 -0.546875l2.015625 -3.078125l-3.03125 -1.3125l0.296875 -0.859375l3.125 1.03125l0.171875 -3.53125l0.890625 0l0.171875 3.53125l3.109375 -1.03125l0.296875 0.859375l-3.015625 1.3125l2.015625 3.078125l-0.796875 0.546875l-2.234375 -2.953125l-2.234375 2.953125zm20.387512 2.078125l0 -0.921875q1.515625 -1.328125 2.671875 -2.40625q1.171875 -1.09375 1.96875 -2.0q0.796875 -0.90625 1.203125 -1.6875q0.40625 -0.78125 0.40625 -1.53125q0 -1.03125 -0.640625 -1.671875q-0.625 -0.65625 -1.953125 -0.65625q-0.84375 0 -1.5625 0.421875q-0.703125 0.421875 -1.28125 1.015625l-0.890625 -0.875q0.8125 -0.828125 1.734375 -1.3125q0.921875 -0.5 2.1875 -0.5q0.890625 0 1.609375 0.25q0.71875 0.25 1.21875 0.71875q0.515625 0.453125 0.78125 1.109375q0.265625 0.640625 0.265625 1.421875q0 0.84375 -0.40625 1.703125q-0.390625 0.84375 -1.125 1.75q-0.71875 0.90625 -1.734375 1.890625q-1.0 0.96875 -2.21875 2.0625q0.5625 -0.03125 1.125 -0.0625q0.5625 -0.046875 1.109375 -0.046875l3.90625 0l0 1.328125l-8.375 0zm12.943756 3.28125l-0.828125 -0.78125q1.875 -1.578125 2.765625 -3.4375q0.890625 -1.875 0.890625 -4.25q0 -2.375 -0.890625 -4.234375q-0.890625 -1.859375 -2.765625 -3.453125l0.828125 -0.78125q1.953125 1.515625 3.078125 3.640625q1.125 2.125 1.125 4.828125q0 2.703125 -1.125 4.828125q-1.125 2.125 -3.078125 3.640625z" fill-rule="nonzero"/><path fill="#000000" fill-opacity="0.0" d="m0 292.9134l264.56693 0" fill-rule="evenodd"/><path stroke="#434343" stroke-width="1.0" stroke-linejoin="round" stroke-linecap="butt" d="m0 292.9134l258.56693 0" fill-rule="evenodd"/><path fill="#434343" stroke="#434343" stroke-width="1.0" stroke-linecap="butt" d="m258.56693 294.56512l4.5381165 -1.6517334l-4.5381165 -1.6517334z" fill-rule="evenodd"/><path fill="#000000" fill-opacity="0.0" d="m170.07874 160.62993l0 37.73227" fill-rule="evenodd"/><path stroke="#434343" stroke-width="1.0" stroke-linejoin="round" stroke-linecap="butt" stroke-dasharray="4.0,3.0" d="m170.07874 160.62993l0 31.73227" fill-rule="evenodd"/><path fill="#434343" stroke="#434343" stroke-width="1.0" stroke-linecap="butt" d="m168.427 192.3622l1.6517334 4.538101l1.6517334 -4.538101z" fill-rule="evenodd"/><path fill="#000000" fill-opacity="0.0" d="m56.692913 160.62993l0 37.73227" fill-rule="evenodd"/><path stroke="#434343" stroke-width="1.0" stroke-linejoin="round" stroke-linecap="butt" stroke-dasharray="4.0,3.0" d="m56.692913 160.62993l0 31.73227" fill-rule="evenodd"/><path fill="#434343" stroke="#434343" stroke-width="1.0" stroke-linecap="butt" d="m55.04118 192.3622l1.6517334 4.538101l1.6517334 -4.538101z" fill-rule="evenodd"/><path fill="#000000" fill-opacity="0.0" d="m37.795277 217.24672l94.48819 0" fill-rule="evenodd"/><path stroke="#434343" stroke-width="1.0" stroke-linejoin="round" stroke-linecap="butt" d="m37.795277 217.24672l88.48819 0" fill-rule="evenodd"/><path fill="#434343" stroke="#434343" stroke-width="1.0" stroke-linecap="butt" d="m126.28346 218.89845l4.538101 -1.6517334l-4.538101 -1.6517334z" fill-rule="evenodd"/><path fill="#6734ba" d="m37.795277 217.24672l18.897636 -18.897644l18.89764 18.897644l-18.89764 18.897644z" fill-rule="evenodd"/><path fill="#ffffff" d="m55.26791 222.38547q-0.703125 0 -1.265625 -0.21875q-0.5625 -0.203125 -0.953125 -0.578125q-0.390625 -0.390625 -0.609375 -0.890625q-0.203125 -0.515625 -0.203125 -1.109375q0 -0.78125 0.328125 -1.359375q0.34375 -0.59375 1.078125 -1.0q0.734375 -0.421875 1.890625 -0.671875q1.15625 -0.25 2.796875 -0.34375q-0.078125 -0.625 -0.546875 -0.984375q-0.46875 -0.359375 -1.421875 -0.359375q-0.671875 0 -1.359375 0.234375q-0.671875 0.234375 -1.46875 0.625l-0.96875 -1.796875q0.953125 -0.53125 2.046875 -0.890625q1.09375 -0.359375 2.28125 -0.359375q1.953125 0 3.0625 1.03125q1.125 1.03125 1.125 3.15625l0 5.296875l-2.234375 0l-0.21875 -1.046875l-0.0625 0q-0.71875 0.546875 -1.5625 0.90625q-0.828125 0.359375 -1.734375 0.359375zm0.890625 -2.125q0.609375 0 1.140625 -0.25q0.546875 -0.25 1.03125 -0.625l0 -1.53125q-1.015625 0.0625 -1.6875 0.1875q-0.671875 0.125 -1.078125 0.328125q-0.390625 0.203125 -0.546875 0.46875q-0.15625 0.25 -0.15625 0.546875q0 0.453125 0.34375 0.671875q0.34375 0.203125 0.953125 0.203125z" fill-rule="nonzero"/><path fill="#6734ba" d="m75.59055 217.24672l18.897636 -18.897644l18.897636 18.897644l-18.897636 18.897644z" fill-rule="evenodd"/><path fill="#ffffff" d="m95.20381 224.38547q-0.65625 0 -1.3125 -0.3125q-0.640625 -0.3125 -1.21875 -0.90625l-0.0625 0l-0.234375 1.0l-2.140625 0l0 -13.078125l2.734375 0l0 3.203125l-0.078125 1.46875l0.046875 0q0.53125 -0.515625 1.1875 -0.796875q0.671875 -0.28125 1.34375 -0.28125q0.859375 0 1.5625 0.34375q0.703125 0.328125 1.171875 0.9375q0.484375 0.609375 0.734375 1.484375q0.265625 0.859375 0.265625 1.921875q0 1.203125 -0.34375 2.140625q-0.328125 0.921875 -0.890625 1.5625q-0.546875 0.640625 -1.265625 0.984375q-0.71875 0.328125 -1.5 0.328125zm-0.625 -2.234375q0.765625 0 1.28125 -0.640625q0.53125 -0.640625 0.53125 -2.078125q0 -2.5 -1.703125 -2.5q-0.875 0 -1.71875 0.859375l0 3.75q0.40625 0.328125 0.8125 0.46875q0.421875 0.140625 0.796875 0.140625z" fill-rule="nonzero"/><path fill="#000000" d="m132.28346 198.34937l3.7795258 0l0 37.795273l-3.7795258 0z" fill-rule="evenodd"/><path fill="#000000" fill-opacity="0.0" d="m171.02362 217.184l74.645676 0.06300354" fill-rule="evenodd"/><path stroke="#434343" stroke-width="1.0" stroke-linejoin="round" stroke-linecap="butt" d="m171.02362 217.18402l68.645676 0.057922363" fill-rule="evenodd"/><path fill="#434343" stroke="#434343" stroke-width="1.0" stroke-linecap="butt" d="m239.6679 218.89368l4.5394897 -1.6479034l-4.5366974 -1.6555634z" fill-rule="evenodd"/><path fill="#f77c00" d="m151.1811 217.24672l18.897629 -18.897644l18.897644 18.897644l-18.897644 18.897644z" fill-rule="evenodd"/><path fill="#ffffff" d="m170.79436 224.38547q-0.65625 0 -1.3125 -0.3125q-0.640625 -0.3125 -1.21875 -0.90625l-0.0625 0l-0.234375 1.0l-2.140625 0l0 -13.078125l2.734375 0l0 3.203125l-0.078125 1.46875l0.046875 0q0.53125 -0.515625 1.1875 -0.796875q0.671875 -0.28125 1.34375 -0.28125q0.859375 0 1.5625 0.34375q0.703125 0.328125 1.171875 0.9375q0.484375 0.609375 0.734375 1.484375q0.265625 0.859375 0.265625 1.921875q0 1.203125 -0.34375 2.140625q-0.328125 0.921875 -0.890625 1.5625q-0.546875 0.640625 -1.265625 0.984375q-0.71875 0.328125 -1.5 0.328125zm-0.625 -2.234375q0.765625 0 1.28125 -0.640625q0.53125 -0.640625 0.53125 -2.078125q0 -2.5 -1.703125 -2.5q-0.875 0 -1.71875 0.859375l0 3.75q0.40625 0.328125 0.8125 0.46875q0.421875 0.140625 0.796875 0.140625z" fill-rule="nonzero"/><path fill="#f77c00" d="m188.97638 217.24672l18.897629 -18.897644l18.897644 18.897644l-18.897644 18.897644z" fill-rule="evenodd"/><path fill="#ffffff" d="m208.6834 222.38547q-1.109375 0 -2.046875 -0.3125q-0.921875 -0.328125 -1.625 -0.9375q-0.703125 -0.625 -1.09375 -1.53125q-0.390625 -0.90625 -0.390625 -2.0625q0 -1.15625 0.4375 -2.0625q0.4375 -0.90625 1.171875 -1.515625q0.734375 -0.625 1.703125 -0.953125q0.984375 -0.328125 2.046875 -0.328125q1.09375 0 1.984375 0.359375q0.890625 0.359375 1.484375 0.890625l-1.265625 1.703125q-1.03125 -0.71875 -2.0625 -0.71875q-1.1875 0 -1.9375 0.703125q-0.75 0.703125 -0.75 1.921875q0 1.203125 0.71875 1.921875q0.71875 0.703125 1.875 0.703125q0.734375 0 1.328125 -0.25q0.609375 -0.265625 1.125 -0.625l1.09375 1.734375q-0.84375 0.71875 -1.859375 1.046875q-1.0 0.3125 -1.9375 0.3125z" fill-rule="nonzero"/><path fill="#000000" d="m245.6693 198.34937l3.7795258 0l0 37.795273l-3.7795258 0z" fill-rule="evenodd"/><path fill="#6734ba" d="m37.795277 292.9134l18.897636 -18.897644l18.89764 18.897644l-18.89764 18.897644z" fill-rule="evenodd"/><path fill="#ffffff" d="m55.26791 298.05212q-0.703125 0 -1.265625 -0.21875q-0.5625 -0.203125 -0.953125 -0.578125q-0.390625 -0.390625 -0.609375 -0.890625q-0.203125 -0.515625 -0.203125 -1.109375q0 -0.78125 0.328125 -1.359375q0.34375 -0.59375 1.078125 -1.0q0.734375 -0.421875 1.890625 -0.671875q1.15625 -0.25 2.796875 -0.34375q-0.078125 -0.625 -0.546875 -0.984375q-0.46875 -0.359375 -1.421875 -0.359375q-0.671875 0 -1.359375 0.234375q-0.671875 0.234375 -1.46875 0.625l-0.96875 -1.796875q0.953125 -0.53125 2.046875 -0.890625q1.09375 -0.359375 2.28125 -0.359375q1.953125 0 3.0625 1.03125q1.125 1.03125 1.125 3.15625l0 5.296875l-2.234375 0l-0.21875 -1.046875l-0.0625 0q-0.71875 0.546875 -1.5625 0.90625q-0.828125 0.359375 -1.734375 0.359375zm0.890625 -2.125q0.609375 0 1.140625 -0.25q0.546875 -0.25 1.03125 -0.625l0 -1.53125q-1.015625 0.0625 -1.6875 0.1875q-0.671875 0.125 -1.078125 0.328125q-0.390625 0.203125 -0.546875 0.46875q-0.15625 0.25 -0.15625 0.546875q0 0.453125 0.34375 0.671875q0.34375 0.203125 0.953125 0.203125z" fill-rule="nonzero"/><path fill="#6734ba" d="m75.59055 292.9134l18.897636 -18.897644l18.897636 18.897644l-18.897636 18.897644z" fill-rule="evenodd"/><path fill="#ffffff" d="m95.20381 300.05212q-0.65625 0 -1.3125 -0.3125q-0.640625 -0.3125 -1.21875 -0.90625l-0.0625 0l-0.234375 1.0l-2.140625 0l0 -13.078125l2.734375 0l0 3.203125l-0.078125 1.46875l0.046875 0q0.53125 -0.515625 1.1875 -0.796875q0.671875 -0.28125 1.34375 -0.28125q0.859375 0 1.5625 0.34375q0.703125 0.328125 1.171875 0.9375q0.484375 0.609375 0.734375 1.484375q0.265625 0.859375 0.265625 1.921875q0 1.203125 -0.34375 2.140625q-0.328125 0.921875 -0.890625 1.5625q-0.546875 0.640625 -1.265625 0.984375q-0.71875 0.328125 -1.5 0.328125zm-0.625 -2.234375q0.765625 0 1.28125 -0.640625q0.53125 -0.640625 0.53125 -2.078125q0 -2.5 -1.703125 -2.5q-0.875 0 -1.71875 0.859375l0 3.75q0.40625 0.328125 0.8125 0.46875q0.421875 0.140625 0.796875 0.140625z" fill-rule="nonzero"/><path fill="#f77c00" d="m151.1811 292.9134l18.897629 -18.897644l18.897644 18.897644l-18.897644 18.897644z" fill-rule="evenodd"/><path fill="#ffffff" d="m170.79436 300.05212q-0.65625 0 -1.3125 -0.3125q-0.640625 -0.3125 -1.21875 -0.90625l-0.0625 0l-0.234375 1.0l-2.140625 0l0 -13.078125l2.734375 0l0 3.203125l-0.078125 1.46875l0.046875 0q0.53125 -0.515625 1.1875 -0.796875q0.671875 -0.28125 1.34375 -0.28125q0.859375 0 1.5625 0.34375q0.703125 0.328125 1.171875 0.9375q0.484375 0.609375 0.734375 1.484375q0.265625 0.859375 0.265625 1.921875q0 1.203125 -0.34375 2.140625q-0.328125 0.921875 -0.890625 1.5625q-0.546875 0.640625 -1.265625 0.984375q-0.71875 0.328125 -1.5 0.328125zm-0.625 -2.234375q0.765625 0 1.28125 -0.640625q0.53125 -0.640625 0.53125 -2.078125q0 -2.5 -1.703125 -2.5q-0.875 0 -1.71875 0.859375l0 3.75q0.40625 0.328125 0.8125 0.46875q0.421875 0.140625 0.796875 0.140625z" fill-rule="nonzero"/><path fill="#f77c00" d="m188.97638 292.9134l18.897629 -18.897644l18.897644 18.897644l-18.897644 18.897644z" fill-rule="evenodd"/><path fill="#ffffff" d="m208.6834 298.05212q-1.109375 0 -2.046875 -0.3125q-0.921875 -0.328125 -1.625 -0.9375q-0.703125 -0.625 -1.09375 -1.53125q-0.390625 -0.90625 -0.390625 -2.0625q0 -1.15625 0.4375 -2.0625q0.4375 -0.90625 1.171875 -1.515625q0.734375 -0.625 1.703125 -0.953125q0.984375 -0.328125 2.046875 -0.328125q1.09375 0 1.984375 0.359375q0.890625 0.359375 1.484375 0.890625l-1.265625 1.703125q-1.03125 -0.71875 -2.0625 -0.71875q-1.1875 0 -1.9375 0.703125q-0.75 0.703125 -0.75 1.921875q0 1.203125 0.71875 1.921875q0.71875 0.703125 1.875 0.703125q0.734375 0 1.328125 -0.25q0.609375 -0.265625 1.125 -0.625l1.09375 1.734375q-0.84375 0.71875 -1.859375 1.046875q-1.0 0.3125 -1.9375 0.3125z" fill-rule="nonzero"/><path fill="#000000" fill-opacity="0.0" d="m56.692913 236.14436l0 37.85826" fill-rule="evenodd"/><path stroke="#434343" stroke-width="1.0" stroke-linejoin="round" stroke-linecap="butt" stroke-dasharray="4.0,3.0" d="m56.692913 236.14436l0 31.858261" fill-rule="evenodd"/><path fill="#434343" stroke="#434343" stroke-width="1.0" stroke-linecap="butt" d="m55.04118 268.00262l1.6517334 4.538086l1.6517334 -4.538086z" fill-rule="evenodd"/><path fill="#000000" fill-opacity="0.0" d="m94.48819 236.14436l0 37.85826" fill-rule="evenodd"/><path stroke="#434343" stroke-width="1.0" stroke-linejoin="round" stroke-linecap="butt" stroke-dasharray="4.0,3.0" d="m94.48819 236.14436l0 31.858261" fill-rule="evenodd"/><path fill="#434343" stroke="#434343" stroke-width="1.0" stroke-linecap="butt" d="m92.83646 268.00262l1.6517334 4.538086l1.6517334 -4.538086z" fill-rule="evenodd"/><path fill="#000000" fill-opacity="0.0" d="m170.07874 236.14436l0 37.85826" fill-rule="evenodd"/><path stroke="#434343" stroke-width="1.0" stroke-linejoin="round" stroke-linecap="butt" stroke-dasharray="4.0,3.0" d="m170.07874 236.14436l0 31.858261" fill-rule="evenodd"/><path fill="#434343" stroke="#434343" stroke-width="1.0" stroke-linecap="butt" d="m168.427 268.00262l1.6517334 4.538086l1.6517334 -4.538086z" fill-rule="evenodd"/><path fill="#000000" fill-opacity="0.0" d="m207.87401 236.14436l0 37.85826" fill-rule="evenodd"/><path stroke="#434343" stroke-width="1.0" stroke-linejoin="round" stroke-linecap="butt" stroke-dasharray="4.0,3.0" d="m207.87401 236.14436l0 31.858261" fill-rule="evenodd"/><path fill="#434343" stroke="#434343" stroke-width="1.0" stroke-linecap="butt" d="m206.22229 268.00262l1.6517181 4.538086l1.6517334 -4.538086z" fill-rule="evenodd"/></g></svg>